# This file uses centimeters as units for non-parametric coordinates.

v -0.102273 1.083972 -0.053412
v -0.102273 0.000000 -0.053412
v 0.102273 1.083972 -0.053412
v 0.102273 0.000000 -0.053412
v 0.102273 1.083972 0.053414
v 0.102273 0.000000 0.053414
v -0.102273 1.083972 0.053414
v -0.102273 0.000000 0.053414
v 0.000000 1.083972 0.110552
v 0.000000 1.083972 -0.110552
v 0.000000 0.000000 -0.110552
v 0.000000 0.000000 0.110552
v 0.000000 1.147226 0.077733
v 0.000000 1.147226 -0.077732
v 0.071912 1.147226 -0.037556
v 0.071912 1.147226 0.037556
v -0.071912 1.147226 0.037556
v -0.071912 1.147226 -0.037556
v 0.000000 1.266605 0.122197
v 0.000000 1.266605 -0.122197
v 0.113045 1.266605 -0.059039
v 0.113045 1.266605 0.059039
v -0.113045 1.266605 0.059039
v -0.113045 1.266605 -0.059039
v 0.000000 1.705107 0.044415
v 0.000000 1.705107 -0.044415
v 0.041089 1.705107 -0.021459
v 0.041089 1.705107 0.021459
v -0.041089 1.705107 0.021459
v -0.041089 1.705107 -0.021459
v 0.000000 2.324844 0.022186
v 0.000000 2.324844 -0.022186
v 0.020525 2.324844 -0.010719
v 0.020525 2.324844 0.010719
v -0.020525 2.324844 0.010719
v -0.020525 2.324844 -0.010719
vt 0.252469 0.265206
vt 0.252469 0.265206
vt 0.252469 0.265206
vt 0.252469 0.265206
vt 0.252469 0.265206
vt 0.252469 0.265206
vt 0.252469 0.265206
vt 0.252469 0.265206
vt 0.252469 0.265206
vt 0.252469 0.265206
vt 0.252469 0.265206
vt 0.252469 0.265206
vt 0.252469 0.265206
vt 0.252469 0.265206
vt 0.252469 0.265206
vt 0.252469 0.265206
vt 0.252469 0.265206
vt 0.252469 0.265206
vt 0.252469 0.265206
vt 0.252469 0.265206
vt 0.252469 0.265206
vt 0.252469 0.265206
vt 0.252469 0.265206
vt 0.252469 0.265206
vt 0.252469 0.265206
vt 0.252469 0.265206
vt 0.252469 0.265206
vt 0.252469 0.265206
vt 0.252469 0.265206
vt 0.252469 0.265206
vt 0.252469 0.265206
vt 0.252469 0.265206
vt 0.252469 0.265206
vt 0.252469 0.265206
vt 0.252469 0.265206
vt 0.252469 0.265206
vt 0.252469 0.265206
vt 0.252469 0.265206
vt 0.252469 0.265206
vt 0.252469 0.265206
vt 0.252469 0.265206
vt 0.252469 0.265206
vt 0.252469 0.265206
vt 0.252469 0.265206
vn 0.000000 0.000000 -1.000000
vn 0.487737 0.000000 -0.872990
vn 0.487737 0.000000 -0.872990
vn 0.000000 0.000000 -1.000000
vn 1.000000 0.000000 0.000000
vn 1.000000 0.000000 0.000000
vn 1.000000 0.000000 0.000000
vn 1.000000 0.000000 0.000000
vn 0.487725 0.000000 0.872997
vn 0.000000 0.000000 1.000000
vn 0.000000 0.000000 1.000000
vn 0.487725 0.000000 0.872997
vn -1.000000 0.000000 0.000000
vn -1.000000 0.000000 0.000000
vn -1.000000 0.000000 0.000000
vn -1.000000 0.000000 0.000000
vn 0.000000 -1.000000 0.000000
vn 0.000000 -1.000000 0.000000
vn 0.000000 -1.000000 0.000000
vn 0.000000 -1.000000 0.000000
vn 0.000000 1.000000 0.000000
vn 0.000000 1.000000 0.000000
vn 0.000000 1.000000 0.000000
vn 0.000000 1.000000 0.000000
vn 0.000000 1.000000 0.000000
vn 0.000000 1.000000 0.000000
vn 0.000000 1.000000 0.000000
vn 0.000000 1.000000 0.000000
vn -0.487737 0.000000 -0.872990
vn 0.000000 0.000000 -1.000000
vn 0.000000 0.000000 -1.000000
vn -0.487737 0.000000 -0.872990
vn 0.000000 -1.000000 0.000000
vn 0.000000 -1.000000 0.000000
vn 0.000000 -1.000000 0.000000
vn 0.000000 -1.000000 0.000000
vn 0.000000 0.000000 1.000000
vn -0.487725 0.000000 0.872997
vn -0.487725 0.000000 0.872997
vn 0.000000 0.000000 1.000000
vn 0.444283 0.412598 -0.795220
vn 0.444283 0.412598 -0.795221
vn 0.444283 0.412598 -0.795221
vn 0.444283 0.412598 -0.795221
vn 0.901529 0.432718 0.000000
vn 0.901529 0.432718 0.000000
vn 0.901529 0.432718 0.000000
vn 0.901529 0.432718 0.000000
vn 0.444280 0.412601 0.795221
vn 0.444280 0.412601 0.795220
vn 0.444280 0.412601 0.795220
vn 0.444280 0.412601 0.795221
vn -0.901529 0.432718 0.000000
vn -0.901529 0.432718 0.000000
vn -0.901529 0.432718 0.000000
vn -0.901529 0.432718 0.000000
vn -0.444283 0.412598 -0.795220
vn -0.444283 0.412598 -0.795221
vn -0.444283 0.412598 -0.795221
vn -0.444283 0.412598 -0.795221
vn -0.444280 0.412601 0.795221
vn -0.444280 0.412601 0.795221
vn -0.444280 0.412601 0.795221
vn -0.444280 0.412601 0.795221
vn 0.463830 -0.309224 -0.830207
vn 0.463829 -0.309224 -0.830207
vn 0.463829 -0.309224 -0.830207
vn 0.463830 -0.309224 -0.830207
vn 0.945451 -0.325763 0.000000
vn 0.945451 -0.325763 0.000000
vn 0.945451 -0.325763 0.000000
vn 0.945451 -0.325763 0.000000
vn 0.463835 -0.309218 0.830206
vn 0.463835 -0.309218 0.830206
vn 0.463835 -0.309218 0.830206
vn 0.463835 -0.309218 0.830206
vn -0.945451 -0.325763 0.000000
vn -0.945451 -0.325763 0.000000
vn -0.945451 -0.325763 0.000000
vn -0.945451 -0.325763 0.000000
vn -0.463830 -0.309224 -0.830207
vn -0.463829 -0.309224 -0.830207
vn -0.463829 -0.309224 -0.830207
vn -0.463830 -0.309224 -0.830207
vn -0.463835 -0.309218 0.830206
vn -0.463835 -0.309218 0.830206
vn -0.463835 -0.309218 0.830206
vn -0.463835 -0.309218 0.830206
vn 0.481991 0.153028 -0.862709
vn 0.481991 0.153028 -0.862709
vn 0.481991 0.153028 -0.862709
vn 0.481991 0.153028 -0.862709
vn 0.986802 0.161929 0.000000
vn 0.986802 0.161929 0.000000
vn 0.986802 0.161929 0.000000
vn 0.986802 0.161929 0.000000
vn 0.481992 0.153027 0.862709
vn 0.481992 0.153027 0.862709
vn 0.481992 0.153027 0.862709
vn 0.481992 0.153027 0.862709
vn -0.986802 0.161929 0.000000
vn -0.986802 0.161929 0.000000
vn -0.986802 0.161929 0.000000
vn -0.986802 0.161929 0.000000
vn -0.481991 0.153028 -0.862709
vn -0.481991 0.153028 -0.862709
vn -0.481991 0.153028 -0.862709
vn -0.481991 0.153028 -0.862709
vn -0.481992 0.153027 0.862709
vn -0.481992 0.153027 0.862709
vn -0.481992 0.153027 0.862709
vn -0.481992 0.153027 0.862709
vn 0.487491 0.031297 -0.872567
vn 0.487491 0.031297 -0.872567
vn 0.487491 0.031297 -0.872567
vn 0.487491 0.031297 -0.872567
vn 0.999450 0.033164 0.000000
vn 0.999450 0.033164 0.000000
vn 0.999450 0.033164 0.000000
vn 0.999450 0.033164 0.000000
vn 0.487493 0.031297 0.872566
vn 0.487493 0.031297 0.872566
vn 0.487493 0.031297 0.872566
vn 0.487493 0.031297 0.872566
vn -0.999450 0.033164 0.000000
vn -0.999450 0.033164 0.000000
vn -0.999450 0.033164 0.000000
vn -0.999450 0.033164 0.000000
vn -0.487491 0.031297 -0.872567
vn -0.487491 0.031297 -0.872567
vn -0.487491 0.031297 -0.872567
vn -0.487491 0.031297 -0.872567
vn -0.487493 0.031297 0.872566
vn -0.487493 0.031297 0.872566
vn -0.487493 0.031297 0.872566
vn -0.487493 0.031297 0.872566
s off
f 10/1/1 3/2/2 4/3/3 11/4/4
f 3/2/5 5/5/6 6/6/7 4/3/8
f 5/5/9 9/7/10 12/8/11 6/6/12
f 7/9/13 1/10/14 2/11/15 8/12/16
f 11/4/17 4/3/18 6/13/19 12/14/20
f 31/15/21 34/16/22 33/17/23 32/18/24
f 35/19/25 31/15/26 32/18/27 36/20/28
f 1/21/29 10/1/30 11/4/31 2/22/32
f 2/22/33 11/4/34 12/14/35 8/23/36
f 9/7/37 7/9/38 8/12/39 12/8/40
f 10/1/41 14/24/42 15/25/43 3/2/44
f 3/2/45 15/25/46 16/26/47 5/27/48
f 5/27/49 16/26/50 13/28/51 9/29/52
f 7/30/53 17/31/54 18/32/55 1/21/56
f 1/21/57 18/32/58 14/24/59 10/1/60
f 9/29/61 13/28/62 17/31/63 7/30/64
f 14/24/65 20/33/66 21/34/67 15/25/68
f 15/25/69 21/34/70 22/35/71 16/26/72
f 16/26/73 22/35/74 19/36/75 13/28/76
f 17/31/77 23/37/78 24/38/79 18/32/80
f 18/32/81 24/38/82 20/33/83 14/24/84
f 13/28/85 19/36/86 23/37/87 17/31/88
f 20/33/89 26/39/90 27/40/91 21/34/92
f 21/34/93 27/40/94 28/41/95 22/35/96
f 22/35/97 28/41/98 25/42/99 19/36/100
f 23/37/101 29/43/102 30/44/103 24/38/104
f 24/38/105 30/44/106 26/39/107 20/33/108
f 19/36/109 25/42/110 29/43/111 23/37/112
f 26/39/113 32/18/114 33/17/115 27/40/116
f 27/40/117 33/17/118 34/16/119 28/41/120
f 28/41/121 34/16/122 31/15/123 25/42/124
f 29/43/125 35/19/126 36/20/127 30/44/128
f 30/44/129 36/20/130 32/18/131 26/39/132
f 25/42/133 31/15/134 35/19/135 29/43/136
