# This file uses centimeters as units for non-parametric coordinates.

v -0.114252 0.016614 0.114252
v 0.114252 0.016614 0.114252
v -0.114252 2.159168 0.114252
v 0.114252 2.159168 0.114252
v -0.114252 2.159168 -0.096486
v 0.114252 2.159168 -0.114252
v -0.114252 0.016614 -0.096486
v 0.114252 0.016614 -0.114252
v -0.088279 0.946230 0.098036
v -0.088243 0.946230 -0.068691
v 0.140262 0.946230 -0.086457
v 0.140262 0.946230 0.142047
v -0.114252 1.823897 0.114252
v -0.114252 1.823897 -0.056754
v 0.114252 1.823897 -0.114252
v 0.114252 1.823897 0.114252
v -0.005762 0.946230 0.142047
v -0.031772 0.016614 0.114252
v -0.031772 0.016614 -0.114252
v -0.005762 0.946230 -0.086457
v -0.031772 1.823897 -0.114252
v -0.031772 2.159168 -0.114252
v -0.031772 2.159168 0.114252
v -0.031772 1.823897 0.114252
vt 0.251820 0.261626
vt 0.251819 0.261626
vt 0.251820 0.261626
vt 0.251819 0.261626
vt 0.251820 0.261626
vt 0.251819 0.261626
vt 0.251820 0.261626
vt 0.251819 0.261626
vt 0.251820 0.261626
vt 0.251819 0.261626
vt 0.251819 0.261626
vt 0.251819 0.261626
vt 0.251819 0.261626
vt 0.251819 0.261626
vt 0.251820 0.261626
vt 0.251819 0.261626
vt 0.251820 0.261626
vt 0.251819 0.261626
vt 0.251819 0.261626
vt 0.251819 0.261626
vt 0.251820 0.261626
vt 0.251819 0.261626
vt 0.251820 0.261626
vt 0.251819 0.261626
vt 0.251819 0.261626
vt 0.251819 0.261626
vt 0.251820 0.261626
vt 0.251820 0.261626
vt 0.251820 0.261626
vt 0.251820 0.261626
vt 0.251820 0.261626
vt 0.251820 0.261626
vt 0.251820 0.261626
vt 0.251820 0.261626
vt 0.251820 0.261626
vn 0.000000 -0.029886 0.999553
vn 0.000000 -0.029886 0.999553
vn 0.000000 -0.029886 0.999553
vn 0.000000 -0.029886 0.999553
vn 0.000000 1.000000 0.000000
vn 0.000000 1.000000 0.000000
vn 0.000000 1.000000 0.000000
vn 0.000000 1.000000 0.000000
vn 0.000000 0.029886 -0.999553
vn 0.000000 0.029886 -0.999553
vn 0.000000 0.029886 -0.999553
vn 0.000000 0.029886 -0.999553
vn 0.000000 -1.000000 0.000000
vn 0.000000 -1.000000 0.000000
vn 0.000000 -1.000000 0.000000
vn 0.000000 -1.000000 0.000000
vn 0.999609 -0.027968 0.000000
vn 0.999609 -0.027968 0.000000
vn 0.999609 -0.027968 0.000000
vn 0.999609 -0.027968 0.000000
vn -0.999609 0.027949 -0.000094
vn -0.999609 0.027949 -0.000094
vn -0.999609 0.027949 -0.000094
vn -0.999609 0.027949 -0.000094
vn -0.999562 -0.029600 -0.000105
vn -0.999562 -0.029600 -0.000105
vn -0.999562 -0.029600 -0.000105
vn -0.999562 -0.029600 -0.000105
vn 0.000000 -0.031653 -0.999499
vn 0.000000 -0.031653 -0.999499
vn 0.000000 -0.031653 -0.999499
vn 0.000000 -0.031653 -0.999499
vn 0.999561 0.029622 0.000000
vn 0.999561 0.029622 0.000000
vn 0.999561 0.029622 0.000000
vn 0.999561 0.029622 0.000000
vn 0.000000 0.031653 0.999499
vn 0.000000 0.031653 0.999499
vn 0.000000 0.031653 0.999499
vn 0.000000 0.031653 0.999499
vn -1.000000 -0.000000 0.000000
vn -1.000000 -0.000000 0.000000
vn -1.000000 -0.000000 0.000000
vn -1.000000 -0.000000 0.000000
vn 0.000000 0.000000 -1.000000
vn 0.000000 0.000000 -1.000000
vn 0.000000 0.000000 -1.000000
vn 0.000000 0.000000 -1.000000
vn 1.000000 0.000000 0.000000
vn 1.000000 0.000000 0.000000
vn 1.000000 0.000000 0.000000
vn 1.000000 0.000000 0.000000
vn 0.000000 0.000000 1.000000
vn 0.000000 0.000000 1.000000
vn 0.000000 0.000000 1.000000
vn 0.000000 0.000000 1.000000
vn -0.257732 0.001189 0.966216
vn -0.257732 0.001189 0.966216
vn -0.257732 0.001189 0.966216
vn -0.257732 0.001189 0.966216
vn 0.000000 -1.000000 0.000000
vn 0.000000 -1.000000 0.000000
vn 0.000000 -1.000000 0.000000
vn 0.000000 -1.000000 0.000000
vn -0.210440 0.035099 -0.976977
vn -0.210440 0.035099 -0.976977
vn -0.210440 0.035099 -0.976977
vn -0.210440 0.035099 -0.976977
vn -0.415005 -0.020516 -0.909588
vn -0.415005 -0.020516 -0.909588
vn -0.415005 -0.020516 -0.909588
vn -0.415005 -0.020516 -0.909588
vn -0.414490 -0.053830 -0.908460
vn -0.414490 -0.053830 -0.908460
vn -0.414490 -0.053830 -0.908460
vn -0.414490 -0.053830 -0.908460
vn 0.000000 1.000000 0.000000
vn 0.000000 1.000000 0.000000
vn 0.000000 1.000000 0.000000
vn 0.000000 1.000000 0.000000
vn 0.000000 0.000000 1.000000
vn 0.000000 0.000000 1.000000
vn 0.000000 0.000000 1.000000
vn 0.000000 0.000000 1.000000
vn -0.257732 -0.001259 0.966216
vn -0.257732 -0.001259 0.966216
vn -0.257732 -0.001259 0.966216
vn -0.257732 -0.001259 0.966216
s off
f 18/28/1 2/2/2 12/20/3 17/27/4
f 23/34/5 4/4/6 6/6/7 22/33/8
f 20/31/9 11/18/10 8/8/11 19/30/12
f 19/30/13 8/8/14 2/10/15 18/29/16
f 2/2/17 8/11/18 11/19/19 12/20/20
f 7/13/21 1/1/22 9/15/23 10/16/24
f 10/16/25 9/15/26 13/21/27 14/22/28
f 21/32/29 15/24/30 11/18/31 20/31/32
f 12/20/33 11/19/34 15/25/35 16/26/36
f 24/35/37 17/27/38 12/20/39 16/26/40
f 14/22/41 13/21/42 3/3/43 5/14/44
f 22/33/45 6/6/46 15/24/47 21/32/48
f 16/26/49 15/25/50 6/12/51 4/4/52
f 24/35/53 16/26/54 4/4/55 23/34/56
f 1/1/57 18/28/58 17/27/59 9/15/60
f 7/7/61 19/30/62 18/29/63 1/9/64
f 10/17/65 20/31/66 19/30/67 7/7/68
f 14/23/69 21/32/70 20/31/71 10/17/72
f 5/5/73 22/33/74 21/32/75 14/23/76
f 3/3/77 23/34/78 22/33/79 5/5/80
f 13/21/81 24/35/82 23/34/83 3/3/84
f 9/15/85 17/27/86 24/35/87 13/21/88
