# This file uses centimeters as units for non-parametric coordinates.

v -2.500000 0.000000 1.958951
v 2.500000 0.000000 1.958951
v -2.500000 7.599448 0.531052
v 2.500000 7.599448 0.531052
v -2.500000 7.599448 -0.531052
v 2.500000 7.599448 -0.531052
v -2.500000 0.000000 -1.958951
v 2.500000 0.000000 -1.958951
v -2.500000 7.880209 0.221818
v 2.500000 7.880209 0.221818
v 2.500000 7.880209 -0.279763
v -2.500000 7.880209 -0.279763
v -2.500000 7.784901 -0.457530
v -2.500000 7.784901 0.399585
v 2.500000 7.784901 0.399585
v 2.500000 7.784901 -0.457530
v 0.000000 7.880209 -0.279763
v 0.000000 7.880209 0.221818
v 0.000000 7.599448 0.531052
v 0.000000 0.000000 1.958951
v 0.000000 0.000000 -1.958951
v 0.000000 7.599448 -0.531052
v 0.000000 7.784901 -0.457530
v 0.000000 5.319613 -0.832600
v -2.500000 5.319613 -0.832600
v -2.041506 5.905914 0.731259
v 0.177373 5.343408 0.830903
v 2.500000 5.319613 0.832600
v 2.309522 5.901017 -0.729903
v 0.000000 3.191768 -1.222075
v -2.500000 3.191768 -1.222075
v -2.202785 3.191768 1.221167
v 0.000000 3.191768 1.222075
v 2.140048 1.984900 1.336653
v 2.500000 3.191768 -1.222075
v -2.500000 6.147636 0.690172
v -2.500000 5.693545 0.764728
v 2.500000 2.752493 1.276636
v 2.500000 1.501079 1.367841
v 2.500000 1.984900 0.387538
v -2.500000 3.774176 1.128814
v -2.500000 3.191768 0.628701
v -2.500000 2.559546 1.295613
v 2.500000 6.233485 -0.677241
v 2.500000 5.901017 -0.535508
v 2.500000 5.455144 -0.807443
v -0.160798 7.784901 0.400008
v 0.139289 7.784901 0.400008
v -2.500000 5.905914 0.521379
v 0.000000 1.595884 1.471655
vt 0.352700 0.186031
vt 0.352700 0.186031
vt 0.352700 0.186031
vt 0.352700 0.186031
vt 0.352700 0.186031
vt 0.352700 0.186031
vt 0.352700 0.186031
vt 0.352700 0.186031
vt 0.352700 0.186031
vt 0.352700 0.186031
vt 0.352700 0.186031
vt 0.352700 0.186031
vt 0.352700 0.186031
vt 0.352700 0.186031
vt 0.352700 0.186031
vt 0.352700 0.186031
vt 0.352700 0.186031
vt 0.352700 0.186031
vt 0.352700 0.186031
vt 0.352700 0.186031
vt 0.352700 0.186031
vt 0.352700 0.186031
vt 0.352700 0.186031
vt 0.352700 0.186031
vt 0.352700 0.186031
vt 0.352700 0.186031
vt 0.352700 0.186031
vt 0.352700 0.186031
vt 0.352700 0.186031
vt 0.352700 0.186031
vt 0.352700 0.186031
vt 0.352700 0.186031
vt 0.352700 0.186031
vt 0.352700 0.186031
vt 0.352700 0.186031
vt 0.352700 0.186031
vt 0.352700 0.186031
vt 0.352700 0.186031
vt 0.352700 0.186031
vt 0.352700 0.186031
vt 0.352700 0.186031
vt 0.352700 0.186031
vt 0.352700 0.186031
vt 0.352700 0.186031
vt 0.352700 0.186031
vt 0.352700 0.186031
vt 0.352700 0.186031
vt 0.352700 0.186031
vt 0.352700 0.186031
vt 0.352700 0.186031
vt 0.352700 0.186031
vt 0.352700 0.186031
vt 0.352700 0.186031
vt 0.352700 0.186031
vt 0.352700 0.186031
vt 0.352700 0.186031
vt 0.352700 0.186031
vt 0.352700 0.186031
vt 0.352700 0.186031
vt 0.352700 0.186031
vn 0.000300 0.131449 0.991323
vn 0.000300 0.131449 0.991323
vn 0.000300 0.131449 0.991323
vn 0.000300 0.131449 0.991323
vn 0.000000 1.000000 0.000000
vn 0.000000 1.000000 0.000000
vn 0.000000 1.000000 0.000000
vn 0.000000 1.000000 0.000000
vn 0.684452 -0.285906 -0.670659
vn 0.684452 -0.285906 -0.670659
vn 0.684452 -0.285906 -0.670659
vn -1.000000 0.000000 0.000000
vn -1.000000 0.000000 0.000000
vn -1.000000 0.000000 0.000000
vn -1.000000 0.000000 0.000000
vn -1.000000 0.000000 0.000000
vn -0.333151 0.698073 0.633802
vn -0.333151 0.698073 0.633802
vn -0.333151 0.698073 0.633802
vn 1.000000 -0.000003 0.000000
vn 1.000000 -0.000003 0.000000
vn 1.000000 -0.000003 0.000000
vn 1.000000 -0.000003 0.000000
vn 0.000000 0.881322 -0.472516
vn 0.000000 0.881322 -0.472516
vn 0.000000 0.881322 -0.472516
vn 0.000000 0.881322 -0.472516
vn -1.000000 -0.000001 0.000000
vn -1.000000 -0.000001 0.000000
vn -1.000000 -0.000001 0.000000
vn -1.000000 -0.000001 0.000000
vn -1.000000 0.000000 0.000000
vn -1.000000 0.000000 0.000000
vn -1.000000 0.000000 0.000000
vn -1.000000 0.000000 0.000000
vn 1.000000 0.000000 0.000000
vn 1.000000 0.000000 0.000000
vn 1.000000 0.000000 0.000000
vn 1.000000 0.000000 0.000000
vn 0.000000 0.368541 -0.929612
vn 0.000000 0.368541 -0.929612
vn 0.000000 0.368541 -0.929612
vn 0.000000 0.368541 -0.929612
vn 0.000000 1.000000 0.000000
vn 0.000000 1.000000 0.000000
vn 0.000000 1.000000 0.000000
vn 0.000000 1.000000 0.000000
vn 0.292672 0.707949 0.642769
vn 0.292672 0.707949 0.642769
vn 0.292672 0.707949 0.642769
vn -0.007825 0.123576 0.992304
vn -0.007825 0.123576 0.992304
vn -0.007825 0.123576 0.992304
vn -0.007825 0.123576 0.992304
vn -0.007825 0.123576 0.992304
vn 0.000000 0.131126 -0.991366
vn 0.000000 0.131126 -0.991366
vn 0.000000 0.131126 -0.991366
vn 0.000000 0.131126 -0.991366
vn 0.000000 0.368541 -0.929612
vn 0.000000 0.368541 -0.929612
vn 0.000000 0.368541 -0.929612
vn 0.000000 0.368541 -0.929612
vn 0.000000 0.881322 -0.472516
vn 0.000000 0.881322 -0.472516
vn 0.000000 0.881322 -0.472516
vn 0.000000 0.881322 -0.472516
vn 0.000000 0.180046 -0.983658
vn 0.000000 0.180046 -0.983658
vn 0.000000 0.180046 -0.983658
vn 0.000000 0.180046 -0.983658
vn -0.834137 -0.359324 0.418452
vn -0.834137 -0.359324 0.418452
vn -0.834137 -0.359324 0.418452
vn 0.864901 -0.379938 0.328014
vn 0.864901 -0.379938 0.328014
vn 0.864901 -0.379938 0.328014
vn 0.000000 0.224951 -0.974370
vn 0.000000 0.224951 -0.974370
vn 0.000000 0.224951 -0.974370
vn 0.000000 0.224951 -0.974370
vn -0.808004 0.427583 0.405342
vn -0.808004 0.427583 0.405342
vn -0.808004 0.427583 0.405342
vn 0.759341 0.583497 0.287981
vn 0.759341 0.583497 0.287980
vn 0.759341 0.583497 0.287981
vn 0.000000 0.224951 -0.974370
vn 0.000000 0.224951 -0.974370
vn 0.000000 0.224951 -0.974370
vn 0.000000 0.224951 -0.974370
vn -0.351379 -0.536016 0.767607
vn -0.351379 -0.536016 0.767607
vn -0.351379 -0.536016 0.767607
vn -0.288215 0.721466 0.629618
vn -0.288215 0.721466 0.629618
vn -0.288215 0.721466 0.629618
vn 0.001026 0.170440 0.985368
vn 0.001026 0.170440 0.985368
vn 0.001026 0.170440 0.985368
vn 0.025835 0.328738 0.944068
vn 0.025835 0.328738 0.944068
vn 0.025835 0.328738 0.944068
vn 0.025835 0.328738 0.944068
vn 1.000000 -0.000000 0.000000
vn 1.000000 -0.000000 0.000000
vn 1.000000 -0.000000 0.000000
vn 1.000000 -0.000000 0.000000
vn 0.656925 0.392579 -0.643686
vn 0.656925 0.392579 -0.643686
vn 0.656925 0.392579 -0.643686
vn -1.000000 -0.000000 0.000000
vn -1.000000 -0.000000 0.000000
vn -1.000000 -0.000000 0.000000
vn -1.000000 -0.000000 0.000000
vn -1.000000 -0.000000 0.000000
vn -1.000000 -0.000000 0.000000
vn -1.000000 -0.000000 0.000000
vn -1.000000 -0.000000 0.000000
vn -1.000000 -0.000000 0.000000
vn -1.000000 -0.000000 0.000000
vn 0.017498 0.266817 0.963589
vn 0.017498 0.266817 0.963589
vn 0.017498 0.266817 0.963589
vn 0.017498 0.266817 0.963589
vn -0.000313 0.183398 0.983039
vn -0.000313 0.183398 0.983039
vn -0.000313 0.183398 0.983039
vn -0.000313 0.183398 0.983039
vn 1.000000 -0.000000 0.000000
vn 1.000000 -0.000000 0.000000
vn 1.000000 -0.000000 0.000000
vn 1.000000 -0.000000 0.000000
vn 1.000000 -0.000000 0.000000
vn 1.000000 0.000000 0.000000
vn 1.000000 0.000000 0.000000
vn 1.000000 0.000000 0.000000
vn 1.000000 0.000000 0.000000
vn 1.000000 0.000000 0.000000
vn 1.000000 0.000000 0.000000
vn 0.000118 0.179320 -0.983791
vn 0.000118 0.179320 -0.983791
vn 0.000118 0.179321 -0.983791
vn 0.000118 0.179321 -0.983791
vn 0.000118 0.179320 -0.983791
vn 0.008341 0.124026 -0.992244
vn 0.008341 0.124026 -0.992244
vn 0.008341 0.124026 -0.992244
vn 0.008341 0.124026 -0.992244
vn 0.008341 0.124026 -0.992244
vn -0.000041 0.881563 0.472066
vn -0.000041 0.881563 0.472066
vn -0.000041 0.881563 0.472066
vn -0.000041 0.881563 0.472066
vn -0.000071 0.577682 0.816262
vn -0.000071 0.577682 0.816262
vn -0.000071 0.577682 0.816262
vn -0.000071 0.577682 0.816262
vn 0.000071 0.577684 0.816260
vn 0.000071 0.577684 0.816260
vn 0.000071 0.577684 0.816260
vn 0.000071 0.577684 0.816260
vn 0.000041 0.881563 0.472067
vn 0.000041 0.881563 0.472067
vn 0.000041 0.881563 0.472067
vn 0.000041 0.881563 0.472067
vn 0.036973 0.139980 0.989464
vn 0.036973 0.139980 0.989464
vn 0.036973 0.139980 0.989464
vn 0.036973 0.139980 0.989464
vn -0.007538 0.144893 0.989419
vn -0.007538 0.144893 0.989419
vn -0.007538 0.144893 0.989419
vn -0.007538 0.144893 0.989419
vn -1.000000 0.000000 0.000000
vn -1.000000 0.000000 0.000000
vn -1.000000 0.000000 0.000000
vn 1.000000 0.000000 0.000000
vn 1.000000 0.000000 0.000000
vn 1.000000 0.000000 0.000000
vn 0.005106 0.151824 0.988394
vn 0.005106 0.151824 0.988394
vn 0.005106 0.151824 0.988394
vn 0.005106 0.151824 0.988394
vn 0.003876 0.174314 0.984683
vn 0.003876 0.174314 0.984683
vn 0.003876 0.174314 0.984683
vn 0.003876 0.174314 0.984683
s off
f 19/23/1 27/32/2 28/33/3 4/4/4
f 17/21/5 18/22/6 10/14/7 11/15/8
f 44/53/9 45/54/10 29/35/11
f 36/44/12 3/3/13 5/12/14 25/29/15 49/59/16
f 18/22/17 19/23/18 48/58/19
f 15/19/20 16/20/21 11/15/22 10/14/23
f 16/20/24 23/27/25 17/21/26 11/15/27
f 13/17/28 14/18/29 9/13/30 12/16/31
f 5/5/32 3/3/33 14/18/34 13/17/35
f 4/4/36 6/6/37 16/20/38 15/19/39
f 6/6/40 22/26/41 23/27/42 16/20/43
f 9/13/44 18/22/45 17/21/46 12/16/47
f 18/22/48 47/57/49 19/23/50
f 36/44/51 26/31/52 27/32/53 19/23/54 3/3/55
f 5/5/56 22/26/57 24/28/58 25/30/59
f 23/27/60 22/26/61 5/5/62 13/17/63
f 17/21/64 23/27/65 13/17/66 12/16/67
f 25/30/68 24/28/69 30/36/70 31/38/71
f 41/49/72 42/50/73 32/39/74
f 34/41/75 40/48/76 38/46/77
f 31/38/78 30/36/79 21/25/80 7/7/81
f 42/50/82 43/51/83 32/39/84
f 39/47/85 40/48/86 34/41/87
f 21/25/88 30/36/89 35/42/90 8/8/91
f 36/44/92 49/59/93 26/31/94
f 49/59/95 37/45/96 26/31/97
f 28/33/98 27/32/99 38/46/100
f 39/47/101 50/60/102 20/24/103 2/2/104
f 39/47/105 8/9/106 35/43/107 40/48/108
f 45/54/109 46/56/110 29/35/111
f 25/29/112 31/37/113 42/50/114 41/49/115 37/45/116 49/59/117
f 7/11/118 43/51/119 42/50/120 31/37/121
f 1/1/122 20/24/123 50/60/124 43/51/125
f 41/49/126 27/32/127 26/31/128 37/45/129
f 28/33/130 45/54/131 44/53/132 6/10/133 4/4/134
f 38/46/135 40/48/136 35/43/137 46/56/138 45/54/139 28/33/140
f 35/42/141 30/36/142 24/28/143 29/34/144 46/55/145
f 44/52/146 29/34/147 24/28/148 22/26/149 6/6/150
f 14/18/151 47/57/152 18/22/153 9/13/154
f 3/3/155 19/23/156 47/57/157 14/18/158
f 48/58/159 19/23/160 4/4/161 15/19/162
f 18/22/163 48/58/164 15/19/165 10/14/166
f 39/47/167 34/41/168 33/40/169 50/60/170
f 43/51/171 50/60/172 33/40/173 32/39/174
f 7/11/175 1/1/176 43/51/177
f 2/2/178 8/9/179 39/47/180
f 38/46/181 27/32/182 33/40/183 34/41/184
f 41/49/185 32/39/186 33/40/187 27/32/188
