# This file uses centimeters as units for non-parametric coordinates.

v -1.875004 0.172594 1.875008
v 1.874996 0.172594 1.875008
v -1.875004 3.172595 1.875008
v 1.874996 3.172595 1.875008
v -1.875004 3.172595 -1.874992
v 1.874996 3.172595 -1.874992
v -1.875004 0.172594 -1.874992
v 1.874996 0.172594 -1.874992
v -2.001190 3.172595 2.001190
v 2.001186 3.172595 2.001190
v 2.001186 3.172595 -2.001183
v -2.001190 3.172595 -2.001183
v -2.001190 3.328034 2.001190
v 2.001186 3.328034 2.001190
v 2.001186 3.328034 -2.001183
v -2.001190 3.328034 -2.001183
v -1.917873 0.172594 -1.917862
v 1.917862 0.172594 -1.917862
v 1.917862 0.172594 1.917877
v -1.917873 0.172594 1.917877
v -1.917873 0.000000 -1.917862
v 1.917862 0.000000 -1.917862
v 1.917862 0.000000 1.917877
v -1.917873 0.000000 1.917877
v -0.000004 3.328034 2.001190
vt 0.361897 0.189419
vt 0.361897 0.189419
vt 0.971302 0.013485
vt 0.971302 0.213485
vt 0.771302 0.213485
vt 0.771302 0.013485
vt 0.361897 0.189419
vt 0.361897 0.189419
vt 0.361897 0.189420
vt 0.361897 0.189420
vt 0.361897 0.189420
vt 0.361897 0.189420
vt 0.361897 0.189419
vt 0.361897 0.189419
vt 0.361897 0.189419
vt 0.361897 0.189419
vt 0.361897 0.189419
vt 0.361897 0.189419
vt 0.361897 0.189419
vt 0.361897 0.189419
vt 0.361897 0.189420
vt 0.361897 0.189420
vt 0.361897 0.189420
vt 0.361897 0.189420
vt 0.361897 0.189420
vt 0.361897 0.189420
vt 0.361897 0.189420
vt 0.361897 0.189420
vt 0.361897 0.189419
vt 0.731240 0.162680
vt 0.863202 0.162680
vt 0.863202 0.010345
vt 0.731240 0.010345
vt 0.841928 0.120390
vt 0.727590 0.120390
vt 0.727590 0.271961
vt 0.841928 0.271961
vt 0.813115 0.291923
vt 0.813115 0.132158
vt 0.976246 0.132158
vt 0.976246 0.291923
vn 0.000000 1.000000 -0.000000
vn 0.000000 1.000000 -0.000000
vn 0.000000 1.000000 -0.000000
vn 0.000000 1.000000 -0.000000
vn 0.000000 1.000000 -0.000000
vn 0.000000 -1.000000 0.000000
vn 0.000000 -1.000000 0.000000
vn 0.000000 -1.000000 0.000000
vn 0.000000 -1.000000 0.000000
vn 0.000000 0.000000 1.000000
vn 0.000000 0.000000 1.000000
vn 0.000000 0.000000 1.000000
vn 0.000000 0.000000 1.000000
vn 0.000000 -1.000000 -0.000000
vn 0.000000 -1.000000 -0.000000
vn 0.000000 -1.000000 -0.000000
vn 0.000000 -1.000000 -0.000000
vn 0.000000 -1.000000 0.000000
vn 0.000000 -1.000000 0.000000
vn 0.000000 -1.000000 0.000000
vn 0.000000 -1.000000 0.000000
vn 0.000000 -1.000000 -0.000001
vn 0.000000 -1.000000 -0.000001
vn 0.000000 -1.000000 -0.000001
vn 0.000000 -1.000000 -0.000001
vn 0.000000 -1.000000 0.000000
vn 0.000000 -1.000000 0.000000
vn 0.000000 -1.000000 0.000000
vn 0.000000 -1.000000 0.000000
vn 0.000000 0.000000 1.000000
vn 0.000000 0.000000 1.000000
vn 0.000000 0.000000 1.000000
vn 0.000000 0.000000 1.000000
vn 0.000000 0.000000 1.000000
vn 1.000000 0.000000 0.000000
vn 1.000000 0.000000 0.000000
vn 1.000000 0.000000 0.000000
vn 1.000000 0.000000 0.000000
vn 0.000000 0.000000 -1.000000
vn 0.000000 0.000000 -1.000000
vn 0.000000 0.000000 -1.000000
vn 0.000000 0.000000 -1.000000
vn -1.000000 0.000000 0.000000
vn -1.000000 0.000000 0.000000
vn -1.000000 0.000000 0.000000
vn -1.000000 0.000000 0.000000
vn 0.000000 1.000000 0.000000
vn 0.000000 1.000000 0.000000
vn 0.000000 1.000000 0.000000
vn 0.000000 1.000000 0.000000
vn 0.000000 1.000000 0.000000
vn 0.000000 1.000000 0.000000
vn 0.000000 1.000000 0.000000
vn 0.000000 1.000000 0.000000
vn 0.000000 1.000000 -0.000000
vn 0.000000 1.000000 -0.000000
vn 0.000000 1.000000 -0.000000
vn 0.000000 1.000000 -0.000000
vn 0.000000 1.000000 0.000000
vn 0.000000 1.000000 0.000000
vn 0.000000 1.000000 0.000000
vn 0.000000 1.000000 0.000000
vn 0.000000 0.000000 -1.000000
vn 0.000000 0.000000 -1.000000
vn 0.000000 0.000000 -1.000000
vn 0.000000 0.000000 -1.000000
vn 1.000000 0.000000 0.000000
vn 1.000000 0.000000 0.000000
vn 1.000000 0.000000 0.000000
vn 1.000000 0.000000 0.000000
vn 0.000000 0.000000 1.000000
vn 0.000000 0.000000 1.000000
vn 0.000000 0.000000 1.000000
vn 0.000000 0.000000 1.000000
vn -1.000000 0.000000 0.000000
vn -1.000000 0.000000 0.000000
vn -1.000000 0.000000 0.000000
vn -1.000000 0.000000 0.000000
vn 0.000000 0.000000 -1.000000
vn 0.000000 0.000000 -1.000000
vn 0.000000 0.000000 -1.000000
vn 0.000000 0.000000 -1.000000
vn 1.000000 0.000000 0.000000
vn 1.000000 0.000000 0.000000
vn 1.000000 0.000000 0.000000
vn 1.000000 0.000000 0.000000
vn -1.000000 0.000000 0.000000
vn -1.000000 0.000000 0.000000
vn -1.000000 0.000000 0.000000
vn -1.000000 0.000000 0.000000
s off
f 13/1/1 25/29/2 14/2/3 15/7/4 16/8/5
f 21/9/6 22/10/7 23/11/8 24/12/9
f 2/3/10 4/4/11 3/5/12 1/6/13
f 3/13/14 4/14/15 10/15/16 9/16/17
f 4/14/18 6/17/19 11/18/20 10/15/21
f 6/17/22 5/19/23 12/20/24 11/18/25
f 5/19/26 3/13/27 9/16/28 12/20/29
f 9/16/30 10/15/31 14/2/32 25/29/33 13/1/34
f 10/15/35 11/18/36 15/7/37 14/2/38
f 11/18/39 12/20/40 16/8/41 15/7/42
f 12/20/43 9/16/44 13/1/45 16/8/46
f 7/21/47 8/22/48 18/23/49 17/24/50
f 8/22/51 2/25/52 19/26/53 18/23/54
f 2/25/55 1/27/56 20/28/57 19/26/58
f 1/27/59 7/21/60 17/24/61 20/28/62
f 17/24/63 18/23/64 22/10/65 21/9/66
f 18/23/67 19/26/68 23/11/69 22/10/70
f 19/26/71 20/28/72 24/12/73 23/11/74
f 20/28/75 17/24/76 21/9/77 24/12/78
f 5/30/79 6/31/80 8/32/81 7/33/82
f 2/34/83 8/35/84 6/36/85 4/37/86
f 5/38/87 7/39/88 1/40/89 3/41/90
