# This file uses centimeters as units for non-parametric coordinates.

v -0.158905 0.013113 0.179192
v -0.064453 0.013113 0.179192
v -0.147003 3.339681 0.153969
v -0.076370 3.339650 0.153664
v -0.147003 3.339685 0.077614
v -0.076370 3.339667 0.084267
v -0.158905 0.013113 0.084740
v -0.064453 0.013113 0.084740
v -0.171173 0.854586 0.101601
v -0.142059 0.854586 0.191444
v -0.052200 0.854586 0.162331
v -0.081314 0.854586 0.072487
v -0.085495 2.474608 0.174721
v -0.155029 2.474608 0.151802
v -0.137878 2.474608 0.079842
v -0.068329 2.474608 0.104362
v -0.064819 3.276860 0.065407
v -0.066162 3.276833 0.156181
v -0.158569 3.276881 0.152794
v -0.157013 3.276886 0.049217
v 0.064163 0.013113 -0.127228
v 0.128860 0.013113 -0.084396
v -0.142426 2.565207 0.127907
v -0.093903 2.566148 0.159721
v -0.108231 2.573634 0.075996
v -0.062820 2.573817 0.112556
v 0.106476 0.013113 -0.191444
v 0.171173 0.013113 -0.148613
v 0.033340 0.656538 -0.118034
v 0.013031 0.647009 -0.043747
v 0.087631 0.651407 -0.022789
v 0.107941 0.660936 -0.097076
v -0.050812 1.897411 0.100517
v -0.088165 1.899023 0.053391
v -0.044189 1.907188 0.012245
v -0.007538 1.905401 0.060463
v -0.042191 2.527674 0.099922
v -0.083771 2.517621 0.161034
v -0.145554 2.516812 0.116829
v -0.098099 2.528264 0.047112
vt 0.329994 0.136551
vt 0.329994 0.136551
vt 0.329994 0.136551
vt 0.329994 0.136551
vt 0.329994 0.136551
vt 0.329994 0.136551
vt 0.329994 0.136551
vt 0.329994 0.136551
vt 0.329994 0.136551
vt 0.329994 0.136551
vt 0.329994 0.136551
vt 0.329994 0.136551
vt 0.329994 0.136551
vt 0.329994 0.136551
vt 0.329994 0.136551
vt 0.329994 0.136551
vt 0.329994 0.136551
vt 0.329994 0.136551
vt 0.329994 0.136551
vt 0.329994 0.136551
vt 0.329994 0.136551
vt 0.329994 0.136551
vt 0.329994 0.136551
vt 0.329994 0.136551
vt 0.329994 0.136551
vt 0.329994 0.136551
vt 0.329994 0.136551
vt 0.329994 0.136551
vt 0.329994 0.136551
vt 0.329994 0.136551
vt 0.329994 0.136551
vt 0.329994 0.136551
vt 0.329994 0.136551
vt 0.329994 0.136551
vt 0.329994 0.136551
vt 0.329994 0.136551
vt 0.329994 0.136551
vt 0.329994 0.136551
vt 0.329994 0.136551
vt 0.329994 0.136551
vt 0.329994 0.136551
vt 0.329994 0.136551
vt 0.329994 0.136551
vt 0.329994 0.136551
vt 0.329994 0.136551
vt 0.329994 0.136551
vt 0.329994 0.136551
vt 0.329994 0.136551
vt 0.329994 0.136551
vt 0.329994 0.136551
vt 0.329994 0.136551
vt 0.329994 0.136551
vt 0.329994 0.136551
vt 0.329994 0.136551
vt 0.329994 0.136551
vt 0.329994 0.136551
vt 0.329994 0.136551
vt 0.329994 0.136551
vt 0.329994 0.136551
vt 0.329994 0.136551
vn 0.083518 0.005565 0.996491
vn 0.083298 0.005582 0.996509
vn -0.028460 0.010155 0.999543
vn -0.029048 0.010166 0.999526
vn 0.000334 1.000000 0.000142
vn 0.000334 1.000000 0.000142
vn 0.000334 1.000000 0.000142
vn 0.000334 1.000000 0.000142
vn 0.065644 -0.011431 -0.997778
vn 0.064939 -0.011319 -0.997825
vn -0.077289 0.002196 -0.997006
vn -0.077112 0.002201 -0.997020
vn 0.994425 0.004523 -0.105349
vn 0.994441 0.004537 -0.105198
vn 0.999941 0.001425 -0.010778
vn 0.999927 0.001539 -0.012021
vn -0.994493 0.004781 0.104694
vn -0.994496 0.004784 0.104666
vn -0.999935 -0.000567 0.011359
vn -0.999954 -0.000805 0.009558
vn -0.987751 -0.000013 0.156038
vn -0.987751 -0.000013 0.156038
vn -0.994496 0.004784 0.104666
vn -0.994493 0.004781 0.104694
vn 0.156026 0.000007 0.987753
vn 0.156026 0.000007 0.987753
vn 0.083298 0.005582 0.996509
vn 0.083518 0.005565 0.996491
vn 0.987751 0.000005 -0.156038
vn 0.987751 0.000005 -0.156038
vn 0.994441 0.004537 -0.105198
vn 0.994425 0.004523 -0.105349
vn -0.077112 0.002201 -0.997020
vn -0.077289 0.002196 -0.997006
vn -0.156026 0.000004 -0.987753
vn -0.156026 0.000004 -0.987753
vn -0.029048 0.010166 0.999526
vn -0.028460 0.010155 0.999543
vn -0.151072 0.012282 0.988447
vn -0.151288 0.012284 0.988414
vn -0.999954 -0.000805 0.009558
vn -0.999935 -0.000567 0.011359
vn -0.995112 -0.001843 -0.098741
vn -0.994925 -0.005261 -0.100485
vn 0.237450 -0.013323 -0.971308
vn 0.237185 -0.012252 -0.971387
vn 0.064939 -0.011319 -0.997825
vn 0.065644 -0.011431 -0.997778
vn 0.999927 0.001539 -0.012021
vn 0.999941 0.001425 -0.010778
vn 0.994184 0.001080 0.107690
vn 0.994273 0.002554 0.106839
vn 0.994273 0.002554 0.106839
vn 0.994184 0.001080 0.107690
vn 0.985476 0.169610 0.008306
vn 0.985476 0.169610 0.008306
vn -0.151288 0.012284 0.988414
vn -0.151072 0.012282 0.988447
vn -0.018895 0.010891 0.999762
vn -0.018895 0.010891 0.999762
vn -0.994925 -0.005261 -0.100485
vn -0.995112 -0.001843 -0.098741
vn -0.985192 0.171246 -0.008513
vn -0.985192 0.171246 -0.008513
vn 0.130205 0.350532 -0.927456
vn 0.130205 0.350531 -0.927456
vn 0.237185 -0.012252 -0.971387
vn 0.237450 -0.013323 -0.971308
vn -0.474991 -0.127573 0.870694
vn -0.475172 -0.127558 0.870598
vn -0.569726 -0.124051 0.812418
vn -0.570233 -0.124047 0.812063
vn -0.087211 0.990797 0.103515
vn -0.087211 0.990797 0.103515
vn -0.087211 0.990797 0.103515
vn -0.087211 0.990797 0.103515
vn 0.599855 0.123068 -0.790587
vn 0.599254 0.123185 -0.791025
vn 0.479389 0.135127 -0.867137
vn 0.479559 0.135137 -0.867042
vn 0.886348 0.035088 0.461689
vn 0.886284 0.035081 0.461811
vn 0.839415 0.018994 0.543160
vn 0.840107 0.019297 0.542078
vn -0.886885 -0.025236 -0.461301
vn -0.886851 -0.025219 -0.461367
vn -0.839859 -0.018184 -0.542500
vn -0.838815 -0.018192 -0.544113
vn -0.909572 -0.037659 -0.413837
vn -0.909572 -0.037659 -0.413837
vn -0.886851 -0.025219 -0.461367
vn -0.886885 -0.025236 -0.461301
vn -0.409210 -0.132663 0.902744
vn -0.409211 -0.132663 0.902744
vn -0.475172 -0.127558 0.870598
vn -0.474991 -0.127573 0.870694
vn 0.909583 0.037473 0.413829
vn 0.909583 0.037473 0.413829
vn 0.886284 0.035081 0.461811
vn 0.886348 0.035088 0.461689
vn 0.479559 0.135137 -0.867042
vn 0.479389 0.135127 -0.867137
vn 0.409378 0.130609 -0.902968
vn 0.409378 0.130609 -0.902968
vn -0.570233 -0.124047 0.812063
vn -0.569726 -0.124051 0.812418
vn -0.666127 -0.122287 0.735745
vn -0.666298 -0.122284 0.735590
vn -0.838815 -0.018192 -0.544113
vn -0.839859 -0.018184 -0.542500
vn -0.775719 -0.004668 -0.631061
vn -0.774224 -0.008177 -0.632859
vn 0.728817 0.120137 -0.674087
vn 0.728530 0.121310 -0.674187
vn 0.599254 0.123185 -0.791025
vn 0.599855 0.123068 -0.790587
vn 0.840107 0.019297 0.542078
vn 0.839415 0.018994 0.543160
vn 0.770084 0.002526 0.637938
vn 0.770507 0.004275 0.637417
vn 0.770507 0.004275 0.637417
vn 0.770084 0.002526 0.637938
vn 0.800077 0.192003 0.568341
vn 0.800077 0.192003 0.568341
vn -0.666298 -0.122284 0.735590
vn -0.666127 -0.122287 0.735745
vn -0.561825 -0.123025 0.818057
vn -0.561825 -0.123025 0.818057
vn -0.774224 -0.008177 -0.632859
vn -0.775719 -0.004668 -0.631061
vn -0.831204 0.164288 -0.531141
vn -0.831203 0.164288 -0.531141
vn 0.577654 0.490275 -0.652646
vn 0.577654 0.490275 -0.652646
vn 0.728530 0.121310 -0.674187
vn 0.728817 0.120137 -0.674087
s off
f 10/1/1 11/2/2 13/3/3 14/4/4
f 3/5/5 4/6/6 6/7/7 5/8/8
f 15/9/9 16/10/10 12/11/11 9/12/12
f 11/2/13 12/15/14 16/16/15 13/3/16
f 9/17/17 10/1/18 14/4/19 15/18/20
f 7/19/21 1/20/22 10/1/23 9/17/24
f 1/20/25 2/21/26 11/2/27 10/1/28
f 2/21/29 8/22/30 12/15/31 11/2/32
f 9/12/33 12/11/34 8/14/35 7/13/36
f 14/4/37 13/3/38 18/23/39 19/24/40
f 15/18/41 14/4/42 19/24/43 20/25/44
f 20/26/45 17/27/46 16/10/47 15/9/48
f 13/3/49 16/16/50 17/28/51 18/23/52
f 18/23/53 17/28/54 6/29/55 4/6/56
f 19/24/57 18/23/58 4/6/59 3/5/60
f 20/25/61 19/24/62 3/5/63 5/30/64
f 5/8/65 6/7/66 17/27/67 20/26/68
f 30/31/69 31/32/70 33/33/71 34/34/72
f 23/35/73 24/36/74 26/37/75 25/38/76
f 35/39/77 36/40/78 32/41/79 29/42/80
f 31/32/81 32/45/82 36/46/83 33/33/84
f 29/47/85 30/31/86 34/34/87 35/48/88
f 27/49/89 21/50/90 30/31/91 29/47/92
f 21/50/93 22/51/94 31/32/95 30/31/96
f 22/51/97 28/52/98 32/45/99 31/32/100
f 29/42/101 32/41/102 28/44/103 27/43/104
f 34/34/105 33/33/106 38/53/107 39/54/108
f 35/48/109 34/34/110 39/54/111 40/55/112
f 40/56/113 37/57/114 36/40/115 35/39/116
f 33/33/117 36/46/118 37/58/119 38/53/120
f 38/53/121 37/58/122 26/59/123 24/36/124
f 39/54/125 38/53/126 24/36/127 23/35/128
f 40/55/129 39/54/130 23/35/131 25/60/132
f 25/38/133 26/37/134 37/57/135 40/56/136
