# This file uses centimeters as units for non-parametric coordinates.

v 0.101297 0.000000 0.143349
v -0.072067 0.151744 -0.068871
v 0.040747 0.163544 -0.064072
v -0.061381 0.163668 0.091686
v -0.182673 0.000000 -0.025067
v -0.148852 0.000000 -0.168417
v 0.101297 0.000000 -0.143349
v 0.135051 0.000000 0.000000
v -0.101430 0.000000 0.143349
v 0.082459 0.163544 0.074184
v -0.129009 -0.097093 -0.143680
v 0.081444 -0.097093 -0.122591
v -0.089113 -0.097093 0.118613
v -0.157463 -0.097093 -0.023078
v 0.109842 -0.097093 -0.001989
v 0.081444 -0.097093 0.118613
vt 0.470560 0.227824
vt 0.470560 0.227824
vt 0.470560 0.227824
vt 0.470560 0.227824
vt 0.470560 0.227824
vt 0.470560 0.227824
vt 0.470560 0.227824
vt 0.470560 0.227824
vt 0.470560 0.227824
vt 0.470560 0.227824
vt 0.470560 0.227824
vt 0.470560 0.227824
vt 0.470560 0.227824
vt 0.470560 0.227824
vt 0.470560 0.227824
vt 0.470560 0.227824
vt 0.470560 0.227824
vt 0.470560 0.227824
vt 0.470560 0.227824
vt 0.470560 0.227824
vt 0.470560 0.227824
vt 0.470560 0.227824
vt 0.470560 0.227824
vt 0.470560 0.227824
vt 0.470560 0.227824
vt 0.470560 0.227824
vt 0.470560 0.227824
vt 0.470560 0.227824
vt 0.470560 0.227824
vt 0.470560 0.227824
vt 0.470560 0.227824
vt 0.470560 0.227824
vt 0.470560 0.227824
vt 0.470560 0.227824
vt 0.470560 0.227824
vt 0.470560 0.227824
vt 0.470560 0.227824
vn 0.111149 0.397933 0.910657
vn 0.111149 0.397933 0.910657
vn 0.111149 0.397933 0.910657
vn 0.000000 0.301018 0.953619
vn 0.000000 0.301018 0.953619
vn 0.000000 0.301018 0.953619
vn -0.848103 0.336666 0.409117
vn -0.848103 0.336666 0.409117
vn -0.848103 0.336666 0.409117
vn -0.100975 0.992630 -0.067003
vn -0.100975 0.992630 -0.067003
vn -0.100975 0.992630 -0.067003
vn -0.806722 0.590850 0.009806
vn -0.806722 0.590850 0.009806
vn -0.806722 0.590850 0.009806
vn -0.007083 0.434063 -0.900855
vn -0.007083 0.434063 -0.900855
vn -0.007083 0.434063 -0.900855
vn 0.085415 0.515936 -0.852358
vn 0.085415 0.515936 -0.852358
vn 0.085415 0.515936 -0.852358
vn 0.952781 0.204630 0.224353
vn 0.952781 0.204630 0.224353
vn 0.952781 0.204630 0.224353
vn 0.898400 0.384869 -0.211547
vn 0.898400 0.384869 -0.211547
vn 0.898400 0.384869 -0.211547
vn 0.858197 0.443240 -0.258913
vn 0.858197 0.443240 -0.258912
vn 0.858197 0.443240 -0.258913
vn 0.000837 1.000000 -0.000252
vn 0.000837 1.000000 -0.000252
vn 0.000837 1.000000 -0.000252
vn -0.818597 0.540923 -0.193135
vn -0.818597 0.540923 -0.193135
vn -0.818597 0.540923 -0.193135
vn 0.097107 -0.227036 -0.969033
vn 0.097107 -0.227036 -0.969033
vn 0.097107 -0.227036 -0.969033
vn 0.097107 -0.227036 -0.969033
vn -0.878723 -0.219468 0.423887
vn -0.878723 -0.219468 0.423887
vn -0.878723 -0.219468 0.423887
vn -0.878723 -0.219468 0.423887
vn 0.944752 -0.240738 -0.222462
vn 0.944752 -0.240738 -0.222462
vn 0.944752 -0.240738 -0.222462
vn 0.944752 -0.240738 -0.222462
vn 0.000000 -0.246885 0.969045
vn 0.000000 -0.246885 0.969045
vn 0.000000 -0.246885 0.969045
vn 0.000000 -0.246885 0.969045
vn 0.942647 -0.249295 0.221966
vn 0.942647 -0.249295 0.221966
vn 0.942647 -0.249295 0.221966
vn 0.942647 -0.249295 0.221966
vn -0.942553 -0.249279 -0.222381
vn -0.942553 -0.249279 -0.222381
vn -0.942553 -0.249279 -0.222381
vn -0.942553 -0.249279 -0.222381
vn 0.000000 -1.000000 0.000000
vn 0.000000 -1.000000 0.000000
vn 0.000000 -1.000000 0.000000
vn 0.000000 -1.000000 0.000000
vn 0.000000 -1.000000 0.000000
vn 0.000000 -1.000000 0.000000
s off
f 10/10/1 4/1/2 1/2/3
f 9/3/4 1/2/5 4/1/6
f 9/11/7 4/12/8 5/13/9
f 4/1/10 3/5/11 2/6/12
f 5/4/13 4/1/14 2/6/15
f 3/5/16 7/7/17 2/6/18
f 6/8/19 2/6/20 7/7/21
f 8/9/22 10/10/23 1/2/24
f 8/9/25 7/7/26 10/10/27
f 10/10/28 7/7/29 3/5/30
f 10/10/31 3/5/32 4/1/33
f 6/8/34 5/4/35 2/6/36
f 6/14/37 7/15/38 12/16/39 11/17/40
f 9/18/41 5/19/42 14/20/43 13/21/44
f 7/22/45 8/23/46 15/24/47 12/25/48
f 1/26/49 9/27/50 13/28/51 16/29/52
f 8/30/53 1/31/54 16/32/55 15/33/56
f 5/34/57 6/35/58 11/36/59 14/37/60
f 12/25/61 15/33/62 16/29/63 13/21/64 14/37/65 11/17/66
