# This file uses centimeters as units for non-parametric coordinates.

v -0.919594 0.000969 -0.403160
v 0.916052 0.005509 -0.435112
v 0.376377 0.004637 -1.121960
v 0.520830 0.000592 0.903347
v 1.063258 0.000538 0.332985
v -0.413139 0.012432 0.958721
v -0.799904 0.005673 0.573006
v -0.986774 0.003018 0.322319
v -0.608630 0.010200 0.777096
v -0.207415 0.008756 1.138885
v -1.049311 0.001272 -0.181061
v 0.247665 0.001193 1.122021
v 0.838610 0.000026 0.643181
v -0.441206 0.000000 -1.023407
v -0.113962 0.152189 0.193600
v -0.386746 0.113847 0.035194
v -0.030765 0.107739 0.574471
v -0.225980 0.000492 -1.171768
v -1.092051 0.001841 0.058819
v -0.771464 0.000650 -0.616787
v -0.846839 0.000814 -0.510841
v -0.414200 0.082283 -0.509056
v -0.055848 0.116044 -0.395172
v -0.530089 0.000105 -0.927219
v 0.125030 0.097879 -0.629341
v 0.529504 0.005448 -0.995827
v 0.673208 0.005921 -0.830456
v 0.060624 0.002413 -1.222687
v 0.217993 0.003570 -1.194870
v 0.972081 0.000063 0.495224
v 0.454639 0.067070 0.519764
v 0.126431 0.001993 1.192669
v -1.086504 0.001506 -0.064079
v -0.311833 0.011155 1.054066
v 0.274434 0.123050 -0.259789
v 1.070290 0.003032 -0.035240
v 1.092051 0.001636 0.154743
v 0.668751 0.085567 -0.146442
v -0.693199 0.000481 -0.721111
v -0.226593 0.115968 -0.175755
v 0.381005 0.113998 0.128048
v -0.089599 0.001328 -1.212761
v -0.990472 0.001107 -0.293674
v -0.704140 0.007922 0.679939
v 1.008407 0.004423 -0.232941
v -1.054970 0.002305 0.189514
v -0.898209 0.004086 0.452053
v -0.099691 0.005979 1.199749
v 0.377806 0.000810 1.021954
v 0.681688 0.000258 0.778831
v 0.803393 0.005976 -0.639118
v -0.341422 0.000092 -1.106804
v 0.069082 0.193476 -0.026394
v 0.011572 0.003483 1.222687
v -0.457600 0.051874 0.593689
v -0.538627 0.074862 0.243492
vt 0.378377 0.256113
vt 0.378377 0.256113
vt 0.378377 0.256113
vt 0.378377 0.256113
vt 0.378377 0.256113
vt 0.378377 0.256113
vt 0.378377 0.256113
vt 0.378377 0.256113
vt 0.378377 0.256113
vt 0.378377 0.256113
vt 0.378377 0.256113
vt 0.378377 0.256113
vt 0.378377 0.256113
vt 0.378377 0.256113
vt 0.378377 0.256113
vt 0.378377 0.256113
vt 0.378377 0.256113
vt 0.378377 0.256113
vt 0.378377 0.256113
vt 0.378377 0.256113
vt 0.378377 0.256113
vt 0.378377 0.256113
vt 0.378377 0.256113
vt 0.378377 0.256113
vt 0.378377 0.256113
vt 0.378377 0.256113
vt 0.378377 0.256113
vt 0.378377 0.256113
vt 0.378377 0.256113
vt 0.378377 0.256113
vt 0.378377 0.256113
vt 0.378377 0.256113
vt 0.378377 0.256113
vt 0.378377 0.256113
vt 0.378377 0.256113
vt 0.378377 0.256113
vt 0.378377 0.256113
vt 0.378377 0.256113
vt 0.378377 0.256113
vt 0.378377 0.256113
vt 0.378377 0.256113
vt 0.378377 0.256113
vt 0.378377 0.256113
vt 0.378377 0.256113
vt 0.378377 0.256113
vt 0.378377 0.256113
vt 0.378377 0.256113
vt 0.378377 0.256113
vt 0.378377 0.256113
vt 0.378377 0.256113
vt 0.378377 0.256113
vt 0.378377 0.256113
vt 0.378377 0.256113
vt 0.378377 0.256113
vt 0.378377 0.256113
vt 0.378377 0.256113
vt 0.378377 0.256113
vt 0.378377 0.256113
vt 0.378377 0.256113
vt 0.378377 0.256113
vn 0.111907 0.984759 0.133140
vn 0.111907 0.984759 0.133140
vn 0.111907 0.984759 0.133140
vn -0.090849 0.994052 -0.060068
vn -0.090849 0.994052 -0.060068
vn -0.090849 0.994052 -0.060068
vn -0.139200 0.984794 0.103949
vn -0.139200 0.984794 0.103949
vn -0.139200 0.984793 0.103949
vn 0.210075 0.974627 0.077273
vn 0.210075 0.974627 0.077273
vn 0.210075 0.974627 0.077273
vn -0.243683 0.969633 -0.020780
vn -0.243682 0.969632 -0.020780
vn -0.243683 0.969632 -0.020780
vn -0.100861 0.992669 -0.066591
vn -0.100861 0.992670 -0.066591
vn -0.100861 0.992670 -0.066591
vn -0.093850 0.985204 0.143405
vn -0.093850 0.985204 0.143405
vn -0.093850 0.985204 0.143405
vn -0.075277 0.995461 -0.058236
vn -0.075277 0.995461 -0.058236
vn -0.075277 0.995461 -0.058236
vn 0.091191 0.985172 0.145331
vn 0.091191 0.985172 0.145331
vn 0.091191 0.985172 0.145331
vn -0.034178 0.987301 -0.155141
vn -0.034178 0.987301 -0.155141
vn -0.034178 0.987301 -0.155141
vn 0.104514 0.985561 -0.133219
vn 0.104514 0.985561 -0.133219
vn 0.104514 0.985561 -0.133219
vn -0.093731 0.989384 -0.111061
vn -0.093731 0.989384 -0.111061
vn -0.093731 0.989384 -0.111061
vn 0.270647 0.961277 -0.051933
vn 0.270647 0.961277 -0.051933
vn 0.270647 0.961277 -0.051933
vn 0.073110 0.970771 -0.228601
vn 0.073110 0.970771 -0.228601
vn 0.073110 0.970771 -0.228601
vn -0.185070 0.982713 0.004853
vn -0.185070 0.982713 0.004853
vn -0.185070 0.982713 0.004853
vn -0.182918 0.974274 -0.131645
vn -0.182918 0.974274 -0.131645
vn -0.182918 0.974274 -0.131645
vn -0.183164 0.972744 -0.142198
vn -0.183164 0.972744 -0.142198
vn -0.183164 0.972744 -0.142198
vn -0.103682 0.989880 -0.096887
vn -0.103682 0.989880 -0.096887
vn -0.103682 0.989880 -0.096887
vn -0.075751 0.988811 -0.128510
vn -0.075751 0.988811 -0.128510
vn -0.075751 0.988811 -0.128510
vn 0.132422 0.987064 -0.090385
vn 0.132422 0.987064 -0.090385
vn 0.132422 0.987064 -0.090385
vn 0.124630 0.985962 -0.111118
vn 0.124630 0.985962 -0.111118
vn 0.124630 0.985962 -0.111118
vn 0.064191 0.986003 -0.153876
vn 0.064191 0.986003 -0.153876
vn 0.064191 0.986003 -0.153876
vn 0.021214 0.986717 -0.161060
vn 0.021214 0.986717 -0.161060
vn 0.021214 0.986717 -0.161060
vn -0.007526 0.999961 -0.004644
vn -0.007526 0.999961 -0.004644
vn -0.007526 0.999961 -0.004644
vn 0.133100 0.983772 0.120317
vn 0.133101 0.983772 0.120317
vn 0.133101 0.983772 0.120317
vn 0.136229 0.986344 0.092558
vn 0.136229 0.986344 0.092558
vn 0.136229 0.986344 0.092558
vn 0.131628 0.988315 0.076864
vn 0.131628 0.988315 0.076864
vn 0.131628 0.988315 0.076864
vn 0.053346 0.986446 0.155172
vn 0.053346 0.986446 0.155172
vn 0.053346 0.986446 0.155172
vn -0.128023 0.991735 -0.008480
vn -0.128023 0.991735 -0.008480
vn -0.128023 0.991735 -0.008480
vn -0.111871 0.993013 -0.037555
vn -0.111871 0.993013 -0.037555
vn -0.111871 0.993013 -0.037555
vn -0.055362 0.991270 -0.119658
vn -0.055362 0.991270 -0.119658
vn -0.055362 0.991270 -0.119658
vn -0.243245 0.969956 0.004174
vn -0.243245 0.969956 0.004174
vn -0.243245 0.969956 0.004174
vn -0.088694 0.994168 -0.061351
vn -0.088694 0.994168 -0.061351
vn -0.088694 0.994168 -0.061351
vn -0.135600 0.982223 0.129808
vn -0.135600 0.982223 0.129808
vn -0.135600 0.982223 0.129808
vn -0.103685 0.985045 0.137610
vn -0.103685 0.985045 0.137610
vn -0.103685 0.985045 0.137610
vn -0.166482 0.980662 0.102893
vn -0.166482 0.980662 0.102893
vn -0.166482 0.980662 0.102893
vn -0.124152 0.984793 0.121530
vn -0.124152 0.984793 0.121530
vn -0.124152 0.984793 0.121530
vn 0.131491 0.983660 -0.122974
vn 0.131491 0.983660 -0.122974
vn 0.131491 0.983660 -0.122974
vn 0.127724 0.984680 -0.118707
vn 0.127724 0.984680 -0.118707
vn 0.127724 0.984680 -0.118707
vn 0.193601 0.975480 -0.104679
vn 0.193601 0.975480 -0.104679
vn 0.193601 0.975480 -0.104679
vn 0.171238 0.984652 0.033729
vn 0.171238 0.984652 0.033729
vn 0.171238 0.984652 0.033729
vn 0.205660 0.978487 -0.016368
vn 0.205660 0.978487 -0.016368
vn 0.205660 0.978487 -0.016368
vn 0.209550 0.973601 -0.090494
vn 0.209550 0.973601 -0.090494
vn 0.209550 0.973601 -0.090494
vn 0.217177 0.974217 -0.061125
vn 0.217177 0.974217 -0.061125
vn 0.217177 0.974217 -0.061125
vn 0.099997 0.982552 0.156817
vn 0.099997 0.982552 0.156817
vn 0.099997 0.982552 0.156817
vn 0.099640 0.983160 0.153194
vn 0.099640 0.983160 0.153194
vn 0.099640 0.983160 0.153194
vn -0.172183 0.983327 0.058491
vn -0.172183 0.983327 0.058491
vn -0.172183 0.983327 0.058491
vn -0.066830 0.989253 0.130050
vn -0.066830 0.989253 0.130050
vn -0.066830 0.989253 0.130050
vn -0.112424 0.992835 0.040483
vn -0.112424 0.992835 0.040483
vn -0.112424 0.992835 0.040483
vn -0.007935 0.999968 -0.001296
vn -0.007935 0.999968 -0.001296
vn -0.007935 0.999968 -0.001296
vn -0.139023 0.985220 0.100069
vn -0.139023 0.985220 0.100069
vn -0.139023 0.985220 0.100069
vn -0.133864 0.987497 0.083253
vn -0.133864 0.987497 0.083253
vn -0.133864 0.987497 0.083253
vn -0.163587 0.981215 0.102259
vn -0.163587 0.981215 0.102259
vn -0.163587 0.981215 0.102259
vn 0.148265 0.987519 0.053141
vn 0.148265 0.987519 0.053141
vn 0.148265 0.987519 0.053141
vn 0.095487 0.995426 -0.003005
vn 0.095487 0.995426 -0.003005
vn 0.095487 0.995426 -0.003005
vn -0.136590 0.984368 0.111192
vn -0.136590 0.984368 0.111192
vn -0.136590 0.984368 0.111192
vn -0.061432 0.986202 0.153726
vn -0.061432 0.986202 0.153726
vn -0.061432 0.986202 0.153726
vn -0.010728 0.987145 0.159469
vn -0.010728 0.987145 0.159469
vn -0.010728 0.987145 0.159469
vn -0.099418 0.987922 0.118856
vn -0.099418 0.987922 0.118856
vn -0.099418 0.987922 0.118856
vn -0.133718 0.986777 -0.091596
vn -0.133718 0.986777 -0.091596
vn -0.133718 0.986777 -0.091596
vn -0.067316 0.982371 -0.174401
vn -0.067316 0.982371 -0.174401
vn -0.067316 0.982371 -0.174401
vn -0.098979 0.993668 -0.053176
vn -0.098979 0.993668 -0.053176
vn -0.098979 0.993668 -0.053176
vn 0.108005 0.984708 0.136691
vn 0.108005 0.984708 0.136691
vn 0.108005 0.984708 0.136691
vn 0.125345 0.981706 0.143322
vn 0.125345 0.981706 0.143322
vn 0.125345 0.981706 0.143322
vn 0.117974 0.981657 0.149770
vn 0.117974 0.981657 0.149770
vn 0.117974 0.981657 0.149770
vn 0.008017 0.997431 -0.071180
vn 0.008017 0.997431 -0.071180
vn 0.008017 0.997431 -0.071180
vn -0.181071 0.973821 -0.137426
vn -0.181071 0.973821 -0.137426
vn -0.181071 0.973821 -0.137426
vn -0.177439 0.973804 -0.142198
vn -0.177439 0.973804 -0.142198
vn -0.177439 0.973804 -0.142198
s off
f 4/1/1 17/2/2 49/3/3
f 1/4/4 43/5/5 56/6/6
f 7/7/7 44/8/8 55/9/9
f 41/10/10 53/11/11 31/12/12
f 15/13/13 53/11/14 40/14/15
f 16/15/16 15/13/17 40/14/18
f 10/16/19 17/2/20 34/17/21
f 23/18/22 22/19/23 40/14/24
f 12/20/25 17/2/26 32/21/27
f 18/22/28 25/23/29 28/24/30
f 3/25/31 25/23/32 26/26/33
f 14/27/34 25/23/35 52/28/36
f 35/29/37 53/11/38 41/10/39
f 35/29/40 23/18/41 53/11/42
f 22/30/43 21/31/44 40/32/45
f 21/31/46 22/30/47 20/33/48
f 53/11/49 23/18/50 40/14/51
f 24/34/52 25/23/53 14/27/54
f 52/28/55 25/23/56 18/22/57
f 27/35/58 25/23/59 51/36/60
f 26/26/61 25/23/62 27/35/63
f 29/37/64 25/23/65 3/25/66
f 28/24/67 25/23/68 29/37/69
f 18/22/70 28/24/71 42/38/72
f 30/39/73 31/12/74 13/40/75
f 31/12/76 5/41/77 41/10/78
f 31/12/79 30/39/80 5/41/81
f 32/21/82 17/2/83 54/42/84
f 56/6/85 33/43/86 19/44/87
f 33/43/88 56/6/89 11/45/90
f 25/23/91 22/19/92 23/18/93
f 16/15/94 21/46/95 56/6/96
f 56/6/97 21/46/98 1/4/99
f 55/9/100 34/17/101 15/13/102
f 17/2/103 15/13/104 34/17/105
f 56/6/106 55/9/107 15/13/108
f 6/47/109 55/9/110 9/48/111
f 25/23/112 38/49/113 51/36/114
f 25/23/115 35/29/116 38/49/117
f 51/36/118 38/49/119 2/50/120
f 37/51/121 38/49/122 5/41/123
f 36/52/124 38/49/125 37/51/126
f 38/49/127 45/53/128 2/50/129
f 38/49/130 36/52/131 45/53/132
f 31/12/133 53/11/134 17/2/135
f 4/1/136 31/12/137 17/2/138
f 56/6/139 15/13/140 16/15/141
f 17/2/142 53/11/143 15/13/144
f 19/44/145 8/54/146 55/9/147
f 19/44/148 46/55/149 8/54/150
f 55/9/151 47/56/152 7/7/153
f 55/9/154 8/54/155 47/56/156
f 19/44/157 55/9/158 56/6/159
f 41/10/160 5/41/161 38/49/162
f 35/29/163 41/10/164 38/49/165
f 55/9/166 44/8/167 9/48/168
f 48/57/169 17/2/170 10/16/171
f 48/57/172 54/42/173 17/2/174
f 6/47/175 34/17/176 55/9/177
f 40/14/178 21/46/179 16/15/180
f 25/23/181 24/34/182 22/19/183
f 56/6/184 43/5/185 11/45/186
f 49/3/187 17/2/188 12/20/189
f 31/12/190 50/58/191 13/40/192
f 4/1/193 50/58/194 31/12/195
f 25/23/196 23/18/197 35/29/198
f 22/30/199 39/59/200 20/33/201
f 24/60/202 39/59/203 22/30/204
