# This file uses centimeters as units for non-parametric coordinates.

v -0.913155 0.503014 -0.427778
v -0.812873 0.751387 -0.445223
v -0.661313 1.030269 -0.400618
v -0.600453 1.161898 -0.294193
v -0.582578 1.201062 0.148550
v -0.584329 1.121632 0.261316
v -0.731434 0.906078 0.198322
v -0.706654 1.004014 -0.050341
v -0.573500 1.268369 -0.193855
v -0.912997 0.456502 0.120182
v -0.395242 1.227507 0.415638
v -0.814339 0.387512 -0.115078
v -0.188371 0.880704 -0.954222
v -0.155146 1.705886 -0.525070
v -0.276152 1.666487 -0.282698
v -0.434771 0.362448 -0.906013
v -0.392280 0.621285 -0.978409
v -0.306675 0.405114 0.858768
v -0.301790 0.306155 0.721643
v -0.284826 0.260285 -0.688917
v -0.121501 1.044986 -0.899786
v -0.483819 0.256463 -0.191135
v -0.215136 0.849709 0.823809
v -0.022663 1.144469 -0.873606
v -0.289945 0.161636 0.365644
v -0.137142 0.329883 -0.949984
v -0.099527 1.900352 -0.375389
v -0.178004 1.962905 0.529591
v 0.097997 0.000000 0.207697
v -0.250569 0.078871 -0.301195
v 0.034985 2.241715 0.293697
v 0.020188 1.604865 0.710180
v -0.074688 0.037262 -0.260824
v -0.085101 2.105285 0.511662
v 0.102738 1.161099 0.840618
v 0.015009 0.260238 0.605501
v 0.130482 1.476468 -0.440248
v 0.032227 1.944533 -0.403292
v 0.689215 0.371670 -0.835825
v 0.002483 1.015996 -0.922657
v 0.240092 2.070260 -0.103577
v 0.146819 2.172293 0.299177
v 0.737805 1.180229 0.665220
v 0.334404 0.965300 0.937975
v 0.150676 0.129504 0.481091
v 0.233959 1.745738 -0.304464
v 0.193200 1.622574 0.665869
v 0.476179 1.234412 0.621071
v 0.295180 0.486724 0.978409
v 0.300919 0.054840 0.226101
v 0.194848 0.845171 -0.824387
v 0.368367 1.010494 -0.615170
v 0.483534 0.179793 -0.291901
v 0.808231 0.413366 -0.713936
v 0.266256 1.976456 0.201815
v 0.407153 1.350953 0.478861
v 0.805725 0.399217 -0.346016
v 0.710781 0.736742 -0.659277
v 0.361216 1.310043 -0.273138
v 0.913155 0.556497 0.708199
v 0.326463 0.329986 0.634783
v 0.556563 0.325341 -0.026482
v 0.411474 1.439499 -0.010263
v 0.703303 1.216813 0.427605
v 0.742437 0.471349 0.404245
v 0.729555 0.966652 -0.362612
v 0.567957 1.222183 -0.051458
v 0.557358 1.215163 0.062212
v 0.592672 1.221337 0.283268
v 0.790682 0.572663 -0.221203
v 0.561047 1.181409 0.166059
v 0.701479 0.913381 0.245419
v 0.646557 1.025270 0.032621
vt 0.352943 0.189634
vt 0.352943 0.189634
vt 0.352943 0.189634
vt 0.352943 0.189634
vt 0.352943 0.189634
vt 0.352943 0.189634
vt 0.352943 0.189634
vt 0.352943 0.189634
vt 0.352943 0.189634
vt 0.352943 0.189634
vt 0.352943 0.189634
vt 0.352943 0.189634
vt 0.352943 0.189634
vt 0.352943 0.189634
vt 0.352943 0.189634
vt 0.352943 0.189634
vt 0.352943 0.189634
vt 0.352943 0.189634
vt 0.352943 0.189634
vt 0.352943 0.189634
vt 0.352943 0.189634
vt 0.352943 0.189634
vt 0.352943 0.189634
vt 0.352943 0.189634
vt 0.352943 0.189634
vt 0.352943 0.189634
vt 0.352943 0.189634
vt 0.352943 0.189634
vt 0.352943 0.189634
vt 0.352943 0.189634
vt 0.352943 0.189634
vt 0.352943 0.189634
vt 0.352943 0.189634
vt 0.352943 0.189634
vt 0.352943 0.189634
vt 0.352943 0.189634
vt 0.352943 0.189634
vt 0.352943 0.189634
vt 0.352943 0.189634
vt 0.352943 0.189634
vt 0.352943 0.189634
vt 0.352943 0.189634
vt 0.352943 0.189634
vt 0.352943 0.189634
vt 0.352943 0.189634
vt 0.352943 0.189634
vt 0.352943 0.189634
vt 0.352943 0.189634
vt 0.352943 0.189634
vt 0.352943 0.189634
vt 0.352943 0.189634
vt 0.352943 0.189634
vt 0.352943 0.189634
vt 0.352943 0.189634
vt 0.352943 0.189634
vt 0.352943 0.189634
vt 0.352943 0.189634
vt 0.352943 0.189634
vt 0.352943 0.189634
vt 0.352943 0.189634
vt 0.352943 0.189634
vt 0.352943 0.189634
vt 0.352943 0.189634
vt 0.352943 0.189634
vt 0.352943 0.189634
vt 0.352943 0.189634
vt 0.352943 0.189634
vt 0.352943 0.189634
vt 0.352943 0.189634
vt 0.352943 0.189634
vt 0.352943 0.189634
vt 0.352943 0.189634
vt 0.352943 0.189634
vt 0.352943 0.189634
vt 0.352943 0.189634
vt 0.352943 0.189634
vt 0.352943 0.189634
vt 0.352943 0.189634
vt 0.352943 0.189634
vt 0.352943 0.189634
vt 0.352943 0.189634
vt 0.352943 0.189634
vt 0.352943 0.189634
vt 0.352943 0.189634
vt 0.352943 0.189634
vt 0.352943 0.189634
vt 0.352943 0.189634
vt 0.352943 0.189634
vt 0.352943 0.189634
vt 0.352943 0.189634
vt 0.352943 0.189634
vt 0.352943 0.189634
vn -0.870896 0.485503 -0.076339
vn -0.870896 0.485503 -0.076339
vn -0.870896 0.485503 -0.076339
vn -0.879155 0.470014 -0.078569
vn -0.879155 0.470014 -0.078569
vn -0.879155 0.470014 -0.078569
vn -0.911035 0.343626 0.227896
vn -0.911035 0.343626 0.227896
vn -0.911035 0.343626 0.227896
vn -0.913520 0.376476 -0.154098
vn -0.913520 0.376476 -0.154098
vn -0.913520 0.376476 -0.154098
vn -0.874833 0.479193 0.071001
vn -0.874833 0.479193 0.071001
vn -0.874833 0.479193 0.071001
vn -0.836181 0.533589 0.126824
vn -0.836181 0.533589 0.126824
vn -0.836181 0.533589 0.126824
vn -0.929087 0.366237 0.051654
vn -0.929087 0.366237 0.051654
vn -0.929087 0.366237 0.051654
vn -0.932090 0.360906 0.030903
vn -0.932090 0.360906 0.030903
vn -0.932090 0.360906 0.030903
vn -0.678505 0.605485 0.415956
vn -0.678505 0.605485 0.415956
vn -0.678505 0.605485 0.415956
vn -0.668086 -0.741435 -0.062741
vn -0.668085 -0.741435 -0.062741
vn -0.668086 -0.741435 -0.062741
vn -0.658129 0.215044 -0.721541
vn -0.658129 0.215044 -0.721541
vn -0.658129 0.215044 -0.721541
vn -0.513285 0.400362 -0.759110
vn -0.513285 0.400362 -0.759110
vn -0.513285 0.400362 -0.759110
vn -0.459007 0.677194 -0.575083
vn -0.459007 0.677194 -0.575083
vn -0.459007 0.677194 -0.575083
vn -0.794397 0.510811 -0.328643
vn -0.794397 0.510811 -0.328643
vn -0.794397 0.510811 -0.328643
vn -0.786549 0.609546 0.098965
vn -0.786549 0.609546 0.098965
vn -0.786549 0.609546 0.098965
vn -0.600233 0.719284 0.349788
vn -0.600233 0.719284 0.349788
vn -0.600233 0.719284 0.349788
vn -0.696516 0.282589 0.659552
vn -0.696516 0.282589 0.659552
vn -0.696516 0.282589 0.659552
vn -0.395590 -0.904171 -0.161191
vn -0.395590 -0.904171 -0.161191
vn -0.395590 -0.904171 -0.161191
vn -0.442278 -0.877709 -0.184435
vn -0.442278 -0.877709 -0.184435
vn -0.442279 -0.877709 -0.184435
vn -0.899232 0.025468 -0.436731
vn -0.899232 0.025468 -0.436731
vn -0.899232 0.025468 -0.436731
vn -0.725681 0.340231 -0.598021
vn -0.725681 0.340231 -0.598021
vn -0.725681 0.340231 -0.598021
vn -0.793422 0.523177 -0.311075
vn -0.793422 0.523177 -0.311075
vn -0.793422 0.523177 -0.311075
vn -0.713753 0.328214 0.618735
vn -0.713753 0.328214 0.618735
vn -0.713753 0.328214 0.618735
vn -0.745998 0.203457 0.634108
vn -0.745998 0.203457 0.634108
vn -0.745998 0.203457 0.634108
vn -0.751582 0.193945 0.630484
vn -0.751582 0.193945 0.630484
vn -0.751582 0.193945 0.630484
vn -0.605473 -0.655439 0.451444
vn -0.605473 -0.655439 0.451444
vn -0.605473 -0.655439 0.451444
vn -0.351141 -0.927959 0.124870
vn -0.351141 -0.927959 0.124870
vn -0.351141 -0.927959 0.124870
vn -0.342181 -0.932071 0.118981
vn -0.342181 -0.932071 0.118981
vn -0.342181 -0.932071 0.118981
vn -0.385655 -0.908462 -0.161145
vn -0.385655 -0.908462 -0.161145
vn -0.385655 -0.908462 -0.161145
vn -0.578710 0.513917 -0.633233
vn -0.578710 0.513917 -0.633233
vn -0.578710 0.513917 -0.633233
vn -0.412313 0.433368 -0.801368
vn -0.412313 0.433368 -0.801368
vn -0.412313 0.433368 -0.801368
vn -0.959503 0.281385 0.013253
vn -0.959503 0.281385 0.013253
vn -0.959503 0.281385 0.013253
vn -0.551294 -0.819867 0.154575
vn -0.551294 -0.819867 0.154575
vn -0.551294 -0.819867 0.154575
vn -0.660633 -0.700676 -0.269475
vn -0.660634 -0.700676 -0.269475
vn -0.660634 -0.700676 -0.269475
vn -0.246777 0.468426 -0.848338
vn -0.246777 0.468426 -0.848338
vn -0.246777 0.468426 -0.848338
vn -0.635393 0.746952 -0.195802
vn -0.635393 0.746952 -0.195802
vn -0.635393 0.746952 -0.195802
vn -0.836218 0.166032 0.522660
vn -0.836218 0.166032 0.522660
vn -0.836218 0.166032 0.522660
vn -0.993405 0.090860 -0.069937
vn -0.993405 0.090860 -0.069937
vn -0.993405 0.090860 -0.069937
vn -0.167520 -0.239950 -0.956222
vn -0.167520 -0.239950 -0.956222
vn -0.167520 -0.239950 -0.956222
vn 0.114070 0.002965 -0.993468
vn 0.114070 0.002965 -0.993468
vn 0.114070 0.002965 -0.993468
vn -0.931913 0.347207 -0.104812
vn -0.931913 0.347207 -0.104812
vn -0.931913 0.347208 -0.104812
vn -0.349646 -0.932050 0.095036
vn -0.349646 -0.932050 0.095036
vn -0.349646 -0.932049 0.095036
vn -0.151090 -0.930547 -0.333548
vn -0.151090 -0.930547 -0.333548
vn -0.151090 -0.930547 -0.333548
vn -0.832467 0.543101 -0.109729
vn -0.832467 0.543101 -0.109729
vn -0.832467 0.543101 -0.109729
vn -0.366676 0.249142 0.896369
vn -0.366676 0.249142 0.896369
vn -0.366676 0.249142 0.896369
vn -0.119099 -0.903306 -0.412133
vn -0.119099 -0.903306 -0.412133
vn -0.119099 -0.903306 -0.412133
vn -0.837809 0.530352 -0.129624
vn -0.837809 0.530352 -0.129624
vn -0.837809 0.530352 -0.129624
vn -0.285530 0.300890 0.909911
vn -0.285530 0.300890 0.909911
vn -0.285530 0.300890 0.909911
vn -0.269902 0.224983 0.936235
vn -0.269902 0.224983 0.936235
vn -0.269902 0.224983 0.936235
vn -0.159644 0.110010 0.981026
vn -0.159644 0.110010 0.981026
vn -0.159644 0.110010 0.981026
vn 0.097625 -0.805363 0.584688
vn 0.097625 -0.805363 0.584688
vn 0.097625 -0.805363 0.584688
vn 0.003647 -0.926514 0.376242
vn 0.003647 -0.926514 0.376242
vn 0.003647 -0.926514 0.376242
vn -0.138264 -0.841769 0.521831
vn -0.138264 -0.841769 0.521831
vn -0.138264 -0.841769 0.521831
vn 0.598495 0.519721 -0.609666
vn 0.598495 0.519721 -0.609666
vn 0.598495 0.519722 -0.609666
vn -0.357498 0.631698 -0.687861
vn -0.357498 0.631698 -0.687861
vn -0.357498 0.631698 -0.687861
vn -0.364500 0.857109 -0.364012
vn -0.364500 0.857109 -0.364012
vn -0.364500 0.857109 -0.364012
vn -0.231982 -0.972686 0.008144
vn -0.231982 -0.972686 0.008144
vn -0.231982 -0.972686 0.008144
vn 0.029333 -0.880511 -0.473118
vn 0.029333 -0.880511 -0.473118
vn 0.029333 -0.880511 -0.473118
vn -0.091208 0.346484 -0.933611
vn -0.091208 0.346484 -0.933611
vn -0.091208 0.346484 -0.933611
vn -0.093387 0.339125 -0.936095
vn -0.093387 0.339125 -0.936094
vn -0.093387 0.339125 -0.936094
vn 0.392965 0.154068 -0.906555
vn 0.392965 0.154068 -0.906555
vn 0.392965 0.154068 -0.906555
vn 0.009190 0.919821 -0.392230
vn 0.009190 0.919821 -0.392230
vn 0.009190 0.919821 -0.392230
vn 0.528427 0.844039 -0.091450
vn 0.528427 0.844039 -0.091450
vn 0.528427 0.844039 -0.091450
vn 0.385768 0.671394 0.632782
vn 0.385769 0.671394 0.632782
vn 0.385769 0.671394 0.632782
vn 0.193634 0.610835 0.767716
vn 0.193634 0.610835 0.767716
vn 0.193634 0.610834 0.767716
vn -0.261001 0.164188 0.951273
vn -0.261001 0.164188 0.951273
vn -0.261001 0.164188 0.951273
vn -0.365261 -0.812097 0.455064
vn -0.365261 -0.812097 0.455064
vn -0.365261 -0.812097 0.455064
vn 0.078909 -0.973448 -0.214876
vn 0.078909 -0.973448 -0.214876
vn 0.078909 -0.973448 -0.214876
vn 0.127380 0.156653 -0.979405
vn 0.127380 0.156653 -0.979405
vn 0.127380 0.156653 -0.979405
vn 0.158250 0.007121 -0.987373
vn 0.158250 0.007121 -0.987373
vn 0.158250 0.007121 -0.987373
vn 0.419358 -0.049236 -0.906485
vn 0.419358 -0.049236 -0.906485
vn 0.419358 -0.049236 -0.906485
vn 0.679629 0.376772 -0.629403
vn 0.679629 0.376772 -0.629403
vn 0.679629 0.376772 -0.629403
vn 0.551140 0.405303 0.729366
vn 0.551139 0.405303 0.729366
vn 0.551140 0.405303 0.729366
vn 0.152016 0.557318 0.816265
vn 0.152016 0.557318 0.816265
vn 0.152016 0.557318 0.816265
vn 0.205806 0.311012 0.927855
vn 0.205806 0.311012 0.927855
vn 0.205806 0.311012 0.927855
vn 0.457945 0.234901 0.857385
vn 0.457945 0.234901 0.857385
vn 0.457945 0.234901 0.857385
vn 0.102809 0.877740 0.467976
vn 0.102809 0.877740 0.467976
vn 0.102809 0.877740 0.467976
vn -0.206931 0.099193 0.973314
vn -0.206931 0.099193 0.973314
vn -0.206931 0.099193 0.973314
vn 0.015020 -0.859580 0.510781
vn 0.015020 -0.859580 0.510781
vn 0.015020 -0.859580 0.510781
vn 0.073383 -0.646496 0.759380
vn 0.073383 -0.646496 0.759380
vn 0.073383 -0.646496 0.759380
vn 0.207939 -0.898877 0.385723
vn 0.207939 -0.898877 0.385723
vn 0.207939 -0.898877 0.385723
vn 0.271640 -0.946284 -0.175378
vn 0.271640 -0.946284 -0.175378
vn 0.271640 -0.946284 -0.175378
vn 0.502064 0.540498 -0.675125
vn 0.502064 0.540498 -0.675125
vn 0.502064 0.540498 -0.675125
vn 0.597041 0.385469 -0.703531
vn 0.597041 0.385469 -0.703531
vn 0.597041 0.385469 -0.703531
vn 0.586495 0.529493 -0.612912
vn 0.586495 0.529493 -0.612912
vn 0.586495 0.529493 -0.612912
vn 0.572181 0.183228 -0.799397
vn 0.572181 0.183228 -0.799397
vn 0.572181 0.183228 -0.799397
vn 0.160219 -0.892481 0.421673
vn 0.160219 -0.892481 0.421673
vn 0.160219 -0.892481 0.421673
vn 0.226843 -0.942196 -0.246595
vn 0.226843 -0.942196 -0.246595
vn 0.226843 -0.942196 -0.246595
vn 0.451930 -0.881015 -0.139898
vn 0.451930 -0.881015 -0.139898
vn 0.451930 -0.881015 -0.139898
vn 0.343040 0.256129 -0.903727
vn 0.343040 0.256129 -0.903727
vn 0.343040 0.256129 -0.903727
vn 0.867706 0.491152 0.076523
vn 0.867706 0.491152 0.076523
vn 0.867706 0.491152 0.076523
vn 0.829167 0.356932 0.430210
vn 0.829167 0.356932 0.430210
vn 0.829167 0.356932 0.430210
vn 0.809812 0.580802 0.082903
vn 0.809812 0.580802 0.082903
vn 0.809812 0.580802 0.082903
vn 0.476872 0.193149 0.857488
vn 0.476872 0.193149 0.857488
vn 0.476872 0.193149 0.857488
vn 0.395948 0.045038 0.917168
vn 0.395948 0.045038 0.917168
vn 0.395948 0.045038 0.917168
vn 0.236917 -0.960176 -0.148092
vn 0.236918 -0.960176 -0.148092
vn 0.236917 -0.960176 -0.148092
vn 0.559454 -0.828387 -0.028046
vn 0.559454 -0.828387 -0.028046
vn 0.559454 -0.828387 -0.028046
vn 0.620648 0.276911 -0.733564
vn 0.620648 0.276911 -0.733564
vn 0.620648 0.276911 -0.733564
vn 0.356790 0.566023 -0.743182
vn 0.356790 0.566023 -0.743182
vn 0.356790 0.566023 -0.743182
vn 0.713569 0.534364 -0.453072
vn 0.713569 0.534364 -0.453072
vn 0.713569 0.534364 -0.453072
vn 0.916670 0.197683 -0.347330
vn 0.916670 0.197683 -0.347330
vn 0.916670 0.197683 -0.347330
vn 0.965095 0.261892 -0.002241
vn 0.965095 0.261892 -0.002241
vn 0.965095 0.261892 -0.002241
vn 0.866259 0.352108 0.354423
vn 0.866259 0.352108 0.354423
vn 0.866259 0.352108 0.354423
vn 0.058905 0.785942 0.615488
vn 0.058905 0.785942 0.615488
vn 0.058905 0.785942 0.615488
vn 0.280829 -0.863300 0.419343
vn 0.280829 -0.863300 0.419343
vn 0.280829 -0.863300 0.419343
vn 0.776668 -0.617409 0.124872
vn 0.776668 -0.617409 0.124872
vn 0.776668 -0.617409 0.124872
vn 0.572680 -0.774946 0.267388
vn 0.572680 -0.774946 0.267388
vn 0.572680 -0.774946 0.267388
vn 0.519400 0.723055 -0.455428
vn 0.519400 0.723055 -0.455428
vn 0.519400 0.723055 -0.455428
vn 0.062483 0.786961 -0.613831
vn 0.062483 0.786961 -0.613831
vn 0.062483 0.786961 -0.613831
vn 0.642667 0.133466 -0.754431
vn 0.642667 0.133466 -0.754431
vn 0.642667 0.133466 -0.754431
vn 0.921764 0.247783 -0.298253
vn 0.921764 0.247783 -0.298253
vn 0.921764 0.247783 -0.298253
vn 0.969012 0.241423 0.052265
vn 0.969011 0.241423 0.052265
vn 0.969011 0.241423 0.052265
vn 0.422475 0.903039 0.077691
vn 0.422475 0.903039 0.077691
vn 0.422475 0.903039 0.077691
vn 0.959719 0.262994 -0.098862
vn 0.959719 0.262994 -0.098862
vn 0.959719 0.262994 -0.098862
vn 0.352511 -0.933647 0.063554
vn 0.352511 -0.933647 0.063554
vn 0.352511 -0.933647 0.063554
vn 0.493504 -0.758704 0.425231
vn 0.493504 -0.758704 0.425231
vn 0.493504 -0.758704 0.425231
vn 0.481834 -0.722702 0.495518
vn 0.481834 -0.722702 0.495518
vn 0.481834 -0.722702 0.495518
vn 0.697486 -0.714174 -0.058898
vn 0.697486 -0.714174 -0.058898
vn 0.697486 -0.714174 -0.058898
vn 0.422713 -0.898015 0.121995
vn 0.422713 -0.898015 0.121995
vn 0.422713 -0.898015 0.121995
vn 0.896003 0.321741 -0.306043
vn 0.896003 0.321741 -0.306043
vn 0.896003 0.321741 -0.306043
vn 0.713244 0.534610 -0.453294
vn 0.713244 0.534610 -0.453294
vn 0.713244 0.534610 -0.453295
vn 0.697027 0.581450 -0.419606
vn 0.697027 0.581450 -0.419606
vn 0.697027 0.581450 -0.419606
vn 0.816351 0.566766 0.111124
vn 0.816351 0.566766 0.111124
vn 0.816351 0.566766 0.111124
vn 0.816684 0.566548 0.109776
vn 0.816684 0.566548 0.109776
vn 0.816684 0.566548 0.109776
vn 0.363195 0.897475 -0.250255
vn 0.363195 0.897475 -0.250255
vn 0.363195 0.897475 -0.250255
vn 0.996295 0.027859 0.081363
vn 0.996295 0.027859 0.081363
vn 0.996295 0.027859 0.081363
vn 0.996797 0.079369 0.009842
vn 0.996797 0.079369 0.009842
vn 0.996797 0.079369 0.009842
vn 0.988786 0.148785 -0.012885
vn 0.988786 0.148785 -0.012885
vn 0.988786 0.148785 -0.012885
vn 0.846227 0.514833 0.137282
vn 0.846227 0.514833 0.137282
vn 0.846227 0.514833 0.137282
vn 0.237408 0.898175 -0.370026
vn 0.237408 0.898175 -0.370026
vn 0.237408 0.898175 -0.370026
vn 0.939290 0.172461 -0.296634
vn 0.939290 0.172461 -0.296634
vn 0.939290 0.172461 -0.296634
vn 0.878797 -0.087150 -0.469170
vn 0.878797 -0.087150 -0.469170
vn 0.878797 -0.087150 -0.469170
vn 0.901140 0.414265 0.127795
vn 0.901140 0.414265 0.127795
vn 0.901140 0.414266 0.127795
vn 0.578680 0.698087 -0.421667
vn 0.578680 0.698087 -0.421667
vn 0.578680 0.698087 -0.421667
vn 0.974857 0.110370 -0.193577
vn 0.974857 0.110370 -0.193577
vn 0.974857 0.110370 -0.193577
vn 0.968257 -0.000095 -0.249955
vn 0.968257 -0.000095 -0.249955
vn 0.968257 -0.000095 -0.249955
vn 0.963340 0.243011 0.113672
vn 0.963340 0.243011 0.113672
vn 0.963340 0.243011 0.113672
vn 0.962508 0.210664 0.170880
vn 0.962508 0.210664 0.170880
vn 0.962508 0.210664 0.170880
vn 0.906123 0.408538 0.109723
vn 0.906122 0.408538 0.109723
vn 0.906122 0.408538 0.109723
vn 0.906450 0.410038 0.101079
vn 0.906450 0.410038 0.101079
vn 0.906450 0.410038 0.101079
vn -0.926999 0.374945 0.009482
vn -0.926999 0.374945 0.009482
vn -0.926999 0.374945 0.009482
vn 0.617824 0.678289 -0.397765
vn 0.617824 0.678289 -0.397765
vn 0.617824 0.678289 -0.397765
s off
f 8/85/1 3/3/2 2/2/3
f 8/86/4 4/4/5 3/3/6
f 8/89/7 6/6/8 5/5/9
f 4/4/10 8/87/11 9/10/12
f 9/10/13 8/88/14 5/5/15
f 6/6/16 8/90/17 7/7/18
f 8/8/19 10/11/20 7/7/21
f 8/91/22 1/9/23 10/11/24
f 5/5/25 6/6/26 11/12/27
f 10/11/28 1/9/29 12/13/30
f 2/2/31 16/14/32 1/1/33
f 2/2/34 3/3/35 16/14/36
f 3/3/37 4/4/38 13/15/39
f 4/4/40 9/10/41 14/16/42
f 9/10/43 5/5/44 15/17/45
f 15/17/46 5/5/47 11/12/48
f 11/12/49 6/6/50 7/7/51
f 22/24/52 12/13/53 16/18/54
f 1/9/55 16/18/56 12/13/57
f 16/14/58 3/3/59 17/19/60
f 4/4/61 14/16/62 13/15/63
f 9/10/64 15/17/65 14/16/66
f 7/7/67 23/25/68 11/12/69
f 23/25/70 7/7/71 18/20/72
f 7/7/73 10/11/74 18/20/75
f 18/20/76 10/11/77 19/21/78
f 10/11/79 12/13/80 19/21/81
f 19/21/82 12/13/83 22/24/84
f 16/18/85 20/22/86 22/24/87
f 17/19/88 3/3/89 13/15/90
f 13/15/91 14/16/92 21/23/93
f 15/17/94 11/12/95 28/30/96
f 19/21/97 22/24/98 30/32/99
f 22/24/100 20/22/101 30/32/102
f 14/16/103 24/26/104 21/23/105
f 14/16/106 15/17/107 28/30/108
f 11/12/109 23/25/110 28/30/111
f 19/21/112 30/32/113 25/27/114
f 17/19/115 26/28/116 16/14/117
f 17/19/118 13/15/119 26/28/120
f 14/16/121 28/30/122 27/29/123
f 25/27/124 30/32/125 29/31/126
f 16/18/127 26/33/128 20/22/129
f 27/29/130 28/30/131 31/34/132
f 28/30/133 23/25/134 32/35/135
f 30/32/136 20/22/137 33/36/138
f 28/30/139 34/37/140 31/34/141
f 28/30/142 32/35/143 34/37/144
f 23/25/145 35/38/146 32/35/147
f 23/25/148 18/20/149 35/38/150
f 19/21/151 36/39/152 18/20/153
f 19/21/154 25/27/155 36/39/156
f 36/39/157 25/27/158 29/31/159
f 14/16/160 37/40/161 24/26/162
f 14/16/163 27/29/164 38/41/165
f 38/41/166 27/29/167 31/34/168
f 30/32/169 33/36/170 29/31/171
f 33/36/172 20/22/173 39/42/174
f 13/15/175 21/23/176 40/44/177
f 21/23/178 24/26/179 40/44/180
f 37/40/181 14/16/182 38/41/183
f 31/34/184 41/45/185 38/41/186
f 31/34/187 42/46/188 41/45/189
f 31/34/190 34/37/191 42/46/192
f 35/38/193 44/48/194 43/47/195
f 35/38/196 18/20/197 44/48/198
f 36/39/199 29/31/200 45/49/201
f 20/22/202 26/33/203 39/42/204
f 26/28/205 51/56/206 39/43/207
f 13/15/208 40/44/209 26/28/210
f 26/28/211 40/44/212 51/56/213
f 38/41/214 41/45/215 46/50/216
f 34/37/217 32/35/218 42/46/219
f 42/46/220 32/35/221 47/51/222
f 32/35/223 35/38/224 47/51/225
f 47/51/226 35/38/227 48/52/228
f 35/38/229 43/47/230 48/52/231
f 18/20/232 49/53/233 44/48/234
f 18/20/235 36/39/236 49/53/237
f 36/39/238 45/49/239 61/66/240
f 29/31/241 50/54/242 45/49/243
f 29/31/244 33/36/245 50/54/246
f 51/56/247 54/55/248 39/43/249
f 40/44/250 24/26/251 52/57/252
f 24/26/253 37/40/254 52/57/255
f 38/41/256 46/50/257 37/40/258
f 36/39/259 61/66/260 49/53/261
f 33/36/262 39/42/263 53/58/264
f 53/58/265 39/42/266 54/59/267
f 54/55/268 51/56/269 58/63/270
f 42/46/271 55/60/272 41/45/273
f 42/46/274 47/51/275 56/61/276
f 47/51/277 48/52/278 56/61/279
f 43/47/280 44/48/281 60/65/282
f 44/48/283 49/53/284 60/65/285
f 33/36/286 53/58/287 50/54/288
f 53/58/289 54/59/290 57/62/291
f 40/44/292 52/57/293 51/56/294
f 51/56/295 52/57/296 58/63/297
f 52/57/298 37/40/299 59/64/300
f 41/45/301 63/68/302 46/50/303
f 41/45/304 55/60/305 63/68/306
f 42/46/307 56/61/308 55/60/309
f 56/61/310 48/52/311 43/47/312
f 49/53/313 61/66/314 60/65/315
f 50/54/316 53/58/317 62/67/318
f 53/58/319 57/62/320 62/67/321
f 52/57/322 67/72/323 58/63/324
f 58/63/325 67/72/326 66/71/327
f 37/40/328 46/50/329 59/64/330
f 59/64/331 46/50/332 63/68/333
f 63/68/334 55/60/335 56/61/336
f 56/61/337 43/47/338 64/69/339
f 43/47/340 60/65/341 64/69/342
f 61/66/343 65/70/344 60/65/345
f 45/49/346 65/70/347 61/66/348
f 50/54/349 65/70/350 45/49/351
f 50/54/352 62/67/353 65/70/354
f 62/67/355 57/62/356 65/70/357
f 58/63/358 66/71/359 54/55/360
f 52/57/361 59/64/362 67/72/363
f 59/64/364 63/68/365 67/72/366
f 63/68/367 68/73/368 67/72/369
f 63/68/370 56/61/371 68/73/372
f 56/61/373 64/69/374 69/74/375
f 65/70/376 57/62/377 70/75/378
f 57/62/379 54/59/380 70/75/381
f 54/55/382 66/71/383 70/76/384
f 56/61/385 71/77/386 68/73/387
f 56/61/388 69/74/389 71/77/390
f 64/69/391 60/65/392 72/78/393
f 60/65/394 65/70/395 72/78/396
f 67/72/397 73/81/398 66/71/399
f 64/69/400 73/79/401 69/74/402
f 64/69/403 72/78/404 73/79/405
f 65/70/406 73/80/407 72/78/408
f 73/80/409 65/70/410 70/75/411
f 66/71/412 73/81/413 70/76/414
f 67/72/415 68/73/416 73/82/417
f 68/73/418 71/77/419 73/83/420
f 2/2/421 1/1/422 8/84/423
f 71/77/424 69/74/425 73/92/426
