# This file uses centimeters as units for non-parametric coordinates.

v 0.027373 0.000000 -0.037548
v -0.004567 0.000000 -0.060754
v -0.044047 0.000000 -0.060753
v -0.075987 0.000000 -0.037548
v -0.088187 0.000000 0.000000
v -0.075988 0.000000 0.037548
v -0.044047 0.000000 0.060753
v -0.004567 0.000000 0.060753
v 0.027373 0.000000 0.037548
v 0.039573 0.000000 0.000000
v 0.027373 0.029851 -0.037548
v -0.004567 0.029851 -0.060754
v -0.044047 0.029851 -0.060753
v -0.075987 0.029851 -0.037548
v -0.088187 0.029851 0.000000
v -0.075988 0.029851 0.037548
v -0.044047 0.029851 0.060753
v -0.004567 0.029851 0.060753
v 0.027373 0.029851 0.037548
v 0.039573 0.029851 0.000000
v -0.024307 0.000000 0.000000
v 0.016135 0.029851 -0.029383
v -0.008860 0.029851 -0.047543
v -0.039755 0.029851 -0.047543
v -0.064749 0.029851 -0.029383
v -0.074297 0.029851 0.000000
v -0.064749 0.029851 0.029383
v -0.039755 0.029851 0.047543
v -0.008860 0.029851 0.047543
v 0.016135 0.029851 0.029383
v 0.025682 0.029851 -0.000000
v 0.009440 0.022929 -0.024519
v -0.011417 0.022929 -0.039672
v -0.024307 0.022929 -0.000000
v -0.037198 0.022929 -0.039672
v -0.058054 0.022929 -0.024519
v -0.066021 0.022929 0.000000
v -0.058054 0.022929 0.024519
v -0.037197 0.022929 0.039672
v -0.011417 0.022929 0.039672
v 0.009440 0.022929 0.024519
v 0.017407 0.022929 -0.000000
v 0.032156 0.010624 0.027664
v 0.037633 0.010624 0.010807
v 0.037633 0.019227 0.010807
v 0.032156 0.019227 0.027664
v 0.042062 0.010624 0.030883
v 0.047539 0.010624 0.014026
v 0.047539 0.019227 0.014026
v 0.042062 0.019227 0.030883
v 0.040779 0.006376 0.039669
v 0.051666 0.006376 0.006164
v 0.051666 0.023475 0.006164
v 0.040779 0.023475 0.039669
v 0.077301 0.006376 0.051536
v 0.088187 0.006376 0.018030
v 0.088187 0.023475 0.018030
v 0.077301 0.023475 0.051536
v 0.050094 0.006376 0.035417
v 0.056703 0.006376 0.015079
v 0.078872 0.006376 0.022282
v 0.072264 0.006376 0.042621
v 0.050094 0.023475 0.035417
v 0.056703 0.023475 0.015079
v 0.072264 0.023475 0.042621
v 0.078872 0.023475 0.022282
vt 0.398390 0.283245
vt 0.398390 0.283245
vt 0.398390 0.283245
vt 0.398390 0.283245
vt 0.398390 0.283245
vt 0.398390 0.283245
vt 0.398390 0.283245
vt 0.398390 0.283245
vt 0.398390 0.283245
vt 0.398390 0.283245
vt 0.398390 0.283245
vt 0.398390 0.283245
vt 0.398390 0.283245
vt 0.398390 0.283245
vt 0.398390 0.283245
vt 0.398390 0.283245
vt 0.398390 0.283245
vt 0.398390 0.283245
vt 0.398390 0.283245
vt 0.398390 0.283245
vt 0.398390 0.283245
vt 0.398390 0.283245
vt 0.398390 0.283245
vt 0.398390 0.283245
vt 0.398390 0.283245
vt 0.398390 0.283245
vt 0.398390 0.283245
vt 0.398390 0.283245
vt 0.398390 0.283245
vt 0.398390 0.283245
vt 0.398390 0.283245
vt 0.398390 0.283245
vt 0.398390 0.283245
vt 0.398390 0.283245
vt 0.398390 0.283245
vt 0.398390 0.283245
vt 0.398390 0.283245
vt 0.398390 0.283245
vt 0.398390 0.283245
vt 0.398390 0.283245
vt 0.398390 0.283245
vt 0.398390 0.283245
vt 0.398390 0.283245
vt 0.361146 0.211105
vt 0.398390 0.283245
vt 0.398390 0.283245
vt 0.398390 0.283245
vt 0.398390 0.283245
vt 0.398390 0.283245
vt 0.398390 0.283245
vt 0.398390 0.283245
vt 0.398390 0.283245
vt 0.398390 0.283245
vt 0.398390 0.283245
vt 0.398390 0.283245
vt 0.398390 0.283245
vt 0.398390 0.283245
vt 0.398390 0.283245
vt 0.398390 0.283245
vt 0.398390 0.283245
vt 0.398390 0.283245
vt 0.398390 0.283245
vt 0.398390 0.283245
vt 0.398390 0.283245
vt 0.361146 0.211105
vt 0.361146 0.211105
vt 0.361146 0.211105
vt 0.361146 0.211105
vt 0.361146 0.211105
vt 0.361146 0.211105
vt 0.361146 0.211105
vt 0.361146 0.211105
vt 0.361146 0.211105
vt 0.361146 0.211105
vt 0.406447 0.254957
vt 0.406447 0.254957
vt 0.406447 0.254957
vt 0.364885 0.166240
vt 0.364885 0.166240
vt 0.364885 0.166240
vt 0.364885 0.166240
vt 0.364886 0.166240
vt 0.364886 0.166240
vt 0.364885 0.166240
vt 0.364885 0.166240
vt 0.364885 0.166240
vt 0.398390 0.283245
vt 0.398390 0.283245
vt 0.398390 0.283245
vt 0.398390 0.283245
vt 0.398390 0.283245
vt 0.398390 0.283245
vt 0.398390 0.283245
vt 0.398390 0.283245
vt 0.398390 0.283245
vt 0.398390 0.283245
vt 0.398390 0.283245
vt 0.398390 0.283245
vt 0.398390 0.283245
vt 0.398390 0.283245
vt 0.398390 0.283245
vt 0.398390 0.283245
vt 0.398390 0.283245
vt 0.398390 0.283245
vt 0.398390 0.283245
vt 0.398390 0.283245
vt 0.398390 0.283245
vt 0.398390 0.283245
vt 0.398390 0.283245
vt 0.398390 0.283245
vn 0.587787 0.000000 -0.809016
vn 0.587787 0.000000 -0.809016
vn 0.587787 0.000000 -0.809016
vn 0.587787 0.000000 -0.809016
vn -0.000005 0.000000 -1.000000
vn -0.000005 0.000000 -1.000000
vn -0.000005 0.000000 -1.000000
vn -0.000005 0.000000 -1.000000
vn -0.587784 0.000000 -0.809018
vn -0.587784 0.000000 -0.809018
vn -0.587784 0.000000 -0.809018
vn -0.587784 0.000000 -0.809018
vn -0.951059 0.000000 -0.309009
vn -0.951059 0.000000 -0.309009
vn -0.951059 0.000000 -0.309009
vn -0.951059 0.000000 -0.309009
vn -0.951061 0.000000 0.309003
vn -0.951061 0.000000 0.309003
vn -0.951061 0.000000 0.309003
vn -0.951061 0.000000 0.309003
vn -0.587776 0.000000 0.809024
vn -0.587776 0.000000 0.809024
vn -0.587776 0.000000 0.809024
vn -0.587776 0.000000 0.809024
vn 0.000000 0.000000 1.000000
vn 0.000000 0.000000 1.000000
vn 0.000000 0.000000 1.000000
vn 0.000000 0.000000 1.000000
vn 0.587785 0.000000 0.809017
vn 0.587785 0.000000 0.809017
vn 0.587785 0.000000 0.809017
vn 0.587785 0.000000 0.809017
vn 0.951054 0.000000 0.309026
vn 0.951054 0.000000 0.309026
vn 0.951054 0.000000 0.309026
vn 0.951054 0.000000 0.309026
vn 0.951055 0.000000 -0.309021
vn 0.951055 0.000000 -0.309021
vn 0.951055 0.000000 -0.309021
vn 0.951055 0.000000 -0.309021
vn 0.000000 -1.000000 0.000000
vn 0.000000 -1.000000 0.000000
vn 0.000000 -1.000000 0.000000
vn 0.000000 -1.000000 0.000000
vn 0.000000 -1.000000 0.000000
vn 0.000000 -1.000000 0.000000
vn 0.000000 -1.000000 0.000000
vn 0.000000 -1.000000 0.000000
vn 0.000000 -1.000000 0.000000
vn 0.000000 -1.000000 0.000000
vn 0.000000 -1.000000 0.000000
vn 0.000000 -1.000000 0.000000
vn 0.000000 -1.000000 0.000000
vn 0.000000 -1.000000 0.000000
vn 0.000000 -1.000000 0.000000
vn 0.000000 -1.000000 0.000000
vn 0.000000 -1.000000 0.000000
vn 0.000000 -1.000000 0.000000
vn 0.000000 -1.000000 0.000000
vn 0.000000 -1.000000 0.000000
vn 0.000000 -1.000000 0.000000
vn 0.000000 -1.000000 0.000000
vn 0.000000 -1.000000 0.000000
vn 0.000000 -1.000000 0.000000
vn 0.000000 -1.000000 0.000000
vn 0.000000 -1.000000 0.000000
vn 0.000000 -1.000000 0.000000
vn 0.000000 -1.000000 0.000000
vn 0.000000 -1.000000 0.000000
vn 0.000000 -1.000000 0.000000
vn 0.000000 1.000000 -0.000000
vn 0.000000 1.000000 0.000000
vn 0.000000 1.000000 -0.000000
vn 0.000000 1.000000 0.000000
vn 0.000000 1.000000 0.000000
vn 0.000000 1.000000 -0.000000
vn 0.000000 1.000000 0.000000
vn 0.000000 1.000000 -0.000000
vn 0.000000 1.000000 -0.000000
vn 0.000000 1.000000 -0.000000
vn 0.000000 1.000000 0.000000
vn 0.000000 1.000000 -0.000000
vn 0.000000 1.000000 0.000000
vn 0.000000 1.000000 0.000000
vn 0.000000 1.000000 -0.000000
vn 0.000000 1.000000 0.000000
vn 0.000000 1.000000 0.000000
vn 0.000000 1.000000 -0.000000
vn 0.000000 1.000000 0.000000
vn 0.000000 1.000000 0.000000
vn 0.000000 1.000000 -0.000000
vn 0.000000 1.000000 0.000000
vn 0.000000 1.000000 0.000000
vn 0.000000 1.000000 -0.000000
vn 0.000000 1.000000 0.000000
vn 0.000000 1.000000 -0.000000
vn 0.000000 1.000000 -0.000000
vn 0.000000 1.000000 -0.000000
vn 0.000000 1.000000 -0.000000
vn 0.000000 1.000000 -0.000000
vn 0.000000 1.000000 -0.000000
vn 0.000000 1.000000 -0.000000
vn 0.000000 1.000000 -0.000000
vn 0.000000 1.000000 -0.000000
vn 0.000000 1.000000 -0.000000
vn 0.000000 1.000000 -0.000000
vn 0.000000 1.000000 -0.000000
vn 0.000000 1.000000 -0.000000
vn 0.000000 1.000000 -0.000000
vn 0.000000 1.000000 -0.000000
vn 0.000000 1.000000 -0.000000
vn 0.000000 1.000000 -0.000000
vn 0.000000 1.000000 0.000000
vn 0.000000 1.000000 0.000000
vn 0.000000 1.000000 0.000000
vn 0.000000 1.000000 0.000000
vn 0.000000 1.000000 0.000000
vn 0.000000 1.000000 0.000000
vn 0.000000 1.000000 0.000000
vn 0.000000 1.000000 0.000000
vn 0.000000 1.000000 0.000000
vn 0.000000 1.000000 0.000000
vn 0.000000 1.000000 0.000000
vn 0.000000 1.000000 0.000000
vn 0.000000 1.000000 0.000000
vn 0.000000 1.000000 0.000000
vn 0.000000 1.000000 0.000000
vn 0.000000 1.000000 0.000000
vn 0.000000 1.000000 0.000000
vn 0.000000 1.000000 0.000000
vn 0.000000 1.000000 0.000000
vn 0.000000 1.000000 0.000000
vn 0.000000 1.000000 -0.000000
vn 0.000000 1.000000 -0.000000
vn 0.000000 1.000000 -0.000000
vn 0.000000 1.000000 -0.000000
vn 0.000000 1.000000 0.000000
vn 0.000000 1.000000 0.000000
vn 0.000000 1.000000 0.000000
vn 0.000000 1.000000 0.000000
vn -0.388189 0.750892 0.534295
vn -0.388189 0.750892 0.534295
vn -0.388189 0.750892 0.534295
vn -0.388189 0.750892 0.534295
vn 0.000003 0.750893 0.660424
vn 0.000003 0.750893 0.660424
vn 0.000003 0.750893 0.660424
vn 0.000003 0.750893 0.660424
vn 0.388189 0.750893 0.534293
vn 0.388189 0.750893 0.534293
vn 0.388189 0.750893 0.534293
vn 0.388189 0.750893 0.534293
vn 0.628092 0.750899 0.204084
vn 0.628092 0.750899 0.204084
vn 0.628092 0.750899 0.204084
vn 0.628092 0.750899 0.204084
vn 0.628096 0.750896 -0.204087
vn 0.628096 0.750896 -0.204087
vn 0.628096 0.750896 -0.204087
vn 0.628096 0.750896 -0.204087
vn 0.388187 0.750900 -0.534285
vn 0.388187 0.750900 -0.534285
vn 0.388187 0.750900 -0.534285
vn 0.388187 0.750900 -0.534285
vn 0.000000 0.750899 -0.660417
vn 0.000000 0.750899 -0.660417
vn 0.000000 0.750899 -0.660417
vn 0.000000 0.750899 -0.660417
vn -0.388190 0.750893 -0.534293
vn -0.388190 0.750893 -0.534293
vn -0.388190 0.750893 -0.534293
vn -0.388190 0.750893 -0.534293
vn -0.628103 0.750890 -0.204085
vn -0.628103 0.750890 -0.204085
vn -0.628103 0.750890 -0.204085
vn -0.628103 0.750890 -0.204085
vn -0.628104 0.750890 0.204084
vn -0.628104 0.750890 0.204084
vn -0.628104 0.750890 0.204084
vn -0.628104 0.750889 0.204084
vn 0.928793 -0.081919 0.361433
vn 0.963849 -0.081920 0.253542
vn 0.963410 -0.083255 0.254776
vn 0.929162 -0.083255 0.360175
vn 0.963849 -0.081920 0.253542
vn 0.963850 0.081920 0.253541
vn 0.963410 0.083256 0.254776
vn 0.963410 -0.083255 0.254776
vn 0.963850 0.081920 0.253541
vn 0.928792 0.081919 0.361433
vn 0.929162 0.083255 0.360175
vn 0.963410 0.083256 0.254776
vn 0.928792 0.081919 0.361433
vn 0.928793 -0.081919 0.361433
vn 0.929162 -0.083255 0.360175
vn 0.929162 0.083255 0.360175
vn 0.000000 -1.000000 0.000000
vn 0.000000 -1.000000 0.000000
vn 0.000000 -1.000000 0.000000
vn 0.000000 -1.000000 0.000000
vn 0.309012 0.000000 -0.951058
vn 0.309012 0.000000 -0.951058
vn 0.309012 0.000000 -0.951058
vn 0.309012 0.000000 -0.951058
vn 0.000000 1.000000 0.000000
vn 0.000000 1.000000 0.000000
vn 0.000000 1.000000 0.000000
vn 0.000000 1.000000 0.000000
vn -0.309046 0.000000 0.951047
vn -0.309046 0.000000 0.951047
vn -0.309046 0.000000 0.951047
vn -0.309046 0.000000 0.951047
vn -0.952339 -0.195920 -0.233807
vn -0.907878 -0.195921 -0.370639
vn -0.902587 -0.103230 -0.417947
vn -0.975867 -0.103229 -0.192424
vn -0.907878 -0.195921 -0.370639
vn -0.907877 0.195925 -0.370639
vn -0.902587 0.103229 -0.417948
vn -0.902587 -0.103230 -0.417947
vn -0.907877 0.195925 -0.370639
vn -0.952338 0.195924 -0.233806
vn -0.975868 0.103228 -0.192422
vn -0.902587 0.103229 -0.417948
vn -0.952338 0.195924 -0.233806
vn -0.952339 -0.195920 -0.233807
vn -0.975867 -0.103229 -0.192424
vn -0.975868 0.103228 -0.192422
vn 0.309018 0.000000 -0.951056
vn 0.309018 0.000000 -0.951056
vn 0.309018 0.000000 -0.951056
vn 0.309018 0.000000 -0.951056
vn -0.309016 0.000000 0.951057
vn -0.309016 0.000000 0.951057
vn -0.309016 0.000000 0.951057
vn -0.309016 0.000000 0.951057
vn 0.000000 -1.000000 0.000000
vn 0.000000 -1.000000 0.000000
vn 0.000000 -1.000000 0.000000
vn 0.000000 -1.000000 0.000000
vn 0.000000 -1.000000 0.000000
vn 0.000000 -1.000000 0.000000
vn 0.000000 -1.000000 0.000000
vn 0.000000 -1.000000 0.000000
vn 0.000000 -1.000000 0.000000
vn 0.000000 -1.000000 0.000000
vn 0.000000 -1.000000 0.000000
vn 0.000000 -1.000000 0.000000
vn 0.000000 -1.000000 0.000000
vn 0.000000 -1.000000 0.000000
vn 0.000000 -1.000000 0.000000
vn 0.000000 -1.000000 0.000000
vn 0.000000 1.000000 0.000000
vn 0.000000 1.000000 -0.000000
vn 0.000000 1.000000 -0.000000
vn 0.000000 1.000000 0.000000
vn 0.000000 1.000000 -0.000000
vn 0.000000 1.000000 -0.000000
vn 0.000000 1.000000 -0.000000
vn 0.000000 1.000000 -0.000000
vn 0.000000 1.000000 -0.000000
vn 0.000000 1.000000 0.000000
vn 0.000000 1.000000 0.000000
vn 0.000000 1.000000 -0.000000
vn 0.000000 1.000000 0.000000
vn 0.000000 1.000000 0.000000
vn 0.000000 1.000000 0.000000
vn 0.000000 1.000000 0.000000
vn -0.951060 0.000000 -0.309006
vn -0.951060 0.000000 -0.309006
vn -0.951060 0.000000 -0.309006
vn -0.951060 0.000000 -0.309006
vn 0.309018 0.000001 -0.951056
vn 0.309018 0.000001 -0.951056
vn 0.309018 0.000001 -0.951056
vn 0.309018 0.000001 -0.951056
vn 0.951056 0.000004 0.309020
vn 0.951056 0.000004 0.309020
vn 0.951056 0.000004 0.309020
vn 0.951056 0.000004 0.309020
vn -0.309020 0.000002 0.951056
vn -0.309020 0.000002 0.951056
vn -0.309020 0.000002 0.951056
vn -0.309020 0.000002 0.951056
s off
f 1/11/1 2/12/2 12/23/3 11/22/4
f 2/12/5 3/13/6 13/24/7 12/23/8
f 3/13/9 4/14/10 14/25/11 13/24/12
f 4/14/13 5/15/14 15/26/15 14/25/16
f 5/15/17 6/16/18 16/27/19 15/26/20
f 6/16/21 7/17/22 17/28/23 16/27/24
f 7/17/25 8/18/26 18/29/27 17/28/28
f 8/18/29 9/19/30 19/30/31 18/29/32
f 55/99/33 56/100/34 57/101/35 58/102/36
f 10/20/37 1/21/38 11/32/39 20/31/40
f 2/2/41 1/1/42 21/43/43
f 3/3/44 2/2/45 21/43/46
f 4/4/47 3/3/48 21/43/49
f 5/5/50 4/4/51 21/43/52
f 6/6/53 5/5/54 21/43/55
f 7/7/56 6/6/57 21/43/58
f 8/8/59 7/7/60 21/43/61
f 9/9/62 8/8/63 21/43/64
f 10/10/65 9/9/66 21/43/67
f 1/1/68 10/10/69 21/43/70
f 32/44/71 33/65/72 34/66/73
f 33/75/74 35/76/75 34/77/76
f 35/67/77 36/68/78 34/66/79
f 36/78/80 37/79/81 34/80/82
f 37/69/83 38/70/84 34/66/85
f 38/81/86 39/82/87 34/80/88
f 39/71/89 40/72/90 34/66/91
f 40/83/92 41/84/93 34/80/94
f 41/73/95 42/74/96 34/66/97
f 42/85/98 32/86/99 34/80/100
f 11/41/101 12/40/102 23/46/103 22/45/104
f 12/40/105 13/39/106 24/47/107 23/46/108
f 13/39/109 14/38/110 25/48/111 24/47/112
f 14/38/113 15/37/114 26/49/115 25/48/116
f 15/37/117 16/36/118 27/50/119 26/49/120
f 16/36/121 17/35/122 28/51/123 27/50/124
f 17/35/125 18/34/126 29/52/127 28/51/128
f 18/34/129 19/33/130 30/53/131 29/52/132
f 19/33/133 20/42/134 31/54/135 30/53/136
f 20/42/137 11/41/138 22/45/139 31/54/140
f 22/45/141 23/46/142 33/56/143 32/55/144
f 23/46/145 24/47/146 35/57/147 33/56/148
f 24/47/149 25/48/150 36/58/151 35/57/152
f 25/48/153 26/49/154 37/59/155 36/58/156
f 26/49/157 27/50/158 38/60/159 37/59/160
f 27/50/161 28/51/162 39/61/163 38/60/164
f 28/51/165 29/52/166 40/62/167 39/61/168
f 29/52/169 30/53/170 41/63/171 40/62/172
f 30/53/173 31/54/174 42/64/175 41/63/176
f 31/54/177 22/45/178 32/55/179 42/64/180
f 9/19/181 10/20/182 44/88/183 43/87/184
f 10/20/185 20/31/186 45/89/187 44/88/188
f 20/31/189 19/30/190 46/90/191 45/89/192
f 19/30/193 9/19/194 43/87/195 46/90/196
f 43/87/197 44/88/198 48/92/199 47/91/200
f 44/88/201 45/89/202 49/93/203 48/92/204
f 45/89/205 46/90/206 50/94/207 49/93/208
f 46/90/209 43/87/210 47/91/211 50/94/212
f 47/91/213 48/92/214 52/96/215 51/95/216
f 48/92/217 49/93/218 53/97/219 52/96/220
f 49/93/221 50/94/222 54/98/223 53/97/224
f 50/94/225 47/91/226 51/95/227 54/98/228
f 52/96/229 53/97/230 57/101/231 56/100/232
f 54/98/233 51/95/234 55/99/235 58/102/236
f 51/95/237 52/96/238 60/104/239 59/103/240
f 52/96/241 56/100/242 61/105/243 60/104/244
f 56/100/245 55/99/246 62/106/247 61/105/248
f 55/99/249 51/95/250 59/103/251 62/106/252
f 53/97/253 54/98/254 63/108/255 64/107/256
f 54/98/257 58/102/258 65/109/259 63/108/260
f 58/102/261 57/101/262 66/110/263 65/109/264
f 57/101/265 53/97/266 64/107/267 66/110/268
f 61/105/269 62/106/270 65/109/271 66/110/272
f 62/106/273 59/103/274 63/108/275 65/109/276
f 60/104/277 64/107/278 63/108/279 59/103/280
f 61/105/281 66/110/282 64/107/283 60/104/284
