# This file uses centimeters as units for non-parametric coordinates.

v 0.059614 0.000000 -0.059614
v 0.000000 0.000000 -0.084307
v -0.059614 0.000000 -0.059614
v -0.084307 0.000000 -0.000000
v -0.059614 0.000000 0.059614
v 0.000000 0.000000 0.084306
v 0.059614 0.000000 0.059614
v 0.084307 0.000000 -0.000000
v 0.059614 0.016702 -0.059614
v 0.000000 0.016702 -0.084307
v -0.059614 0.016702 -0.059614
v -0.084307 0.016702 -0.000000
v -0.059614 0.016702 0.059614
v 0.000000 0.016702 0.084306
v 0.059614 0.016702 0.059614
v 0.084307 0.016702 -0.000000
v 0.000000 0.000000 -0.000000
v 0.034592 0.026582 -0.034592
v 0.000000 0.026582 -0.048921
v -0.034592 0.026582 -0.034592
v -0.048921 0.026582 -0.000000
v -0.034592 0.026582 0.034592
v 0.000000 0.026582 0.048921
v 0.034592 0.026582 0.034592
v 0.048921 0.026582 -0.000000
v 0.022366 0.056885 -0.022365
v 0.000000 0.056885 -0.031629
v -0.022365 0.056885 -0.022365
v -0.031629 0.056885 0.000000
v -0.022365 0.056885 0.022365
v 0.000000 0.056885 0.031629
v 0.022366 0.056885 0.022365
v 0.031629 0.056885 0.000000
v 0.024033 0.112032 -0.024033
v 0.000000 0.112032 -0.033988
v -0.024033 0.112032 -0.024033
v -0.033988 0.112032 0.000000
v -0.024033 0.112032 0.024033
v 0.000000 0.112032 0.033988
v 0.024033 0.112032 0.024033
v 0.033988 0.112032 0.000000
v 0.042311 0.125736 -0.042311
v -0.000000 0.125736 -0.059837
v -0.042311 0.125736 -0.042311
v -0.059837 0.125736 0.000000
v -0.042311 0.125736 0.042311
v -0.000000 0.125736 0.059837
v 0.042311 0.125736 0.042311
v 0.059838 0.125736 0.000000
v 0.058013 0.158549 -0.058013
v -0.000000 0.158549 -0.082044
v -0.058013 0.158549 -0.058013
v -0.082044 0.158549 0.000000
v -0.058013 0.158549 0.058013
v -0.000000 0.158549 0.082044
v 0.058013 0.158549 0.058013
v 0.082044 0.158549 0.000000
v 0.066380 0.281061 -0.066381
v -0.000000 0.281061 -0.093876
v -0.066381 0.281061 -0.066381
v -0.093876 0.281061 0.000000
v -0.066381 0.281061 0.066380
v -0.000000 0.281061 0.093876
v 0.066380 0.281061 0.066380
v 0.093876 0.281061 0.000000
v 0.074952 0.288450 -0.074952
v -0.000000 0.288450 -0.105998
v -0.074952 0.288450 -0.074952
v -0.105998 0.288450 0.000000
v -0.074952 0.288450 0.074952
v -0.000000 0.288450 0.105998
v 0.074952 0.288450 0.074952
v 0.105998 0.288450 0.000000
v 0.074952 0.300972 -0.074952
v -0.000000 0.300972 -0.105998
v -0.074952 0.300972 -0.074952
v -0.105998 0.300972 0.000000
v -0.074952 0.300972 0.074952
v -0.000000 0.300972 0.105998
v 0.074952 0.300972 0.074952
v 0.105998 0.300972 0.000000
v 0.060849 0.300972 -0.060849
v -0.000000 0.300972 -0.086054
v -0.060849 0.300972 -0.060849
v -0.086054 0.300972 -0.000000
v -0.060849 0.300972 0.060849
v -0.000000 0.300972 0.086054
v 0.060849 0.300972 0.060849
v 0.086054 0.300972 -0.000000
v 0.046769 0.153849 -0.046769
v -0.000000 0.153849 -0.066142
v -0.000000 0.120237 -0.000000
v -0.046769 0.153849 -0.046769
v -0.066142 0.153849 -0.000000
v -0.046769 0.153849 0.046769
v -0.000000 0.153849 0.066142
v 0.046769 0.153849 0.046769
v 0.066142 0.153849 -0.000000
vt 0.298560 0.186755
vt 0.298560 0.186755
vt 0.298560 0.186755
vt 0.298560 0.186755
vt 0.298560 0.186755
vt 0.298560 0.186755
vt 0.298560 0.186755
vt 0.298560 0.186755
vt 0.298560 0.186755
vt 0.298560 0.186755
vt 0.298560 0.186755
vt 0.298560 0.186755
vt 0.298560 0.186755
vt 0.298560 0.186755
vt 0.298560 0.186755
vt 0.298560 0.186755
vt 0.298560 0.186755
vt 0.298560 0.186755
vt 0.298560 0.186755
vt 0.298560 0.186755
vt 0.298560 0.186755
vt 0.298560 0.186755
vt 0.298560 0.186755
vt 0.298560 0.186755
vt 0.298560 0.186755
vt 0.298560 0.186755
vt 0.298560 0.186755
vt 0.298560 0.186755
vt 0.298560 0.186755
vt 0.298560 0.186755
vt 0.298560 0.186755
vt 0.298560 0.186755
vt 0.298560 0.186755
vt 0.298560 0.186755
vt 0.298560 0.186755
vt 0.298560 0.186755
vt 0.298560 0.186755
vt 0.298560 0.186755
vt 0.298560 0.186755
vt 0.298560 0.186755
vt 0.298560 0.186755
vt 0.298560 0.186755
vt 0.298560 0.186755
vt 0.298560 0.186755
vt 0.298560 0.186755
vt 0.298560 0.186755
vt 0.298560 0.186755
vt 0.298560 0.186755
vt 0.298560 0.186755
vt 0.298560 0.186755
vt 0.298560 0.186755
vt 0.298560 0.186755
vt 0.298560 0.186755
vt 0.298560 0.186755
vt 0.298560 0.186755
vt 0.298560 0.186755
vt 0.298560 0.186755
vt 0.298560 0.186755
vt 0.298560 0.186755
vt 0.298560 0.186755
vt 0.298560 0.186755
vt 0.298560 0.186755
vt 0.298560 0.186755
vt 0.298560 0.186755
vt 0.298560 0.186755
vt 0.298560 0.186755
vt 0.298560 0.186755
vt 0.298560 0.186755
vt 0.298560 0.186755
vt 0.298560 0.186755
vt 0.298560 0.186755
vt 0.298560 0.186755
vt 0.298560 0.186755
vt 0.298560 0.186755
vt 0.298560 0.186755
vt 0.298560 0.186755
vt 0.298560 0.186755
vt 0.298560 0.186755
vt 0.298560 0.186755
vt 0.298560 0.186755
vt 0.298560 0.186755
vt 0.298560 0.186755
vt 0.298560 0.186755
vt 0.298560 0.186755
vt 0.298560 0.186755
vt 0.298560 0.186755
vt 0.298560 0.186755
vt 0.298560 0.186755
vt 0.298560 0.186755
vt 0.298560 0.186755
vt 0.298560 0.186755
vt 0.298560 0.186755
vt 0.298560 0.186755
vt 0.298560 0.186755
vt 0.298560 0.186755
vt 0.298560 0.186755
vt 0.298560 0.186755
vt 0.298560 0.186755
vt 0.298560 0.186755
vt 0.298560 0.186755
vt 0.298560 0.186755
vt 0.298560 0.186755
vt 0.298560 0.186755
vt 0.298560 0.186755
vt 0.298560 0.186755
vt 0.298560 0.186755
vt 0.298560 0.186755
vt 0.298560 0.186755
vt 0.298560 0.186755
vt 0.298560 0.186755
vt 0.298560 0.186755
vt 0.298560 0.186755
vt 0.298560 0.186755
vt 0.298560 0.186755
vt 0.298560 0.186755
vt 0.298560 0.186755
vn 0.382677 0.000000 -0.923882
vn 0.382677 0.000000 -0.923882
vn 0.382677 0.000000 -0.923882
vn 0.382677 0.000000 -0.923882
vn -0.382678 0.000000 -0.923882
vn -0.382678 0.000000 -0.923882
vn -0.382678 0.000000 -0.923882
vn -0.382678 0.000000 -0.923882
vn -0.923882 0.000000 -0.382679
vn -0.923882 0.000000 -0.382679
vn -0.923882 0.000000 -0.382679
vn -0.923882 0.000000 -0.382679
vn -0.923882 0.000000 0.382677
vn -0.923882 0.000000 0.382677
vn -0.923882 0.000000 0.382677
vn -0.923882 0.000000 0.382677
vn -0.382670 0.000000 0.923885
vn -0.382670 0.000000 0.923885
vn -0.382670 0.000000 0.923885
vn -0.382670 0.000000 0.923885
vn 0.382674 0.000000 0.923883
vn 0.382674 0.000000 0.923883
vn 0.382674 0.000000 0.923883
vn 0.382674 0.000000 0.923883
vn 0.923882 0.000000 0.382679
vn 0.923882 0.000000 0.382679
vn 0.923882 0.000000 0.382679
vn 0.923882 0.000000 0.382679
vn 0.923882 0.000000 -0.382678
vn 0.923882 0.000000 -0.382678
vn 0.923882 0.000000 -0.382678
vn 0.923882 0.000000 -0.382678
vn 0.000000 -1.000000 0.000000
vn 0.000000 -1.000000 0.000000
vn 0.000000 -1.000000 0.000000
vn 0.000000 -1.000000 0.000000
vn 0.000000 -1.000000 0.000000
vn 0.000000 -1.000000 0.000000
vn 0.000000 -1.000000 0.000000
vn 0.000000 -1.000000 0.000000
vn 0.000000 -1.000000 0.000000
vn 0.000000 -1.000000 0.000000
vn 0.000000 -1.000000 0.000000
vn 0.000000 -1.000000 0.000000
vn 0.000000 -1.000000 0.000000
vn 0.000000 -1.000000 0.000000
vn 0.000000 -1.000000 0.000000
vn 0.000000 -1.000000 0.000000
vn 0.000000 -1.000000 0.000000
vn 0.000000 -1.000000 0.000000
vn 0.000000 -1.000000 0.000000
vn 0.000000 -1.000000 0.000000
vn 0.000000 -1.000000 0.000000
vn 0.000000 -1.000000 0.000000
vn 0.000000 -1.000000 0.000000
vn 0.000000 -1.000000 0.000000
vn -0.184434 0.876201 0.445260
vn -0.184434 0.876201 0.445260
vn -0.184434 0.876201 0.445260
vn 0.184435 0.876201 0.445260
vn 0.184436 0.876201 0.445260
vn 0.184435 0.876201 0.445260
vn 0.445260 0.876200 0.184436
vn 0.445260 0.876200 0.184436
vn 0.445260 0.876200 0.184436
vn 0.445260 0.876201 -0.184435
vn 0.445260 0.876201 -0.184435
vn 0.445260 0.876201 -0.184435
vn 0.184432 0.876201 -0.445261
vn 0.184432 0.876201 -0.445260
vn 0.184432 0.876201 -0.445261
vn -0.184430 0.876201 -0.445261
vn -0.184430 0.876201 -0.445261
vn -0.184430 0.876201 -0.445261
vn -0.445260 0.876201 -0.184432
vn -0.445260 0.876201 -0.184432
vn -0.445260 0.876201 -0.184432
vn -0.445259 0.876201 0.184433
vn -0.445259 0.876201 0.184433
vn -0.445259 0.876201 0.184433
vn 0.110705 0.957241 -0.267270
vn 0.110705 0.957241 -0.267270
vn 0.110705 0.957242 -0.267270
vn 0.110705 0.957242 -0.267270
vn -0.110706 0.957242 -0.267269
vn -0.110706 0.957242 -0.267269
vn -0.110706 0.957242 -0.267269
vn -0.110706 0.957242 -0.267269
vn -0.267269 0.957242 -0.110706
vn -0.267269 0.957242 -0.110706
vn -0.267269 0.957242 -0.110706
vn -0.267269 0.957242 -0.110706
vn -0.267269 0.957242 0.110705
vn -0.267269 0.957242 0.110705
vn -0.267269 0.957242 0.110705
vn -0.267269 0.957242 0.110705
vn -0.110705 0.957241 0.267271
vn -0.110705 0.957241 0.267271
vn -0.110705 0.957241 0.267271
vn -0.110705 0.957241 0.267271
vn 0.110706 0.957241 0.267272
vn 0.110706 0.957241 0.267272
vn 0.110706 0.957241 0.267272
vn 0.110706 0.957241 0.267272
vn 0.267270 0.957241 0.110706
vn 0.267270 0.957241 0.110706
vn 0.267270 0.957241 0.110706
vn 0.267270 0.957241 0.110706
vn 0.267270 0.957241 -0.110706
vn 0.267270 0.957241 -0.110706
vn 0.267270 0.957241 -0.110705
vn 0.267270 0.957241 -0.110706
vn 0.338524 0.466336 -0.817272
vn 0.338524 0.466336 -0.817272
vn 0.338524 0.466336 -0.817272
vn 0.338524 0.466336 -0.817272
vn -0.338526 0.466335 -0.817271
vn -0.338526 0.466335 -0.817271
vn -0.338526 0.466335 -0.817271
vn -0.338526 0.466335 -0.817271
vn -0.817272 0.466334 -0.338525
vn -0.817272 0.466334 -0.338525
vn -0.817272 0.466334 -0.338525
vn -0.817272 0.466334 -0.338525
vn -0.817272 0.466334 0.338525
vn -0.817272 0.466334 0.338525
vn -0.817272 0.466334 0.338525
vn -0.817272 0.466334 0.338525
vn -0.338528 0.466336 0.817270
vn -0.338528 0.466336 0.817270
vn -0.338528 0.466336 0.817270
vn -0.338528 0.466336 0.817270
vn 0.338525 0.466337 0.817270
vn 0.338526 0.466337 0.817270
vn 0.338525 0.466337 0.817270
vn 0.338525 0.466337 0.817270
vn 0.817272 0.466337 0.338522
vn 0.817271 0.466337 0.338522
vn 0.817271 0.466337 0.338522
vn 0.817271 0.466337 0.338522
vn 0.817272 0.466337 -0.338522
vn 0.817272 0.466337 -0.338522
vn 0.817272 0.466337 -0.338522
vn 0.817272 0.466337 -0.338522
vn 0.382383 -0.039487 -0.923160
vn 0.382384 -0.039487 -0.923160
vn 0.382384 -0.039487 -0.923160
vn 0.382384 -0.039487 -0.923160
vn -0.382385 -0.039487 -0.923159
vn -0.382385 -0.039487 -0.923159
vn -0.382385 -0.039487 -0.923159
vn -0.382385 -0.039487 -0.923159
vn -0.923160 -0.039485 -0.382383
vn -0.923160 -0.039485 -0.382383
vn -0.923160 -0.039485 -0.382383
vn -0.923160 -0.039485 -0.382383
vn -0.923160 -0.039486 0.382382
vn -0.923160 -0.039486 0.382382
vn -0.923160 -0.039486 0.382382
vn -0.923160 -0.039486 0.382382
vn -0.382387 -0.039488 0.923158
vn -0.382387 -0.039488 0.923158
vn -0.382387 -0.039488 0.923158
vn -0.382387 -0.039488 0.923158
vn 0.382386 -0.039488 0.923159
vn 0.382386 -0.039488 0.923159
vn 0.382385 -0.039488 0.923159
vn 0.382386 -0.039488 0.923159
vn 0.923160 -0.039486 0.382383
vn 0.923160 -0.039486 0.382383
vn 0.923160 -0.039486 0.382383
vn 0.923160 -0.039486 0.382383
vn 0.923160 -0.039486 -0.382384
vn 0.923160 -0.039486 -0.382384
vn 0.923160 -0.039486 -0.382384
vn 0.923160 -0.039486 -0.382384
vn 0.190466 -0.867346 -0.459820
vn 0.190466 -0.867345 -0.459820
vn 0.190466 -0.867346 -0.459820
vn 0.190466 -0.867345 -0.459820
vn -0.190466 -0.867346 -0.459820
vn -0.190466 -0.867346 -0.459820
vn -0.190466 -0.867346 -0.459820
vn -0.190466 -0.867346 -0.459820
vn -0.459820 -0.867345 -0.190466
vn -0.459820 -0.867345 -0.190466
vn -0.459820 -0.867345 -0.190466
vn -0.459820 -0.867345 -0.190466
vn -0.459821 -0.867345 0.190466
vn -0.459821 -0.867345 0.190466
vn -0.459821 -0.867345 0.190466
vn -0.459821 -0.867345 0.190466
vn -0.190468 -0.867343 0.459824
vn -0.190468 -0.867343 0.459824
vn -0.190468 -0.867343 0.459824
vn -0.190468 -0.867343 0.459824
vn 0.190468 -0.867343 0.459824
vn 0.190468 -0.867343 0.459824
vn 0.190468 -0.867343 0.459824
vn 0.190468 -0.867343 0.459824
vn 0.459819 -0.867346 0.190467
vn 0.459819 -0.867346 0.190467
vn 0.459819 -0.867346 0.190467
vn 0.459819 -0.867346 0.190467
vn 0.459819 -0.867346 -0.190466
vn 0.459819 -0.867346 -0.190466
vn 0.459819 -0.867346 -0.190466
vn 0.459819 -0.867346 -0.190466
vn 0.324486 -0.530146 -0.783360
vn 0.324486 -0.530146 -0.783360
vn 0.324486 -0.530146 -0.783360
vn 0.324486 -0.530146 -0.783360
vn -0.324487 -0.530146 -0.783360
vn -0.324487 -0.530146 -0.783360
vn -0.324487 -0.530146 -0.783360
vn -0.324487 -0.530146 -0.783360
vn -0.783362 -0.530145 -0.324486
vn -0.783362 -0.530145 -0.324486
vn -0.783362 -0.530145 -0.324486
vn -0.783362 -0.530145 -0.324486
vn -0.783361 -0.530145 0.324487
vn -0.783361 -0.530145 0.324487
vn -0.783361 -0.530145 0.324487
vn -0.783361 -0.530145 0.324487
vn -0.324486 -0.530145 0.783362
vn -0.324486 -0.530145 0.783362
vn -0.324486 -0.530145 0.783362
vn -0.324486 -0.530145 0.783362
vn 0.324486 -0.530145 0.783362
vn 0.324486 -0.530145 0.783362
vn 0.324486 -0.530145 0.783362
vn 0.324486 -0.530145 0.783362
vn 0.783365 -0.530139 0.324486
vn 0.783365 -0.530139 0.324486
vn 0.783365 -0.530139 0.324486
vn 0.783365 -0.530139 0.324486
vn 0.783366 -0.530139 -0.324485
vn 0.783366 -0.530139 -0.324485
vn 0.783366 -0.530139 -0.324485
vn 0.783366 -0.530139 -0.324485
vn 0.381170 -0.088876 -0.920223
vn 0.381170 -0.088876 -0.920223
vn 0.381170 -0.088876 -0.920223
vn 0.381170 -0.088876 -0.920223
vn -0.381170 -0.088876 -0.920223
vn -0.381170 -0.088876 -0.920223
vn -0.381170 -0.088876 -0.920223
vn -0.381170 -0.088876 -0.920223
vn -0.920223 -0.088877 -0.381170
vn -0.920223 -0.088877 -0.381170
vn -0.920223 -0.088877 -0.381170
vn -0.920223 -0.088877 -0.381170
vn -0.920223 -0.088878 0.381171
vn -0.920223 -0.088878 0.381171
vn -0.920223 -0.088878 0.381170
vn -0.920223 -0.088878 0.381171
vn -0.381171 -0.088878 0.920222
vn -0.381171 -0.088878 0.920223
vn -0.381171 -0.088878 0.920223
vn -0.381171 -0.088878 0.920222
vn 0.381171 -0.088878 0.920222
vn 0.381171 -0.088878 0.920222
vn 0.381171 -0.088878 0.920222
vn 0.381171 -0.088878 0.920222
vn 0.920223 -0.088878 0.381169
vn 0.920223 -0.088878 0.381169
vn 0.920223 -0.088878 0.381169
vn 0.920223 -0.088878 0.381169
vn 0.920224 -0.088878 -0.381168
vn 0.920224 -0.088878 -0.381168
vn 0.920224 -0.088878 -0.381168
vn 0.920223 -0.088878 -0.381168
vn 0.210746 -0.834694 -0.508794
vn 0.210746 -0.834694 -0.508794
vn 0.210746 -0.834694 -0.508794
vn 0.210746 -0.834694 -0.508794
vn -0.210745 -0.834695 -0.508794
vn -0.210745 -0.834695 -0.508794
vn -0.210745 -0.834695 -0.508794
vn -0.210745 -0.834695 -0.508794
vn -0.508794 -0.834695 -0.210745
vn -0.508794 -0.834695 -0.210745
vn -0.508794 -0.834695 -0.210745
vn -0.508794 -0.834695 -0.210745
vn -0.508795 -0.834694 0.210745
vn -0.508795 -0.834694 0.210745
vn -0.508795 -0.834694 0.210745
vn -0.508795 -0.834694 0.210745
vn -0.210746 -0.834699 0.508786
vn -0.210746 -0.834699 0.508786
vn -0.210746 -0.834699 0.508786
vn -0.210746 -0.834699 0.508786
vn 0.210747 -0.834699 0.508786
vn 0.210747 -0.834699 0.508786
vn 0.210747 -0.834699 0.508786
vn 0.210747 -0.834699 0.508786
vn 0.508795 -0.834693 0.210749
vn 0.508795 -0.834693 0.210749
vn 0.508795 -0.834693 0.210749
vn 0.508795 -0.834693 0.210749
vn 0.508795 -0.834693 -0.210748
vn 0.508795 -0.834693 -0.210748
vn 0.508795 -0.834693 -0.210748
vn 0.508795 -0.834693 -0.210748
vn 0.382679 0.000000 -0.923881
vn 0.382679 0.000000 -0.923881
vn 0.382679 0.000000 -0.923881
vn 0.382679 0.000000 -0.923881
vn -0.382677 0.000000 -0.923882
vn -0.382677 0.000000 -0.923882
vn -0.382677 0.000000 -0.923882
vn -0.382677 0.000000 -0.923882
vn -0.923883 0.000000 -0.382674
vn -0.923883 0.000000 -0.382674
vn -0.923883 0.000000 -0.382674
vn -0.923883 0.000000 -0.382674
vn -0.923883 0.000000 0.382675
vn -0.923883 0.000000 0.382675
vn -0.923883 0.000000 0.382675
vn -0.923883 0.000000 0.382675
vn -0.382686 0.000000 0.923879
vn -0.382686 0.000000 0.923879
vn -0.382686 0.000000 0.923879
vn -0.382686 0.000000 0.923879
vn 0.382688 0.000000 0.923878
vn 0.382688 0.000000 0.923878
vn 0.382688 0.000000 0.923878
vn 0.382688 0.000000 0.923878
vn 0.923881 0.000000 0.382679
vn 0.923881 0.000000 0.382679
vn 0.923881 0.000000 0.382679
vn 0.923881 0.000000 0.382679
vn 0.923882 0.000000 -0.382678
vn 0.923882 0.000000 -0.382678
vn 0.923882 0.000000 -0.382678
vn 0.923882 0.000000 -0.382678
vn 0.000000 1.000000 -0.000001
vn 0.000000 1.000000 -0.000001
vn 0.000000 1.000000 -0.000001
vn 0.000000 1.000000 -0.000001
vn 0.000000 1.000000 0.000000
vn 0.000000 1.000000 0.000000
vn 0.000000 1.000000 0.000000
vn 0.000000 1.000000 0.000000
vn 0.000000 1.000000 0.000000
vn 0.000000 1.000000 0.000000
vn 0.000000 1.000000 0.000000
vn 0.000000 1.000000 0.000000
vn 0.000000 1.000000 -0.000000
vn 0.000000 1.000000 -0.000000
vn 0.000000 1.000000 -0.000000
vn 0.000000 1.000000 -0.000000
vn 0.000000 1.000000 0.000000
vn 0.000000 1.000000 0.000000
vn 0.000000 1.000000 0.000000
vn 0.000000 1.000000 0.000000
vn 0.000000 1.000000 0.000000
vn 0.000000 1.000000 0.000000
vn 0.000000 1.000000 0.000000
vn 0.000000 1.000000 0.000000
vn 0.000000 1.000000 0.000000
vn 0.000000 1.000000 0.000000
vn 0.000000 1.000000 0.000000
vn 0.000000 1.000000 0.000000
vn 0.000000 1.000000 -0.000000
vn 0.000000 1.000000 -0.000000
vn 0.000000 1.000000 -0.000000
vn 0.000000 1.000000 -0.000000
vn -0.379728 0.124075 0.916740
vn -0.379728 0.124075 0.916740
vn -0.379728 0.124075 0.916740
vn -0.379728 0.124075 0.916740
vn 0.379730 0.124075 0.916739
vn 0.379730 0.124075 0.916739
vn 0.379730 0.124075 0.916739
vn 0.379730 0.124075 0.916739
vn 0.916738 0.124076 0.379732
vn 0.916738 0.124076 0.379732
vn 0.916738 0.124076 0.379732
vn 0.916738 0.124076 0.379732
vn 0.916738 0.124075 -0.379732
vn 0.916738 0.124075 -0.379732
vn 0.916738 0.124075 -0.379732
vn 0.916738 0.124075 -0.379732
vn 0.379726 0.124073 -0.916741
vn 0.379726 0.124073 -0.916741
vn 0.379726 0.124073 -0.916741
vn 0.379726 0.124073 -0.916741
vn -0.379724 0.124073 -0.916742
vn -0.379724 0.124073 -0.916742
vn -0.379724 0.124073 -0.916742
vn -0.379724 0.124073 -0.916742
vn -0.916739 0.124075 -0.379729
vn -0.916739 0.124075 -0.379729
vn -0.916739 0.124075 -0.379729
vn -0.916739 0.124075 -0.379729
vn -0.916739 0.124076 0.379730
vn -0.916739 0.124076 0.379730
vn -0.916739 0.124076 0.379730
vn -0.916739 0.124076 0.379730
s off
f 1/9/1 2/10/2 10/19/3 9/18/4
f 2/10/5 3/11/6 11/20/7 10/19/8
f 3/11/9 4/12/10 12/21/11 11/20/12
f 4/12/13 5/13/14 13/22/15 12/21/16
f 5/13/17 6/14/18 14/23/19 13/22/20
f 6/14/21 7/15/22 15/24/23 14/23/24
f 7/15/25 8/16/26 16/25/27 15/24/28
f 8/16/29 1/17/30 9/26/31 16/25/32
f 2/2/33 1/1/34 17/35/35
f 3/3/36 2/2/37 17/35/38
f 4/4/39 3/3/40 17/35/41
f 5/5/42 4/4/43 17/35/44
f 6/6/45 5/5/46 17/35/47
f 7/7/48 6/6/49 17/35/50
f 8/8/51 7/7/52 17/35/53
f 1/1/54 8/8/55 17/35/56
f 90/109/57 91/110/58 92/36/59
f 91/110/60 93/111/61 92/36/62
f 93/111/63 94/112/64 92/36/65
f 94/112/66 95/113/67 92/36/68
f 95/113/69 96/114/70 92/36/71
f 96/114/72 97/115/73 92/36/74
f 97/115/75 98/116/76 92/36/77
f 98/116/78 90/109/79 92/36/80
f 9/33/81 10/32/82 19/38/83 18/37/84
f 10/32/85 11/31/86 20/39/87 19/38/88
f 11/31/89 12/30/90 21/40/91 20/39/92
f 12/30/93 13/29/94 22/41/95 21/40/96
f 13/29/97 14/28/98 23/42/99 22/41/100
f 14/28/101 15/27/102 24/43/103 23/42/104
f 15/27/105 16/34/106 25/44/107 24/43/108
f 16/34/109 9/33/110 18/37/111 25/44/112
f 18/37/113 19/38/114 27/46/115 26/45/116
f 19/38/117 20/39/118 28/47/119 27/46/120
f 20/39/121 21/40/122 29/48/123 28/47/124
f 21/40/125 22/41/126 30/49/127 29/48/128
f 22/41/129 23/42/130 31/50/131 30/49/132
f 23/42/133 24/43/134 32/51/135 31/50/136
f 24/43/137 25/44/138 33/52/139 32/51/140
f 25/44/141 18/37/142 26/45/143 33/52/144
f 26/45/145 27/46/146 35/54/147 34/53/148
f 27/46/149 28/47/150 36/55/151 35/54/152
f 28/47/153 29/48/154 37/56/155 36/55/156
f 29/48/157 30/49/158 38/57/159 37/56/160
f 30/49/161 31/50/162 39/58/163 38/57/164
f 31/50/165 32/51/166 40/59/167 39/58/168
f 32/51/169 33/52/170 41/60/171 40/59/172
f 33/52/173 26/45/174 34/53/175 41/60/176
f 34/53/177 35/54/178 43/62/179 42/61/180
f 35/54/181 36/55/182 44/63/183 43/62/184
f 36/55/185 37/56/186 45/64/187 44/63/188
f 37/56/189 38/57/190 46/65/191 45/64/192
f 38/57/193 39/58/194 47/66/195 46/65/196
f 39/58/197 40/59/198 48/67/199 47/66/200
f 40/59/201 41/60/202 49/68/203 48/67/204
f 41/60/205 34/53/206 42/61/207 49/68/208
f 42/61/209 43/62/210 51/70/211 50/69/212
f 43/62/213 44/63/214 52/71/215 51/70/216
f 44/63/217 45/64/218 53/72/219 52/71/220
f 45/64/221 46/65/222 54/73/223 53/72/224
f 46/65/225 47/66/226 55/74/227 54/73/228
f 47/66/229 48/67/230 56/75/231 55/74/232
f 48/67/233 49/68/234 57/76/235 56/75/236
f 49/68/237 42/61/238 50/69/239 57/76/240
f 50/69/241 51/70/242 59/78/243 58/77/244
f 51/70/245 52/71/246 60/79/247 59/78/248
f 52/71/249 53/72/250 61/80/251 60/79/252
f 53/72/253 54/73/254 62/81/255 61/80/256
f 54/73/257 55/74/258 63/82/259 62/81/260
f 55/74/261 56/75/262 64/83/263 63/82/264
f 56/75/265 57/76/266 65/84/267 64/83/268
f 57/76/269 50/69/270 58/77/271 65/84/272
f 58/77/273 59/78/274 67/86/275 66/85/276
f 59/78/277 60/79/278 68/87/279 67/86/280
f 60/79/281 61/80/282 69/88/283 68/87/284
f 61/80/285 62/81/286 70/89/287 69/88/288
f 62/81/289 63/82/290 71/90/291 70/89/292
f 63/82/293 64/83/294 72/91/295 71/90/296
f 64/83/297 65/84/298 73/92/299 72/91/300
f 65/84/301 58/77/302 66/85/303 73/92/304
f 66/85/305 67/86/306 75/94/307 74/93/308
f 67/86/309 68/87/310 76/95/311 75/94/312
f 68/87/313 69/88/314 77/96/315 76/95/316
f 69/88/317 70/89/318 78/97/319 77/96/320
f 70/89/321 71/90/322 79/98/323 78/97/324
f 71/90/325 72/91/326 80/99/327 79/98/328
f 72/91/329 73/92/330 81/100/331 80/99/332
f 73/92/333 66/85/334 74/93/335 81/100/336
f 74/93/337 75/94/338 83/102/339 82/101/340
f 75/94/341 76/95/342 84/103/343 83/102/344
f 76/95/345 77/96/346 85/104/347 84/103/348
f 77/96/349 78/97/350 86/105/351 85/104/352
f 78/97/353 79/98/354 87/106/355 86/105/356
f 79/98/357 80/99/358 88/107/359 87/106/360
f 80/99/361 81/100/362 89/108/363 88/107/364
f 81/100/365 74/93/366 82/101/367 89/108/368
f 82/101/369 83/102/370 91/110/371 90/109/372
f 83/102/373 84/103/374 93/111/375 91/110/376
f 84/103/377 85/104/378 94/112/379 93/111/380
f 85/104/381 86/105/382 95/113/383 94/112/384
f 86/105/385 87/106/386 96/114/387 95/113/388
f 87/106/389 88/107/390 97/115/391 96/114/392
f 88/107/393 89/108/394 98/116/395 97/115/396
f 89/108/397 82/101/398 90/109/399 98/116/400
