# This file uses centimeters as units for non-parametric coordinates.

v -0.055203 0.000000 0.055193
v 0.055203 0.000000 0.055193
v -0.059124 0.162782 0.059114
v 0.059124 0.162782 0.059114
v -0.059124 0.162782 -0.059134
v 0.059124 0.162782 -0.059134
v -0.055203 0.000000 -0.055214
v 0.055203 0.000000 -0.055214
v 0.000000 0.162782 0.083406
v 0.000000 0.000000 0.077874
v 0.000000 0.000000 -0.077896
v 0.000000 0.162782 -0.083428
v 0.077885 0.000000 -0.000011
v 0.000000 0.000000 0.000000
v -0.077885 0.000000 -0.000011
v -0.083417 0.162782 -0.000011
v 0.083417 0.162782 -0.000011
v 0.000000 0.102325 -0.103070
v -0.073120 0.102325 -0.073026
v -0.103164 0.102325 0.000095
v -0.073120 0.102325 0.073215
v 0.000000 0.102325 0.103258
v 0.073120 0.102325 0.073215
v 0.103164 0.102325 0.000095
v 0.073120 0.102325 -0.073026
v 0.000000 0.175112 -0.042539
v 0.042539 0.175112 0.000000
v 0.030151 0.175112 -0.030151
v -0.042539 0.175112 0.000000
v -0.030151 0.175112 -0.030151
v -0.030151 0.175112 0.030151
v 0.000000 0.175112 0.042539
v 0.030151 0.175112 0.030151
v 0.000000 0.193686 -0.019940
v 0.019940 0.193686 0.000000
v 0.014133 0.193686 -0.014133
v -0.019940 0.193686 0.000000
v -0.014133 0.193686 -0.014133
v -0.014133 0.193686 0.014133
v 0.000000 0.193686 0.019940
v 0.014133 0.193686 0.014133
v 0.000000 0.208936 -0.021358
v 0.021358 0.208936 0.000000
v 0.015138 0.208936 -0.015138
v -0.021358 0.208936 0.000000
v -0.015138 0.208936 -0.015138
v -0.015138 0.208936 0.015138
v 0.000000 0.208936 0.021358
v 0.015138 0.208936 0.015138
v 0.000000 0.208936 -0.028059
v 0.028059 0.208936 0.000000
v 0.019888 0.208936 -0.019888
v -0.028059 0.208936 0.000000
v -0.019888 0.208936 -0.019888
v -0.019888 0.208936 0.019888
v 0.000000 0.208936 0.028059
v 0.019888 0.208936 0.019888
v 0.000000 0.230393 -0.028059
v 0.028059 0.230393 0.000000
v 0.019888 0.230393 -0.019888
v -0.028059 0.230393 0.000000
v -0.019888 0.230393 -0.019888
v -0.019888 0.230393 0.019888
v 0.000000 0.230393 0.028059
v 0.019888 0.230393 0.019888
v 0.000000 0.230393 -0.018649
v 0.018649 0.230393 0.000000
v 0.013218 0.230393 -0.013218
v -0.018649 0.230393 0.000000
v -0.013218 0.230393 -0.013218
v -0.013218 0.230393 0.013218
v 0.000000 0.230393 0.018649
v 0.013218 0.230393 0.013218
v -0.000341 0.252820 -0.022158
v -0.000000 0.249167 -0.000000
v 0.022419 0.246979 -0.000862
v 0.015648 0.250203 -0.016316
v -0.022419 0.251356 0.000862
v -0.016132 0.253307 -0.015094
v -0.015648 0.248128 0.016316
v 0.000341 0.245514 0.022158
v 0.016132 0.245028 0.015094
vt 0.434455 0.283461
vt 0.434455 0.283461
vt 0.434455 0.283461
vt 0.434455 0.283461
vt 0.434455 0.283461
vt 0.434455 0.283461
vt 0.434455 0.283461
vt 0.434455 0.283461
vt 0.434455 0.283461
vt 0.434455 0.283461
vt 0.434455 0.283461
vt 0.434455 0.283461
vt 0.434455 0.283461
vt 0.434455 0.283461
vt 0.434455 0.283461
vt 0.434455 0.283461
vt 0.434455 0.283461
vt 0.434455 0.283461
vt 0.434455 0.283461
vt 0.434455 0.283461
vt 0.434455 0.283461
vt 0.434455 0.283461
vt 0.434455 0.283461
vt 0.434455 0.283461
vt 0.434455 0.283461
vt 0.434455 0.283461
vt 0.341180 0.214823
vt 0.434455 0.283461
vt 0.434455 0.283461
vt 0.434455 0.283461
vt 0.434455 0.283461
vt 0.434455 0.283461
vt 0.434455 0.283461
vt 0.434455 0.283461
vt 0.434455 0.283461
vt 0.434455 0.283461
vt 0.434455 0.283461
vt 0.434455 0.283461
vt 0.434455 0.283461
vt 0.434455 0.283461
vt 0.434455 0.283461
vt 0.434455 0.283461
vt 0.434455 0.283461
vt 0.434455 0.283461
vt 0.434455 0.283461
vt 0.434455 0.283461
vt 0.434455 0.283461
vt 0.434455 0.283461
vt 0.434455 0.283461
vt 0.434455 0.283461
vt 0.434455 0.283461
vt 0.434455 0.283461
vt 0.434455 0.283461
vt 0.434455 0.283461
vt 0.434455 0.283461
vt 0.434455 0.283461
vt 0.434455 0.283461
vt 0.434455 0.283461
vt 0.434455 0.283461
vt 0.434455 0.283461
vt 0.434455 0.283461
vt 0.434455 0.283461
vt 0.434455 0.283461
vt 0.434455 0.283461
vt 0.434455 0.283461
vt 0.434455 0.283461
vt 0.434455 0.283461
vt 0.434455 0.283461
vt 0.434455 0.283461
vt 0.434455 0.283461
vt 0.434455 0.283461
vt 0.434455 0.283461
vt 0.434455 0.283461
vt 0.434455 0.283461
vt 0.434455 0.283461
vt 0.434455 0.283461
vt 0.434455 0.283461
vt 0.434455 0.283461
vt 0.434455 0.283461
vt 0.434455 0.283461
vt 0.434455 0.283461
vt 0.434455 0.283461
vt 0.434455 0.283461
vt 0.434455 0.283461
vt 0.434455 0.283461
vt 0.434455 0.283461
vt 0.434455 0.283461
vt 0.341180 0.214823
vt 0.341180 0.214824
vt 0.341180 0.214823
vt 0.341180 0.214823
vt 0.341180 0.214823
vt 0.341180 0.214824
vt 0.341180 0.214824
vt 0.341180 0.214824
vt 0.341180 0.214824
vt 0.341180 0.214824
vt 0.341180 0.214824
vt 0.341180 0.214824
vt 0.341180 0.214824
vt 0.341180 0.214824
vt 0.341180 0.214824
vt 0.341180 0.214824
vn 0.363643 0.290620 0.885044
vn 0.363643 0.290620 0.885044
vn 0.363643 0.290620 0.885044
vn 0.363643 0.290620 0.885044
vn 0.102032 0.981792 0.160229
vn 0.102032 0.981792 0.160229
vn 0.102032 0.981792 0.160229
vn 0.102032 0.981792 0.160229
vn 0.363975 0.287799 -0.885830
vn 0.363975 0.287799 -0.885830
vn 0.363975 0.287799 -0.885830
vn 0.363975 0.287799 -0.885830
vn 0.000000 -1.000000 0.000000
vn 0.000000 -1.000000 0.000000
vn 0.000000 -1.000000 0.000000
vn 0.000000 -1.000000 0.000000
vn 0.885599 0.288634 -0.363874
vn 0.885599 0.288634 -0.363874
vn 0.885599 0.288634 -0.363874
vn 0.885599 0.288634 -0.363874
vn -0.885599 0.288634 -0.363874
vn -0.885599 0.288634 -0.363874
vn -0.885599 0.288634 -0.363874
vn -0.885599 0.288634 -0.363874
vn -0.363643 0.290620 0.885044
vn -0.363643 0.290620 0.885044
vn -0.363643 0.290620 0.885044
vn -0.363643 0.290620 0.885044
vn 0.000000 -1.000000 0.000000
vn 0.000000 -1.000000 0.000000
vn 0.000000 -1.000000 0.000000
vn 0.000000 -1.000000 0.000000
vn -0.363975 0.287799 -0.885830
vn -0.363975 0.287799 -0.885830
vn -0.363975 0.287799 -0.885830
vn -0.363975 0.287799 -0.885830
vn 0.102031 0.981785 0.160276
vn 0.102031 0.981785 0.160276
vn 0.102031 0.981785 0.160276
vn 0.102031 0.981785 0.160276
vn 0.000000 -1.000000 0.000000
vn 0.000000 -1.000000 0.000000
vn 0.000000 -1.000000 0.000000
vn 0.000000 -1.000000 0.000000
vn 0.000000 -1.000000 0.000000
vn 0.000000 -1.000000 0.000000
vn 0.000000 -1.000000 0.000000
vn 0.000000 -1.000000 0.000000
vn -0.885276 0.289792 0.363740
vn -0.885276 0.289792 0.363740
vn -0.885276 0.289792 0.363740
vn -0.885276 0.289792 0.363740
vn 0.102014 0.981777 0.160334
vn 0.102014 0.981777 0.160334
vn 0.102014 0.981777 0.160334
vn 0.102014 0.981777 0.160334
vn 0.101935 0.981796 0.160267
vn 0.101935 0.981796 0.160267
vn 0.101935 0.981796 0.160267
vn 0.101935 0.981796 0.160267
vn 0.885276 0.289792 0.363740
vn 0.885276 0.289792 0.363740
vn 0.885276 0.289792 0.363740
vn 0.885276 0.289792 0.363740
vn -0.370578 -0.221888 -0.901908
vn -0.370578 -0.221888 -0.901908
vn -0.370578 -0.221888 -0.901908
vn -0.370578 -0.221888 -0.901908
vn -0.901798 -0.222405 -0.370534
vn -0.901798 -0.222405 -0.370534
vn -0.901798 -0.222405 -0.370534
vn -0.901798 -0.222405 -0.370534
vn -0.901645 -0.223129 0.370472
vn -0.901645 -0.223129 0.370472
vn -0.901645 -0.223129 0.370472
vn -0.901645 -0.223129 0.370472
vn -0.370422 -0.223648 0.901537
vn -0.370422 -0.223648 0.901537
vn -0.370422 -0.223648 0.901537
vn -0.370422 -0.223648 0.901537
vn 0.370422 -0.223648 0.901537
vn 0.370422 -0.223648 0.901537
vn 0.370422 -0.223648 0.901537
vn 0.370422 -0.223648 0.901537
vn 0.901645 -0.223129 0.370472
vn 0.901645 -0.223129 0.370472
vn 0.901645 -0.223129 0.370472
vn 0.901645 -0.223129 0.370472
vn 0.901798 -0.222405 -0.370534
vn 0.901798 -0.222405 -0.370534
vn 0.901798 -0.222405 -0.370534
vn 0.901798 -0.222405 -0.370534
vn 0.370578 -0.221888 -0.901908
vn 0.370578 -0.221888 -0.901908
vn 0.370578 -0.221888 -0.901908
vn 0.370578 -0.221888 -0.901908
vn 0.286729 0.950740 -0.117811
vn 0.286729 0.950740 -0.117811
vn 0.286729 0.950740 -0.117811
vn 0.286729 0.950740 -0.117811
vn 0.117794 0.950756 -0.286686
vn 0.117794 0.950755 -0.286686
vn 0.117794 0.950755 -0.286686
vn 0.117794 0.950755 -0.286686
vn -0.117794 0.950755 -0.286686
vn -0.117794 0.950756 -0.286686
vn -0.117794 0.950755 -0.286686
vn -0.117794 0.950755 -0.286686
vn -0.286728 0.950741 -0.117809
vn -0.286728 0.950741 -0.117809
vn -0.286728 0.950741 -0.117809
vn -0.286728 0.950741 -0.117809
vn -0.117847 0.950708 0.286821
vn -0.117847 0.950708 0.286821
vn -0.117847 0.950708 0.286821
vn -0.117847 0.950708 0.286821
vn -0.286783 0.950722 0.117831
vn -0.286783 0.950722 0.117831
vn -0.286783 0.950722 0.117831
vn -0.286783 0.950722 0.117831
vn 0.117847 0.950708 0.286821
vn 0.117847 0.950708 0.286821
vn 0.117847 0.950708 0.286821
vn 0.117847 0.950708 0.286821
vn 0.286784 0.950721 0.117833
vn 0.286784 0.950721 0.117833
vn 0.286784 0.950721 0.117833
vn 0.286784 0.950721 0.117833
vn 0.614379 0.747539 -0.252437
vn 0.614379 0.747539 -0.252437
vn 0.614379 0.747539 -0.252437
vn 0.614379 0.747539 -0.252437
vn 0.252435 0.747535 -0.614385
vn 0.252435 0.747535 -0.614385
vn 0.252435 0.747535 -0.614385
vn 0.252435 0.747535 -0.614385
vn -0.252435 0.747535 -0.614385
vn -0.252435 0.747535 -0.614385
vn -0.252435 0.747535 -0.614385
vn -0.252435 0.747535 -0.614385
vn -0.614385 0.747535 -0.252433
vn -0.614385 0.747535 -0.252433
vn -0.614385 0.747535 -0.252433
vn -0.614385 0.747535 -0.252433
vn -0.252435 0.747535 0.614385
vn -0.252435 0.747535 0.614385
vn -0.252435 0.747535 0.614385
vn -0.252435 0.747535 0.614385
vn -0.614385 0.747535 0.252433
vn -0.614385 0.747535 0.252433
vn -0.614385 0.747535 0.252433
vn -0.614385 0.747535 0.252433
vn 0.252435 0.747535 0.614385
vn 0.252435 0.747535 0.614385
vn 0.252435 0.747535 0.614385
vn 0.252435 0.747535 0.614385
vn 0.614379 0.747539 0.252437
vn 0.614379 0.747539 0.252437
vn 0.614379 0.747539 0.252437
vn 0.614379 0.747539 0.252437
vn 0.921562 -0.085705 -0.378654
vn 0.921562 -0.085705 -0.378654
vn 0.921562 -0.085705 -0.378654
vn 0.921562 -0.085705 -0.378654
vn 0.378657 -0.085701 -0.921561
vn 0.378657 -0.085701 -0.921561
vn 0.378657 -0.085701 -0.921561
vn 0.378657 -0.085701 -0.921561
vn -0.378657 -0.085701 -0.921561
vn -0.378657 -0.085701 -0.921561
vn -0.378657 -0.085701 -0.921561
vn -0.378657 -0.085701 -0.921561
vn -0.921562 -0.085705 -0.378654
vn -0.921562 -0.085705 -0.378654
vn -0.921562 -0.085705 -0.378654
vn -0.921562 -0.085705 -0.378654
vn -0.378657 -0.085701 0.921561
vn -0.378657 -0.085701 0.921561
vn -0.378657 -0.085701 0.921561
vn -0.378657 -0.085701 0.921561
vn -0.921562 -0.085705 0.378654
vn -0.921562 -0.085705 0.378654
vn -0.921562 -0.085705 0.378654
vn -0.921562 -0.085705 0.378654
vn 0.378657 -0.085701 0.921561
vn 0.378657 -0.085701 0.921561
vn 0.378657 -0.085701 0.921561
vn 0.378657 -0.085701 0.921561
vn 0.921562 -0.085705 0.378654
vn 0.921562 -0.085705 0.378654
vn 0.921562 -0.085705 0.378654
vn 0.921562 -0.085705 0.378654
vn 0.000000 -1.000000 0.000000
vn 0.000000 -1.000000 0.000000
vn 0.000000 -1.000000 0.000000
vn 0.000000 -1.000000 0.000000
vn 0.000000 -1.000000 0.000001
vn 0.000000 -1.000000 0.000001
vn 0.000000 -1.000000 0.000001
vn 0.000000 -1.000000 0.000001
vn 0.000000 -1.000000 0.000000
vn 0.000000 -1.000000 0.000000
vn 0.000000 -1.000000 0.000000
vn 0.000000 -1.000000 0.000000
vn 0.000000 -1.000000 -0.000001
vn 0.000000 -1.000000 -0.000001
vn 0.000000 -1.000000 -0.000001
vn 0.000000 -1.000000 -0.000001
vn 0.000000 -1.000000 -0.000001
vn 0.000000 -1.000000 -0.000001
vn 0.000000 -1.000000 -0.000001
vn 0.000000 -1.000000 -0.000001
vn 0.000000 -1.000000 0.000000
vn 0.000000 -1.000000 0.000000
vn 0.000000 -1.000000 0.000000
vn 0.000000 -1.000000 0.000000
vn 0.000000 -1.000000 0.000000
vn 0.000000 -1.000000 0.000000
vn 0.000000 -1.000000 0.000000
vn 0.000000 -1.000000 0.000000
vn 0.000000 -1.000000 0.000001
vn 0.000000 -1.000000 0.000001
vn 0.000000 -1.000000 0.000001
vn 0.000000 -1.000000 0.000001
vn 0.924970 0.000000 -0.380041
vn 0.924970 0.000000 -0.380041
vn 0.924970 0.000000 -0.380041
vn 0.924970 0.000000 -0.380041
vn 0.380038 0.000000 -0.924971
vn 0.380038 0.000000 -0.924971
vn 0.380038 0.000000 -0.924971
vn 0.380038 0.000000 -0.924971
vn -0.380038 0.000000 -0.924971
vn -0.380038 0.000000 -0.924971
vn -0.380038 0.000000 -0.924971
vn -0.380038 0.000000 -0.924971
vn -0.924970 0.000000 -0.380041
vn -0.924970 0.000000 -0.380041
vn -0.924970 0.000000 -0.380041
vn -0.924970 0.000000 -0.380041
vn -0.380047 0.000000 0.924967
vn -0.380047 0.000000 0.924967
vn -0.380047 0.000000 0.924967
vn -0.380047 0.000000 0.924967
vn -0.924968 0.000000 0.380045
vn -0.924968 0.000000 0.380045
vn -0.924968 0.000000 0.380045
vn -0.924968 0.000000 0.380045
vn 0.380047 0.000000 0.924967
vn 0.380047 0.000000 0.924967
vn 0.380047 0.000000 0.924967
vn 0.380047 0.000000 0.924967
vn 0.924968 0.000000 0.380045
vn 0.924968 0.000000 0.380045
vn 0.924968 0.000000 0.380045
vn 0.924968 0.000000 0.380045
vn 0.000000 1.000000 0.000001
vn 0.000000 1.000000 0.000001
vn 0.000000 1.000000 0.000001
vn 0.000000 1.000000 0.000001
vn 0.000000 1.000000 0.000000
vn 0.000000 1.000000 0.000000
vn 0.000000 1.000000 0.000000
vn 0.000000 1.000000 0.000000
vn 0.000000 1.000000 0.000000
vn 0.000000 1.000000 0.000000
vn 0.000000 1.000000 0.000000
vn 0.000000 1.000000 0.000000
vn 0.000000 1.000000 0.000001
vn 0.000000 1.000000 0.000001
vn 0.000000 1.000000 0.000001
vn 0.000000 1.000000 0.000001
vn 0.000000 1.000000 0.000000
vn 0.000000 1.000000 0.000000
vn 0.000000 1.000000 0.000000
vn 0.000000 1.000000 0.000000
vn 0.000000 1.000000 -0.000001
vn 0.000000 1.000000 -0.000001
vn 0.000000 1.000000 -0.000001
vn 0.000000 1.000000 -0.000001
vn 0.000000 1.000000 0.000000
vn 0.000000 1.000000 0.000000
vn 0.000000 1.000000 0.000000
vn 0.000000 1.000000 0.000000
vn 0.000000 1.000000 -0.000001
vn 0.000000 1.000000 -0.000001
vn 0.000000 1.000000 -0.000001
vn 0.000000 1.000000 -0.000001
vn 0.894141 -0.196116 -0.402555
vn 0.894141 -0.196116 -0.402555
vn 0.894141 -0.196116 -0.402555
vn 0.894141 -0.196116 -0.402555
vn 0.342698 -0.161723 -0.925421
vn 0.342698 -0.161723 -0.925421
vn 0.342698 -0.161723 -0.925421
vn 0.342698 -0.161723 -0.925421
vn -0.393825 -0.136254 -0.909030
vn -0.393825 -0.136254 -0.909031
vn -0.393825 -0.136254 -0.909030
vn -0.393825 -0.136255 -0.909031
vn -0.914263 -0.147991 -0.377122
vn -0.914263 -0.147991 -0.377122
vn -0.914263 -0.147991 -0.377122
vn -0.914263 -0.147991 -0.377122
vn -0.368353 -0.205746 0.906633
vn -0.368353 -0.205746 0.906633
vn -0.368353 -0.205746 0.906633
vn -0.368353 -0.205746 0.906633
vn -0.911776 -0.183670 0.367329
vn -0.911776 -0.183670 0.367329
vn -0.911776 -0.183670 0.367329
vn -0.911776 -0.183670 0.367329
vn 0.384288 -0.204969 0.900172
vn 0.384288 -0.204969 0.900172
vn 0.384288 -0.204969 0.900172
vn 0.384288 -0.204969 0.900172
vn 0.912583 -0.206832 0.352721
vn 0.912583 -0.206832 0.352721
vn 0.912583 -0.206832 0.352721
vn 0.912583 -0.206832 0.352721
s off
f 9/15/1 22/35/2 23/36/3 4/4/4
f 74/27/5 75/88/6 76/89/7 77/90/8
f 25/38/9 18/30/10 12/19/11 6/6/12
f 13/20/13 14/22/14 11/18/15 8/8/16
f 17/29/17 24/37/18 25/39/19 6/12/20
f 19/31/21 20/33/22 16/25/23 5/14/24
f 21/34/25 22/35/26 9/15/27 3/3/28
f 7/7/29 11/18/30 14/22/31 15/24/32
f 5/5/33 12/19/34 18/30/35 19/32/36
f 78/91/37 75/88/38 74/27/39 79/92/40
f 10/17/41 14/22/42 13/20/43 2/10/44
f 15/24/45 14/22/46 10/17/47 1/9/48
f 16/25/49 20/33/50 21/34/51 3/3/52
f 80/93/53 81/94/54 75/88/55 78/91/56
f 76/89/57 75/88/58 81/94/59 82/95/60
f 23/36/61 24/37/62 17/29/63 4/4/64
f 19/32/65 18/30/66 11/18/67 7/7/68
f 7/13/69 15/23/70 20/33/71 19/31/72
f 21/34/73 20/33/74 15/23/75 1/1/76
f 1/1/77 10/16/78 22/35/79 21/34/80
f 23/36/81 22/35/82 10/16/83 2/2/84
f 2/2/85 13/21/86 24/37/87 23/36/88
f 25/39/89 24/37/90 13/21/91 8/11/92
f 11/18/93 18/30/94 25/38/95 8/8/96
f 17/28/97 6/6/98 28/41/99 27/40/100
f 6/6/101 12/19/102 26/42/103 28/41/104
f 12/19/105 5/5/106 30/43/107 26/42/108
f 5/5/109 16/26/110 29/44/111 30/43/112
f 3/3/113 9/15/114 32/46/115 31/45/116
f 16/26/117 3/3/118 31/45/119 29/44/120
f 9/15/121 4/4/122 33/47/123 32/46/124
f 4/4/125 17/28/126 27/40/127 33/47/128
f 27/40/129 28/41/130 36/49/131 35/48/132
f 28/41/133 26/42/134 34/50/135 36/49/136
f 26/42/137 30/43/138 38/51/139 34/50/140
f 30/43/141 29/44/142 37/52/143 38/51/144
f 31/45/145 32/46/146 40/54/147 39/53/148
f 29/44/149 31/45/150 39/53/151 37/52/152
f 32/46/153 33/47/154 41/55/155 40/54/156
f 33/47/157 27/40/158 35/48/159 41/55/160
f 35/48/161 36/49/162 44/57/163 43/56/164
f 36/49/165 34/50/166 42/58/167 44/57/168
f 34/50/169 38/51/170 46/59/171 42/58/172
f 38/51/173 37/52/174 45/60/175 46/59/176
f 39/53/177 40/54/178 48/62/179 47/61/180
f 37/52/181 39/53/182 47/61/183 45/60/184
f 40/54/185 41/55/186 49/63/187 48/62/188
f 41/55/189 35/48/190 43/56/191 49/63/192
f 43/56/193 44/57/194 52/65/195 51/64/196
f 44/57/197 42/58/198 50/66/199 52/65/200
f 42/58/201 46/59/202 54/67/203 50/66/204
f 46/59/205 45/60/206 53/68/207 54/67/208
f 47/61/209 48/62/210 56/70/211 55/69/212
f 45/60/213 47/61/214 55/69/215 53/68/216
f 48/62/217 49/63/218 57/71/219 56/70/220
f 49/63/221 43/56/222 51/64/223 57/71/224
f 51/64/225 52/65/226 60/73/227 59/72/228
f 52/65/229 50/66/230 58/74/231 60/73/232
f 50/66/233 54/67/234 62/75/235 58/74/236
f 54/67/237 53/68/238 61/76/239 62/75/240
f 55/69/241 56/70/242 64/78/243 63/77/244
f 53/68/245 55/69/246 63/77/247 61/76/248
f 56/70/249 57/71/250 65/79/251 64/78/252
f 57/71/253 51/64/254 59/72/255 65/79/256
f 59/72/257 60/73/258 68/81/259 67/80/260
f 60/73/261 58/74/262 66/82/263 68/81/264
f 58/74/265 62/75/266 70/83/267 66/82/268
f 62/75/269 61/76/270 69/84/271 70/83/272
f 63/77/273 64/78/274 72/86/275 71/85/276
f 61/76/277 63/77/278 71/85/279 69/84/280
f 64/78/281 65/79/282 73/87/283 72/86/284
f 65/79/285 59/72/286 67/80/287 73/87/288
f 67/96/289 68/97/290 77/90/291 76/89/292
f 68/97/293 66/98/294 74/27/295 77/90/296
f 66/98/297 70/99/298 79/92/299 74/27/300
f 70/99/301 69/100/302 78/91/303 79/92/304
f 71/101/305 72/102/306 81/94/307 80/93/308
f 69/100/309 71/101/310 80/93/311 78/91/312
f 72/102/313 73/103/314 82/95/315 81/94/316
f 73/103/317 67/96/318 76/89/319 82/95/320
