# This file uses centimeters as units for non-parametric coordinates.

v 0.077499 0.000000 -0.011812
v 0.090578 0.000000 -0.052194
v 0.062146 0.000000 -0.083710
v 0.020637 0.000000 -0.074845
v 0.007558 0.000000 -0.034464
v 0.035991 0.000000 -0.002947
v 0.077499 0.013603 -0.011812
v 0.090578 0.013603 -0.052194
v 0.062146 0.013603 -0.083710
v 0.020637 0.013603 -0.074845
v 0.007558 0.013603 -0.034464
v 0.035991 0.013603 -0.002947
v -0.035853 0.000000 -0.065627
v 0.006319 0.000000 -0.060799
v 0.031587 0.000000 -0.094906
v 0.014681 0.000000 -0.133841
v -0.027491 0.000000 -0.138669
v -0.052757 0.000000 -0.104562
v -0.035853 0.013603 -0.065627
v 0.006319 0.013603 -0.060799
v 0.031587 0.013603 -0.094906
v 0.014681 0.013603 -0.133841
v -0.027491 0.013603 -0.138669
v -0.052757 0.013603 -0.104562
v -0.031329 0.000000 0.018938
v -0.006197 0.000000 -0.015269
v -0.023257 0.000000 -0.054136
v -0.065446 0.000000 -0.058797
v -0.090578 0.000000 -0.024589
v -0.073518 0.000000 0.014278
v -0.031329 0.013603 0.018938
v -0.006197 0.013603 -0.015269
v -0.023257 0.013603 -0.054136
v -0.065446 0.013603 -0.058797
v -0.090578 0.013603 -0.024589
v -0.073518 0.013603 0.014278
v -0.050215 0.000000 0.138312
v -0.007771 0.000000 0.138669
v 0.013762 0.000000 0.102090
v -0.007151 0.000000 0.065153
v -0.049596 0.000000 0.064795
v -0.071127 0.000000 0.101376
v -0.050215 0.013603 0.138312
v -0.007771 0.013603 0.138669
v 0.013762 0.013603 0.102090
v -0.007151 0.013603 0.065153
v -0.049596 0.013603 0.064795
v -0.071127 0.013603 0.101376
v 0.035706 0.013603 -0.030812
v 0.047105 0.013603 -0.071700
v 0.017394 0.013603 -0.102015
v -0.023713 0.013603 -0.091442
v -0.035111 0.013603 -0.050555
v -0.005401 0.013603 -0.020240
v 0.035706 0.027205 -0.030812
v 0.047105 0.027205 -0.071700
v 0.017394 0.027205 -0.102015
v -0.023713 0.027205 -0.091442
v -0.035111 0.027205 -0.050555
v -0.005401 0.027205 -0.020240
vt 0.133253 0.352527
vt 0.133253 0.352527
vt 0.133253 0.352527
vt 0.133253 0.352527
vt 0.133253 0.352527
vt 0.133253 0.352527
vt 0.133253 0.352527
vt 0.133253 0.352527
vt 0.133253 0.352527
vt 0.133253 0.352527
vt 0.133253 0.352527
vt 0.133253 0.352527
vt 0.133253 0.352527
vt 0.133253 0.352527
vt 0.133253 0.352527
vt 0.133253 0.352527
vt 0.133253 0.352527
vt 0.133253 0.352527
vt 0.133253 0.352527
vt 0.133253 0.352527
vt 0.133253 0.352527
vt 0.133253 0.352527
vt 0.133253 0.352527
vt 0.133253 0.352527
vt 0.133253 0.352527
vt 0.133253 0.352527
vt 0.133253 0.352527
vt 0.133253 0.352527
vt 0.133253 0.352527
vt 0.133253 0.352527
vt 0.133253 0.352527
vt 0.133253 0.352527
vt 0.133253 0.352527
vt 0.133253 0.352527
vt 0.133253 0.352527
vt 0.133253 0.352527
vt 0.133253 0.352527
vt 0.133253 0.352527
vt 0.133253 0.352527
vt 0.133253 0.352527
vt 0.133253 0.352527
vt 0.133253 0.352527
vt 0.133253 0.352527
vt 0.133253 0.352527
vt 0.133253 0.352527
vt 0.133253 0.352527
vt 0.133253 0.352527
vt 0.133253 0.352527
vt 0.133253 0.352527
vt 0.133253 0.352527
vt 0.133253 0.352527
vt 0.133253 0.352527
vt 0.133253 0.352527
vt 0.133253 0.352527
vt 0.133253 0.352527
vt 0.133253 0.352527
vt 0.133253 0.352527
vt 0.133253 0.352527
vt 0.133253 0.352527
vt 0.133253 0.352527
vt 0.133253 0.352527
vt 0.133253 0.352527
vt 0.133253 0.352527
vt 0.133253 0.352527
vt 0.133253 0.352527
vt 0.133253 0.352527
vt 0.133253 0.352527
vt 0.133253 0.352527
vt 0.133253 0.352527
vt 0.133253 0.352527
vt 0.133253 0.352527
vt 0.133253 0.352527
vt 0.133253 0.352527
vt 0.133253 0.352527
vt 0.133253 0.352527
vt 0.133253 0.352527
vt 0.133253 0.352527
vt 0.133253 0.352527
vt 0.133253 0.352527
vt 0.133253 0.352527
vt 0.133253 0.352527
vt 0.133253 0.352527
vt 0.133253 0.352527
vt 0.133253 0.352527
vt 0.133253 0.352527
vt 0.133253 0.352527
vt 0.133253 0.352527
vt 0.133253 0.352527
vt 0.133253 0.352527
vt 0.133253 0.352527
vt 0.133253 0.352527
vt 0.133253 0.352527
vt 0.133253 0.352527
vt 0.133253 0.352527
vt 0.133253 0.352527
vt 0.133253 0.352527
vt 0.133253 0.352527
vt 0.133253 0.352527
vt 0.133253 0.352527
vt 0.133253 0.352527
vn 0.951345 0.000000 0.308127
vn 0.951345 0.000000 0.308127
vn 0.951345 0.000000 0.308127
vn 0.951345 0.000000 0.308127
vn 0.742496 0.000000 -0.669851
vn 0.742496 0.000000 -0.669851
vn 0.742496 0.000000 -0.669851
vn 0.742496 0.000000 -0.669851
vn -0.208862 0.000000 -0.977945
vn -0.208862 0.000000 -0.977945
vn -0.208862 0.000000 -0.977945
vn -0.208862 0.000000 -0.977945
vn -0.951346 0.000000 -0.308124
vn -0.951346 0.000000 -0.308124
vn -0.951346 0.000000 -0.308124
vn -0.951346 0.000000 -0.308124
vn -0.742496 0.000000 0.669851
vn -0.742496 0.000000 0.669851
vn -0.742496 0.000000 0.669851
vn -0.742496 0.000000 0.669851
vn 0.208862 0.000000 0.977945
vn 0.208862 0.000000 0.977945
vn 0.208862 0.000000 0.977945
vn 0.208862 0.000000 0.977945
vn 0.000000 1.000000 0.000000
vn 0.000000 1.000000 0.000000
vn 0.000000 1.000000 0.000000
vn 0.000000 1.000000 0.000000
vn 0.000000 1.000000 0.000000
vn 0.000000 1.000000 0.000000
vn -0.113752 0.000000 0.993509
vn -0.113752 0.000000 0.993509
vn -0.113752 0.000000 0.993509
vn -0.113752 0.000000 0.993509
vn 0.803523 0.000000 0.595274
vn 0.803523 0.000000 0.595274
vn 0.803523 0.000000 0.595274
vn 0.803523 0.000000 0.595274
vn 0.917261 0.000000 -0.398287
vn 0.917261 0.000000 -0.398287
vn 0.917261 0.000000 -0.398287
vn 0.917261 0.000000 -0.398287
vn 0.113753 0.000000 -0.993509
vn 0.113753 0.000000 -0.993509
vn 0.113753 0.000000 -0.993509
vn 0.113753 0.000000 -0.993509
vn -0.803542 0.000000 -0.595248
vn -0.803542 0.000000 -0.595248
vn -0.803542 0.000000 -0.595248
vn -0.803542 0.000000 -0.595248
vn -0.917281 0.000000 0.398241
vn -0.917281 0.000000 0.398241
vn -0.917281 0.000000 0.398241
vn -0.917281 0.000000 0.398241
vn 0.000000 1.000000 0.000000
vn 0.000000 1.000000 0.000000
vn 0.000000 1.000000 0.000000
vn 0.000000 1.000000 0.000000
vn 0.000000 1.000000 0.000000
vn 0.000000 1.000000 0.000000
vn 0.805884 0.000000 0.592073
vn 0.805884 0.000000 0.592073
vn 0.805884 0.000000 0.592073
vn 0.805884 0.000000 0.592073
vn 0.915677 0.000000 -0.401916
vn 0.915677 0.000000 -0.401916
vn 0.915677 0.000000 -0.401916
vn 0.915677 0.000000 -0.401916
vn 0.109803 0.000000 -0.993953
vn 0.109803 0.000000 -0.993953
vn 0.109803 0.000000 -0.993953
vn 0.109803 0.000000 -0.993953
vn -0.805889 0.000000 -0.592066
vn -0.805889 0.000000 -0.592066
vn -0.805889 0.000000 -0.592066
vn -0.805889 0.000000 -0.592066
vn -0.915677 0.000000 0.401916
vn -0.915677 0.000000 0.401916
vn -0.915677 0.000000 0.401916
vn -0.915677 0.000000 0.401916
vn -0.109780 0.000000 0.993956
vn -0.109780 0.000000 0.993956
vn -0.109780 0.000000 0.993956
vn -0.109780 0.000000 0.993956
vn 0.000000 1.000000 0.000000
vn 0.000000 1.000000 0.000000
vn 0.000000 1.000000 0.000000
vn 0.000000 1.000000 0.000000
vn 0.000000 1.000000 0.000000
vn 0.000000 1.000000 0.000000
vn -0.008414 0.000000 0.999965
vn -0.008414 0.000000 0.999965
vn -0.008414 0.000000 0.999965
vn -0.008414 0.000000 0.999965
vn 0.861774 0.000000 0.507293
vn 0.861774 0.000000 0.507293
vn 0.861774 0.000000 0.507293
vn 0.861774 0.000000 0.507293
vn 0.870204 0.000000 -0.492692
vn 0.870204 0.000000 -0.492692
vn 0.870204 0.000000 -0.492692
vn 0.870204 0.000000 -0.492692
vn 0.008414 0.000000 -0.999965
vn 0.008414 0.000000 -0.999965
vn 0.008414 0.000000 -0.999965
vn 0.008414 0.000000 -0.999965
vn -0.861796 0.000000 -0.507255
vn -0.861796 0.000000 -0.507255
vn -0.861796 0.000000 -0.507255
vn -0.861796 0.000000 -0.507255
vn -0.870211 0.000000 0.492680
vn -0.870211 0.000000 0.492680
vn -0.870211 0.000000 0.492680
vn -0.870211 0.000000 0.492680
vn 0.000000 1.000000 0.000000
vn 0.000000 1.000000 0.000000
vn 0.000000 1.000000 0.000000
vn 0.000000 1.000000 0.000000
vn 0.000000 1.000000 0.000000
vn 0.000000 1.000000 0.000000
vn 0.963271 0.000000 0.268533
vn 0.963271 0.000000 0.268533
vn 0.963271 0.000000 0.268533
vn 0.963271 0.000000 0.268533
vn 0.714188 0.000000 -0.699954
vn 0.714188 0.000000 -0.699954
vn 0.714188 0.000000 -0.699954
vn 0.714188 0.000000 -0.699954
vn -0.249088 0.000000 -0.968481
vn -0.249088 0.000000 -0.968481
vn -0.249088 0.000000 -0.968481
vn -0.249088 0.000000 -0.968481
vn -0.963268 0.000000 -0.268542
vn -0.963268 0.000000 -0.268542
vn -0.963268 0.000000 -0.268542
vn -0.963268 0.000000 -0.268542
vn -0.714196 0.000000 0.699946
vn -0.714196 0.000000 0.699946
vn -0.714196 0.000000 0.699946
vn -0.714196 0.000000 0.699946
vn 0.249087 0.000000 0.968481
vn 0.249087 0.000000 0.968481
vn 0.249087 0.000000 0.968481
vn 0.249087 0.000000 0.968481
vn 0.000000 1.000000 0.000000
vn 0.000000 1.000000 0.000000
vn 0.000000 1.000000 0.000000
vn 0.000000 1.000000 0.000000
vn 0.000000 1.000000 0.000000
vn 0.000000 1.000000 0.000000
s off
f 1/1/1 2/2/2 8/9/3 7/8/4
f 2/2/5 3/3/6 9/10/7 8/9/8
f 3/3/9 4/4/10 10/11/11 9/10/12
f 4/4/13 5/5/14 11/12/15 10/11/16
f 5/5/17 6/6/18 12/13/19 11/12/20
f 6/6/21 1/7/22 7/14/23 12/13/24
f 10/16/25 11/15/26 12/20/27 7/19/28 8/18/29 9/17/30
f 13/21/31 14/22/32 20/23/33 19/24/34
f 14/22/35 15/25/36 21/26/37 20/23/38
f 15/25/39 16/27/40 22/28/41 21/26/42
f 16/27/43 17/29/44 23/30/45 22/28/46
f 17/29/47 18/31/48 24/32/49 23/30/50
f 18/31/51 13/33/52 19/34/53 24/32/54
f 22/35/55 23/36/56 24/37/57 19/38/58 20/39/59 21/40/60
f 25/41/61 26/42/62 32/43/63 31/44/64
f 26/42/65 27/45/66 33/46/67 32/43/68
f 27/45/69 28/47/70 34/48/71 33/46/72
f 28/47/73 29/49/74 35/50/75 34/48/76
f 29/49/77 30/51/78 36/52/79 35/50/80
f 30/51/81 25/53/82 31/54/83 36/52/84
f 34/55/85 35/56/86 36/57/87 31/58/88 32/59/89 33/60/90
f 37/61/91 38/62/92 44/63/93 43/64/94
f 38/62/95 39/65/96 45/66/97 44/63/98
f 39/65/99 40/67/100 46/68/101 45/66/102
f 40/67/103 41/69/104 47/70/105 46/68/106
f 41/69/107 42/71/108 48/72/109 47/70/110
f 42/71/111 37/73/112 43/74/113 48/72/114
f 46/75/115 47/76/116 48/77/117 43/78/118 44/79/119 45/80/120
f 49/81/121 50/82/122 56/83/123 55/84/124
f 50/82/125 51/85/126 57/86/127 56/83/128
f 51/85/129 52/87/130 58/88/131 57/86/132
f 52/87/133 53/89/134 59/90/135 58/88/136
f 53/89/137 54/91/138 60/92/139 59/90/140
f 54/91/141 49/93/142 55/94/143 60/92/144
f 58/95/145 59/96/146 60/97/147 55/98/148 56/99/149 57/100/150
