# This file uses centimeters as units for non-parametric coordinates.

v 0.158183 0.000000 -0.091327
v 0.091327 0.000000 -0.158183
v 0.000000 0.000000 -0.182654
v -0.091327 0.000000 -0.158183
v -0.158183 0.000000 -0.091327
v -0.182654 0.000000 0.000000
v -0.158183 0.000000 0.091327
v -0.091327 0.000000 0.158183
v 0.000000 0.000000 0.182654
v 0.091327 0.000000 0.158183
v 0.158183 0.000000 0.091327
v 0.182654 0.000000 0.000000
v 0.138416 0.023000 -0.079914
v 0.079915 0.023000 -0.138416
v 0.000000 0.023000 -0.159829
v -0.079915 0.023000 -0.138416
v -0.138416 0.023000 -0.079914
v -0.159829 0.023000 0.000000
v -0.138416 0.023000 0.079915
v -0.079915 0.023000 0.138416
v 0.000000 0.023000 0.159829
v 0.079915 0.023000 0.138416
v 0.138416 0.023000 0.079915
v 0.159829 0.023000 0.000000
v 0.000000 0.000000 0.000000
v 0.000000 0.023000 0.000000
v 0.133235 0.044254 -0.230770
v 0.230770 0.044254 -0.133235
v 0.000000 0.044254 -0.266469
v -0.133235 0.044254 -0.230770
v -0.230770 0.044254 -0.133235
v -0.266469 0.044254 -0.000000
v -0.230770 0.044254 0.133235
v -0.133235 0.044254 0.230770
v 0.000000 0.044254 0.266471
v 0.133235 0.044254 0.230770
v 0.230770 0.044254 0.133235
v 0.266471 0.044254 0.000000
v 0.226444 0.053517 -0.130737
v 0.261474 0.053516 0.000000
v 0.226444 0.053516 0.130737
v 0.130737 0.053517 0.226444
v 0.000000 0.053516 0.261474
v -0.130737 0.053517 0.226444
v -0.226444 0.053517 0.130737
v -0.261474 0.053516 -0.000000
v -0.226444 0.053516 -0.130737
v -0.130737 0.053517 -0.226444
v 0.000000 0.053516 -0.261474
v 0.130737 0.053517 -0.226444
v 0.095255 0.042827 -0.164985
v 0.164985 0.042827 -0.095255
v 0.190509 0.042827 0.000000
v 0.164985 0.042827 0.095255
v 0.095255 0.042827 0.164985
v 0.000000 0.042827 0.190509
v -0.095255 0.042827 0.164985
v -0.164985 0.042827 0.095255
v -0.190509 0.042827 -0.000000
v -0.164985 0.042827 -0.095255
v -0.095255 0.042827 -0.164985
v 0.000000 0.042827 -0.190509
v -0.097960 0.024218 -0.169672
v -0.169672 0.024218 -0.097960
v -0.195921 0.024218 -0.000000
v -0.169672 0.024218 0.097960
v -0.097960 0.024218 0.169674
v 0.000000 0.024218 0.195921
v 0.097960 0.024218 0.169674
v 0.169672 0.024218 0.097960
v 0.195921 0.024218 0.000000
v 0.169672 0.024218 -0.097960
v 0.097960 0.024218 -0.169672
v 0.000000 0.024218 -0.195921
vt 0.252584 0.237411
vt 0.252584 0.237411
vt 0.252584 0.237411
vt 0.252584 0.237411
vt 0.252584 0.237411
vt 0.252584 0.237411
vt 0.252584 0.237411
vt 0.252584 0.237411
vt 0.252584 0.237411
vt 0.252584 0.237411
vt 0.252584 0.237411
vt 0.252584 0.237411
vt 0.252584 0.237411
vt 0.252584 0.237411
vt 0.252584 0.237411
vt 0.252584 0.237411
vt 0.252584 0.237411
vt 0.252584 0.237411
vt 0.252584 0.237411
vt 0.252584 0.237411
vt 0.252584 0.237411
vt 0.252584 0.237411
vt 0.252584 0.237411
vt 0.252584 0.237411
vt 0.252584 0.237411
vt 0.252584 0.237411
vt 0.252584 0.237411
vt 0.252584 0.237411
vt 0.252584 0.237411
vt 0.252584 0.237411
vt 0.252584 0.237411
vt 0.252584 0.237411
vt 0.252584 0.237411
vt 0.252584 0.237411
vt 0.252584 0.237411
vt 0.252584 0.237411
vt 0.252584 0.237411
vt 0.252584 0.237411
vt 0.252584 0.237411
vt 0.252584 0.237411
vt 0.252584 0.237411
vt 0.252584 0.237411
vt 0.252584 0.237411
vt 0.252584 0.237411
vt 0.252584 0.237411
vt 0.252584 0.237411
vt 0.252584 0.237411
vt 0.252584 0.237411
vt 0.252584 0.237411
vt 0.252584 0.237411
vt 0.252584 0.237411
vt 0.252584 0.237411
vt 0.252584 0.237411
vt 0.252584 0.237411
vt 0.252584 0.237411
vt 0.252584 0.237411
vt 0.252584 0.237411
vt 0.252584 0.237411
vt 0.252584 0.237411
vt 0.252584 0.237411
vt 0.252584 0.237411
vt 0.252584 0.237411
vt 0.252584 0.237411
vt 0.252584 0.237411
vt 0.252584 0.237411
vt 0.252584 0.237411
vt 0.252584 0.237411
vt 0.252584 0.237411
vt 0.252584 0.237411
vt 0.252584 0.237411
vt 0.252584 0.237411
vt 0.252584 0.237411
vt 0.252584 0.237411
vt 0.252584 0.237411
vt 0.252584 0.237411
vt 0.252584 0.237411
vt 0.252584 0.237411
vt 0.252584 0.237411
vt 0.252584 0.237411
vt 0.252584 0.237411
vt 0.252584 0.237411
vt 0.252584 0.237411
vt 0.252584 0.237411
vt 0.252584 0.237411
vt 0.252584 0.237411
vt 0.252584 0.237411
vt 0.252584 0.237411
vt 0.252584 0.237411
vt 0.252584 0.237411
vt 0.252584 0.237411
vt 0.252584 0.237411
vt 0.252584 0.237411
vt 0.252584 0.237411
vt 0.252584 0.237411
vt 0.252584 0.237411
vt 0.252584 0.237411
vt 0.252584 0.237411
vt 0.252584 0.237411
vt 0.252584 0.237411
vt 0.252584 0.237411
vt 0.252584 0.237411
vt 0.252584 0.237411
vt 0.252584 0.237411
vt 0.252584 0.237411
vn 0.199463 -0.959390 -0.199462
vn 0.199463 -0.959390 -0.199462
vn 0.199463 -0.959390 -0.199462
vn 0.199463 -0.959390 -0.199462
vn 0.073009 -0.959390 -0.272470
vn 0.073009 -0.959390 -0.272470
vn 0.073009 -0.959390 -0.272470
vn 0.073009 -0.959390 -0.272470
vn -0.073010 -0.959390 -0.272471
vn -0.073010 -0.959390 -0.272471
vn -0.073010 -0.959390 -0.272471
vn -0.073010 -0.959390 -0.272471
vn -0.199460 -0.959390 -0.199463
vn -0.199460 -0.959391 -0.199463
vn -0.199460 -0.959391 -0.199463
vn -0.199460 -0.959390 -0.199463
vn -0.272468 -0.959391 -0.073008
vn -0.272468 -0.959391 -0.073008
vn -0.272468 -0.959391 -0.073008
vn -0.272468 -0.959391 -0.073008
vn -0.272470 -0.959390 0.073011
vn -0.272470 -0.959390 0.073011
vn -0.272470 -0.959390 0.073011
vn -0.272470 -0.959390 0.073011
vn -0.199466 -0.959390 0.199462
vn -0.199466 -0.959390 0.199462
vn -0.199466 -0.959389 0.199462
vn -0.199466 -0.959390 0.199462
vn -0.073009 -0.959390 0.272470
vn -0.073009 -0.959390 0.272470
vn -0.073009 -0.959390 0.272470
vn -0.073009 -0.959390 0.272470
vn 0.073010 -0.959390 0.272471
vn 0.073010 -0.959390 0.272471
vn 0.073010 -0.959390 0.272471
vn 0.073010 -0.959390 0.272471
vn 0.199463 -0.959390 0.199464
vn 0.199463 -0.959390 0.199464
vn 0.199463 -0.959390 0.199464
vn 0.199463 -0.959390 0.199464
vn 0.272464 -0.959392 0.073009
vn 0.272464 -0.959392 0.073009
vn 0.272464 -0.959392 0.073009
vn 0.272464 -0.959392 0.073009
vn 0.272465 -0.959391 -0.073012
vn 0.272465 -0.959391 -0.073012
vn 0.272465 -0.959391 -0.073012
vn 0.272465 -0.959391 -0.073012
vn 0.000000 -1.000000 0.000000
vn 0.000000 -1.000000 0.000000
vn 0.000000 -1.000000 0.000000
vn 0.000000 -1.000000 0.000000
vn 0.000000 -1.000000 0.000000
vn 0.000000 -1.000000 0.000000
vn 0.000000 -1.000000 0.000000
vn 0.000000 -1.000000 0.000000
vn 0.000000 -1.000000 0.000000
vn 0.000000 -1.000000 0.000000
vn 0.000000 -1.000000 0.000000
vn 0.000000 -1.000000 0.000000
vn 0.000000 -1.000000 0.000000
vn 0.000000 -1.000000 0.000000
vn 0.000000 -1.000000 0.000000
vn 0.000000 -1.000000 0.000000
vn 0.000000 -1.000000 0.000000
vn 0.000000 -1.000000 0.000000
vn 0.000000 -1.000000 0.000000
vn 0.000000 -1.000000 0.000000
vn 0.000000 -1.000000 0.000000
vn 0.000000 -1.000000 0.000000
vn 0.000000 -1.000000 0.000000
vn 0.000000 -1.000000 0.000000
vn 0.000000 -1.000000 0.000000
vn 0.000000 -1.000000 0.000000
vn 0.000000 -1.000000 0.000000
vn 0.000000 -1.000000 0.000000
vn 0.000000 -1.000000 0.000000
vn 0.000000 -1.000000 0.000000
vn 0.000000 -1.000000 0.000000
vn 0.000000 -1.000000 0.000000
vn 0.000000 -1.000000 0.000000
vn 0.000000 -1.000000 0.000000
vn 0.000000 -1.000000 0.000000
vn 0.000000 -1.000000 0.000000
vn 0.000000 1.000000 0.000000
vn 0.000000 1.000000 0.000000
vn 0.000000 1.000000 0.000000
vn 0.000000 1.000000 0.000000
vn 0.000000 1.000000 0.000000
vn 0.000000 1.000000 0.000000
vn 0.000000 1.000000 0.000000
vn 0.000000 1.000000 0.000000
vn 0.000000 1.000000 0.000000
vn 0.000000 1.000000 0.000000
vn 0.000000 1.000000 0.000000
vn 0.000000 1.000000 0.000000
vn 0.000000 1.000000 0.000000
vn 0.000000 1.000000 0.000000
vn 0.000000 1.000000 0.000000
vn 0.000000 1.000000 0.000000
vn 0.000000 1.000000 0.000000
vn 0.000000 1.000000 0.000000
vn 0.000000 1.000000 0.000000
vn 0.000000 1.000000 0.000000
vn 0.000000 1.000000 0.000000
vn 0.000000 1.000000 0.000000
vn 0.000000 1.000000 0.000000
vn 0.000000 1.000000 0.000000
vn 0.000000 1.000000 0.000000
vn 0.000000 1.000000 0.000000
vn 0.000000 1.000000 0.000000
vn 0.000000 1.000000 0.000000
vn 0.000000 1.000000 0.000000
vn 0.000000 1.000000 0.000000
vn 0.000000 1.000000 0.000000
vn 0.000000 1.000000 0.000000
vn 0.000000 1.000000 0.000000
vn 0.000000 1.000000 0.000000
vn 0.000000 1.000000 0.000000
vn 0.000000 1.000000 0.000000
vn 0.627139 0.461946 -0.627139
vn 0.627139 0.461946 -0.627139
vn 0.627139 0.461946 -0.627139
vn 0.627139 0.461946 -0.627139
vn 0.229543 0.461959 -0.856682
vn 0.229543 0.461959 -0.856682
vn 0.229543 0.461959 -0.856682
vn 0.229543 0.461959 -0.856682
vn -0.229542 0.461964 -0.856680
vn -0.229542 0.461964 -0.856680
vn -0.229542 0.461964 -0.856680
vn -0.229542 0.461964 -0.856680
vn -0.627138 0.461950 -0.627136
vn -0.627138 0.461950 -0.627136
vn -0.627138 0.461950 -0.627136
vn -0.627138 0.461950 -0.627136
vn -0.856680 0.461963 -0.229543
vn -0.856680 0.461963 -0.229543
vn -0.856680 0.461963 -0.229543
vn -0.856680 0.461963 -0.229543
vn -0.856680 0.461963 0.229541
vn -0.856680 0.461963 0.229541
vn -0.856680 0.461963 0.229541
vn -0.856680 0.461963 0.229541
vn -0.627139 0.461946 0.627139
vn -0.627139 0.461946 0.627139
vn -0.627139 0.461946 0.627139
vn -0.627139 0.461946 0.627139
vn -0.229539 0.462028 0.856645
vn -0.229539 0.462029 0.856645
vn -0.229539 0.462029 0.856645
vn -0.229539 0.462029 0.856645
vn 0.229538 0.462033 0.856643
vn 0.229538 0.462033 0.856643
vn 0.229538 0.462033 0.856643
vn 0.229538 0.462033 0.856643
vn 0.627138 0.461950 0.627136
vn 0.627138 0.461950 0.627136
vn 0.627138 0.461950 0.627136
vn 0.627138 0.461950 0.627136
vn 0.856643 0.462032 0.229539
vn 0.856643 0.462032 0.229539
vn 0.856644 0.462032 0.229539
vn 0.856644 0.462032 0.229539
vn 0.856643 0.462034 -0.229538
vn 0.856643 0.462034 -0.229538
vn 0.856643 0.462034 -0.229538
vn 0.856643 0.462034 -0.229538
vn -0.148825 0.988059 0.039880
vn -0.148825 0.988059 0.039880
vn -0.148825 0.988059 0.039881
vn -0.148825 0.988059 0.039880
vn -0.148824 0.988059 -0.039877
vn -0.148824 0.988059 -0.039877
vn -0.148824 0.988059 -0.039877
vn -0.148824 0.988059 -0.039877
vn -0.108945 0.988059 -0.108949
vn -0.108945 0.988059 -0.108949
vn -0.108945 0.988059 -0.108949
vn -0.108945 0.988059 -0.108949
vn -0.039879 0.988059 -0.148825
vn -0.039879 0.988059 -0.148825
vn -0.039879 0.988059 -0.148825
vn -0.039879 0.988059 -0.148825
vn 0.039879 0.988059 -0.148825
vn 0.039879 0.988059 -0.148825
vn 0.039879 0.988059 -0.148825
vn 0.039879 0.988059 -0.148825
vn 0.108948 0.988059 -0.108948
vn 0.108948 0.988059 -0.108948
vn 0.108948 0.988059 -0.108948
vn 0.108948 0.988059 -0.108948
vn 0.148825 0.988059 -0.039880
vn 0.148825 0.988059 -0.039880
vn 0.148825 0.988059 -0.039881
vn 0.148825 0.988059 -0.039880
vn 0.148824 0.988059 0.039877
vn 0.148824 0.988059 0.039877
vn 0.148824 0.988059 0.039877
vn 0.148824 0.988059 0.039877
vn 0.108945 0.988059 0.108949
vn 0.108945 0.988059 0.108949
vn 0.108945 0.988059 0.108949
vn 0.108945 0.988059 0.108949
vn 0.039879 0.988059 0.148825
vn 0.039879 0.988059 0.148825
vn 0.039879 0.988059 0.148825
vn 0.039879 0.988059 0.148825
vn -0.039879 0.988059 0.148825
vn -0.039879 0.988059 0.148825
vn -0.039879 0.988059 0.148825
vn -0.039879 0.988059 0.148825
vn -0.108948 0.988059 0.108948
vn -0.108948 0.988059 0.108948
vn -0.108948 0.988059 0.108948
vn -0.108948 0.988059 0.108948
vn -0.393213 0.831125 0.393211
vn -0.393213 0.831125 0.393211
vn -0.393213 0.831125 0.393211
vn -0.393213 0.831125 0.393211
vn -0.537135 0.831126 0.143931
vn -0.537135 0.831126 0.143931
vn -0.537135 0.831126 0.143931
vn -0.537135 0.831126 0.143931
vn -0.537134 0.831127 -0.143929
vn -0.537134 0.831127 -0.143929
vn -0.537134 0.831127 -0.143929
vn -0.537134 0.831127 -0.143929
vn -0.393211 0.831125 -0.393213
vn -0.393211 0.831125 -0.393213
vn -0.393211 0.831125 -0.393213
vn -0.393211 0.831125 -0.393213
vn -0.143930 0.831124 -0.537138
vn -0.143930 0.831124 -0.537138
vn -0.143930 0.831124 -0.537138
vn -0.143930 0.831124 -0.537138
vn 0.143930 0.831124 -0.537138
vn 0.143930 0.831124 -0.537138
vn 0.143930 0.831124 -0.537138
vn 0.143930 0.831124 -0.537138
vn 0.393214 0.831123 -0.393214
vn 0.393214 0.831123 -0.393214
vn 0.393214 0.831123 -0.393214
vn 0.393214 0.831123 -0.393214
vn 0.537136 0.831125 -0.143930
vn 0.537136 0.831125 -0.143930
vn 0.537136 0.831125 -0.143930
vn 0.537136 0.831125 -0.143930
vn 0.537133 0.831127 0.143929
vn 0.537133 0.831127 0.143929
vn 0.537133 0.831127 0.143929
vn 0.537133 0.831127 0.143929
vn 0.393210 0.831126 0.393210
vn 0.393210 0.831126 0.393210
vn 0.393210 0.831126 0.393210
vn 0.393210 0.831126 0.393210
vn 0.143930 0.831124 0.537138
vn 0.143930 0.831124 0.537138
vn 0.143930 0.831124 0.537138
vn 0.143930 0.831124 0.537138
vn -0.143930 0.831124 0.537138
vn -0.143930 0.831124 0.537138
vn -0.143930 0.831124 0.537138
vn -0.143930 0.831124 0.537138
vn -0.625001 -0.467703 -0.625002
vn -0.625001 -0.467703 -0.625002
vn -0.625001 -0.467703 -0.625002
vn -0.625001 -0.467703 -0.625002
vn -0.853765 -0.467708 -0.228765
vn -0.853765 -0.467708 -0.228765
vn -0.853765 -0.467708 -0.228765
vn -0.853765 -0.467708 -0.228765
vn -0.853766 -0.467707 0.228766
vn -0.853766 -0.467707 0.228766
vn -0.853766 -0.467707 0.228766
vn -0.853766 -0.467707 0.228766
vn -0.624999 -0.467721 0.624991
vn -0.624999 -0.467721 0.624991
vn -0.624999 -0.467721 0.624991
vn -0.624999 -0.467721 0.624991
vn -0.228754 -0.467733 0.853755
vn -0.228754 -0.467733 0.853755
vn -0.228754 -0.467733 0.853755
vn -0.228754 -0.467733 0.853755
vn 0.228754 -0.467733 0.853755
vn 0.228754 -0.467733 0.853755
vn 0.228754 -0.467733 0.853755
vn 0.228754 -0.467733 0.853755
vn 0.624998 -0.467722 0.624990
vn 0.624998 -0.467722 0.624990
vn 0.624998 -0.467722 0.624990
vn 0.624998 -0.467722 0.624990
vn 0.853765 -0.467708 0.228765
vn 0.853765 -0.467708 0.228765
vn 0.853765 -0.467708 0.228765
vn 0.853765 -0.467708 0.228765
vn 0.853766 -0.467707 -0.228766
vn 0.853766 -0.467707 -0.228766
vn 0.853766 -0.467707 -0.228766
vn 0.853766 -0.467707 -0.228766
vn 0.625002 -0.467702 -0.625002
vn 0.625002 -0.467702 -0.625002
vn 0.625002 -0.467702 -0.625002
vn 0.625002 -0.467702 -0.625002
vn 0.228766 -0.467707 -0.853766
vn 0.228766 -0.467707 -0.853766
vn 0.228766 -0.467707 -0.853766
vn 0.228766 -0.467707 -0.853766
vn -0.228766 -0.467707 -0.853766
vn -0.228766 -0.467707 -0.853766
vn -0.228766 -0.467707 -0.853766
vn -0.228766 -0.467707 -0.853766
s off
f 27/53/1 28/54/2 72/102/3 73/103/4
f 29/55/5 27/53/6 73/103/7 74/104/8
f 30/56/9 29/55/10 74/104/11 63/92/12
f 31/57/13 30/56/14 63/92/15 64/93/16
f 32/58/17 31/57/18 64/93/19 65/94/20
f 33/59/21 32/58/22 65/94/23 66/95/24
f 34/60/25 33/59/26 66/95/27 67/96/28
f 35/61/29 34/60/30 67/96/31 68/97/32
f 36/62/33 35/61/34 68/97/35 69/98/36
f 37/63/37 36/62/38 69/98/39 70/99/40
f 38/64/41 37/63/42 70/99/43 71/100/44
f 71/100/45 72/101/46 28/65/47 38/64/48
f 2/2/49 1/1/50 25/51/51
f 3/3/52 2/2/53 25/51/54
f 4/4/55 3/3/56 25/51/57
f 5/5/58 4/4/59 25/51/60
f 6/6/61 5/5/62 25/51/63
f 7/7/64 6/6/65 25/51/66
f 8/8/67 7/7/68 25/51/69
f 9/9/70 8/8/71 25/51/72
f 10/10/73 9/9/74 25/51/75
f 11/11/76 10/10/77 25/51/78
f 12/12/79 11/11/80 25/51/81
f 1/1/82 12/12/83 25/51/84
f 13/49/85 14/48/86 26/52/87
f 14/48/88 15/47/89 26/52/90
f 15/47/91 16/46/92 26/52/93
f 16/46/94 17/45/95 26/52/96
f 17/45/97 18/44/98 26/52/99
f 18/44/100 19/43/101 26/52/102
f 19/43/103 20/42/104 26/52/105
f 20/42/106 21/41/107 26/52/108
f 21/41/109 22/40/110 26/52/111
f 22/40/112 23/39/113 26/52/114
f 23/39/115 24/50/116 26/52/117
f 24/50/118 13/49/119 26/52/120
f 50/78/121 39/66/122 28/54/123 27/53/124
f 49/77/125 50/78/126 27/53/127 29/55/128
f 48/76/129 49/77/130 29/55/131 30/56/132
f 47/75/133 48/76/134 30/56/135 31/57/136
f 46/74/137 47/75/138 31/57/139 32/58/140
f 45/73/141 46/74/142 32/58/143 33/59/144
f 44/72/145 45/73/146 33/59/147 34/60/148
f 43/71/149 44/72/150 34/60/151 35/61/152
f 42/70/153 43/71/154 35/61/155 36/62/156
f 41/69/157 42/70/158 36/62/159 37/63/160
f 40/68/161 41/69/162 37/63/163 38/64/164
f 39/67/165 40/68/166 38/64/167 28/65/168
f 52/81/169 53/82/170 40/68/171 39/67/172
f 53/82/173 54/83/174 41/69/175 40/68/176
f 54/83/177 55/84/178 42/70/179 41/69/180
f 55/84/181 56/85/182 43/71/183 42/70/184
f 56/85/185 57/86/186 44/72/187 43/71/188
f 57/86/189 58/87/190 45/73/191 44/72/192
f 58/87/193 59/88/194 46/74/195 45/73/196
f 59/88/197 60/89/198 47/75/199 46/74/200
f 60/89/201 61/90/202 48/76/203 47/75/204
f 61/90/205 62/91/206 49/77/207 48/76/208
f 62/91/209 51/79/210 50/78/211 49/77/212
f 51/79/213 52/80/214 39/66/215 50/78/216
f 14/27/217 13/26/218 52/80/219 51/79/220
f 13/38/221 24/37/222 53/82/223 52/81/224
f 24/37/225 23/36/226 54/83/227 53/82/228
f 23/36/229 22/35/230 55/84/231 54/83/232
f 22/35/233 21/34/234 56/85/235 55/84/236
f 21/34/237 20/33/238 57/86/239 56/85/240
f 20/33/241 19/32/242 58/87/243 57/86/244
f 19/32/245 18/31/246 59/88/247 58/87/248
f 18/31/249 17/30/250 60/89/251 59/88/252
f 17/30/253 16/29/254 61/90/255 60/89/256
f 16/29/257 15/28/258 62/91/259 61/90/260
f 15/28/261 14/27/262 51/79/263 62/91/264
f 64/93/265 63/92/266 4/16/267 5/17/268
f 65/94/269 64/93/270 5/17/271 6/18/272
f 66/95/273 65/94/274 6/18/275 7/19/276
f 67/96/277 66/95/278 7/19/279 8/20/280
f 68/97/281 67/96/282 8/20/283 9/21/284
f 69/98/285 68/97/286 9/21/287 10/22/288
f 70/99/289 69/98/290 10/22/291 11/23/292
f 71/100/293 70/99/294 11/23/295 12/24/296
f 1/25/297 72/101/298 71/100/299 12/24/300
f 73/103/301 72/102/302 1/13/303 2/14/304
f 74/104/305 73/103/306 2/14/307 3/15/308
f 63/92/309 74/104/310 3/15/311 4/16/312
