# This file uses centimeters as units for non-parametric coordinates.

v 0.091653 0.068757 0.218140
v 0.117286 0.064482 0.218140
v 0.117286 0.064482 -0.218140
v 0.091653 0.068757 -0.218140
v 0.119516 0.025987 -0.190969
v 0.119516 0.025987 0.190969
v 0.119516 0.000000 0.190969
v 0.119516 0.000000 -0.190969
v 0.154197 0.093687 -0.200947
v 0.154197 0.093687 0.200947
v 0.170080 0.114255 0.200947
v 0.170080 0.114255 -0.200947
v 0.189880 0.044284 0.200947
v 0.166958 0.056526 0.200947
v 0.166958 0.056526 -0.200947
v 0.189880 0.044284 -0.200947
v -0.002582 0.025987 -0.167942
v -0.002582 0.025987 0.167942
v -0.002582 0.000000 0.167942
v -0.002582 0.000000 -0.167942
v 0.123171 0.090355 -0.211027
v 0.123171 0.090355 0.211027
v 0.117482 0.115712 0.211027
v 0.117482 0.115712 -0.211027
v 0.119516 0.029452 0.000000
v -0.002582 0.029452 0.000000
v 0.165226 0.064670 0.000000
v 0.157669 0.083367 0.000000
v 0.128847 0.073482 0.000000
v 0.141762 0.067953 0.000000
v 0.116140 0.070230 0.000000
v 0.126873 0.087797 0.000000
v 0.175627 0.097771 0.000000
v 0.186579 0.059809 0.000000
v -0.110515 0.102656 0.218140
v -0.130093 0.085567 0.218140
v -0.130093 0.085567 -0.218140
v -0.110515 0.102656 -0.218140
v -0.124681 0.025987 -0.190969
v -0.124681 0.025987 0.190969
v -0.124681 0.000000 0.190969
v -0.124681 0.000000 -0.190969
v -0.165432 0.089504 -0.200947
v -0.165432 0.089504 0.200947
v -0.187044 0.103934 0.200947
v -0.187044 0.103934 -0.200947
v -0.189880 0.030129 0.200947
v -0.170006 0.046871 0.200947
v -0.170006 0.046871 -0.200947
v -0.189880 0.030129 -0.200947
v -0.145539 0.101865 -0.211027
v -0.145539 0.101865 0.211027
v -0.149715 0.127514 0.211027
v -0.149715 0.127514 -0.211027
v -0.124681 0.029452 0.000000
v -0.170006 0.055198 0.000000
v -0.165432 0.078616 0.000000
v -0.144516 0.084091 0.000000
v -0.126066 0.078944 0.000000
v -0.105451 0.094327 0.000000
v -0.148022 0.098111 0.000000
v -0.187044 0.086542 0.000000
v -0.189880 0.046001 0.000000
v 0.119887 0.042350 0.000000
v 0.113880 0.029853 0.157004
v -0.002582 0.042301 0.000000
v -0.002582 0.027481 0.140439
v 0.113880 0.029853 -0.157004
v -0.002582 0.027481 -0.140439
v -0.124937 0.042324 0.000000
v -0.118797 0.028876 0.156902
v -0.118797 0.028876 -0.156902
v -0.121894 0.035659 0.077759
v -0.002582 0.037868 0.042006
v -0.059210 0.042311 0.000000
v -0.002582 0.038364 -0.037308
v 0.092840 0.042339 0.000000
v 0.074069 0.035959 0.063102
v 0.116544 0.035393 -0.087399
v -0.002582 0.030868 -0.108344
v 0.047349 0.035452 -0.065093
v -0.068390 0.032170 -0.103766
v -0.090754 0.036016 0.076049
v -0.042832 0.039412 0.021783
v -0.031221 0.038396 0.031533
v -0.083011 0.035150 0.083295
v -0.052048 0.037308 0.052442
v -0.061077 0.036513 0.061469
v -0.032556 0.035293 0.070133
v -0.038606 0.034281 0.080477
v -0.070361 0.037451 0.053072
v -0.061981 0.038313 0.043077
v -0.090534 0.039060 0.035623
v -0.082432 0.040027 0.024451
vt 0.297270 0.259778
vt 0.297270 0.259778
vt 0.297270 0.259778
vt 0.297270 0.259778
vt 0.297270 0.259778
vt 0.297270 0.259778
vt 0.297270 0.259778
vt 0.297270 0.259778
vt 0.297270 0.259778
vt 0.297270 0.259778
vt 0.297270 0.259778
vt 0.297270 0.259778
vt 0.297270 0.259778
vt 0.297270 0.259778
vt 0.297270 0.259778
vt 0.297270 0.259778
vt 0.297270 0.259778
vt 0.297270 0.259778
vt 0.297270 0.259778
vt 0.297270 0.259778
vt 0.297270 0.259778
vt 0.297270 0.259778
vt 0.297270 0.259778
vt 0.297270 0.259778
vt 0.297270 0.259778
vt 0.297270 0.259778
vt 0.297270 0.259778
vt 0.297270 0.259778
vt 0.297270 0.259778
vt 0.297270 0.259778
vt 0.297270 0.259778
vt 0.297270 0.259778
vt 0.297270 0.259778
vt 0.297270 0.259778
vt 0.298111 0.214214
vt 0.298111 0.214215
vt 0.297270 0.259778
vt 0.297270 0.259778
vt 0.297270 0.259778
vt 0.297270 0.259778
vt 0.297270 0.259778
vt 0.297270 0.259778
vt 0.297270 0.259778
vt 0.297270 0.259778
vt 0.297270 0.259778
vt 0.297270 0.259778
vt 0.297270 0.259778
vt 0.297270 0.259778
vt 0.297270 0.259778
vt 0.297270 0.259778
vt 0.297270 0.259778
vt 0.297270 0.259778
vt 0.297270 0.259778
vt 0.297270 0.259778
vt 0.297270 0.259778
vt 0.297270 0.259778
vt 0.297270 0.259778
vt 0.297270 0.259778
vt 0.297270 0.259778
vt 0.297270 0.259778
vt 0.297270 0.259778
vt 0.297270 0.259778
vt 0.297270 0.259778
vt 0.297270 0.259778
vt 0.297270 0.259778
vt 0.297270 0.259778
vt 0.297270 0.259778
vt 0.297270 0.259778
vt 0.297270 0.259778
vt 0.297270 0.259778
vt 0.297270 0.259778
vt 0.297270 0.259778
vt 0.297270 0.259778
vt 0.298111 0.214214
vt 0.297270 0.259778
vt 0.297270 0.259778
vt 0.297270 0.259778
vt 0.297270 0.259778
vt 0.298111 0.214214
vt 0.297270 0.259778
vt 0.297270 0.259778
vt 0.297270 0.259778
vt 0.297270 0.259778
vt 0.297270 0.259778
vt 0.297270 0.259778
vt 0.297270 0.259778
vt 0.297270 0.259778
vt 0.297270 0.259778
vt 0.297270 0.259778
vt 0.297270 0.259778
vt 0.297270 0.259778
vt 0.297270 0.259778
vt 0.297270 0.259778
vt 0.297270 0.259778
vt 0.297270 0.259778
vt 0.297270 0.259778
vt 0.297270 0.259778
vt 0.297270 0.259778
vt 0.297270 0.259778
vt 0.297270 0.259778
vt 0.298684 0.262027
vt 0.298111 0.214215
vt 0.298684 0.262026
vt 0.298684 0.262027
vt 0.298111 0.214214
vt 0.298111 0.214214
vt 0.298111 0.214214
vt 0.298111 0.214214
vt 0.298683 0.262027
vt 0.298111 0.214215
vt 0.298111 0.214214
vt 0.298111 0.214214
vt 0.298111 0.214214
vt 0.298111 0.214214
vt 0.298111 0.214214
vt 0.298111 0.214214
vt 0.298111 0.214214
vt 0.298111 0.214214
vt 0.298111 0.214215
vt 0.298111 0.214214
vt 0.298111 0.214214
vt 0.298683 0.262026
vt 0.298684 0.262026
vt 0.298683 0.262027
vt 0.298683 0.262027
vt 0.298684 0.262026
vt 0.298684 0.262027
vt 0.298683 0.262026
vt 0.298684 0.262027
vt 0.298684 0.262027
vt 0.298683 0.262027
vt 0.298683 0.262027
vt 0.298684 0.262027
vt 0.298684 0.262027
vt 0.298684 0.262027
vt 0.298111 0.214214
vt 0.298111 0.214214
vt 0.298111 0.214214
vt 0.298111 0.214214
vt 0.298111 0.214214
vt 0.298111 0.214214
vt 0.298111 0.214214
vt 0.298111 0.214214
vt 0.298111 0.214214
vt 0.298111 0.214214
vt 0.298111 0.214214
vt 0.298111 0.214214
vt 0.297672 0.137361
vt 0.297672 0.137361
vt 0.297672 0.137361
vt 0.297672 0.137361
vt 0.297672 0.137361
vt 0.297672 0.137361
vt 0.297672 0.137361
vt 0.297672 0.137361
vt 0.297672 0.137361
vt 0.297672 0.137361
vt 0.297672 0.137361
vt 0.297672 0.137361
vn -0.126764 -0.991606 -0.025462
vn -0.126764 -0.991606 -0.025462
vn -0.126764 -0.991606 -0.025462
vn -0.126764 -0.991606 -0.025462
vn -0.939760 -0.341829 -0.002220
vn -0.939760 -0.341829 -0.002220
vn -0.939760 -0.341829 -0.002220
vn -0.939760 -0.341829 -0.002220
vn -0.000000 0.000000 1.000000
vn -0.000000 0.000000 1.000000
vn -0.000000 0.000000 1.000000
vn -0.000000 0.000000 1.000000
vn 0.961715 0.274012 0.004718
vn 0.961715 0.274012 0.004718
vn 0.961715 0.274012 0.004718
vn 0.961715 0.274012 0.004718
vn 0.000000 0.000000 -1.000000
vn 0.000000 0.000000 -1.000000
vn 0.000000 0.000000 -1.000000
vn 0.000000 0.000000 -1.000000
vn 0.226230 -0.971616 0.069156
vn 0.226230 -0.971616 0.069156
vn 0.226230 -0.971616 0.069156
vn 0.226230 -0.971616 0.069156
vn 0.235159 -0.052202 0.970554
vn 0.235159 -0.052202 0.970554
vn 0.235159 -0.052202 0.970554
vn 0.235159 -0.052202 0.970554
vn -0.094087 0.989463 -0.110048
vn -0.094087 0.989463 -0.110048
vn -0.094087 0.989463 -0.110048
vn -0.094087 0.989463 -0.110048
vn 0.235159 -0.052202 -0.970554
vn 0.235159 -0.052202 -0.970554
vn 0.235159 -0.052202 -0.970554
vn 0.235159 -0.052202 -0.970554
vn -0.121434 -0.072813 0.989925
vn -0.121434 -0.072813 0.989925
vn -0.121434 -0.072813 0.989925
vn -0.121434 -0.072813 0.989925
vn -0.461419 0.886011 0.045580
vn -0.274626 0.959037 0.069495
vn -0.466256 0.883120 0.052004
vn -0.461419 0.886011 0.045580
vn -0.121434 -0.072813 -0.989925
vn -0.121434 -0.072813 -0.989925
vn -0.121434 -0.072813 -0.989925
vn -0.121434 -0.072813 -0.989925
vn 0.480513 -0.870801 -0.103983
vn 0.480513 -0.870801 -0.103983
vn 0.480513 -0.870801 -0.103983
vn 0.480513 -0.870801 -0.103983
vn -0.015127 0.995742 0.090939
vn -0.017793 0.995780 0.090035
vn -0.274626 0.959037 0.069495
vn -0.025196 0.996264 0.082604
vn -0.185330 0.000000 0.982676
vn -0.185330 0.000000 0.982676
vn -0.185330 0.000000 0.982676
vn -0.185330 0.000000 0.982676
vn 0.015270 -0.986684 -0.161932
vn 0.015270 -0.986684 -0.161932
vn 0.015270 -0.986684 -0.161932
vn 0.015270 -0.986684 -0.161932
vn -0.185330 0.000000 -0.982676
vn -0.185330 0.000000 -0.982676
vn -0.185330 0.000000 -0.982676
vn -0.185330 0.000000 -0.982676
vn 0.970997 0.231179 0.061001
vn 0.970997 0.231179 0.061001
vn 0.970997 0.231179 0.061001
vn 0.970997 0.231179 0.061001
vn 0.128561 0.135891 0.982347
vn 0.128561 0.135891 0.982347
vn 0.128561 0.135891 0.982347
vn 0.128561 0.135891 0.982347
vn -0.870416 0.482377 -0.098431
vn -0.870416 0.482377 -0.098431
vn -0.870416 0.482377 -0.098431
vn -0.870416 0.482377 -0.098431
vn 0.128561 0.135891 -0.982347
vn 0.128561 0.135891 -0.982347
vn 0.128561 0.135891 -0.982347
vn 0.128561 0.135891 -0.982347
vn 0.015270 -0.986684 0.161932
vn 0.015270 -0.986684 0.161932
vn 0.015270 -0.986684 0.161932
vn 0.015270 -0.986684 0.161932
vn -0.015535 0.995978 -0.088237
vn -0.019732 0.995857 -0.088765
vn -0.000397 0.994478 -0.104944
vn -0.471047 0.880190 -0.058134
vn -0.457033 0.888341 -0.044389
vn -0.455652 0.889069 -0.044014
vn -0.455652 0.889069 -0.044014
vn -0.939760 -0.341829 0.002220
vn -0.939760 -0.341829 0.002220
vn -0.939760 -0.341829 0.002220
vn -0.939760 -0.341829 0.002220
vn 0.226230 -0.971616 -0.069156
vn 0.226230 -0.971616 -0.069156
vn 0.226230 -0.971616 -0.069156
vn 0.226230 -0.971616 -0.069156
vn 0.970997 0.231180 -0.061001
vn 0.970997 0.231180 -0.061001
vn 0.970997 0.231180 -0.061001
vn 0.970997 0.231180 -0.061001
vn -0.126764 -0.991606 0.025462
vn -0.126764 -0.991606 0.025462
vn -0.126764 -0.991606 0.025462
vn -0.126764 -0.991606 0.025462
vn -0.870416 0.482377 0.098431
vn -0.870416 0.482377 0.098431
vn -0.870416 0.482377 0.098431
vn -0.870416 0.482377 0.098431
vn -0.094087 0.989463 0.110048
vn -0.094087 0.989463 0.110048
vn -0.094087 0.989463 0.110048
vn -0.094087 0.989463 0.110048
vn 0.961715 0.274012 -0.004718
vn 0.961715 0.274012 -0.004718
vn 0.961715 0.274012 -0.004718
vn 0.961715 0.274012 -0.004718
vn 0.480513 -0.870801 0.103983
vn 0.480513 -0.870801 0.103983
vn 0.480513 -0.870801 0.103983
vn 0.480513 -0.870801 0.103983
vn 0.627942 -0.777246 0.039721
vn 0.627942 -0.777246 0.039721
vn 0.627942 -0.777246 0.039721
vn 0.627942 -0.777246 0.039721
vn 0.990545 -0.137183 0.000874
vn 0.990545 -0.137183 0.000874
vn 0.990545 -0.137183 0.000874
vn 0.990545 -0.137183 0.000874
vn -0.000001 0.000000 1.000000
vn -0.000001 0.000000 1.000000
vn -0.000001 0.000000 1.000000
vn -0.000001 0.000000 1.000000
vn -0.998772 0.049547 -0.000187
vn -0.998772 0.049547 -0.000187
vn -0.998772 0.049547 -0.000187
vn -0.998772 0.049547 -0.000187
vn 0.000000 0.000000 -1.000000
vn 0.000000 0.000000 -1.000000
vn 0.000000 0.000000 -1.000000
vn 0.000000 0.000000 -1.000000
vn 0.386111 -0.920161 0.064976
vn 0.386111 -0.920161 0.064976
vn 0.386111 -0.920161 0.064976
vn 0.386111 -0.920161 0.064976
vn -0.240447 -0.154711 0.958254
vn -0.240447 -0.154711 0.958254
vn -0.240447 -0.154711 0.958254
vn -0.240447 -0.154711 0.958254
vn -0.404409 0.908547 -0.104862
vn -0.404409 0.908547 -0.104862
vn -0.404409 0.908547 -0.104862
vn -0.404409 0.908547 -0.104862
vn -0.240446 -0.154712 -0.958254
vn -0.240446 -0.154711 -0.958254
vn -0.240446 -0.154712 -0.958254
vn -0.240446 -0.154712 -0.958254
vn 0.146678 -0.068223 0.986829
vn 0.146678 -0.068223 0.986829
vn 0.146678 -0.068223 0.986829
vn 0.146678 -0.068223 0.986829
vn 0.312335 0.948729 0.048581
vn 0.341088 0.937969 0.062229
vn 0.129320 0.988494 0.078459
vn 0.146678 -0.068223 -0.986829
vn 0.146678 -0.068223 -0.986829
vn 0.146678 -0.068223 -0.986829
vn 0.146678 -0.068223 -0.986829
vn -0.342363 -0.933347 -0.107940
vn -0.342363 -0.933347 -0.107940
vn -0.342363 -0.933347 -0.107940
vn -0.342363 -0.933347 -0.107940
vn -0.007817 0.996180 0.086977
vn 0.016112 0.996015 0.087722
vn 0.129320 0.988494 0.078459
vn 0.185330 0.000000 0.982676
vn 0.185330 0.000000 0.982676
vn 0.185330 0.000000 0.982676
vn 0.185330 0.000000 0.982676
vn -0.015270 -0.986684 -0.161932
vn -0.015270 -0.986684 -0.161932
vn -0.015270 -0.986684 -0.161932
vn -0.015270 -0.986684 -0.161932
vn 0.185330 0.000000 -0.982676
vn 0.185330 0.000000 -0.982676
vn 0.185330 0.000000 -0.982676
vn 0.185330 0.000000 -0.982676
vn -0.540385 -0.840398 0.041414
vn -0.540385 -0.840398 0.041414
vn -0.540385 -0.840398 0.041414
vn -0.540385 -0.840398 0.041414
vn -0.200056 0.072094 0.977128
vn -0.200056 0.072094 0.977128
vn -0.200056 0.072094 0.977129
vn -0.200056 0.072094 0.977129
vn 0.335563 0.938844 -0.077259
vn 0.335563 0.938844 -0.077259
vn 0.335563 0.938844 -0.077259
vn 0.335563 0.938844 -0.077259
vn -0.200056 0.072094 -0.977129
vn -0.200056 0.072094 -0.977129
vn -0.200056 0.072094 -0.977129
vn -0.200056 0.072094 -0.977129
vn -0.015270 -0.986684 0.161932
vn -0.015270 -0.986684 0.161932
vn -0.015270 -0.986684 0.161932
vn -0.015270 -0.986684 0.161932
vn 0.015279 0.995647 -0.091947
vn 0.007031 0.995479 -0.094725
vn 0.002402 0.995208 -0.097754
vn 0.003803 0.995051 -0.099289
vn 0.331952 0.941599 -0.056564
vn 0.326334 0.943833 -0.051831
vn 0.326334 0.943833 -0.051831
vn 0.215237 0.974403 -0.064903
vn 0.990545 -0.137183 -0.000874
vn 0.990545 -0.137183 -0.000874
vn 0.990545 -0.137183 -0.000874
vn 0.990545 -0.137183 -0.000874
vn 0.386110 -0.920161 -0.064976
vn 0.386111 -0.920161 -0.064976
vn 0.386110 -0.920161 -0.064976
vn 0.386110 -0.920161 -0.064976
vn -0.540385 -0.840398 -0.041414
vn -0.540385 -0.840398 -0.041414
vn -0.540385 -0.840398 -0.041414
vn -0.540385 -0.840398 -0.041414
vn 0.627942 -0.777246 -0.039721
vn 0.627942 -0.777246 -0.039721
vn 0.627942 -0.777246 -0.039721
vn 0.627942 -0.777246 -0.039721
vn 0.335563 0.938844 0.077259
vn 0.335563 0.938844 0.077259
vn 0.335563 0.938844 0.077259
vn 0.335563 0.938844 0.077259
vn -0.404409 0.908547 0.104862
vn -0.404409 0.908547 0.104862
vn -0.404409 0.908547 0.104862
vn -0.404409 0.908547 0.104862
vn -0.998772 0.049547 0.000187
vn -0.998772 0.049547 0.000187
vn -0.998772 0.049547 0.000187
vn -0.998772 0.049547 0.000187
vn -0.342363 -0.933347 0.107940
vn -0.342363 -0.933347 0.107940
vn -0.342363 -0.933347 0.107940
vn -0.342363 -0.933347 0.107940
vn -0.182211 0.975876 0.120275
vn -0.466256 0.883120 0.052004
vn -0.274626 0.959037 0.069495
vn -0.003419 0.996715 0.080912
vn -0.182211 0.975876 0.120275
vn -0.274626 0.959037 0.069495
vn -0.007817 0.996180 0.086977
vn -0.182211 0.975876 -0.120275
vn -0.003419 0.996715 -0.080912
vn -0.008886 0.996388 -0.084457
vn -0.134922 0.987246 -0.084513
vn -0.471047 0.880190 -0.058134
vn -0.182211 0.975876 -0.120275
vn -0.134922 0.987246 -0.084513
vn 0.341088 0.937969 0.062229
vn 0.132414 0.986602 0.095307
vn 0.129320 0.988494 0.078459
vn 0.132414 0.986602 0.095307
vn -0.003419 0.996715 0.080912
vn -0.007817 0.996180 0.086977
vn 0.129320 0.988494 0.078459
vn -0.003419 0.996715 -0.080912
vn 0.132414 0.986602 -0.095307
vn 0.215237 0.974403 -0.064903
vn -0.008886 0.996388 -0.084457
vn 0.132414 0.986602 -0.095307
vn 0.331952 0.941599 -0.056564
vn 0.215237 0.974403 -0.064903
vn 0.007755 0.995930 0.089798
vn 0.008023 0.995022 0.099337
vn 0.004534 0.996169 0.087334
vn 0.308656 0.949976 0.047727
vn 0.308656 0.949976 0.047727
vn 0.341088 0.937969 0.062229
vn 0.312335 0.948729 0.048581
vn 0.000184 0.994478 0.104947
vn 0.008023 0.995022 0.099337
vn 0.005669 0.995009 0.099622
vn 0.003803 0.995051 -0.099289
vn 0.002402 0.995208 -0.097754
vn 0.000184 0.994478 -0.104945
vn -0.015535 0.995978 -0.088237
vn -0.000397 0.994478 -0.104944
vn -0.000398 0.994478 -0.104944
vn -0.001695 0.994780 0.102032
vn -0.012161 0.995421 0.094810
vn -0.017793 0.995780 0.090035
vn -0.015127 0.995742 0.090939
vn -0.274626 0.959037 0.069495
vn -0.017793 0.995780 0.090035
vn -0.012161 0.995421 0.094810
vn -0.007817 0.996180 0.086977
vn -0.471047 0.880190 -0.058134
vn -0.134922 0.987246 -0.084513
vn -0.457033 0.888341 -0.044389
vn -0.134922 0.987246 -0.084513
vn -0.008886 0.996388 -0.084457
vn -0.024692 0.995992 -0.085965
vn -0.019732 0.995857 -0.088765
vn -0.024736 0.996126 -0.084382
vn 0.215237 0.974403 -0.064903
vn 0.015279 0.995647 -0.091947
vn 0.017635 0.995263 -0.095610
vn -0.008886 0.996388 -0.084457
vn -0.024736 0.996126 -0.084382
vn -0.019732 0.995857 -0.088765
vn -0.015535 0.995978 -0.088237
vn -0.019059 0.996255 -0.084339
vn -0.000397 0.994478 -0.104944
vn -0.019732 0.995857 -0.088765
vn -0.024692 0.995992 -0.085965
vn 0.015279 0.995647 -0.091947
vn 0.003803 0.995051 -0.099289
vn 0.017635 0.995263 -0.095610
vn 0.215237 0.974403 -0.064903
vn 0.007031 0.995479 -0.094725
vn 0.015279 0.995647 -0.091947
vn 0.007034 0.996633 0.081684
vn 0.023040 0.995227 0.094826
vn 0.011891 0.996316 0.084928
vn 0.017902 0.995887 0.088820
vn -0.007817 0.996180 0.086977
vn 0.009510 0.993103 0.116858
vn 0.000206 0.994436 0.105343
vn 0.016112 0.996015 0.087722
vn 0.019773 0.994859 0.099318
vn 0.011375 0.994970 0.099524
vn 0.011891 0.996316 0.084928
vn 0.023040 0.995227 0.094826
vn 0.005669 0.995009 0.099622
vn 0.008023 0.995022 0.099337
vn 0.001834 0.993738 0.111719
vn -0.004419 0.994743 0.102304
vn 0.005669 0.995009 0.099622
vn -0.004419 0.994743 0.102304
vn 0.011891 0.996316 0.084928
vn 0.011375 0.994970 0.099524
vn -0.007817 0.996180 0.086977
vn 0.019773 0.994859 0.099318
vn 0.023040 0.995227 0.094826
vn 0.009510 0.993103 0.116858
vn 0.005669 0.995009 0.099622
vn 0.011375 0.994970 0.099524
vn 0.019773 0.994859 0.099318
vn -0.007817 0.996180 0.086977
vn 0.017902 0.995887 0.088820
vn 0.007755 0.995930 0.089798
vn 0.004493 0.996478 0.083731
vn 0.007034 0.996633 0.081684
vn 0.004493 0.996478 0.083731
vn 0.016112 0.996015 0.087722
vn 0.000206 0.994436 0.105343
vn 0.007034 0.996633 0.081684
vn 0.007755 0.995930 0.089798
vn 0.004534 0.996169 0.087334
vn 0.016112 0.996015 0.087722
vn 0.004493 0.996478 0.083731
vn 0.001834 0.993738 0.111719
vn 0.008023 0.995022 0.099337
vn 0.007755 0.995930 0.089798
vn 0.017902 0.995887 0.088820
vn 0.000206 0.994436 0.105343
vn 0.009510 0.993103 0.116858
vn 0.023040 0.995227 0.094826
vn 0.007034 0.996633 0.081684
vn 0.017902 0.995887 0.088820
vn 0.011891 0.996316 0.084928
vn -0.004419 0.994743 0.102304
vn 0.001834 0.993738 0.111719
s off
f 30/40/1 2/2/2 1/1/3 31/42/4
f 27/37/5 14/20/6 10/14/7 28/38/8
f 10/14/9 14/20/10 13/18/11 11/15/12
f 11/16/13 13/19/14 34/46/15 33/45/16
f 12/17/17 16/22/18 15/21/19 9/13/20
f 28/38/21 10/14/22 22/29/23 29/39/24
f 22/29/25 10/14/26 11/15/27 23/30/28
f 23/31/29 11/16/30 33/45/31 32/44/32
f 24/32/33 12/17/34 9/13/35 21/28/36
f 14/20/37 6/9/38 7/10/39 13/18/40
f 64/35/41 65/36/42 14/74/43 27/79/44
f 16/22/45 8/12/46 5/8/47 15/21/48
f 13/19/49 7/11/50 25/33/51 34/46/52
f 77/116/53 78/117/54 65/36/55 64/35/56
f 6/9/57 18/24/58 19/25/59 7/10/60
f 7/11/61 19/26/62 26/34/63 25/33/64
f 8/12/65 20/27/66 17/23/67 5/8/68
f 2/2/69 30/41/70 29/39/71 22/29/72
f 1/1/73 2/2/74 22/29/75 23/30/76
f 31/43/77 1/5/78 23/31/79 32/44/80
f 3/3/81 4/4/82 24/32/83 21/28/84
f 26/34/85 20/27/86 8/12/87 25/33/88
f 77/116/89 81/120/90 76/115/91
f 15/105/92 79/118/93 64/35/94 27/79/95
f 9/13/96 15/21/97 27/37/98 28/38/99
f 21/28/100 9/13/101 28/38/102 29/39/103
f 30/41/104 3/3/105 21/28/106 29/39/107
f 4/6/108 3/7/109 30/40/110 31/42/111
f 4/4/112 31/43/113 32/44/114 24/32/115
f 33/45/116 12/17/117 24/32/118 32/44/119
f 34/46/120 16/22/121 12/17/122 33/45/123
f 25/33/124 8/12/125 16/22/126 34/46/127
f 59/47/128 60/48/129 35/49/130 36/50/131
f 56/51/132 57/52/133 44/53/134 48/54/135
f 44/53/136 45/55/137 47/56/138 48/54/139
f 45/57/140 62/58/141 63/59/142 47/60/143
f 46/61/144 43/62/145 49/63/146 50/64/147
f 57/52/148 58/65/149 52/66/150 44/53/151
f 52/66/152 53/67/153 45/55/154 44/53/155
f 53/68/156 61/69/157 62/58/158 45/57/159
f 54/70/160 51/71/161 43/62/162 46/61/163
f 48/54/164 47/56/165 41/72/166 40/73/167
f 73/101/168 48/103/169 71/104/170
f 50/64/171 49/63/172 39/75/173 42/76/174
f 47/60/175 63/59/176 55/77/177 41/78/178
f 67/109/179 73/101/180 71/104/181
f 40/73/182 41/72/183 19/81/184 18/80/185
f 41/78/186 55/77/187 26/82/188 19/83/189
f 42/76/190 39/75/191 17/84/192 20/85/193
f 36/50/194 52/66/195 58/65/196 59/86/197
f 35/49/198 53/67/199 52/66/200 36/50/201
f 60/87/202 61/69/203 53/68/204 35/88/205
f 37/89/206 51/71/207 54/70/208 38/90/209
f 26/82/210 55/77/211 42/76/212 20/85/213
f 82/121/214 70/106/215 75/114/216 76/115/217
f 49/111/218 56/107/219 70/106/220 72/110/221
f 43/62/222 57/52/223 56/51/224 49/63/225
f 51/71/226 58/65/227 57/52/228 43/62/229
f 59/86/230 58/65/231 51/71/232 37/89/233
f 38/91/234 60/48/235 59/47/236 37/92/237
f 38/90/238 54/70/239 61/69/240 60/87/241
f 62/58/242 61/69/243 54/70/244 46/61/245
f 63/59/246 62/58/247 46/61/248 50/64/249
f 55/77/250 63/59/251 50/64/252 42/76/253
f 6/9/254 14/20/255 65/93/256
f 18/24/257 6/9/258 65/93/259 67/94/260
f 5/8/261 17/23/262 69/96/263 68/95/264
f 15/21/265 5/8/266 68/95/267
f 48/54/268 40/73/269 71/97/270
f 40/73/271 18/80/272 67/98/273 71/97/274
f 17/84/275 39/75/276 72/100/277 69/99/278
f 39/75/279 49/63/280 72/100/281
f 94/147/282 75/114/283 70/106/284
f 70/106/285 56/107/286 48/108/287 73/112/288
f 66/122/289 75/123/290 74/124/291
f 76/125/292 75/123/293 66/122/294
f 77/126/295 76/125/296 66/122/297
f 66/122/298 74/124/299 78/127/300 77/126/301
f 65/36/302 78/117/303 74/113/304 67/102/305
f 15/128/306 68/129/307 79/130/308
f 68/129/309 69/131/310 80/132/311 81/133/312 79/130/313
f 72/134/314 82/135/315 80/132/316 69/131/317
f 79/118/318 81/120/319 77/116/320 64/35/321
f 76/115/322 81/120/323 80/119/324
f 82/121/325 76/115/326 80/119/327
f 72/110/328 70/106/329 82/121/330
f 91/155/331 88/150/332 87/151/333 92/154/334
f 67/102/335 86/139/336 83/136/337 73/112/338
f 90/156/339 89/157/340 87/151/341 88/150/342
f 74/113/343 75/114/344 84/137/345 85/138/346
f 74/113/347 85/138/348 87/140/349 89/142/350
f 67/102/351 90/143/352 88/141/353 86/139/354
f 74/113/355 89/142/356 90/143/357 67/102/358
f 92/154/359 94/158/360 93/159/361 91/155/362
f 93/146/363 73/112/364 83/136/365 91/144/366
f 94/147/367 70/106/368 73/112/369 93/146/370
f 84/137/371 75/114/372 94/147/373 92/145/374
f 83/148/375 86/149/376 88/150/377 91/155/378
f 92/154/379 87/151/380 85/152/381 84/153/382
