# This file uses centimeters as units for non-parametric coordinates.

v -0.544121 0.021002 2.198781
v -0.180711 0.021002 2.198781
v 0.182698 0.021002 2.198781
v 0.546108 0.021002 2.198781
v -0.544121 0.021002 -2.180731
v -0.180711 0.021002 -2.180731
v 0.182698 0.021002 -2.180731
v 0.546108 0.021002 -2.180731
v -0.863218 0.060012 2.198781
v -0.569557 0.060012 2.198781
v -0.569557 0.060012 -2.180731
v -0.916355 0.060012 -2.180731
v -0.518685 0.060012 2.198781
v -0.206148 0.060012 2.198781
v -0.206148 0.060012 -2.180731
v -0.518685 0.060012 -2.180731
v -0.155275 0.060012 2.198781
v 0.157262 0.060012 2.198781
v 0.157262 0.060012 -2.180731
v -0.155275 0.060012 -2.180731
v 0.208134 0.060012 2.198781
v 0.520672 0.060012 2.198781
v 0.520672 0.060012 -2.180731
v 0.208134 0.060012 -2.180731
v 0.571543 0.060012 2.198781
v 0.909066 0.060012 2.198781
v 0.865205 0.060012 -2.180731
v 0.571543 0.060012 -2.180731
v 0.909066 0.060012 0.991969
v 0.604135 0.060012 0.991969
v 0.546108 0.021002 0.991969
v 0.520672 0.060012 0.991969
v 0.208134 0.060012 0.991969
v 0.182698 0.021002 0.991969
v 0.157262 0.060012 0.991969
v -0.155275 0.060012 0.991969
v -0.180711 0.021002 0.991969
v -0.234303 0.060012 1.355689
v -0.490530 0.060012 0.991969
v -0.544121 0.021002 0.991969
v -0.569557 0.060012 0.991969
v -0.863218 0.060012 0.991969
v 0.865205 0.060012 -0.827790
v 0.571543 0.060012 -0.827790
v 0.546108 0.021002 -0.827790
v 0.520672 0.060012 -0.827790
v 0.208134 0.060012 -0.827790
v 0.182698 0.021002 -0.827790
v 0.112956 0.060012 -0.827790
v -0.112495 0.060012 -1.666700
v -0.180711 0.021002 -0.827790
v -0.206148 0.060012 -0.827790
v -0.518685 0.060012 -0.827790
v -0.544121 0.021002 -0.827790
v -0.606426 0.060012 -0.838721
v -0.916355 0.060012 -0.827790
v -1.038851 0.000000 2.281775
v 1.040837 0.000000 2.281775
v -1.038851 0.115229 2.281775
v 1.040837 0.115229 2.281775
v -1.038851 0.115229 -2.281775
v 1.040837 0.115229 -2.281775
v -1.038851 0.000000 -2.281775
v 1.040837 0.000000 -2.281775
v -0.863218 0.115229 2.124710
v 0.865205 0.115229 2.124710
v 0.865205 0.115229 -2.124713
v -0.863218 0.115229 -2.124713
v -0.863218 0.000097 2.124710
v 0.865205 0.000097 2.124710
v 0.865205 0.000097 -2.124713
v -0.863218 0.000097 -2.124713
v 1.065651 0.000000 1.559407
v 1.065651 0.115229 1.559407
v 0.899451 0.115229 1.452066
v 0.899451 0.000097 1.452066
v -0.863218 0.000097 1.452066
v -0.863218 0.115229 1.452066
v -1.038851 0.115229 1.559407
v -1.038851 0.000000 1.559407
v 1.023037 0.000000 -0.190631
v 1.023037 0.115229 -0.190631
v 0.847405 0.115229 -0.177510
v 0.847405 0.000097 -0.177510
v -0.894451 0.000097 -1.466484
v -0.894451 0.115229 -1.466484
v -1.065650 0.115229 -1.465299
v -1.065650 0.000000 -1.465299
v -0.136761 0.000000 2.281775
v -0.136761 0.115229 2.281775
v -0.115571 0.115229 2.074334
v -0.115571 0.000097 2.074334
v -0.113494 0.000097 1.452066
v -0.138900 0.000097 -0.907377
v 0.459042 0.000097 -2.081461
v 0.459042 0.115229 -2.081461
v 0.426372 0.115229 -2.281775
v 0.426372 0.000000 -2.281775
v -0.905634 0.000000 -0.725248
v 0.865205 0.000000 -0.725248
v -0.905634 0.094899 -0.725248
v 0.865205 0.094899 -0.725248
v -0.905634 0.094899 -0.941456
v 0.865205 0.094899 -0.941456
v -0.905634 0.000000 -0.941456
v 0.865205 0.000000 -0.941456
v -0.236475 0.094899 -0.916137
v -0.236475 0.000000 -0.916137
v -0.186298 0.000000 -0.725248
v -0.186298 0.094899 -0.725248
v 0.357568 0.094899 -0.941456
v 0.357568 0.000000 -0.941456
v 0.355252 0.000000 -0.759248
v 0.355252 0.094899 -0.759248
v -0.877190 0.000000 1.068609
v 0.909436 0.000000 1.068609
v -0.877190 0.094899 1.068609
v 0.909436 0.094899 1.068609
v -0.877190 0.094899 0.852402
v 0.909436 0.094899 0.852402
v -0.877190 0.000000 0.852402
v 0.909436 0.000000 0.852402
v 0.448225 0.094899 0.875100
v 0.448225 0.000000 0.875100
v 0.438903 0.000000 1.068609
v 0.438903 0.094899 1.068609
v -0.587919 0.094899 0.852402
v -0.587919 0.000000 0.852402
v -0.615804 0.000000 1.036309
v -0.615804 0.094899 1.036309
vt 0.011833 0.710896
vt 0.011833 0.709571
vt 0.011833 0.745265
vt 0.011833 0.726033
vt 0.011833 0.712892
vt 0.011833 0.711141
vt 0.055300 0.711141
vt 0.055300 0.712892
vt 0.011833 0.711232
vt 0.055300 0.711232
vt 0.011833 0.709457
vt 0.011833 0.742307
vt 0.011833 0.725486
vt 0.011833 0.710999
vt 0.055300 0.710999
vt 0.120843 0.715339
vt 0.120843 0.710999
vt 0.120843 0.711141
vt 0.120843 0.712892
vt 0.169573 0.715339
vt 0.169573 0.742840
vt 0.169573 0.745222
vt 0.169573 0.711141
vt 0.169573 0.712892
vt 0.169573 0.713034
vt 0.169573 0.726033
vt 0.169573 0.732749
vt 0.169573 0.733295
vt 0.169573 0.745265
vt 0.169573 0.781609
vt 0.169573 0.784567
vt 0.169573 0.709571
vt 0.169573 0.711136
vt 0.169573 0.709457
vt 0.011833 0.784567
vt 0.121237 0.709738
vt 0.120843 0.711136
vt 0.120843 0.784567
vt 0.120843 0.709457
vt 0.120843 0.781609
vt 0.120843 0.745265
vt 0.120843 0.742307
vt 0.169573 0.742307
vt 0.055300 0.709571
vt 0.055300 0.710896
vt 0.055300 0.784567
vt 0.055300 0.709457
vt 0.055300 0.778335
vt 0.042200 0.748539
vt 0.055300 0.742307
vt 0.011833 0.781609
vt 0.011833 0.733295
vt 0.120843 0.733295
vt 0.151059 0.731829
vt 0.120843 0.726985
vt 0.120843 0.713034
vt 0.120843 0.725486
vt 0.169573 0.725486
vt 0.055300 0.733295
vt 0.055300 0.732749
vt 0.055300 0.726033
vt 0.055300 0.713034
vt 0.055300 0.725486
vt 0.011833 0.732749
vt 0.011833 0.713034
vt 0.120843 0.742840
vt 0.120843 0.745222
vt 0.169573 0.710999
vt 0.055300 0.739788
vt 0.055300 0.745222
vt 0.011833 0.742840
vt 0.011833 0.745222
vt -0.000519 0.790910
vt -0.000519 0.756595
vt -0.000519 0.756595
vt -0.000519 0.790910
vt 0.005702 0.784229
vt 0.007697 0.755789
vt 0.032344 0.755710
vt 0.032344 0.784230
vt 0.177427 0.790911
vt 0.177427 0.735174
vt 0.177427 0.735174
vt 0.177427 0.790911
vt -0.000519 0.711799
vt 0.028092 0.710855
vt 0.028092 0.710855
vt -0.000519 0.711799
vt 0.028092 0.790910
vt 0.028092 0.790910
vt 0.007697 0.755789
vt 0.005702 0.784229
vt 0.032344 0.717178
vt 0.005702 0.718480
vt 0.174013 0.784230
vt 0.172300 0.733931
vt 0.032344 0.784230
vt 0.032344 0.717178
vt 0.005702 0.718480
vt 0.174013 0.784230
vt 0.172300 0.733931
vt 0.097408 0.712476
vt 0.097408 0.712476
vt 0.096889 0.719157
vt 0.096889 0.719157
vt 0.125797 0.756676
vt 0.147942 0.785418
vt 0.147942 0.785418
vt 0.147895 0.791930
vt 0.147895 0.791930
vt 0.177427 0.711799
vt 0.177427 0.711799
vt 0.174013 0.718480
vt 0.174013 0.718480
vt 0.118583 0.785843
vt 0.118583 0.758479
vt 0.118583 0.758479
vt 0.118583 0.785843
vt 0.126144 0.760388
vt 0.127147 0.785843
vt 0.126144 0.760388
vt 0.127147 0.785843
vt 0.118583 0.718480
vt 0.127147 0.718480
vt 0.127147 0.718480
vt 0.118583 0.718480
vt 0.127147 0.737791
vt 0.127147 0.737791
vt 0.119930 0.737879
vt 0.119930 0.737879
vt 0.047532 0.784761
vt 0.048811 0.774818
vt 0.048811 0.774818
vt 0.047532 0.784761
vt 0.056096 0.773757
vt 0.056096 0.784761
vt 0.056096 0.773757
vt 0.056096 0.784761
vt 0.047532 0.716798
vt 0.056096 0.716798
vt 0.056096 0.716798
vt 0.047532 0.716798
vt 0.055197 0.734342
vt 0.055197 0.734342
vt 0.047532 0.734697
vt 0.047532 0.734697
vn 0.000000 1.000000 0.000000
vn 0.121349 0.992610 0.000000
vn 0.116839 0.993151 -0.000712
vn 0.000000 1.000000 -0.000000
vn 0.000000 1.000000 -0.000000
vn 0.000000 1.000000 -0.000000
vn 0.000000 1.000000 -0.000000
vn 0.000000 1.000000 0.000000
vn 0.000000 1.000000 0.000000
vn 0.000000 1.000000 0.000000
vn 0.000000 1.000000 -0.000000
vn 0.000000 1.000000 -0.000000
vn 0.000000 1.000000 0.000000
vn 0.000000 1.000000 0.000000
vn 0.000000 1.000000 0.000000
vn 0.000000 1.000000 0.000000
vn 0.000000 1.000000 0.000000
vn 0.000000 1.000000 0.000000
vn 0.000000 1.000000 0.000000
vn 0.000000 1.000000 0.000000
vn 0.837666 0.546183 0.000000
vn 0.730204 0.683215 -0.004440
vn 0.116839 0.993151 -0.000712
vn 0.121349 0.992610 0.000000
vn 0.680418 0.732765 -0.009345
vn 0.713125 0.701022 0.004568
vn 0.683776 0.729649 -0.007948
vn 0.680418 0.732765 -0.009345
vn -0.702568 0.711616 -0.000000
vn -0.702543 0.711594 -0.008195
vn -0.702543 0.711594 -0.008195
vn -0.702568 0.711616 0.000013
vn 0.837666 0.546183 0.000000
vn 0.709408 0.704779 -0.005193
vn 0.709001 0.705188 -0.005207
vn 0.837666 0.546183 0.000000
vn -0.728045 0.685514 -0.004519
vn -0.837666 0.546183 0.000000
vn -0.837666 0.546183 0.000000
vn -0.727840 0.685732 -0.004527
vn 0.837670 0.546177 0.000000
vn 0.837668 0.546179 0.000000
vn 0.837668 0.546179 0.000000
vn 0.837670 0.546177 0.000000
vn -0.837662 0.546188 0.000000
vn -0.837662 0.546188 0.000000
vn -0.837662 0.546188 0.000000
vn -0.837662 0.546188 0.000000
vn -0.682888 0.730523 -0.000000
vn -0.682861 0.730490 -0.009221
vn -0.682861 0.730490 -0.009221
vn -0.682888 0.730523 0.000018
vn 0.000000 1.000000 0.000000
vn 0.000000 1.000000 0.000000
vn 0.000000 1.000000 -0.000000
vn 0.000000 1.000000 -0.000000
vn -0.746390 0.665498 0.003834
vn -0.682888 0.730523 -0.000000
vn -0.682888 0.730523 0.000018
vn -0.746155 0.665761 0.003843
vn 0.837668 0.546179 0.000000
vn 0.837668 0.546179 0.000000
vn 0.837668 0.546180 0.000000
vn 0.837668 0.546180 0.000000
vn 0.000000 1.000000 0.000000
vn 0.000000 1.000000 0.000000
vn 0.000000 1.000000 0.000000
vn 0.000000 1.000000 0.000000
vn -0.837662 0.546189 0.000000
vn -0.837662 0.546188 0.000000
vn -0.837662 0.546188 0.000000
vn -0.837662 0.546189 0.000000
vn 0.709001 0.705188 -0.005207
vn 0.709408 0.704779 -0.005193
vn 0.633956 0.773369 -0.000000
vn 0.633956 0.773369 -0.000021
vn 0.000000 1.000000 -0.000000
vn 0.000000 1.000000 -0.000000
vn 0.000000 1.000000 -0.000000
vn 0.000000 1.000000 0.000000
vn -0.671978 0.740546 -0.006144
vn -0.728045 0.685514 -0.004519
vn -0.727840 0.685732 -0.004527
vn -0.574229 0.818606 0.012029
vn 0.683776 0.729649 -0.007948
vn 0.713125 0.701022 0.004568
vn 0.762766 0.646666 0.003201
vn 0.762634 0.646823 0.003206
vn 0.000000 1.000000 0.000000
vn 0.000000 1.000000 -0.000000
vn 0.000000 1.000000 0.000000
vn 0.000000 1.000000 0.000000
vn -0.758557 0.651598 0.003366
vn -0.702568 0.711616 -0.000000
vn -0.702568 0.711616 0.000013
vn -0.758380 0.651804 0.003373
vn 0.116839 0.993151 -0.000712
vn 0.730204 0.683215 -0.004440
vn 0.664550 0.747243 -0.000716
vn 0.104967 0.994476 0.000115
vn 0.000000 1.000000 -0.000000
vn 0.116839 0.993151 -0.000712
vn 0.104967 0.994476 0.000115
vn 0.000000 1.000000 -0.000000
vn 0.000000 1.000000 -0.000000
vn 0.000000 1.000000 -0.000000
vn 0.000000 1.000000 0.000000
vn 0.000000 1.000000 0.000000
vn -0.837668 0.546179 0.000000
vn -0.746390 0.665498 0.003834
vn -0.746155 0.665761 0.003843
vn -0.837668 0.546179 0.000000
vn 0.837668 0.546180 0.000000
vn 0.837668 0.546180 0.000000
vn 0.837668 0.546179 0.000000
vn 0.837668 0.546179 0.000000
vn 0.000000 1.000000 0.000000
vn 0.000000 1.000000 0.000000
vn 0.000000 1.000000 0.000000
vn 0.000000 1.000000 0.000000
vn -0.837662 0.546190 0.000000
vn -0.837662 0.546189 0.000000
vn -0.837662 0.546189 0.000000
vn -0.837662 0.546190 0.000000
vn 0.633956 0.773369 -0.000021
vn 0.633956 0.773369 -0.000000
vn 0.633922 0.773327 0.010380
vn 0.633922 0.773327 0.010380
vn 0.000000 1.000000 0.000000
vn 0.000000 1.000000 -0.000000
vn 0.000000 1.000000 0.000000
vn 0.000000 1.000000 0.000000
vn -0.568558 0.822540 0.013028
vn -0.671978 0.740546 -0.006144
vn -0.574229 0.818606 0.012029
vn -0.568558 0.822540 0.013028
vn 0.762634 0.646823 0.003206
vn 0.762766 0.646666 0.003201
vn 0.837662 0.546190 0.000000
vn 0.837662 0.546190 0.000000
vn 0.000000 1.000000 0.000000
vn 0.000000 1.000000 0.000000
vn 0.000000 1.000000 0.000000
vn 0.000000 1.000000 0.000000
vn -0.837668 0.546179 0.000000
vn -0.758557 0.651598 0.003366
vn -0.758380 0.651804 0.003373
vn -0.837668 0.546179 0.000000
vn 0.104967 0.994476 0.000115
vn 0.664550 0.747243 -0.000716
vn 0.663844 0.747816 0.009082
vn 0.106723 0.994288 0.001460
vn 0.000000 1.000000 -0.000000
vn 0.104967 0.994476 0.000115
vn 0.106723 0.994288 0.001460
vn 0.000000 1.000000 0.000000
vn 0.000000 0.000000 1.000000
vn 0.000000 0.000000 1.000000
vn 0.000000 0.000000 1.000000
vn 0.000000 0.000000 1.000000
vn 0.000000 1.000000 -0.000000
vn 0.000000 1.000000 -0.000000
vn 0.000000 1.000000 -0.000000
vn 0.000000 1.000000 -0.000000
vn 0.000000 0.000000 -1.000000
vn 0.000000 0.000000 -1.000000
vn 0.000000 0.000000 -1.000000
vn 0.000000 0.000000 -1.000000
vn 0.999411 0.000000 0.034330
vn 0.999974 0.000000 -0.007199
vn 0.999974 0.000000 -0.007199
vn 0.999411 0.000000 0.034330
vn -0.999974 0.000000 0.007152
vn -1.000000 0.000000 0.000000
vn -1.000000 0.000000 0.000000
vn -0.999974 0.000000 0.007152
vn 0.000000 1.000000 -0.000000
vn 0.000000 1.000000 -0.000000
vn 0.000000 1.000000 -0.000000
vn 0.000000 1.000000 -0.000000
vn 0.000000 1.000000 0.000000
vn -0.000000 1.000000 0.000000
vn -0.000000 1.000000 0.000000
vn 0.000000 1.000000 0.000000
vn 0.000000 1.000000 -0.000000
vn 0.000000 1.000000 -0.000000
vn 0.000000 1.000000 -0.000000
vn 0.000000 1.000000 -0.000000
vn 0.000000 1.000000 0.000000
vn 0.000000 1.000000 0.000000
vn 0.000000 1.000000 0.000000
vn 0.000000 1.000000 0.000000
vn -0.067227 0.000000 -0.997738
vn 0.000000 0.000000 -1.000000
vn 0.000000 0.000000 -1.000000
vn -0.067227 0.000000 -0.997738
vn -0.998706 0.000000 -0.050847
vn -0.999970 0.000000 0.007732
vn -0.999970 0.000000 0.007732
vn -0.998706 0.000000 -0.050847
vn 0.000000 0.000000 1.000000
vn -0.032693 0.000000 0.999465
vn -0.032693 0.000000 0.999465
vn 0.000000 0.000000 1.000000
vn 0.999962 0.000000 -0.008697
vn 1.000000 0.000000 0.000000
vn 1.000000 0.000000 0.000000
vn 0.999962 0.000000 -0.008697
vn 0.999974 0.000000 -0.007199
vn 0.999979 0.000000 -0.006460
vn 0.999979 0.000000 -0.006460
vn 0.999974 0.000000 -0.007199
vn -0.000000 1.000000 0.000000
vn -0.000000 1.000000 0.000000
vn -0.000000 1.000000 -0.000000
vn -0.000000 1.000000 -0.000000
vn -0.999970 0.000000 0.007732
vn -0.999970 0.000000 0.007732
vn -0.999954 0.000000 0.009574
vn -0.999954 0.000000 0.009574
vn 0.000000 1.000000 -0.000000
vn 0.000000 1.000000 -0.000000
vn 0.000000 1.000000 0.000000
vn 0.000000 1.000000 0.000000
vn 1.000000 0.000000 0.000000
vn 0.999962 0.000000 -0.008697
vn 0.999962 0.000000 -0.008697
vn 1.000000 0.000000 0.000000
vn 0.000000 1.000000 0.000000
vn 0.000000 1.000000 0.000000
vn 0.000000 1.000000 0.000000
vn 0.000000 1.000000 -0.000000
vn -1.000000 0.000000 -0.000000
vn -0.999974 0.000000 0.007152
vn -0.999974 0.000000 0.007152
vn -1.000000 0.000000 -0.000000
vn 0.999979 0.000000 -0.006460
vn 0.999964 0.000000 0.008512
vn 0.999964 0.000000 0.008512
vn 0.999979 0.000000 -0.006460
vn -0.000000 1.000000 -0.000000
vn -0.000000 1.000000 -0.000000
vn -0.000000 1.000000 -0.000000
vn -0.000000 1.000000 -0.000000
vn -0.999954 0.000000 0.009574
vn -0.999954 0.000000 0.009574
vn -0.999958 0.000000 -0.009141
vn -0.999958 0.000000 -0.009141
vn 0.000000 1.000000 0.000000
vn 0.000000 1.000000 0.000000
vn 0.000000 1.000000 0.000000
vn 0.000000 1.000000 0.000000
vn 0.998876 0.000000 0.047396
vn 1.000000 0.000000 0.000000
vn 1.000000 0.000000 0.000000
vn 0.998876 0.000000 0.047396
vn 0.000000 1.000000 -0.000000
vn 0.000000 1.000000 0.000000
vn 0.000000 1.000000 -0.000000
vn 0.000000 1.000000 -0.000000
vn -0.999462 0.000000 -0.032806
vn -1.000000 0.000000 -0.000000
vn -1.000000 0.000000 -0.000000
vn -0.999462 0.000000 -0.032806
vn 0.000000 0.000000 1.000000
vn 0.000000 0.000000 1.000000
vn 0.000000 0.000000 1.000000
vn 0.000000 0.000000 1.000000
vn 0.000000 1.000000 -0.000000
vn 0.000000 1.000000 -0.000000
vn 0.000000 1.000000 0.000000
vn 0.000000 1.000000 0.000000
vn 0.000000 0.000000 -1.000000
vn 0.000000 0.000000 -1.000000
vn 0.051296 0.000000 -0.998684
vn 0.051296 0.000000 -0.998684
vn 0.000000 1.000000 -0.000000
vn 0.000000 1.000000 -0.000000
vn 0.000000 1.000000 0.000000
vn 0.000000 1.000000 -0.000000
vn 0.000000 1.000000 0.000000
vn 0.000000 1.000000 -0.000000
vn 0.000000 1.000000 -0.000000
vn 0.000000 1.000000 -0.000000
vn 0.000000 1.000000 0.000000
vn 0.000000 1.000000 0.000000
vn 0.000000 1.000000 -0.000000
vn 0.000000 1.000000 0.000000
vn 0.105888 0.000000 0.994378
vn 0.000000 0.000000 1.000000
vn 0.000000 0.000000 1.000000
vn 0.105888 0.000000 0.994378
vn 0.000000 1.000000 0.000000
vn 0.000000 1.000000 -0.000000
vn 0.000000 1.000000 -0.000000
vn 0.000000 1.000000 0.000000
vn 0.000000 0.000000 -1.000000
vn 0.000000 0.000000 -1.000000
vn 0.000000 0.000000 -1.000000
vn 0.000000 0.000000 -1.000000
vn 0.000000 0.000000 1.000000
vn 0.026954 0.000000 0.999637
vn 0.026954 0.000000 0.999637
vn 0.000000 0.000000 1.000000
vn 0.000000 1.000000 0.000000
vn 0.000000 1.000000 0.000000
vn 0.000000 1.000000 0.000000
vn 0.000000 1.000000 0.000000
vn 0.037809 0.000000 -0.999285
vn -0.000000 0.000000 -1.000000
vn -0.000000 0.000000 -1.000000
vn 0.037809 0.000000 -0.999285
vn 0.000000 -1.000000 0.000000
vn 0.000000 -1.000000 0.000000
vn 0.000000 -1.000000 0.000000
vn 0.000000 -1.000000 0.000000
vn 1.000000 0.000000 0.000000
vn 1.000000 0.000000 0.000000
vn 1.000000 0.000000 0.000000
vn 1.000000 0.000000 0.000000
vn -1.000000 0.000000 0.000000
vn -1.000000 0.000000 0.000000
vn -1.000000 0.000000 0.000000
vn -1.000000 0.000000 0.000000
vn -0.000000 0.000000 -1.000000
vn -0.022975 0.000000 -0.999736
vn -0.022975 0.000000 -0.999736
vn -0.000000 0.000000 -1.000000
vn 0.000000 -1.000000 0.000000
vn 0.000000 -1.000000 0.000000
vn 0.000000 -1.000000 0.000000
vn 0.000000 -1.000000 0.000000
vn 0.026954 0.000000 0.999637
vn 0.026954 0.000000 0.999637
vn 0.000000 0.000000 1.000000
vn 0.000000 0.000000 1.000000
vn 0.000000 1.000000 0.000000
vn 0.000000 1.000000 0.000000
vn 0.000000 1.000000 0.000000
vn 0.000000 1.000000 -0.000000
vn -0.022975 0.000000 -0.999736
vn 0.000000 0.000000 -1.000000
vn 0.000000 0.000000 -1.000000
vn -0.022975 0.000000 -0.999736
vn 0.000000 -1.000000 0.000000
vn 0.000000 -1.000000 0.000000
vn 0.000000 -1.000000 0.000000
vn 0.000000 -1.000000 0.000000
vn 0.000000 0.000000 1.000000
vn 0.000000 0.000000 1.000000
vn -0.066521 0.000000 0.997785
vn -0.066521 0.000000 0.997785
vn 0.000000 1.000000 -0.000000
vn 0.000000 1.000000 0.000000
vn 0.000000 1.000000 -0.000000
vn 0.000000 1.000000 -0.000000
vn 0.122638 0.000000 0.992452
vn 0.000000 0.000000 1.000000
vn 0.000000 0.000000 1.000000
vn 0.122638 0.000000 0.992452
vn 0.000000 1.000000 0.000000
vn 0.000000 1.000000 0.000000
vn 0.000000 1.000000 0.000000
vn 0.000000 1.000000 0.000000
vn 0.000000 0.000000 -1.000000
vn 0.017123 0.000000 -0.999853
vn 0.017123 0.000000 -0.999853
vn 0.000000 0.000000 -1.000000
vn 0.000000 -1.000000 0.000000
vn 0.000000 -1.000000 0.000000
vn 0.000000 -1.000000 0.000000
vn 0.000000 -1.000000 0.000000
vn 1.000000 0.000000 0.000000
vn 1.000000 0.000000 0.000000
vn 1.000000 0.000000 0.000000
vn 1.000000 0.000000 0.000000
vn -1.000000 0.000000 0.000000
vn -1.000000 0.000000 0.000000
vn -1.000000 0.000000 0.000000
vn -1.000000 0.000000 0.000000
vn 0.000000 0.000000 -1.000000
vn -0.049155 0.000000 -0.998791
vn -0.049155 0.000000 -0.998791
vn 0.000000 0.000000 -1.000000
vn 0.000000 -1.000000 0.000000
vn 0.000000 -1.000000 0.000000
vn 0.000000 -1.000000 0.000000
vn 0.000000 -1.000000 0.000000
vn -0.021172 0.000000 0.999776
vn -0.021172 0.000000 0.999776
vn 0.000000 0.000000 1.000000
vn 0.000000 0.000000 1.000000
vn 0.000000 1.000000 0.000000
vn 0.000000 1.000000 0.000000
vn 0.000000 1.000000 0.000000
vn 0.000000 1.000000 0.000000
vn 0.017123 0.000000 -0.999853
vn 0.000000 0.000000 -1.000000
vn 0.000000 0.000000 -1.000000
vn 0.017123 0.000000 -0.999853
vn 0.000000 -1.000000 0.000000
vn 0.000000 -1.000000 0.000000
vn 0.000000 -1.000000 0.000000
vn 0.000000 -1.000000 0.000000
vn 0.000000 0.000000 1.000000
vn 0.000000 0.000000 1.000000
vn -0.021172 0.000000 0.999776
vn -0.021172 0.000000 0.999776
vn 0.000000 1.000000 0.000000
vn 0.000000 1.000000 0.000000
vn 0.000000 1.000000 0.000000
vn 0.000000 1.000000 0.000000
s off
f 9/1/1 10/2/2 41/44/3 42/45/4
f 13/51/5 14/3/6 38/49/7 39/48/8
f 17/64/9 18/4/10 35/61/11 36/60/12
f 21/5/13 22/6/14 32/7/15 33/8/16
f 25/71/17 26/9/18 29/10/19 30/69/20
f 1/11/21 40/47/22 41/44/23 10/2/24
f 2/12/25 37/50/26 38/49/27 14/3/28
f 40/46/29 1/35/30 13/51/31 39/48/32
f 3/13/33 34/63/34 35/61/35 18/4/36
f 37/59/37 2/52/38 17/64/39 36/60/40
f 4/14/41 31/15/42 32/7/43 22/6/44
f 34/62/45 3/65/46 21/5/47 33/8/48
f 31/70/49 4/72/50 25/71/51 30/69/52
f 30/69/53 29/10/54 43/16/55 44/66/56
f 45/67/57 31/70/58 30/69/59 44/66/60
f 32/7/61 31/15/62 45/17/63 46/18/64
f 33/8/65 32/7/66 46/18/67 47/19/68
f 48/56/69 34/62/70 33/8/71 47/19/72
f 35/61/73 34/63/74 48/57/75 49/55/76
f 36/60/77 35/61/78 49/55/79 50/54/80
f 51/53/81 37/59/82 36/60/83 50/54/84
f 38/49/85 37/50/86 51/42/87 52/41/88
f 39/48/89 38/49/90 52/41/91 53/40/92
f 54/38/93 40/46/94 39/48/95 53/40/96
f 41/44/97 40/47/98 54/39/99 55/36/100
f 42/45/101 41/44/102 55/36/103 56/37/104
f 44/66/105 43/16/106 27/20/107 28/21/108
f 8/22/109 45/67/110 44/66/111 28/21/112
f 46/18/113 45/17/114 8/68/115 23/23/116
f 47/19/117 46/18/118 23/23/119 24/24/120
f 7/25/121 48/56/122 47/19/123 24/24/124
f 49/55/125 48/57/126 7/58/127 19/26/128
f 50/54/129 49/55/130 19/26/131 20/27/132
f 6/28/133 51/53/134 50/54/135 20/27/136
f 52/41/137 51/42/138 6/43/139 15/29/140
f 53/40/141 52/41/142 15/29/143 16/30/144
f 5/31/145 54/38/146 53/40/147 16/30/148
f 55/36/149 54/39/150 5/34/151 11/32/152
f 56/37/153 55/36/154 11/32/155 12/33/156
f 57/73/157 89/74/158 90/75/159 59/76/160
f 69/77/161 92/78/162 93/79/163 77/80/164
f 61/81/165 97/82/166 98/83/167 63/84/168
f 58/85/169 73/86/170 74/87/171 60/88/172
f 80/89/173 57/73/174 59/76/175 79/90/176
f 59/76/177 90/75/178 91/91/179 65/92/180
f 60/88/181 74/87/182 75/93/183 66/94/184
f 97/82/185 61/81/186 68/95/187 96/96/188
f 79/90/189 59/76/190 65/92/191 78/97/192
f 65/92/193 91/91/194 92/78/195 69/77/196
f 66/94/197 75/93/198 76/98/199 70/99/200
f 96/96/201 68/95/202 72/100/203 95/101/204
f 78/97/205 65/92/206 69/77/207 77/80/208
f 73/86/209 81/102/210 82/103/211 74/87/212
f 75/93/213 74/87/214 82/103/215 83/104/216
f 76/98/217 75/93/218 83/104/219 84/105/220
f 77/80/221 93/79/222 94/106/223 85/107/224
f 86/108/225 78/97/226 77/80/227 85/107/228
f 87/109/229 79/90/230 78/97/231 86/108/232
f 88/110/233 80/89/234 79/90/235 87/109/236
f 81/102/237 64/111/238 62/112/239 82/103/240
f 83/104/241 82/103/242 62/112/243 67/113/244
f 84/105/245 83/104/246 67/113/247 71/114/248
f 85/107/249 94/106/250 95/101/251 72/100/252
f 68/95/253 86/108/254 85/107/255 72/100/256
f 61/81/257 87/109/258 86/108/259 68/95/260
f 63/84/261 88/110/262 87/109/263 61/81/264
f 89/74/265 58/85/266 60/88/267 90/75/268
f 91/91/269 90/75/270 60/88/271 66/94/272
f 92/78/273 91/91/274 66/94/275 70/99/276
f 93/79/277 92/78/278 70/99/279 76/98/280
f 94/106/281 93/79/282 76/98/283 84/105/284
f 95/101/285 94/106/286 84/105/287 71/114/288
f 67/113/289 96/96/290 95/101/291 71/114/292
f 62/112/293 97/82/294 96/96/295 67/113/296
f 98/83/297 97/82/298 62/112/299 64/111/300
f 99/115/301 109/116/302 110/117/303 101/118/304
f 101/118/305 110/117/306 107/119/307 103/120/308
f 103/120/309 107/119/310 108/121/311 105/122/312
f 105/122/313 108/121/314 109/116/315 99/115/316
f 100/123/317 106/124/318 104/125/319 102/126/320
f 105/122/321 99/115/322 101/118/323 103/120/324
f 107/119/325 111/127/326 112/128/327 108/121/328
f 109/116/329 108/121/330 112/128/331 113/129/332
f 110/117/333 109/116/334 113/129/335 114/130/336
f 107/119/337 110/117/338 114/130/339 111/127/340
f 111/127/341 104/125/342 106/124/343 112/128/344
f 113/129/345 112/128/346 106/124/347 100/123/348
f 114/130/349 113/129/350 100/123/351 102/126/352
f 111/127/353 114/130/354 102/126/355 104/125/356
f 115/131/357 129/132/358 130/133/359 117/134/360
f 117/134/361 130/133/362 127/135/363 119/136/364
f 119/136/365 127/135/366 128/137/367 121/138/368
f 121/138/369 128/137/370 129/132/371 115/131/372
f 116/139/373 122/140/374 120/141/375 118/142/376
f 121/138/377 115/131/378 117/134/379 119/136/380
f 123/143/381 120/141/382 122/140/383 124/144/384
f 125/145/385 124/144/386 122/140/387 116/139/388
f 126/146/389 125/145/390 116/139/391 118/142/392
f 123/143/393 126/146/394 118/142/395 120/141/396
f 127/135/397 123/143/398 124/144/399 128/137/400
f 129/132/401 128/137/402 124/144/403 125/145/404
f 130/133/405 129/132/406 125/145/407 126/146/408
f 127/135/409 130/133/410 126/146/411 123/143/412
