# This file uses centimeters as units for non-parametric coordinates.

v -0.477456 0.065315 0.268258
v 0.477456 0.065315 0.268258
v -0.477456 0.111195 0.268258
v 0.477456 0.111195 0.268258
v -0.477456 0.111195 -0.268251
v 0.477456 0.111195 -0.268251
v -0.477456 0.065315 -0.268251
v 0.477456 0.065315 -0.268251
v -0.389481 0.128710 -0.291672
v -0.389481 0.128710 0.291672
v -0.389481 0.047801 0.291672
v -0.389481 0.047801 -0.291672
v 0.390476 0.047801 0.291672
v 0.390476 0.128710 0.291672
v 0.390476 0.128710 -0.291672
v 0.390476 0.047801 -0.291672
v 0.519150 0.047801 0.168284
v 0.519150 0.128710 0.168284
v 0.347797 0.206339 0.149888
v -0.346919 0.206339 0.149888
v -0.519150 0.128710 0.168284
v -0.519150 0.047801 0.168284
v -0.346919 0.000000 0.149888
v 0.347797 0.000000 0.149888
v 0.519150 0.047801 -0.168481
v 0.519150 0.128710 -0.168481
v 0.347797 0.206339 -0.150066
v -0.346919 0.206339 -0.150066
v -0.519150 0.128710 -0.168481
v -0.519150 0.047801 -0.168481
v -0.346919 0.000000 -0.150066
v 0.347797 0.000000 -0.150066
v 0.000439 0.005059 0.131180
v 0.000497 0.059061 0.272965
v 0.000497 0.150466 0.272965
v 0.000439 0.238166 0.131180
v 0.000439 0.238166 -0.168781
v 0.000497 0.150466 -0.310387
v 0.000497 0.059061 -0.310387
v 0.000439 0.005059 -0.168781
vt 0.362632 0.161697
vt 0.362632 0.161697
vt 0.362632 0.161697
vt 0.362632 0.161697
vt 0.362632 0.161697
vt 0.362632 0.161697
vt 0.362632 0.161697
vt 0.362632 0.161697
vt 0.362632 0.161697
vt 0.362632 0.161697
vt 0.362632 0.161697
vt 0.362632 0.161697
vt 0.362632 0.161697
vt 0.362632 0.161697
vt 0.362632 0.161697
vt 0.362632 0.161697
vt 0.362632 0.161697
vt 0.362632 0.161697
vt 0.362632 0.161697
vt 0.362632 0.161697
vt 0.362632 0.161697
vt 0.362632 0.161697
vt 0.362632 0.161697
vt 0.362632 0.161697
vt 0.362632 0.161697
vt 0.362632 0.161697
vt 0.362632 0.161697
vt 0.362632 0.161697
vt 0.362632 0.161697
vt 0.362632 0.161697
vt 0.362632 0.161697
vt 0.362632 0.161697
vt 0.362632 0.161697
vt 0.362632 0.161697
vt 0.362632 0.161697
vt 0.362632 0.161697
vt 0.362632 0.161697
vt 0.362632 0.161697
vt 0.362632 0.161697
vt 0.362632 0.161697
vt 0.362632 0.161697
vt 0.362632 0.161697
vt 0.362632 0.161697
vt 0.362632 0.161697
vt 0.362632 0.161697
vt 0.362632 0.161697
vt 0.362632 0.161697
vt 0.362632 0.161697
vt 0.362632 0.161697
vt 0.362632 0.161697
vt 0.362632 0.161697
vt 0.362632 0.161697
vt 0.362632 0.161697
vt 0.362632 0.161697
vt 0.362632 0.161697
vt 0.362632 0.161697
vt 0.362632 0.161697
vn 0.047915 0.000000 0.998851
vn 0.047915 0.000000 0.998851
vn 0.000000 0.000000 1.000000
vn 0.000000 0.000000 1.000000
vn 0.000008 0.866342 0.499451
vn -0.000009 0.866342 0.499451
vn -0.037588 0.865723 0.499109
vn -0.037588 0.865723 0.499109
vn -0.047934 0.000000 -0.998851
vn -0.047934 0.000000 -0.998851
vn 0.000000 0.000000 -1.000000
vn 0.000000 0.000000 -1.000000
vn 0.038165 -0.938667 0.342707
vn 0.038165 -0.938667 0.342707
vn 0.000010 -0.939346 0.342971
vn -0.000009 -0.939346 0.342971
vn 0.922953 0.000000 0.384913
vn 0.922953 0.000000 0.384913
vn 0.922953 0.000000 0.384913
vn 0.922953 0.000000 0.384913
vn -0.922953 0.000000 0.384913
vn -0.922953 0.000000 0.384913
vn -0.922953 0.000000 0.384913
vn -0.922953 0.000000 0.384913
vn -0.328198 0.879390 0.344904
vn -0.328198 0.879390 0.344904
vn -0.328198 0.879390 0.344904
vn -0.328198 0.879390 0.344904
vn -0.257189 0.000000 0.966361
vn -0.257189 0.000000 0.966361
vn -0.257189 0.000000 0.966361
vn -0.257189 0.000000 0.966361
vn -0.240155 -0.937353 0.252380
vn -0.240155 -0.937353 0.252380
vn -0.240155 -0.937353 0.252380
vn -0.240155 -0.937353 0.252380
vn -0.257268 0.000000 -0.966340
vn -0.257268 0.000000 -0.966340
vn -0.257268 0.000000 -0.966340
vn -0.257268 0.000000 -0.966340
vn 0.259933 0.000000 0.965627
vn 0.259933 0.000000 0.965627
vn 0.259933 0.000000 0.965627
vn 0.259933 0.000000 0.965627
vn 0.330335 0.878754 0.344486
vn 0.330335 0.878754 0.344486
vn 0.330335 0.878754 0.344486
vn 0.330335 0.878754 0.344486
vn 0.260013 0.000000 -0.965605
vn 0.260013 0.000000 -0.965605
vn 0.260013 0.000000 -0.965605
vn 0.260013 0.000000 -0.965605
vn 0.241800 -0.936989 0.252159
vn 0.241800 -0.936989 0.252159
vn 0.241800 -0.936989 0.252159
vn 0.241800 -0.936989 0.252158
vn 1.000000 0.000000 0.000000
vn 1.000000 0.000000 0.000000
vn 1.000000 0.000000 0.000000
vn 1.000000 0.000000 0.000000
vn 0.412663 0.910884 0.000000
vn 0.412663 0.910884 0.000000
vn 0.412663 0.910884 0.000000
vn 0.412663 0.910884 0.000000
vn 0.000000 1.000000 0.000000
vn 0.000000 1.000000 0.000000
vn -0.091245 0.995828 0.000000
vn -0.091245 0.995828 0.000000
vn -0.410916 0.911673 0.000000
vn -0.410915 0.911673 0.000000
vn -0.410915 0.911673 0.000000
vn -0.410915 0.911674 0.000000
vn -1.000000 0.000000 0.000000
vn -1.000000 0.000000 0.000000
vn -1.000000 0.000000 0.000000
vn -1.000000 0.000000 0.000000
vn -0.267429 -0.963578 0.000000
vn -0.267429 -0.963578 0.000000
vn -0.267429 -0.963578 0.000000
vn -0.267429 -0.963577 0.000000
vn -0.000000 -1.000000 0.000000
vn -0.000000 -1.000000 0.000000
vn 0.014562 -0.999894 0.000000
vn 0.014562 -0.999894 0.000000
vn 0.268701 -0.963224 0.000000
vn 0.268701 -0.963224 0.000000
vn 0.268701 -0.963224 0.000000
vn 0.268701 -0.963224 0.000000
vn 0.922672 0.000000 -0.385586
vn 0.922672 0.000000 -0.385586
vn 0.922672 0.000000 -0.385586
vn 0.922672 0.000000 -0.385586
vn 0.330269 0.878589 -0.344969
vn 0.330269 0.878589 -0.344969
vn 0.330269 0.878589 -0.344969
vn 0.330269 0.878589 -0.344969
vn -0.087923 0.865961 -0.492323
vn -0.087923 0.865961 -0.492323
vn -0.000020 0.869343 -0.494210
vn 0.000020 0.869343 -0.494210
vn -0.328133 0.879225 -0.345387
vn -0.328133 0.879225 -0.345387
vn -0.328133 0.879225 -0.345387
vn -0.328133 0.879225 -0.345387
vn -0.922672 0.000000 -0.385586
vn -0.922672 0.000000 -0.385586
vn -0.922672 0.000000 -0.385586
vn -0.922672 0.000000 -0.385586
vn -0.240128 -0.937258 -0.252755
vn -0.240128 -0.937258 -0.252755
vn -0.240128 -0.937258 -0.252755
vn -0.240128 -0.937258 -0.252755
vn -0.000001 -0.940876 -0.338751
vn 0.000001 -0.940876 -0.338751
vn 0.003627 -0.940870 -0.338748
vn 0.003627 -0.940870 -0.338748
vn 0.241773 -0.936895 -0.252534
vn 0.241773 -0.936895 -0.252534
vn 0.241773 -0.936895 -0.252534
vn 0.241773 -0.936895 -0.252534
vn -0.000009 -0.939346 0.342971
vn 0.000010 -0.939346 0.342971
vn -0.038166 -0.938657 0.342735
vn -0.038166 -0.938657 0.342735
vn 0.000000 0.000000 1.000000
vn 0.000000 0.000000 1.000000
vn -0.047915 0.000000 0.998851
vn -0.047915 0.000000 0.998851
vn 0.037590 0.865737 0.499086
vn -0.000009 0.866342 0.499451
vn 0.000008 0.866342 0.499451
vn 0.037590 0.865737 0.499086
vn 0.091245 0.995828 0.000000
vn 0.000000 1.000000 0.000000
vn 0.000000 1.000000 0.000000
vn 0.091245 0.995828 0.000000
vn 0.000020 0.869343 -0.494210
vn -0.000020 0.869343 -0.494210
vn 0.087923 0.865992 -0.492268
vn 0.087923 0.865992 -0.492268
vn 0.000000 0.000000 -1.000000
vn 0.000000 0.000000 -1.000000
vn 0.047934 0.000000 -0.998851
vn 0.047934 0.000000 -0.998851
vn -0.003627 -0.940869 -0.338750
vn 0.000001 -0.940876 -0.338751
vn -0.000001 -0.940876 -0.338751
vn -0.003627 -0.940869 -0.338750
vn -0.014562 -0.999894 0.000000
vn -0.000000 -1.000000 0.000000
vn -0.000000 -1.000000 0.000000
vn -0.014562 -0.999894 0.000000
s off
f 10/16/1 11/17/2 34/50/3 35/52/4
f 35/52/5 36/53/6 20/30/7 10/16/8
f 12/19/9 9/15/10 38/55/11 39/56/12
f 11/18/13 23/35/14 33/49/15 34/51/16
f 2/2/17 17/26/18 18/28/19 4/4/20
f 21/31/21 22/33/22 1/1/23 3/3/24
f 3/3/25 10/16/26 20/30/27 21/32/28
f 1/1/29 11/17/30 10/16/31 3/3/32
f 22/34/33 23/35/34 11/18/35 1/9/36
f 5/5/37 9/15/38 12/19/39 7/7/40
f 14/22/41 13/20/42 2/2/43 4/4/44
f 18/27/45 19/29/46 14/22/47 4/4/48
f 16/24/49 15/23/50 6/6/51 8/8/52
f 13/21/53 24/36/54 17/25/55 2/10/56
f 18/28/57 17/26/58 25/38/59 26/40/60
f 26/39/61 27/41/62 19/29/63 18/27/64
f 36/53/65 37/54/66 28/42/67 20/30/68
f 21/32/69 20/30/70 28/42/71 29/44/72
f 29/43/73 30/45/74 22/33/75 21/31/76
f 30/46/77 31/47/78 23/35/79 22/34/80
f 40/57/81 33/49/82 23/35/83 31/47/84
f 17/25/85 24/36/86 32/48/87 25/37/88
f 26/40/89 25/38/90 8/11/91 6/12/92
f 15/23/93 27/41/94 26/39/95 6/6/96
f 9/15/97 28/42/98 37/54/99 38/55/100
f 29/44/101 28/42/102 9/15/103 5/5/104
f 7/13/105 30/45/106 29/43/107 5/14/108
f 7/7/109 12/19/110 31/47/111 30/46/112
f 39/56/113 40/57/114 31/47/115 12/19/116
f 25/37/117 32/48/118 16/24/119 8/8/120
f 34/51/121 33/49/122 24/36/123 13/21/124
f 35/52/125 34/50/126 13/20/127 14/22/128
f 19/29/129 36/53/130 35/52/131 14/22/132
f 27/41/133 37/54/134 36/53/135 19/29/136
f 38/55/137 37/54/138 27/41/139 15/23/140
f 39/56/141 38/55/142 15/23/143 16/24/144
f 32/48/145 40/57/146 39/56/147 16/24/148
f 24/36/149 33/49/150 40/57/151 32/48/152
