# This file uses centimeters as units for non-parametric coordinates.

v 0.138184 0.146558 -0.174438
v 0.186646 0.146558 -0.174438
v 0.138184 0.222101 -0.174438
v 0.186646 0.222101 -0.174438
v 0.138184 0.222101 -0.217468
v 0.186646 0.222101 -0.217468
v 0.138184 0.146558 -0.205933
v 0.186646 0.146558 -0.205933
v -0.186768 0.146558 -0.174438
v -0.138306 0.146558 -0.174438
v -0.186768 0.222101 -0.174438
v -0.138306 0.222101 -0.174438
v -0.186768 0.222101 -0.217468
v -0.138306 0.222101 -0.217468
v -0.186768 0.146558 -0.205933
v -0.138306 0.146558 -0.205933
v -0.267334 0.000000 0.176147
v 0.267334 0.000000 0.176147
v -0.318848 0.214325 0.210022
v 0.318848 0.214325 0.210022
v -0.318848 0.214325 -0.209167
v 0.318848 0.214325 -0.209167
v -0.267334 0.000000 -0.175354
v 0.267334 0.000000 -0.175354
v -0.217773 0.039125 0.182373
v 0.217773 0.039125 0.182373
v 0.259644 0.179878 0.204590
v -0.259644 0.179878 0.204590
v -0.259644 0.179878 -0.203735
v 0.259644 0.179878 -0.203735
v 0.217773 0.039125 -0.181519
v -0.217773 0.039125 -0.181519
v 0.277710 0.042946 -0.131042
v 0.277710 0.042946 0.131897
v 0.309570 0.175905 -0.156372
v 0.309570 0.175905 0.157166
v -0.277710 0.042946 -0.131042
v -0.277710 0.042946 0.131897
v -0.309570 0.175905 0.157166
v -0.309570 0.175905 -0.156372
v -0.250854 0.214325 0.153687
v 0.250854 0.214325 0.153687
v 0.250854 0.214325 -0.152893
v -0.250854 0.214325 -0.152893
v -0.211914 0.039125 0.117737
v 0.211914 0.039125 0.117737
v 0.211914 0.039125 -0.116882
v -0.211914 0.039125 -0.116882
v -0.194580 0.049770 0.162231
v 0.180664 0.049770 0.162231
v 0.215454 0.166553 0.184448
v -0.215454 0.166553 0.184448
v -0.215454 0.166553 -0.183594
v 0.215454 0.166553 -0.183594
v 0.180664 0.049770 -0.161377
v -0.180664 0.049770 -0.161377
v 0.257813 0.051413 -0.114807
v 0.257813 0.051413 0.115662
v 0.289795 0.167965 -0.137024
v 0.289795 0.167965 0.137817
v -0.257813 0.051413 -0.114807
v -0.257813 0.051413 0.115662
v -0.289795 0.167965 0.137817
v -0.289795 0.167965 -0.137024
v -0.020386 0.133112 0.217468
v 0.020386 0.133112 0.217468
v -0.020386 0.220558 0.217468
v 0.020386 0.220558 0.217468
v -0.020386 0.220558 0.171143
v 0.020386 0.220558 0.171143
v -0.020386 0.133112 0.171143
v 0.020386 0.133112 0.171143
v -0.010864 0.140808 0.217468
v 0.010864 0.140808 0.217468
v 0.010864 0.193701 0.217468
v -0.010864 0.193701 0.217468
v -0.010864 0.140808 0.207825
v 0.010864 0.140808 0.207825
v 0.010864 0.193701 0.207825
v -0.010864 0.193701 0.207825
vt 0.472182 0.202457
vt 0.472182 0.202457
vt 0.472182 0.202457
vt 0.472182 0.202457
vt 0.472182 0.202457
vt 0.472182 0.202457
vt 0.472182 0.202457
vt 0.472182 0.202457
vt 0.472182 0.202457
vt 0.472182 0.202457
vt 0.472182 0.202457
vt 0.472182 0.202457
vt 0.472182 0.202457
vt 0.472182 0.202457
vt 0.472182 0.202457
vt 0.472182 0.202457
vt 0.472182 0.202457
vt 0.472182 0.202457
vt 0.472182 0.202457
vt 0.472182 0.202457
vt 0.472182 0.202457
vt 0.472182 0.202457
vt 0.472182 0.202457
vt 0.472182 0.202457
vt 0.472182 0.202457
vt 0.472182 0.202457
vt 0.472182 0.202457
vt 0.472182 0.202457
vt 0.331412 0.160408
vt 0.331412 0.160408
vt 0.331412 0.160408
vt 0.331412 0.160408
vt 0.330263 0.165160
vt 0.330263 0.165160
vt 0.330263 0.165160
vt 0.330263 0.165160
vt 0.331412 0.160408
vt 0.331412 0.160408
vt 0.331412 0.160408
vt 0.331412 0.160408
vt 0.470269 0.225252
vt 0.470269 0.225252
vt 0.470269 0.225252
vt 0.470269 0.225252
vt 0.331412 0.160408
vt 0.331412 0.160408
vt 0.331412 0.160408
vt 0.331412 0.160408
vt 0.331412 0.160408
vt 0.331412 0.160408
vt 0.331412 0.160408
vt 0.331412 0.160408
vt 0.470269 0.225252
vt 0.470269 0.225252
vt 0.470269 0.225252
vt 0.470269 0.225252
vt 0.470269 0.225252
vt 0.470269 0.225252
vt 0.470269 0.225252
vt 0.470269 0.225252
vt 0.470269 0.225252
vt 0.470269 0.225252
vt 0.470269 0.225252
vt 0.470269 0.225252
vt 0.470269 0.225252
vt 0.470269 0.225252
vt 0.470269 0.225252
vt 0.470269 0.225252
vt 0.470269 0.225252
vt 0.470269 0.225252
vt 0.470269 0.225252
vt 0.470269 0.225252
vt 0.470269 0.225252
vt 0.470269 0.225252
vt 0.470269 0.225252
vt 0.470269 0.225252
vt 0.470269 0.225252
vt 0.470269 0.225252
vt 0.470269 0.225252
vt 0.470269 0.225252
vt 0.470269 0.225252
vt 0.470269 0.225252
vt 0.470269 0.225252
vt 0.470269 0.225252
vt 0.470269 0.225252
vt 0.470269 0.225252
vt 0.470269 0.225252
vt 0.470269 0.225252
vt 0.470269 0.225252
vt 0.470269 0.225252
vt 0.470269 0.225252
vt 0.470269 0.225252
vt 0.470269 0.225252
vt 0.470269 0.225252
vt 0.470269 0.225252
vt 0.470269 0.225252
vt 0.470269 0.225252
vt 0.470269 0.225252
vt 0.470269 0.225252
vt 0.470269 0.225252
vt 0.470269 0.225252
vt 0.470269 0.225252
vt 0.470269 0.225252
vt 0.470269 0.225252
vt 0.470269 0.225252
vt 0.470269 0.225252
vt 0.470269 0.225252
vt 0.470269 0.225252
vt 0.470269 0.225252
vt 0.470269 0.225252
vt 0.470269 0.225252
vt 0.470269 0.225252
vt 0.470269 0.225252
vt 0.470269 0.225252
vt 0.470269 0.225252
vt 0.470269 0.225252
vt 0.470269 0.225252
vt 0.470269 0.225252
vt 0.470269 0.225252
vt 0.470269 0.225252
vt 0.470269 0.225252
vt 0.470269 0.225252
vt 0.470269 0.225252
vt 0.470269 0.225252
vt 0.470269 0.225252
vt 0.470269 0.225252
vt 0.470269 0.225252
vt 0.470269 0.225252
vt 0.470269 0.225252
vt 0.470269 0.225252
vt 0.470269 0.225252
vt 0.470269 0.225252
vt 0.330263 0.165160
vt 0.330263 0.165160
vt 0.330263 0.165160
vt 0.330263 0.165160
vt 0.471366 0.257561
vt 0.471366 0.257561
vt 0.471366 0.257561
vt 0.471366 0.257561
vt 0.471366 0.257561
vt 0.471366 0.257561
vt 0.471366 0.257561
vt 0.471366 0.257561
vt 0.471366 0.257561
vt 0.471366 0.257561
vt 0.471366 0.257561
vt 0.471366 0.257561
vt 0.470269 0.225252
vt 0.470269 0.225252
vt 0.470269 0.225252
vt 0.470269 0.225252
vt 0.470269 0.225252
vt 0.470269 0.225252
vt 0.470269 0.225252
vt 0.470269 0.225252
vt 0.470269 0.225252
vt 0.470269 0.225252
vt 0.470269 0.225252
vt 0.470269 0.225252
vt 0.470269 0.225252
vt 0.470269 0.225252
vt 0.470269 0.225252
vt 0.470269 0.225252
vt 0.470269 0.225252
vt 0.470269 0.225252
vt 0.470269 0.225252
vt 0.470269 0.225252
vt 0.470269 0.225252
vt 0.470269 0.225252
vt 0.470269 0.225252
vt 0.470269 0.225252
vt 0.470269 0.225252
vt 0.470269 0.225252
vt 0.470269 0.225252
vt 0.470269 0.225252
vt 0.470269 0.225252
vt 0.470269 0.225252
vt 0.470269 0.225252
vt 0.470269 0.225252
vt 0.470269 0.225252
vt 0.470269 0.225252
vt 0.470269 0.225252
vt 0.470269 0.225252
vt 0.470269 0.225252
vt 0.470269 0.225252
vt 0.470269 0.225252
vt 0.470269 0.225252
vt 0.470269 0.225252
vt 0.470269 0.225252
vt 0.470269 0.225252
vt 0.470269 0.225252
vt 0.470269 0.225252
vt 0.470269 0.225252
vt 0.470269 0.225252
vt 0.470269 0.225252
vt 0.470269 0.225252
vt 0.470269 0.225252
vt 0.470269 0.225252
vt 0.470269 0.225252
vt 0.470269 0.225252
vt 0.470269 0.225252
vt 0.470269 0.225252
vt 0.470269 0.225252
vt 0.470269 0.225252
vt 0.470269 0.225252
vt 0.470269 0.225252
vt 0.470269 0.225252
vt 0.470269 0.225252
vt 0.470269 0.225252
vt 0.470269 0.225252
vt 0.470269 0.225252
vt 0.472308 0.154136
vt 0.472308 0.154136
vt 0.472308 0.154136
vt 0.472308 0.154136
vt 0.471366 0.257561
vt 0.471366 0.257561
vt 0.471366 0.257561
vt 0.471366 0.257561
vt 0.471366 0.257561
vt 0.471366 0.257561
vt 0.471366 0.257561
vt 0.471366 0.257561
vt 0.471366 0.257561
vt 0.471366 0.257561
vt 0.471366 0.257561
vt 0.471366 0.257561
vt 0.471366 0.257561
vt 0.471366 0.257561
vt 0.471366 0.257561
vt 0.471366 0.257561
vt 0.471366 0.257561
vt 0.471366 0.257561
vt 0.471366 0.257561
vt 0.471366 0.257561
vt 0.471366 0.257561
vt 0.471366 0.257561
vt 0.471366 0.257561
vt 0.471366 0.257561
vt 0.471366 0.257561
vt 0.471366 0.257561
vt 0.471366 0.257561
vt 0.471366 0.257561
vt 0.471366 0.257561
vt 0.471366 0.257561
vt 0.471366 0.257561
vt 0.471366 0.257561
vt 0.471366 0.257561
vt 0.471366 0.257561
vt 0.471366 0.257561
vt 0.471366 0.257561
vt 0.471366 0.257561
vt 0.471366 0.257561
vt 0.471366 0.257561
vt 0.471366 0.257561
vn 0.000000 0.000000 1.000000
vn 0.000000 0.000000 1.000000
vn 0.000000 0.000000 1.000000
vn 0.000000 0.000000 1.000000
vn 0.000000 1.000000 0.000000
vn 0.000000 1.000000 0.000000
vn 0.000000 1.000000 0.000000
vn 0.000000 1.000000 0.000000
vn 0.000000 -0.151021 -0.988531
vn 0.000000 -0.151021 -0.988531
vn 0.000000 -0.151021 -0.988531
vn 0.000000 -0.151021 -0.988531
vn 0.000000 -1.000000 0.000000
vn 0.000000 -1.000000 0.000000
vn 0.000000 -1.000000 0.000000
vn 0.000000 -1.000000 0.000000
vn 1.000000 0.000000 0.000000
vn 1.000000 0.000000 0.000000
vn 1.000000 0.000000 0.000000
vn 1.000000 0.000000 0.000000
vn -1.000000 0.000000 0.000000
vn -1.000000 0.000000 0.000000
vn -1.000000 0.000000 0.000000
vn -1.000000 0.000000 0.000000
vn 0.000000 0.000000 1.000000
vn 0.000000 0.000000 1.000000
vn 0.000000 0.000000 1.000000
vn 0.000000 0.000000 1.000000
vn 0.000000 1.000000 0.000000
vn 0.000000 1.000000 0.000000
vn 0.000000 1.000000 0.000000
vn 0.000000 1.000000 0.000000
vn 0.000000 -0.151021 -0.988531
vn 0.000000 -0.151021 -0.988531
vn 0.000000 -0.151021 -0.988531
vn 0.000000 -0.151021 -0.988531
vn 0.000000 -1.000000 0.000000
vn 0.000000 -1.000000 0.000000
vn 0.000000 -1.000000 0.000000
vn 0.000000 -1.000000 0.000000
vn 1.000000 0.000000 0.000000
vn 1.000000 0.000000 0.000000
vn 1.000000 0.000000 0.000000
vn 1.000000 0.000000 0.000000
vn -1.000000 0.000000 0.000000
vn -1.000000 0.000000 0.000000
vn -1.000000 0.000000 0.000000
vn -1.000000 0.000000 0.000000
vn 0.000000 -0.186952 0.982369
vn 0.000000 -0.186952 0.982369
vn 0.000000 -0.186952 0.982369
vn 0.000000 -0.186952 0.982369
vn 0.000000 1.000000 0.000000
vn 0.000000 1.000000 0.000000
vn 0.000000 1.000000 0.000000
vn 0.000000 1.000000 0.000000
vn 0.000000 -0.186952 -0.982369
vn 0.000000 -0.186952 -0.982369
vn 0.000000 -0.186952 -0.982369
vn 0.000000 -0.186952 -0.982369
vn 0.000000 -1.000000 0.000000
vn 0.000000 -1.000000 0.000000
vn 0.000000 -1.000000 0.000000
vn 0.000000 -1.000000 0.000000
vn 0.964454 -0.264249 0.000000
vn 0.964454 -0.264249 0.000000
vn 0.964454 -0.264249 0.000000
vn 0.964454 -0.264249 0.000000
vn -0.964455 -0.264249 0.000000
vn -0.964455 -0.264249 0.000000
vn -0.964455 -0.264249 0.000000
vn -0.964455 -0.264249 0.000000
vn -0.000001 -0.155966 0.987762
vn 0.000000 -0.155966 0.987762
vn 0.000000 -0.155967 0.987762
vn -0.000000 -0.155967 0.987762
vn 0.000000 -0.155966 0.987762
vn 0.000000 -0.155965 0.987763
vn 0.000000 -0.155965 0.987763
vn 0.000000 -0.155967 0.987762
vn 0.000000 -0.155965 0.987763
vn -0.000000 -0.155965 0.987763
vn -0.000000 -0.155965 0.987763
vn 0.000000 -0.155965 0.987763
vn -0.000000 -0.155965 0.987763
vn -0.000001 -0.155966 0.987762
vn -0.000000 -0.155967 0.987762
vn -0.000000 -0.155965 0.987763
vn -0.000000 -0.155965 -0.987763
vn 0.000000 -0.155965 -0.987763
vn 0.000000 -0.155965 -0.987763
vn -0.000000 -0.155965 -0.987763
vn 0.000000 -0.155965 -0.987763
vn 0.000001 -0.155966 -0.987762
vn 0.000000 -0.155967 -0.987762
vn 0.000000 -0.155965 -0.987763
vn 0.000001 -0.155966 -0.987762
vn -0.000000 -0.155966 -0.987762
vn -0.000000 -0.155967 -0.987762
vn 0.000000 -0.155967 -0.987762
vn -0.000000 -0.155966 -0.987762
vn -0.000000 -0.155965 -0.987763
vn -0.000000 -0.155965 -0.987763
vn -0.000000 -0.155967 -0.987762
vn 0.972348 -0.233538 0.000001
vn 0.972348 -0.233538 -0.000001
vn 0.972348 -0.233538 -0.000000
vn 0.972348 -0.233538 0.000000
vn 0.972348 -0.233538 -0.000001
vn 0.972348 -0.233536 -0.000001
vn 0.972348 -0.233536 -0.000000
vn 0.972348 -0.233538 -0.000000
vn 0.972348 -0.233536 -0.000001
vn 0.972348 -0.233536 0.000001
vn 0.972348 -0.233536 0.000000
vn 0.972348 -0.233536 -0.000000
vn 0.972348 -0.233536 0.000001
vn 0.972348 -0.233538 0.000001
vn 0.972348 -0.233538 0.000000
vn 0.972348 -0.233536 0.000000
vn -0.972348 -0.233538 -0.000000
vn -0.972348 -0.233538 0.000001
vn -0.972348 -0.233538 0.000001
vn -0.972348 -0.233538 -0.000000
vn -0.972348 -0.233538 0.000001
vn -0.972348 -0.233536 0.000001
vn -0.972348 -0.233536 0.000001
vn -0.972348 -0.233538 0.000001
vn -0.972348 -0.233536 0.000001
vn -0.972348 -0.233536 -0.000000
vn -0.972348 -0.233536 -0.000000
vn -0.972348 -0.233536 0.000001
vn -0.972348 -0.233536 -0.000000
vn -0.972348 -0.233538 -0.000000
vn -0.972348 -0.233538 -0.000000
vn -0.972348 -0.233536 -0.000000
vn 0.000000 1.000000 0.000000
vn 0.000000 1.000000 0.000000
vn 0.000000 1.000000 0.000000
vn 0.000000 1.000000 0.000000
vn 0.000000 1.000000 0.000000
vn 0.000000 1.000000 0.000000
vn 0.000000 1.000000 0.000000
vn 0.000000 1.000000 0.000000
vn 0.000000 1.000000 0.000000
vn 0.000000 1.000000 0.000000
vn 0.000000 1.000000 0.000000
vn 0.000000 1.000000 0.000000
vn 0.000000 1.000000 0.000000
vn 0.000000 1.000000 0.000000
vn 0.000000 1.000000 0.000000
vn 0.000000 1.000000 0.000000
vn 0.000000 0.201217 -0.979547
vn 0.000000 0.201217 -0.979547
vn 0.000000 0.201217 -0.979547
vn 0.000000 0.201217 -0.979547
vn -0.976102 0.217312 0.000000
vn -0.976102 0.217312 0.000000
vn -0.976102 0.217312 0.000000
vn -0.976102 0.217312 0.000000
vn 0.000000 0.201217 0.979547
vn 0.000000 0.201217 0.979547
vn 0.000000 0.201217 0.979547
vn 0.000000 0.201217 0.979547
vn 0.976102 0.217312 -0.000000
vn 0.976102 0.217312 -0.000000
vn 0.976102 0.217312 -0.000000
vn 0.976102 0.217312 -0.000000
vn 0.000000 0.884109 0.467280
vn 0.000000 0.884109 0.467280
vn 0.000000 0.884109 0.467280
vn 0.000000 0.884109 0.467280
vn -0.443192 -0.022650 0.896140
vn -0.443192 -0.022650 0.896140
vn -0.443192 -0.022650 0.896140
vn -0.443192 -0.022650 0.896140
vn 0.000000 -0.833981 0.551793
vn 0.000000 -0.833981 0.551793
vn 0.000000 -0.833981 0.551793
vn 0.000000 -0.833981 0.551793
vn 0.511888 -0.023277 0.858737
vn 0.511888 -0.023277 0.858737
vn 0.511888 -0.023277 0.858737
vn 0.511888 -0.023277 0.858737
vn 0.000000 -0.833981 -0.551793
vn 0.000000 -0.833981 -0.551793
vn 0.000000 -0.833981 -0.551793
vn 0.000000 -0.833981 -0.551793
vn -0.443192 -0.022650 -0.896140
vn -0.443192 -0.022650 -0.896140
vn -0.443192 -0.022650 -0.896140
vn -0.443192 -0.022650 -0.896140
vn 0.000000 0.884109 -0.467280
vn 0.000000 0.884109 -0.467280
vn 0.000000 0.884109 -0.467280
vn 0.000000 0.884109 -0.467280
vn 0.443192 -0.022650 -0.896140
vn 0.443192 -0.022650 -0.896140
vn 0.443192 -0.022650 -0.896140
vn 0.443192 -0.022650 -0.896140
vn 0.392727 0.919655 0.000000
vn 0.392727 0.919655 0.000000
vn 0.392727 0.919655 0.000000
vn 0.392727 0.919655 0.000000
vn 0.667222 -0.029099 0.744290
vn 0.667222 -0.029099 0.744290
vn 0.667222 -0.029099 0.744290
vn 0.667222 -0.029099 0.744290
vn 0.371778 -0.928322 0.000000
vn 0.371778 -0.928322 0.000000
vn 0.371778 -0.928322 0.000000
vn 0.371778 -0.928322 0.000000
vn 0.667223 -0.029099 -0.744290
vn 0.667223 -0.029099 -0.744290
vn 0.667223 -0.029099 -0.744290
vn 0.667223 -0.029099 -0.744290
vn -0.392727 0.919655 0.000000
vn -0.392727 0.919655 0.000000
vn -0.392727 0.919655 0.000000
vn -0.392727 0.919655 0.000000
vn -0.667223 -0.029099 -0.744290
vn -0.667223 -0.029099 -0.744290
vn -0.667223 -0.029099 -0.744290
vn -0.667223 -0.029099 -0.744290
vn -0.371779 -0.928321 0.000000
vn -0.371779 -0.928321 0.000000
vn -0.371779 -0.928321 0.000000
vn -0.371779 -0.928321 0.000000
vn -0.667223 -0.029098 0.744289
vn -0.667223 -0.029098 0.744289
vn -0.667223 -0.029098 0.744289
vn -0.667223 -0.029098 0.744289
vn 0.000000 0.000000 1.000000
vn 0.000000 0.000000 1.000000
vn 0.000000 0.000000 1.000000
vn 0.000000 0.000000 1.000000
vn 0.000000 1.000000 0.000000
vn 0.000000 1.000000 0.000000
vn 0.000000 1.000000 0.000000
vn 0.000000 1.000000 0.000000
vn 0.000000 0.000000 -1.000000
vn 0.000000 0.000000 -1.000000
vn 0.000000 0.000000 -1.000000
vn 0.000000 0.000000 -1.000000
vn 0.000000 -1.000000 0.000000
vn 0.000000 -1.000000 0.000000
vn 0.000000 -1.000000 0.000000
vn 0.000000 -1.000000 0.000000
vn 1.000000 0.000000 0.000000
vn 1.000000 0.000000 0.000000
vn 1.000000 0.000000 0.000000
vn 1.000000 0.000000 0.000000
vn -1.000000 0.000000 0.000000
vn -1.000000 0.000000 0.000000
vn -1.000000 0.000000 0.000000
vn -1.000000 0.000000 0.000000
vn 0.000000 0.000000 1.000000
vn 0.000000 0.000000 1.000000
vn 0.000000 0.000000 1.000000
vn 0.000000 0.000000 1.000000
vn -0.000000 0.000000 1.000000
vn -0.000000 0.000000 1.000000
vn -0.000000 0.000000 1.000000
vn -0.000000 0.000000 1.000000
vn 0.000000 0.000000 1.000000
vn 0.000000 0.000000 1.000000
vn 0.000000 0.000000 1.000000
vn 0.000000 0.000000 1.000000
vn 0.000001 0.000000 1.000000
vn 0.000001 0.000000 1.000000
vn 0.000001 0.000000 1.000000
vn 0.000001 0.000000 1.000000
vn 0.000000 1.000000 0.000000
vn 0.000000 1.000000 0.000000
vn 0.000000 1.000000 0.000000
vn 0.000000 1.000000 0.000000
vn -1.000000 0.000000 0.000000
vn -1.000000 0.000000 0.000000
vn -1.000000 0.000000 0.000000
vn -1.000000 0.000000 0.000000
vn 0.000000 -1.000000 0.000000
vn 0.000000 -1.000000 0.000000
vn 0.000000 -1.000000 0.000000
vn 0.000000 -1.000000 0.000000
vn 1.000000 0.000000 0.000000
vn 1.000000 0.000000 0.000000
vn 1.000000 0.000000 0.000000
vn 1.000000 0.000000 0.000000
s off
f 1/1/1 2/2/2 4/3/3 3/4/4
f 3/4/5 4/3/6 6/5/7 5/6/8
f 5/6/9 6/5/10 8/7/11 7/8/12
f 7/8/13 8/7/14 2/9/15 1/10/16
f 2/2/17 8/11/18 6/12/19 4/3/20
f 7/13/21 1/1/22 3/4/23 5/14/24
f 9/15/25 10/16/26 12/17/27 11/18/28
f 11/18/29 12/17/30 14/19/31 13/20/32
f 13/20/33 14/19/34 16/21/35 15/22/36
f 15/22/37 16/21/38 10/23/39 9/24/40
f 10/16/41 16/25/42 14/26/43 12/17/44
f 15/27/45 9/15/46 11/18/47 13/28/48
f 49/29/49 50/30/50 51/31/51 52/32/52
f 45/33/53 46/34/54 47/35/55 48/36/56
f 53/37/57 54/38/58 55/39/59 56/40/60
f 23/41/61 24/42/62 18/43/63 17/44/64
f 58/45/65 57/46/66 59/47/67 60/48/68
f 61/49/69 62/50/70 63/51/71 64/52/72
f 17/53/73 18/54/74 26/55/75 25/56/76
f 18/57/77 20/58/78 27/59/79 26/60/80
f 20/61/81 19/62/82 28/63/83 27/64/84
f 19/65/85 17/66/86 25/67/87 28/68/88
f 21/69/89 22/70/90 30/71/91 29/72/92
f 22/73/93 24/74/94 31/75/95 30/76/96
f 24/77/97 23/78/98 32/79/99 31/80/100
f 23/81/101 21/82/102 29/83/103 32/84/104
f 18/85/105 24/86/106 33/87/107 34/88/108
f 24/89/109 22/90/110 35/91/111 33/92/112
f 22/93/113 20/94/114 36/95/115 35/96/116
f 20/97/117 18/98/118 34/99/119 36/100/120
f 23/101/121 17/102/122 38/103/123 37/104/124
f 17/105/125 19/106/126 39/107/127 38/108/128
f 19/109/129 21/110/130 40/111/131 39/112/132
f 21/113/133 23/114/134 37/115/135 40/116/136
f 19/117/137 20/118/138 42/119/139 41/120/140
f 20/121/141 22/122/142 43/123/143 42/124/144
f 22/125/145 21/126/146 44/127/147 43/128/148
f 21/129/149 19/130/150 41/131/151 44/132/152
f 41/133/153 42/134/154 46/34/155 45/33/156
f 42/134/157 43/135/158 47/35/159 46/34/160
f 43/135/161 44/136/162 48/36/163 47/35/164
f 44/136/165 41/133/166 45/33/167 48/36/168
f 25/149/169 26/150/170 50/151/171 49/152/172
f 26/153/173 27/154/174 51/155/175 50/156/176
f 27/157/177 28/158/178 52/159/179 51/160/180
f 28/161/181 25/162/182 49/163/183 52/164/184
f 29/165/185 30/166/186 54/167/187 53/168/188
f 30/169/189 31/170/190 55/171/191 54/172/192
f 31/173/193 32/174/194 56/175/195 55/176/196
f 32/177/197 29/178/198 53/179/199 56/180/200
f 34/181/201 33/182/202 57/183/203 58/184/204
f 33/185/205 35/186/206 59/187/207 57/188/208
f 35/189/209 36/190/210 60/191/211 59/192/212
f 36/193/213 34/194/214 58/195/215 60/196/216
f 37/197/217 38/198/218 62/199/219 61/200/220
f 38/201/221 39/202/222 63/203/223 62/204/224
f 39/205/225 40/206/226 64/207/227 63/208/228
f 40/209/229 37/210/230 61/211/231 64/212/232
f 77/213/233 78/214/234 79/215/235 80/216/236
f 67/217/237 68/218/238 70/219/239 69/220/240
f 69/221/241 70/222/242 72/223/243 71/224/244
f 71/225/245 72/226/246 66/227/247 65/228/248
f 66/229/249 72/230/250 70/231/251 68/232/252
f 71/233/253 65/234/254 67/235/255 69/236/256
f 65/237/257 66/238/258 74/239/259 73/240/260
f 66/241/261 68/242/262 75/243/263 74/244/264
f 68/245/265 67/246/266 76/247/267 75/248/268
f 67/249/269 65/250/270 73/251/271 76/252/272
f 73/253/273 74/254/274 78/255/275 77/256/276
f 74/148/277 75/147/278 79/146/279 78/145/280
f 75/144/281 76/143/282 80/142/283 79/141/284
f 76/140/285 73/139/286 77/138/287 80/137/288
