# This file uses centimeters as units for non-parametric coordinates.

v -1.305884 0.000000 0.033810
v -1.198364 0.000000 0.033810
v -1.308727 1.067563 0.028894
v -1.202650 1.085004 0.038407
v -1.301598 1.067786 -0.050901
v -1.195521 1.085228 -0.041389
v -1.305884 0.000000 -0.046304
v -1.198364 0.000000 -0.046304
v -1.245881 1.076591 -0.076123
v -1.258367 1.076199 0.063629
v -1.252124 0.000000 0.063907
v -1.252124 0.000000 -0.076402
v -1.489981 0.686265 0.013078
v -1.482339 0.611552 0.013078
v 1.473961 0.685300 0.013078
v 1.489981 0.612518 0.013078
v 1.473961 0.685300 -0.025572
v 1.489981 0.612518 -0.025572
v -1.489981 0.686265 -0.025572
v -1.482339 0.611552 -0.025572
v 1.481768 0.649831 -0.040092
v 1.481768 0.649831 0.027598
v -1.486257 0.649855 0.027598
v -1.486257 0.649855 -0.040092
v -0.765090 0.598419 -0.040092
v -0.765090 0.559829 -0.025572
v -0.765090 0.559829 0.013078
v -0.765090 0.598419 0.027598
v -0.765090 0.635101 0.013078
v -0.765090 0.635101 -0.025572
v -0.472253 0.498667 -0.095709
v -0.472253 0.460077 -0.081189
v -0.472253 0.460077 -0.042539
v -0.472253 0.498667 -0.028019
v -0.472253 0.535349 -0.042539
v -0.472253 0.535349 -0.081189
v 0.344195 0.600990 -0.040092
v 0.344195 0.562401 -0.025572
v 0.344195 0.562401 0.013078
v 0.344195 0.600990 0.027598
v 0.344195 0.637673 0.013078
v 0.344195 0.637673 -0.025572
v 1.189408 0.000000 0.065611
v 1.296929 0.000000 0.065611
v 1.184462 1.076365 0.052747
v 1.264614 1.117846 0.052747
v 1.184462 1.076365 -0.012449
v 1.264614 1.117846 -0.012449
v 1.189408 0.000000 -0.014502
v 1.296929 0.000000 -0.014502
v 1.224538 1.097106 -0.036942
v 1.224538 1.097106 0.077240
v 1.243169 0.000000 0.095709
v 1.243169 0.000000 -0.044600
v -1.342190 0.918916 0.013078
v -1.342190 0.843644 0.013078
v 1.344006 0.918227 0.013078
v 1.332638 0.844333 0.013078
v 1.344006 0.918227 -0.025572
v 1.332638 0.844333 -0.025572
v -1.342190 0.918916 -0.025572
v -1.342190 0.843644 -0.025572
v 1.338466 0.882216 -0.040092
v 1.338466 0.882216 0.027598
v -1.342190 0.882234 0.027598
v -1.342190 0.882234 -0.040092
v 0.151631 0.841650 0.022819
v 0.151631 0.803060 0.037339
v 0.151631 0.803060 0.075989
v 0.151631 0.841650 0.090509
v 0.151631 0.878332 0.075989
v 0.151631 0.878332 0.037339
v -1.211486 0.255772 -0.076402
v -1.157725 0.255772 -0.046304
v -1.157725 0.255772 0.033810
v -1.211486 0.255772 0.063907
v -1.265246 0.255772 0.033810
v -1.265246 0.255772 -0.046304
v -1.198364 0.670159 0.033810
v -1.252124 0.670159 0.063907
v -1.305884 0.670159 0.033810
v -1.305884 0.670159 -0.046304
v -1.252124 0.670159 -0.076402
v -1.198364 0.670159 -0.046304
v 1.247876 0.573801 -0.076402
v 1.301636 0.573801 -0.046304
v 1.301636 0.573801 0.033810
v 1.247876 0.573801 0.063907
v 1.194116 0.573801 0.033810
v 1.194116 0.573801 -0.046304
v 1.241885 0.956622 -0.076402
v 1.295645 0.956622 -0.046304
v 1.295645 0.956622 0.033810
v 1.241885 0.956622 0.063907
v 1.188125 0.956622 0.033810
v 1.188125 0.956622 -0.046304
vt 0.309491 0.187431
vt 0.309491 0.187431
vt 0.309491 0.187431
vt 0.309491 0.187431
vt 0.309491 0.187431
vt 0.309491 0.187431
vt 0.309491 0.187431
vt 0.309491 0.187431
vt 0.309491 0.187431
vt 0.309491 0.187431
vt 0.309491 0.187431
vt 0.309491 0.187431
vt 0.309491 0.187431
vt 0.309491 0.187431
vt 0.309491 0.187431
vt 0.309491 0.187431
vt 0.309491 0.187431
vt 0.309491 0.187431
vt 0.309491 0.187431
vt 0.309491 0.187431
vt 0.309491 0.187431
vt 0.309491 0.187431
vt 0.309491 0.187431
vt 0.309491 0.187431
vt 0.309491 0.187431
vt 0.309491 0.187431
vt 0.309491 0.187431
vt 0.309491 0.187431
vt 0.309491 0.187431
vt 0.309491 0.187431
vt 0.309491 0.187431
vt 0.309491 0.187431
vt 0.309491 0.187431
vt 0.309491 0.187431
vt 0.309491 0.187431
vt 0.309491 0.187431
vt 0.309491 0.187431
vt 0.309491 0.187431
vt 0.309491 0.187431
vt 0.309491 0.187431
vt 0.309491 0.187431
vt 0.309491 0.187431
vt 0.309491 0.187431
vt 0.309491 0.187431
vt 0.309491 0.187431
vt 0.309491 0.187431
vt 0.309491 0.187431
vt 0.309491 0.187431
vt 0.309491 0.187431
vt 0.309491 0.187431
vt 0.309491 0.187431
vt 0.309491 0.187431
vt 0.309491 0.187431
vt 0.309491 0.187431
vt 0.309491 0.187431
vt 0.309491 0.187431
vt 0.309491 0.187431
vt 0.309491 0.187431
vt 0.309491 0.187431
vt 0.309491 0.187431
vt 0.309491 0.187431
vt 0.309491 0.187431
vt 0.309491 0.187431
vt 0.309491 0.187431
vt 0.309491 0.187431
vt 0.309491 0.187431
vt 0.309491 0.187431
vt 0.309491 0.187431
vt 0.309491 0.187431
vt 0.309491 0.187431
vt 0.309491 0.187431
vt 0.309491 0.187431
vt 0.309491 0.187431
vt 0.309491 0.187431
vt 0.309491 0.187431
vt 0.309491 0.187431
vt 0.309491 0.187431
vt 0.309491 0.187431
vt 0.309491 0.187431
vt 0.309491 0.187431
vt 0.309491 0.187431
vt 0.309491 0.187431
vt 0.309491 0.187431
vt 0.309491 0.187431
vt 0.309491 0.187431
vt 0.309491 0.187431
vt 0.309491 0.187431
vt 0.309491 0.187431
vt 0.309491 0.187431
vt 0.309491 0.187431
vt 0.309491 0.187431
vt 0.309491 0.187431
vt 0.309491 0.187431
vt 0.309491 0.187431
vt 0.309491 0.187431
vt 0.309491 0.187431
vt 0.309491 0.187431
vt 0.309491 0.187431
vt 0.309491 0.187431
vt 0.309491 0.187431
vt 0.309491 0.187431
vt 0.309491 0.187431
vt 0.309491 0.187431
vt 0.309491 0.187431
vt 0.309491 0.187431
vt 0.309491 0.187431
vt 0.309491 0.187431
vt 0.309491 0.187431
vt 0.309491 0.187431
vt 0.309491 0.187431
vt 0.309491 0.187431
vt 0.309491 0.187431
vt 0.309491 0.187431
vt 0.309491 0.187431
vt 0.309491 0.187431
vt 0.309491 0.187431
vt 0.309491 0.187431
vt 0.309491 0.187431
vt 0.309491 0.187431
vt 0.309491 0.187431
vt 0.309491 0.187431
vt 0.309491 0.187431
vt 0.309491 0.187431
vt 0.309491 0.187431
vt 0.309491 0.187431
vt 0.309491 0.187431
vt 0.309491 0.187431
vt 0.309491 0.187431
vt 0.309491 0.187431
vt 0.309491 0.187431
vt 0.309491 0.187431
vt 0.309491 0.187431
vt 0.309491 0.187431
vt 0.309491 0.187431
vt 0.309491 0.187431
vt 0.309491 0.187431
vt 0.309491 0.187431
vt 0.309491 0.187431
vt 0.309491 0.187431
vt 0.309491 0.187431
vn 0.487039 -0.077383 0.869945
vn 0.487039 -0.077383 0.869945
vn 0.487039 -0.077384 0.869945
vn 0.487039 -0.077383 0.869945
vn -0.161216 0.986851 -0.011636
vn -0.161216 0.986851 -0.011636
vn -0.161216 0.986851 -0.011636
vn -0.161216 0.986851 -0.011636
vn 0.487039 -0.077383 -0.869945
vn 0.487039 -0.077383 -0.869945
vn 0.487039 -0.077383 -0.869945
vn 0.487039 -0.077383 -0.869945
vn 0.000000 -1.000000 0.000000
vn 0.000000 -1.000000 0.000000
vn 0.000000 -1.000000 0.000000
vn 0.000000 -1.000000 0.000000
vn 0.987612 -0.156918 0.000000
vn 0.987612 -0.156918 0.000000
vn 0.987612 -0.156918 0.000000
vn 0.987612 -0.156918 0.000000
vn -0.987612 0.156917 0.000000
vn -0.987612 0.156917 0.000000
vn -0.987612 0.156917 0.000000
vn -0.987612 0.156917 0.000000
vn -0.161216 0.986851 -0.011636
vn -0.161216 0.986851 -0.011636
vn -0.161216 0.986851 -0.011636
vn -0.161216 0.986851 -0.011636
vn -0.487039 0.077383 0.869945
vn -0.487040 0.077383 0.869945
vn -0.487039 0.077383 0.869945
vn -0.487040 0.077383 0.869945
vn 0.000000 -1.000000 0.000000
vn 0.000000 -1.000000 0.000000
vn 0.000000 -1.000000 0.000000
vn 0.000000 -1.000000 0.000000
vn -0.487039 0.077383 -0.869945
vn -0.487039 0.077383 -0.869945
vn -0.487039 0.077383 -0.869945
vn -0.487039 0.077383 -0.869945
vn -0.025412 -0.354337 0.934773
vn -0.025412 -0.354337 0.934773
vn -0.025412 -0.354337 0.934773
vn -0.025412 -0.354337 0.934773
vn 0.976624 0.214955 0.000000
vn 0.976624 0.214955 0.000000
vn 0.976624 0.214955 0.000000
vn 0.976624 0.214955 0.000000
vn -0.025412 -0.354336 -0.934773
vn -0.025412 -0.354336 -0.934773
vn -0.025412 -0.354336 -0.934773
vn -0.025412 -0.354336 -0.934773
vn -0.994810 -0.101752 0.000000
vn -0.994810 -0.101752 0.000000
vn -0.994810 -0.101752 0.000000
vn -0.994810 -0.101752 0.000000
vn -0.071926 -0.997410 0.000001
vn -0.071926 -0.997410 0.000001
vn -0.071926 -0.997410 0.000001
vn -0.071926 -0.997410 0.000001
vn 0.070406 0.997518 -0.000001
vn 0.070406 0.997518 -0.000001
vn 0.070406 0.997518 -0.000001
vn 0.070406 0.997518 -0.000001
vn 0.976623 0.214961 0.000000
vn 0.976623 0.214961 0.000000
vn 0.976623 0.214961 0.000000
vn 0.976623 0.214961 0.000000
vn 0.026271 0.370268 0.928554
vn 0.026271 0.370268 0.928554
vn 0.026271 0.370268 0.928554
vn 0.026271 0.370268 0.928554
vn -0.994811 -0.101745 0.000000
vn -0.994811 -0.101745 0.000000
vn -0.994811 -0.101745 0.000000
vn -0.994811 -0.101745 0.000000
vn 0.026271 0.370268 -0.928554
vn 0.026271 0.370268 -0.928554
vn 0.026271 0.370268 -0.928554
vn 0.026271 0.370268 -0.928553
vn -0.285342 -0.337527 -0.897026
vn -0.285342 -0.337527 -0.897026
vn -0.285342 -0.337527 -0.897026
vn -0.285342 -0.337527 -0.897026
vn -0.322447 -0.946588 0.000000
vn -0.322447 -0.946587 0.000000
vn -0.322447 -0.946587 0.000000
vn -0.322447 -0.946587 0.000000
vn 0.057697 -0.351581 0.934378
vn 0.057697 -0.351581 0.934378
vn 0.057697 -0.351581 0.934378
vn 0.057697 -0.351581 0.934378
vn 0.289074 0.352340 0.890108
vn 0.289074 0.352340 0.890108
vn 0.289074 0.352340 0.890108
vn 0.289074 0.352340 0.890108
vn 0.322447 0.946587 -0.000001
vn 0.322447 0.946587 -0.000001
vn 0.322447 0.946587 -0.000001
vn 0.322447 0.946587 -0.000001
vn -0.051150 0.367572 -0.928588
vn -0.051150 0.367572 -0.928588
vn -0.051150 0.367572 -0.928588
vn -0.051150 0.367572 -0.928588
vn 0.107270 -0.350136 -0.930537
vn 0.107270 -0.350136 -0.930536
vn 0.107270 -0.350136 -0.930537
vn 0.107270 -0.350136 -0.930536
vn 0.124355 -0.992238 0.000000
vn 0.124355 -0.992238 0.000000
vn 0.124355 -0.992238 0.000000
vn 0.124355 -0.992238 0.000000
vn -0.019616 -0.352100 0.935757
vn -0.019616 -0.352100 0.935757
vn -0.019616 -0.352100 0.935757
vn -0.019616 -0.352100 0.935757
vn -0.108816 0.365868 0.924283
vn -0.108816 0.365869 0.924283
vn -0.108816 0.365868 0.924283
vn -0.108816 0.365868 0.924283
vn -0.124355 0.992238 0.000000
vn -0.124355 0.992238 0.000000
vn -0.124355 0.992238 0.000000
vn -0.124355 0.992238 0.000000
vn 0.017208 0.367999 -0.929667
vn 0.017208 0.367999 -0.929667
vn 0.017208 0.367999 -0.929667
vn 0.017208 0.367999 -0.929667
vn 0.015422 -0.355841 -0.934419
vn 0.015422 -0.355841 -0.934419
vn 0.015422 -0.355841 -0.934419
vn 0.015422 -0.355841 -0.934419
vn 0.043698 -0.999045 0.000000
vn 0.043698 -0.999045 0.000000
vn 0.043698 -0.999045 0.000000
vn 0.043698 -0.999045 0.000000
vn 0.015422 -0.355842 0.934419
vn 0.015422 -0.355842 0.934419
vn 0.015422 -0.355842 0.934419
vn 0.015422 -0.355842 0.934419
vn -0.015822 0.371867 0.928151
vn -0.015822 0.371867 0.928151
vn -0.015822 0.371867 0.928151
vn -0.015822 0.371867 0.928151
vn -0.042119 0.999113 0.000000
vn -0.042119 0.999113 0.000000
vn -0.042119 0.999113 0.000000
vn -0.042119 0.999113 0.000000
vn -0.015822 0.371867 -0.928151
vn -0.015822 0.371867 -0.928151
vn -0.015822 0.371867 -0.928151
vn -0.015822 0.371867 -0.928151
vn 0.488025 0.044309 0.871705
vn 0.488025 0.044309 0.871705
vn 0.488025 0.044309 0.871705
vn 0.488025 0.044309 0.871705
vn -0.459620 0.888116 0.000000
vn -0.459620 0.888116 0.000000
vn -0.459620 0.888116 0.000000
vn -0.459620 0.888116 0.000000
vn 0.487836 -0.052296 -0.871367
vn 0.487836 -0.052296 -0.871368
vn 0.487836 -0.052296 -0.871367
vn 0.487836 -0.052296 -0.871368
vn 0.000000 -1.000000 0.000000
vn 0.000000 -1.000000 0.000000
vn 0.000000 -1.000000 0.000000
vn 0.000000 -1.000000 0.000000
vn 0.999966 -0.008203 0.000000
vn 0.999966 -0.008203 0.000000
vn 0.999966 -0.008203 0.000000
vn 0.999966 -0.008203 0.000000
vn -0.999966 0.008204 0.000000
vn -0.999966 0.008204 0.000000
vn -0.999966 0.008204 0.000000
vn -0.999966 0.008204 0.000000
vn -0.459630 0.888111 0.000000
vn -0.459629 0.888111 0.000000
vn -0.459629 0.888111 0.000000
vn -0.459629 0.888111 0.000000
vn -0.487836 0.052296 0.871368
vn -0.487836 0.052296 0.871368
vn -0.487836 0.052296 0.871368
vn -0.487836 0.052296 0.871368
vn 0.000000 -1.000000 0.000000
vn 0.000000 -1.000000 0.000000
vn 0.000000 -1.000000 0.000000
vn 0.000000 -1.000000 0.000000
vn -0.488025 -0.044309 -0.871705
vn -0.488025 -0.044309 -0.871705
vn -0.488025 -0.044309 -0.871705
vn -0.488025 -0.044309 -0.871705
vn -0.048925 -0.351747 0.934816
vn -0.048925 -0.351747 0.934816
vn -0.048925 -0.351747 0.934816
vn -0.048925 -0.351747 0.934816
vn 0.988373 -0.152048 0.000000
vn 0.988373 -0.152048 0.000000
vn 0.988373 -0.152048 0.000000
vn 0.988373 -0.152048 0.000000
vn 0.029835 -0.352012 -0.935520
vn 0.029835 -0.352012 -0.935520
vn 0.029835 -0.352012 -0.935520
vn 0.029835 -0.352012 -0.935520
vn -1.000000 0.000003 0.000000
vn -1.000000 0.000003 0.000000
vn -1.000000 0.000003 0.000000
vn -1.000000 0.000003 0.000000
vn -0.027158 -0.999631 0.000000
vn -0.027158 -0.999631 0.000000
vn -0.027158 -0.999631 0.000000
vn -0.027158 -0.999631 0.000000
vn 0.027158 0.999631 0.000000
vn 0.027158 0.999631 0.000000
vn 0.027158 0.999631 0.000000
vn 0.027158 0.999631 0.000000
vn 0.988373 -0.152047 0.000000
vn 0.988373 -0.152047 0.000000
vn 0.988373 -0.152047 0.000000
vn 0.988373 -0.152047 0.000000
vn -0.029147 0.367898 0.929409
vn -0.029147 0.367898 0.929409
vn -0.029147 0.367898 0.929409
vn -0.029147 0.367898 0.929409
vn -1.000000 -0.000004 0.000000
vn -1.000000 -0.000004 0.000000
vn -1.000000 -0.000004 0.000000
vn -1.000000 -0.000004 0.000000
vn 0.049098 0.367610 -0.928683
vn 0.049098 0.367610 -0.928683
vn 0.049098 0.367610 -0.928683
vn 0.049098 0.367610 -0.928683
vn -0.037517 -0.352262 -0.935149
vn -0.037517 -0.352262 -0.935149
vn -0.037517 -0.352262 -0.935149
vn -0.037517 -0.352262 -0.935149
vn 0.034926 -0.999390 0.000000
vn 0.034926 -0.999390 0.000000
vn 0.034926 -0.999390 0.000000
vn 0.034926 -0.999390 0.000000
vn 0.061887 -0.358450 0.931495
vn 0.061887 -0.358450 0.931495
vn 0.061887 -0.358450 0.931495
vn 0.061887 -0.358450 0.931495
vn 0.036672 0.368325 0.928974
vn 0.036672 0.368325 0.928973
vn 0.036672 0.368325 0.928973
vn 0.036672 0.368325 0.928974
vn -0.033440 0.999441 0.000000
vn -0.033440 0.999441 0.000000
vn -0.033440 0.999441 0.000000
vn -0.033440 0.999441 0.000000
vn -0.061590 0.374326 -0.925250
vn -0.061590 0.374326 -0.925250
vn -0.061590 0.374326 -0.925250
vn -0.061590 0.374326 -0.925250
vn 0.487944 0.047852 -0.871562
vn 0.487944 0.047852 -0.871562
vn 0.487944 0.047852 -0.871562
vn 0.487944 0.047852 -0.871562
vn 0.995226 0.097601 0.000000
vn 0.995226 0.097601 0.000000
vn 0.995226 0.097601 0.000000
vn 0.995226 0.097601 0.000000
vn 0.487944 0.047852 0.871562
vn 0.487944 0.047852 0.871562
vn 0.487944 0.047852 0.871562
vn 0.487944 0.047852 0.871562
vn -0.487945 -0.047852 0.871562
vn -0.487945 -0.047852 0.871562
vn -0.487945 -0.047852 0.871562
vn -0.487945 -0.047852 0.871562
vn -0.995226 -0.097600 0.000000
vn -0.995226 -0.097600 0.000000
vn -0.995226 -0.097600 0.000000
vn -0.995226 -0.097600 0.000000
vn -0.487945 -0.047852 -0.871562
vn -0.487945 -0.047852 -0.871562
vn -0.487945 -0.047852 -0.871562
vn -0.487945 -0.047852 -0.871562
vn 0.450930 0.001088 0.892559
vn 0.450930 0.001088 0.892559
vn 0.450930 0.001088 0.892559
vn 0.450930 0.001088 0.892559
vn -0.528543 -0.000490 0.848906
vn -0.528543 -0.000490 0.848906
vn -0.528543 -0.000490 0.848907
vn -0.528543 -0.000490 0.848907
vn -0.999007 0.001281 -0.044537
vn -0.999007 0.001281 -0.044537
vn -0.999007 0.001281 -0.044537
vn -0.999007 0.001281 -0.044537
vn -0.451071 0.001113 -0.892488
vn -0.451071 0.001113 -0.892488
vn -0.451071 0.001113 -0.892488
vn -0.451071 0.001113 -0.892488
vn 0.528601 -0.000480 -0.848870
vn 0.528601 -0.000480 -0.848870
vn 0.528601 -0.000480 -0.848870
vn 0.528601 -0.000480 -0.848870
vn 0.999007 0.001227 0.044540
vn 0.999007 0.001227 0.044540
vn 0.999007 0.001227 0.044540
vn 0.999007 0.001227 0.044540
vn 0.488490 0.007644 -0.872536
vn 0.488490 0.007644 -0.872536
vn 0.488490 0.007644 -0.872536
vn 0.488490 0.007644 -0.872536
vn 0.999878 0.015647 0.000000
vn 0.999878 0.015647 0.000000
vn 0.999878 0.015647 0.000000
vn 0.999878 0.015647 0.000000
vn 0.488490 0.007644 0.872536
vn 0.488490 0.007644 0.872536
vn 0.488490 0.007644 0.872536
vn 0.488490 0.007644 0.872536
vn -0.488490 -0.007644 0.872536
vn -0.488490 -0.007644 0.872536
vn -0.488490 -0.007644 0.872536
vn -0.488490 -0.007644 0.872536
vn -0.999878 -0.015647 0.000000
vn -0.999878 -0.015647 0.000000
vn -0.999878 -0.015647 0.000000
vn -0.999878 -0.015647 0.000000
vn -0.488490 -0.007644 -0.872536
vn -0.488490 -0.007644 -0.872536
vn -0.488490 -0.007644 -0.872536
vn -0.488490 -0.007644 -0.872536
vn 0.436419 0.277923 -0.855744
vn 0.436419 0.277923 -0.855744
vn 0.436419 0.277923 -0.855744
vn 0.436419 0.277923 -0.855744
vn 0.981976 0.189007 0.000000
vn 0.981976 0.189007 0.000000
vn 0.981976 0.189007 0.000000
vn 0.981976 0.189007 0.000000
vn 0.504712 -0.011397 0.863213
vn 0.504712 -0.011397 0.863213
vn 0.504712 -0.011397 0.863213
vn 0.504712 -0.011397 0.863213
vn -0.473183 -0.145940 0.868792
vn -0.473183 -0.145940 0.868792
vn -0.473183 -0.145940 0.868792
vn -0.473183 -0.145940 0.868792
vn -0.999533 -0.030572 0.000000
vn -0.999533 -0.030572 0.000000
vn -0.999533 -0.030572 0.000000
vn -0.999533 -0.030572 0.000000
vn -0.524826 0.191304 -0.829434
vn -0.524826 0.191304 -0.829434
vn -0.524826 0.191304 -0.829434
vn -0.524826 0.191304 -0.829434
s off
f 75/112/1 76/113/2 11/17/3 2/2/4
f 9/15/5 10/16/6 4/4/7 6/6/8
f 12/19/9 73/109/10 74/110/11 8/8/12
f 11/18/13 12/19/14 8/8/15 2/10/16
f 2/2/17 8/11/18 74/111/19 75/112/20
f 7/13/21 1/1/22 77/114/23 78/115/24
f 3/3/25 10/16/26 9/15/27 5/5/28
f 1/1/29 11/17/30 76/113/31 77/114/32
f 7/7/33 12/19/34 11/18/35 1/9/36
f 78/116/37 73/109/38 12/19/39 7/7/40
f 27/20/41 28/21/42 23/22/43 14/23/44
f 21/24/45 22/25/46 16/26/47 18/27/48
f 24/28/49 25/29/50 26/30/51 20/31/52
f 23/32/53 24/28/54 20/31/55 14/33/56
f 14/23/57 20/34/58 26/35/59 27/20/60
f 19/36/61 13/37/62 29/38/63 30/39/64
f 15/40/65 22/25/66 21/24/67 17/41/68
f 13/37/69 23/22/70 28/21/71 29/38/72
f 19/42/73 24/28/74 23/32/75 13/43/76
f 30/44/77 25/29/78 24/28/79 19/42/80
f 26/30/81 25/29/82 31/45/83 32/46/84
f 27/20/85 26/35/86 32/47/87 33/48/88
f 33/48/89 34/49/90 28/21/91 27/20/92
f 29/38/93 28/21/94 34/49/95 35/50/96
f 30/39/97 29/38/98 35/50/99 36/51/100
f 36/52/101 31/45/102 25/29/103 30/44/104
f 32/46/105 31/45/106 37/53/107 38/54/108
f 33/48/109 32/47/110 38/55/111 39/56/112
f 39/56/113 40/57/114 34/49/115 33/48/116
f 35/50/117 34/49/118 40/57/119 41/58/120
f 36/51/121 35/50/122 41/58/123 42/59/124
f 42/60/125 37/53/126 31/45/127 36/52/128
f 38/54/129 37/53/130 21/24/131 18/27/132
f 39/56/133 38/55/134 18/61/135 16/26/136
f 22/25/137 40/57/138 39/56/139 16/26/140
f 41/58/141 40/57/142 22/25/143 15/40/144
f 42/59/145 41/58/146 15/40/147 17/62/148
f 17/41/149 21/24/150 37/53/151 42/60/152
f 87/128/153 88/129/154 53/64/155 44/65/156
f 51/67/157 52/63/158 46/66/159 48/68/160
f 54/69/161 85/125/162 86/126/163 50/70/164
f 53/71/165 54/69/166 50/70/167 44/72/168
f 44/65/169 50/73/170 86/127/171 87/128/172
f 49/75/173 43/76/174 89/130/175 90/131/176
f 45/77/177 52/63/178 51/67/179 47/79/180
f 43/76/181 53/64/182 88/129/183 89/130/184
f 49/80/185 54/69/186 53/71/187 43/81/188
f 90/132/189 85/125/190 54/69/191 49/80/192
f 69/82/193 70/83/194 65/84/195 56/85/196
f 63/86/197 64/87/198 58/88/199 60/89/200
f 66/90/201 67/91/202 68/92/203 62/93/204
f 65/94/205 66/90/206 62/93/207 56/95/208
f 56/85/209 62/96/210 68/97/211 69/82/212
f 61/98/213 55/99/214 71/100/215 72/101/216
f 57/102/217 64/87/218 63/86/219 59/103/220
f 55/99/221 65/84/222 70/83/223 71/100/224
f 61/104/225 66/90/226 65/94/227 55/105/228
f 72/106/229 67/91/230 66/90/231 61/104/232
f 68/92/233 67/91/234 63/86/235 60/89/236
f 69/82/237 68/97/238 60/107/239 58/88/240
f 64/87/241 70/83/242 69/82/243 58/88/244
f 71/100/245 70/83/246 64/87/247 57/102/248
f 72/101/249 71/100/250 57/102/251 59/108/252
f 59/103/253 63/86/254 67/91/255 72/106/256
f 74/110/257 73/109/258 83/122/259 84/123/260
f 75/112/261 74/111/262 84/124/263 79/117/264
f 79/117/265 80/118/266 76/113/267 75/112/268
f 77/114/269 76/113/270 80/118/271 81/119/272
f 78/115/273 77/114/274 81/119/275 82/120/276
f 82/121/277 83/122/278 73/109/279 78/116/280
f 10/16/281 80/118/282 79/117/283 4/4/284
f 81/119/285 80/118/286 10/16/287 3/3/288
f 82/120/289 81/119/290 3/3/291 5/14/292
f 5/5/293 9/15/294 83/122/295 82/121/296
f 84/123/297 83/122/298 9/15/299 6/6/300
f 79/117/301 84/124/302 6/12/303 4/4/304
f 86/126/305 85/125/306 91/133/307 92/134/308
f 87/128/309 86/127/310 92/135/311 93/136/312
f 93/136/313 94/137/314 88/129/315 87/128/316
f 89/130/317 88/129/318 94/137/319 95/138/320
f 90/131/321 89/130/322 95/138/323 96/139/324
f 96/140/325 91/133/326 85/125/327 90/132/328
f 92/134/329 91/133/330 51/67/331 48/68/332
f 93/136/333 92/135/334 48/74/335 46/66/336
f 52/63/337 94/137/338 93/136/339 46/66/340
f 95/138/341 94/137/342 52/63/343 45/77/344
f 96/139/345 95/138/346 45/77/347 47/78/348
f 47/79/349 51/67/350 91/133/351 96/140/352
