# This file uses centimeters as units for non-parametric coordinates.

v -0.012241 0.146962 -0.180538
v -0.012241 0.146962 0.180538
v -0.012241 0.171445 -0.180538
v -0.012241 0.171445 0.180538
v 0.012242 0.171445 -0.180538
v 0.012242 0.171445 0.180538
v 0.012242 0.146962 -0.180538
v 0.012242 0.146962 0.180538
v -0.181348 0.141298 0.205708
v 0.181348 0.141298 0.205708
v -0.181348 0.175744 0.205708
v 0.181348 0.175744 0.205708
v -0.181348 0.175744 0.174271
v 0.181348 0.175744 0.174271
v -0.181348 0.141298 0.174271
v 0.181348 0.141298 0.174271
v -0.181348 0.141298 -0.174271
v 0.181348 0.141298 -0.174271
v -0.181348 0.175744 -0.174271
v 0.181348 0.175744 -0.174271
v -0.181348 0.175744 -0.205708
v 0.181348 0.175744 -0.205708
v -0.181348 0.141298 -0.205708
v 0.181348 0.141298 -0.205708
v -0.266552 0.464589 0.083138
v 0.266552 0.464589 0.082772
v -0.266552 0.504844 0.083138
v 0.266552 0.504844 0.082772
v -0.266552 0.504844 -0.083138
v 0.266552 0.504844 -0.082772
v -0.266552 0.464589 -0.083138
v 0.266552 0.464589 -0.082772
v 0.000000 0.510438 -0.270397
v 0.000000 0.510438 0.270396
v 0.000000 0.458996 0.270396
v 0.000000 0.458996 -0.270397
v -0.133986 0.510438 -0.239610
v -0.133986 0.510438 0.239610
v -0.133986 0.458996 0.239610
v -0.133986 0.458996 -0.239610
v 0.133987 0.458996 0.238179
v 0.133987 0.510438 0.238179
v 0.133987 0.510438 -0.238180
v 0.133987 0.458996 -0.238180
v -0.149201 0.519696 -0.243304
v -0.149201 0.519696 0.243304
v -0.149201 0.449737 0.243304
v -0.149201 0.449737 -0.243304
v -0.119331 0.449737 0.257769
v -0.119331 0.519696 0.257769
v -0.119331 0.519696 -0.257770
v -0.119331 0.449737 -0.257770
v -0.018641 0.449737 0.282776
v -0.018641 0.519696 0.282776
v -0.018641 0.519696 -0.282776
v -0.018641 0.449737 -0.282776
v 0.015570 0.519696 -0.282776
v 0.015570 0.519696 0.282776
v 0.015570 0.449737 0.282776
v 0.015570 0.449737 -0.282776
v 0.121766 0.449737 0.255247
v 0.121766 0.519696 0.255247
v 0.121766 0.519696 -0.255247
v 0.121766 0.449737 -0.255247
v 0.150039 0.449737 0.241303
v 0.150039 0.519696 0.241303
v 0.150039 0.519696 -0.241303
v 0.150039 0.449737 -0.241303
v -0.247239 0.519696 -0.148946
v -0.247239 0.519696 0.148945
v -0.247239 0.449737 0.148945
v -0.247239 0.449737 -0.148946
v 0.247658 0.449737 0.147866
v 0.247658 0.519696 0.147866
v 0.247658 0.519696 -0.147866
v 0.247658 0.449737 -0.147866
v 0.209952 0.000000 -0.169762
v 0.248361 0.000000 -0.208171
v 0.128210 0.468164 -0.088020
v 0.166619 0.486427 -0.126429
v 0.088020 0.468164 -0.128210
v 0.126429 0.486427 -0.166619
v 0.169762 0.000000 -0.209952
v 0.208171 0.000000 -0.248361
v -0.169762 0.000000 -0.209952
v -0.208171 0.000000 -0.248361
v -0.088020 0.468164 -0.128210
v -0.126429 0.486427 -0.166619
v -0.128210 0.468164 -0.088020
v -0.166619 0.486427 -0.126429
v -0.209952 0.000000 -0.169762
v -0.248361 0.000000 -0.208171
v -0.209952 0.000000 0.169762
v -0.248361 0.000000 0.208171
v -0.128210 0.468164 0.088019
v -0.166619 0.486427 0.126429
v -0.088020 0.468164 0.128210
v -0.126429 0.486427 0.166619
v -0.169762 0.000000 0.209952
v -0.208171 0.000000 0.248361
v 0.169762 0.000000 0.209952
v 0.208171 0.000000 0.248361
v 0.088020 0.468164 0.128210
v 0.126429 0.486427 0.166619
v 0.128210 0.468164 0.088019
v 0.166619 0.486427 0.126429
v 0.209952 0.000000 0.169762
v 0.248361 0.000000 0.208171
vt 0.328439 0.137772
vt 0.328439 0.137772
vt 0.328439 0.137772
vt 0.328439 0.137772
vt 0.328439 0.137772
vt 0.328439 0.137772
vt 0.328439 0.137772
vt 0.328439 0.137772
vt 0.328439 0.137772
vt 0.328439 0.137772
vt 0.328439 0.137772
vt 0.328439 0.137772
vt 0.328439 0.137772
vt 0.328439 0.137772
vt 0.328439 0.137772
vt 0.328439 0.137772
vt 0.328439 0.137772
vt 0.328439 0.137772
vt 0.328439 0.137772
vt 0.328439 0.137772
vt 0.328439 0.137772
vt 0.328439 0.137772
vt 0.328439 0.137772
vt 0.328439 0.137772
vt 0.328439 0.137772
vt 0.328439 0.137772
vt 0.328439 0.137772
vt 0.328439 0.137772
vt 0.328439 0.137772
vt 0.328439 0.137772
vt 0.328439 0.137772
vt 0.328439 0.137772
vt 0.328439 0.137772
vt 0.328439 0.137772
vt 0.328439 0.137772
vt 0.328439 0.137772
vt 0.328439 0.137772
vt 0.328439 0.137772
vt 0.328439 0.137772
vt 0.328439 0.137772
vt 0.328439 0.137772
vt 0.328439 0.137772
vt 0.328439 0.137772
vt 0.328439 0.137772
vt 0.328439 0.137772
vt 0.328439 0.137772
vt 0.328439 0.137772
vt 0.328439 0.137772
vt 0.328662 0.187999
vt 0.328662 0.187999
vt 0.328662 0.187999
vt 0.328662 0.187999
vt 0.328662 0.187999
vt 0.328662 0.187999
vt 0.328662 0.187999
vt 0.328662 0.187999
vt 0.328662 0.187999
vt 0.328662 0.187999
vt 0.328662 0.187999
vt 0.328662 0.187999
vt 0.328662 0.187999
vt 0.328662 0.187999
vt 0.328662 0.187999
vt 0.328662 0.187999
vt 0.328662 0.187999
vt 0.328662 0.187999
vt 0.328662 0.187999
vt 0.328662 0.187999
vt 0.328662 0.187999
vt 0.328662 0.187999
vt 0.328662 0.187999
vt 0.328662 0.187999
vt 0.328662 0.187999
vt 0.328662 0.187999
vt 0.328662 0.187999
vt 0.328662 0.187999
vt 0.328662 0.187999
vt 0.328662 0.187999
vt 0.328662 0.187999
vt 0.328662 0.187999
vt 0.328662 0.187999
vt 0.328662 0.187999
vt 0.328662 0.187999
vt 0.328662 0.187999
vt 0.328662 0.187999
vt 0.328662 0.187999
vt 0.328662 0.187999
vt 0.328662 0.187999
vt 0.328662 0.187999
vt 0.328662 0.187999
vt 0.328662 0.187999
vt 0.328662 0.187999
vt 0.328662 0.187999
vt 0.328662 0.187999
vt 0.328662 0.187999
vt 0.328662 0.187999
vt 0.328662 0.187999
vt 0.328662 0.187999
vt 0.328662 0.187999
vt 0.328662 0.187999
vt 0.328662 0.187999
vt 0.328662 0.187999
vt 0.328662 0.187999
vt 0.328662 0.187999
vt 0.328662 0.187999
vt 0.328662 0.187999
vt 0.328662 0.187999
vt 0.328662 0.187999
vt 0.328662 0.187999
vt 0.328662 0.187999
vt 0.328662 0.187999
vt 0.328662 0.187999
vt 0.328662 0.187999
vt 0.328662 0.187999
vt 0.328662 0.187999
vt 0.328662 0.187999
vt 0.328662 0.187999
vt 0.329566 0.161455
vt 0.329566 0.161455
vt 0.329566 0.161455
vt 0.329566 0.161455
vt 0.329566 0.161455
vt 0.329566 0.161455
vt 0.329566 0.161455
vt 0.329566 0.161455
vt 0.329566 0.161455
vt 0.329566 0.161455
vt 0.329566 0.161455
vt 0.329566 0.161455
vt 0.329566 0.161455
vt 0.329566 0.161455
vt 0.329566 0.161455
vt 0.329566 0.161455
vt 0.329566 0.161455
vt 0.329566 0.161455
vt 0.329566 0.161455
vt 0.329566 0.161455
vt 0.329566 0.161455
vt 0.329566 0.161455
vt 0.329566 0.161455
vt 0.329566 0.161455
vt 0.329566 0.161455
vt 0.329566 0.161455
vt 0.329566 0.161455
vt 0.329566 0.161455
vt 0.329566 0.161455
vt 0.329566 0.161455
vt 0.329566 0.161455
vt 0.329566 0.161455
vt 0.329566 0.161455
vt 0.329566 0.161455
vt 0.329566 0.161455
vt 0.329566 0.161455
vt 0.329566 0.161455
vt 0.329566 0.161455
vt 0.329566 0.161455
vt 0.329566 0.161455
vt 0.329566 0.161455
vt 0.329566 0.161455
vt 0.329566 0.161455
vt 0.329566 0.161455
vt 0.329566 0.161455
vt 0.329566 0.161455
vt 0.329566 0.161455
vt 0.329566 0.161455
vt 0.329566 0.161455
vt 0.329566 0.161455
vt 0.329566 0.161455
vt 0.329566 0.161455
vt 0.329566 0.161455
vt 0.329566 0.161455
vt 0.329566 0.161455
vt 0.329566 0.161455
vn -1.000000 0.000000 0.000000
vn -1.000000 0.000000 0.000000
vn -1.000000 0.000000 0.000000
vn -1.000000 0.000000 0.000000
vn 0.000000 1.000000 0.000000
vn 0.000000 1.000000 0.000000
vn 0.000000 1.000000 0.000000
vn 0.000000 1.000000 0.000000
vn 1.000000 0.000000 0.000000
vn 1.000000 0.000000 0.000000
vn 1.000000 0.000000 0.000000
vn 1.000000 0.000000 0.000000
vn 0.000000 -1.000000 0.000000
vn 0.000000 -1.000000 0.000000
vn 0.000000 -1.000000 0.000000
vn 0.000000 -1.000000 0.000000
vn 0.000000 0.000000 1.000000
vn 0.000000 0.000000 1.000000
vn 0.000000 0.000000 1.000000
vn 0.000000 0.000000 1.000000
vn 0.000000 1.000000 0.000000
vn 0.000000 1.000000 0.000000
vn 0.000000 1.000000 0.000000
vn 0.000000 1.000000 0.000000
vn 0.000000 0.000000 -1.000000
vn 0.000000 0.000000 -1.000000
vn 0.000000 0.000000 -1.000000
vn 0.000000 0.000000 -1.000000
vn 0.000000 -1.000000 0.000000
vn 0.000000 -1.000000 0.000000
vn 0.000000 -1.000000 0.000000
vn 0.000000 -1.000000 0.000000
vn 0.000000 0.000000 1.000000
vn 0.000000 0.000000 1.000000
vn 0.000000 0.000000 1.000000
vn 0.000000 0.000000 1.000000
vn 0.000000 1.000000 0.000000
vn 0.000000 1.000000 0.000000
vn 0.000000 1.000000 0.000000
vn 0.000000 1.000000 0.000000
vn 0.000000 0.000000 -1.000000
vn 0.000000 0.000000 -1.000000
vn 0.000000 0.000000 -1.000000
vn 0.000000 0.000000 -1.000000
vn 0.000000 -1.000000 0.000000
vn 0.000000 -1.000000 0.000000
vn 0.000000 -1.000000 0.000000
vn 0.000000 -1.000000 0.000000
vn 0.250935 0.000000 0.968004
vn 0.250935 0.000000 0.968004
vn 0.250935 0.000000 0.968004
vn 0.250935 0.000000 0.968004
vn 0.000000 1.000000 0.000000
vn 0.000000 1.000000 0.000000
vn 0.000000 1.000000 0.000000
vn 0.000000 1.000000 0.000000
vn 0.250939 0.000000 -0.968003
vn 0.250939 0.000000 -0.968003
vn 0.250939 0.000000 -0.968003
vn 0.250939 0.000000 -0.968003
vn 0.000000 -1.000000 0.000000
vn 0.000000 -1.000000 0.000000
vn 0.000000 -1.000000 0.000000
vn 0.000000 -1.000000 0.000000
vn 1.000000 0.000000 0.000000
vn 1.000000 0.000000 0.000000
vn 1.000000 0.000000 0.000000
vn 1.000000 0.000000 0.000000
vn -1.000000 0.000000 0.000000
vn -1.000000 0.000000 0.000000
vn -1.000000 0.000000 0.000000
vn -1.000000 0.000000 0.000000
vn -0.534087 0.845430 0.000000
vn -0.534087 0.845430 0.000000
vn -0.534087 0.845430 0.000000
vn -0.534087 0.845430 0.000000
vn -0.778184 0.000000 0.628036
vn -0.778184 0.000000 0.628036
vn -0.778184 0.000000 0.628036
vn -0.778184 0.000000 0.628036
vn -0.534088 -0.845429 0.000000
vn -0.534088 -0.845429 0.000000
vn -0.534088 -0.845429 0.000000
vn -0.534088 -0.845429 0.000000
vn -0.778184 0.000000 -0.628036
vn -0.778184 0.000000 -0.628036
vn -0.778184 0.000000 -0.628036
vn -0.778184 0.000000 -0.628036
vn 0.519838 0.854265 0.000000
vn 0.519838 0.854265 0.000000
vn 0.519838 0.854265 0.000000
vn 0.519838 0.854265 0.000000
vn 0.235970 0.000000 0.971760
vn 0.235970 0.000000 0.971760
vn 0.235970 0.000000 0.971760
vn 0.235970 0.000000 0.971760
vn 0.519839 -0.854264 0.000000
vn 0.519839 -0.854264 0.000000
vn 0.519839 -0.854264 0.000000
vn 0.519839 -0.854264 0.000000
vn 0.235942 0.000000 -0.971767
vn 0.235942 0.000000 -0.971767
vn 0.235942 0.000000 -0.971767
vn 0.235942 0.000000 -0.971767
vn -0.191005 0.000000 0.981589
vn -0.191005 0.000000 0.981589
vn -0.191005 0.000000 0.981589
vn -0.191005 0.000000 0.981589
vn -0.499623 0.866243 0.000000
vn -0.499623 0.866243 0.000000
vn -0.499623 0.866243 0.000000
vn -0.499623 0.866243 0.000000
vn -0.191005 0.000000 -0.981589
vn -0.191005 0.000000 -0.981589
vn -0.191005 0.000000 -0.981589
vn -0.191005 0.000000 -0.981589
vn -0.499624 -0.866243 0.000000
vn -0.499624 -0.866243 0.000000
vn -0.499624 -0.866243 0.000000
vn -0.499624 -0.866243 0.000000
vn 0.000000 1.000000 0.000000
vn 0.000000 1.000000 0.000000
vn 0.000000 1.000000 0.000000
vn 0.000000 1.000000 0.000000
vn -0.693460 0.000000 0.720495
vn -0.693460 0.000000 0.720495
vn -0.693460 0.000000 0.720495
vn -0.693460 0.000000 0.720495
vn 0.000000 -1.000000 0.000000
vn 0.000000 -1.000000 0.000000
vn 0.000000 -1.000000 0.000000
vn 0.000000 -1.000000 0.000000
vn -0.693458 0.000000 -0.720497
vn -0.693458 0.000000 -0.720497
vn -0.693458 0.000000 -0.720497
vn -0.693458 0.000000 -0.720497
vn -0.241028 0.000000 0.970518
vn -0.241028 0.000000 0.970518
vn -0.241028 0.000000 0.970518
vn -0.241028 0.000000 0.970518
vn 0.000000 1.000000 0.000000
vn 0.000000 1.000000 0.000000
vn 0.000000 1.000000 0.000000
vn 0.000000 1.000000 0.000000
vn -0.241028 0.000000 -0.970518
vn -0.241028 0.000000 -0.970518
vn -0.241028 0.000000 -0.970518
vn -0.241028 0.000000 -0.970518
vn 0.000000 -1.000000 0.000000
vn 0.000000 -1.000000 0.000000
vn 0.000000 -1.000000 0.000000
vn 0.000000 -1.000000 0.000000
vn 0.553219 0.000000 0.833036
vn 0.553219 0.000000 0.833036
vn 0.553219 0.000000 0.833036
vn 0.553219 0.000000 0.833036
vn 0.444835 0.895613 0.000000
vn 0.444835 0.895613 0.000000
vn 0.444835 0.895613 0.000000
vn 0.444835 0.895613 0.000000
vn 0.553219 0.000000 -0.833036
vn 0.553219 0.000000 -0.833036
vn 0.553219 0.000000 -0.833036
vn 0.553219 0.000000 -0.833036
vn 0.444836 -0.895612 0.000000
vn 0.444836 -0.895612 0.000000
vn 0.444836 -0.895612 0.000000
vn 0.444836 -0.895612 0.000000
vn -0.511099 0.859522 0.000000
vn -0.511099 0.859522 0.000000
vn -0.511099 0.859522 0.000000
vn -0.511099 0.859522 0.000000
vn -0.622339 0.000000 0.782748
vn -0.622339 0.000000 0.782748
vn -0.622339 0.000000 0.782748
vn -0.622339 0.000000 0.782748
vn -0.511100 -0.859521 0.000000
vn -0.511100 -0.859521 0.000000
vn -0.511100 -0.859521 0.000000
vn -0.511100 -0.859521 0.000000
vn -0.622338 0.000000 -0.782749
vn -0.622338 0.000000 -0.782749
vn -0.622338 0.000000 -0.782749
vn -0.622338 0.000000 -0.782749
vn 0.813070 0.000000 0.582166
vn 0.813070 0.000000 0.582166
vn 0.813070 0.000000 0.582166
vn 0.813070 0.000000 0.582166
vn 0.603888 0.797069 0.000000
vn 0.603888 0.797069 0.000000
vn 0.603888 0.797069 0.000000
vn 0.603888 0.797069 0.000000
vn 0.813062 0.000000 -0.582177
vn 0.813062 0.000000 -0.582177
vn 0.813062 0.000000 -0.582177
vn 0.813062 0.000000 -0.582177
vn 0.603889 -0.797068 0.000000
vn 0.603889 -0.797068 0.000000
vn 0.603889 -0.797068 0.000000
vn 0.603889 -0.797068 0.000000
vn 0.691465 0.000000 0.722410
vn 0.691465 0.000000 0.722410
vn 0.691465 0.000000 0.722410
vn 0.691465 0.000000 0.722410
vn 0.000000 1.000000 0.000000
vn 0.000000 1.000000 0.000000
vn 0.000000 1.000000 0.000000
vn 0.000000 1.000000 0.000000
vn 0.691465 0.000000 -0.722410
vn 0.691465 0.000000 -0.722410
vn 0.691465 0.000000 -0.722410
vn 0.691465 0.000000 -0.722410
vn 0.000000 -1.000000 0.000000
vn 0.000000 -1.000000 0.000000
vn 0.000000 -1.000000 0.000000
vn 0.000000 -1.000000 0.000000
vn -0.609609 0.792703 0.000000
vn -0.609609 0.792703 0.000000
vn -0.609609 0.792702 0.000000
vn -0.609609 0.792703 0.000000
vn -0.959532 0.000000 0.281599
vn -0.959532 0.000000 0.281598
vn -0.959532 0.000000 0.281598
vn -0.959532 0.000000 0.281599
vn -0.609610 -0.792701 0.000000
vn -0.609610 -0.792701 0.000000
vn -0.609610 -0.792701 0.000000
vn -0.609610 -0.792701 0.000000
vn -0.959533 0.000000 -0.281597
vn -0.959533 0.000000 -0.281597
vn -0.959533 0.000000 -0.281597
vn -0.959533 0.000000 -0.281597
vn 0.960364 0.000000 0.278750
vn 0.960364 0.000000 0.278750
vn 0.960364 0.000000 0.278750
vn 0.960364 0.000000 0.278750
vn 0.618000 0.786178 0.000000
vn 0.618000 0.786178 0.000000
vn 0.618000 0.786178 0.000000
vn 0.618000 0.786178 0.000000
vn 0.960364 0.000000 -0.278750
vn 0.960364 0.000000 -0.278750
vn 0.960364 0.000000 -0.278750
vn 0.960364 0.000000 -0.278750
vn 0.618002 -0.786177 0.000000
vn 0.618002 -0.786177 0.000000
vn 0.618002 -0.786177 0.000000
vn 0.618002 -0.786177 0.000000
vn 0.707107 -0.000000 0.707107
vn 0.707107 -0.000000 0.707107
vn 0.707107 -0.000000 0.707107
vn 0.707107 -0.000000 0.707107
vn -0.707107 0.000000 -0.707107
vn -0.707107 0.000000 -0.707107
vn -0.707107 0.000000 -0.707107
vn -0.707107 0.000000 -0.707107
vn 0.000000 -1.000000 0.000000
vn 0.000000 -1.000000 0.000000
vn 0.000000 -1.000000 0.000000
vn 0.000000 -1.000000 0.000000
vn 0.687946 0.231214 -0.687946
vn 0.687946 0.231213 -0.687946
vn 0.687946 0.231214 -0.687946
vn 0.687946 0.231213 -0.687946
vn -0.686488 -0.239723 0.686488
vn -0.686488 -0.239723 0.686488
vn -0.686488 -0.239723 0.686488
vn -0.686488 -0.239723 0.686488
vn 0.707107 0.000000 -0.707107
vn 0.707107 0.000000 -0.707107
vn 0.707107 0.000000 -0.707107
vn 0.707107 0.000000 -0.707107
vn -0.707106 -0.000001 0.707108
vn -0.707106 -0.000001 0.707108
vn -0.707106 -0.000001 0.707108
vn -0.707106 -0.000001 0.707108
vn 0.000000 -1.000000 0.000000
vn 0.000000 -1.000000 0.000000
vn 0.000000 -1.000000 0.000000
vn 0.000000 -1.000000 0.000000
vn -0.687944 0.231213 -0.687948
vn -0.687944 0.231213 -0.687948
vn -0.687944 0.231213 -0.687948
vn -0.687944 0.231213 -0.687948
vn 0.686487 -0.239724 0.686489
vn 0.686487 -0.239724 0.686489
vn 0.686487 -0.239724 0.686489
vn 0.686487 -0.239724 0.686489
vn -0.707108 0.000001 -0.707106
vn -0.707108 0.000001 -0.707106
vn -0.707108 0.000001 -0.707106
vn -0.707108 0.000001 -0.707106
vn 0.707107 -0.000000 0.707107
vn 0.707107 -0.000000 0.707107
vn 0.707107 -0.000000 0.707107
vn 0.707107 -0.000000 0.707107
vn 0.000000 -1.000000 -0.000000
vn 0.000000 -1.000000 -0.000000
vn 0.000000 -1.000000 -0.000000
vn 0.000000 -1.000000 -0.000000
vn -0.687944 0.231213 0.687949
vn -0.687944 0.231213 0.687948
vn -0.687944 0.231213 0.687949
vn -0.687944 0.231213 0.687948
vn 0.686489 -0.239723 -0.686487
vn 0.686489 -0.239723 -0.686487
vn 0.686489 -0.239723 -0.686487
vn 0.686489 -0.239723 -0.686487
vn -0.707107 -0.000000 0.707107
vn -0.707107 -0.000000 0.707107
vn -0.707107 -0.000000 0.707107
vn -0.707107 -0.000000 0.707107
vn 0.707109 0.000001 -0.707105
vn 0.707109 0.000001 -0.707105
vn 0.707109 0.000001 -0.707105
vn 0.707109 0.000001 -0.707105
vn 0.000000 -1.000000 0.000000
vn 0.000000 -1.000000 0.000000
vn 0.000000 -1.000000 0.000000
vn 0.000000 -1.000000 0.000000
vn 0.687947 0.231213 0.687946
vn 0.687947 0.231213 0.687946
vn 0.687947 0.231213 0.687946
vn 0.687947 0.231213 0.687946
vn -0.686490 -0.239723 -0.686486
vn -0.686490 -0.239723 -0.686486
vn -0.686490 -0.239723 -0.686487
vn -0.686490 -0.239723 -0.686487
s off
f 1/1/1 2/2/2 4/4/3 3/48/4
f 3/3/5 4/47/6 6/6/7 5/46/8
f 5/5/9 6/45/10 8/8/11 7/44/12
f 7/7/13 8/43/14 2/10/15 1/9/16
f 9/11/17 10/12/18 12/13/19 11/42/20
f 11/14/21 12/41/22 14/15/23 13/40/24
f 13/16/25 14/39/26 16/17/27 15/38/28
f 15/18/29 16/37/30 10/19/31 9/20/32
f 17/21/33 18/22/34 20/23/35 19/36/36
f 19/24/37 20/35/38 22/25/39 21/34/40
f 21/26/41 22/33/42 24/27/43 23/32/44
f 23/28/45 24/31/46 18/29/47 17/30/48
f 58/49/49 59/50/50 61/51/51 62/52/52
f 57/53/53 58/49/54 62/52/55 63/54/56
f 60/55/57 57/53/58 63/54/59 64/56/60
f 59/57/61 60/55/62 64/56/63 61/58/64
f 26/59/65 32/60/66 30/61/67 28/62/68
f 31/63/69 25/64/70 27/65/71 29/66/72
f 37/67/73 38/68/74 50/69/75 51/70/76
f 38/68/77 39/71/78 49/72/79 50/69/80
f 39/73/81 40/74/82 52/75/83 49/76/84
f 40/74/85 37/67/86 51/70/87 52/75/88
f 45/77/89 46/78/90 38/68/91 37/67/92
f 46/78/93 47/79/94 39/71/95 38/68/96
f 47/80/97 48/81/98 40/74/99 39/73/100
f 48/81/101 45/77/102 37/67/103 40/74/104
f 42/82/105 41/83/106 65/84/107 66/85/108
f 43/86/109 42/82/110 66/85/111 67/87/112
f 44/88/113 43/86/114 67/87/115 68/89/116
f 41/90/117 44/88/118 68/89/119 65/91/120
f 69/92/121 70/93/122 46/78/123 45/77/124
f 70/93/125 71/94/126 47/79/127 46/78/128
f 71/95/129 72/96/130 48/81/131 47/80/132
f 72/96/133 69/92/134 45/77/135 48/81/136
f 50/69/137 49/72/138 53/97/139 54/98/140
f 51/70/141 50/69/142 54/98/143 55/99/144
f 52/75/145 51/70/146 55/99/147 56/100/148
f 49/76/149 52/75/150 56/100/151 53/101/152
f 54/98/153 53/97/154 35/102/155 34/103/156
f 55/99/157 54/98/158 34/103/159 33/104/160
f 56/100/161 55/99/162 33/104/163 36/105/164
f 53/101/165 56/100/166 36/105/167 35/106/168
f 33/104/169 34/103/170 58/49/171 57/53/172
f 34/103/173 35/102/174 59/50/175 58/49/176
f 35/106/177 36/105/178 60/55/179 59/57/180
f 36/105/181 33/104/182 57/53/183 60/55/184
f 62/52/185 61/51/186 41/83/187 42/82/188
f 63/54/189 62/52/190 42/82/191 43/86/192
f 64/56/193 63/54/194 43/86/195 44/88/196
f 61/58/197 64/56/198 44/88/199 41/90/200
f 66/85/201 65/84/202 73/107/203 74/108/204
f 67/87/205 66/85/206 74/108/207 75/109/208
f 68/89/209 67/87/210 75/109/211 76/110/212
f 65/91/213 68/89/214 76/110/215 73/111/216
f 27/65/217 70/93/218 69/92/219 29/112/220
f 25/64/221 71/94/222 70/93/223 27/65/224
f 31/113/225 72/96/226 71/95/227 25/114/228
f 29/112/229 69/92/230 72/96/231 31/113/232
f 74/108/233 73/107/234 26/59/235 28/62/236
f 75/109/237 74/108/238 28/62/239 30/115/240
f 76/110/241 75/109/242 30/115/243 32/116/244
f 73/111/245 76/110/246 32/116/247 26/117/248
f 77/118/249 78/119/250 80/120/251 79/121/252
f 81/122/253 82/123/254 84/124/255 83/125/256
f 83/125/257 84/124/258 78/126/259 77/127/260
f 78/119/261 84/128/262 82/129/263 80/120/264
f 83/130/265 77/118/266 79/121/267 81/131/268
f 85/132/269 86/133/270 88/134/271 87/135/272
f 89/136/273 90/137/274 92/138/275 91/139/276
f 91/139/277 92/138/278 86/140/279 85/141/280
f 86/133/281 92/142/282 90/143/283 88/134/284
f 91/144/285 85/132/286 87/135/287 89/145/288
f 93/146/289 94/147/290 96/148/291 95/149/292
f 97/150/293 98/151/294 100/152/295 99/153/296
f 99/153/297 100/152/298 94/154/299 93/155/300
f 94/147/301 100/156/302 98/157/303 96/148/304
f 99/158/305 93/146/306 95/149/307 97/159/308
f 101/160/309 102/161/310 104/162/311 103/163/312
f 105/164/313 106/165/314 108/166/315 107/167/316
f 107/167/317 108/166/318 102/168/319 101/169/320
f 102/161/321 108/170/322 106/171/323 104/162/324
f 107/172/325 101/160/326 103/163/327 105/173/328
