# This file uses centimeters as units for non-parametric coordinates.

v -0.121285 0.000000 0.121295
v 0.121295 0.000000 0.121295
v -0.085739 0.713702 0.085749
v 0.085749 0.719085 0.085749
v -0.085739 0.733419 -0.085749
v 0.085749 0.740415 -0.085749
v -0.121285 0.000000 -0.121294
v 0.121295 0.000000 -0.121294
v -0.010864 0.740415 -0.114486
v -0.010864 0.719085 0.114486
v -0.015370 0.000000 0.161944
v -0.015370 0.000000 -0.161934
v -0.015370 0.000000 0.000690
v -0.161934 0.000000 0.000690
v -0.114477 0.706706 0.000490
v -0.005882 0.660046 0.003718
v 0.114487 0.740415 0.000490
v 0.161944 0.000000 0.000690
v -0.008032 0.657805 -0.084670
v -0.063419 0.657805 -0.063419
v -0.084679 0.657805 0.000370
v -0.063419 0.657805 0.063429
v -0.008032 0.657805 0.084680
v 0.063429 0.657805 0.063429
v 0.084689 0.657805 0.000370
v 0.063429 0.657805 -0.063419
v -0.014192 0.609174 -0.139693
v -0.111987 0.584715 -0.111987
v -0.149514 0.584715 0.000635
v -0.118391 0.535046 0.111987
v -0.014192 0.584715 0.149524
v 0.111997 0.584715 0.111987
v 0.147334 0.527033 0.000635
v 0.111997 0.584715 -0.111987
v -0.021616 0.069060 -0.227764
v -0.170599 0.069060 -0.170599
v -0.227764 0.069060 0.000979
v -0.170599 0.069060 0.170599
v -0.021616 0.069060 0.227774
v 0.170609 0.069060 0.170599
v 0.227774 0.069060 0.000979
v 0.170609 0.069060 -0.170599
v 0.136269 0.723070 0.000583
v 0.102064 0.701740 0.102064
v -0.012932 0.701740 0.136269
v -0.102053 0.696357 0.102064
v -0.136258 0.689361 0.000583
v -0.102053 0.716074 -0.102064
v -0.012932 0.723070 -0.136269
v 0.102064 0.723070 -0.102064
v 0.053972 0.641323 -0.053962
v 0.072060 0.641323 0.000317
v 0.053972 0.641323 0.053964
v -0.006837 0.641323 0.072051
v -0.053962 0.641323 0.053964
v -0.072049 0.641323 0.000317
v -0.053962 0.641323 -0.053962
v -0.006837 0.641323 -0.072040
v -0.054226 0.672042 -0.054234
v -0.072410 0.672042 0.000317
v -0.054226 0.672042 0.054236
v -0.006872 0.672042 0.072411
v 0.054236 0.672042 0.054236
v 0.072420 0.672042 0.000317
v 0.054236 0.672042 -0.054234
v -0.006872 0.672042 -0.072401
v -0.022930 0.212943 -0.241556
v 0.180939 0.249609 -0.180928
v 0.241566 0.249609 0.001027
v 0.180939 0.168954 0.180924
v -0.022930 0.168954 0.241566
v -0.180928 0.212943 0.180924
v -0.255683 0.172132 -0.030574
v -0.195056 0.172132 -0.212530
vt 0.330486 0.166035
vt 0.330486 0.166035
vt 0.330486 0.166035
vt 0.330486 0.166035
vt 0.330486 0.166035
vt 0.330486 0.166035
vt 0.330486 0.166035
vt 0.330486 0.166035
vt 0.330486 0.166035
vt 0.330486 0.166035
vt 0.330486 0.166035
vt 0.330486 0.166035
vt 0.330486 0.166035
vt 0.330486 0.166035
vt 0.330486 0.166035
vt 0.330486 0.166035
vt 0.330486 0.166035
vt 0.330486 0.166035
vt 0.330486 0.166035
vt 0.330486 0.166035
vt 0.330486 0.166035
vt 0.330486 0.166035
vt 0.330486 0.166035
vt 0.330486 0.166035
vt 0.330486 0.166035
vt 0.330486 0.166035
vt 0.330486 0.166035
vt 0.330486 0.166035
vt 0.330486 0.166035
vt 0.362549 0.187071
vt 0.362549 0.187071
vt 0.362549 0.187071
vt 0.362549 0.187071
vt 0.362549 0.187071
vt 0.362549 0.187071
vt 0.362549 0.187071
vt 0.362549 0.187071
vt 0.362549 0.187071
vt 0.362549 0.187071
vt 0.330486 0.166035
vt 0.330486 0.166035
vt 0.330486 0.166035
vt 0.330486 0.166035
vt 0.330486 0.166035
vt 0.330486 0.166035
vt 0.330486 0.166035
vt 0.330486 0.166035
vt 0.330486 0.166035
vt 0.330486 0.166035
vt 0.330486 0.166035
vt 0.330486 0.166035
vt 0.330486 0.166035
vt 0.330486 0.166035
vt 0.330486 0.166035
vt 0.330486 0.166035
vt 0.330486 0.166035
vt 0.330486 0.166035
vt 0.330486 0.166035
vt 0.330486 0.166035
vt 0.330486 0.166035
vt 0.330486 0.166035
vt 0.330486 0.166035
vt 0.330486 0.166035
vt 0.330486 0.166035
vt 0.330486 0.166035
vt 0.330486 0.166035
vt 0.330486 0.166035
vt 0.330486 0.166035
vt 0.330486 0.166035
vt 0.330486 0.166035
vt 0.330486 0.166035
vt 0.330486 0.166035
vt 0.330486 0.166035
vt 0.330486 0.166035
vt 0.330486 0.166035
vt 0.330486 0.166035
vt 0.330486 0.166035
vt 0.330486 0.166035
vt 0.330486 0.166035
vt 0.330486 0.166035
vt 0.330486 0.166035
vt 0.330486 0.166035
vt 0.330486 0.166035
vt 0.330486 0.166035
vt 0.330486 0.166035
vt 0.330486 0.166035
vt 0.330486 0.166035
vt 0.330486 0.166035
vt 0.330486 0.166035
vt 0.362549 0.187071
vt 0.362549 0.187071
vt 0.362549 0.187071
vt 0.362549 0.187071
vt 0.362549 0.187071
vt 0.362549 0.187071
vt 0.362549 0.187071
vt 0.362549 0.187071
vt 0.362549 0.187071
vt 0.362549 0.187071
vt 0.362549 0.187071
vt 0.362549 0.187071
vt 0.362549 0.187071
vt 0.362549 0.187071
vt 0.330486 0.166035
vt 0.330486 0.166035
vt 0.330486 0.166035
vt 0.330486 0.166035
vt 0.330486 0.166035
vt 0.330486 0.166035
vt 0.330486 0.166035
vt 0.330486 0.166035
vt 0.330486 0.166035
vt 0.330486 0.166035
vn 0.127356 -0.894678 0.428173
vn 0.127356 -0.894678 0.428173
vn 0.127356 -0.894678 0.428173
vn 0.127356 -0.894678 0.428173
vn -0.542774 0.820173 0.180869
vn -0.542774 0.820173 0.180869
vn -0.542774 0.820173 0.180869
vn 0.185596 -0.758993 -0.624086
vn 0.185596 -0.758993 -0.624086
vn 0.185596 -0.758994 -0.624086
vn 0.185596 -0.758993 -0.624086
vn 0.000000 -1.000000 0.000000
vn 0.000000 -1.000000 0.000000
vn 0.000000 -1.000000 0.000000
vn 0.000000 -1.000000 0.000000
vn 0.611703 -0.764369 -0.203861
vn 0.611703 -0.764369 -0.203861
vn 0.611703 -0.764369 -0.203861
vn 0.611703 -0.764369 -0.203861
vn -0.370641 -0.887344 -0.274310
vn -0.370641 -0.887344 -0.274310
vn -0.370641 -0.887344 -0.274310
vn -0.370641 -0.887344 -0.274310
vn 0.135500 0.821976 0.553168
vn 0.135500 0.821976 0.553169
vn 0.135500 0.821976 0.553168
vn -0.112823 -0.914748 0.387952
vn -0.112823 -0.914748 0.387952
vn -0.112823 -0.914748 0.387952
vn -0.112823 -0.914748 0.387952
vn 0.000000 -1.000000 -0.000000
vn 0.000000 -1.000000 -0.000000
vn 0.000000 -1.000000 -0.000000
vn 0.000000 -1.000000 -0.000000
vn -0.183655 -0.790556 -0.584202
vn -0.183655 -0.790556 -0.584202
vn -0.183655 -0.790556 -0.584202
vn -0.183655 -0.790556 -0.584202
vn 0.000000 -1.000000 0.000000
vn 0.000000 -1.000000 0.000000
vn 0.000000 -1.000000 0.000000
vn 0.000000 -1.000000 0.000000
vn -0.291945 -0.945983 0.141013
vn -0.291945 -0.945983 0.141013
vn -0.291945 -0.945983 0.141013
vn -0.291945 -0.945983 0.141013
vn 0.114622 0.878789 -0.463241
vn 0.114622 0.878789 -0.463241
vn 0.114622 0.878789 -0.463241
vn -0.554777 0.831732 0.021094
vn -0.554777 0.831732 0.021094
vn -0.554777 0.831732 0.021094
vn 0.562256 -0.823415 0.076527
vn 0.562256 -0.823415 0.076527
vn 0.562256 -0.823415 0.076527
vn 0.562256 -0.823415 0.076527
vn 0.000000 -1.000000 0.000000
vn 0.000000 -1.000000 0.000000
vn 0.000000 -1.000000 0.000000
vn 0.000000 -1.000000 0.000000
vn -0.284932 0.846552 -0.449626
vn -0.284931 0.846552 -0.449626
vn -0.284931 0.846552 -0.449626
vn -0.284931 0.846552 -0.449626
vn -0.579424 0.791827 -0.193073
vn -0.579424 0.791827 -0.193073
vn -0.579424 0.791827 -0.193073
vn -0.579424 0.791827 -0.193073
vn -0.620632 0.680296 0.389889
vn -0.620632 0.680296 0.389889
vn -0.620632 0.680296 0.389889
vn -0.620632 0.680296 0.389889
vn -0.438974 0.681014 0.586107
vn -0.438974 0.681014 0.586107
vn -0.438974 0.681014 0.586107
vn -0.438974 0.681014 0.586107
vn 0.175978 0.786788 0.591605
vn 0.175978 0.786788 0.591605
vn 0.175978 0.786788 0.591605
vn 0.175978 0.786788 0.591605
vn 0.782055 0.622186 0.035706
vn 0.782055 0.622186 0.035706
vn 0.782055 0.622186 0.035706
vn 0.782055 0.622186 0.035706
vn 0.782182 0.622045 -0.035388
vn 0.782182 0.622045 -0.035388
vn 0.782182 0.622045 -0.035388
vn 0.782182 0.622045 -0.035388
vn 0.231144 0.836192 -0.497348
vn 0.231144 0.836192 -0.497348
vn 0.231144 0.836192 -0.497348
vn 0.231144 0.836192 -0.497347
vn -0.223702 -0.236683 -0.945483
vn -0.223702 -0.236683 -0.945483
vn -0.223702 -0.236683 -0.945483
vn -0.223702 -0.236683 -0.945483
vn -0.894417 -0.333482 -0.298007
vn -0.894417 -0.333482 -0.298007
vn -0.894417 -0.333482 -0.298007
vn -0.894417 -0.333482 -0.298007
vn -0.934721 -0.115893 0.335954
vn -0.934721 -0.115893 0.335954
vn -0.934721 -0.115893 0.335954
vn -0.934721 -0.115893 0.335954
vn -0.369748 -0.108944 0.922723
vn -0.369748 -0.108944 0.922723
vn -0.369748 -0.108944 0.922723
vn -0.369748 -0.108944 0.922723
vn 0.282776 -0.127517 0.950672
vn 0.282776 -0.127517 0.950672
vn 0.282776 -0.127517 0.950672
vn 0.282776 -0.127517 0.950672
vn 0.949828 -0.092745 0.298704
vn 0.949828 -0.092745 0.298704
vn 0.949829 -0.092745 0.298704
vn 0.949829 -0.092745 0.298704
vn 0.946250 -0.072186 -0.315277
vn 0.946250 -0.072186 -0.315277
vn 0.946250 -0.072186 -0.315277
vn 0.946250 -0.072186 -0.315277
vn 0.290866 -0.078975 -0.953499
vn 0.290866 -0.078975 -0.953499
vn 0.290866 -0.078975 -0.953499
vn 0.290866 -0.078975 -0.953499
vn -0.263325 -0.677999 -0.686278
vn -0.263325 -0.677999 -0.686278
vn -0.263325 -0.677999 -0.686278
vn -0.263325 -0.677999 -0.686278
vn -0.704097 -0.670231 -0.234602
vn -0.704097 -0.670231 -0.234602
vn -0.704097 -0.670231 -0.234602
vn -0.704097 -0.670231 -0.234602
vn -0.702732 -0.670876 0.236840
vn -0.702732 -0.670876 0.236840
vn -0.702732 -0.670876 0.236840
vn -0.702732 -0.670876 0.236840
vn -0.263372 -0.677999 0.686260
vn -0.263372 -0.677999 0.686260
vn -0.263372 -0.677999 0.686260
vn -0.263372 -0.677999 0.686260
vn 0.213187 -0.663944 0.716749
vn 0.213187 -0.663944 0.716749
vn 0.213187 -0.663944 0.716749
vn 0.213187 -0.663944 0.716749
vn 0.702733 -0.670876 0.236840
vn 0.702733 -0.670876 0.236840
vn 0.702733 -0.670876 0.236840
vn 0.702733 -0.670876 0.236840
vn 0.704097 -0.670231 -0.234602
vn 0.704097 -0.670231 -0.234602
vn 0.704097 -0.670231 -0.234602
vn 0.704097 -0.670231 -0.234602
vn 0.213147 -0.663945 -0.716761
vn 0.213147 -0.663945 -0.716761
vn 0.213147 -0.663945 -0.716760
vn 0.213147 -0.663945 -0.716761
vn 0.540537 0.762145 0.356308
vn 0.540537 0.762145 0.356308
vn 0.540537 0.762145 0.356308
vn 0.540537 0.762145 0.356308
vn 0.185261 0.760102 0.622835
vn 0.185261 0.760102 0.622835
vn 0.185261 0.760102 0.622835
vn 0.185261 0.760102 0.622835
vn -0.270825 0.773226 0.573389
vn -0.270825 0.773226 0.573389
vn -0.270825 0.773226 0.573389
vn -0.270825 0.773226 0.573389
vn -0.627986 0.762731 0.154515
vn -0.627986 0.762731 0.154515
vn -0.627986 0.762731 0.154515
vn -0.627986 0.762731 0.154515
vn -0.670098 0.742152 -0.013382
vn -0.670099 0.742152 -0.013382
vn -0.670099 0.742152 -0.013382
vn -0.670098 0.742152 -0.013382
vn -0.283662 0.773207 -0.567174
vn -0.283662 0.773207 -0.567174
vn -0.283662 0.773207 -0.567174
vn -0.283662 0.773207 -0.567174
vn 0.185260 0.760103 -0.622835
vn 0.185260 0.760103 -0.622835
vn 0.185260 0.760103 -0.622835
vn 0.185260 0.760103 -0.622835
vn 0.610437 0.765499 -0.203417
vn 0.610437 0.765499 -0.203417
vn 0.610437 0.765499 -0.203417
vn 0.610437 0.765499 -0.203417
vn 0.767769 -0.587421 -0.255865
vn 0.767769 -0.587421 -0.255865
vn 0.767769 -0.587421 -0.255865
vn 0.767769 -0.587421 -0.255865
vn 0.766393 -0.588114 0.258388
vn 0.766393 -0.588114 0.258388
vn 0.766393 -0.588114 0.258388
vn 0.766393 -0.588114 0.258388
vn 0.232009 -0.581044 0.780103
vn 0.232009 -0.581044 0.780103
vn 0.232009 -0.581044 0.780103
vn 0.232009 -0.581044 0.780103
vn -0.287777 -0.595659 0.749917
vn -0.287777 -0.595659 0.749917
vn -0.287777 -0.595659 0.749917
vn -0.287777 -0.595659 0.749917
vn -0.766393 -0.588114 0.258388
vn -0.766393 -0.588114 0.258388
vn -0.766393 -0.588114 0.258388
vn -0.766393 -0.588114 0.258388
vn -0.767769 -0.587421 -0.255865
vn -0.767769 -0.587421 -0.255865
vn -0.767769 -0.587421 -0.255865
vn -0.767769 -0.587421 -0.255865
vn -0.287756 -0.595527 -0.750029
vn -0.287756 -0.595527 -0.750029
vn -0.287756 -0.595527 -0.750029
vn -0.287756 -0.595527 -0.750029
vn 0.231990 -0.580904 -0.780212
vn 0.231990 -0.580904 -0.780212
vn 0.231990 -0.580904 -0.780212
vn 0.231989 -0.580904 -0.780212
vn -0.734869 0.632435 -0.244938
vn -0.734868 0.632435 -0.244938
vn -0.734868 0.632435 -0.244938
vn -0.734869 0.632435 -0.244938
vn -0.733468 0.633135 0.247317
vn -0.733468 0.633135 0.247317
vn -0.733467 0.633135 0.247317
vn -0.733468 0.633135 0.247317
vn -0.275149 0.640464 0.717007
vn -0.275148 0.640464 0.717007
vn -0.275149 0.640464 0.717007
vn -0.275149 0.640464 0.717007
vn 0.222285 0.626058 0.747422
vn 0.222285 0.626058 0.747422
vn 0.222285 0.626058 0.747422
vn 0.222285 0.626058 0.747422
vn 0.733467 0.633135 0.247318
vn 0.733467 0.633135 0.247318
vn 0.733467 0.633135 0.247318
vn 0.733467 0.633135 0.247318
vn 0.734868 0.632435 -0.244938
vn 0.734868 0.632435 -0.244938
vn 0.734868 0.632435 -0.244938
vn 0.734868 0.632435 -0.244938
vn 0.222272 0.625916 -0.747545
vn 0.222272 0.625916 -0.747545
vn 0.222272 0.625916 -0.747545
vn 0.222272 0.625916 -0.747545
vn -0.275135 0.640332 -0.717130
vn -0.275135 0.640332 -0.717130
vn -0.275135 0.640332 -0.717130
vn -0.275135 0.640332 -0.717130
vn 0.355123 0.852962 0.382549
vn 0.355123 0.852962 0.382549
vn 0.355123 0.852962 0.382549
vn -0.139986 0.871158 -0.470624
vn -0.139986 0.871158 -0.470624
vn -0.139986 0.871158 -0.470624
vn -0.166337 0.812162 0.559218
vn -0.166337 0.812162 0.559218
vn -0.166337 0.812162 0.559218
vn 0.391497 0.896925 -0.205563
vn 0.391497 0.896925 -0.205563
vn 0.391497 0.896925 -0.205563
vn 0.242730 0.239532 -0.940057
vn 0.242730 0.239532 -0.940057
vn 0.242730 0.239532 -0.940057
vn 0.242730 0.239532 -0.940057
vn 0.928673 0.275218 -0.248641
vn 0.928672 0.275218 -0.248641
vn 0.928673 0.275218 -0.248641
vn 0.928672 0.275218 -0.248641
vn 0.914304 0.247305 0.320763
vn 0.914304 0.247305 0.320763
vn 0.914304 0.247305 0.320763
vn 0.914304 0.247305 0.320763
vn 0.279240 0.201954 0.938743
vn 0.279240 0.201954 0.938743
vn 0.279240 0.201954 0.938744
vn 0.279240 0.201954 0.938743
vn -0.345524 0.231766 0.909339
vn -0.345524 0.231766 0.909339
vn -0.345524 0.231766 0.909339
vn -0.345524 0.231766 0.909339
vn -0.923334 0.227897 0.309057
vn -0.923334 0.227897 0.309057
vn -0.923334 0.227897 0.309057
vn -0.923334 0.227897 0.309057
vn -0.916371 0.258908 -0.305338
vn -0.916371 0.258908 -0.305338
vn -0.916371 0.258908 -0.305338
vn -0.916371 0.258908 -0.305338
vn -0.258774 0.262034 -0.929717
vn -0.258774 0.262034 -0.929717
vn -0.258774 0.262034 -0.929717
vn -0.258774 0.262034 -0.929717
s off
f 44/61/1 45/62/2 62/84/3 63/85/4
f 6/6/5 16/25/6 17/26/7
f 65/87/8 66/89/9 49/67/10 50/68/11
f 18/28/12 13/20/13 12/19/14 8/8/15
f 50/69/16 43/60/17 64/86/18 65/88/19
f 59/80/20 60/82/21 47/64/22 48/65/23
f 5/5/24 16/25/25 9/15/26
f 61/83/27 62/84/28 45/62/29 46/63/30
f 7/7/31 12/19/32 13/20/33 14/22/34
f 48/66/35 49/67/36 66/89/37 59/81/38
f 14/22/39 13/20/40 11/18/41 1/9/42
f 46/63/43 47/64/44 60/82/45 61/83/46
f 3/3/47 10/16/48 16/25/49
f 17/26/50 16/25/51 4/4/52
f 63/85/53 64/86/54 43/60/55 44/61/56
f 11/18/57 13/20/58 18/28/59 2/10/60
f 57/78/61 58/79/62 27/40/63 28/42/64
f 28/41/65 29/43/66 56/76/67 57/77/68
f 55/75/69 56/76/70 29/43/71 30/44/72
f 30/44/73 31/45/74 54/74/75 55/75/76
f 53/73/77 54/74/78 31/45/79 32/46/80
f 32/46/81 33/47/82 52/72/83 53/73/84
f 51/71/85 52/72/86 33/47/87 34/49/88
f 34/48/89 27/40/90 58/79/91 51/70/92
f 74/113/93 67/104/94 35/50/95 36/52/96
f 36/51/97 37/53/98 73/111/99 74/112/100
f 72/110/101 73/111/102 37/53/103 38/54/104
f 38/54/105 39/55/106 71/109/107 72/110/108
f 70/108/109 71/109/110 39/55/111 40/56/112
f 40/56/113 41/57/114 69/107/115 70/108/116
f 68/106/117 69/107/118 41/57/119 42/59/120
f 42/58/121 35/50/122 67/104/123 68/105/124
f 36/52/125 35/50/126 12/19/127 7/7/128
f 7/13/129 14/21/130 37/53/131 36/51/132
f 38/54/133 37/53/134 14/21/135 1/1/136
f 1/1/137 11/17/138 39/55/139 38/54/140
f 40/56/141 39/55/142 11/17/143 2/2/144
f 2/2/145 18/29/146 41/57/147 40/56/148
f 42/59/149 41/57/150 18/29/151 8/11/152
f 12/19/153 35/50/154 42/58/155 8/8/156
f 44/61/157 43/60/158 17/27/159 4/4/160
f 10/16/161 45/62/162 44/61/163 4/4/164
f 46/63/165 45/62/166 10/16/167 3/3/168
f 15/23/169 47/64/170 46/63/171 3/3/172
f 48/65/173 47/64/174 15/23/175 5/14/176
f 5/5/177 9/15/178 49/67/179 48/66/180
f 50/68/181 49/67/182 9/15/183 6/6/184
f 17/27/185 43/60/186 50/69/187 6/12/188
f 26/30/189 25/31/190 52/32/191 51/33/192
f 53/34/193 52/32/194 25/31/195 24/35/196
f 24/35/197 23/36/198 54/37/199 53/34/200
f 55/38/201 54/37/202 23/36/203 22/39/204
f 22/39/205 21/90/206 56/91/207 55/38/208
f 57/92/209 56/91/210 21/90/211 20/93/212
f 20/93/213 19/94/214 58/95/215 57/92/216
f 51/33/217 58/95/218 19/94/219 26/30/220
f 20/93/221 21/90/222 60/96/223 59/97/224
f 61/98/225 60/96/226 21/90/227 22/39/228
f 22/39/229 23/36/230 62/99/231 61/98/232
f 63/100/233 62/99/234 23/36/235 24/35/236
f 24/35/237 25/31/238 64/101/239 63/100/240
f 65/102/241 64/101/242 25/31/243 26/30/244
f 26/30/245 19/94/246 66/103/247 65/102/248
f 59/97/249 66/103/250 19/94/251 20/93/252
f 15/24/253 16/25/254 5/5/255
f 4/4/256 16/25/257 10/16/258
f 9/15/259 16/25/260 6/6/261
f 3/3/262 16/25/263 15/24/264
f 68/105/265 67/104/266 27/40/267 34/48/268
f 34/49/269 33/47/270 69/107/271 68/106/272
f 70/108/273 69/107/274 33/47/275 32/46/276
f 32/46/277 31/45/278 71/109/279 70/108/280
f 72/110/281 71/109/282 31/45/283 30/44/284
f 30/44/285 29/43/286 73/111/287 72/110/288
f 74/112/289 73/111/290 29/43/291 28/41/292
f 28/42/293 27/40/294 67/104/295 74/113/296
