# This file uses centimeters as units for non-parametric coordinates.

v 0.146282 1.273365 0.023201
v 0.146282 1.273365 -0.023201
v 0.187572 1.447603 0.023201
v 0.187572 1.447603 -0.023201
v 0.139641 1.446537 0.023201
v 0.139641 1.446537 -0.023201
v 0.101140 1.284098 0.023201
v 0.101140 1.284098 -0.023201
v 0.023196 1.273365 -0.146278
v -0.023199 1.273365 -0.146278
v 0.023196 1.447603 -0.187569
v -0.023199 1.447603 -0.187569
v 0.023196 1.446537 -0.139633
v -0.023199 1.446537 -0.139633
v 0.023196 1.284098 -0.101135
v -0.023199 1.284098 -0.101135
v -0.023197 1.273365 0.146294
v 0.023198 1.273365 0.146294
v -0.023197 1.447603 0.187584
v 0.023198 1.447603 0.187584
v -0.023197 1.446537 0.139648
v 0.023198 1.446537 0.139648
v -0.023197 1.284098 0.101151
v 0.023198 1.284098 0.101151
v -0.146286 1.273365 -0.023186
v -0.146286 1.273365 0.023216
v -0.187576 1.447603 -0.023186
v -0.187576 1.447603 0.023216
v -0.139645 1.446537 -0.023186
v -0.139645 1.446537 0.023216
v -0.101144 1.284098 -0.023186
v -0.101144 1.284098 0.023216
v -0.088842 0.000000 0.088837
v 0.088843 0.000000 0.088837
v -0.088842 1.212158 0.088837
v 0.088843 1.212158 0.088837
v -0.088842 1.212158 -0.088890
v 0.088843 1.212158 -0.088890
v -0.088842 0.000000 -0.088890
v 0.088843 0.000000 -0.088890
v 0.000001 1.212158 -0.118423
v 0.000001 1.212158 0.118416
v 0.000001 0.000000 0.118416
v 0.000001 0.000000 -0.118423
v -0.118392 1.212158 0.000046
v 0.118393 1.212158 0.000046
v 0.118393 0.000000 0.000046
v -0.118392 0.000000 0.000046
v 0.000001 1.225056 -0.161789
v 0.161808 1.225056 0.000046
v 0.121423 1.225056 -0.121460
v -0.161807 1.225056 0.000046
v -0.121421 1.225056 -0.121460
v -0.121421 1.225056 0.121460
v 0.000001 1.225056 0.161766
v 0.121423 1.225056 0.121460
v 0.000001 1.273363 -0.161789
v 0.161808 1.273363 0.000046
v 0.121423 1.273363 -0.121460
v -0.161807 1.273363 0.000046
v -0.121421 1.273363 -0.121460
v -0.121421 1.273363 0.121460
v 0.000001 1.273363 0.161766
v 0.121423 1.273363 0.121460
v 0.000000 1.291959 -0.082611
v 0.082640 1.291959 0.000023
v 0.062016 1.291959 -0.061996
v -0.082644 1.291959 0.000023
v -0.062015 1.291959 -0.061996
v -0.062015 1.291959 0.061996
v 0.000000 1.291959 0.082611
v 0.062016 1.291959 0.061996
v 0.000000 1.444428 -0.082611
v 0.082640 1.444428 0.000023
v 0.062016 1.444428 -0.061996
v -0.082644 1.444428 0.000023
v -0.062015 1.444428 -0.061996
v -0.062015 1.444428 0.061996
v 0.000000 1.444428 0.082611
v 0.062016 1.444428 0.061996
v 0.000002 1.444428 -0.216286
v 0.216309 1.444428 0.000061
v 0.162323 1.444428 -0.162338
v -0.216309 1.444428 0.000061
v -0.162320 1.444428 -0.162338
v -0.162320 1.444428 0.162308
v 0.000002 1.444428 0.216286
v 0.162323 1.444428 0.162308
v 0.000002 1.481614 -0.207184
v 0.207199 1.481614 0.000061
v 0.155488 1.481614 -0.155472
v -0.207199 1.481614 0.000061
v -0.155484 1.481614 -0.155472
v -0.155484 1.481614 0.155502
v 0.000002 1.481614 0.207169
v 0.155488 1.481614 0.155502
v 0.000001 1.561191 -0.088112
v 0.088121 1.561191 0.000023
v 0.066129 1.561191 -0.066124
v -0.088121 1.561191 0.000023
v -0.066127 1.561191 -0.066124
v -0.066127 1.561191 0.066139
v 0.000001 1.561191 0.088112
v 0.066129 1.561191 0.066139
v 0.000000 1.681545 -0.031479
v 0.000000 1.681545 0.000008
v 0.031478 1.681545 0.000008
v 0.023622 1.681545 -0.023613
v -0.031479 1.681545 0.000008
v -0.023622 1.681545 -0.023613
v -0.023622 1.681545 0.023628
v 0.000000 1.681545 0.031479
v 0.023622 1.681545 0.023628
vt 0.318665 0.161531
vt 0.318665 0.161531
vt 0.318665 0.161531
vt 0.318665 0.161531
vt 0.318665 0.161531
vt 0.318665 0.161531
vt 0.318665 0.161531
vt 0.318665 0.161531
vt 0.318665 0.161531
vt 0.318665 0.161531
vt 0.318665 0.161531
vt 0.318665 0.161531
vt 0.318665 0.161531
vt 0.318665 0.161531
vt 0.318665 0.161531
vt 0.318665 0.161531
vt 0.318665 0.161531
vt 0.318665 0.161531
vt 0.318665 0.161531
vt 0.318665 0.161531
vt 0.318665 0.161531
vt 0.318665 0.161531
vt 0.318665 0.161531
vt 0.318665 0.161531
vt 0.318665 0.161531
vt 0.318665 0.161531
vt 0.318665 0.161531
vt 0.318665 0.161531
vt 0.318665 0.161531
vt 0.318665 0.161531
vt 0.318665 0.161531
vt 0.318665 0.161531
vt 0.319979 0.161332
vt 0.319979 0.161332
vt 0.319979 0.161332
vt 0.319979 0.161332
vt 0.319979 0.161332
vt 0.319979 0.161332
vt 0.319979 0.161332
vt 0.319979 0.161332
vt 0.319979 0.161332
vt 0.319979 0.161332
vt 0.319979 0.161332
vt 0.319979 0.161332
vt 0.319979 0.161332
vt 0.319979 0.161332
vt 0.319979 0.161332
vt 0.319979 0.161332
vt 0.318660 0.209719
vt 0.318660 0.209719
vt 0.318660 0.209719
vt 0.318660 0.209719
vt 0.319979 0.161332
vt 0.319979 0.161332
vt 0.319979 0.161332
vt 0.319979 0.161332
vt 0.318660 0.209719
vt 0.318660 0.209719
vt 0.318660 0.209719
vt 0.318660 0.209719
vt 0.318660 0.209719
vt 0.318660 0.209719
vt 0.318660 0.209719
vt 0.318660 0.209719
vt 0.318660 0.209719
vt 0.318660 0.209719
vt 0.318660 0.209719
vt 0.318660 0.209719
vt 0.318660 0.209719
vt 0.319979 0.161332
vt 0.319979 0.161332
vt 0.318660 0.209719
vt 0.318660 0.209719
vt 0.318660 0.209719
vt 0.318660 0.209719
vt 0.318660 0.209719
vt 0.319979 0.161332
vt 0.319979 0.161332
vt 0.319979 0.161332
vt 0.318660 0.209719
vt 0.318660 0.209719
vt 0.318660 0.209719
vt 0.318660 0.209719
vt 0.318660 0.209719
vt 0.318660 0.209719
vt 0.318660 0.209719
vt 0.318660 0.209719
vt 0.318660 0.209719
vt 0.318660 0.209719
vt 0.318660 0.209719
vt 0.318660 0.209719
vt 0.318660 0.209719
vt 0.318660 0.209719
vt 0.318660 0.209719
vt 0.318660 0.209719
vt 0.318660 0.209719
vt 0.318660 0.209719
vt 0.319979 0.161332
vt 0.319979 0.161332
vt 0.319979 0.161332
vt 0.319979 0.161332
vt 0.319979 0.161332
vt 0.319979 0.161332
vt 0.319979 0.161332
vt 0.319979 0.161332
vt 0.319979 0.161332
vt 0.319979 0.161332
vt 0.319979 0.161332
vt 0.319979 0.161332
vt 0.319979 0.161332
vt 0.319979 0.161332
vt 0.319979 0.161332
vt 0.319979 0.161332
vt 0.319979 0.161332
vt 0.319979 0.161332
vt 0.319979 0.161332
vt 0.319979 0.161332
vt 0.319979 0.161332
vt 0.319979 0.161332
vt 0.319979 0.161332
vt 0.319979 0.161332
vt 0.318665 0.161531
vt 0.318665 0.161531
vt 0.318665 0.161531
vt 0.318665 0.161531
vt 0.318665 0.161531
vt 0.318665 0.161531
vt 0.318665 0.161531
vt 0.318665 0.161531
vt 0.318665 0.161531
vt 0.318665 0.161531
vt 0.318665 0.161531
vt 0.318665 0.161531
vt 0.318665 0.161531
vt 0.318665 0.161531
vt 0.318665 0.161531
vt 0.318665 0.161531
vt 0.318665 0.161531
vt 0.318665 0.161531
vt 0.318665 0.161531
vt 0.318665 0.161531
vt 0.318665 0.161531
vt 0.318665 0.161531
vt 0.318665 0.161531
vt 0.318665 0.161531
vt 0.318665 0.161531
vt 0.318665 0.161531
vt 0.318665 0.161531
vt 0.318665 0.161531
vt 0.318665 0.161531
vt 0.318665 0.161531
vt 0.318665 0.161531
vt 0.318665 0.161531
vn 0.973043 -0.230624 0.000000
vn 0.973043 -0.230624 0.000000
vn 0.973043 -0.230624 0.000000
vn 0.973043 -0.230624 0.000000
vn -0.973044 0.230621 0.000000
vn -0.973044 0.230621 0.000000
vn -0.973044 0.230621 0.000000
vn -0.973044 0.230621 0.000000
vn 0.000343 0.000000 -1.000000
vn 0.000343 0.000000 -1.000000
vn 0.000343 0.000000 -1.000000
vn 0.000343 0.000000 -1.000000
vn 0.000000 0.000000 1.000000
vn 0.000000 0.000000 1.000000
vn 0.000000 0.000000 1.000000
vn 0.000000 0.000000 1.000000
vn 0.000000 -0.230588 -0.973052
vn 0.000000 -0.230588 -0.973052
vn 0.000000 -0.230588 -0.973052
vn 0.000000 -0.230588 -0.973052
vn 0.000000 0.230627 0.973042
vn 0.000000 0.230627 0.973042
vn 0.000000 0.230627 0.973042
vn 0.000000 0.230627 0.973042
vn -1.000000 0.000005 0.000000
vn -1.000000 0.000005 0.000000
vn -1.000000 0.000005 0.000000
vn -1.000000 0.000005 0.000000
vn 1.000000 0.000000 0.000000
vn 1.000000 0.000000 0.000000
vn 1.000000 0.000000 0.000000
vn 1.000000 0.000000 0.000000
vn 0.000000 -0.230583 0.973053
vn 0.000000 -0.230583 0.973053
vn 0.000000 -0.230583 0.973053
vn 0.000000 -0.230583 0.973053
vn 0.000000 0.230627 -0.973042
vn 0.000000 0.230627 -0.973042
vn 0.000000 0.230627 -0.973042
vn 0.000000 0.230627 -0.973042
vn 1.000000 0.000000 0.000000
vn 1.000000 0.000000 0.000000
vn 1.000000 0.000000 0.000000
vn 1.000000 0.000000 0.000000
vn -1.000000 0.000000 0.000000
vn -1.000000 0.000000 0.000000
vn -1.000000 0.000000 0.000000
vn -1.000000 0.000000 0.000000
vn -0.973061 -0.230549 0.000000
vn -0.973061 -0.230549 0.000000
vn -0.973061 -0.230549 0.000000
vn -0.973061 -0.230549 0.000000
vn 0.973025 0.230701 0.000000
vn 0.973025 0.230701 0.000000
vn 0.973025 0.230701 0.000000
vn 0.973025 0.230701 0.000000
vn 0.000343 0.000000 1.000000
vn 0.000343 0.000000 1.000000
vn 0.000343 0.000000 1.000000
vn 0.000343 0.000000 1.000000
vn 0.000343 0.000000 -1.000000
vn 0.000343 0.000000 -1.000000
vn 0.000343 0.000000 -1.000000
vn 0.000343 0.000000 -1.000000
vn -0.000000 0.000000 1.000000
vn -0.000000 0.000000 1.000000
vn 0.315866 0.000000 0.948804
vn 0.315866 0.000000 0.948804
vn 0.000000 1.000000 -0.000007
vn 0.000000 1.000000 0.000007
vn 0.000000 1.000000 0.000014
vn 0.000000 1.000000 0.000000
vn 0.000000 0.000000 -1.000000
vn 0.000000 0.000000 -1.000000
vn 0.315516 0.000000 -0.948920
vn 0.315516 0.000000 -0.948920
vn 1.000000 0.000000 0.000000
vn 1.000000 0.000000 0.000000
vn 0.948991 0.000000 -0.315304
vn 0.948991 0.000000 -0.315304
vn -0.948993 0.000000 -0.315297
vn -1.000000 0.000000 -0.000000
vn -1.000000 0.000000 -0.000000
vn -0.948993 0.000000 -0.315297
vn 0.000000 1.000000 0.000000
vn 0.000000 1.000000 0.000007
vn 0.000000 1.000000 -0.000007
vn 0.000000 1.000000 -0.000014
vn -0.315861 0.000000 0.948806
vn -0.000000 0.000000 1.000000
vn -0.000000 0.000000 1.000000
vn -0.315861 0.000000 0.948806
vn -0.315511 0.000000 -0.948922
vn 0.000000 0.000000 -1.000000
vn 0.000000 0.000000 -1.000000
vn -0.315511 0.000000 -0.948922
vn 0.000000 1.000000 0.000014
vn 0.000000 1.000000 0.000022
vn 0.000000 1.000000 0.000007
vn 0.000000 1.000000 0.000000
vn 0.000000 1.000000 0.000014
vn 0.000000 1.000000 0.000007
vn 0.000000 1.000000 0.000022
vn 0.000000 1.000000 0.000029
vn 0.948836 0.000000 0.315770
vn 1.000000 0.000000 0.000000
vn 1.000000 0.000000 0.000000
vn 0.948836 0.000000 0.315770
vn -1.000000 0.000000 -0.000000
vn -1.000000 0.000000 -0.000000
vn -0.948838 0.000000 0.315762
vn -0.948838 0.000000 0.315762
vn 0.283540 -0.954321 -0.094213
vn 0.283540 -0.954321 -0.094213
vn 0.283540 -0.954321 -0.094213
vn 0.283540 -0.954321 -0.094213
vn 0.094241 -0.954264 -0.283723
vn 0.094241 -0.954264 -0.283723
vn 0.094241 -0.954264 -0.283723
vn 0.094241 -0.954264 -0.283723
vn -0.094243 -0.954269 -0.283704
vn -0.094243 -0.954269 -0.283704
vn -0.094244 -0.954269 -0.283704
vn -0.094243 -0.954269 -0.283704
vn -0.283549 -0.954317 -0.094225
vn -0.283549 -0.954317 -0.094225
vn -0.283549 -0.954317 -0.094225
vn -0.283549 -0.954318 -0.094225
vn -0.094274 -0.954301 0.283587
vn -0.094274 -0.954301 0.283587
vn -0.094274 -0.954301 0.283587
vn -0.094274 -0.954301 0.283587
vn -0.283447 -0.954340 0.094308
vn -0.283447 -0.954340 0.094308
vn -0.283447 -0.954340 0.094308
vn -0.283447 -0.954340 0.094308
vn 0.094272 -0.954295 0.283608
vn 0.094272 -0.954295 0.283608
vn 0.094272 -0.954295 0.283608
vn 0.094272 -0.954295 0.283608
vn 0.283446 -0.954341 0.094299
vn 0.283446 -0.954341 0.094299
vn 0.283446 -0.954341 0.094299
vn 0.283446 -0.954341 0.094299
vn 0.948956 0.000000 -0.315409
vn 0.948956 0.000000 -0.315409
vn 0.948956 0.000000 -0.315409
vn 0.948956 0.000000 -0.315409
vn 0.315249 0.000000 -0.949009
vn 0.315249 0.000000 -0.949009
vn 0.315249 0.000000 -0.949009
vn 0.315249 0.000000 -0.949009
vn -0.315249 0.000000 -0.949009
vn -0.315249 0.000000 -0.949009
vn -0.315249 0.000000 -0.949009
vn -0.315249 0.000000 -0.949009
vn -0.948952 0.000000 -0.315421
vn -0.948952 0.000000 -0.315421
vn -0.948952 0.000000 -0.315421
vn -0.948952 0.000000 -0.315421
vn -0.315048 0.000000 0.949076
vn -0.315048 0.000000 0.949076
vn -0.315048 0.000000 0.949076
vn -0.315048 0.000000 0.949076
vn -0.948885 0.000000 0.315621
vn -0.948885 0.000000 0.315621
vn -0.948885 0.000000 0.315621
vn -0.948885 0.000000 0.315621
vn 0.315048 0.000000 0.949076
vn 0.315048 0.000000 0.949076
vn 0.315048 0.000000 0.949076
vn 0.315048 0.000000 0.949076
vn 0.948889 0.000000 0.315609
vn 0.948889 0.000000 0.315609
vn 0.948889 0.000000 0.315609
vn 0.948889 0.000000 0.315609
vn 0.228007 0.970705 -0.075795
vn 0.228007 0.970705 -0.075795
vn 0.228007 0.970705 -0.075795
vn 0.228007 0.970705 -0.075795
vn 0.075720 0.970729 -0.227931
vn 0.075720 0.970729 -0.227931
vn 0.075720 0.970729 -0.227931
vn 0.075720 0.970729 -0.227931
vn -0.075719 0.970726 -0.227944
vn -0.075719 0.970726 -0.227944
vn -0.075719 0.970726 -0.227944
vn -0.075719 0.970726 -0.227944
vn -0.228020 0.970702 -0.075788
vn -0.228020 0.970702 -0.075788
vn -0.228020 0.970702 -0.075788
vn -0.228020 0.970702 -0.075788
vn -0.075712 0.970713 0.227999
vn -0.075712 0.970713 0.227999
vn -0.075712 0.970713 0.227999
vn -0.075712 0.970713 0.227999
vn -0.227974 0.970711 0.075815
vn -0.227974 0.970711 0.075815
vn -0.227974 0.970711 0.075815
vn -0.227974 0.970711 0.075815
vn 0.075712 0.970716 0.227986
vn 0.075712 0.970716 0.227986
vn 0.075712 0.970716 0.227986
vn 0.075712 0.970716 0.227986
vn 0.227964 0.970712 0.075834
vn 0.227964 0.970712 0.075834
vn 0.227964 0.970712 0.075834
vn 0.227964 0.970712 0.075834
vn 0.948916 0.000000 -0.315530
vn 0.948916 0.000000 -0.315530
vn 0.948916 0.000000 -0.315530
vn 0.948916 0.000000 -0.315530
vn 0.315294 0.000000 -0.948994
vn 0.315294 0.000000 -0.948994
vn 0.315294 0.000000 -0.948994
vn 0.315294 0.000000 -0.948994
vn -0.315299 0.000000 -0.948992
vn -0.315299 0.000000 -0.948992
vn -0.315299 0.000000 -0.948992
vn -0.315299 0.000000 -0.948992
vn -0.948886 0.000000 -0.315620
vn -0.948886 0.000000 -0.315620
vn -0.948886 0.000000 -0.315620
vn -0.948886 0.000000 -0.315620
vn -0.315424 0.000000 0.948951
vn -0.315424 0.000000 0.948951
vn -0.315424 0.000000 0.948951
vn -0.315424 0.000000 0.948951
vn -0.948831 0.000000 0.315785
vn -0.948831 0.000000 0.315785
vn -0.948831 0.000000 0.315785
vn -0.948831 0.000000 0.315785
vn 0.315418 0.000000 0.948953
vn 0.315418 0.000000 0.948953
vn 0.315418 0.000000 0.948953
vn 0.315418 0.000000 0.948953
vn 0.948860 0.000000 0.315696
vn 0.948860 0.000000 0.315696
vn 0.948860 0.000000 0.315696
vn 0.948860 0.000000 0.315696
vn 0.000000 -1.000000 0.000000
vn 0.000000 -1.000000 0.000000
vn 0.000000 -1.000000 0.000000
vn 0.000000 -1.000000 0.000000
vn 0.000000 -1.000000 0.000000
vn 0.000000 -1.000000 0.000000
vn 0.000000 -1.000000 0.000000
vn 0.000000 -1.000000 0.000000
vn 0.000000 -1.000000 0.000010
vn 0.000000 -1.000000 0.000010
vn 0.000000 -1.000000 0.000010
vn 0.000000 -1.000000 0.000010
vn 0.000000 -1.000000 0.000000
vn 0.000000 -1.000000 0.000000
vn 0.000000 -1.000000 0.000000
vn 0.000000 -1.000000 0.000000
vn 0.000000 -1.000000 -0.000011
vn 0.000000 -1.000000 -0.000011
vn 0.000000 -1.000000 -0.000011
vn 0.000000 -1.000000 -0.000011
vn 0.000000 -1.000000 0.000000
vn 0.000000 -1.000000 0.000000
vn 0.000000 -1.000000 0.000000
vn 0.000000 -1.000000 0.000000
vn 0.000000 -1.000000 -0.000013
vn 0.000000 -1.000000 -0.000013
vn 0.000000 -1.000000 -0.000013
vn 0.000000 -1.000000 -0.000013
vn 0.000000 -1.000000 -0.000011
vn 0.000000 -1.000000 -0.000011
vn 0.000000 -1.000000 -0.000011
vn 0.000000 -1.000000 -0.000011
vn 0.924279 0.226476 -0.307272
vn 0.924279 0.226476 -0.307272
vn 0.924279 0.226476 -0.307272
vn 0.924279 0.226476 -0.307273
vn 0.307245 0.226682 -0.924238
vn 0.307245 0.226682 -0.924238
vn 0.307245 0.226682 -0.924238
vn 0.307245 0.226682 -0.924238
vn -0.307236 0.226685 -0.924240
vn -0.307236 0.226685 -0.924240
vn -0.307236 0.226685 -0.924240
vn -0.307236 0.226685 -0.924240
vn -0.924262 0.226526 -0.307289
vn -0.924262 0.226526 -0.307289
vn -0.924262 0.226526 -0.307289
vn -0.924262 0.226526 -0.307289
vn -0.307275 0.226220 0.924341
vn -0.307275 0.226220 0.924341
vn -0.307275 0.226220 0.924341
vn -0.307275 0.226220 0.924341
vn -0.924238 0.226328 0.307505
vn -0.924238 0.226328 0.307505
vn -0.924238 0.226328 0.307505
vn -0.924238 0.226328 0.307505
vn 0.307286 0.226221 0.924337
vn 0.307286 0.226221 0.924337
vn 0.307286 0.226221 0.924337
vn 0.307286 0.226221 0.924337
vn 0.924240 0.226327 0.307501
vn 0.924240 0.226327 0.307501
vn 0.924240 0.226327 0.307501
vn 0.924240 0.226327 0.307501
vn 0.546446 0.817553 -0.181668
vn 0.546446 0.817553 -0.181668
vn 0.546446 0.817553 -0.181668
vn 0.546446 0.817553 -0.181668
vn 0.181731 0.817564 -0.546409
vn 0.181731 0.817564 -0.546409
vn 0.181731 0.817564 -0.546409
vn 0.181731 0.817564 -0.546409
vn -0.181732 0.817563 -0.546410
vn -0.181732 0.817563 -0.546410
vn -0.181732 0.817563 -0.546410
vn -0.181732 0.817563 -0.546410
vn -0.546446 0.817551 -0.181679
vn -0.546446 0.817551 -0.181679
vn -0.546446 0.817551 -0.181679
vn -0.546446 0.817551 -0.181679
vn -0.181537 0.817574 0.546459
vn -0.181537 0.817574 0.546459
vn -0.181537 0.817574 0.546459
vn -0.181537 0.817574 0.546459
vn -0.546329 0.817615 0.181743
vn -0.546329 0.817615 0.181743
vn -0.546329 0.817615 0.181743
vn -0.546329 0.817615 0.181743
vn 0.181535 0.817576 0.546456
vn 0.181535 0.817576 0.546456
vn 0.181535 0.817576 0.546456
vn 0.181535 0.817576 0.546456
vn 0.546332 0.817613 0.181744
vn 0.546332 0.817613 0.181744
vn 0.546332 0.817613 0.181744
vn 0.546332 0.817613 0.181744
vn 0.866413 0.407813 -0.288127
vn 0.866413 0.407813 -0.288127
vn 0.866413 0.407813 -0.288127
vn 0.866413 0.407813 -0.288127
vn 0.288346 0.407732 -0.866378
vn 0.288346 0.407732 -0.866378
vn 0.288346 0.407732 -0.866378
vn 0.288346 0.407732 -0.866378
vn -0.288345 0.407724 -0.866382
vn -0.288345 0.407724 -0.866382
vn -0.288345 0.407724 -0.866382
vn -0.288345 0.407724 -0.866382
vn -0.866404 0.407806 -0.288165
vn -0.866404 0.407806 -0.288165
vn -0.866404 0.407806 -0.288165
vn -0.866404 0.407806 -0.288165
vn -0.287946 0.407744 0.866506
vn -0.287946 0.407744 0.866506
vn -0.287946 0.407744 0.866506
vn -0.287946 0.407744 0.866506
vn -0.866376 0.407820 0.288230
vn -0.866376 0.407820 0.288230
vn -0.866376 0.407820 0.288230
vn -0.866376 0.407820 0.288230
vn 0.287947 0.407752 0.866502
vn 0.287947 0.407752 0.866502
vn 0.287947 0.407752 0.866502
vn 0.287947 0.407752 0.866502
vn 0.866380 0.407830 0.288203
vn 0.866380 0.407830 0.288203
vn 0.866380 0.407830 0.288203
vn 0.866380 0.407830 0.288203
s off
f 1/149/1 2/2/2 4/152/3 3/4/4
f 5/151/5 6/6/6 8/146/7 7/8/8
f 2/147/9 8/7/10 6/150/11 4/3/12
f 7/148/13 1/1/14 3/153/15 5/5/16
f 9/141/17 10/10/18 12/144/19 11/12/20
f 13/143/21 14/14/22 16/138/23 15/16/24
f 10/139/25 16/15/26 14/142/27 12/11/28
f 15/140/29 9/9/30 11/145/31 13/13/32
f 17/133/33 18/18/34 20/136/35 19/20/36
f 21/135/37 22/22/38 24/130/39 23/24/40
f 18/131/41 24/23/42 22/134/43 20/19/44
f 23/132/45 17/17/46 19/137/47 21/21/48
f 25/125/49 26/26/50 28/128/51 27/28/52
f 29/127/53 30/30/54 32/122/55 31/32/56
f 26/123/57 32/31/58 30/126/59 28/27/60
f 31/124/61 25/25/62 27/129/63 29/29/64
f 42/49/65 43/50/66 34/51/67 36/52/68
f 105/33/69 106/34/70 107/35/71 108/36/72
f 44/57/73 41/58/74 38/59/75 40/60/76
f 46/62/77 47/61/78 40/60/79 38/59/80
f 39/63/81 48/64/82 45/65/83 37/66/84
f 109/37/85 106/34/86 105/33/87 110/38/88
f 33/67/89 43/50/90 42/49/91 35/68/92
f 37/66/93 41/58/94 44/57/95 39/63/96
f 111/39/97 112/40/98 106/34/99 109/37/100
f 107/35/101 106/34/102 112/40/103 113/41/104
f 34/51/105 47/61/106 46/62/107 36/52/108
f 45/65/109 48/64/110 33/67/111 35/68/112
f 46/62/113 38/59/114 51/69/115 50/72/116
f 38/59/117 41/58/118 49/73/119 51/69/120
f 41/58/121 37/66/122 53/74/123 49/73/124
f 37/66/125 45/65/126 52/75/127 53/74/128
f 35/68/129 42/49/130 55/76/131 54/80/132
f 45/65/133 35/68/134 54/80/135 52/75/136
f 42/49/137 36/52/138 56/81/139 55/76/140
f 36/52/141 46/62/142 50/72/143 56/81/144
f 50/72/145 51/69/146 59/82/147 58/83/148
f 51/69/149 49/73/150 57/84/151 59/82/152
f 49/73/153 53/74/154 61/85/155 57/84/156
f 53/74/157 52/75/158 60/86/159 61/85/160
f 54/80/161 55/76/162 63/87/163 62/88/164
f 52/75/165 54/80/166 62/88/167 60/86/168
f 55/76/169 56/81/170 64/89/171 63/87/172
f 56/81/173 50/72/174 58/83/175 64/89/176
f 58/83/177 59/82/178 67/90/179 66/91/180
f 59/82/181 57/84/182 65/92/183 67/90/184
f 57/84/185 61/85/186 69/93/187 65/92/188
f 61/85/189 60/86/190 68/94/191 69/93/192
f 62/88/193 63/87/194 71/95/195 70/96/196
f 60/86/197 62/88/198 70/96/199 68/94/200
f 63/87/201 64/89/202 72/97/203 71/95/204
f 64/89/205 58/83/206 66/91/207 72/97/208
f 66/42/209 67/43/210 75/44/211 74/45/212
f 67/43/213 65/46/214 73/47/215 75/44/216
f 65/46/217 69/48/218 77/53/219 73/47/220
f 69/48/221 68/54/222 76/55/223 77/53/224
f 70/56/225 71/70/226 79/71/227 78/77/228
f 68/54/229 70/56/230 78/77/231 76/55/232
f 71/70/233 72/78/234 80/79/235 79/71/236
f 72/78/237 66/42/238 74/45/239 80/79/240
f 74/45/241 75/44/242 83/98/243 82/99/244
f 75/44/245 73/47/246 81/100/247 83/98/248
f 73/47/249 77/53/250 85/101/251 81/100/252
f 77/53/253 76/55/254 84/102/255 85/101/256
f 78/77/257 79/71/258 87/103/259 86/104/260
f 76/55/261 78/77/262 86/104/263 84/102/264
f 79/71/265 80/79/266 88/105/267 87/103/268
f 80/79/269 74/45/270 82/99/271 88/105/272
f 82/99/273 83/98/274 91/106/275 90/107/276
f 83/98/277 81/100/278 89/108/279 91/106/280
f 81/100/281 85/101/282 93/109/283 89/108/284
f 85/101/285 84/102/286 92/110/287 93/109/288
f 86/104/289 87/103/290 95/111/291 94/112/292
f 84/102/293 86/104/294 94/112/295 92/110/296
f 87/103/297 88/105/298 96/113/299 95/111/300
f 88/105/301 82/99/302 90/107/303 96/113/304
f 90/107/305 91/106/306 99/114/307 98/115/308
f 91/106/309 89/108/310 97/116/311 99/114/312
f 89/108/313 93/109/314 101/117/315 97/116/316
f 93/109/317 92/110/318 100/118/319 101/117/320
f 94/112/321 95/111/322 103/119/323 102/120/324
f 92/110/325 94/112/326 102/120/327 100/118/328
f 95/111/329 96/113/330 104/121/331 103/119/332
f 96/113/333 90/107/334 98/115/335 104/121/336
f 98/115/337 99/114/338 108/36/339 107/35/340
f 99/114/341 97/116/342 105/33/343 108/36/344
f 97/116/345 101/117/346 110/38/347 105/33/348
f 101/117/349 100/118/350 109/37/351 110/38/352
f 102/120/353 103/119/354 112/40/355 111/39/356
f 100/118/357 102/120/358 111/39/359 109/37/360
f 103/119/361 104/121/362 113/41/363 112/40/364
f 104/121/365 98/115/366 107/35/367 113/41/368
