# This file uses centimeters as units for non-parametric coordinates.

v 0.216545 1.963667 -0.071342
v 0.000008 2.053359 -0.071342
v -0.216530 1.963667 -0.071342
v -0.306213 1.747132 -0.071342
v -0.216530 1.530597 -0.022865
v 0.000008 1.440906 -0.071342
v 0.216545 1.530597 -0.071342
v 0.306229 1.747132 -0.071342
v 0.000008 2.053359 0.071358
v -0.216530 1.963667 0.071358
v -0.306213 1.747132 0.071358
v -0.216530 1.530597 0.071358
v 0.000008 1.440906 0.071358
v 0.216545 1.530597 0.071358
v 0.306229 1.747132 0.071358
v 0.157280 1.904404 -0.071342
v 0.000008 1.969548 -0.071342
v -0.157265 1.904404 -0.071342
v -0.222404 1.747132 -0.071342
v -0.157265 1.589861 -0.071342
v 0.000008 1.524716 -0.071342
v 0.157280 1.589861 -0.071342
v 0.222420 1.747132 -0.071342
v 0.157280 1.904404 0.071358
v 0.000008 1.969548 0.071358
v -0.157265 1.904404 0.071358
v -0.222404 1.747132 0.071358
v -0.157265 1.589861 0.071358
v 0.000008 1.524716 0.071358
v 0.157280 1.589861 0.071358
v 0.222420 1.747132 0.071358
v -0.034874 2.204598 0.034882
v 0.034882 2.204598 0.034882
v -0.034874 2.204598 -0.034882
v 0.034882 2.204598 -0.034882
v -0.079803 0.794115 0.079803
v 0.079811 0.794115 0.079803
v 0.079811 0.794115 -0.079803
v -0.079803 0.794115 -0.079803
v 0.104279 0.794115 0.170586
v -0.170586 0.794115 0.170586
v 0.170578 0.794115 -0.170578
v -0.170586 0.794115 -0.170578
v -0.199471 0.369646 -0.199478
v -0.199471 0.369646 0.199486
v 0.199478 0.369646 0.199486
v 0.199478 0.369646 -0.199478
v -0.261757 0.369646 0.261765
v -0.322655 0.369646 -0.322662
v 0.322662 0.369646 0.322662
v 0.322662 0.369646 -0.322662
v -0.337288 0.236715 -0.337296
v -0.337288 0.236715 0.337296
v 0.337296 0.236715 0.337296
v 0.337296 0.236715 -0.337296
v -0.532143 0.000000 -0.532158
v 0.532143 0.000000 -0.532158
v 0.532143 0.000000 0.532158
v -0.532143 0.000000 0.532158
v -0.519249 0.236715 0.519272
v -0.519249 0.236715 -0.519272
v 0.468506 0.236715 0.468506
v 0.519257 0.236715 -0.519272
v -0.425049 1.783317 0.036186
v -0.425049 1.710947 0.036186
v 0.425064 1.783317 0.036186
v 0.425064 1.710947 0.036186
v 0.425064 1.783317 -0.036179
v 0.425064 1.710947 -0.036179
v -0.425049 1.783317 -0.036179
v -0.425049 1.710947 -0.036179
v -0.115692 0.455555 0.193634
v 0.115700 0.455555 0.193634
v 0.098938 0.701738 0.176865
v -0.098930 0.701738 0.176865
v -0.112144 0.462785 0.244156
v 0.112152 0.462785 0.244156
v 0.095901 0.701425 0.227898
v -0.097473 0.678320 0.229469
v 0.175781 0.717731 0.175781
v 0.170578 0.794115 0.093544
v -0.322655 0.369646 0.198158
v -0.203461 0.369646 0.322662
v 0.431259 0.236715 0.519272
v 0.519257 0.236715 0.399330
v -0.068054 1.162870 0.068069
v -0.068054 1.162870 -0.009117
v 0.068062 1.162870 -0.068054
v 0.068062 1.162870 0.068069
v -0.063667 1.300547 -0.063667
v -0.012833 1.162870 -0.068054
v -0.073135 1.003425 -0.073135
v 0.124619 2.001744 0.071358
v 0.261627 1.854825 0.071358
v -0.110580 1.486712 -0.071342
v -0.259033 1.633220 -0.071342
v -0.063164 0.701425 0.227898
vt 0.352028 0.211076
vt 0.352028 0.211076
vt 0.352028 0.211076
vt 0.352028 0.211076
vt 0.352028 0.211076
vt 0.352028 0.211076
vt 0.352028 0.211076
vt 0.352028 0.211076
vt 0.352028 0.211076
vt 0.352028 0.211076
vt 0.352028 0.211076
vt 0.352028 0.211076
vt 0.352028 0.211076
vt 0.352028 0.211076
vt 0.352028 0.211076
vt 0.352028 0.211076
vt 0.352028 0.211076
vt 0.352028 0.211076
vt 0.352028 0.211076
vt 0.352028 0.211076
vt 0.352028 0.211076
vt 0.352028 0.211076
vt 0.352028 0.211076
vt 0.352028 0.211076
vt 0.352028 0.211076
vt 0.352028 0.211076
vt 0.352028 0.211076
vt 0.352028 0.211076
vt 0.352028 0.211076
vt 0.352028 0.211076
vt 0.352028 0.211076
vt 0.352028 0.211076
vt 0.352028 0.211076
vt 0.352028 0.211076
vt 0.352028 0.211076
vt 0.352028 0.211076
vt 0.352028 0.211076
vt 0.352028 0.211076
vt 0.352028 0.211076
vt 0.352028 0.211076
vt 0.352028 0.211076
vt 0.352028 0.211076
vt 0.352028 0.211076
vt 0.352028 0.211076
vt 0.352028 0.211076
vt 0.352028 0.211076
vt 0.352028 0.211076
vt 0.352028 0.211076
vt 0.352028 0.211076
vt 0.352028 0.211076
vt 0.352028 0.211076
vt 0.352028 0.211076
vt 0.352028 0.211076
vt 0.352028 0.211076
vt 0.352028 0.211076
vt 0.352028 0.211076
vt 0.352028 0.211076
vt 0.352028 0.211076
vt 0.352028 0.211076
vt 0.352028 0.211076
vt 0.352028 0.211076
vt 0.352028 0.211076
vt 0.352028 0.211076
vt 0.352028 0.211076
vt 0.352028 0.211076
vt 0.352028 0.211076
vt 0.352028 0.211076
vt 0.352028 0.211076
vt 0.352028 0.211076
vt 0.352028 0.211076
vt 0.352028 0.211076
vt 0.352028 0.211076
vt 0.352028 0.211076
vt 0.352028 0.211076
vt 0.352028 0.211076
vt 0.352028 0.211076
vt 0.352028 0.211076
vt 0.352028 0.211076
vt 0.352028 0.211076
vt 0.352028 0.211076
vt 0.352028 0.211076
vt 0.352028 0.211076
vt 0.352028 0.211076
vt 0.352028 0.211076
vt 0.352028 0.211076
vt 0.352028 0.211076
vt 0.352028 0.211076
vt 0.352028 0.211076
vt 0.352028 0.211076
vt 0.352028 0.211076
vt 0.352028 0.211076
vt 0.352028 0.211076
vt 0.352028 0.211076
vt 0.352028 0.211076
vt 0.352028 0.211076
vt 0.352028 0.211076
vt 0.352028 0.211076
vt 0.352028 0.211076
vt 0.352028 0.211076
vt 0.352028 0.211076
vt 0.352028 0.211076
vt 0.352028 0.211076
vt 0.352028 0.211076
vt 0.352028 0.211076
vt 0.352028 0.211076
vt 0.352028 0.211076
vt 0.352028 0.211076
vt 0.352028 0.211076
vt 0.352028 0.211076
vt 0.352028 0.211076
vt 0.352028 0.211076
vt 0.352028 0.211076
vt 0.352028 0.211076
vt 0.352028 0.211076
vt 0.352028 0.211076
vt 0.352028 0.211076
vt 0.352028 0.211076
vt 0.352028 0.211076
vt 0.352028 0.211076
vt 0.352028 0.211076
vt 0.352028 0.211076
vt 0.352028 0.211076
vt 0.352028 0.211076
vt 0.352028 0.211076
vt 0.352028 0.211076
vt 0.352028 0.211076
vt 0.352028 0.211076
vt 0.352028 0.211076
vt 0.352028 0.211076
vt 0.352028 0.211076
vt 0.352028 0.211076
vt 0.352028 0.211076
vt 0.352028 0.211076
vt 0.352028 0.211076
vt 0.352028 0.211076
vt 0.352028 0.211076
vt 0.352028 0.211076
vt 0.352028 0.211076
vt 0.352028 0.211076
vt 0.352028 0.211076
vt 0.352028 0.211076
vt 0.352028 0.211076
vt 0.352028 0.211076
vt 0.352028 0.211076
vn 0.382679 0.923881 0.000000
vn 0.382679 0.923881 0.000000
vn 0.382679 0.923881 0.000000
vn 0.382679 0.923881 0.000000
vn -0.382679 0.923881 0.000000
vn -0.382679 0.923881 0.000000
vn -0.382679 0.923881 0.000000
vn -0.382679 0.923881 0.000000
vn -0.923892 0.382654 0.000000
vn -0.923892 0.382654 0.000000
vn -0.923892 0.382654 0.000000
vn -0.923892 0.382654 0.000000
vn -0.923892 -0.382654 -0.000002
vn -0.923892 -0.382654 -0.000002
vn -0.923892 -0.382654 -0.000002
vn -0.923892 -0.382654 -0.000002
vn -0.923892 -0.382654 -0.000002
vn -0.382679 -0.923881 0.000000
vn -0.382679 -0.923881 0.000000
vn -0.382679 -0.923881 0.000000
vn -0.382679 -0.923881 0.000000
vn -0.382679 -0.923881 0.000000
vn 0.382679 -0.923881 0.000000
vn 0.382679 -0.923881 0.000000
vn 0.382679 -0.923881 0.000000
vn 0.382679 -0.923881 0.000000
vn 0.923892 -0.382654 0.000000
vn 0.923892 -0.382654 0.000000
vn 0.923892 -0.382654 0.000000
vn 0.923892 -0.382654 0.000000
vn 0.923894 0.382648 -0.000010
vn 0.923894 0.382648 -0.000010
vn 0.923894 0.382648 -0.000010
vn 0.923894 0.382648 -0.000010
vn 0.000000 0.000000 -1.000000
vn 0.000000 0.000000 -1.000000
vn 0.000000 0.000000 -1.000000
vn 0.000000 0.000000 -1.000000
vn 0.000000 0.000000 -1.000000
vn 0.000000 0.000000 -1.000000
vn 0.000000 0.000000 -1.000000
vn 0.000000 0.000000 -1.000000
vn 0.000000 0.000000 -1.000000
vn 0.000000 0.000000 -1.000000
vn 0.000000 0.000000 -1.000000
vn 0.000000 0.000000 -1.000000
vn 0.000000 0.000000 -1.000000
vn 0.000000 0.000000 -1.000000
vn 0.000000 0.000000 -1.000000
vn 0.000000 0.000000 -1.000000
vn 0.000000 0.000000 -1.000000
vn 0.000000 0.000000 -1.000000
vn 0.000000 0.000000 -1.000000
vn 0.000000 0.000000 -1.000000
vn 0.000000 0.000000 -1.000000
vn 0.000000 0.000000 -1.000000
vn 0.000000 0.000000 -1.000000
vn 0.000000 0.000000 -1.000000
vn 0.000000 0.000000 -1.000000
vn 0.000000 0.000000 -1.000000
vn 0.000000 0.000000 -1.000000
vn 0.000000 0.000000 -1.000000
vn 0.000000 0.000000 -1.000000
vn 0.000000 0.000000 -1.000000
vn 0.000000 0.000000 -1.000000
vn 0.000000 0.000000 -1.000000
vn -0.000000 0.000000 1.000000
vn -0.000000 0.000000 1.000000
vn -0.000000 0.000000 1.000000
vn -0.000000 0.000000 1.000000
vn 0.000000 0.000000 1.000000
vn 0.000000 0.000000 1.000000
vn 0.000000 0.000000 1.000000
vn 0.000000 0.000000 1.000000
vn -0.000000 0.000000 1.000000
vn -0.000000 0.000000 1.000000
vn -0.000000 0.000000 1.000000
vn -0.000000 0.000000 1.000000
vn 0.000000 0.000000 1.000000
vn 0.000000 0.000000 1.000000
vn 0.000000 0.000000 1.000000
vn 0.000000 0.000000 1.000000
vn 0.000000 0.000000 1.000000
vn 0.000000 0.000000 1.000000
vn 0.000000 0.000000 1.000000
vn 0.000000 0.000000 1.000000
vn -0.000000 0.000000 1.000000
vn -0.000000 0.000000 1.000000
vn -0.000000 0.000000 1.000000
vn -0.000000 0.000000 1.000000
vn 0.000000 0.000000 1.000000
vn 0.000000 0.000000 1.000000
vn 0.000000 0.000000 1.000000
vn 0.000000 0.000000 1.000000
vn 0.000000 0.000000 1.000000
vn 0.000000 0.000000 1.000000
vn 0.000000 0.000000 1.000000
vn 0.000000 0.000000 1.000000
vn -0.382681 -0.923880 0.000000
vn -0.382681 -0.923880 0.000000
vn -0.382681 -0.923880 0.000000
vn -0.382681 -0.923880 0.000000
vn 0.382682 -0.923880 0.000000
vn 0.382682 -0.923880 0.000000
vn 0.382682 -0.923880 0.000000
vn 0.382682 -0.923880 0.000000
vn 0.923888 -0.382662 0.000000
vn 0.923888 -0.382662 0.000000
vn 0.923888 -0.382662 0.000000
vn 0.923888 -0.382662 0.000000
vn 0.923888 0.382662 0.000000
vn 0.923888 0.382662 0.000000
vn 0.923888 0.382662 0.000000
vn 0.923888 0.382662 0.000000
vn 0.382682 0.923880 0.000000
vn 0.382682 0.923880 0.000000
vn 0.382682 0.923880 0.000000
vn 0.382682 0.923880 0.000000
vn -0.382682 0.923880 0.000000
vn -0.382682 0.923880 0.000000
vn -0.382682 0.923880 0.000000
vn -0.382682 0.923880 0.000000
vn -0.923888 0.382662 0.000000
vn -0.923888 0.382662 0.000000
vn -0.923888 0.382662 0.000000
vn -0.923888 0.382662 0.000000
vn -0.923888 -0.382662 0.000000
vn -0.923888 -0.382662 0.000000
vn -0.923888 -0.382662 0.000000
vn -0.923888 -0.382662 0.000000
vn 0.000000 0.031804 0.999494
vn 0.000000 0.031804 0.999494
vn 0.000000 0.031804 0.999494
vn 0.000000 0.031804 0.999494
vn 0.000000 1.000000 0.000000
vn 0.000000 1.000000 0.000000
vn 0.000000 1.000000 0.000000
vn 0.000000 1.000000 0.000000
vn -0.699385 0.285393 -0.655295
vn -0.699385 0.285393 -0.655295
vn -0.699385 0.285393 -0.655295
vn 0.999493 0.031846 0.000000
vn 0.999493 0.031846 0.000000
vn 0.999493 0.031846 0.000000
vn 0.999493 0.031846 0.000000
vn -0.000006 0.067972 0.997687
vn -0.000006 0.067972 0.997687
vn -0.000006 0.067972 0.997687
vn -0.000006 0.067972 0.997687
vn -0.000006 0.067972 0.997687
vn 0.605244 0.601990 0.520853
vn 0.605244 0.601990 0.520853
vn 0.605244 0.601990 0.520853
vn 0.000000 0.067928 -0.997690
vn 0.000000 0.067928 -0.997690
vn 0.000000 0.067928 -0.997690
vn 0.000000 0.067928 -0.997690
vn -0.997693 0.067892 0.000000
vn -0.997693 0.067892 0.000000
vn -0.997693 0.067892 0.000000
vn -0.997693 0.067892 0.000000
vn 0.000000 1.000000 0.000000
vn 0.000000 1.000000 0.000000
vn 0.000000 1.000000 0.000000
vn 0.000000 1.000000 0.000000
vn 0.000000 1.000000 0.000000
vn 0.000000 1.000000 0.000000
vn 0.000000 1.000000 0.000000
vn 0.000000 1.000000 0.000000
vn 0.000000 1.000000 0.000000
vn 0.000000 1.000000 0.000000
vn 0.000000 1.000000 0.000000
vn -0.993996 0.109420 0.000000
vn -0.993996 0.109420 0.000000
vn -0.993996 0.109420 0.000000
vn -0.993996 0.109420 0.000000
vn 0.000000 0.109420 0.993996
vn 0.000000 0.109420 0.993996
vn 0.000000 0.109420 0.993996
vn 0.000000 0.109420 0.993996
vn 0.993996 0.109420 0.000000
vn 0.993996 0.109420 0.000000
vn 0.993996 0.109420 0.000000
vn 0.993996 0.109420 0.000000
vn 0.000000 0.109420 -0.993996
vn 0.000000 0.109420 -0.993996
vn 0.000000 0.109420 -0.993996
vn 0.000000 0.109420 -0.993996
vn 0.000000 1.000000 0.000000
vn 0.000000 1.000000 0.000000
vn 0.000000 1.000000 0.000000
vn 0.000000 1.000000 0.000000
vn 0.000000 1.000000 0.000000
vn 0.000000 1.000000 -0.000000
vn 0.000000 1.000000 -0.000000
vn 0.000000 1.000000 -0.000000
vn 0.000000 1.000000 -0.000000
vn 0.000000 1.000000 -0.000000
vn 0.000000 1.000000 0.000000
vn 0.000000 1.000000 0.000000
vn 0.000000 1.000000 0.000000
vn 0.000000 1.000000 0.000000
vn 0.000000 1.000000 -0.000000
vn 0.000000 1.000000 -0.000000
vn 0.000000 1.000000 -0.000000
vn 0.000000 1.000000 -0.000000
vn -0.998520 0.054389 0.000000
vn -0.998520 0.054389 0.000000
vn -0.998520 0.054389 0.000000
vn -0.998520 0.054389 0.000000
vn 0.000000 0.054357 0.998522
vn 0.000000 0.054357 0.998522
vn 0.000000 0.054357 0.998522
vn 0.000000 0.054357 0.998522
vn 0.998522 0.054357 0.000000
vn 0.998522 0.054356 0.000000
vn 0.998522 0.054356 0.000000
vn 0.998522 0.054356 0.000000
vn 0.000000 0.054357 -0.998522
vn 0.000000 0.054357 -0.998522
vn 0.000000 0.054357 -0.998522
vn 0.000000 0.054357 -0.998522
vn 0.000000 1.000000 0.000000
vn 0.000000 1.000000 0.000000
vn 0.000000 1.000000 0.000000
vn 0.000000 1.000000 0.000000
vn 0.000000 1.000000 -0.000000
vn 0.000000 1.000000 -0.000000
vn 0.000000 1.000000 -0.000000
vn 0.000000 1.000000 -0.000000
vn 0.000000 1.000000 -0.000000
vn 0.000000 1.000000 0.000000
vn 0.000000 1.000000 0.000000
vn 0.000000 1.000000 0.000000
vn 0.000000 1.000000 0.000000
vn 0.000000 1.000000 0.000000
vn 0.000000 1.000000 -0.000000
vn 0.000000 1.000000 -0.000000
vn 0.000000 1.000000 -0.000000
vn 0.000000 1.000000 -0.000000
vn 0.000000 0.000000 1.000000
vn 0.000000 0.000000 1.000000
vn 0.000000 0.000000 1.000000
vn 0.000000 0.000000 1.000000
vn 1.000000 0.000000 0.000000
vn 1.000000 0.000000 0.000000
vn 1.000000 0.000000 0.000000
vn 1.000000 0.000000 0.000000
vn 0.000000 0.000000 -1.000000
vn 0.000000 0.000000 -1.000000
vn 0.000000 0.000000 -1.000000
vn 0.000000 0.000000 -1.000000
vn -1.000000 0.000000 0.000000
vn -1.000000 0.000000 0.000000
vn -1.000000 0.000000 0.000000
vn -1.000000 0.000000 0.000000
vn 0.000000 -1.000000 0.000000
vn 0.000000 -1.000000 0.000000
vn 0.000000 -1.000000 0.000000
vn 0.000000 -1.000000 0.000000
vn 0.000000 1.000000 0.000000
vn 0.000000 1.000000 0.000000
vn 0.000000 1.000000 0.000000
vn 0.000000 1.000000 0.000000
vn 0.000000 0.067958 0.997688
vn 0.000000 0.067958 0.997688
vn 0.000000 0.067958 0.997688
vn 0.000000 0.067958 0.997688
vn -0.000048 0.067818 0.997698
vn -0.000048 0.067818 0.997698
vn -0.000048 0.067818 0.997698
vn 0.000085 0.067934 0.997690
vn 0.000085 0.067934 0.997690
vn 0.000085 0.067934 0.997690
vn 0.000085 0.067934 0.997690
vn 0.000000 -0.989915 0.141663
vn 0.000000 -0.989915 0.141663
vn 0.000000 -0.989915 0.141663
vn 0.000000 -0.989915 0.141663
vn 0.995629 0.071858 0.059656
vn 0.995629 0.071858 0.059656
vn 0.995629 0.071858 0.059656
vn 0.995629 0.071858 0.059656
vn 0.000000 0.999981 0.006124
vn 0.000000 0.999981 0.006124
vn 0.000000 0.999981 0.006124
vn 0.000000 0.999981 0.006124
vn -0.995634 0.071841 0.059597
vn -0.995634 0.071842 0.059597
vn -0.995634 0.071841 0.059597
vn -0.995634 0.071841 0.059597
vn 0.000000 1.000000 -0.000001
vn 0.000000 1.000000 -0.000001
vn 0.000000 1.000000 -0.000001
vn 0.000000 1.000000 -0.000001
vn 0.000000 0.067815 0.997698
vn 0.000000 0.067815 0.997698
vn 0.000000 0.067815 0.997698
vn 0.000000 0.067815 0.997698
vn -0.000042 0.067947 0.997689
vn -0.000042 0.067947 0.997689
vn -0.000042 0.067947 0.997689
vn -0.000042 0.067947 0.997689
vn 0.997690 0.067927 -0.000004
vn 0.997690 0.067927 -0.000004
vn 0.997690 0.067927 -0.000004
vn 0.997690 0.067927 -0.000004
vn 0.997690 0.067927 -0.000004
vn 0.000000 1.000000 0.000000
vn 0.000000 1.000000 0.000000
vn 0.000000 1.000000 0.000000
vn 0.000000 1.000000 0.000000
vn -0.563151 0.626291 0.539092
vn -0.563151 0.626291 0.539092
vn -0.563151 0.626291 0.539092
vn -0.563111 0.626292 0.539133
vn -0.563111 0.626292 0.539133
vn -0.563111 0.626292 0.539133
vn 0.754728 0.351794 0.553739
vn 0.754728 0.351794 0.553739
vn 0.754728 0.351794 0.553739
vn 0.754744 0.351794 0.553717
vn 0.754744 0.351794 0.553717
vn 0.754744 0.351794 0.553717
vn -0.708336 -0.240393 -0.663681
vn -0.708336 -0.240393 -0.663681
vn -0.708336 -0.240393 -0.663681
vn 0.999493 0.031835 0.000000
vn 0.999493 0.031835 0.000000
vn 0.999493 0.031835 0.000000
vn 0.999493 0.031835 0.000000
vn 0.000000 0.031842 0.999493
vn 0.000000 0.031842 0.999493
vn 0.000000 0.031842 0.999493
vn 0.000000 0.031842 0.999493
vn -0.000014 0.031827 -0.999493
vn -0.000014 0.031827 -0.999493
vn -0.000014 0.031827 -0.999493
vn -0.000014 0.031827 -0.999493
vn -0.000014 0.031827 -0.999493
vn 0.000003 0.031845 -0.999493
vn 0.000003 0.031845 -0.999493
vn 0.000003 0.031845 -0.999493
vn 0.000003 0.031845 -0.999493
vn 0.000003 0.031845 -0.999493
vn -0.999493 0.031845 0.000003
vn -0.999493 0.031845 0.000003
vn -0.999493 0.031845 0.000003
vn -0.999493 0.031845 0.000003
vn -0.999493 0.031845 0.000003
vn -0.999493 0.031835 -0.000009
vn -0.999493 0.031835 -0.000009
vn -0.999493 0.031835 -0.000009
vn -0.999493 0.031835 -0.000009
vn -0.999493 0.031835 -0.000009
vn 0.375502 0.790306 0.484163
vn 0.375502 0.790306 0.484163
vn 0.375502 0.790306 0.484163
vn 0.839111 0.281556 0.465424
vn 0.839111 0.281556 0.465424
vn 0.839111 0.281556 0.465424
vn -0.478999 -0.216792 -0.850624
vn -0.478999 -0.216792 -0.850624
vn -0.478999 -0.216792 -0.850624
vn -0.207381 -0.486743 -0.848572
vn -0.207381 -0.486743 -0.848572
vn -0.207381 -0.486743 -0.848572
vn -0.509300 0.780876 0.361727
vn -0.509300 0.780876 0.361727
vn -0.509300 0.780876 0.361727
s off
f 1/9/1 2/10/2 9/18/3 93/137/4
f 2/10/5 3/11/6 10/19/7 9/18/8
f 3/11/9 4/12/10 11/20/11 10/19/12
f 4/12/13 96/142/14 5/13/15 12/21/16 11/20/17
f 5/13/18 95/140/19 6/14/20 13/22/21 12/21/22
f 6/14/23 7/15/24 14/23/25 13/22/26
f 7/15/27 8/16/28 15/24/29 14/23/30
f 8/16/31 1/17/32 94/139/33 15/24/34
f 2/2/35 1/1/36 16/34/37 17/33/38
f 3/3/39 2/2/40 17/33/41 18/35/42
f 4/4/43 3/3/44 18/35/45 19/36/46
f 20/37/47 96/143/48 4/4/49 19/36/50
f 6/6/51 95/141/52 20/37/53 21/38/54
f 7/7/55 6/6/56 21/38/57 22/39/58
f 8/8/59 7/7/60 22/39/61 23/40/62
f 1/1/63 8/8/64 23/40/65 16/34/66
f 24/41/67 93/136/68 9/30/69 25/42/70
f 9/30/71 10/29/72 26/43/73 25/42/74
f 10/29/75 11/28/76 27/44/77 26/43/78
f 11/28/79 12/27/80 28/45/81 27/44/82
f 12/27/83 13/26/84 29/46/85 28/45/86
f 13/26/87 14/25/88 30/47/89 29/46/90
f 14/25/91 15/32/92 31/48/93 30/47/94
f 15/32/95 94/138/96 24/41/97 31/48/98
f 17/33/99 16/34/100 24/41/101 25/42/102
f 18/35/103 17/33/104 25/42/105 26/43/106
f 19/36/107 18/35/108 26/43/109 27/44/110
f 20/37/111 19/36/112 27/44/113 28/45/114
f 21/38/115 20/37/116 28/45/117 29/46/118
f 22/39/119 21/38/120 29/46/121 30/47/122
f 23/40/123 22/39/124 30/47/125 31/48/126
f 16/34/127 23/40/128 31/48/129 24/41/130
f 36/49/131 37/50/132 89/130/133 86/125/134
f 32/52/135 33/51/136 35/53/137 34/54/138
f 87/127/139 91/133/140 92/135/141
f 37/50/142 38/57/143 88/129/144 89/130/145
f 76/115/146 77/116/147 78/117/148 97/144/149 79/118/150
f 80/119/151 81/120/152 40/63/153
f 43/67/154 42/68/155 47/69/156 44/70/157
f 44/71/158 45/61/159 41/64/160 43/72/161
f 81/120/162 37/50/163 40/63/164
f 39/56/165 38/55/166 42/68/167 43/67/168
f 36/49/169 39/59/170 43/72/171 41/64/172
f 52/73/173 53/74/174 82/121/175 49/76/176
f 53/74/177 54/77/178 50/78/179 83/122/180
f 54/77/181 55/79/182 51/80/183 50/78/184
f 49/81/185 51/82/186 55/83/187 52/84/188
f 45/61/189 44/71/190 49/76/191 82/121/192 48/75/193
f 46/62/194 45/61/195 48/75/196 83/122/197 50/78/198
f 47/65/199 46/62/200 50/78/201 51/80/202
f 44/70/203 47/69/204 51/82/205 49/81/206
f 56/85/207 59/86/208 60/87/209 61/88/210
f 59/86/211 58/89/212 84/123/213 60/87/214
f 58/89/215 57/91/216 63/92/217 85/124/218
f 61/93/219 63/94/220 57/95/221 56/96/222
f 53/74/223 52/73/224 61/88/225 60/87/226
f 54/77/227 53/74/228 60/87/229 84/123/230 62/90/231
f 55/79/232 54/77/233 62/90/234 85/124/235 63/92/236
f 52/84/237 55/83/238 63/94/239 61/93/240
f 64/97/241 65/98/242 67/99/243 66/100/244
f 66/100/245 67/99/246 69/101/247 68/102/248
f 68/102/249 69/101/250 71/103/251 70/104/252
f 70/104/253 71/103/254 65/105/255 64/106/256
f 65/98/257 71/107/258 69/108/259 67/99/260
f 70/109/261 64/97/262 66/100/263 68/110/264
f 45/61/265 46/62/266 73/112/267 72/111/268
f 74/113/269 80/119/270 40/63/271
f 41/64/272 45/61/273 72/111/274 75/114/275
f 72/111/276 73/112/277 77/116/278 76/115/279
f 73/112/280 74/113/281 78/117/282 77/116/283
f 74/113/284 75/114/285 97/144/286 78/117/287
f 75/114/288 72/111/289 76/115/290 79/118/291
f 37/50/292 36/49/293 41/64/294 40/63/295
f 74/113/296 40/63/297 41/64/298 75/114/299
f 46/62/300 80/119/301 74/113/302 73/112/303
f 46/62/304 47/65/305 42/66/306 81/120/307 80/119/308
f 38/57/309 37/50/310 81/120/311 42/66/312
f 53/74/313 83/122/314 48/75/315
f 82/121/316 53/74/317 48/75/318
f 84/123/319 58/89/320 62/90/321
f 58/89/322 85/124/323 62/90/324
f 90/132/325 91/133/326 87/127/327
f 89/130/328 88/129/329 35/58/330 33/51/331
f 86/125/332 89/130/333 33/51/334 32/52/335
f 34/54/336 35/53/337 88/128/338 91/133/339 90/132/340
f 92/135/341 91/133/342 88/128/343 38/55/344 39/56/345
f 39/59/346 36/49/347 86/125/348 87/126/349 92/134/350
f 90/131/351 87/126/352 86/125/353 32/52/354 34/60/355
f 24/41/356 94/138/357 1/31/358
f 1/31/359 93/136/360 24/41/361
f 20/37/362 95/141/363 5/5/364
f 5/5/365 96/143/366 20/37/367
f 97/144/368 75/114/369 79/118/370
