# This file uses centimeters as units for non-parametric coordinates.

v -0.092808 0.000000 0.092808
v 0.092808 0.000000 0.092808
v -0.098207 0.272477 0.114649
v 0.107809 0.272477 0.107809
v -0.107809 0.272477 -0.107809
v 0.107809 0.272477 -0.107809
v -0.092808 0.000000 -0.092808
v 0.092808 0.000000 -0.092808
v 0.000000 0.272477 -0.160728
v 0.000000 0.272477 0.160728
v 0.000000 0.000000 0.138364
v 0.000000 0.000000 -0.138364
v 0.000000 0.000000 0.000000
v -0.138364 0.000000 0.000000
v -0.160728 0.272477 0.000000
v 0.160728 0.272477 0.000000
v 0.138364 0.000000 0.000000
v 0.000000 0.272477 -0.131538
v 0.131538 0.272477 0.000000
v 0.088230 0.272477 -0.088230
v -0.131538 0.272477 0.000000
v -0.088230 0.272477 -0.088230
v -0.078628 0.272477 0.095069
v 0.000000 0.272477 0.131538
v 0.088230 0.272477 0.088230
v 0.000000 0.023220 -0.113235
v 0.000000 0.023220 0.000000
v 0.113235 0.023220 0.000000
v 0.075953 0.023220 -0.075953
v -0.113235 0.023220 0.000000
v -0.075953 0.023220 -0.075953
v -0.075953 0.023220 0.075953
v 0.000000 0.023220 0.113235
v 0.075953 0.023220 0.075953
v -0.001986 0.288073 0.164873
v -0.019858 0.262348 0.164873
v 0.036468 0.261357 0.164873
v 0.018596 0.235633 0.164873
v 0.036468 0.261357 -0.164873
v 0.018596 0.235633 -0.164873
v -0.001986 0.288073 -0.164873
v -0.019858 0.262348 -0.164873
v 0.036468 0.261357 0.149185
v 0.018596 0.235633 0.149185
v -0.019858 0.262348 0.144396
v -0.001986 0.288073 0.144396
v -0.019858 0.262348 -0.144396
v 0.018596 0.235633 -0.149185
v 0.036468 0.261357 -0.149185
v -0.001986 0.288073 -0.144396
v 0.109294 0.172621 0.096236
v 0.125351 0.161466 0.110590
v 0.143222 0.187190 0.110590
v 0.127166 0.198345 0.096236
v 0.143222 0.187190 -0.110590
v 0.125351 0.161466 -0.110590
v 0.109294 0.172621 -0.096236
v 0.127166 0.198345 -0.096236
v 0.176859 0.163821 0.000000
v 0.158988 0.138097 0.000000
v 0.136254 0.153891 0.000000
v 0.154126 0.179615 0.000000
v -0.099978 0.272477 0.064296
v -0.086198 0.231227 0.086198
v -0.123612 0.272477 0.075614
v -0.105720 0.234520 0.105720
vt 0.476890 0.221224
vt 0.476890 0.221224
vt 0.476890 0.221224
vt 0.476890 0.221224
vt 0.476890 0.221224
vt 0.476890 0.221224
vt 0.476890 0.221224
vt 0.476890 0.221224
vt 0.476890 0.221224
vt 0.476890 0.221224
vt 0.476890 0.221224
vt 0.476890 0.221224
vt 0.476890 0.221224
vt 0.476890 0.221224
vt 0.476890 0.221224
vt 0.476890 0.221224
vt 0.476890 0.221224
vt 0.476890 0.221224
vt 0.476890 0.221224
vt 0.476890 0.221224
vt 0.476890 0.221224
vt 0.476890 0.221224
vt 0.476890 0.221224
vt 0.476890 0.221224
vt 0.476890 0.221224
vt 0.476890 0.221224
vt 0.476890 0.221224
vt 0.476890 0.221224
vt 0.476890 0.221224
vt 0.476890 0.221224
vt 0.476890 0.221224
vt 0.476890 0.221224
vt 0.476890 0.221224
vt 0.476890 0.221224
vt 0.476890 0.221224
vt 0.476890 0.221224
vt 0.476890 0.221224
vt 0.476890 0.221224
vt 0.476890 0.221224
vt 0.476890 0.221224
vt 0.476890 0.221224
vt 0.476890 0.221224
vt 0.476890 0.221224
vt 0.476890 0.221224
vt 0.476890 0.221224
vt 0.472564 0.151466
vt 0.472564 0.151466
vt 0.472564 0.151466
vt 0.472564 0.151466
vt 0.472564 0.151466
vt 0.472564 0.151466
vt 0.472564 0.151466
vt 0.472564 0.151466
vt 0.472564 0.151466
vt 0.472564 0.151466
vt 0.472564 0.151466
vt 0.472564 0.151466
vt 0.472564 0.151466
vt 0.472564 0.151466
vt 0.472564 0.151466
vt 0.472564 0.151466
vt 0.472564 0.151466
vt 0.472564 0.151466
vt 0.472564 0.151466
vt 0.472564 0.151466
vt 0.472564 0.151466
vt 0.472564 0.151466
vt 0.472564 0.151466
vt 0.472564 0.151466
vt 0.472564 0.151466
vt 0.472564 0.151466
vt 0.472564 0.151466
vt 0.472564 0.151466
vt 0.472564 0.151466
vt 0.472564 0.151466
vt 0.472564 0.151466
vt 0.472564 0.151466
vt 0.472564 0.151466
vt 0.472564 0.151466
vt 0.472564 0.151466
vt 0.472564 0.151466
vt 0.472564 0.151466
vt 0.472564 0.151466
vt 0.472564 0.151466
vt 0.472564 0.151466
vt 0.472564 0.151466
vt 0.472564 0.151466
vt 0.472564 0.151466
vt 0.472564 0.151466
vt 0.472564 0.151466
vt 0.472564 0.151466
vt 0.472564 0.151466
vt 0.472564 0.151466
vt 0.472564 0.151466
vt 0.472564 0.151466
vt 0.472564 0.151466
vt 0.472564 0.151466
vt 0.472564 0.151466
vt 0.472564 0.151466
vt 0.476890 0.221224
vt 0.476890 0.221224
vt 0.476890 0.221224
vt 0.476890 0.221224
vt 0.476890 0.221224
vn 0.439442 -0.073481 0.895260
vn 0.439442 -0.073481 0.895261
vn 0.439442 -0.073481 0.895260
vn 0.439442 -0.073481 0.895260
vn 0.000000 1.000000 -0.000000
vn 0.000000 1.000000 -0.000000
vn 0.000000 1.000000 -0.000000
vn 0.000000 1.000000 -0.000000
vn 0.439442 -0.073481 -0.895261
vn 0.439442 -0.073481 -0.895260
vn 0.439442 -0.073481 -0.895260
vn 0.439442 -0.073481 -0.895260
vn 0.000000 -1.000000 0.000000
vn 0.000000 -1.000000 0.000000
vn 0.000000 -1.000000 0.000000
vn 0.000000 -1.000000 0.000000
vn 0.895261 -0.073481 -0.439442
vn 0.895261 -0.073481 -0.439442
vn 0.895261 -0.073481 -0.439442
vn 0.895261 -0.073481 -0.439442
vn -0.895260 -0.073481 -0.439442
vn -0.895261 -0.073481 -0.439442
vn -0.895261 -0.073481 -0.439442
vn -0.895260 -0.073481 -0.439442
vn 0.000000 1.000000 -0.000000
vn 0.000000 1.000000 -0.000000
vn 0.000000 1.000000 -0.000000
vn 0.000000 1.000000 -0.000000
vn -0.438246 -0.077210 0.895533
vn -0.438246 -0.077210 0.895533
vn -0.438246 -0.077210 0.895533
vn -0.438246 -0.077210 0.895533
vn -0.438246 -0.077210 0.895533
vn 0.000000 -1.000000 0.000000
vn 0.000000 -1.000000 0.000000
vn 0.000000 -1.000000 0.000000
vn 0.000000 -1.000000 0.000000
vn -0.439442 -0.073481 -0.895260
vn -0.439442 -0.073481 -0.895260
vn -0.439442 -0.073481 -0.895260
vn -0.439442 -0.073481 -0.895260
vn 0.000000 -1.000000 0.000000
vn 0.000000 -1.000000 0.000000
vn 0.000000 -1.000000 0.000000
vn 0.000000 -1.000000 0.000000
vn 0.000000 1.000000 0.000000
vn 0.000000 1.000000 0.000000
vn 0.000000 1.000000 0.000000
vn 0.000000 1.000000 0.000000
vn 0.000000 1.000000 0.000000
vn 0.000000 1.000000 0.000000
vn 0.000000 1.000000 0.000000
vn 0.000000 1.000000 0.000000
vn 0.895261 -0.073481 0.439442
vn 0.895261 -0.073481 0.439442
vn 0.895261 -0.073481 0.439442
vn 0.895261 -0.073481 0.439442
vn 0.000000 -1.000000 0.000000
vn 0.000000 -1.000000 0.000000
vn 0.000000 -1.000000 0.000000
vn 0.000000 -1.000000 0.000000
vn 0.000000 1.000000 0.000000
vn 0.000000 1.000000 0.000000
vn 0.000000 1.000000 0.000000
vn 0.000000 1.000000 0.000000
vn 0.000000 1.000000 0.000000
vn 0.000000 1.000000 0.000000
vn 0.000000 1.000000 0.000000
vn 0.000000 1.000000 0.000000
vn 0.000000 1.000000 0.000000
vn 0.000000 1.000000 0.000000
vn 0.000000 1.000000 0.000000
vn 0.000000 1.000000 0.000000
vn 0.000000 1.000000 0.000000
vn 0.000000 1.000000 0.000000
vn 0.000000 1.000000 0.000000
vn 0.000000 1.000000 0.000000
vn 0.000000 1.000000 -0.000000
vn 0.000000 1.000000 -0.000000
vn 0.000000 1.000000 -0.000000
vn 0.000000 1.000000 -0.000000
vn 0.000000 1.000000 0.000000
vn 0.000000 1.000000 0.000000
vn 0.000000 1.000000 0.000000
vn 0.000000 1.000000 0.000000
vn 0.000000 1.000000 -0.000000
vn 0.000000 1.000000 -0.000000
vn 0.000000 1.000000 -0.000000
vn 0.000000 1.000000 -0.000000
vn -0.895743 0.065774 0.439679
vn -0.895743 0.065774 0.439679
vn -0.895743 0.065774 0.439679
vn -0.895743 0.065774 0.439679
vn -0.439680 0.065774 0.895743
vn -0.439680 0.065774 0.895743
vn -0.439680 0.065774 0.895743
vn -0.439680 0.065774 0.895743
vn 0.439680 0.065774 0.895743
vn 0.439680 0.065774 0.895743
vn 0.439680 0.065774 0.895743
vn 0.439680 0.065773 0.895743
vn 0.895743 0.065774 0.439679
vn 0.895743 0.065774 0.439679
vn 0.895743 0.065774 0.439679
vn 0.895743 0.065774 0.439679
vn 0.437992 0.069864 -0.896260
vn 0.437992 0.069864 -0.896260
vn 0.437992 0.069864 -0.896260
vn 0.437992 0.069864 -0.896260
vn 0.437992 0.069864 -0.896260
vn 0.895744 0.065774 -0.439679
vn 0.895744 0.065774 -0.439679
vn 0.895744 0.065774 -0.439679
vn 0.895744 0.065774 -0.439679
vn 0.895744 0.065774 -0.439679
vn -0.439678 0.065774 -0.895744
vn -0.439678 0.065774 -0.895744
vn -0.439678 0.065774 -0.895744
vn -0.439678 0.065774 -0.895744
vn -0.895743 0.065774 -0.439679
vn -0.895743 0.065774 -0.439679
vn -0.895743 0.065774 -0.439679
vn -0.895743 0.065774 -0.439679
vn 0.000000 0.000000 1.000000
vn 0.000000 0.000000 1.000000
vn 0.000000 0.000000 1.000000
vn 0.000000 0.000000 1.000000
vn 0.233755 -0.162400 -0.958637
vn 0.233755 -0.162400 -0.958637
vn 0.233755 -0.162400 -0.958637
vn 0.233755 -0.162400 -0.958637
vn 0.000000 0.000000 -1.000000
vn 0.000000 0.000000 -1.000000
vn 0.000000 0.000000 -1.000000
vn 0.000000 0.000000 -1.000000
vn -0.240479 0.167070 0.956168
vn -0.240479 0.167070 0.956168
vn -0.240479 0.167070 0.956168
vn -0.240479 0.167070 0.956168
vn -0.570560 -0.821256 -0.000002
vn -0.570560 -0.821256 -0.000002
vn -0.570560 -0.821256 -0.000002
vn -0.570560 -0.821256 -0.000002
vn 0.570560 0.821256 0.000001
vn 0.570560 0.821256 0.000001
vn 0.570560 0.821256 0.000001
vn 0.570560 0.821256 0.000001
vn 0.233756 -0.162400 0.958637
vn 0.233756 -0.162400 0.958637
vn 0.233756 -0.162400 0.958637
vn 0.233756 -0.162400 0.958637
vn -0.570560 -0.821256 0.000002
vn -0.570560 -0.821256 0.000002
vn -0.570560 -0.821256 0.000002
vn -0.570560 -0.821256 0.000002
vn -0.240478 0.167071 -0.956168
vn -0.240478 0.167070 -0.956168
vn -0.240478 0.167070 -0.956168
vn -0.240478 0.167071 -0.956168
vn 0.570560 0.821256 -0.000001
vn 0.570560 0.821256 -0.000001
vn 0.570560 0.821256 -0.000001
vn 0.570560 0.821256 -0.000001
vn 0.821255 -0.570561 0.000000
vn 0.821255 -0.570561 0.000000
vn 0.821255 -0.570561 0.000000
vn 0.821255 -0.570561 0.000000
vn -0.570560 -0.821256 0.000000
vn -0.570560 -0.821256 0.000000
vn -0.570560 -0.821256 0.000000
vn -0.570560 -0.821256 0.000000
vn -0.821255 0.570561 0.000000
vn -0.821255 0.570561 0.000000
vn -0.821255 0.570561 0.000000
vn -0.821255 0.570561 0.000000
vn 0.570560 0.821256 0.000000
vn 0.570560 0.821256 0.000000
vn 0.570560 0.821256 0.000000
vn 0.570560 0.821256 0.000000
vn -0.570560 -0.821256 0.000000
vn -0.570560 -0.821256 0.000000
vn -0.570560 -0.821256 0.000000
vn -0.570560 -0.821256 0.000000
vn 0.821255 -0.570561 0.000000
vn 0.821255 -0.570561 0.000000
vn 0.821255 -0.570561 0.000000
vn 0.821255 -0.570561 0.000000
vn 0.570560 0.821256 0.000000
vn 0.570560 0.821256 0.000000
vn 0.570560 0.821256 0.000000
vn 0.570560 0.821256 0.000000
vn -0.821255 0.570561 0.000000
vn -0.821255 0.570561 0.000000
vn -0.821255 0.570561 0.000000
vn -0.821255 0.570561 0.000000
vn 0.770133 -0.535045 -0.347307
vn 0.770133 -0.535045 -0.347307
vn 0.770133 -0.535045 -0.347307
vn 0.770133 -0.535045 -0.347307
vn -0.570558 -0.821257 -0.000001
vn -0.570558 -0.821257 -0.000001
vn -0.570558 -0.821257 -0.000001
vn -0.570558 -0.821257 -0.000001
vn -0.777278 0.540006 0.322850
vn -0.777278 0.540006 0.322850
vn -0.777278 0.540006 0.322850
vn -0.777278 0.540006 0.322850
vn 0.570561 0.821256 0.000001
vn 0.570560 0.821256 0.000001
vn 0.570561 0.821256 0.000001
vn 0.570561 0.821256 0.000001
vn 0.770132 -0.535045 0.347308
vn 0.770132 -0.535045 0.347308
vn 0.770132 -0.535045 0.347308
vn 0.770132 -0.535045 0.347308
vn -0.570558 -0.821257 0.000001
vn -0.570558 -0.821257 0.000001
vn -0.570558 -0.821257 0.000001
vn -0.570558 -0.821257 0.000001
vn -0.777278 0.540006 -0.322850
vn -0.777278 0.540006 -0.322850
vn -0.777278 0.540006 -0.322850
vn -0.777278 0.540006 -0.322850
vn 0.570560 0.821256 -0.000001
vn 0.570560 0.821256 -0.000001
vn 0.570560 0.821256 -0.000001
vn 0.570560 0.821256 -0.000001
vn 0.000000 1.000000 0.000000
vn 0.000000 1.000000 0.000000
vn 0.000000 1.000000 0.000000
vn 0.000000 1.000000 0.000000
vn -0.895260 -0.073481 0.439442
vn -0.895260 -0.073481 0.439442
vn -0.895260 -0.073481 0.439442
vn -0.895260 -0.073481 0.439442
vn -0.895260 -0.073481 0.439442
vn -0.666422 0.282009 -0.690183
vn -0.666422 0.282009 -0.690183
vn -0.666422 0.282009 -0.690183
vn -0.666422 0.282009 -0.690183
vn 0.492319 0.606681 0.624147
vn 0.492319 0.606681 0.624147
vn 0.492319 0.606681 0.624147
vn 0.492319 0.606681 0.624147
s off
f 10/16/1 11/17/2 2/2/3 4/4/4
f 26/40/5 27/25/6 28/38/7 29/39/8
f 12/19/9 9/15/10 6/6/11 8/8/12
f 17/28/13 13/20/14 12/19/15 8/8/16
f 16/27/17 17/29/18 8/11/19 6/12/20
f 7/13/21 14/21/22 15/23/23 5/14/24
f 30/42/25 27/25/26 26/40/27 31/41/28
f 1/1/29 11/17/30 10/16/31 3/3/32 66/104/33
f 7/7/34 12/19/35 13/20/36 14/22/37
f 5/5/38 9/15/39 12/19/40 7/7/41
f 14/22/42 13/20/43 11/18/44 1/9/45
f 32/43/46 33/44/47 27/25/48 30/42/49
f 28/38/50 27/25/51 33/44/52 34/45/53
f 2/2/54 17/29/55 16/27/56 4/4/57
f 11/18/58 13/20/59 17/28/60 2/10/61
f 16/26/62 6/6/63 20/31/64 19/30/65
f 6/6/66 9/15/67 18/32/68 20/31/69
f 9/15/70 5/5/71 22/33/72 18/32/73
f 5/5/74 15/24/75 21/34/76 22/33/77
f 3/3/78 10/16/79 24/36/80 23/35/81
f 10/16/82 4/4/83 25/37/84 24/36/85
f 4/4/86 16/26/87 19/30/88 25/37/89
f 19/30/90 20/31/91 29/39/92 28/38/93
f 20/31/94 18/32/95 26/40/96 29/39/97
f 18/32/98 22/33/99 31/41/100 26/40/101
f 22/33/102 21/34/103 30/42/104 31/41/105
f 23/35/106 24/36/107 33/44/108 32/43/109 64/101/110
f 21/34/111 63/100/112 64/101/113 32/43/114 30/42/115
f 24/36/116 25/37/117 34/45/118 33/44/119
f 25/37/120 19/30/121 28/38/122 34/45/123
f 35/46/124 36/47/125 38/48/126 37/49/127
f 55/50/128 56/51/129 48/52/130 49/53/131
f 39/54/132 40/55/133 42/56/134 41/57/135
f 50/58/136 47/59/137 57/60/138 58/61/139
f 56/62/140 57/63/141 47/64/142 48/65/143
f 49/66/144 50/67/145 58/68/146 55/69/147
f 43/70/148 44/71/149 52/72/150 53/73/151
f 44/74/152 45/75/153 51/76/154 52/77/155
f 54/78/156 51/79/157 45/80/158 46/81/159
f 53/82/160 54/83/161 46/84/162 43/85/163
f 37/49/164 38/48/165 44/71/166 43/70/167
f 36/47/168 45/75/169 44/74/170 38/48/171
f 46/81/172 45/80/173 36/86/174 35/87/175
f 43/85/176 46/84/177 35/46/178 37/49/179
f 48/65/180 47/64/181 42/88/182 40/89/183
f 49/53/184 48/52/185 40/55/186 39/54/187
f 41/90/188 50/67/189 49/66/190 39/91/191
f 41/57/192 42/56/193 47/59/194 50/58/195
f 56/51/196 55/50/197 59/92/198 60/93/199
f 60/94/200 61/95/201 57/63/202 56/62/203
f 61/96/204 62/97/205 58/61/206 57/60/207
f 55/69/208 58/68/209 62/98/210 59/99/211
f 60/93/212 59/92/213 53/73/214 52/72/215
f 51/76/216 61/95/217 60/94/218 52/77/219
f 54/78/220 62/97/221 61/96/222 51/79/223
f 59/99/224 62/98/225 54/83/226 53/82/227
f 15/24/228 65/103/229 63/100/230 21/34/231
f 15/23/232 14/21/233 1/1/234 66/104/235 65/102/236
f 23/35/237 64/101/238 66/104/239 3/3/240
f 66/104/241 64/101/242 63/100/243 65/102/244
