# This file uses centimeters as units for non-parametric coordinates.

v 0.306770 0.650221 0.250859
v 0.189605 0.650221 0.250859
v 0.306770 -0.008616 -0.095882
v 0.189605 -0.008616 -0.095882
v 0.248188 0.698171 0.276097
v 0.189605 0.585157 0.374485
v 0.189605 -0.073679 0.027745
v 0.248188 0.633108 0.399723
v 0.306770 0.585157 0.374485
v 0.306770 -0.073679 0.027745
v -0.416733 0.824705 0.369709
v 0.416732 0.824705 0.369709
v -0.416733 0.087148 -0.018459
v 0.416732 0.087148 -0.018459
v -0.416733 0.044370 0.062825
v 0.416732 0.044370 0.062825
v -0.416733 0.781927 0.450993
v 0.416732 0.781927 0.450993
v -0.306767 0.650221 0.250859
v -0.189606 0.650221 0.250859
v -0.306767 -0.008616 -0.095882
v -0.189606 -0.008616 -0.095882
v -0.248185 0.698171 0.276097
v -0.306767 -0.073679 0.027745
v -0.189606 -0.073679 0.027745
v -0.306767 0.585157 0.374485
v -0.248185 0.633108 0.399723
v -0.189606 0.585157 0.374485
vt 0.273977 0.160356
vt 0.273977 0.160356
vt 0.273977 0.160356
vt 0.273977 0.160356
vt 0.273977 0.160356
vt 0.273977 0.160356
vt 0.273977 0.160356
vt 0.273977 0.160356
vt 0.273977 0.160356
vt 0.273977 0.160356
vt 0.273977 0.160356
vt 0.273977 0.160356
vt 0.273977 0.160356
vt 0.273977 0.160356
vt 0.273977 0.160356
vt 0.273977 0.160356
vt 0.273977 0.160356
vt 0.273977 0.160356
vt 0.273977 0.160356
vt 0.273977 0.160356
vt 0.273977 0.160356
vt 0.273977 0.160356
vt 0.273977 0.160356
vt 0.273977 0.160356
vt 0.273977 0.160356
vt 0.273977 0.160356
vt 0.309972 0.168173
vt 0.309972 0.168173
vt 0.309972 0.168173
vt 0.309972 0.168173
vt 0.309972 0.168173
vt 0.309972 0.168173
vt 0.309972 0.168173
vt 0.309972 0.168173
vt 0.309972 0.168173
vt 0.309972 0.168173
vt 0.309972 0.168173
vt 0.309972 0.168173
vt 0.309972 0.168173
vt 0.309972 0.168173
vt 0.273977 0.160356
vt 0.273977 0.160356
vt 0.273977 0.160356
vt 0.273977 0.160356
vt 0.273977 0.160356
vt 0.273977 0.160356
vt 0.273977 0.160356
vt 0.273977 0.160356
vt 0.273977 0.160356
vt 0.273977 0.160356
vt 0.273977 0.160356
vt 0.273977 0.160356
vt 0.273977 0.160356
vt 0.273977 0.160356
vt 0.273977 0.160356
vn 0.000000 -0.465731 0.884926
vn 0.000000 -0.465731 0.884926
vn 0.000000 -0.465731 0.884926
vn 0.000000 -0.465731 0.884926
vn 0.000000 -0.465731 0.884926
vn 0.000000 0.465731 -0.884926
vn 0.000000 0.465731 -0.884926
vn 0.000000 0.465731 -0.884926
vn 0.000000 0.465731 -0.884926
vn 0.000000 0.465731 -0.884926
vn -1.000000 0.000000 0.000000
vn -1.000000 0.000000 0.000000
vn -1.000000 0.000000 0.000000
vn -1.000000 0.000000 0.000000
vn -0.679031 0.649634 0.341896
vn -0.679031 0.649634 0.341896
vn -0.679031 0.649634 0.341896
vn -0.679031 0.649634 0.341896
vn 0.679031 0.649634 0.341896
vn 0.679031 0.649634 0.341896
vn 0.679031 0.649634 0.341896
vn 0.679031 0.649634 0.341896
vn 1.000000 0.000000 0.000000
vn 1.000000 0.000000 0.000000
vn 1.000000 0.000000 0.000000
vn 1.000000 0.000000 0.000000
vn 0.000000 -0.884928 -0.465728
vn 0.000000 -0.884928 -0.465728
vn 0.000000 -0.884928 -0.465728
vn 0.000000 -0.884928 -0.465728
vn 0.000000 0.465728 -0.884928
vn 0.000000 0.465728 -0.884928
vn 0.000000 0.465728 -0.884928
vn 0.000000 0.465728 -0.884928
vn 0.000000 -0.884931 -0.465723
vn 0.000000 -0.884931 -0.465723
vn 0.000000 -0.884931 -0.465723
vn 0.000000 -0.884931 -0.465723
vn 0.000000 -0.465728 0.884928
vn 0.000000 -0.465728 0.884928
vn 0.000000 -0.465728 0.884928
vn 0.000000 -0.465728 0.884928
vn 0.000000 0.884931 0.465723
vn 0.000000 0.884931 0.465723
vn 0.000000 0.884931 0.465723
vn 0.000000 0.884931 0.465723
vn 1.000000 0.000000 0.000000
vn 1.000000 0.000000 0.000000
vn 1.000000 0.000000 0.000000
vn 1.000000 0.000000 0.000000
vn -1.000000 0.000000 0.000000
vn -1.000000 0.000000 0.000000
vn -1.000000 0.000000 0.000000
vn -1.000000 0.000000 0.000000
vn 0.000000 -0.465731 0.884926
vn 0.000000 -0.465731 0.884926
vn 0.000000 -0.465731 0.884926
vn 0.000000 -0.465731 0.884926
vn 0.000000 -0.465731 0.884926
vn 0.000000 0.465731 -0.884926
vn 0.000000 0.465731 -0.884926
vn 0.000000 0.465731 -0.884926
vn 0.000000 0.465731 -0.884926
vn 0.000000 0.465731 -0.884926
vn 0.000000 -0.884928 -0.465729
vn 0.000000 -0.884928 -0.465729
vn 0.000000 -0.884928 -0.465729
vn 0.000000 -0.884928 -0.465729
vn -1.000000 0.000000 0.000000
vn -1.000000 0.000000 0.000000
vn -1.000000 0.000000 0.000000
vn -1.000000 0.000000 0.000000
vn -0.679031 0.649634 0.341896
vn -0.679031 0.649634 0.341896
vn -0.679031 0.649634 0.341896
vn -0.679031 0.649634 0.341896
vn 0.679055 0.649615 0.341885
vn 0.679055 0.649615 0.341885
vn 0.679055 0.649615 0.341885
vn 0.679055 0.649615 0.341885
vn 1.000000 0.000000 0.000000
vn 1.000000 0.000000 0.000000
vn 1.000000 0.000000 0.000000
vn 1.000000 0.000000 0.000000
s off
f 7/1/1 10/2/2 9/3/3 8/4/4 6/5/5
f 4/6/6 2/7/7 5/8/8 1/9/9 3/10/10
f 4/11/11 7/12/12 6/13/13 2/14/14
f 2/15/15 6/5/16 8/16/17 5/17/18
f 5/18/19 8/4/20 9/19/21 1/20/22
f 1/21/23 9/3/24 10/22/25 3/23/26
f 3/24/27 10/2/28 7/25/29 4/26/30
f 14/27/31 13/28/32 11/29/33 12/30/34
f 15/31/35 13/28/36 14/27/37 16/32/38
f 17/33/39 15/31/40 16/32/41 18/34/42
f 11/35/43 17/33/44 18/34/45 12/36/46
f 12/30/47 18/37/48 16/38/49 14/27/50
f 17/39/51 11/29/52 13/28/53 15/40/54
f 25/41/55 28/42/56 27/43/57 26/44/58 24/45/59
f 22/46/60 21/47/61 19/48/62 23/49/63 20/50/64
f 22/51/65 25/41/66 24/45/67 21/52/68
f 21/52/69 24/45/70 26/44/71 19/53/72
f 19/53/73 26/44/74 27/43/75 23/54/76
f 23/54/77 27/43/78 28/42/79 20/55/80
f 20/55/81 28/42/82 25/41/83 22/51/84
