# This file uses centimeters as units for non-parametric coordinates.

v -0.000511 0.660850 -0.024695
v 0.052824 0.635644 -0.016155
v 0.052824 0.635644 0.016155
v -0.000511 0.660850 0.024696
v -0.053846 0.635644 0.016155
v -0.053846 0.635644 -0.016155
v -0.000511 0.158041 -0.024695
v -0.053846 0.155850 -0.016155
v -0.053846 0.155850 0.016155
v -0.000511 0.158041 0.024696
v 0.052824 0.155850 0.016155
v 0.052824 0.155850 -0.016155
v -0.000511 0.736633 -0.018427
v -0.000511 0.736633 0.018428
v 0.062212 0.703930 0.007730
v 0.062212 0.703930 -0.007730
v -0.063236 0.703930 0.007730
v -0.063236 0.703930 -0.007730
v -0.000511 0.673509 -0.028741
v 0.060303 0.643672 -0.014550
v 0.060303 0.643672 0.014551
v -0.000511 0.673510 0.028741
v -0.061327 0.643672 0.014551
v -0.061327 0.643672 -0.014550
v -0.000511 0.107243 0.030920
v -0.000511 0.107243 -0.030920
v 0.060641 0.108205 -0.020457
v 0.060641 0.108205 0.020458
v -0.061665 0.108205 -0.020457
v -0.061665 0.108205 0.020458
v -0.000511 0.158041 -0.033163
v -0.061327 0.155850 -0.020245
v -0.061327 0.155850 0.020245
v -0.000511 0.158041 0.033164
v 0.060303 0.155850 0.020245
v 0.060303 0.155850 -0.020245
v -0.000511 0.107243 0.017291
v -0.000511 0.107243 -0.017290
v 0.049525 0.108205 -0.011440
v 0.049525 0.108205 0.011440
v -0.050548 0.108205 -0.011440
v -0.050548 0.108205 0.011440
vt 0.073961 0.141130
vt 0.073961 0.141130
vt 0.073961 0.141130
vt 0.073961 0.141130
vt 0.073961 0.141130
vt 0.073961 0.141130
vt 0.073961 0.141130
vt 0.073961 0.141130
vt 0.073961 0.141130
vt 0.073961 0.141130
vt 0.073961 0.141130
vt 0.073961 0.141130
vt 0.073961 0.141130
vt 0.073961 0.141130
vt 0.073961 0.141130
vt 0.073961 0.141130
vt 0.073961 0.141130
vt 0.073961 0.141130
vt 0.073961 0.141130
vt 0.104816 0.139556
vt 0.104816 0.139556
vt 0.104816 0.139556
vt 0.104816 0.139556
vt 0.104816 0.139556
vt 0.104816 0.139556
vt 0.104816 0.139556
vt 0.104816 0.139556
vt 0.104816 0.139556
vt 0.104816 0.139556
vt 0.104816 0.139556
vt 0.104816 0.139556
vt 0.073961 0.141130
vt 0.073961 0.141130
vt 0.073961 0.141130
vt 0.073961 0.141130
vt 0.073961 0.141130
vt 0.073961 0.141130
vt 0.073961 0.141130
vt 0.073961 0.141130
vt 0.073961 0.141130
vt 0.073961 0.141130
vt 0.073961 0.141130
vt 0.073961 0.141130
vt 0.073961 0.141130
vt 0.073961 0.141130
vt 0.073961 0.141130
vt 0.073961 0.141130
vt 0.073961 0.141130
vt 0.073961 0.141130
vt 0.073961 0.141130
vt 0.073961 0.141130
vt 0.073961 0.141130
vt 0.073961 0.141130
vt 0.073961 0.141130
vt 0.075071 0.137664
vt 0.075071 0.137664
vt 0.075071 0.137664
vt 0.075071 0.137664
vt 0.075071 0.137664
vt 0.075071 0.137664
vn 0.158117 0.000000 0.987420
vn 0.158117 0.000000 0.987420
vn 0.158117 0.000000 0.987420
vn 0.158117 0.000000 0.987420
vn 0.462319 0.886714 0.000000
vn 0.462319 0.886714 0.000000
vn 0.462319 0.886714 0.000000
vn 0.462319 0.886714 0.000000
vn 0.158107 0.000000 -0.987422
vn 0.158107 0.000000 -0.987422
vn 0.158107 0.000000 -0.987422
vn 0.158107 0.000000 -0.987422
vn 0.019213 -0.999815 0.000000
vn 0.019213 -0.999815 0.000000
vn 0.019213 -0.999815 0.000000
vn 0.019213 -0.999815 0.000000
vn 1.000000 0.000000 0.000000
vn 1.000000 0.000000 0.000000
vn 1.000000 0.000000 0.000000
vn 1.000000 0.000000 0.000000
vn -1.000000 0.000000 0.000000
vn -1.000000 0.000000 0.000000
vn -1.000000 0.000000 0.000000
vn -1.000000 0.000000 0.000000
vn -0.462313 0.886717 0.000000
vn -0.462313 0.886717 0.000000
vn -0.462313 0.886717 0.000000
vn -0.462313 0.886717 0.000000
vn -0.158118 0.000000 0.987420
vn -0.158118 0.000000 0.987420
vn -0.158118 0.000000 0.987420
vn -0.158118 0.000000 0.987420
vn -0.019213 -0.999815 0.000000
vn -0.019213 -0.999815 0.000000
vn -0.019213 -0.999815 0.000000
vn -0.019213 -0.999815 0.000000
vn -0.158107 0.000000 -0.987422
vn -0.158107 0.000000 -0.987422
vn -0.158107 0.000000 -0.987422
vn -0.158107 0.000000 -0.987422
vn 0.258185 0.128973 -0.957448
vn 0.258185 0.128973 -0.957448
vn 0.258185 0.128973 -0.957448
vn 0.258185 0.128973 -0.957448
vn 0.999499 -0.031661 0.000000
vn 0.999499 -0.031661 0.000000
vn 0.999499 -0.031661 0.000000
vn 0.999499 -0.031661 0.000000
vn 0.258179 0.128969 0.957450
vn 0.258179 0.128969 0.957450
vn 0.258179 0.128969 0.957450
vn 0.258179 0.128969 0.957450
vn -0.258175 0.128970 0.957451
vn -0.258175 0.128970 0.957451
vn -0.258175 0.128970 0.957451
vn -0.258175 0.128970 0.957451
vn -0.999499 -0.031657 0.000000
vn -0.999499 -0.031657 0.000000
vn -0.999499 -0.031657 0.000000
vn -0.999499 -0.031657 0.000000
vn -0.258181 0.128974 -0.957449
vn -0.258181 0.128974 -0.957449
vn -0.258181 0.128974 -0.957449
vn -0.258181 0.128974 -0.957449
vn -0.188042 -0.019628 -0.981965
vn -0.188042 -0.019628 -0.981965
vn -0.188042 -0.019628 -0.981965
vn -0.188042 -0.019628 -0.981965
vn -0.999975 0.007081 0.000000
vn -0.999975 0.007081 0.000000
vn -0.999975 0.007081 0.000000
vn -0.999975 0.007081 0.000000
vn -0.188039 -0.019623 0.981966
vn -0.188039 -0.019623 0.981966
vn -0.188039 -0.019623 0.981966
vn -0.188039 -0.019623 0.981966
vn 0.188042 -0.019622 0.981965
vn 0.188042 -0.019622 0.981965
vn 0.188042 -0.019622 0.981965
vn 0.188042 -0.019622 0.981965
vn 0.999975 0.007096 0.000000
vn 0.999975 0.007096 0.000000
vn 0.999975 0.007096 0.000000
vn 0.999975 0.007096 0.000000
vn 0.188045 -0.019626 -0.981964
vn 0.188045 -0.019626 -0.981964
vn 0.188045 -0.019626 -0.981964
vn 0.188045 -0.019626 -0.981964
vn 0.118731 -0.158562 -0.980184
vn 0.118731 -0.158562 -0.980184
vn 0.118731 -0.158562 -0.980184
vn 0.118731 -0.158562 -0.980184
vn 0.731638 -0.681693 0.000000
vn 0.731638 -0.681693 0.000000
vn 0.731638 -0.681693 0.000000
vn 0.731638 -0.681693 0.000000
vn 0.118719 -0.158575 0.980184
vn 0.118719 -0.158575 0.980184
vn 0.118719 -0.158575 0.980184
vn 0.118719 -0.158575 0.980184
vn -0.118715 -0.158582 0.980183
vn -0.118715 -0.158582 0.980183
vn -0.118715 -0.158582 0.980183
vn -0.118715 -0.158582 0.980183
vn -0.731573 -0.681763 0.000000
vn -0.731573 -0.681763 0.000000
vn -0.731573 -0.681763 0.000000
vn -0.731573 -0.681763 0.000000
vn -0.118727 -0.158570 -0.980183
vn -0.118727 -0.158570 -0.980183
vn -0.118727 -0.158570 -0.980183
vn -0.118727 -0.158570 -0.980183
vn -0.034500 0.999193 0.020556
vn -0.034500 0.999193 0.020556
vn -0.034500 0.999193 0.020556
vn -0.034500 0.999193 0.020556
vn -0.000000 1.000000 0.000005
vn -0.000000 1.000000 0.000005
vn -0.000000 1.000000 0.000005
vn -0.000000 1.000000 0.000005
vn -0.034493 0.999194 -0.020550
vn -0.034493 0.999194 -0.020550
vn -0.034493 0.999194 -0.020550
vn -0.034493 0.999194 -0.020550
vn 0.034494 0.999194 -0.020545
vn 0.034494 0.999194 -0.020545
vn 0.034494 0.999194 -0.020545
vn 0.034494 0.999194 -0.020545
vn 0.000000 1.000000 0.000005
vn 0.000000 1.000000 0.000005
vn 0.000000 1.000000 0.000005
vn 0.000000 1.000000 0.000005
vn 0.034501 0.999193 0.020555
vn 0.034501 0.999193 0.020555
vn 0.034501 0.999193 0.020555
vn 0.034501 0.999193 0.020555
vn 0.016131 -0.999839 0.007919
vn 0.016131 -0.999839 0.007919
vn 0.016131 -0.999839 0.007919
vn 0.016131 -0.999839 0.007919
vn 0.000000 -1.000000 0.000000
vn 0.000000 -1.000000 0.000000
vn 0.000000 -1.000000 0.000000
vn 0.000000 -1.000000 0.000000
vn 0.016131 -0.999839 -0.007918
vn 0.016131 -0.999839 -0.007918
vn 0.016131 -0.999839 -0.007918
vn 0.016131 -0.999839 -0.007918
vn -0.016131 -0.999839 0.007918
vn -0.016131 -0.999839 0.007918
vn -0.016131 -0.999839 0.007918
vn -0.016131 -0.999839 0.007918
vn -0.016131 -0.999839 -0.007918
vn -0.016131 -0.999839 -0.007918
vn -0.016131 -0.999839 -0.007918
vn -0.016131 -0.999839 -0.007918
vn 0.000000 -1.000000 0.000000
vn 0.000000 -1.000000 0.000000
vn 0.000000 -1.000000 0.000000
vn 0.000000 -1.000000 0.000000
s off
f 3/20/1 4/21/2 10/22/3 11/23/4
f 13/1/5 14/2/6 15/3/7 16/4/8
f 12/24/9 7/25/10 1/26/11 2/27/12
f 37/55/13 38/56/14 39/57/15 40/58/16
f 11/23/17 12/24/18 2/27/19 3/20/20
f 8/28/21 9/29/22 5/30/23 6/31/24
f 17/9/25 14/2/26 13/1/27 18/10/28
f 9/29/29 10/22/30 4/21/31 5/30/32
f 41/59/33 38/56/34 37/55/35 42/60/36
f 6/31/37 1/26/38 7/25/39 8/28/40
f 20/13/41 19/14/42 13/1/43 16/4/44
f 21/15/45 20/13/46 16/4/47 15/3/48
f 14/2/49 22/16/50 21/15/51 15/3/52
f 23/17/53 22/16/54 14/2/55 17/9/56
f 24/18/57 23/17/58 17/9/59 18/10/60
f 18/10/61 13/1/62 19/14/63 24/18/64
f 32/19/65 31/36/66 26/6/67 29/11/68
f 29/11/69 30/12/70 33/37/71 32/19/72
f 30/12/73 25/5/74 34/38/75 33/37/76
f 35/39/77 34/38/78 25/5/79 28/8/80
f 28/8/81 27/7/82 36/40/83 35/39/84
f 26/6/85 31/36/86 36/40/87 27/7/88
f 2/41/89 1/42/90 19/14/91 20/13/92
f 3/43/93 2/41/94 20/13/95 21/15/96
f 4/44/97 3/43/98 21/15/99 22/16/100
f 5/45/101 4/44/102 22/16/103 23/17/104
f 6/46/105 5/45/106 23/17/107 24/18/108
f 1/42/109 6/46/110 24/18/111 19/14/112
f 8/47/113 7/48/114 31/36/115 32/19/116
f 9/35/117 8/47/118 32/19/119 33/37/120
f 10/34/121 9/35/122 33/37/123 34/38/124
f 11/33/125 10/34/126 34/38/127 35/39/128
f 12/32/129 11/33/130 35/39/131 36/40/132
f 7/48/133 12/32/134 36/40/135 31/36/136
f 26/6/137 27/7/138 39/50/139 38/49/140
f 27/7/141 28/8/142 40/51/143 39/50/144
f 28/8/145 25/5/146 37/52/147 40/51/148
f 29/11/149 26/6/150 38/49/151 41/53/152
f 25/5/153 30/12/154 42/54/155 37/52/156
f 30/12/157 29/11/158 41/53/159 42/54/160
