# This file uses centimeters as units for non-parametric coordinates.

v -0.031830 1.087112 -0.007874
v -0.090088 1.053627 -0.007874
v -0.090088 1.053627 0.007050
v -0.031830 1.087112 0.007050
v -0.064301 1.082726 -0.000397
v 0.040375 0.113752 -0.013458
v -0.046356 0.113752 -0.013458
v 0.040375 0.113752 0.012634
v -0.046356 0.113752 0.012634
v 0.031097 0.217793 0.007568
v -0.037079 0.217793 0.007568
v -0.037079 0.217793 -0.008392
v 0.031097 0.217793 -0.008392
v -0.045959 0.209011 -0.013336
v -0.045959 0.209011 0.012512
v 0.040009 0.209011 0.012512
v 0.040009 0.209011 -0.013336
v 0.027222 0.397999 0.007263
v -0.038574 0.397999 0.007263
v -0.038574 0.397999 -0.008087
v 0.027222 0.397999 -0.008087
v 0.034180 0.402214 -0.009796
v 0.034180 0.402214 0.009003
v -0.045532 0.402214 0.009003
v -0.045532 0.402214 -0.009796
v 0.026520 0.492523 -0.007935
v 0.026520 0.492523 0.007111
v -0.037903 0.492523 0.007111
v -0.037903 0.492523 -0.007935
v -0.044769 0.487373 0.008820
v 0.033417 0.487373 0.008820
v 0.033417 0.487373 -0.009613
v -0.044769 0.487373 -0.009613
v 0.025269 0.948738 0.006134
v -0.055725 0.948738 0.006134
v -0.055725 0.948738 -0.006958
v 0.025269 0.948738 -0.006958
v 0.036072 0.954056 0.009308
v -0.066498 0.954056 0.009308
v -0.066498 0.954056 -0.010101
v 0.036072 0.954056 -0.010101
v 0.032806 0.113752 -0.008270
v 0.032806 0.113752 0.007446
v -0.038757 0.113752 0.007446
v -0.038757 0.113752 -0.008270
v -0.057983 1.071281 0.014587
v -0.010681 0.954056 0.019104
v -0.010681 0.948738 0.012756
v -0.003998 0.492523 0.014709
v -0.003998 0.487373 0.018127
v -0.003998 0.402214 0.018494
v -0.003998 0.397999 0.015045
v -0.001282 0.217793 0.015656
v -0.001282 0.209011 0.025574
v -0.001282 0.113752 0.025818
v -0.001282 0.113752 0.015381
v -0.001282 0.113752 -0.016174
v -0.001282 0.113752 -0.026642
v -0.001282 0.209011 -0.026398
v -0.001282 0.217793 -0.016449
v -0.003998 0.397999 -0.015869
v -0.003998 0.402214 -0.019318
v -0.003998 0.487373 -0.018951
v -0.003998 0.492523 -0.015533
v -0.010681 0.948738 -0.013550
v -0.010681 0.954056 -0.019928
v -0.057983 1.071281 -0.015411
v 0.035645 1.003059 -0.010010
v 0.035645 1.003059 0.009216
v -0.010681 1.003059 0.018921
v -0.066071 1.003059 0.009216
v -0.066071 1.003059 -0.010010
v -0.010681 1.003059 -0.019745
vt 0.074007 0.141124
vt 0.074007 0.141124
vt 0.074007 0.141124
vt 0.074007 0.141124
vt 0.074007 0.141124
vt 0.074007 0.141124
vt 0.074007 0.141124
vt 0.074007 0.141124
vt 0.074007 0.141124
vt 0.074007 0.141124
vt 0.074007 0.141124
vt 0.074007 0.141124
vt 0.074007 0.141124
vt 0.074007 0.141124
vt 0.074007 0.141124
vt 0.074007 0.141124
vt 0.074007 0.141124
vt 0.074008 0.141124
vt 0.074007 0.141124
vt 0.074007 0.141124
vt 0.074007 0.141124
vt 0.074008 0.141124
vt 0.074007 0.141124
vt 0.074007 0.141124
vt 0.074007 0.141124
vt 0.074007 0.141124
vt 0.074007 0.141124
vt 0.074007 0.141124
vt 0.105164 0.137039
vt 0.105164 0.137039
vt 0.105164 0.137039
vt 0.105164 0.137039
vt 0.105164 0.137039
vt 0.105164 0.137039
vt 0.105164 0.137039
vt 0.105164 0.137039
vt 0.074007 0.141124
vt 0.074007 0.141124
vt 0.074008 0.141124
vt 0.074007 0.141124
vt 0.074008 0.141124
vt 0.074008 0.141125
vt 0.074007 0.141125
vt 0.074007 0.141124
vt 0.105164 0.137039
vt 0.105164 0.137039
vt 0.105164 0.137039
vt 0.105164 0.137039
vt 0.105164 0.137039
vt 0.105164 0.137039
vt 0.105164 0.137039
vt 0.105164 0.137039
vt 0.074007 0.141124
vt 0.074008 0.141125
vt 0.074007 0.141124
vt 0.074007 0.141125
vt 0.074007 0.141124
vt 0.074007 0.141124
vt 0.074007 0.141124
vt 0.074007 0.141124
vt 0.105164 0.137039
vt 0.105164 0.137039
vt 0.105164 0.137039
vt 0.105164 0.137039
vt 0.105164 0.137039
vt 0.105164 0.137039
vt 0.105164 0.137039
vt 0.105164 0.137039
vt 0.074007 0.141124
vt 0.075071 0.137664
vt 0.075071 0.137664
vt 0.075071 0.137664
vt 0.075071 0.137664
vt 0.074007 0.141124
vt 0.074007 0.141124
vt 0.074007 0.141124
vt 0.074007 0.141124
vt 0.074007 0.141124
vt 0.074007 0.141124
vt 0.074007 0.141124
vt 0.074007 0.141124
vt 0.074007 0.141124
vt 0.074007 0.141124
vt 0.074008 0.141125
vt 0.074008 0.141125
vt 0.074008 0.141124
vt 0.074008 0.141124
vt 0.074007 0.141124
vt 0.074007 0.141124
vt 0.074007 0.141124
vt 0.074008 0.141124
vt 0.074007 0.141124
vt 0.074007 0.141124
vt 0.074007 0.141124
vt 0.074007 0.141124
vt 0.075071 0.137664
vt 0.074007 0.141124
vt 0.075071 0.137664
vt 0.074007 0.141124
vt 0.074007 0.141124
vt 0.074007 0.141124
vt 0.074007 0.141124
vt 0.074008 0.141124
vn -0.477435 0.590335 -0.650815
vn -0.477435 0.590335 -0.650815
vn -0.477435 0.590335 -0.650815
vn -0.748405 0.663243 0.000000
vn -0.748405 0.663243 0.000000
vn -0.748405 0.663243 0.000000
vn -0.477245 0.589673 0.651555
vn -0.477245 0.589673 0.651555
vn -0.477245 0.589673 0.651555
vn -0.133887 0.990997 0.000000
vn -0.133887 0.990997 0.000000
vn -0.133887 0.990997 0.000000
vn 0.199290 0.690627 -0.695211
vn 0.199290 0.690627 -0.695211
vn 0.199290 0.690627 -0.695211
vn 0.199290 0.690627 -0.695211
vn 0.701904 0.712271 0.000000
vn 0.701904 0.712271 0.000000
vn 0.701904 0.712271 0.000000
vn 0.701904 0.712271 0.000000
vn 0.199713 0.690031 0.695681
vn 0.199713 0.690031 0.695681
vn 0.199713 0.690031 0.695681
vn 0.199713 0.690031 0.695681
vn -0.703125 0.711066 0.000000
vn -0.703125 0.711066 0.000000
vn -0.703125 0.711066 0.000000
vn -0.703125 0.711066 0.000000
vn 0.242092 0.006892 0.970229
vn 0.242092 0.006892 0.970229
vn 0.242092 0.006892 0.970229
vn 0.242092 0.006892 0.970229
vn -0.999966 -0.008298 0.000000
vn -0.999966 -0.008298 0.000000
vn -0.999966 -0.008298 0.000000
vn -0.999966 -0.008298 0.000000
vn 0.241653 0.006802 -0.970339
vn 0.241653 0.006802 -0.970339
vn 0.241653 0.006802 -0.970339
vn 0.241653 0.006802 -0.970339
vn 0.999769 0.021502 0.000000
vn 0.999769 0.021502 0.000000
vn 0.999769 0.021502 0.000000
vn 0.999769 0.021502 0.000000
vn -0.999991 0.004165 0.000000
vn -0.999991 0.004165 0.000000
vn -0.999991 0.004165 0.000000
vn -0.999991 0.004165 0.000000
vn 0.301668 0.002412 0.953410
vn 0.301668 0.002412 0.953410
vn 0.301668 0.002412 0.953410
vn 0.301668 0.002412 0.953410
vn 0.999993 0.003844 0.000000
vn 0.999993 0.003844 0.000000
vn 0.999993 0.003844 0.000000
vn 0.999993 0.003844 0.000000
vn 0.301668 0.002412 -0.953410
vn 0.301668 0.002412 -0.953410
vn 0.301668 0.002412 -0.953410
vn 0.301668 0.002412 -0.953410
vn 0.188926 -0.623029 0.759040
vn 0.188926 -0.623029 0.759040
vn 0.188926 -0.623030 0.759040
vn 0.188926 -0.623030 0.759040
vn -0.518146 -0.855292 0.000000
vn -0.518146 -0.855292 0.000000
vn -0.518146 -0.855292 0.000000
vn -0.518146 -0.855292 0.000000
vn 0.189539 -0.621474 -0.760162
vn 0.189539 -0.621473 -0.760162
vn 0.189539 -0.621474 -0.760162
vn 0.189539 -0.621474 -0.760162
vn 0.518146 -0.855292 0.000000
vn 0.518146 -0.855292 0.000000
vn 0.518146 -0.855292 0.000000
vn 0.518146 -0.855292 0.000000
vn 0.598297 0.801275 0.000000
vn 0.598297 0.801275 0.000000
vn 0.598297 0.801275 0.000000
vn 0.598297 0.801275 0.000000
vn 0.202976 0.541891 0.815570
vn 0.202976 0.541891 0.815570
vn 0.202976 0.541891 0.815570
vn 0.202976 0.541891 0.815570
vn -0.600000 0.800000 0.000000
vn -0.600000 0.800000 0.000000
vn -0.600000 0.800000 0.000000
vn -0.600000 0.800000 0.000000
vn 0.203567 0.540314 -0.816469
vn 0.203567 0.540314 -0.816469
vn 0.203567 0.540314 -0.816469
vn 0.203567 0.540314 -0.816469
vn 0.999996 0.002743 0.000000
vn 0.999996 0.002743 0.000000
vn 0.999996 0.002743 0.000000
vn 0.999996 0.002743 0.000000
vn 0.209220 0.004959 0.977856
vn 0.209220 0.004959 0.977856
vn 0.209220 0.004959 0.977856
vn 0.209220 0.004959 0.977856
vn -0.999238 -0.039036 0.000000
vn -0.999238 -0.039036 0.000000
vn -0.999238 -0.039036 0.000000
vn -0.999238 -0.039036 0.000000
vn 0.208790 0.004988 -0.977948
vn 0.208790 0.004988 -0.977948
vn 0.208790 0.004988 -0.977948
vn 0.208790 0.004988 -0.977948
vn 0.241335 0.004211 0.970433
vn 0.241335 0.004211 0.970433
vn 0.241335 0.004211 0.970433
vn 0.241335 0.004211 0.970433
vn 0.999960 0.008959 0.000000
vn 0.999960 0.008959 0.000000
vn 0.999960 0.008959 0.000000
vn 0.999960 0.008959 0.000000
vn 0.242073 0.004214 -0.970249
vn 0.242073 0.004214 -0.970249
vn 0.242073 0.004214 -0.970249
vn 0.242073 0.004214 -0.970249
vn -0.999960 0.008959 0.000000
vn -0.999960 0.008959 0.000000
vn -0.999960 0.008959 0.000000
vn -0.999960 0.008959 0.000000
vn 0.132566 -0.732480 0.667757
vn 0.132566 -0.732480 0.667757
vn 0.132566 -0.732480 0.667757
vn 0.132566 -0.732480 0.667757
vn -0.442635 -0.896702 0.000000
vn -0.442635 -0.896702 0.000000
vn -0.442635 -0.896702 0.000000
vn -0.442635 -0.896702 0.000000
vn 0.132566 -0.732479 -0.667759
vn 0.132566 -0.732479 -0.667759
vn 0.132566 -0.732479 -0.667759
vn 0.132566 -0.732479 -0.667759
vn 0.441629 -0.897198 0.000000
vn 0.441629 -0.897198 0.000000
vn 0.441629 -0.897198 0.000000
vn 0.441629 -0.897198 0.000000
vn 0.205055 0.003637 0.978744
vn 0.205055 0.003637 0.978744
vn 0.205055 0.003637 0.978744
vn 0.205055 0.003637 0.978744
vn -0.999962 0.008718 0.000000
vn -0.999962 0.008718 0.000000
vn -0.999962 0.008718 0.000000
vn -0.999962 0.008718 0.000000
vn 0.205670 0.003639 -0.978615
vn 0.205670 0.003639 -0.978615
vn 0.205670 0.003639 -0.978615
vn 0.205670 0.003639 -0.978615
vn 0.999962 0.008718 0.000000
vn 0.999962 0.008718 0.000000
vn 0.999962 0.008718 0.000000
vn 0.999962 0.008718 0.000000
vn 0.000000 -1.000000 0.000000
vn 0.000000 -1.000000 0.000000
vn 0.000000 -1.000000 0.000000
vn 0.000000 -1.000000 0.000000
vn 0.000000 -1.000000 0.000000
vn 0.000000 -1.000000 0.000000
vn 0.000000 -1.000000 0.000000
vn 0.000000 -1.000000 0.000000
vn 0.000000 -1.000000 -0.000001
vn 0.000000 -1.000000 -0.000001
vn 0.000000 -1.000000 -0.000001
vn 0.000000 -1.000000 -0.000001
vn 0.000000 -1.000000 0.000000
vn 0.000000 -1.000000 0.000000
vn 0.000000 -1.000000 0.000000
vn 0.000000 -1.000000 0.000000
vn 0.000000 -1.000000 0.000001
vn 0.000000 -1.000000 0.000001
vn 0.000000 -1.000000 0.000001
vn 0.000000 -1.000000 0.000001
vn -0.172720 0.003513 0.984965
vn -0.172720 0.003513 0.984965
vn -0.172720 0.003513 0.984965
vn -0.172720 0.003513 0.984965
vn -0.111007 -0.722946 0.681929
vn -0.111007 -0.722946 0.681929
vn -0.111007 -0.722946 0.681929
vn -0.111007 -0.722946 0.681929
vn -0.177278 -0.001601 0.984159
vn -0.177278 -0.001601 0.984159
vn -0.177278 -0.001601 0.984159
vn -0.177278 -0.001601 0.984159
vn -0.186600 0.534671 0.824201
vn -0.186600 0.534671 0.824201
vn -0.186600 0.534671 0.824201
vn -0.186600 0.534671 0.824201
vn -0.222666 0.004142 0.974886
vn -0.222666 0.004142 0.974886
vn -0.222666 0.004142 0.974886
vn -0.222666 0.004142 0.974886
vn -0.174273 -0.616394 0.767911
vn -0.174273 -0.616394 0.767911
vn -0.174273 -0.616394 0.767911
vn -0.174273 -0.616394 0.767911
vn -0.219975 -0.000092 0.975506
vn -0.219975 -0.000092 0.975505
vn -0.219975 -0.000092 0.975506
vn -0.219975 -0.000092 0.975505
vn -0.184553 0.687585 0.702259
vn -0.184553 0.687585 0.702259
vn -0.184553 0.687585 0.702259
vn -0.184553 0.687585 0.702259
vn -0.280663 0.002429 0.959803
vn -0.280663 0.002429 0.959803
vn -0.280663 0.002429 0.959803
vn -0.280663 0.002429 0.959803
vn 0.000000 -1.000000 0.000000
vn 0.000000 -1.000000 0.000000
vn 0.000000 -1.000000 0.000000
vn 0.000000 -1.000000 0.000000
vn 0.000000 -1.000000 0.000000
vn 0.000000 -1.000000 0.000000
vn 0.000000 -1.000000 0.000000
vn 0.000000 -1.000000 0.000000
vn 0.000000 -1.000000 -0.000000
vn 0.000000 -1.000000 -0.000000
vn 0.000000 -1.000000 -0.000000
vn 0.000000 -1.000000 -0.000000
vn -0.280663 0.002429 -0.959803
vn -0.280663 0.002429 -0.959803
vn -0.280663 0.002429 -0.959803
vn -0.280663 0.002429 -0.959803
vn -0.184158 0.688190 -0.701769
vn -0.184158 0.688190 -0.701769
vn -0.184158 0.688190 -0.701769
vn -0.184158 0.688190 -0.701769
vn -0.219573 -0.000170 -0.975596
vn -0.219573 -0.000170 -0.975596
vn -0.219573 -0.000170 -0.975596
vn -0.219573 -0.000170 -0.975596
vn -0.174843 -0.614792 -0.769065
vn -0.174843 -0.614792 -0.769065
vn -0.174843 -0.614792 -0.769065
vn -0.174843 -0.614792 -0.769065
vn -0.223353 0.004144 -0.974729
vn -0.223353 0.004144 -0.974729
vn -0.223353 0.004144 -0.974729
vn -0.223353 0.004144 -0.974729
vn -0.187147 0.533052 -0.825125
vn -0.187147 0.533052 -0.825125
vn -0.187147 0.533052 -0.825125
vn -0.187147 0.533052 -0.825125
vn -0.176910 -0.001558 -0.984226
vn -0.176910 -0.001558 -0.984226
vn -0.176910 -0.001558 -0.984226
vn -0.176910 -0.001558 -0.984226
vn -0.111007 -0.722947 -0.681928
vn -0.111007 -0.722947 -0.681928
vn -0.111007 -0.722947 -0.681928
vn -0.111007 -0.722947 -0.681928
vn -0.173245 0.003515 -0.984873
vn -0.173245 0.003515 -0.984873
vn -0.173245 0.003515 -0.984873
vn -0.173245 0.003515 -0.984873
vn 0.779818 0.626006 0.000000
vn 0.779818 0.626006 0.000000
vn 0.779818 0.626006 0.000000
vn 0.779818 0.626006 0.000000
vn 0.189303 0.183860 0.964552
vn 0.189303 0.183860 0.964552
vn 0.189303 0.183860 0.964552
vn 0.189303 0.183860 0.964552
vn -0.182223 -0.055686 0.981679
vn -0.182223 -0.055686 0.981679
vn -0.182223 -0.055686 0.981679
vn -0.182223 -0.055686 0.981679
vn -0.903293 -0.429023 0.000000
vn -0.903293 -0.429023 0.000000
vn -0.903293 -0.429023 0.000000
vn -0.903293 -0.429023 0.000000
vn -0.182470 -0.056090 -0.981610
vn -0.182470 -0.056090 -0.981610
vn -0.182470 -0.056090 -0.981610
vn -0.182470 -0.056090 -0.981610
vn 0.189670 0.183940 -0.964464
vn 0.189670 0.183940 -0.964464
vn 0.189670 0.183940 -0.964464
vn 0.189670 0.183940 -0.964464
vn -0.246370 0.717331 0.651720
vn -0.246370 0.717331 0.651720
vn -0.246370 0.717331 0.651720
vn -0.246880 0.717823 -0.650985
vn -0.246880 0.717823 -0.650985
vn -0.246880 0.717823 -0.650985
s off
f 5/3/1 67/80/2 2/2/3
f 2/2/4 3/4/5 5/3/6
f 3/4/7 46/82/8 5/3/9
f 4/5/10 1/1/11 5/3/12
f 17/6/13 59/101/14 60/102/15 13/9/16
f 16/10/17 17/6/18 13/9/19 10/11/20
f 53/92/21 54/94/22 16/10/23 10/11/24
f 14/7/25 15/12/26 11/13/27 12/8/28
f 52/29/29 53/30/30 10/31/31 18/32/32
f 12/33/33 11/34/34 19/35/35 20/36/36
f 13/45/37 60/46/38 61/47/39 21/48/40
f 10/31/41 13/45/42 21/48/43 18/32/44
f 7/14/45 9/15/46 15/12/47 14/7/48
f 54/94/49 55/95/50 8/16/51 16/10/52
f 8/16/53 6/17/54 17/6/55 16/10/56
f 6/17/57 58/100/58 59/101/59 17/6/60
f 51/89/61 52/91/62 18/19/63 23/20/64
f 20/22/65 19/18/66 24/21/67 25/23/68
f 21/24/69 61/103/70 62/93/71 22/25/72
f 18/19/73 21/24/74 22/25/75 23/20/76
f 31/26/77 32/27/78 26/28/79 27/37/80
f 49/86/81 50/88/82 31/26/83 27/37/84
f 33/40/85 30/38/86 28/39/87 29/41/88
f 32/27/89 63/90/90 64/87/91 26/28/92
f 27/49/93 26/50/94 37/51/95 34/52/96
f 48/61/97 49/62/98 27/49/99 34/52/100
f 29/63/101 28/64/102 35/65/103 36/66/104
f 26/50/105 64/67/106 65/68/107 37/51/108
f 50/88/109 51/89/110 23/20/111 31/26/112
f 23/20/113 22/25/114 32/27/115 31/26/116
f 22/25/117 62/93/118 63/90/119 32/27/120
f 25/23/121 24/21/122 30/38/123 33/40/124
f 47/83/125 48/85/126 34/43/127 38/44/128
f 36/54/129 35/42/130 39/53/131 40/55/132
f 37/56/133 65/84/134 66/81/135 41/57/136
f 34/43/137 37/56/138 41/57/139 38/44/140
f 69/78/141 70/77/142 47/83/143 38/44/144
f 40/55/145 39/53/146 71/76/147 72/75/148
f 41/57/149 66/81/150 73/74/151 68/79/152
f 38/44/153 41/57/154 68/79/155 69/78/156
f 42/73/157 43/72/158 56/96/159 57/98/160
f 6/17/161 8/16/162 43/58/163 42/59/164
f 8/16/165 55/95/166 56/97/167 43/58/168
f 9/15/169 7/14/170 45/69/171 44/60/172
f 57/99/173 58/100/174 6/17/175 42/59/176
f 39/53/177 47/83/178 70/77/179 71/76/180
f 35/42/181 48/85/182 47/83/183 39/53/184
f 28/64/185 49/62/186 48/61/187 35/65/188
f 30/38/189 50/88/190 49/86/191 28/39/192
f 24/21/193 51/89/194 50/88/195 30/38/196
f 19/18/197 52/91/198 51/89/199 24/21/200
f 11/34/201 53/30/202 52/29/203 19/35/204
f 15/12/205 54/94/206 53/92/207 11/13/208
f 9/15/209 55/95/210 54/94/211 15/12/212
f 56/97/213 55/95/214 9/15/215 44/60/216
f 57/98/217 56/96/218 44/71/219 45/70/220
f 7/14/221 58/100/222 57/99/223 45/69/224
f 59/101/225 58/100/226 7/14/227 14/7/228
f 60/102/229 59/101/230 14/7/231 12/8/232
f 61/47/233 60/46/234 12/33/235 20/36/236
f 62/93/237 61/103/238 20/22/239 25/23/240
f 63/90/241 62/93/242 25/23/243 33/40/244
f 64/87/245 63/90/246 33/40/247 29/41/248
f 65/68/249 64/67/250 29/63/251 36/66/252
f 66/81/253 65/84/254 36/54/255 40/55/256
f 72/75/257 73/74/258 66/81/259 40/55/260
f 69/78/261 68/79/262 1/1/263 4/5/264
f 46/82/265 70/77/266 69/78/267 4/5/268
f 71/76/269 70/77/270 46/82/271 3/4/272
f 72/75/273 71/76/274 3/4/275 2/2/276
f 67/80/277 73/74/278 72/75/279 2/2/280
f 68/79/281 73/74/282 67/80/283 1/1/284
f 5/3/285 46/82/286 4/5/287
f 1/1/288 67/80/289 5/3/290
