# This file uses centimeters as units for non-parametric coordinates.

v -5.467864 2.449551 -1.972818
v -5.224624 2.414990 -1.912804
v -7.272426 1.302885 4.680829
v -7.029186 1.268325 4.740843
v -7.249369 1.549959 4.729662
v -7.006129 1.515398 4.789676
v -5.444807 2.696625 -1.923985
v -5.201567 2.662064 -1.863971
vt 0.375000 0.000000
vt 0.625000 0.000000
vt 0.375000 0.250000
vt 0.625000 0.250000
vt 0.375000 0.500000
vt 0.625000 0.500000
vt 0.375000 0.750000
vt 0.625000 0.750000
vt 0.375000 1.000000
vt 0.625000 1.000000
vt 0.875000 0.000000
vt 0.875000 0.250000
vt 0.125000 0.000000
vt 0.125000 0.250000
vn -0.091168 -0.976937 -0.193088
vn -0.091168 -0.976937 -0.193088
vn -0.091168 -0.976937 -0.193088
vn -0.091168 -0.976937 -0.193088
vn -0.091168 -0.976937 -0.193088
vn -0.091168 -0.976937 -0.193088
vn -0.258210 -0.164073 0.952054
vn -0.258210 -0.164073 0.952054
vn -0.258210 -0.164073 0.952054
vn -0.258210 -0.164073 0.952054
vn -0.258210 -0.164073 0.952054
vn -0.258210 -0.164073 0.952054
vn 0.091168 0.976937 0.193087
vn 0.091168 0.976937 0.193087
vn 0.091167 0.976937 0.193087
vn 0.091167 0.976937 0.193087
vn 0.091168 0.976937 0.193087
vn 0.091167 0.976937 0.193087
vn 0.258208 0.164075 -0.952055
vn 0.258210 0.164075 -0.952054
vn 0.258210 0.164075 -0.952054
vn 0.258210 0.164075 -0.952054
vn 0.258210 0.164075 -0.952054
vn 0.258211 0.164074 -0.952054
vn 0.961778 -0.136652 0.237297
vn 0.961778 -0.136652 0.237297
vn 0.961777 -0.136659 0.237297
vn 0.961777 -0.136659 0.237297
vn 0.961778 -0.136652 0.237297
vn 0.961777 -0.136660 0.237297
vn -0.961778 0.136652 -0.237297
vn -0.961778 0.136652 -0.237297
vn -0.961777 0.136654 -0.237297
vn -0.961777 0.136654 -0.237297
vn -0.961778 0.136652 -0.237297
vn -0.961777 0.136654 -0.237297
s off
f 1/1/1 2/2/2 3/3/3
f 3/3/4 2/2/5 4/4/6
f 3/3/7 4/4/8 5/5/9
f 5/5/10 4/4/11 6/6/12
f 5/5/13 6/6/14 7/7/15
f 7/7/16 6/6/17 8/8/18
f 7/7/19 8/8/20 1/9/21
f 1/9/22 8/8/23 2/10/24
f 2/2/25 8/11/26 4/4/27
f 4/4/28 8/11/29 6/12/30
f 7/13/31 1/1/32 5/14/33
f 5/14/34 1/1/35 3/3/36
