# This file uses centimeters as units for non-parametric coordinates.

v 3.612440 1.863470 2.381972
v 2.942643 2.436211 -7.449008
v 3.373933 3.264351 2.551452
v 2.444443 4.573311 -7.216189
v 3.979274 3.410251 2.507546
v 3.049784 4.719211 -7.260094
v 4.217781 2.009370 2.338066
v 3.547983 2.582112 -7.492913
vt 0.377110 0.008439
vt 0.377110 0.254219
vt 0.622890 0.254219
vt 0.622890 0.008439
vt 0.377110 0.500000
vt 0.622890 0.500000
vt 0.377110 0.745781
vt 0.622890 0.745781
vt 0.377110 0.991561
vt 0.622890 0.991561
vt 0.868671 0.254219
vt 0.868671 0.008439
vt 0.131329 0.008439
vt 0.131329 0.254219
vn -0.983061 -0.174246 0.056826
vn -0.980859 -0.185973 0.057702
vn -0.971449 -0.229302 0.060884
vn -0.971449 -0.229302 0.060884
vn -0.980859 -0.185973 0.057702
vn -0.970572 -0.232921 0.061146
vn -0.221345 0.963561 0.150190
vn -0.221345 0.963561 0.150190
vn -0.221345 0.963561 0.150190
vn -0.221345 0.963561 0.150190
vn -0.221345 0.963561 0.150190
vn -0.221345 0.963561 0.150190
vn 0.981969 0.175642 -0.069906
vn 0.980151 0.186751 -0.066549
vn 0.972032 0.228618 -0.053741
vn 0.972032 0.228618 -0.053741
vn 0.980151 0.186751 -0.066549
vn 0.971253 0.232154 -0.052648
vn 0.228753 -0.970808 -0.072144
vn 0.228753 -0.970808 -0.072143
vn 0.228753 -0.970807 -0.072144
vn 0.228753 -0.970807 -0.072144
vn 0.228753 -0.970808 -0.072143
vn 0.228753 -0.970808 -0.072143
vn -0.092777 0.086434 -0.991928
vn -0.092778 0.086434 -0.991928
vn -0.092777 0.086434 -0.991928
vn -0.092777 0.086434 -0.991928
vn -0.092778 0.086434 -0.991928
vn -0.092778 0.086434 -0.991928
vn 0.096699 -0.103300 0.989939
vn 0.096699 -0.103300 0.989939
vn 0.096699 -0.103300 0.989939
vn 0.096699 -0.103300 0.989939
vn 0.096699 -0.103300 0.989939
vn 0.096700 -0.103300 0.989939
s off
f 1/1/1 3/2/2 2/4/3
f 2/4/4 3/2/5 4/3/6
f 3/2/7 5/5/8 4/3/9
f 4/3/10 5/5/11 6/6/12
f 5/5/13 7/7/14 6/6/15
f 6/6/16 7/7/17 8/8/18
f 1/9/19 2/10/20 7/7/21
f 7/7/22 2/10/23 8/8/24
f 2/4/25 4/3/26 8/12/27
f 8/12/28 4/3/29 6/11/30
f 5/14/31 3/2/32 7/13/33
f 7/13/34 3/2/35 1/1/36
