# This file uses centimeters as units for non-parametric coordinates.

v 1.829470 2.318529 3.137052
v 1.524571 2.326408 3.088236
v 1.864476 3.394957 3.076695
v 1.559577 3.402836 3.027880
v 2.058928 4.215877 1.994655
v 1.754030 4.223756 1.945840
v 2.135260 3.394660 1.385333
v 1.830362 3.402540 1.336518
vt 0.377110 0.008439
vt 0.377110 0.254219
vt 0.622890 0.254219
vt 0.622890 0.008439
vt 0.377110 0.500000
vt 0.622890 0.500000
vt 0.377110 0.745781
vt 0.622890 0.745781
vt 0.377110 0.991561
vt 0.622890 0.991561
vt 0.868671 0.254219
vt 0.868671 0.008439
vt 0.131329 0.008439
vt 0.131329 0.254219
vn -0.156280 0.060361 0.985867
vn -0.156281 0.060361 0.985867
vn -0.156280 0.060361 0.985867
vn -0.156280 0.060361 0.985867
vn -0.156281 0.060361 0.985867
vn -0.156281 0.060361 0.985867
vn -0.074440 0.800855 0.594214
vn -0.074439 0.800855 0.594214
vn -0.074440 0.800855 0.594213
vn -0.074440 0.800855 0.594213
vn -0.074439 0.800855 0.594214
vn -0.074439 0.800855 0.594214
vn 0.141723 0.598315 -0.788628
vn 0.141724 0.598315 -0.788628
vn 0.141724 0.598315 -0.788628
vn 0.141724 0.598315 -0.788628
vn 0.141724 0.598315 -0.788628
vn 0.141724 0.598315 -0.788628
vn 0.060326 -0.855170 -0.514826
vn 0.060325 -0.855170 -0.514825
vn 0.060326 -0.855170 -0.514825
vn 0.060326 -0.855170 -0.514825
vn 0.060325 -0.855170 -0.514825
vn 0.060325 -0.855170 -0.514825
vn -0.987158 0.023241 -0.158047
vn -0.987146 0.023765 -0.158045
vn -0.987128 0.024524 -0.158042
vn -0.987128 0.024524 -0.158042
vn -0.987146 0.023765 -0.158045
vn -0.987103 0.025509 -0.158038
vn 0.987103 -0.025509 0.158038
vn 0.987146 -0.023765 0.158045
vn 0.987128 -0.024523 0.158042
vn 0.987128 -0.024523 0.158042
vn 0.987146 -0.023765 0.158045
vn 0.987158 -0.023241 0.158047
s off
f 1/1/1 3/2/2 2/4/3
f 2/4/4 3/2/5 4/3/6
f 3/2/7 5/5/8 4/3/9
f 4/3/10 5/5/11 6/6/12
f 5/5/13 7/7/14 6/6/15
f 6/6/16 7/7/17 8/8/18
f 7/7/19 1/9/20 8/8/21
f 8/8/22 1/9/23 2/10/24
f 2/4/25 4/3/26 8/12/27
f 8/12/28 4/3/29 6/11/30
f 5/14/31 3/2/32 7/13/33
f 7/13/34 3/2/35 1/1/36
