# This file uses centimeters as units for non-parametric coordinates.

v -0.363013 0.651729 8.372042
v 0.363013 0.651729 8.372042
v -0.363013 2.963973 9.072140
v 0.363013 2.963973 9.072140
v -0.363013 3.146543 8.469156
v 0.363013 3.146543 8.469156
v -0.363013 0.834299 7.769060
v 0.363013 0.834299 7.769060
vt 0.377110 0.008439
vt 0.622890 0.008439
vt 0.622890 0.254219
vt 0.377110 0.254219
vt 0.622890 0.500000
vt 0.377110 0.500000
vt 0.622890 0.745781
vt 0.377110 0.745781
vt 0.622890 0.991561
vt 0.377110 0.991561
vt 0.868671 0.008439
vt 0.868671 0.254219
vt 0.131329 0.008439
vt 0.131329 0.254219
vn 0.000000 -0.289787 0.957091
vn 0.000000 -0.289787 0.957091
vn 0.000000 -0.289787 0.957091
vn 0.000000 -0.289787 0.957091
vn 0.000000 -0.289787 0.957091
vn 0.000000 -0.289787 0.957091
vn 0.000000 0.957091 0.289786
vn 0.000000 0.957091 0.289786
vn 0.000000 0.957091 0.289786
vn 0.000000 0.957091 0.289786
vn 0.000000 0.957091 0.289786
vn 0.000000 0.957091 0.289786
vn 0.000000 0.289786 -0.957091
vn 0.000000 0.289786 -0.957091
vn 0.000000 0.289786 -0.957091
vn 0.000000 0.289786 -0.957091
vn 0.000000 0.289786 -0.957091
vn 0.000000 0.289786 -0.957091
vn 0.000000 -0.957091 -0.289787
vn 0.000000 -0.957091 -0.289787
vn 0.000000 -0.957091 -0.289787
vn 0.000000 -0.957091 -0.289787
vn 0.000000 -0.957091 -0.289787
vn 0.000000 -0.957091 -0.289787
vn 1.000000 -0.000000 0.000000
vn 1.000000 -0.000000 0.000000
vn 1.000000 -0.000000 0.000000
vn 1.000000 -0.000000 0.000000
vn 1.000000 -0.000000 0.000000
vn 1.000000 0.000000 0.000000
vn -1.000000 0.000000 0.000000
vn -1.000000 0.000000 0.000000
vn -1.000000 0.000000 0.000000
vn -1.000000 0.000000 0.000000
vn -1.000000 0.000000 0.000000
vn -1.000000 0.000000 0.000000
s off
f 1/1/1 2/2/2 3/4/3
f 3/4/4 2/2/5 4/3/6
f 3/4/7 4/3/8 5/6/9
f 5/6/10 4/3/11 6/5/12
f 5/6/13 6/5/14 7/8/15
f 7/8/16 6/5/17 8/7/18
f 7/8/19 8/7/20 1/10/21
f 1/10/22 8/7/23 2/9/24
f 2/2/25 8/11/26 4/3/27
f 4/3/28 8/11/29 6/12/30
f 7/13/31 1/1/32 5/14/33
f 5/14/34 1/1/35 3/4/36
