# This file uses centimeters as units for non-parametric coordinates.

v 1.699728 10.261833 2.794041
v 1.940067 10.200727 2.852913
v 1.784523 10.428257 2.620617
v 2.024861 10.367149 2.679489
v 1.605737 0.597413 -6.995458
v 1.907827 0.520605 -6.921460
v 1.499156 0.388231 -6.777473
v 1.801246 0.311422 -6.703476
vt 0.377110 0.008439
vt 0.622890 0.008439
vt 0.622890 0.254219
vt 0.377110 0.254219
vt 0.622890 0.500000
vt 0.377110 0.500000
vt 0.622890 0.745781
vt 0.377110 0.745781
vt 0.622890 0.991561
vt 0.377110 0.991561
vt 0.868671 0.008439
vt 0.868671 0.254219
vt 0.131329 0.008439
vt 0.131329 0.254219
vn 0.012309 0.718450 0.695470
vn 0.012311 0.718449 0.695471
vn 0.012311 0.718449 0.695471
vn 0.012311 0.718449 0.695471
vn 0.012311 0.718449 0.695471
vn 0.012312 0.718448 0.695472
vn 0.332743 0.656311 -0.677154
vn 0.332743 0.656311 -0.677154
vn 0.332741 0.656311 -0.677156
vn 0.332741 0.656311 -0.677156
vn 0.332743 0.656311 -0.677154
vn 0.332741 0.656311 -0.677155
vn -0.012314 -0.718454 -0.695465
vn -0.012315 -0.718454 -0.695466
vn -0.012315 -0.718454 -0.695466
vn -0.012315 -0.718454 -0.695466
vn -0.012315 -0.718454 -0.695466
vn -0.012317 -0.718453 -0.695466
vn -0.332687 -0.652896 0.680475
vn -0.332687 -0.652896 0.680475
vn -0.332687 -0.652897 0.680475
vn -0.332687 -0.652897 0.680475
vn -0.332687 -0.652896 0.680475
vn -0.332687 -0.652897 0.680475
vn 0.942983 -0.238042 0.232635
vn 0.942983 -0.238041 0.232635
vn 0.942983 -0.238042 0.232635
vn 0.942983 -0.238042 0.232635
vn 0.942983 -0.238041 0.232635
vn 0.942983 -0.238041 0.232635
vn -0.942925 0.241462 -0.229324
vn -0.942925 0.241460 -0.229323
vn -0.942925 0.241462 -0.229324
vn -0.942925 0.241462 -0.229324
vn -0.942925 0.241460 -0.229323
vn -0.942925 0.241460 -0.229324
s off
f 1/1/1 2/2/2 3/4/3
f 3/4/4 2/2/5 4/3/6
f 3/4/7 4/3/8 5/6/9
f 5/6/10 4/3/11 6/5/12
f 5/6/13 6/5/14 7/8/15
f 7/8/16 6/5/17 8/7/18
f 7/8/19 8/7/20 1/10/21
f 1/10/22 8/7/23 2/9/24
f 2/2/25 8/11/26 4/3/27
f 4/3/28 8/11/29 6/12/30
f 7/13/31 1/1/32 5/14/33
f 5/14/34 1/1/35 3/4/36
