# This file uses centimeters as units for non-parametric coordinates.

v -0.515083 9.132787 -6.240148
v 0.515083 9.132787 -6.240148
v -0.515083 10.231975 -6.240148
v 0.515083 10.231975 -6.240148
v -0.515083 10.231975 -6.355425
v 0.515083 10.231975 -6.355425
v -0.515083 9.132787 -6.355425
v 0.515083 9.132787 -6.355425
v -0.049183 10.437690 -6.355425
v -0.049183 8.927072 -6.355425
v -0.049183 8.927072 -6.240148
v -0.049183 10.437690 -6.240148
v -0.707881 9.660801 -6.355425
v -0.707881 9.660801 -6.240148
v -0.049183 9.660801 -6.240148
v 0.707881 9.660801 -6.240148
v 0.707881 9.660801 -6.355425
v -0.049183 9.660801 -6.355425
vt 0.377110 0.008439
vt 0.622890 0.008439
vt 0.622890 0.254219
vt 0.377110 0.254219
vt 0.622890 0.500000
vt 0.377110 0.500000
vt 0.622890 0.745781
vt 0.377110 0.745781
vt 0.622890 0.991561
vt 0.377110 0.991561
vt 0.868671 0.008439
vt 0.868671 0.254219
vt 0.131329 0.008439
vt 0.131329 0.254219
vt 0.491462 0.500000
vt 0.491462 0.745781
vt 0.491462 0.008439
vt 0.491462 0.991561
vt 0.491462 0.254219
vt 0.131329 0.127818
vt 0.377110 0.626401
vt 0.377110 0.127818
vt 0.491462 0.127818
vt 0.622890 0.127818
vt 0.622890 0.626401
vt 0.868671 0.127818
vt 0.491462 0.626401
vn 0.000000 0.000000 1.000000
vn 0.000000 0.000000 1.000000
vn -0.000001 0.000000 1.000000
vn -0.000001 0.000000 1.000000
vn 0.000000 0.000000 1.000000
vn 0.000000 0.000000 1.000000
vn -0.403921 0.914794 0.000000
vn 0.000000 1.000000 0.000000
vn -0.403921 0.914794 0.000000
vn -0.403921 0.914794 0.000000
vn 0.000000 1.000000 0.000000
vn 0.000000 1.000000 0.000000
vn -0.000001 0.000000 -1.000000
vn -0.000000 0.000000 -1.000000
vn 0.000001 0.000000 -1.000000
vn 0.000001 0.000000 -1.000000
vn -0.000000 0.000000 -1.000000
vn 0.000000 0.000000 -1.000000
vn -0.403921 -0.914794 0.000000
vn 0.000000 -1.000000 0.000000
vn -0.403921 -0.914794 0.000000
vn -0.403921 -0.914794 0.000000
vn 0.000000 -1.000000 0.000000
vn 0.000000 -1.000000 0.000000
vn 1.000000 0.000000 0.000000
vn 1.000000 -0.000000 0.000000
vn 0.947479 0.319818 0.000000
vn 0.947479 0.319818 0.000000
vn 1.000000 -0.000000 0.000000
vn 0.947479 0.319817 0.000000
vn -1.000000 0.000000 0.000000
vn -1.000000 0.000000 0.000000
vn -0.947479 0.319819 0.000000
vn -0.947479 0.319819 0.000000
vn -1.000000 0.000000 0.000000
vn -0.947479 0.319819 0.000000
vn -0.000001 0.000000 -1.000000
vn -0.000001 0.000000 -1.000000
vn -0.000000 0.000000 -1.000000
vn -0.000000 0.000000 -1.000000
vn -0.000001 0.000000 -1.000000
vn 0.000000 0.000000 -1.000000
vn 0.000000 -1.000000 0.000000
vn 0.000000 -1.000000 0.000000
vn 0.342519 -0.939511 0.000000
vn 0.342519 -0.939511 0.000000
vn 0.000000 -1.000000 0.000000
vn 0.342519 -0.939511 0.000000
vn 0.000000 0.000000 1.000000
vn 0.000000 0.000000 1.000000
vn 0.000001 0.000000 1.000000
vn 0.000001 0.000000 1.000000
vn 0.000000 0.000000 1.000000
vn 0.000000 0.000000 1.000000
vn 0.000000 1.000000 0.000000
vn 0.000000 1.000000 0.000000
vn 0.342519 0.939511 0.000000
vn 0.342519 0.939511 0.000000
vn 0.000000 1.000000 0.000000
vn 0.342519 0.939511 0.000000
vn -0.939339 -0.342989 0.000000
vn -0.939339 -0.342989 0.000000
vn -1.000000 0.000000 0.000000
vn -1.000000 0.000000 0.000000
vn -0.939339 -0.342989 0.000000
vn -1.000000 0.000000 0.000000
vn 0.000000 0.000000 1.000000
vn 0.000000 0.000000 1.000000
vn 0.000000 0.000000 1.000000
vn 0.000000 0.000000 1.000000
vn 0.000000 0.000000 1.000000
vn 0.000000 0.000000 1.000000
vn 0.000000 0.000000 1.000000
vn 0.000000 0.000000 1.000000
vn 0.000000 0.000000 1.000000
vn 0.000000 0.000000 1.000000
vn 0.000000 0.000000 1.000000
vn 0.000000 0.000000 1.000000
vn 0.939340 -0.342987 0.000000
vn 0.939340 -0.342987 0.000000
vn 1.000000 0.000000 0.000000
vn 1.000000 0.000000 0.000000
vn 0.939340 -0.342987 0.000000
vn 1.000000 -0.000000 0.000000
vn 0.000000 0.000000 -1.000000
vn 0.000000 0.000000 -1.000000
vn -0.000000 0.000000 -1.000000
vn -0.000000 0.000000 -1.000000
vn 0.000000 0.000000 -1.000000
vn 0.000000 0.000000 -1.000000
vn 0.000000 0.000000 -1.000000
vn -0.000000 0.000000 -1.000000
vn 0.000000 0.000000 -1.000000
vn 0.000000 0.000000 -1.000000
vn -0.000000 0.000000 -1.000000
vn 0.000000 0.000000 -1.000000
s off
f 14/22/1 15/23/2 3/4/3
f 3/4/4 15/23/5 12/19/6
f 3/4/7 12/19/8 5/6/9
f 5/6/10 12/19/11 9/15/12
f 9/15/13 18/27/14 5/6/15
f 5/6/16 18/27/17 13/21/18
f 7/8/19 10/16/20 1/10/21
f 1/10/22 10/16/23 11/18/24
f 16/24/25 17/26/26 4/3/27
f 4/3/28 17/26/29 6/12/30
f 13/20/31 14/22/32 5/14/33
f 5/14/34 14/22/35 3/4/36
f 9/15/37 6/5/38 18/27/39
f 18/27/40 6/5/41 17/25/42
f 11/18/43 10/16/44 2/9/45
f 2/9/46 10/16/47 8/7/48
f 12/19/49 15/23/50 4/3/51
f 4/3/52 15/23/53 16/24/54
f 9/15/55 12/19/56 6/5/57
f 6/5/58 12/19/59 4/3/60
f 7/13/61 1/1/62 13/20/63
f 13/20/64 1/1/65 14/22/66
f 11/17/67 15/23/68 1/1/69
f 1/1/70 15/23/71 14/22/72
f 16/24/73 15/23/74 2/2/75
f 2/2/76 15/23/77 11/17/78
f 2/2/79 8/11/80 16/24/81
f 16/24/82 8/11/83 17/26/84
f 17/25/85 8/7/86 18/27/87
f 18/27/88 8/7/89 10/16/90
f 13/21/91 18/27/92 7/8/93
f 7/8/94 18/27/95 10/16/96
