# This file uses centimeters as units for non-parametric coordinates.

v 4.200615 17.526146 -2.326732
v 4.200615 17.784369 -2.326732
v -3.544371 17.526146 -2.241408
v -3.544371 17.784369 -2.241408
v -3.547216 17.526146 -2.499615
v -3.547216 17.784369 -2.499615
v 4.197770 17.526146 -2.584939
v 4.197770 17.784369 -2.584939
vt 0.375000 0.000000
vt 0.625000 0.000000
vt 0.375000 0.250000
vt 0.625000 0.250000
vt 0.375000 0.500000
vt 0.625000 0.500000
vt 0.375000 0.750000
vt 0.625000 0.750000
vt 0.375000 1.000000
vt 0.625000 1.000000
vt 0.875000 0.000000
vt 0.875000 0.250000
vt 0.125000 0.000000
vt 0.125000 0.250000
vn 0.011016 0.000000 0.999939
vn 0.011016 0.000000 0.999939
vn 0.011016 0.000000 0.999939
vn 0.011016 0.000000 0.999939
vn 0.011016 0.000000 0.999939
vn 0.011016 0.000000 0.999939
vn -0.999939 0.000000 0.011016
vn -0.999939 0.000000 0.011015
vn -0.999939 0.000000 0.011015
vn -0.999939 0.000000 0.011015
vn -0.999939 0.000000 0.011015
vn -0.999939 0.000000 0.011015
vn -0.011016 0.000000 -0.999939
vn -0.011016 0.000000 -0.999939
vn -0.011016 0.000000 -0.999939
vn -0.011016 0.000000 -0.999939
vn -0.011016 0.000000 -0.999939
vn -0.011016 0.000000 -0.999939
vn 0.999939 0.000000 -0.011017
vn 0.999939 0.000000 -0.011016
vn 0.999939 0.000000 -0.011016
vn 0.999939 0.000000 -0.011016
vn 0.999939 0.000000 -0.011016
vn 0.999939 0.000000 -0.011016
vn 0.000000 1.000000 0.000000
vn 0.000000 1.000000 -0.000000
vn 0.000000 1.000000 -0.000008
vn 0.000000 1.000000 -0.000008
vn 0.000000 1.000000 -0.000000
vn 0.000000 1.000000 -0.000008
vn 0.000000 -1.000000 0.000000
vn 0.000000 -1.000000 0.000000
vn 0.000000 -1.000000 0.000011
vn 0.000000 -1.000000 0.000011
vn 0.000000 -1.000000 0.000000
vn 0.000000 -1.000000 0.000011
s off
f 1/1/1 2/2/2 3/3/3
f 3/3/4 2/2/5 4/4/6
f 3/3/7 4/4/8 5/5/9
f 5/5/10 4/4/11 6/6/12
f 5/5/13 6/6/14 7/7/15
f 7/7/16 6/6/17 8/8/18
f 7/7/19 8/8/20 1/9/21
f 1/9/22 8/8/23 2/10/24
f 2/2/25 8/11/26 4/4/27
f 4/4/28 8/11/29 6/12/30
f 7/13/31 1/1/32 5/14/33
f 5/14/34 1/1/35 3/3/36
