# This file uses centimeters as units for non-parametric coordinates.

v -0.492498 2.442166 8.279682
v 0.139621 2.331958 8.211275
v -0.459865 3.024752 7.642655
v 0.172254 2.914544 7.574246
v -0.839796 1.642396 6.358976
v -0.207677 1.532188 6.290568
v -0.872428 1.059811 6.996005
v -0.240309 0.949603 6.927596
vt 0.377110 0.008439
vt 0.622890 0.008439
vt 0.622890 0.254219
vt 0.377110 0.254219
vt 0.622890 0.500000
vt 0.377110 0.500000
vt 0.622890 0.745781
vt 0.377110 0.745781
vt 0.622890 0.991561
vt 0.377110 0.991561
vt 0.868671 0.008439
vt 0.868671 0.254219
vt 0.131329 0.008439
vt 0.131329 0.254219
vn 0.197433 0.718353 0.667075
vn 0.197434 0.718353 0.667075
vn 0.197434 0.718354 0.667074
vn 0.197434 0.718354 0.667074
vn 0.197434 0.718353 0.667075
vn 0.197435 0.718354 0.667074
vn 0.037773 0.674389 -0.737410
vn 0.037774 0.674389 -0.737410
vn 0.037775 0.674389 -0.737410
vn 0.037775 0.674389 -0.737410
vn 0.037774 0.674389 -0.737410
vn 0.037775 0.674389 -0.737410
vn -0.197435 -0.718354 -0.667074
vn -0.197434 -0.718353 -0.667074
vn -0.197434 -0.718353 -0.667075
vn -0.197434 -0.718353 -0.667075
vn -0.197434 -0.718353 -0.667074
vn -0.197434 -0.718353 -0.667075
vn -0.037773 -0.674389 0.737410
vn -0.037774 -0.674389 0.737410
vn -0.037776 -0.674389 0.737410
vn -0.037776 -0.674389 0.737410
vn -0.037774 -0.674389 0.737410
vn -0.037776 -0.674389 0.737410
vn 0.979588 -0.170789 -0.106011
vn 0.979588 -0.170788 -0.106012
vn 0.979588 -0.170789 -0.106012
vn 0.979588 -0.170789 -0.106012
vn 0.979588 -0.170788 -0.106012
vn 0.979588 -0.170788 -0.106012
vn -0.979588 0.170789 0.106012
vn -0.979588 0.170789 0.106012
vn -0.979588 0.170789 0.106012
vn -0.979588 0.170789 0.106012
vn -0.979588 0.170789 0.106012
vn -0.979588 0.170789 0.106012
s off
f 1/1/1 2/2/2 3/4/3
f 3/4/4 2/2/5 4/3/6
f 3/4/7 4/3/8 5/6/9
f 5/6/10 4/3/11 6/5/12
f 5/6/13 6/5/14 7/8/15
f 7/8/16 6/5/17 8/7/18
f 7/8/19 8/7/20 1/10/21
f 1/10/22 8/7/23 2/9/24
f 2/2/25 8/11/26 4/3/27
f 4/3/28 8/11/29 6/12/30
f 7/13/31 1/1/32 5/14/33
f 5/14/34 1/1/35 3/4/36
