# This file uses centimeters as units for non-parametric coordinates.

v 2.860796 1.264682 1.527052
v 2.383549 1.264682 1.437526
v 2.860796 3.860791 1.527052
v 2.383549 3.860791 1.437526
v 3.390009 3.531147 -1.294083
v 2.912762 3.531147 -1.383609
v 3.390009 1.264682 -1.294083
v 2.912762 1.264682 -1.383609
vt 0.377110 0.008439
vt 0.377110 0.254219
vt 0.622890 0.254219
vt 0.622890 0.008439
vt 0.377110 0.500000
vt 0.622890 0.500000
vt 0.377110 0.745781
vt 0.622890 0.745781
vt 0.377110 0.991561
vt 0.622890 0.991561
vt 0.868671 0.254219
vt 0.868671 0.008439
vt 0.131329 0.008439
vt 0.131329 0.254219
vn -0.184373 0.000000 0.982856
vn -0.184373 0.000000 0.982856
vn -0.184373 0.000000 0.982856
vn -0.184373 0.000000 0.982856
vn -0.184373 0.000000 0.982856
vn -0.184373 0.000000 0.982856
vn 0.021036 0.993470 -0.112139
vn 0.021036 0.993470 -0.112139
vn 0.021036 0.993470 -0.112139
vn 0.021036 0.993470 -0.112139
vn 0.021036 0.993470 -0.112139
vn 0.021036 0.993470 -0.112139
vn 0.184372 0.000000 -0.982857
vn 0.184372 0.000000 -0.982857
vn 0.184372 0.000000 -0.982857
vn 0.184372 0.000000 -0.982857
vn 0.184372 0.000000 -0.982857
vn 0.184372 0.000000 -0.982857
vn 0.000000 -1.000000 0.000000
vn 0.000000 -1.000000 -0.000000
vn 0.000000 -1.000000 0.000000
vn 0.000000 -1.000000 0.000000
vn 0.000000 -1.000000 -0.000000
vn 0.000000 -1.000000 -0.000000
vn -0.982856 0.000000 -0.184372
vn -0.982856 0.000000 -0.184372
vn -0.982856 0.000000 -0.184372
vn -0.982856 0.000000 -0.184372
vn -0.982856 0.000000 -0.184372
vn -0.982856 0.000000 -0.184372
vn 0.982856 0.000000 0.184372
vn 0.982856 0.000000 0.184372
vn 0.982856 0.000000 0.184372
vn 0.982856 0.000000 0.184372
vn 0.982856 0.000000 0.184372
vn 0.982857 0.000000 0.184372
s off
f 1/1/1 3/2/2 2/4/3
f 2/4/4 3/2/5 4/3/6
f 3/2/7 5/5/8 4/3/9
f 4/3/10 5/5/11 6/6/12
f 5/5/13 7/7/14 6/6/15
f 6/6/16 7/7/17 8/8/18
f 7/7/19 1/9/20 8/8/21
f 8/8/22 1/9/23 2/10/24
f 4/3/25 6/11/26 2/4/27
f 2/4/28 6/11/29 8/12/30
f 7/13/31 5/14/32 1/1/33
f 1/1/34 5/14/35 3/2/36
