# This file uses centimeters as units for non-parametric coordinates.

v 1.034127 1.084389 -3.195950
v -1.110306 1.084389 -3.195950
v 1.034127 1.376131 -3.292467
v -1.110306 1.376131 -3.292467
v 1.034127 2.825199 -1.634070
v -1.110306 2.825199 -1.634070
v 1.034127 2.764259 -1.212914
v -1.110306 2.764259 -1.212914
vt 0.377110 0.008439
vt 0.622890 0.008439
vt 0.622890 0.254219
vt 0.377110 0.254219
vt 0.622890 0.500000
vt 0.377110 0.500000
vt 0.622890 0.745781
vt 0.377110 0.745781
vt 0.622890 0.991561
vt 0.377110 0.991561
vt 0.868671 0.008439
vt 0.868671 0.254219
vt 0.131329 0.008439
vt 0.131329 0.254219
vn 0.000000 -0.314089 -0.949394
vn 0.000000 -0.314089 -0.949394
vn 0.000000 -0.314089 -0.949394
vn 0.000000 -0.314089 -0.949394
vn 0.000000 -0.314089 -0.949394
vn 0.000000 -0.314089 -0.949394
vn 0.000000 0.753033 -0.657983
vn 0.000000 0.753033 -0.657983
vn 0.000000 0.753033 -0.657983
vn 0.000000 0.753033 -0.657983
vn 0.000000 0.753033 -0.657983
vn 0.000000 0.753033 -0.657983
vn 0.000000 0.989693 0.143206
vn 0.000000 0.989693 0.143205
vn 0.000000 0.989693 0.143206
vn 0.000000 0.989693 0.143206
vn 0.000000 0.989693 0.143205
vn 0.000000 0.989693 0.143205
vn 0.000000 -0.763023 0.646372
vn 0.000000 -0.763022 0.646372
vn 0.000000 -0.763022 0.646372
vn 0.000000 -0.763022 0.646372
vn 0.000000 -0.763022 0.646372
vn 0.000000 -0.763022 0.646372
vn -1.000000 -0.000001 0.000000
vn -1.000000 -0.000001 0.000000
vn -1.000000 -0.000000 0.000000
vn -1.000000 -0.000000 0.000000
vn -1.000000 -0.000001 0.000000
vn -1.000000 0.000000 0.000000
vn 1.000000 0.000000 0.000000
vn 1.000000 0.000000 0.000000
vn 1.000000 0.000000 0.000000
vn 1.000000 0.000000 0.000000
vn 1.000000 0.000000 0.000000
vn 1.000000 0.000000 0.000000
s off
f 1/1/1 2/2/2 3/4/3
f 3/4/4 2/2/5 4/3/6
f 3/4/7 4/3/8 5/6/9
f 5/6/10 4/3/11 6/5/12
f 5/6/13 6/5/14 7/8/15
f 7/8/16 6/5/17 8/7/18
f 7/8/19 8/7/20 1/10/21
f 1/10/22 8/7/23 2/9/24
f 8/11/25 6/12/26 2/2/27
f 2/2/28 6/12/29 4/3/30
f 7/13/31 1/1/32 5/14/33
f 5/14/34 1/1/35 3/4/36
