# This file uses centimeters as units for non-parametric coordinates.

v 0.492498 7.256935 15.425752
v -0.139621 7.146727 15.357344
v 0.459865 7.839521 14.788724
v -0.172254 7.729313 14.720315
v 0.839796 6.457165 13.505045
v 0.207677 6.346957 13.436637
v 0.872428 5.874579 14.142074
v 0.240309 5.764371 14.073665
vt 0.377110 0.008439
vt 0.377110 0.254219
vt 0.622890 0.254219
vt 0.622890 0.008439
vt 0.377110 0.500000
vt 0.622890 0.500000
vt 0.377110 0.745781
vt 0.622890 0.745781
vt 0.377110 0.991561
vt 0.622890 0.991561
vt 0.868671 0.254219
vt 0.868671 0.008439
vt 0.131329 0.008439
vt 0.131329 0.254219
vn -0.197433 0.718353 0.667076
vn -0.197436 0.718353 0.667075
vn -0.197435 0.718353 0.667075
vn -0.197435 0.718353 0.667075
vn -0.197436 0.718353 0.667075
vn -0.197438 0.718353 0.667074
vn -0.037774 0.674389 -0.737410
vn -0.037776 0.674389 -0.737409
vn -0.037775 0.674389 -0.737410
vn -0.037775 0.674389 -0.737410
vn -0.037776 0.674389 -0.737409
vn -0.037777 0.674389 -0.737409
vn 0.197434 -0.718353 -0.667075
vn 0.197435 -0.718353 -0.667075
vn 0.197435 -0.718353 -0.667075
vn 0.197435 -0.718353 -0.667075
vn 0.197435 -0.718353 -0.667075
vn 0.197435 -0.718353 -0.667075
vn 0.037773 -0.674389 0.737410
vn 0.037773 -0.674389 0.737410
vn 0.037773 -0.674389 0.737410
vn 0.037773 -0.674389 0.737410
vn 0.037773 -0.674389 0.737410
vn 0.037773 -0.674389 0.737410
vn -0.979588 -0.170789 -0.106012
vn -0.979588 -0.170789 -0.106012
vn -0.979588 -0.170789 -0.106012
vn -0.979588 -0.170789 -0.106012
vn -0.979588 -0.170789 -0.106012
vn -0.979588 -0.170788 -0.106011
vn 0.979588 0.170788 0.106011
vn 0.979588 0.170788 0.106011
vn 0.979588 0.170789 0.106012
vn 0.979588 0.170789 0.106012
vn 0.979588 0.170788 0.106011
vn 0.979588 0.170789 0.106012
s off
f 1/1/1 3/2/2 2/4/3
f 2/4/4 3/2/5 4/3/6
f 3/2/7 5/5/8 4/3/9
f 4/3/10 5/5/11 6/6/12
f 5/5/13 7/7/14 6/6/15
f 6/6/16 7/7/17 8/8/18
f 7/7/19 1/9/20 8/8/21
f 8/8/22 1/9/23 2/10/24
f 2/4/25 4/3/26 8/12/27
f 8/12/28 4/3/29 6/11/30
f 7/13/31 5/14/32 1/1/33
f 1/1/34 5/14/35 3/2/36
