# This file uses centimeters as units for non-parametric coordinates.

v 2.753548 4.128495 -3.334464
v 2.572060 4.464661 -6.214664
v 2.561374 6.310580 -3.067669
v 2.379886 6.646745 -5.947871
v 3.181999 6.369183 -3.099937
v 3.000511 6.705348 -5.980137
v 3.374174 4.187099 -3.366730
v 3.192686 4.523264 -6.246932
vt 0.377110 0.008439
vt 0.377110 0.254219
vt 0.622890 0.254219
vt 0.622890 0.008439
vt 0.377110 0.500000
vt 0.622890 0.500000
vt 0.377110 0.745781
vt 0.622890 0.745781
vt 0.377110 0.991561
vt 0.622890 0.991561
vt 0.868671 0.254219
vt 0.868671 0.008439
vt 0.131329 0.008439
vt 0.131329 0.254219
vn -0.994240 -0.093882 0.051692
vn -0.994240 -0.093882 0.051692
vn -0.994241 -0.093882 0.051692
vn -0.994241 -0.093882 0.051692
vn -0.994240 -0.093882 0.051692
vn -0.994241 -0.093882 0.051692
vn -0.087086 0.988837 0.120900
vn -0.087086 0.988837 0.120900
vn -0.087086 0.988837 0.120901
vn -0.087086 0.988837 0.120901
vn -0.087086 0.988837 0.120900
vn -0.087086 0.988837 0.120902
vn 0.994240 0.093882 -0.051692
vn 0.994241 0.093882 -0.051692
vn 0.994241 0.093882 -0.051692
vn 0.994241 0.093882 -0.051692
vn 0.994241 0.093882 -0.051692
vn 0.994241 0.093882 -0.051692
vn 0.087087 -0.988837 -0.120900
vn 0.087087 -0.988837 -0.120900
vn 0.087086 -0.988837 -0.120901
vn 0.087086 -0.988837 -0.120901
vn 0.087087 -0.988837 -0.120900
vn 0.087086 -0.988837 -0.120901
vn -0.062467 0.115702 -0.991318
vn -0.062465 0.115703 -0.991318
vn -0.062466 0.115703 -0.991318
vn -0.062466 0.115703 -0.991318
vn -0.062465 0.115703 -0.991318
vn -0.062465 0.115703 -0.991318
vn 0.062467 -0.115703 0.991318
vn 0.062465 -0.115703 0.991318
vn 0.062467 -0.115703 0.991318
vn 0.062467 -0.115703 0.991318
vn 0.062465 -0.115703 0.991318
vn 0.062465 -0.115703 0.991318
s off
f 1/1/1 3/2/2 2/4/3
f 2/4/4 3/2/5 4/3/6
f 3/2/7 5/5/8 4/3/9
f 4/3/10 5/5/11 6/6/12
f 5/5/13 7/7/14 6/6/15
f 6/6/16 7/7/17 8/8/18
f 7/7/19 1/9/20 8/8/21
f 8/8/22 1/9/23 2/10/24
f 2/4/25 4/3/26 8/12/27
f 8/12/28 4/3/29 6/11/30
f 7/13/31 5/14/32 1/1/33
f 1/1/34 5/14/35 3/2/36
