# This file uses centimeters as units for non-parametric coordinates.

v -3.528389 6.968982 9.406098
v -2.540124 6.985694 9.254265
v -3.535610 7.258739 9.390992
v -2.547345 7.275452 9.239160
v -4.189690 7.019118 5.107280
v -3.201425 7.035830 4.955446
v -4.182469 6.729361 5.122385
v -3.194204 6.746073 4.970552
vt 0.377110 0.008439
vt 0.622890 0.008439
vt 0.622890 0.254219
vt 0.377110 0.254219
vt 0.622890 0.500000
vt 0.377110 0.500000
vt 0.622890 0.745781
vt 0.377110 0.745781
vt 0.622890 0.991561
vt 0.377110 0.991561
vt 0.868671 0.008439
vt 0.868671 0.254219
vt 0.131329 0.008439
vt 0.131329 0.254219
vn 0.150711 0.055214 0.987035
vn 0.150711 0.055211 0.987035
vn 0.150711 0.055213 0.987035
vn 0.150711 0.055213 0.987035
vn 0.150711 0.055211 0.987035
vn 0.150711 0.055211 0.987035
vn -0.024879 0.998335 -0.052046
vn -0.024879 0.998335 -0.052046
vn -0.024879 0.998335 -0.052046
vn -0.024879 0.998335 -0.052046
vn -0.024879 0.998335 -0.052046
vn -0.024879 0.998335 -0.052046
vn -0.150711 -0.055210 -0.987035
vn -0.150710 -0.055213 -0.987035
vn -0.150711 -0.055211 -0.987035
vn -0.150711 -0.055211 -0.987035
vn -0.150710 -0.055213 -0.987035
vn -0.150710 -0.055214 -0.987035
vn 0.024879 -0.998335 0.052046
vn 0.024879 -0.998335 0.052046
vn 0.024879 -0.998335 0.052046
vn 0.024879 -0.998335 0.052046
vn 0.024879 -0.998335 0.052046
vn 0.024879 -0.998335 0.052046
vn 0.988265 0.016714 -0.151833
vn 0.988265 0.016712 -0.151833
vn 0.988265 0.016714 -0.151833
vn 0.988265 0.016714 -0.151833
vn 0.988265 0.016712 -0.151833
vn 0.988265 0.016712 -0.151833
vn -0.988265 -0.016712 0.151832
vn -0.988265 -0.016714 0.151833
vn -0.988265 -0.016712 0.151833
vn -0.988265 -0.016712 0.151833
vn -0.988265 -0.016714 0.151833
vn -0.988265 -0.016714 0.151833
s off
f 1/1/1 2/2/2 3/4/3
f 3/4/4 2/2/5 4/3/6
f 3/4/7 4/3/8 5/6/9
f 5/6/10 4/3/11 6/5/12
f 5/6/13 6/5/14 7/8/15
f 7/8/16 6/5/17 8/7/18
f 7/8/19 8/7/20 1/10/21
f 1/10/22 8/7/23 2/9/24
f 2/2/25 8/11/26 4/3/27
f 4/3/28 8/11/29 6/12/30
f 7/13/31 1/1/32 5/14/33
f 5/14/34 1/1/35 3/4/36
