# This file uses centimeters as units for non-parametric coordinates.

v -1.281998 0.147419 1.875000
v -3.749992 0.147419 1.875000
v 3.750008 0.147419 1.875000
v -3.749992 3.197099 1.875000
v 3.750008 3.197099 1.875000
v -3.749992 3.197100 -1.875000
v 3.750008 3.197100 -1.875000
v -3.749992 0.147419 -1.875000
v 3.750008 0.147419 -1.875000
v -3.839912 3.197100 1.943687
v 3.839920 3.197100 1.943687
v 3.839920 3.197100 -1.943687
v -3.839912 3.197100 -1.943687
v -3.881290 3.329868 1.984520
v 3.881298 3.329868 1.984505
v 3.881298 3.329868 -1.984520
v -3.881290 3.329868 -1.984520
v -3.793270 0.147419 -1.941139
v 3.793282 0.147419 -1.941139
v 3.793282 0.147419 1.941124
v -3.793270 0.147419 1.941139
v -3.793270 0.000000 -1.941139
v 3.793282 0.000000 -1.941139
v 3.793282 0.000000 1.941124
v -3.793270 0.000000 1.941139
v -3.881290 3.256554 -1.984520
v -3.881290 3.256554 1.984520
v 3.881298 3.256554 1.984505
v 3.881298 3.256554 -1.984520
v -3.839912 3.243315 -1.943687
v -3.839912 3.243315 1.943687
v 3.839920 3.243315 1.943687
v 3.839920 3.243315 -1.943687
v -3.749992 2.379045 1.875000
v -3.749992 1.761353 1.875000
v -3.590504 2.116407 1.875000
v -3.749992 2.015370 1.598732
v 3.750008 1.098131 1.875000
v 3.750008 0.444485 1.875000
v 3.505760 0.843432 1.875000
v 3.750008 0.841004 1.688728
v -1.383842 0.147419 1.941124
v -0.973103 0.147419 1.941124
v -1.263893 0.000000 1.941124
v 0.000008 3.197100 1.875000
v 0.000008 0.147419 1.875000
v 0.000008 3.197100 -1.875000
v 0.000008 0.147419 -1.875000
vt 0.361896 0.191552
vt 0.361896 0.191552
vt 0.361896 0.191552
vt 0.361896 0.191552
vt 0.361896 0.191551
vt 0.361896 0.191551
vt 0.361896 0.191551
vt 0.361896 0.191551
vt 0.361896 0.191552
vt 0.361896 0.191552
vt 0.361896 0.191552
vt 0.361896 0.191552
vt 0.361896 0.191552
vt 0.361896 0.191552
vt 0.361896 0.191552
vt 0.361896 0.191552
vt 0.361896 0.191551
vt 0.361896 0.191551
vt 0.361896 0.191551
vt 0.361896 0.191551
vt 0.361896 0.191551
vt 0.361896 0.191551
vt 0.361896 0.191551
vt 0.361896 0.191551
vt 0.361896 0.191551
vt 0.361896 0.191552
vt 0.361896 0.191552
vt 0.361896 0.191552
vt 0.361896 0.191552
vt 0.361896 0.191552
vt 0.361896 0.191552
vt 0.361896 0.191552
vt 0.361896 0.191552
vt 0.850517 0.397720
vt 0.850517 0.397720
vt 0.850517 0.397720
vt 0.361896 0.191551
vt 0.361896 0.191551
vt 0.361896 0.191551
vt 0.361896 0.191551
vt 0.361896 0.191551
vt 0.361896 0.191551
vt 0.361896 0.191551
vt 0.361896 0.191551
vt 0.361896 0.191551
vt 0.361896 0.191551
vt 0.361896 0.191551
vt 0.361896 0.191551
vt 0.361896 0.191551
vt 0.361896 0.191551
vt 0.361896 0.191551
vt 0.361896 0.191551
vt 0.361896 0.191551
vt 0.361896 0.191551
vt 0.361896 0.191551
vt 0.361896 0.191551
vt 0.361896 0.191551
vt 0.361896 0.191551
vt 0.850517 0.397720
vt 0.850513 0.397720
vt 0.850517 0.397720
vt 0.361896 0.191551
vt 0.361896 0.191551
vt 0.850513 0.397720
vt 0.850513 0.397720
vt 0.924060 0.101407
vt 0.924060 0.236687
vt 0.361896 0.191551
vt 0.361896 0.191551
vt 0.361896 0.191551
vt 0.361896 0.191551
vt 0.361896 0.191551
vt 0.361896 0.191551
vt 0.361896 0.191551
vt 0.361896 0.191552
vt 0.840632 0.206968
vt 0.840632 0.007004
vt 0.361896 0.191551
vt 0.813634 0.004158
vt 0.856684 0.004158
vt 0.856684 0.167765
vt 0.730757 0.167765
vt 0.730757 0.123878
vt 0.736112 0.109788
vt 0.730757 0.090741
vt 0.730757 0.004158
vt 0.720653 0.007004
vt 0.720653 0.026482
vt 0.728468 0.052641
vt 0.720653 0.069341
vt 0.720653 0.206968
vt 0.729320 0.142589
vt 0.864600 0.142589
vt 0.864600 0.007309
vt 0.729320 0.007309
vt 0.957812 0.005690
vt 0.822532 0.005690
vt 0.822532 0.185243
vt 0.957812 0.185243
vt 0.957812 0.060471
vt 0.950764 0.045225
vt 0.957812 0.024392
vt 0.866049 0.007818
vt 0.866049 0.080543
vt 0.856619 0.091377
vt 0.866049 0.105588
vt 0.866049 0.143098
vt 0.730769 0.143098
vt 0.730769 0.007818
vt 0.788780 0.101407
vt 0.788780 0.236687
vn 0.000000 1.000000 0.000000
vn 0.000000 1.000000 0.000000
vn 0.000000 1.000000 0.000000
vn 0.000000 1.000000 0.000000
vn 0.000000 -1.000000 0.000000
vn 0.000000 -1.000000 0.000000
vn 0.000000 -1.000000 0.000000
vn 0.000000 -1.000000 0.000000
vn 0.000000 -1.000000 0.000000
vn 0.000000 -1.000000 0.000004
vn 0.000000 -1.000000 0.000004
vn 0.000000 -1.000000 0.000004
vn 0.000000 -1.000000 0.000004
vn 0.000000 -1.000000 0.000004
vn 0.000003 -1.000000 -0.000000
vn 0.000003 -1.000000 -0.000000
vn 0.000003 -1.000000 -0.000000
vn 0.000003 -1.000000 -0.000000
vn 0.000000 -1.000000 0.000001
vn 0.000000 -1.000000 0.000001
vn 0.000000 -1.000000 0.000001
vn 0.000000 -1.000000 0.000001
vn -0.000003 -1.000000 0.000000
vn -0.000003 -1.000000 0.000000
vn -0.000003 -1.000000 0.000000
vn -0.000003 -1.000000 0.000000
vn 0.000002 0.000000 1.000000
vn 0.000002 0.000000 1.000000
vn 0.000002 0.000000 1.000000
vn 0.000002 0.000000 1.000000
vn 1.000000 0.000000 0.000000
vn 1.000000 0.000000 0.000000
vn 1.000000 0.000000 0.000000
vn 1.000000 0.000000 0.000000
vn 0.000000 0.000000 -1.000000
vn 0.000000 0.000000 -1.000000
vn 0.000000 0.000000 -1.000000
vn 0.000000 0.000000 -1.000000
vn -1.000000 0.000000 0.000000
vn -1.000000 0.000000 0.000000
vn -1.000000 0.000000 0.000000
vn -1.000000 0.000000 0.000000
vn 0.000000 1.000000 0.000000
vn 0.000000 1.000000 0.000000
vn 0.000000 1.000000 0.000000
vn 0.000000 1.000000 0.000000
vn 0.000000 1.000000 0.000000
vn 0.000000 1.000000 0.000000
vn 0.000000 1.000000 0.000000
vn 0.000000 1.000000 0.000000
vn -0.193479 0.381646 0.903832
vn -0.193479 0.381646 0.903832
vn -0.193479 0.381646 0.903832
vn 0.000000 1.000000 0.000000
vn 0.000000 1.000000 0.000000
vn 0.000000 1.000000 0.000000
vn 0.000000 1.000000 0.000000
vn 0.000000 0.000000 -1.000000
vn 0.000000 0.000000 -1.000000
vn 0.000000 0.000000 -1.000000
vn 0.000000 0.000000 -1.000000
vn 1.000000 0.000000 0.000000
vn 1.000000 0.000000 0.000000
vn 1.000000 0.000000 0.000000
vn 1.000000 0.000000 0.000000
vn -1.000000 0.000000 0.000000
vn -1.000000 0.000000 0.000000
vn -1.000000 0.000000 0.000000
vn -1.000000 0.000000 0.000000
vn -0.304734 -0.952438 0.000000
vn -0.304734 -0.952438 0.000000
vn -0.304734 -0.952438 0.000000
vn -0.304734 -0.952438 0.000000
vn 0.000000 -0.951234 0.308471
vn 0.000000 -0.951234 0.308471
vn 0.000000 -0.951234 0.308471
vn 0.000000 -0.951234 0.308471
vn 0.304734 -0.952438 0.000000
vn 0.304734 -0.952437 0.000000
vn 0.304734 -0.952438 0.000000
vn 0.304734 -0.952438 0.000000
vn 0.000000 -0.951251 -0.308419
vn 0.000000 -0.951251 -0.308419
vn 0.000000 -0.951251 -0.308419
vn 0.000000 -0.951251 -0.308419
vn -1.000000 0.000000 0.000000
vn -1.000000 0.000000 0.000000
vn -1.000000 0.000000 0.000000
vn -1.000000 0.000000 0.000000
vn 0.000000 0.000000 1.000000
vn 0.000000 0.000000 1.000000
vn 0.000000 0.000000 1.000000
vn 0.000000 0.000000 1.000000
vn 1.000000 0.000000 0.000000
vn 1.000000 0.000000 0.000000
vn 1.000000 0.000000 0.000000
vn 1.000000 0.000000 0.000000
vn 0.000000 0.000000 -1.000000
vn 0.000000 0.000000 -1.000000
vn 0.000000 0.000000 -1.000000
vn 0.000000 0.000000 -1.000000
vn -0.705736 -0.428564 0.564154
vn -0.705736 -0.428564 0.564154
vn -0.705736 -0.428564 0.564154
vn -0.853623 0.383444 0.352560
vn -0.853623 0.383444 0.352560
vn -0.853623 0.383444 0.352560
vn 0.521860 -0.500445 0.690809
vn 0.521860 -0.500445 0.690809
vn 0.521860 -0.500445 0.690809
vn 0.570422 0.349230 0.743410
vn 0.570422 0.349230 0.743410
vn 0.570422 0.349230 0.743410
vn 0.000000 1.000000 0.000000
vn 0.000000 1.000000 0.000000
vn 0.000000 1.000000 0.000000
vn 0.000000 1.000000 0.000000
vn 0.000006 0.000003 1.000000
vn 0.000006 0.000003 1.000000
vn 0.000006 0.000003 1.000000
vn 0.000006 0.000003 1.000000
vn 0.000000 0.000000 1.000000
vn 0.000000 0.000000 1.000000
vn 0.000000 0.000000 1.000000
vn 0.000000 0.000000 1.000000
vn 0.000000 1.000000 -0.000000
vn 0.000000 1.000000 -0.000000
vn 0.000000 1.000000 -0.000000
vn 0.000000 1.000000 -0.000000
vn 0.000000 1.000000 -0.000000
vn 0.497869 0.405097 0.766826
vn 0.497869 0.405097 0.766826
vn 0.497869 0.405097 0.766826
vn 0.000000 0.000000 1.000000
vn 0.000000 0.000000 1.000000
vn 0.000000 0.000000 1.000000
vn 0.000000 0.000000 1.000000
vn 0.000000 0.000000 1.000000
vn 0.000000 0.000000 1.000000
vn 0.000000 0.000000 1.000000
vn 0.000000 0.000000 1.000000
vn 0.000000 0.000000 1.000000
vn 0.000000 0.000000 1.000000
vn 0.000000 0.000000 1.000000
vn 0.000000 0.000000 1.000000
vn 0.000000 0.000000 1.000000
vn 0.000000 0.000000 1.000000
vn 0.000000 0.000000 1.000000
vn 0.000000 0.000000 -1.000000
vn 0.000000 0.000000 -1.000000
vn 0.000000 0.000000 -1.000000
vn 0.000000 0.000000 -1.000000
vn 1.000000 0.000000 0.000000
vn 1.000000 0.000000 0.000000
vn 1.000000 0.000000 0.000000
vn 1.000000 0.000000 0.000000
vn 1.000000 0.000000 0.000000
vn 1.000000 0.000000 0.000000
vn 1.000000 0.000000 0.000000
vn -1.000000 0.000000 0.000000
vn -1.000000 0.000000 0.000000
vn -1.000000 0.000000 0.000000
vn -1.000000 0.000000 0.000000
vn -1.000000 0.000000 0.000000
vn -1.000000 0.000000 0.000000
vn -1.000000 0.000000 0.000000
vn 0.000000 0.000000 -1.000000
vn 0.000000 0.000000 -1.000000
vn 0.000000 0.000000 -1.000000
vn 0.000000 0.000000 -1.000000
s off
f 14/1/1 15/2/2 16/3/3 17/4/4
f 22/5/5 23/46/6 24/42/7 44/73/8 25/40/9
f 10/9/10 4/10/11 45/75/12 5/11/13 11/12/14
f 5/11/15 7/13/16 12/14/17 11/12/18
f 7/13/19 6/15/20 13/16/21 12/14/22
f 6/15/23 4/10/24 10/9/25 13/16/26
f 14/1/27 27/27/28 28/28/29 15/2/30
f 28/28/31 29/29/32 16/3/33 15/2/34
f 29/29/35 26/26/36 17/4/37 16/3/38
f 26/26/39 27/27/40 14/1/41 17/4/42
f 8/17/43 9/57/44 19/51/45 18/53/46
f 9/18/47 3/21/48 20/48/49 19/50/50
f 43/70/51 1/23/52 44/74/53
f 2/55/54 8/58/55 18/54/56 21/62/57
f 18/20/58 19/52/59 23/45/60 22/37/61
f 19/19/62 20/49/63 24/41/64 23/6/65
f 21/25/66 18/63/67 22/38/68 25/8/69
f 30/30/70 31/31/71 27/27/72 26/26/73
f 28/28/74 27/27/75 31/31/76 32/32/77
f 32/32/78 33/33/79 29/29/80 28/28/81
f 33/33/82 30/30/83 26/26/84 29/29/85
f 13/16/86 10/9/87 31/31/88 30/30/89
f 32/32/90 31/31/91 10/9/92 11/12/93
f 11/12/94 12/14/95 33/33/96 32/32/97
f 12/14/98 13/16/99 30/30/100 33/33/101
f 34/34/102 37/35/103 36/36/104
f 36/36/105 37/35/106 35/59/107
f 38/60/108 40/61/109 41/64/110
f 41/64/111 40/61/112 39/65/113
f 42/68/114 1/23/115 2/24/116 21/43/117
f 44/72/118 42/69/119 21/44/120 25/39/121
f 20/22/122 43/71/123 44/72/124 24/7/125
f 3/56/126 46/78/127 1/23/128 43/70/129 20/47/130
f 44/74/131 1/23/132 42/68/133
f 45/76/134 46/77/135 3/87/136 39/88/137 40/89/138 38/90/139 5/91/140
f 1/79/141 46/80/142 45/81/143 4/82/144 34/83/145 36/84/146 35/85/147 2/86/148
f 6/92/149 47/93/150 48/94/151 8/95/152
f 3/96/153 9/97/154 7/98/155 5/99/156 38/100/157 41/101/158 39/102/159
f 2/103/160 35/104/161 37/105/162 34/106/163 4/107/164 6/108/165 8/109/166
f 48/110/167 47/111/168 7/67/169 9/66/170
