# This file uses centimeters as units for non-parametric coordinates.

v -2.500000 0.000000 0.158084
v 2.500000 0.000000 0.158084
v -2.500000 1.298146 0.215018
v 2.500000 1.298146 0.215018
v -2.500000 1.298146 -0.215018
v 2.500000 1.298146 -0.215018
v -2.500000 0.000000 -0.158084
v 2.500000 0.000000 -0.158084
v -2.500000 1.173454 -0.158084
v -2.500000 1.173454 0.158084
v 2.500000 1.173454 0.158084
v 2.500000 1.173454 -0.158084
v 2.500000 1.212223 0.215018
v -2.500000 1.212223 0.215018
v -2.500000 1.212223 -0.215018
v 2.500000 1.212223 -0.215018
v -2.500000 1.380523 0.000000
v 2.500000 1.380523 0.000000
v -1.376515 0.423430 0.158084
v 1.376515 0.423430 0.158084
v 1.376515 1.069541 0.158084
v -1.406481 1.080936 0.158084
v 1.376515 1.069541 -0.158084
v -1.376515 1.069541 -0.158084
v 1.376515 0.423430 -0.158084
v -1.376515 0.423430 -0.158084
v -1.145699 0.423430 0.158084
v -1.145699 1.069541 0.158084
v 1.110236 0.406281 0.158084
v 1.145699 1.069541 0.158084
v -1.073867 0.410723 -0.158084
v -1.104373 1.093865 -0.158084
v 1.119018 0.418213 -0.158084
v 1.145699 1.069541 -0.158084
v 0.000000 0.000000 0.158084
v 0.000000 0.000000 -0.158084
v 0.000000 1.173454 0.158084
v 0.000000 1.212223 0.215018
v 0.000000 1.339577 0.106876
v 0.000000 1.380523 0.000000
v 0.000000 1.298146 -0.215018
v 0.000000 1.212223 -0.215018
v 0.000000 1.173454 -0.158084
v -0.338900 1.298146 0.215018
v 0.189649 1.298146 0.215018
v 1.697744 1.298146 -0.215018
v 2.109314 1.298146 -0.215018
v 1.934136 1.380523 -0.000000
v 1.946001 1.212223 -0.215018
v -1.145699 0.846206 0.158084
v -1.145699 0.638035 0.076664
v -1.033591 0.626048 0.158084
v 1.376515 0.786096 -0.158084
v 1.463476 0.916382 -0.158084
v 1.376515 0.938454 -0.018316
vt 0.351700 0.212820
vt 0.351700 0.212820
vt 0.351700 0.231767
vt 0.351700 0.231767
vt 0.351700 0.231767
vt 0.351700 0.231767
vt 0.351700 0.212820
vt 0.351700 0.212820
vt 0.351700 0.212820
vt 0.351700 0.212820
vt 0.351700 0.212820
vt 0.351700 0.231767
vt 0.351700 0.212820
vt 0.351700 0.231767
vt 0.351700 0.231767
vt 0.351700 0.231767
vt 0.351700 0.212820
vt 0.351700 0.231767
vt 0.351700 0.212820
vt 0.351700 0.212820
vt 0.351700 0.231767
vt 0.351700 0.231767
vt 0.351700 0.231767
vt 0.351700 0.231767
vt 0.351700 0.231767
vt 0.351700 0.231767
vt 0.351700 0.231767
vt 0.351700 0.231767
vt 0.351700 0.231767
vt 0.351700 0.231767
vt 0.351700 0.212820
vt 0.351700 0.212820
vt 0.351700 0.212820
vt 0.351700 0.212820
vt 0.351700 0.212820
vt 0.351700 0.212820
vt 0.351700 0.212820
vt 0.351700 0.212820
vt 0.351700 0.212820
vt 0.351700 0.212820
vt 0.351700 0.212820
vt 0.351700 0.212820
vt 0.351700 0.212820
vt 0.351700 0.212820
vt 0.351700 0.212820
vt 0.351700 0.212820
vt 0.351700 0.212820
vt 0.351700 0.212820
vt 0.351700 0.212820
vt 0.351700 0.212820
vt 0.351700 0.231767
vt 0.351700 0.231767
vt 0.351700 0.231767
vt 0.351700 0.231767
vt 0.351700 0.231767
vt 0.351700 0.212820
vt 0.351700 0.231767
vt 0.351700 0.231767
vt 0.351700 0.231767
vt 0.351700 0.231767
vt 0.351700 0.231767
vt 0.351700 0.231767
vt 0.351700 0.212820
vt 0.351700 0.212820
vt 0.351700 0.212820
vt 0.351700 0.212820
vt 0.351700 0.212820
vt 0.351700 0.212820
vt 0.351700 0.231767
vt 0.351700 0.231767
vt 0.351700 0.231767
vt 0.351700 0.231767
vt 0.351700 0.231767
vt 0.351700 0.231767
vt 0.351700 0.231767
vt 0.351700 0.231767
vt 0.351700 0.231767
vt 0.351700 0.231767
vt 0.351700 0.231767
vt 0.351700 0.231767
vt 0.351700 0.231767
vt 0.351700 0.231767
vt 0.351700 0.231767
vt 0.351700 0.231767
vt 0.351700 0.231767
vt 0.351700 0.231767
vt 0.351700 0.231767
vt 0.351700 0.231767
vt 0.351700 0.231767
vt 0.351700 0.231767
vt 0.351700 0.231767
vt 0.351700 0.231767
vt 0.351700 0.231767
vt 0.351700 0.231767
vt 0.351700 0.231767
vt 0.351700 0.231767
vt 0.351700 0.231767
vt 0.351700 0.231767
vt 0.351700 0.231767
vt 0.351700 0.231767
vt 0.351700 0.231767
vt 0.351700 0.231767
vt 0.351700 0.231767
vt 0.351700 0.231767
vt 0.351700 0.231767
vt 0.351700 0.231767
vt 0.351700 0.231767
vt 0.351700 0.231767
vt 0.351700 0.231767
vt 0.351700 0.231767
vt 0.351700 0.231767
vt 0.351700 0.212820
vt 0.351700 0.212820
vt 0.351700 0.231767
vt 0.351700 0.231767
vt 0.351700 0.231767
vt 0.351700 0.231767
vt 0.351700 0.212820
vt 0.351700 0.231767
vt 0.351700 0.231767
vt 0.351700 0.231767
vt 0.351700 0.231767
vt 0.351700 0.231767
vt 0.351700 0.231767
vt 0.351700 0.231767
vt 0.351700 0.231767
vt 0.351700 0.231767
vt 0.351700 0.231767
vt 0.351700 0.231767
vt 0.351700 0.231767
vt 0.351700 0.231767
vn 0.000000 -0.826563 0.562845
vn 0.000000 -0.826563 0.562845
vn 0.000000 -0.826563 0.562845
vn 0.000000 -0.826563 0.562845
vn 0.000000 0.933814 -0.357760
vn 0.000000 0.933814 -0.357760
vn 0.000000 0.933814 -0.357760
vn 0.000000 0.933814 -0.357760
vn 0.000000 -0.826562 -0.562846
vn 0.000000 -0.826562 -0.562846
vn 0.000000 -0.826562 -0.562846
vn 0.000000 -0.826562 -0.562846
vn 0.000000 -1.000000 0.000000
vn 0.000000 -1.000000 0.000000
vn 0.000000 -1.000000 0.000000
vn 0.000000 -1.000000 0.000000
vn 1.000000 0.000000 0.000000
vn 1.000000 0.000000 0.000000
vn 1.000000 0.000000 0.000000
vn 1.000000 0.000000 0.000000
vn -1.000000 0.000000 0.000000
vn -1.000000 0.000000 0.000000
vn -1.000000 0.000000 0.000000
vn -1.000000 0.000000 0.000000
vn -1.000000 0.000000 0.000000
vn -1.000000 0.000000 0.000000
vn -1.000000 0.000000 0.000000
vn -1.000000 0.000000 0.000000
vn -0.000000 0.000000 1.000000
vn -0.000000 0.000000 1.000000
vn -0.000000 0.000000 1.000000
vn -0.000000 0.000000 1.000000
vn 1.000000 0.000000 0.000000
vn 1.000000 0.000000 0.000000
vn 1.000000 0.000000 0.000000
vn 1.000000 0.000000 0.000000
vn 0.161939 0.638728 0.752198
vn 0.161939 0.638728 0.752198
vn 0.161939 0.638728 0.752198
vn -1.000000 0.000000 0.000000
vn -1.000000 0.000000 0.000000
vn -1.000000 0.000000 0.000000
vn -1.000000 0.000000 0.000000
vn -1.000000 0.000000 0.000000
vn 0.000000 0.000000 -1.000000
vn 0.000000 0.000000 -1.000000
vn 0.000000 0.000000 -1.000000
vn 0.000000 0.000000 -1.000000
vn 1.000000 0.000000 0.000000
vn 1.000000 0.000000 0.000000
vn 1.000000 0.000000 0.000000
vn 1.000000 0.000000 0.000000
vn 1.000000 0.000000 0.000000
vn 0.000000 0.000000 1.000000
vn 0.000000 0.000000 1.000000
vn 0.000000 0.000000 1.000000
vn 0.000000 0.000000 1.000000
vn 0.000000 0.000000 1.000000
vn 0.000000 0.000000 1.000000
vn 0.000000 0.000000 1.000000
vn 0.000000 0.000000 1.000000
vn 0.000000 0.000000 1.000000
vn 0.000000 0.000000 1.000000
vn 0.000000 0.000000 1.000000
vn 0.000000 0.000000 1.000000
vn -0.000000 0.000000 1.000000
vn -0.000000 0.000000 1.000000
vn -0.000000 0.000000 1.000000
vn -0.000000 0.000000 1.000000
vn 0.000000 0.000000 -1.000000
vn 0.000000 0.000000 -1.000000
vn 0.000000 0.000000 -1.000000
vn 0.000000 0.000000 -1.000000
vn 0.000000 0.000000 -1.000000
vn 0.000000 0.000000 -1.000000
vn 0.000000 0.000000 -1.000000
vn 0.000000 0.000000 -1.000000
vn 0.000000 0.000000 -1.000000
vn 0.000000 0.000000 -1.000000
vn 0.000000 0.000000 -1.000000
vn 0.000000 0.000000 -1.000000
vn 0.000000 0.000000 -1.000000
vn 0.000000 0.000000 -1.000000
vn 0.000000 0.000000 -1.000000
vn 0.000000 0.000000 -1.000000
vn 0.000000 0.000000 -1.000000
vn 0.000000 0.000000 -1.000000
vn 0.000000 0.000000 -1.000000
vn 0.000000 -1.000000 0.000000
vn 0.000000 -1.000000 0.000000
vn 0.000000 -1.000000 0.000000
vn 0.000000 -1.000000 0.000000
vn -0.042658 0.998923 0.018258
vn -0.042658 0.998923 0.018258
vn -0.042658 0.998923 0.018258
vn -0.042658 0.998923 0.018258
vn 0.024249 -0.999549 -0.017702
vn 0.024249 -0.999549 -0.017702
vn 0.024249 -0.999549 -0.017702
vn 0.024249 -0.999549 -0.017702
vn 0.998635 0.022956 0.046911
vn 0.998635 0.022956 0.046911
vn 0.998635 0.022956 0.046911
vn 0.998635 0.022956 0.046911
vn 0.998800 -0.047216 0.012981
vn 0.998800 -0.047216 0.012981
vn 0.998800 -0.047216 0.012981
vn 0.998800 -0.047216 0.012981
vn -1.000000 0.000000 0.000000
vn -1.000000 0.000000 0.000000
vn -1.000000 0.000000 0.000000
vn -1.000000 0.000000 0.000000
vn -0.976608 -0.032940 -0.212489
vn -0.986931 -0.000452 -0.161143
vn -0.968252 -0.053890 -0.244099
vn 0.023810 0.999565 -0.017382
vn 0.023810 0.999565 -0.017382
vn 0.023810 0.999565 -0.017382
vn 0.023810 0.999565 -0.017382
vn 0.000000 -1.000000 0.000000
vn 0.000000 -1.000000 0.000000
vn 0.000000 -1.000000 0.000000
vn 0.000000 -1.000000 0.000000
vn 0.000000 -0.826563 0.562845
vn 0.000000 -0.826563 0.562845
vn 0.000000 -0.826563 0.562845
vn 0.000000 -0.826563 0.562845
vn -0.281402 0.621116 0.731456
vn -0.281402 0.621116 0.731456
vn -0.281402 0.621116 0.731456
vn -0.378149 0.718746 -0.583445
vn -0.378149 0.718746 -0.583445
vn -0.378149 0.718746 -0.583445
vn 0.000000 -0.826562 -0.562846
vn 0.000000 -0.826562 -0.562846
vn 0.000000 -0.826562 -0.562846
vn 0.000000 -0.826562 -0.562846
vn 0.000000 -0.826562 -0.562846
vn 0.000000 -0.000000 1.000000
vn 0.000000 -0.000000 1.000000
vn 0.000000 -0.000000 1.000000
vn -0.000000 0.000000 -1.000000
vn -0.000000 0.000000 -1.000000
vn -0.000000 0.000000 -1.000000
vn -0.000000 0.000000 -1.000000
vn 0.000000 0.000000 -1.000000
vn 0.000000 0.000000 -1.000000
vn 0.000000 0.000000 -1.000000
vn 0.000000 0.000000 -1.000000
vn 0.000000 0.000000 -1.000000
vn 0.000000 0.000000 -1.000000
vn 0.000000 0.000000 -1.000000
vn 0.000000 0.000000 -1.000000
vn 0.000000 0.000000 1.000000
vn 0.000000 0.000000 1.000000
vn 0.000000 0.000000 1.000000
vn 0.000000 0.000000 1.000000
vn 0.000000 0.000000 1.000000
vn 0.000000 0.000000 1.000000
vn 0.000000 0.000000 1.000000
vn 0.000000 0.000000 1.000000
vn -0.000000 0.933814 0.357759
vn -0.000000 0.933814 0.357759
vn -0.000000 0.933814 0.357759
vn -0.000000 0.933814 0.357759
vn -0.000000 0.933814 0.357759
vn 0.000000 0.000000 1.000000
vn 0.000000 0.000000 1.000000
vn 0.000000 0.000000 1.000000
vn 0.000000 0.000000 1.000000
vn -0.000000 0.000000 1.000000
vn -0.000000 0.000000 1.000000
vn -0.000000 0.000000 1.000000
vn -0.000000 0.000000 1.000000
vn 0.000000 0.933814 0.357760
vn 0.000000 0.933814 0.357760
vn 0.000000 0.933814 0.357760
vn 0.000000 0.933814 0.357760
vn 0.000000 0.933814 0.357760
vn 0.000000 0.933814 0.357760
vn 0.000000 0.933814 -0.357760
vn 0.000000 0.933814 -0.357760
vn 0.000000 0.933814 -0.357760
vn 0.000000 0.933814 -0.357760
vn 0.000000 0.933814 -0.357759
vn 0.000000 0.933814 -0.357759
vn 0.000000 0.933814 -0.357759
vn 0.000000 0.933814 -0.357759
vn 0.000000 0.000000 -1.000000
vn 0.000000 0.000000 -1.000000
vn 0.000000 0.000000 -1.000000
vn 0.000000 0.000000 -1.000000
vn 0.000000 0.000000 -1.000000
vn 0.000000 0.000000 -1.000000
vn 0.000000 0.000000 -1.000000
vn 0.000000 0.000000 -1.000000
vn 0.265223 0.766309 -0.585172
vn 0.265223 0.766309 -0.585172
vn 0.265223 0.766309 -0.585172
vn -0.539715 0.298625 0.787103
vn -0.539715 0.298625 0.787103
vn -0.539715 0.298625 0.787103
vn -0.581794 -0.296260 0.757460
vn -0.581794 -0.296260 0.757460
vn -0.581794 -0.296260 0.757460
vn -0.711589 0.474957 -0.517742
vn -0.711589 0.474957 -0.517742
vn -0.711589 0.474957 -0.517742
vn -0.789104 -0.448039 -0.420210
vn -0.789104 -0.448039 -0.420210
vn -0.789104 -0.448039 -0.420210
vn -0.000000 -0.000000 -1.000000
vn -0.000000 -0.000000 -1.000000
vn -0.000000 -0.000000 -1.000000
vn -0.000000 -0.000000 -1.000000
vn 0.000000 0.000000 -1.000000
vn 0.000000 0.000000 -1.000000
vn 0.000000 0.000000 -1.000000
vn 0.000000 0.000000 1.000000
vn 0.000000 0.000000 1.000000
vn 0.000000 0.000000 1.000000
vn 0.000000 0.000000 1.000000
vn 0.000000 0.000000 1.000000
vn 0.000000 0.000000 1.000000
vn 0.000000 0.000000 1.000000
vn -0.976608 -0.032940 -0.212489
vn -0.968252 -0.053890 -0.244099
vn -0.972531 -0.082570 -0.217637
vn -0.993352 0.021344 -0.113123
vn -0.986931 -0.000452 -0.161143
vn -0.976608 -0.032940 -0.212489
vn -0.993352 0.021344 -0.113123
vn -1.000000 0.000000 0.000000
vn -1.000000 0.000000 0.000000
vn -1.000000 0.000000 0.000000
vn -1.000000 0.000000 0.000000
vn -1.000000 0.000000 0.000000
vn -1.000000 0.000000 0.000000
s off
f 10/131/1 37/110/2 38/86/3 14/22/4
f 17/119/5 40/99/6 41/108/7 5/120/8
f 15/125/9 42/104/10 43/106/11 9/16/12
f 35/48/13 36/49/14 8/8/15 2/10/16
f 11/117/17 12/126/18 16/26/19 13/21/20
f 9/15/21 10/130/22 14/114/23 15/124/24
f 7/13/25 1/1/26 10/17/27 9/112/28
f 29/41/29 30/42/30 37/50/31 35/47/32
f 2/2/33 8/11/34 12/20/35 11/118/36
f 44/93/37 38/88/38 39/98/39
f 15/23/40 14/115/41 3/3/42 17/27/43 5/14/44
f 5/5/45 41/109/46 42/103/47 15/24/48
f 13/123/49 16/81/50 6/12/51 18/30/52 4/94/53
f 1/1/54 35/47/55 27/39/56 19/31/57
f 2/2/58 11/118/59 21/33/60 20/32/61
f 37/50/62 10/17/63 22/34/64 28/40/65
f 10/17/66 1/1/67 19/31/68 22/34/69
f 43/56/70 12/19/71 23/36/72 34/46/73
f 12/19/74 8/8/75 54/67/76
f 8/8/77 36/49/78 33/45/79 25/37/80
f 7/7/81 9/113/82 24/35/83 26/38/84
f 36/49/85 43/56/86 34/46/87 33/45/88
f 34/46/89 23/36/90 21/33/91 30/42/92
f 25/37/93 33/45/94 29/41/95 20/32/96
f 28/40/97 22/34/98 24/35/99 32/44/100
f 22/34/101 19/31/102 26/38/103 24/35/104
f 34/46/105 30/42/106 29/41/107 33/45/108
f 25/37/109 20/32/110 55/68/111 53/66/112
f 51/64/113 32/44/114 31/43/115
f 27/39/116 31/43/117 26/38/118 19/31/119
f 7/7/120 36/49/121 35/48/122 1/9/123
f 38/85/124 37/111/125 11/18/126 13/121/127
f 39/97/128 38/89/129 45/58/130
f 49/72/131 48/61/132 47/80/133
f 43/105/134 42/55/135 49/70/136 16/25/137 12/127/138
f 35/47/139 52/65/140 27/39/141
f 32/44/142 43/56/143 36/49/144 31/43/145
f 36/49/146 7/7/147 26/38/148 31/43/149
f 9/113/150 43/56/151 32/44/152 24/35/153
f 35/47/154 2/2/155 20/32/156 29/41/157
f 11/118/158 37/50/159 30/42/160 21/33/161
f 3/128/162 44/92/163 39/52/164 40/53/165 17/28/166
f 14/116/167 38/87/168 44/57/169 3/129/170
f 45/91/171 38/51/172 13/122/173 4/95/174
f 40/101/175 39/96/176 45/90/177 4/4/178 18/83/179 48/74/180
f 41/107/181 40/100/182 48/75/183 46/77/184
f 47/79/185 48/73/186 18/29/187 6/84/188
f 49/71/189 47/60/190 6/6/191 16/82/192
f 42/102/193 41/54/194 46/78/195 49/69/196
f 49/62/197 46/59/198 48/76/199
f 52/65/200 51/64/201 27/39/202
f 50/63/203 51/64/204 52/65/205
f 53/66/206 55/68/207 54/67/208
f 54/67/209 55/68/210 23/36/211
f 54/67/212 8/8/213 25/37/214 53/66/215
f 12/19/216 54/67/217 23/36/218
f 52/65/219 37/50/220 28/40/221 50/63/222
f 35/47/223 37/50/224 52/65/225
f 51/64/226 31/43/227 27/39/228
f 28/40/229 32/44/230 51/64/231 50/63/232
f 55/68/233 21/33/234 23/36/235
f 55/68/236 20/32/237 21/33/238
