# This file uses centimeters as units for non-parametric coordinates.

v -0.800452 0.012898 -0.513859
v -0.529122 0.012878 0.313107
v -0.088584 0.000376 -2.301819
v -0.928458 0.003842 -2.598927
v -0.549447 0.013261 1.094147
v 0.442952 0.014733 2.089664
v -0.394204 0.020311 2.578094
v 0.682640 0.009108 -1.468849
v 1.256294 0.011791 -0.651894
v -1.250510 0.013428 -1.337112
v -1.182993 0.012130 -2.044460
v -1.183803 0.014334 1.742714
v -1.173285 0.015544 2.420589
v -1.295243 0.014487 2.106609
v -0.852850 0.013879 1.420650
v -1.106653 0.008341 -2.387924
v -1.263384 0.013499 -1.699036
v -1.055432 0.013143 -0.935886
v 1.025479 0.011382 -1.039230
v 1.295243 0.011375 -0.321312
v 0.317431 0.004308 -1.914753
v 1.207386 0.010880 1.143383
v 0.035063 0.018260 2.380844
v 0.824035 0.012441 1.800297
v 0.296268 0.178390 -0.438122
v 0.238912 0.108940 1.271927
v -0.632175 0.012831 -0.097706
v -0.307387 0.157939 -0.396740
v 0.040747 0.125280 -1.040871
v 0.148668 0.098409 -1.353920
v -0.318682 0.000000 -2.449635
v -0.548212 0.000609 -2.554203
v 0.440674 0.128626 0.931641
v 0.445282 0.119398 1.321007
v -0.467933 0.012974 0.718536
v -0.488104 0.012914 0.517799
v -0.043631 0.109815 0.425911
v -0.176525 0.019668 2.497986
v -0.396233 0.082743 2.299805
v 0.032123 0.104260 1.999527
v 1.221565 0.010701 0.372963
v 1.218786 0.010747 0.567661
v 0.639238 0.105580 0.986523
v -0.234735 0.089097 -1.807274
v 0.121648 0.001986 -2.120457
v 0.864508 0.073440 -0.465038
v 0.520147 0.095501 -0.905300
v -1.170159 0.013288 -1.140678
v -0.589211 0.084737 -0.834801
v -1.276118 0.013558 -1.521988
v -0.332297 0.119375 -1.489136
v 0.683088 0.133608 -0.159267
v -0.105748 0.168821 -0.721375
v -1.149345 0.010467 -2.223694
v -0.859299 0.078597 1.810070
v -0.835482 0.018474 2.588409
v -1.025313 0.016924 2.525391
v -0.852687 0.079081 2.207302
v -0.575123 0.012846 0.108143
v 0.011779 0.098746 0.829475
v 1.244112 0.010817 0.003429
v 0.423384 0.175169 0.539429
v 1.218878 0.010830 0.956078
v -0.444200 0.107072 -1.162922
v 0.191538 0.198394 -0.282227
v -0.403524 0.123627 1.906063
v -0.757962 0.001958 -2.607117
v -0.483479 0.013079 0.911835
v 0.641035 0.013413 1.944935
v 1.172451 0.011014 1.323399
v 1.272833 0.011067 -0.162506
v 1.161510 0.011750 -0.838821
v -1.227440 0.013113 -1.871620
v -1.038598 0.006054 -2.519272
v -0.682695 0.013556 1.261429
v -0.619658 0.019753 2.607117
v -1.269953 0.014386 1.923946
v -1.263108 0.014807 2.276512
v -1.032508 0.014150 1.578079
v -0.924105 0.013002 -0.725796
v 0.861521 0.010557 -1.249943
v 1.295124 0.011641 -0.482082
v 0.503192 0.006857 -1.694199
v 1.228728 0.010710 0.183414
v 0.241469 0.016485 2.240208
v 0.981342 0.011746 1.651142
v 0.631086 0.140929 0.595711
v 0.448188 0.093488 1.706093
v 0.339324 0.179189 0.132156
v 1.101622 0.011286 1.493587
v -0.705307 0.012845 -0.304836
v -0.149003 0.148073 0.020245
vt 0.378377 0.256113
vt 0.378377 0.256113
vt 0.378377 0.256113
vt 0.378377 0.256113
vt 0.378377 0.256113
vt 0.378377 0.256113
vt 0.378377 0.256113
vt 0.378377 0.256113
vt 0.378377 0.256113
vt 0.378377 0.256113
vt 0.378377 0.256113
vt 0.378377 0.256113
vt 0.378377 0.256113
vt 0.378377 0.256113
vt 0.378377 0.256113
vt 0.378377 0.256113
vt 0.378377 0.256113
vt 0.378377 0.256113
vt 0.378377 0.256113
vt 0.378377 0.256113
vt 0.378377 0.256113
vt 0.378377 0.256113
vt 0.378377 0.256113
vt 0.378377 0.256113
vt 0.378377 0.256113
vt 0.378377 0.256113
vt 0.378377 0.256113
vt 0.378377 0.256113
vt 0.378377 0.256113
vt 0.378377 0.256113
vt 0.378377 0.256113
vt 0.378377 0.256113
vt 0.378377 0.256113
vt 0.378377 0.256113
vt 0.378377 0.256113
vt 0.378377 0.256113
vt 0.378377 0.256113
vt 0.378377 0.256113
vt 0.378377 0.256113
vt 0.378377 0.256113
vt 0.378377 0.256113
vt 0.378377 0.256113
vt 0.378377 0.256113
vt 0.378377 0.256113
vt 0.378377 0.256113
vt 0.378377 0.256113
vt 0.378377 0.256113
vt 0.378377 0.256113
vt 0.378377 0.256113
vt 0.378377 0.256113
vt 0.378377 0.256113
vt 0.378377 0.256113
vt 0.378377 0.256113
vt 0.378377 0.256113
vt 0.378377 0.256113
vt 0.378377 0.256113
vt 0.378377 0.256113
vt 0.378377 0.256113
vt 0.378377 0.256113
vt 0.378377 0.256113
vt 0.378377 0.256113
vt 0.378377 0.256113
vt 0.378377 0.256113
vt 0.378377 0.256113
vt 0.378377 0.256113
vt 0.378377 0.256114
vt 0.378377 0.256113
vt 0.378377 0.256113
vt 0.378377 0.256113
vt 0.378377 0.256113
vt 0.378377 0.256113
vt 0.378377 0.256113
vt 0.378377 0.256113
vt 0.378377 0.256113
vt 0.378377 0.256113
vt 0.378377 0.256113
vt 0.378377 0.256113
vt 0.378377 0.256113
vt 0.378377 0.256113
vt 0.378377 0.256113
vt 0.378377 0.256113
vt 0.378377 0.256113
vt 0.378377 0.256113
vt 0.378377 0.256113
vt 0.378377 0.256113
vt 0.378377 0.256113
vt 0.378377 0.256114
vt 0.378377 0.256114
vt 0.378377 0.256114
vt 0.378377 0.256114
vt 0.378377 0.256113
vt 0.378377 0.256113
vt 0.378377 0.256113
vt 0.378377 0.256113
vt 0.378377 0.256113
vt 0.378377 0.256113
vt 0.378377 0.256113
vn 0.130845 0.991403 -0.000716
vn 0.130845 0.991403 -0.000716
vn 0.130845 0.991403 -0.000716
vn -0.154025 0.987194 0.041535
vn -0.154025 0.987194 0.041535
vn -0.154025 0.987194 0.041535
vn 0.145436 0.987209 0.065326
vn 0.145436 0.987209 0.065326
vn 0.145436 0.987209 0.065326
vn 0.164306 0.964082 0.208684
vn 0.164306 0.964082 0.208683
vn 0.164306 0.964082 0.208683
vn -0.035258 0.996453 -0.076414
vn -0.035258 0.996453 -0.076414
vn -0.035258 0.996453 -0.076414
vn -0.162019 0.975324 -0.149977
vn -0.162019 0.975324 -0.149977
vn -0.162019 0.975324 -0.149977
vn -0.176710 0.980648 -0.084281
vn -0.176710 0.980648 -0.084281
vn -0.176710 0.980648 -0.084281
vn -0.154118 0.988051 0.001361
vn -0.154118 0.988051 0.001361
vn -0.154118 0.988052 0.001361
vn -0.076780 0.991944 -0.100758
vn -0.076780 0.991944 -0.100758
vn -0.076780 0.991944 -0.100758
vn -0.067426 0.996916 -0.040149
vn -0.067426 0.996916 -0.040149
vn -0.067426 0.996916 -0.040149
vn -0.287582 0.957429 0.025023
vn -0.287582 0.957429 0.025023
vn -0.287582 0.957429 0.025023
vn -0.169554 0.985490 -0.007852
vn -0.169554 0.985490 -0.007852
vn -0.169554 0.985490 -0.007852
vn -0.156381 0.985615 -0.064095
vn -0.156381 0.985615 -0.064095
vn -0.156381 0.985615 -0.064095
vn -0.111392 0.993776 -0.000732
vn -0.111392 0.993776 -0.000732
vn -0.111392 0.993776 -0.000732
vn 0.136231 0.988251 -0.069294
vn 0.136231 0.988251 -0.069294
vn 0.136231 0.988251 -0.069294
vn 0.156382 0.987253 0.029611
vn 0.156382 0.987253 0.029611
vn 0.156382 0.987253 0.029611
vn 0.216397 0.976301 0.002855
vn 0.216397 0.976301 0.002855
vn 0.216397 0.976301 0.002855
vn 0.126748 0.967840 0.217305
vn 0.126748 0.967840 0.217305
vn 0.126748 0.967840 0.217305
vn 0.159654 0.967621 0.195498
vn 0.159654 0.967621 0.195498
vn 0.159654 0.967621 0.195498
vn -0.289662 0.954929 0.064861
vn -0.289662 0.954929 0.064861
vn -0.289662 0.954929 0.064861
vn -0.333943 0.938045 0.092486
vn -0.333943 0.938045 0.092486
vn -0.333943 0.938045 0.092486
vn -0.276045 0.952665 0.127391
vn -0.276045 0.952665 0.127391
vn -0.276045 0.952665 0.127391
vn -0.094189 0.993787 0.059289
vn -0.094189 0.993787 0.059289
vn -0.094189 0.993787 0.059289
vn 0.061493 0.996035 -0.064295
vn 0.061493 0.996035 -0.064295
vn 0.061493 0.996035 -0.064295
vn -0.043248 0.998803 0.022834
vn -0.043248 0.998803 0.022834
vn -0.043248 0.998803 0.022834
vn 0.078339 0.995214 -0.058417
vn 0.078339 0.995214 -0.058417
vn 0.078339 0.995214 -0.058417
vn 0.069093 0.986882 -0.145912
vn 0.069093 0.986882 -0.145912
vn 0.069093 0.986882 -0.145912
vn 0.093997 0.984387 -0.148821
vn 0.093997 0.984387 -0.148821
vn 0.093997 0.984387 -0.148821
vn 0.005609 0.993700 -0.111928
vn 0.005609 0.993700 -0.111928
vn 0.005609 0.993700 -0.111928
vn 0.040216 0.990141 -0.134179
vn 0.040216 0.990141 -0.134179
vn 0.040216 0.990141 -0.134179
vn -0.072919 0.997233 0.014456
vn -0.072919 0.997233 0.014456
vn -0.072919 0.997233 0.014456
vn -0.056365 0.998114 0.024322
vn -0.056365 0.998114 0.024322
vn -0.056365 0.998114 0.024322
vn -0.097764 0.987762 0.121525
vn -0.097764 0.987762 0.121525
vn -0.097764 0.987762 0.121525
vn -0.036309 0.997545 -0.059887
vn -0.036309 0.997545 -0.059887
vn -0.036309 0.997545 -0.059887
vn 0.169252 0.985250 -0.025208
vn 0.169252 0.985250 -0.025208
vn 0.169252 0.985250 -0.025208
vn 0.212380 0.977174 0.005154
vn 0.212380 0.977174 0.005154
vn 0.212380 0.977174 0.005154
vn -0.201916 0.977883 0.054546
vn -0.201916 0.977883 0.054546
vn -0.201916 0.977883 0.054546
vn -0.179964 0.983512 0.017787
vn -0.179964 0.983512 0.017787
vn -0.179964 0.983512 0.017787
vn -0.204762 0.977959 0.040864
vn -0.204762 0.977959 0.040864
vn -0.204762 0.977959 0.040864
vn -0.180776 0.981281 -0.066391
vn -0.180776 0.981281 -0.066391
vn -0.180776 0.981281 -0.066391
vn -0.172754 0.984859 -0.014431
vn -0.172754 0.984859 -0.014431
vn -0.172754 0.984859 -0.014431
vn -0.089746 0.989117 0.116594
vn -0.089746 0.989117 0.116594
vn -0.089746 0.989117 0.116594
vn -0.226931 0.962337 0.149702
vn -0.226931 0.962337 0.149702
vn -0.226931 0.962337 0.149702
vn 0.153131 0.967599 0.200758
vn 0.153131 0.967599 0.200758
vn 0.153131 0.967599 0.200758
vn 0.166517 0.971081 0.171093
vn 0.166517 0.971081 0.171093
vn 0.166517 0.971081 0.171093
vn 0.162630 0.979204 0.121290
vn 0.162630 0.979204 0.121290
vn 0.162630 0.979204 0.121290
vn 0.094765 0.974165 0.204991
vn 0.094765 0.974165 0.204991
vn 0.094765 0.974165 0.204991
vn 0.022143 0.994451 0.102847
vn 0.022143 0.994451 0.102847
vn 0.022143 0.994451 0.102847
vn 0.082944 0.972514 0.217570
vn 0.082944 0.972514 0.217570
vn 0.082944 0.972514 0.217570
vn 0.035030 0.998435 0.043606
vn 0.035030 0.998435 0.043606
vn 0.035030 0.998435 0.043606
vn 0.166401 0.965459 0.200500
vn 0.166401 0.965459 0.200500
vn 0.166401 0.965459 0.200500
vn 0.216256 0.976337 -0.000260
vn 0.216256 0.976337 -0.000260
vn 0.216256 0.976337 -0.000260
vn 0.225933 0.973940 0.019891
vn 0.225933 0.973940 0.019891
vn 0.225933 0.973940 0.019891
vn 0.218347 0.975836 0.008297
vn 0.218347 0.975836 0.008297
vn 0.218347 0.975836 0.008297
vn 0.150453 0.987526 0.046447
vn 0.150453 0.987526 0.046447
vn 0.150453 0.987526 0.046447
vn 0.139613 0.988591 0.056530
vn 0.139613 0.988591 0.056530
vn 0.139613 0.988591 0.056530
vn 0.090858 0.991983 0.087829
vn 0.090858 0.991983 0.087829
vn 0.090858 0.991983 0.087829
vn 0.109188 0.993772 0.022260
vn 0.109188 0.993772 0.022260
vn 0.109188 0.993772 0.022260
vn 0.165101 0.982570 0.085428
vn 0.165101 0.982570 0.085428
vn 0.165101 0.982570 0.085428
vn 0.122949 0.984107 -0.128125
vn 0.122949 0.984108 -0.128125
vn 0.122949 0.984107 -0.128125
vn 0.127721 0.983488 -0.128216
vn 0.127721 0.983488 -0.128216
vn 0.127721 0.983488 -0.128216
vn 0.115237 0.983091 -0.142311
vn 0.115237 0.983091 -0.142311
vn 0.115237 0.983091 -0.142311
vn 0.140772 0.989547 -0.031316
vn 0.140772 0.989547 -0.031316
vn 0.140773 0.989547 -0.031316
vn 0.142116 0.989849 0.001532
vn 0.142116 0.989849 0.001532
vn 0.142116 0.989849 0.001532
vn 0.130691 0.990026 -0.052613
vn 0.130691 0.990026 -0.052613
vn 0.130691 0.990026 -0.052613
vn 0.133164 0.990790 0.024541
vn 0.133164 0.990790 0.024541
vn 0.133164 0.990790 0.024541
vn 0.135693 0.990527 0.021073
vn 0.135693 0.990527 0.021073
vn 0.135693 0.990527 0.021073
vn 0.135850 0.985031 -0.106105
vn 0.135850 0.985031 -0.106105
vn 0.135850 0.985031 -0.106105
vn 0.138656 0.985684 -0.095927
vn 0.138656 0.985684 -0.095927
vn 0.138656 0.985684 -0.095927
vn 0.138627 0.983074 -0.119788
vn 0.138627 0.983073 -0.119788
vn 0.138627 0.983074 -0.119788
vn 0.137468 0.984287 -0.110820
vn 0.137468 0.984287 -0.110820
vn 0.137468 0.984287 -0.110820
vn -0.037179 0.993674 -0.105970
vn -0.037179 0.993674 -0.105970
vn -0.037179 0.993674 -0.105970
vn -0.171542 0.980410 0.096795
vn -0.171542 0.980410 0.096795
vn -0.171542 0.980410 0.096795
vn -0.154996 0.985833 0.064105
vn -0.154996 0.985833 0.064105
vn -0.154996 0.985833 0.064105
vn -0.176096 0.978947 0.103219
vn -0.176096 0.978947 0.103219
vn -0.176096 0.978947 0.103219
vn -0.174010 0.978645 0.109429
vn -0.174010 0.978645 0.109429
vn -0.174010 0.978645 0.109429
vn -0.111127 0.993771 -0.008323
vn -0.111127 0.993771 -0.008323
vn -0.111127 0.993771 -0.008323
vn -0.119008 0.992745 0.017184
vn -0.119008 0.992745 0.017184
vn -0.119008 0.992745 0.017184
vn 0.176888 0.980294 -0.087948
vn 0.176888 0.980294 -0.087948
vn 0.176888 0.980294 -0.087948
vn 0.138877 0.989736 -0.033703
vn 0.138877 0.989736 -0.033703
vn 0.138877 0.989736 -0.033703
vn 0.228809 0.971889 -0.055488
vn 0.228809 0.971889 -0.055488
vn 0.228809 0.971889 -0.055488
vn -0.002884 0.990659 -0.136330
vn -0.002884 0.990659 -0.136330
vn -0.002884 0.990659 -0.136330
vn 0.060249 0.992365 -0.107615
vn 0.060249 0.992365 -0.107615
vn 0.060249 0.992365 -0.107615
vn 0.036471 0.994008 -0.103047
vn 0.036471 0.994008 -0.103047
vn 0.036471 0.994008 -0.103047
vn 0.017290 0.999815 -0.008451
vn 0.017290 0.999815 -0.008451
vn 0.017290 0.999815 -0.008451
vn -0.107807 0.980430 -0.164725
vn -0.107807 0.980430 -0.164725
vn -0.107807 0.980430 -0.164725
vn -0.142727 0.975985 -0.164565
vn -0.142727 0.975985 -0.164565
vn -0.142727 0.975985 -0.164565
vn -0.101083 0.988775 -0.110028
vn -0.101083 0.988775 -0.110028
vn -0.101083 0.988775 -0.110028
vn -0.042245 0.984628 0.169478
vn -0.042245 0.984628 0.169478
vn -0.042245 0.984628 0.169478
vn -0.053934 0.988943 0.138140
vn -0.053934 0.988943 0.138140
vn -0.053934 0.988943 0.138140
vn -0.105128 0.985189 0.135461
vn -0.105128 0.985190 0.135461
vn -0.105128 0.985189 0.135461
vn 0.025732 0.975464 0.218649
vn 0.025732 0.975464 0.218649
vn 0.025732 0.975464 0.218649
vn -0.021897 0.982411 0.185445
vn -0.021897 0.982411 0.185445
vn -0.021897 0.982411 0.185445
vn -0.139956 0.989957 -0.019928
vn -0.139956 0.989957 -0.019928
vn -0.139956 0.989957 -0.019928
vn -0.140580 0.986618 0.082598
vn -0.140580 0.986618 0.082598
vn -0.140580 0.986618 0.082598
vn -0.150291 0.988285 0.026564
vn -0.150291 0.988285 0.026564
vn -0.150291 0.988285 0.026564
vn -0.098408 0.995146 0.000425
vn -0.098408 0.995146 0.000425
vn -0.098408 0.995146 0.000425
vn -0.029005 0.994179 0.103766
vn -0.029005 0.994179 0.103766
vn -0.029005 0.994179 0.103766
vn 0.097596 0.986917 -0.128335
vn 0.097596 0.986917 -0.128335
vn 0.097596 0.986917 -0.128335
vn -0.077459 0.996887 -0.014696
vn -0.077459 0.996887 -0.014696
vn -0.077459 0.996887 -0.014696
vn 0.176812 0.980196 -0.089180
vn 0.176812 0.980196 -0.089180
vn 0.176812 0.980196 -0.089180
vn -0.107471 0.993904 -0.024606
vn -0.107471 0.993904 -0.024606
vn -0.107471 0.993904 -0.024606
vn -0.118584 0.992828 0.015174
vn -0.118584 0.992828 0.015174
vn -0.118584 0.992828 0.015174
vn -0.106256 0.993911 -0.029171
vn -0.106256 0.993911 -0.029171
vn -0.106256 0.993911 -0.029171
vn -0.104142 0.994034 -0.032434
vn -0.104142 0.994034 -0.032434
vn -0.104142 0.994033 -0.032434
vn 0.134353 0.983079 -0.124521
vn 0.134353 0.983079 -0.124521
vn 0.134353 0.983079 -0.124521
vn 0.138545 0.983042 -0.120143
vn 0.138545 0.983042 -0.120143
vn 0.138545 0.983042 -0.120143
vn 0.132283 0.984971 0.111052
vn 0.132283 0.984971 0.111052
vn 0.132283 0.984971 0.111052
vn 0.161809 0.986775 0.009666
vn 0.161809 0.986775 0.009666
vn 0.161809 0.986775 0.009666
vn 0.072602 0.995148 0.066410
vn 0.072602 0.995148 0.066410
vn 0.072602 0.995148 0.066410
vn 0.155590 0.963875 0.216188
vn 0.155590 0.963875 0.216188
vn 0.155590 0.963875 0.216189
vn -0.080468 0.993949 0.074764
vn -0.080468 0.993949 0.074764
vn -0.080468 0.993949 0.074764
vn -0.143203 0.988587 0.046779
vn -0.143204 0.988587 0.046779
vn -0.143203 0.988587 0.046779
vn 0.130948 0.991389 -0.000593
vn 0.130948 0.991389 -0.000593
vn 0.130948 0.991389 -0.000593
vn -0.101663 0.991373 -0.082725
vn -0.101663 0.991374 -0.082725
vn -0.101663 0.991374 -0.082725
vn -0.130132 0.990521 0.043981
vn -0.130132 0.990521 0.043981
vn -0.130132 0.990521 0.043981
vn 0.064446 0.995103 -0.074942
vn 0.064446 0.995103 -0.074942
vn 0.064446 0.995103 -0.074942
vn -0.317444 0.941623 0.112142
vn -0.317444 0.941623 0.112142
vn -0.317444 0.941623 0.112142
vn -0.310136 0.940116 0.141411
vn -0.310135 0.940116 0.141411
vn -0.310135 0.940116 0.141411
s off
f 65/1/1 89/2/2 52/3/3
f 62/4/4 89/2/5 60/5/6
f 34/6/7 88/7/8 90/8/9
f 6/9/10 40/10/11 85/11/12
f 4/12/13 74/13/14 44/14/15
f 12/15/16 55/16/17 79/17/18
f 12/15/19 77/18/20 55/16/21
f 55/16/22 77/18/23 58/19/24
f 26/20/25 55/16/26 66/21/27
f 44/14/28 74/13/29 54/22/30
f 28/23/31 49/24/32 1/25/33
f 49/24/34 53/26/35 64/27/36
f 28/23/37 53/26/38 49/24/39
f 51/28/40 50/29/41 64/27/42
f 9/30/43 72/31/44 47/32/45
f 22/33/46 43/34/47 70/35/48
f 87/36/49 42/37/50 41/38/51
f 23/39/52 40/10/53 38/40/54
f 24/41/55 88/7/56 69/42/57
f 92/43/58 59/44/59 2/45/60
f 59/44/61 28/46/62 27/47/63
f 92/43/64 28/46/65 59/44/66
f 65/48/67 28/46/68 92/43/69
f 29/49/70 30/50/71 51/28/72
f 64/27/73 29/49/74 51/28/75
f 30/50/76 29/49/77 47/32/78
f 31/51/79 32/52/80 44/14/81
f 31/51/82 44/14/83 3/53/84
f 44/14/85 67/54/86 4/12/87
f 44/14/88 32/52/89 67/54/90
f 33/55/91 60/5/92 26/20/93
f 34/6/94 33/55/95 26/20/96
f 60/5/97 33/55/98 62/4/99
f 34/6/100 26/20/101 66/21/102
f 87/36/103 89/2/104 62/4/105
f 61/56/106 52/3/107 87/36/108
f 36/57/109 60/5/110 37/58/111
f 35/59/112 60/5/113 36/57/114
f 36/57/115 37/58/116 2/60/117
f 60/5/118 68/61/119 5/62/120
f 60/5/121 35/59/122 68/61/123
f 37/58/124 89/2/125 92/63/126
f 37/58/127 92/63/128 2/60/129
f 69/42/130 88/7/131 6/9/132
f 86/64/133 88/7/134 24/41/135
f 90/8/136 88/7/137 86/64/138
f 38/40/139 40/10/140 39/65/141
f 39/65/142 40/10/143 66/21/144
f 38/40/145 39/65/146 7/66/147
f 40/10/148 34/6/149 66/21/150
f 88/7/151 40/10/152 6/9/153
f 63/67/154 42/37/155 87/36/156
f 87/36/157 84/68/158 61/56/159
f 87/36/160 41/38/161 84/68/162
f 90/8/163 43/34/164 34/6/165
f 70/35/166 43/34/167 90/8/168
f 43/34/169 87/36/170 33/55/171
f 34/6/172 43/34/173 33/55/174
f 63/67/175 87/36/176 43/34/177
f 45/69/178 30/50/179 21/70/180
f 44/14/181 30/50/182 45/69/183
f 44/14/184 45/69/185 3/53/186
f 46/71/187 82/72/188 9/30/189
f 20/73/190 82/72/191 46/71/192
f 47/32/193 46/71/194 9/30/195
f 71/74/196 46/71/197 61/56/198
f 71/74/199 20/73/200 46/71/201
f 30/50/202 47/32/203 19/75/204
f 47/32/205 72/31/206 19/75/207
f 30/50/208 81/76/209 8/77/210
f 30/50/211 19/75/212 81/76/213
f 54/22/214 51/28/215 44/14/216
f 49/24/217 48/78/218 18/79/219
f 48/78/220 49/24/221 10/80/222
f 49/24/223 80/81/224 1/25/225
f 80/81/226 49/24/227 18/79/228
f 50/29/229 51/28/230 17/82/231
f 64/27/232 50/29/233 10/80/234
f 52/3/235 46/71/236 25/83/237
f 52/3/238 25/83/239 65/1/240
f 46/71/241 52/3/242 61/56/243
f 64/27/244 53/26/245 29/49/246
f 65/1/247 29/49/248 53/26/249
f 25/83/250 29/49/251 65/1/252
f 54/22/253 74/13/254 16/84/255
f 15/85/256 55/16/257 26/20/258
f 15/85/259 79/17/260 55/16/261
f 75/86/262 15/85/263 26/20/264
f 57/87/265 39/65/266 58/19/267
f 56/88/268 39/65/269 57/87/270
f 57/87/271 58/19/272 13/89/273
f 39/65/274 76/90/275 7/66/276
f 39/65/277 56/88/278 76/90/279
f 58/19/280 77/18/281 14/91/282
f 58/19/283 78/92/284 13/89/285
f 58/19/286 14/91/287 78/92/288
f 55/16/289 58/19/290 66/21/291
f 39/65/292 66/21/293 58/19/294
f 47/32/295 29/49/296 25/83/297
f 65/1/298 53/26/299 28/23/300
f 46/71/301 47/32/302 25/83/303
f 51/28/304 73/93/305 17/82/306
f 49/24/307 64/27/308 10/80/309
f 11/94/310 51/28/311 54/22/312
f 11/94/313 73/93/314 51/28/315
f 30/50/316 83/95/317 21/70/318
f 8/77/319 83/95/320 30/50/321
f 87/36/322 62/4/323 33/55/324
f 63/67/325 43/34/326 22/33/327
f 88/7/328 34/6/329 40/10/330
f 85/11/331 40/10/332 23/39/333
f 89/2/334 65/1/335 92/63/336
f 60/5/337 89/2/338 37/58/339
f 52/3/340 89/2/341 87/36/342
f 5/62/343 75/86/344 26/20/345
f 60/5/346 5/62/347 26/20/348
f 44/14/349 51/28/350 30/50/351
f 28/46/352 91/96/353 27/47/354
f 1/97/355 91/96/356 28/46/357
