# This file uses centimeters as units for non-parametric coordinates.

v -18.035919 0.000000 0.000000
v 9.113983 0.000000 0.000000
v -15.459808 2.447250 0.000000
v -13.901764 6.592255 0.000000
v -10.758545 7.453560 0.000000
v -9.076935 10.216965 0.000000
v -5.444489 9.378113 0.000000
v -3.908051 7.132133 0.000000
v 1.645599 5.939552 0.000000
v 2.880280 2.627037 0.000000
v 6.923859 1.969933 0.000000
v 12.871490 0.000000 0.000000
v 18.035919 0.000000 0.000000
v 14.441681 1.298988 0.000000
v 16.706665 1.707642 0.000000
v -10.357910 0.000000 0.000000
v -3.111237 0.000000 0.000000
vt 0.484987 0.252401
vt 0.484987 0.252401
vt 0.484987 0.252401
vt 0.484987 0.252401
vt 0.484987 0.252401
vt 0.484987 0.252401
vt 0.484987 0.252401
vt 0.484987 0.252401
vt 0.484987 0.252401
vt 0.484987 0.252401
vt 0.484987 0.252401
vt 0.484987 0.252401
vt 0.484987 0.252401
vt 0.484987 0.252401
vt 0.484987 0.252401
vt 0.484987 0.252401
vt 0.484987 0.252401
vn 0.000000 0.000000 1.000000
vn 0.000000 0.000000 1.000000
vn 0.000000 0.000000 1.000000
vn 0.000000 0.000000 1.000000
vn 0.000000 0.000000 1.000000
vn 0.000000 0.000000 1.000000
vn 0.000000 0.000000 1.000000
vn 0.000000 0.000000 1.000000
vn 0.000000 -0.000000 1.000000
vn 0.000000 0.000000 1.000000
vn 0.000000 0.000000 1.000000
vn 0.000000 0.000000 1.000000
vn 0.000000 0.000000 1.000000
vn 0.000000 0.000000 1.000000
vn 0.000000 0.000000 1.000000
vn 0.000000 0.000000 1.000000
vn 0.000000 0.000000 1.000000
s 1
f 10/10/1 17/17/2 2/2/3 11/11/4
s off
f 13/13/5 15/15/6 14/14/7 12/12/8
s 1
f 1/1/9 16/16/10 5/5/11 4/4/12 3/3/13
f 5/5/11 16/16/10 17/17/2 8/8/14 7/7/15 6/6/16
f 8/8/14 17/17/2 10/10/1 9/9/17
