# This file uses centimeters as units for non-parametric coordinates.

v -0.078774 0.601649 0.100890
v 0.044771 0.600441 0.106315
v -0.013010 0.607236 0.038476
v -0.018239 0.609695 0.162050
v 0.021324 0.575815 0.186490
v -0.045655 0.609970 0.158672
v 0.012950 0.630707 0.074499
v -0.041959 0.631244 0.072088
v -0.140609 0.234476 -0.014258
v -0.089972 0.238359 0.098544
v -0.051582 0.258700 0.014684
v -0.183882 0.191556 0.118984
v -0.177550 0.229666 0.071095
v -0.217639 0.188967 0.043782
v -0.097063 0.273046 0.004566
v 0.060833 0.771951 0.070711
v 0.020905 0.805871 0.059106
v 0.040698 0.743422 0.127916
v -0.012128 0.728938 0.140195
v -0.031921 0.791387 0.071384
v 0.122296 0.510436 -0.024482
v 0.022863 0.510436 -0.098015
v 0.032166 0.541994 -0.054485
v 0.088140 0.481215 -0.152618
v 0.106851 0.515895 -0.109336
v 0.127650 0.516020 -0.091162
v 0.076358 0.541994 -0.021804
v 0.024474 0.169974 -0.119787
v -0.108722 0.182739 0.002402
v 0.018263 0.204803 -0.050993
v -0.101579 0.204101 -0.123031
v -0.171502 0.172333 -0.110142
v -0.082705 0.163823 -0.191601
v -0.040936 0.210477 0.003313
v 0.050489 0.385185 -0.016149
v -0.109171 0.385075 -0.056672
v -0.093416 0.398299 -0.010372
v -0.017694 0.393624 -0.087948
v 0.040987 0.349805 -0.093518
v -0.065454 0.349731 -0.120534
v -0.104136 0.623117 -0.052076
v -0.086780 0.631700 0.111505
v -0.018112 0.658199 0.021023
v -0.161070 0.619620 0.039289
v -0.170378 0.572325 0.098036
v -0.181949 0.566603 -0.011017
v -0.063983 0.678099 0.061440
v -0.071696 0.674284 -0.011262
v -0.021192 0.251317 0.174389
v 0.087326 0.227468 0.051339
v -0.022129 0.256591 0.061518
v 0.090359 0.244493 0.159910
v 0.146008 0.191685 0.139265
v 0.073663 0.207584 0.221298
v -0.015440 0.286841 0.114545
v 0.032790 0.276241 0.059855
v 0.114715 0.222079 0.059887
v 0.047441 0.256328 -0.088983
v 0.062712 0.273432 0.034935
v 0.151507 0.246036 -0.045820
v 0.155260 0.213032 -0.109434
v 0.200109 0.190199 -0.010188
v 0.032813 0.288654 -0.031230
v 0.064927 0.279249 -0.097905
v -0.058075 0.257083 -0.086623
v 0.031489 0.316140 -0.051002
v -0.007297 0.271315 -0.182623
v -0.048766 0.218364 -0.213776
v 0.033235 0.233141 -0.221298
v -0.023179 0.306289 -0.045987
v 0.074358 0.733600 0.059522
v 0.078801 0.738979 -0.105107
v 0.039240 0.765539 0.011747
v 0.141568 0.765119 -0.021853
v 0.169901 0.727987 0.034132
v 0.172863 0.731573 -0.075620
v 0.012324 0.778759 -0.083796
v -0.117656 0.768471 0.017191
v -0.011451 0.801701 0.023037
v -0.006618 0.823127 -0.030051
v -0.097224 0.768186 -0.087950
v -0.067533 0.722767 -0.141547
v -0.064128 0.793989 0.043208
v -0.154187 0.715909 -0.074222
v 0.047957 0.510436 0.152072
v 0.143102 0.510436 0.017607
v 0.030107 0.520176 0.036609
v 0.160523 0.523355 0.129133
v 0.217639 0.481216 0.103008
v 0.154208 0.481216 0.192652
v 0.085395 0.549236 0.031210
v 0.043109 0.549236 0.090973
v -0.008831 0.510436 -0.060744
v -0.105249 0.510436 0.072812
v 0.007921 0.520176 0.054885
v -0.121609 0.523355 -0.038875
v -0.178970 0.481216 -0.013294
v -0.114691 0.481216 -0.102331
v -0.047415 0.549236 0.059757
v -0.004563 0.549236 0.000399
v -0.024169 0.000000 0.022692
v 0.009402 0.000000 0.029850
v -0.016603 0.779559 0.021329
v 0.001836 0.779559 0.025260
v -0.005417 0.779559 0.014076
v -0.003804 0.000000 0.009486
vt 0.446531 0.288853
vt 0.446531 0.288853
vt 0.446531 0.288853
vt 0.446531 0.288853
vt 0.446531 0.288853
vt 0.446531 0.288853
vt 0.446531 0.288853
vt 0.446531 0.288853
vt 0.446531 0.288853
vt 0.446531 0.288853
vt 0.446531 0.288853
vt 0.446531 0.288853
vt 0.446531 0.288853
vt 0.446531 0.288853
vt 0.446531 0.288853
vt 0.446531 0.288853
vt 0.446531 0.288853
vt 0.446531 0.288853
vt 0.446531 0.288853
vt 0.446531 0.288853
vt 0.446531 0.288853
vt 0.446531 0.288853
vt 0.446531 0.288853
vt 0.446531 0.288853
vt 0.446531 0.288853
vt 0.446531 0.288853
vt 0.446531 0.288853
vt 0.446531 0.288853
vt 0.446531 0.288853
vt 0.446531 0.288853
vt 0.446531 0.288853
vt 0.446531 0.288853
vt 0.446531 0.288853
vt 0.446531 0.288853
vt 0.446531 0.288853
vt 0.446531 0.288853
vt 0.446531 0.288853
vt 0.446531 0.288853
vt 0.446531 0.288853
vt 0.446531 0.288853
vt 0.446531 0.303681
vt 0.446531 0.303681
vt 0.446531 0.303681
vt 0.446531 0.303681
vt 0.446531 0.303681
vt 0.446531 0.303681
vt 0.446531 0.303681
vt 0.446531 0.303681
vt 0.446531 0.303681
vt 0.446531 0.303681
vt 0.446531 0.303681
vt 0.446531 0.303681
vt 0.446531 0.303681
vt 0.446531 0.303681
vt 0.446531 0.303681
vt 0.446531 0.303681
vt 0.446531 0.303681
vt 0.446531 0.303681
vt 0.446531 0.303681
vt 0.446531 0.303681
vt 0.446531 0.303681
vt 0.446531 0.303681
vt 0.446531 0.303681
vt 0.446531 0.303681
vt 0.446531 0.303681
vt 0.446531 0.303681
vt 0.446531 0.303681
vt 0.446531 0.303681
vt 0.446531 0.303681
vt 0.446531 0.303681
vt 0.446531 0.303681
vt 0.446531 0.303681
vt 0.446531 0.303681
vt 0.446531 0.303681
vt 0.446531 0.303681
vt 0.446531 0.303681
vt 0.446531 0.288853
vt 0.446531 0.288853
vt 0.446531 0.288853
vt 0.446531 0.288853
vt 0.446531 0.288853
vt 0.446531 0.288853
vt 0.446531 0.288853
vt 0.446531 0.303681
vt 0.446531 0.303681
vt 0.446531 0.303681
vt 0.446531 0.303681
vt 0.446531 0.303681
vt 0.446531 0.303681
vt 0.446531 0.303681
vt 0.446531 0.303681
vt 0.446531 0.303681
vt 0.446531 0.303681
vt 0.446531 0.303681
vt 0.446531 0.303681
vt 0.446531 0.303681
vt 0.446531 0.303681
vt 0.446531 0.303681
vt 0.446531 0.303681
vt 0.446531 0.303681
vt 0.446531 0.303681
vt 0.446531 0.303681
vt 0.446531 0.303681
vt 0.446531 0.303681
vt 0.446531 0.303681
vt 0.446531 0.303681
vt 0.446531 0.303681
vt 0.446531 0.303681
vt 0.446531 0.303681
vt 0.446531 0.303681
vt 0.446531 0.288853
vt 0.446531 0.288853
vt 0.446531 0.288853
vt 0.446531 0.288853
vt 0.446531 0.288853
vt 0.446531 0.288853
vt 0.446531 0.288853
vt 0.446531 0.288853
vt 0.446531 0.288853
vt 0.446531 0.288853
vt 0.446531 0.288853
vt 0.446531 0.288853
vt 0.446531 0.288853
vt 0.446531 0.288853
vt 0.446531 0.288853
vt 0.446531 0.288853
vt 0.446531 0.288853
vt 0.446531 0.288853
vt 0.446531 0.288853
vt 0.446531 0.288853
vt 0.446531 0.288853
vt 0.446531 0.288853
vt 0.446531 0.288853
vt 0.446531 0.288853
vt 0.446531 0.260196
vt 0.446531 0.260196
vt 0.446531 0.260196
vt 0.446531 0.260195
vt 0.446531 0.260195
vt 0.446531 0.260196
vt 0.446531 0.260195
vt 0.446531 0.260195
vt 0.446531 0.260196
vt 0.446531 0.260196
vt 0.446531 0.260196
vt 0.446531 0.260196
vt 0.446531 0.260196
vt 0.446531 0.260196
vt 0.446531 0.260196
vt 0.446531 0.260196
vt 0.446531 0.260195
vt 0.446531 0.260195
vn 0.454709 0.805343 0.380344
vn 0.454709 0.805343 0.380344
vn 0.454709 0.805344 0.380344
vn 0.434419 0.828410 0.353577
vn 0.434419 0.828410 0.353577
vn 0.434419 0.828410 0.353577
vn -0.525824 0.830955 0.181723
vn -0.525824 0.830955 0.181723
vn -0.525824 0.830955 0.181723
vn -0.000731 0.972445 0.233130
vn -0.000731 0.972445 0.233130
vn -0.000731 0.972445 0.233130
vn -0.019560 0.971123 0.237776
vn -0.019560 0.971123 0.237776
vn -0.019560 0.971123 0.237776
vn 0.032763 0.826424 -0.562095
vn 0.032763 0.826424 -0.562095
vn 0.032763 0.826424 -0.562095
vn -0.258550 0.772226 0.580360
vn -0.258550 0.772227 0.580360
vn -0.258550 0.772226 0.580360
vn -0.602651 0.774409 -0.192620
vn -0.602651 0.774409 -0.192620
vn -0.602651 0.774409 -0.192620
vn -0.606538 0.758140 -0.239450
vn -0.606538 0.758140 -0.239450
vn -0.606538 0.758140 -0.239450
vn 0.103515 0.771221 0.628095
vn 0.103515 0.771221 0.628095
vn 0.103515 0.771220 0.628095
vn -0.149369 0.974408 0.167980
vn -0.149369 0.974408 0.167980
vn -0.149369 0.974408 0.167980
vn -0.043494 0.733550 0.678243
vn -0.043494 0.733550 0.678243
vn -0.043494 0.733550 0.678243
vn 0.459822 0.719392 0.520614
vn 0.459822 0.719392 0.520614
vn 0.459822 0.719392 0.520614
vn -0.043492 0.733550 0.678243
vn -0.043492 0.733550 0.678243
vn -0.043492 0.733550 0.678243
vn -0.109882 0.815733 -0.567895
vn -0.109882 0.815733 -0.567895
vn -0.109882 0.815733 -0.567895
vn -0.145453 0.801832 -0.579576
vn -0.145453 0.801832 -0.579576
vn -0.145453 0.801832 -0.579576
vn 0.179739 0.960532 -0.212302
vn 0.179739 0.960532 -0.212302
vn 0.179739 0.960532 -0.212302
vn 0.567041 0.815785 0.113841
vn 0.567041 0.815785 0.113841
vn 0.567041 0.815785 0.113841
vn 0.171430 0.957536 -0.231810
vn 0.171430 0.957536 -0.231810
vn 0.171430 0.957536 -0.231810
vn 0.245211 0.863890 -0.439962
vn 0.245211 0.863890 -0.439962
vn 0.245211 0.863890 -0.439962
vn -0.388005 0.910921 0.140270
vn -0.388005 0.910921 0.140270
vn -0.388005 0.910921 0.140270
vn 0.034302 0.997178 -0.066784
vn 0.034302 0.997178 -0.066784
vn 0.034302 0.997178 -0.066784
vn -0.377166 0.917596 0.125553
vn -0.377166 0.917596 0.125553
vn -0.377166 0.917596 0.125553
vn 0.247237 0.873287 -0.419814
vn 0.247237 0.873287 -0.419814
vn 0.247237 0.873287 -0.419814
vn -0.276152 0.748279 -0.603174
vn -0.276152 0.748279 -0.603174
vn -0.276152 0.748279 -0.603174
vn 0.521408 0.749987 -0.407005
vn 0.521408 0.749987 -0.407005
vn 0.521408 0.749987 -0.407005
vn -0.164649 0.961807 -0.218674
vn -0.164649 0.961807 -0.218674
vn -0.164649 0.961807 -0.218674
vn 0.091891 0.995326 0.029716
vn 0.091891 0.995326 0.029716
vn 0.091891 0.995326 0.029716
vn -0.561613 0.685699 0.463042
vn -0.561613 0.685699 0.463042
vn -0.561613 0.685699 0.463042
vn -0.535829 0.726845 0.429633
vn -0.535829 0.726845 0.429633
vn -0.535829 0.726845 0.429633
vn -0.661740 0.676809 -0.322538
vn -0.661740 0.676809 -0.322538
vn -0.661740 0.676809 -0.322538
vn -0.517619 0.855553 0.010025
vn -0.517619 0.855553 0.010025
vn -0.517619 0.855553 0.010025
vn -0.634484 0.648679 -0.420292
vn -0.634484 0.648679 -0.420292
vn -0.634484 0.648679 -0.420292
vn 0.332894 0.939162 -0.084596
vn 0.332894 0.939162 -0.084596
vn 0.332894 0.939162 -0.084596
vn 0.655279 0.743253 -0.134850
vn 0.655279 0.743253 -0.134850
vn 0.655279 0.743253 -0.134850
vn 0.120633 0.835936 0.535406
vn 0.120633 0.835936 0.535406
vn 0.120633 0.835936 0.535406
vn -0.314277 0.841114 -0.440178
vn -0.314277 0.841114 -0.440178
vn -0.314277 0.841114 -0.440178
vn 0.329025 0.938084 0.108355
vn 0.329025 0.938084 0.108355
vn 0.329025 0.938084 0.108355
vn 0.648629 0.748936 -0.135555
vn 0.648629 0.748936 -0.135555
vn 0.648629 0.748936 -0.135555
vn 0.118801 0.848768 0.515247
vn 0.118801 0.848768 0.515247
vn 0.118801 0.848768 0.515246
vn 0.573747 0.732815 0.365783
vn 0.573747 0.732815 0.365783
vn 0.573747 0.732815 0.365783
vn 0.256969 0.863950 -0.433078
vn 0.256969 0.863950 -0.433078
vn 0.256969 0.863950 -0.433078
vn 0.343864 0.937088 0.060201
vn 0.343864 0.937088 0.060201
vn 0.343864 0.937088 0.060201
vn 0.269302 0.867840 -0.417529
vn 0.269302 0.867840 -0.417529
vn 0.269302 0.867840 -0.417529
vn 0.560337 0.744148 0.363684
vn 0.560337 0.744148 0.363684
vn 0.560337 0.744148 0.363684
vn -0.680826 0.685303 -0.258525
vn -0.680826 0.685303 -0.258525
vn -0.680826 0.685303 -0.258525
vn 0.388316 0.826081 -0.408413
vn 0.388316 0.826081 -0.408413
vn 0.388316 0.826081 -0.408413
vn -0.194470 0.944606 -0.264390
vn -0.194470 0.944606 -0.264390
vn -0.194470 0.944606 -0.264390
vn -0.676502 0.690723 -0.255434
vn -0.676502 0.690723 -0.255434
vn -0.676502 0.690723 -0.255434
vn 0.371729 0.839850 -0.395562
vn 0.371729 0.839850 -0.395562
vn 0.371729 0.839850 -0.395563
vn 0.204035 0.879487 -0.429969
vn 0.204035 0.879487 -0.429969
vn 0.204035 0.879487 -0.429969
vn 0.163292 0.858238 0.486583
vn 0.163292 0.858238 0.486583
vn 0.163292 0.858238 0.486583
vn 0.172608 0.872773 0.456590
vn 0.172608 0.872773 0.456590
vn 0.172608 0.872773 0.456590
vn -0.076682 0.966334 -0.245598
vn -0.076682 0.966334 -0.245598
vn -0.076682 0.966334 -0.245598
vn -0.514021 0.816179 -0.263883
vn -0.514021 0.816179 -0.263883
vn -0.514021 0.816179 -0.263883
vn -0.617375 0.741621 0.262388
vn -0.617375 0.741621 0.262388
vn -0.617375 0.741621 0.262388
vn -0.062957 0.758631 -0.648471
vn -0.062957 0.758632 -0.648471
vn -0.062957 0.758632 -0.648471
vn -0.036042 0.752475 -0.657634
vn -0.036042 0.752475 -0.657634
vn -0.036042 0.752475 -0.657634
vn 0.007816 0.927047 0.374863
vn 0.007816 0.927047 0.374863
vn 0.007816 0.927047 0.374863
vn -0.436326 0.899658 0.015312
vn -0.436326 0.899658 0.015312
vn -0.436326 0.899658 0.015312
vn 0.529860 0.829023 -0.178799
vn 0.529860 0.829023 -0.178799
vn 0.529860 0.829023 -0.178799
vn 0.519822 0.835528 -0.177985
vn 0.519822 0.835528 -0.177985
vn 0.519822 0.835528 -0.177985
vn 0.028303 0.844848 0.534258
vn 0.028303 0.844848 0.534258
vn 0.028303 0.844848 0.534258
vn 0.175047 0.976738 0.123858
vn 0.175047 0.976738 0.123858
vn 0.175047 0.976738 0.123858
vn 0.003888 0.833116 0.553084
vn 0.003888 0.833116 0.553084
vn 0.003888 0.833116 0.553084
vn -0.464366 0.822439 -0.328570
vn -0.464366 0.822439 -0.328570
vn -0.464366 0.822439 -0.328570
vn -0.531538 0.829022 0.173750
vn -0.531538 0.829022 0.173750
vn -0.531538 0.829022 0.173750
vn -0.521490 0.835529 0.173031
vn -0.521490 0.835529 0.173031
vn -0.521490 0.835529 0.173031
vn -0.023223 0.844848 -0.534502
vn -0.023223 0.844848 -0.534502
vn -0.023223 0.844848 -0.534502
vn -0.173862 0.976738 -0.125516
vn -0.173862 0.976738 -0.125516
vn -0.173862 0.976738 -0.125516
vn 0.001370 0.833116 -0.553096
vn 0.001370 0.833116 -0.553096
vn 0.001370 0.833116 -0.553096
vn 0.461220 0.822439 0.332971
vn 0.461220 0.822439 0.332971
vn 0.461220 0.822439 0.332971
vn -0.208545 0.003734 0.978006
vn -0.208545 0.003734 0.978006
vn -0.208545 0.003734 0.978006
vn -0.208545 0.003734 0.978006
vn 0.000000 1.000000 -0.000010
vn 0.000000 1.000000 -0.000010
vn 0.000000 1.000000 -0.000010
vn 0.839010 0.004940 -0.544094
vn 0.839010 0.004940 -0.544094
vn 0.839010 0.004940 -0.544094
vn 0.839010 0.004940 -0.544094
vn 0.000000 -1.000000 0.000000
vn 0.000000 -1.000000 0.000000
vn 0.000000 -1.000000 0.000000
vn -0.544080 0.003814 -0.839024
vn -0.544080 0.003814 -0.839024
vn -0.544080 0.003814 -0.839024
vn -0.544080 0.003814 -0.839024
s off
f 2/1/1 4/2/2 5/3/3
f 2/1/4 7/4/5 4/2/6
f 6/5/7 8/6/8 1/7/9
f 7/4/10 8/6/11 4/2/12
f 4/2/13 8/6/14 6/5/15
f 3/8/16 8/6/17 7/4/18
f 10/9/19 13/10/20 12/11/21
f 14/12/22 15/13/23 9/14/24
f 14/12/25 13/10/26 15/13/27
f 13/10/28 11/15/29 15/13/30
f 10/9/31 11/15/32 13/10/33
f 17/16/34 19/17/35 18/18/36
f 16/19/37 17/16/38 18/18/39
f 17/16/40 20/20/41 19/17/42
f 22/21/43 23/22/44 24/23/45
f 25/24/46 24/23/47 23/22/48
f 23/22/49 26/25/50 25/24/51
f 26/25/52 27/26/53 21/27/54
f 23/22/55 27/26/56 26/25/57
f 33/28/58 31/29/59 28/30/60
f 32/31/61 34/32/62 31/29/63
f 31/29/64 34/32/65 30/33/66
f 29/34/67 34/32/68 32/31/69
f 31/29/70 30/33/71 28/30/72
f 38/35/73 40/36/74 36/37/75
f 35/38/76 39/39/77 38/35/78
f 36/37/79 37/40/80 38/35/81
f 35/38/82 38/35/83 37/40/84
f 42/41/85 44/42/86 45/43/87
f 42/44/88 47/45/89 44/46/90
f 46/47/91 48/48/92 41/49/93
f 47/50/94 48/51/95 44/52/96
f 44/53/97 48/54/98 46/55/99
f 43/56/100 48/57/101 47/58/102
f 50/59/103 52/60/104 53/61/105
f 54/62/106 52/63/107 49/64/108
f 55/65/109 56/66/110 51/67/111
f 52/68/112 56/69/113 55/70/114
f 50/71/115 56/72/116 52/73/117
f 52/74/118 55/75/119 49/76/120
f 62/77/121 60/78/122 57/79/123
f 61/80/124 63/81/125 60/78/126
f 60/78/127 63/81/128 59/82/129
f 58/83/130 63/81/131 61/80/132
f 60/78/133 59/82/134 57/79/135
f 65/84/136 67/85/137 68/86/138
f 69/87/139 67/88/140 64/89/141
f 67/90/142 70/91/143 66/92/144
f 65/93/145 70/94/146 67/95/147
f 67/96/148 66/97/149 64/98/150
f 72/99/151 74/100/152 76/101/153
f 74/102/154 73/103/155 75/104/156
f 71/105/157 75/106/158 73/107/159
f 74/108/160 72/109/161 73/110/162
f 80/111/163 84/112/164 78/113/165
f 80/111/166 81/114/167 84/112/168
f 82/115/169 80/111/170 77/116/171
f 82/115/172 81/114/173 80/111/174
f 79/117/175 80/111/176 83/118/177
f 78/113/178 83/118/179 80/111/180
f 86/119/181 88/120/182 89/121/183
f 86/119/184 91/122/185 88/120/186
f 90/123/187 92/124/188 85/125/189
f 91/122/190 92/124/191 88/120/192
f 88/120/193 92/124/194 90/123/195
f 87/126/196 92/124/197 91/122/198
f 94/127/199 96/128/200 97/129/201
f 94/127/202 99/130/203 96/128/204
f 98/131/205 100/132/206 93/133/207
f 99/130/208 100/132/209 96/128/210
f 96/128/211 100/132/212 98/131/213
f 95/134/214 100/132/215 99/130/216
f 101/135/217 102/136/218 104/137/219 103/138/220
f 103/139/221 104/140/222 105/141/223
f 105/142/224 104/143/225 102/144/226 106/145/227
f 106/146/228 102/147/229 101/148/230
f 106/149/231 101/150/232 103/151/233 105/152/234
