# This file uses centimeters as units for non-parametric coordinates.

v -11.189871 0.000000 -3.402713
v 11.189871 0.000002 3.402713
v -9.335213 2.493695 -2.988662
v -5.944607 2.984992 -2.131888
v -4.571171 5.884780 -1.669950
v -2.023003 6.489165 -0.915337
v 2.953814 3.107142 0.554064
v 7.670496 2.743914 2.167036
v -4.895427 0.000002 -1.841646
v 3.811240 0.000002 0.849796
vt 0.484987 0.252401
vt 0.484987 0.252401
vt 0.484987 0.252401
vt 0.484987 0.252401
vt 0.484987 0.252401
vt 0.484987 0.252401
vt 0.484987 0.252401
vt 0.484987 0.252401
vt 0.484987 0.252401
vt 0.484987 0.252401
vn -0.325539 0.003958 0.945520
vn -0.325539 0.003958 0.945520
vn -0.295848 -0.002901 0.955231
vn -0.302799 -0.001301 0.953054
vn -0.282899 -0.001452 0.959149
vn -0.281699 -0.000992 0.959502
vn -0.242848 0.013784 0.969966
vn -0.242848 0.013784 0.969966
vn -0.290111 -0.004217 0.956984
vn -0.290112 -0.004217 0.956984
s 1
f 2/1/1 8/2/2 7/3/3 10/4/4
f 9/5/5 4/6/6 3/7/7 1/8/8
f 10/4/4 7/3/3 6/9/9 5/10/10 4/6/6 9/5/5
