# This file uses centimeters as units for non-parametric coordinates.

v -27.519958 0.000002 -0.851199
v 27.519958 0.000000 2.142054
v -26.446592 3.367592 -0.894412
v -21.380058 4.060769 -1.213379
v -17.416166 2.283806 -1.546669
v -12.766370 5.939316 -1.802806
v -6.740732 5.397016 -2.106971
v -2.975271 9.858572 -1.933830
v -0.210089 9.330168 -1.856051
v 4.104748 2.806512 -1.616606
v 7.742899 2.175161 -1.062679
v 11.696986 3.584181 -0.278252
v 12.534780 5.752679 -0.135130
v 15.871208 5.161035 0.377317
v 17.221655 3.056944 0.509418
v 23.963116 2.602578 1.518582
v -17.427118 0.000000 -1.546669
v -6.286718 0.000000 -2.142055
v 7.737797 0.000000 -1.094920
v 4.500895 0.000000 -1.621757
v 17.681498 0.000000 0.546857
vt 0.484987 0.252401
vt 0.484987 0.252401
vt 0.484987 0.252401
vt 0.484987 0.252401
vt 0.484987 0.252401
vt 0.484987 0.252401
vt 0.484987 0.252401
vt 0.484987 0.252401
vt 0.484987 0.252401
vt 0.484987 0.252401
vt 0.484987 0.252401
vt 0.484987 0.252401
vt 0.484987 0.252401
vt 0.484987 0.252401
vt 0.484987 0.252401
vt 0.484987 0.252401
vt 0.484987 0.252401
vt 0.484987 0.252401
vt 0.484987 0.252401
vt 0.484987 0.252401
vt 0.484987 0.252401
vn -0.155032 0.005336 0.987895
vn -0.155032 0.005336 0.987895
vn -0.157232 -0.020795 0.987343
vn -0.156709 -0.014470 0.987539
vn 0.059063 -0.004224 0.998245
vn 0.058564 -0.003895 0.998276
vn 0.069575 -0.011148 0.997514
vn 0.069575 -0.011148 0.997515
vn 0.069575 -0.011148 0.997515
vn -0.007912 -0.002187 0.999966
vn -0.012229 -0.002344 0.999923
vn 0.052612 0.000022 0.998615
vn -0.157703 -0.026801 0.987123
vn -0.157715 -0.026925 0.987118
vn -0.049973 -0.004294 0.998741
vn -0.057341 -0.005356 0.998340
vn -0.044620 -0.003523 0.998998
vn -0.044620 -0.003523 0.998998
vn -0.157846 -0.028319 0.987058
vn -0.157846 -0.028319 0.987058
vn -0.157846 -0.028319 0.987058
s 1
f 2/1/1 16/2/2 15/3/3 21/4/4
f 17/5/5 5/6/6 4/7/7 3/8/8 1/9/9
f 18/10/10 7/11/11 6/12/12 5/6/6 17/5/5
f 19/13/13 11/14/14 10/15/15 20/16/16
f 20/16/16 10/15/15 9/17/17 8/18/18 7/11/11 18/10/10
f 21/4/4 15/3/3 14/19/19 13/20/20 12/21/21 11/14/14 19/13/13
