# This file uses centimeters as units for non-parametric coordinates.

v 0.387440 -0.085391 -0.167646
v 0.387440 -0.085391 -0.311501
v 0.353161 -0.060012 -0.272694
v 0.353161 -0.060012 -0.208758
v 0.453505 -0.060012 -0.208758
v 0.453505 -0.060012 -0.272694
v -0.620409 -0.085391 0.269181
v -0.478420 -0.085391 0.292274
v -0.527424 -0.060012 0.352114
v -0.511288 -0.060012 0.252456
v -0.574392 -0.060012 0.242193
v -0.590530 -0.060012 0.341850
v -0.357224 0.013473 -0.412371
v -0.298324 0.017990 -0.281157
v -0.253667 0.030322 -0.378704
v -0.400195 0.027668 -0.313086
v -0.407557 -0.002463 -0.257380
v -0.446826 -0.005474 -0.344856
v -0.280393 0.049015 -0.332157
v -0.306571 0.047008 -0.390474
v 0.248169 -0.054770 0.450759
v 0.341707 -0.031799 0.460667
v 0.275410 -0.046719 0.393132
v 0.344805 -0.058892 0.514464
v 0.385668 -0.046816 0.428023
v 0.964323 -0.026274 0.028437
v 0.917877 0.001852 0.014938
v 0.940901 -0.040576 0.094979
v 0.879452 -0.057425 0.109262
v 0.856428 -0.014997 0.029220
v 0.645483 -0.085391 -0.799207
v 0.529821 -0.085391 -0.884742
v 0.540640 -0.060012 -0.834107
v 0.592047 -0.060012 -0.796092
v 0.651711 -0.060012 -0.876770
v 0.600306 -0.060012 -0.914785
v 0.292160 -0.085390 0.005152
v 0.435469 -0.085390 -0.122032
v 0.293413 -0.085390 -0.140540
v 0.434475 -0.050574 0.018757
v 0.509584 -0.085390 0.008204
v 0.414043 -0.085390 0.092992
v 0.362141 -0.051588 -0.126785
v 0.298449 -0.051588 -0.070259
v 0.115961 -0.046723 -0.097333
v 0.246943 -0.018905 0.041457
v 0.241512 -0.016942 -0.083286
v 0.122507 -0.013244 0.028420
v 0.146023 -0.044563 0.095840
v 0.058701 -0.063109 0.003312
v 0.236958 0.014562 -0.023028
v 0.178743 0.002198 -0.084712
v -0.175168 -0.045834 -0.511210
v -0.330104 -0.030985 -0.369079
v -0.182393 -0.016649 -0.431189
v -0.321795 0.013653 -0.514984
v -0.251252 -0.010050 -0.368019
v -0.299842 -0.018999 -0.594746
v -0.403131 -0.009100 -0.499992
v 0.064894 -0.048579 -0.648315
v 0.148966 -0.011171 -0.596704
v 0.171303 -0.018845 -0.684695
v 0.202208 -0.014792 -0.627743
v 0.239561 -0.055615 -0.691175
v 0.115749 -0.055701 -0.722600
v 0.207033 -0.044441 -0.563032
v -0.651982 -0.056978 0.042526
v -0.654351 -0.056978 0.234119
v -0.563098 -0.030896 0.140151
v -0.730451 -0.047787 0.140945
v -0.748439 -0.092338 0.205322
v -0.746860 -0.092338 0.077593
v -0.620946 -0.010954 0.096546
v -0.621999 -0.010954 0.181699
v -0.250395 0.032619 -0.206635
v -0.124166 0.004878 -0.349770
v -0.251486 0.027425 -0.337929
v -0.120638 0.044471 -0.223478
v -0.055908 -0.002756 -0.247494
v -0.140060 0.015739 -0.152071
v -0.187603 0.050282 -0.339863
v -0.243704 0.062611 -0.276248
v -0.101208 -0.001148 -0.313534
v -0.179459 0.038691 -0.486702
v -0.161697 0.047256 -0.342559
v -0.058411 0.046509 -0.436494
v -0.054043 0.022318 -0.510490
v -0.001875 -0.004242 -0.395046
v -0.196476 0.064962 -0.419523
v -0.140672 0.060756 -0.479311
v -0.283748 0.034973 -0.466187
v -0.243157 0.080879 -0.418919
v -0.224683 0.071316 -0.577856
v -0.272920 0.023924 -0.614094
v -0.177535 0.041112 -0.622844
v -0.179568 0.092338 -0.424751
v 0.115961 -0.046723 -0.097333
v 0.246943 -0.018905 0.041457
v 0.241512 -0.016942 -0.083286
v 0.122507 -0.013244 0.028420
v 0.146023 -0.044563 0.095840
v 0.058701 -0.063109 0.003312
v 0.236958 0.014562 -0.023028
v 0.178743 0.002198 -0.084712
v 0.036959 -0.065699 0.529927
v 0.226482 -0.020129 0.527647
v 0.087511 -0.018336 0.489897
v 0.131294 -0.009909 0.608676
v 0.197380 -0.030047 0.639487
v 0.071032 -0.060427 0.641006
v 0.171745 0.001917 0.488884
v 0.969776 -0.059123 -0.156092
v 1.042788 -0.008927 -0.059249
v 0.926054 -0.036778 -0.105277
v 0.964607 -0.065380 0.035407
v 1.075745 -0.037920 0.005872
v 1.079191 -0.033748 -0.121792
v 0.921833 -0.022770 -0.121919
v 0.770638 -0.034737 -0.004449
v 0.894176 -0.007413 0.002352
v 0.794403 -0.015279 -0.126751
v 0.728146 -0.061888 -0.110782
v 0.828939 -0.053910 -0.189095
v 0.832600 0.012192 -0.007193
v 0.899799 0.017510 -0.059402
v 0.551075 -0.085390 -0.617983
v 0.661749 -0.085390 -0.774395
v 0.530312 -0.085390 -0.752292
v 0.682013 -0.050574 -0.644667
v 0.594624 -0.051588 -0.758572
v 0.545435 -0.051588 -0.689054
v 0.674669 -0.085390 -0.570780
v 0.748451 -0.085390 -0.675056
v 0.519195 -0.085390 -0.845965
v 0.407041 -0.085390 -0.690612
v 0.538680 -0.085390 -0.711464
v 0.388009 -0.050574 -0.820528
v 0.474313 -0.051588 -0.705798
v 0.524159 -0.051588 -0.774843
v 0.396056 -0.085390 -0.894341
v 0.321286 -0.085390 -0.790772
v 0.791987 -0.085390 0.818762
v 0.959434 -0.085390 0.725620
v 0.831368 -0.085390 0.688688
v 0.921582 -0.050574 0.851348
v 0.892068 -0.051588 0.710848
v 0.817649 -0.051588 0.752244
v 0.882997 -0.085390 0.914785
v 0.994628 -0.085390 0.852691
v -0.891298 -0.085390 -0.482409
v -0.979906 -0.085390 -0.312521
v -0.852640 -0.085390 -0.352119
v -1.017450 -0.050574 -0.438340
v -0.915522 -0.051588 -0.337238
v -0.876141 -0.051588 -0.412744
v -1.020121 -0.085390 -0.512541
v -1.079191 -0.085390 -0.399284
vt 0.447094 0.283132
vt 0.447094 0.283132
vt 0.447094 0.283132
vt 0.447094 0.283132
vt 0.447094 0.283132
vt 0.447094 0.283132
vt 0.447094 0.283132
vt 0.447094 0.283132
vt 0.447094 0.283132
vt 0.447094 0.283132
vt 0.447094 0.283132
vt 0.447094 0.283132
vt 0.447094 0.306142
vt 0.447094 0.306142
vt 0.447094 0.306142
vt 0.447094 0.306142
vt 0.447094 0.306142
vt 0.447094 0.306142
vt 0.447094 0.306142
vt 0.447094 0.306142
vt 0.447094 0.283132
vt 0.447094 0.283132
vt 0.447094 0.283132
vt 0.447094 0.283132
vt 0.447094 0.283132
vt 0.447094 0.283132
vt 0.447094 0.283132
vt 0.447094 0.283132
vt 0.447094 0.283132
vt 0.447094 0.283132
vt 0.447094 0.283132
vt 0.447094 0.283132
vt 0.447094 0.283132
vt 0.447094 0.283132
vt 0.447094 0.283132
vt 0.447094 0.283132
vt 0.447094 0.283132
vt 0.447094 0.283132
vt 0.447094 0.283132
vt 0.447094 0.283132
vt 0.447094 0.283132
vt 0.447094 0.283132
vt 0.447094 0.283132
vt 0.447094 0.283132
vt 0.447094 0.283132
vt 0.447094 0.283132
vt 0.447094 0.283132
vt 0.447094 0.283132
vt 0.447094 0.283132
vt 0.447094 0.283132
vt 0.447094 0.283132
vt 0.447094 0.283132
vt 0.447094 0.283132
vt 0.447094 0.283132
vt 0.447094 0.283132
vt 0.447094 0.283132
vt 0.447094 0.283132
vt 0.447094 0.283132
vt 0.447094 0.283132
vt 0.447094 0.283132
vt 0.447094 0.283132
vt 0.447094 0.283132
vt 0.447094 0.283132
vt 0.447094 0.283132
vt 0.447094 0.283132
vt 0.447094 0.283132
vt 0.447094 0.306142
vt 0.447094 0.306142
vt 0.447094 0.306142
vt 0.447094 0.306142
vt 0.447094 0.306142
vt 0.447094 0.306142
vt 0.447094 0.306142
vt 0.447094 0.306142
vt 0.447094 0.283132
vt 0.447094 0.283132
vt 0.447094 0.283132
vt 0.447094 0.283132
vt 0.447094 0.283132
vt 0.447094 0.283132
vt 0.447094 0.283132
vt 0.447094 0.283132
vt 0.447094 0.306142
vt 0.447094 0.306142
vt 0.447094 0.306142
vt 0.447094 0.306142
vt 0.447094 0.306142
vt 0.447094 0.306142
vt 0.447094 0.306142
vt 0.447094 0.283132
vt 0.447094 0.283132
vt 0.447094 0.283132
vt 0.447094 0.283132
vt 0.447094 0.283132
vt 0.447094 0.283132
vt 0.447094 0.283132
vt 0.447094 0.283132
vt 0.447094 0.283132
vt 0.447094 0.283132
vt 0.447094 0.283132
vt 0.447094 0.283132
vt 0.447094 0.283132
vt 0.447094 0.283132
vt 0.447094 0.283132
vt 0.447094 0.306142
vt 0.447094 0.306142
vt 0.447094 0.306142
vt 0.447094 0.306142
vt 0.447094 0.306142
vt 0.447094 0.306142
vt 0.447094 0.306142
vt 0.447094 0.283132
vt 0.447094 0.283132
vt 0.447094 0.283132
vt 0.447094 0.283132
vt 0.447094 0.283132
vt 0.447094 0.283132
vt 0.447094 0.306142
vt 0.447094 0.306142
vt 0.447094 0.306142
vt 0.447094 0.306142
vt 0.447094 0.306142
vt 0.447094 0.306142
vt 0.447094 0.306142
vt 0.447094 0.306142
vt 0.447094 0.283132
vt 0.447094 0.283132
vt 0.447094 0.283132
vt 0.447094 0.283132
vt 0.447094 0.283132
vt 0.447094 0.283132
vt 0.447094 0.283132
vt 0.447094 0.283132
vt 0.447094 0.306142
vt 0.447094 0.306142
vt 0.447094 0.306142
vt 0.447094 0.306142
vt 0.447094 0.306142
vt 0.447094 0.306142
vt 0.447094 0.306142
vt 0.447094 0.306142
vt 0.447094 0.283132
vt 0.447094 0.283132
vt 0.447094 0.283132
vt 0.447094 0.283132
vt 0.447094 0.283132
vt 0.447094 0.283132
vt 0.447094 0.283132
vt 0.447094 0.283132
vt 0.447094 0.283132
vt 0.447094 0.283132
vt 0.447094 0.283132
vt 0.447094 0.283132
vt 0.447094 0.283132
vt 0.447094 0.283132
vt 0.447094 0.283132
vt 0.447094 0.283132
vt 0.447094 0.306142
vt 0.447094 0.306142
vt 0.447094 0.306142
vt 0.447094 0.306142
vt 0.447094 0.306142
vt 0.447094 0.306142
vt 0.447094 0.306142
vt 0.447094 0.306142
vt 0.447094 0.306142
vt 0.447094 0.306142
vt 0.447094 0.306142
vt 0.447094 0.306142
vt 0.447094 0.306142
vt 0.447094 0.306142
vt 0.447094 0.306142
vt 0.447094 0.306142
vt 0.447094 0.306142
vt 0.447094 0.306142
vt 0.447094 0.306142
vt 0.447094 0.306142
vt 0.447094 0.306142
vt 0.447094 0.306142
vt 0.447094 0.306142
vt 0.447094 0.306142
vt 0.447094 0.306142
vt 0.447094 0.306142
vt 0.447094 0.306142
vt 0.447094 0.306142
vt 0.447094 0.306142
vt 0.447094 0.306142
vt 0.447094 0.306142
vt 0.447094 0.306142
vt 0.447094 0.306142
vt 0.447094 0.306142
vt 0.447094 0.306142
vt 0.447094 0.306142
vt 0.447094 0.306142
vt 0.447094 0.306142
vt 0.447094 0.306142
vt 0.447094 0.306142
vt 0.447094 0.306142
vt 0.447094 0.306142
vt 0.447094 0.306142
vt 0.447094 0.306142
vt 0.447094 0.306142
vt 0.447094 0.306142
vt 0.447094 0.306142
vt 0.447094 0.306142
vt 0.447094 0.306142
vt 0.447094 0.306142
vt 0.447094 0.306142
vt 0.447094 0.306142
vt 0.447094 0.306142
vt 0.447094 0.306142
vt 0.447094 0.306142
vt 0.447094 0.306142
vn 0.000000 0.836926 -0.547316
vn 0.000000 0.836926 -0.547316
vn 0.000000 0.836926 -0.547316
vn 0.000000 1.000000 0.000000
vn 0.000000 1.000000 0.000000
vn 0.000000 1.000000 0.000000
vn 0.000000 0.850932 0.525276
vn 0.000000 0.850932 0.525276
vn 0.000000 0.850932 0.525276
vn 0.000000 1.000000 0.000000
vn 0.000000 1.000000 0.000000
vn 0.000000 1.000000 0.000000
vn 0.540258 0.836941 0.087476
vn 0.540258 0.836941 0.087476
vn 0.540258 0.836941 0.087476
vn 0.000000 1.000000 0.000000
vn 0.000000 1.000000 0.000000
vn 0.000000 1.000000 0.000000
vn -0.518531 0.850926 -0.083969
vn -0.518531 0.850926 -0.083969
vn -0.518531 0.850926 -0.083969
vn 0.000000 1.000000 0.000000
vn 0.000000 1.000000 0.000000
vn 0.000000 1.000000 0.000000
vn -0.408341 0.862129 -0.299985
vn -0.408341 0.862129 -0.299985
vn -0.408341 0.862129 -0.299985
vn -0.082881 0.881095 0.465620
vn -0.082881 0.881095 0.465620
vn -0.082881 0.881095 0.465620
vn -0.051119 0.861096 0.505867
vn -0.051119 0.861096 0.505867
vn -0.051119 0.861096 0.505867
vn -0.429409 0.849234 -0.307260
vn -0.429409 0.849234 -0.307260
vn -0.429409 0.849234 -0.307260
vn -0.168809 0.984759 0.041881
vn -0.168809 0.984759 0.041881
vn -0.168809 0.984759 0.041881
vn 0.332235 0.925666 -0.181002
vn 0.332235 0.925666 -0.181002
vn 0.332235 0.925666 -0.181002
vn 0.097287 0.947429 -0.304818
vn 0.097287 0.947429 -0.304818
vn 0.097287 0.947429 -0.304818
vn -0.257728 0.856915 0.446400
vn -0.257728 0.856915 0.446400
vn -0.257728 0.856915 0.446400
vn -0.240620 0.970374 0.021826
vn -0.240620 0.970374 0.021826
vn -0.240620 0.970374 0.021826
vn -0.121989 0.862000 0.492011
vn -0.121989 0.862000 0.492011
vn -0.121989 0.862000 0.492011
vn -0.121994 0.861996 0.492017
vn -0.121994 0.861996 0.492017
vn -0.121994 0.861996 0.492017
vn 0.417357 0.847105 0.328978
vn 0.417357 0.847105 0.328978
vn 0.417357 0.847105 0.328979
vn -0.440057 0.836920 -0.325446
vn -0.440057 0.836920 -0.325446
vn -0.440057 0.836920 -0.325446
vn 0.000000 1.000000 0.000000
vn 0.000000 1.000000 0.000000
vn 0.000000 1.000000 0.000000
vn 0.422333 0.850932 0.312328
vn 0.422333 0.850932 0.312328
vn 0.422333 0.850932 0.312328
vn 0.000000 1.000000 0.000000
vn 0.000000 1.000000 0.000000
vn 0.000000 1.000000 0.000000
vn 0.388885 0.899417 -0.199542
vn 0.388885 0.899417 -0.199542
vn 0.388885 0.899417 -0.199542
vn 0.419261 0.875952 -0.238597
vn 0.419261 0.875952 -0.238597
vn 0.419261 0.875952 -0.238597
vn -0.270231 0.886780 0.374962
vn -0.270231 0.886780 0.374962
vn -0.270231 0.886780 0.374962
vn -0.004291 0.999979 -0.004835
vn -0.004291 0.999979 -0.004835
vn -0.004291 0.999979 -0.004835
vn -0.240441 0.902574 0.357138
vn -0.240441 0.902574 0.357138
vn -0.240441 0.902574 0.357138
vn -0.343438 0.855745 -0.386976
vn -0.343438 0.855745 -0.386976
vn -0.343438 0.855745 -0.386976
vn -0.558487 0.808360 -0.186136
vn -0.558487 0.808360 -0.186136
vn -0.558487 0.808360 -0.186136
vn -0.026632 0.903014 0.428786
vn -0.026632 0.903014 0.428786
vn -0.026632 0.903014 0.428786
vn 0.020847 0.888711 0.457993
vn 0.020847 0.888711 0.457993
vn 0.020847 0.888711 0.457993
vn -0.581630 0.793091 -0.180867
vn -0.581630 0.793091 -0.180867
vn -0.581630 0.793091 -0.180867
vn -0.227654 0.973542 0.019719
vn -0.227654 0.973543 0.019719
vn -0.227654 0.973542 0.019719
vn 0.272304 0.861004 -0.429561
vn 0.272304 0.861004 -0.429561
vn 0.272304 0.861004 -0.429561
vn -0.249010 0.923049 0.293214
vn -0.249010 0.923049 0.293214
vn -0.249010 0.923049 0.293214
vn -0.216417 0.942183 0.255842
vn -0.216417 0.942183 0.255842
vn -0.216417 0.942183 0.255842
vn 0.355952 0.895112 -0.268464
vn 0.355952 0.895112 -0.268464
vn 0.355952 0.895112 -0.268464
vn 0.381011 0.879149 -0.286229
vn 0.381011 0.879149 -0.286229
vn 0.381011 0.879149 -0.286229
vn 0.166373 0.982919 0.078673
vn 0.166373 0.982919 0.078673
vn 0.166373 0.982919 0.078673
vn -0.316515 0.934676 -0.161859
vn -0.316515 0.934676 -0.161859
vn -0.316515 0.934676 -0.161859
vn -0.356583 0.874795 -0.327996
vn -0.356583 0.874795 -0.327996
vn -0.356583 0.874795 -0.327996
vn 0.020070 0.996447 -0.081802
vn 0.020070 0.996447 -0.081802
vn 0.020070 0.996447 -0.081802
vn 0.431354 0.852675 -0.294751
vn 0.431354 0.852675 -0.294751
vn 0.431354 0.852675 -0.294751
vn 0.282565 0.879875 0.382069
vn 0.282565 0.879875 0.382069
vn 0.282565 0.879875 0.382069
vn -0.429919 0.794182 0.429471
vn -0.429919 0.794182 0.429471
vn -0.429919 0.794182 0.429471
vn 0.323221 0.946315 0.003996
vn 0.323221 0.946315 0.003996
vn 0.323221 0.946315 0.003996
vn -0.320253 0.947324 -0.003960
vn -0.320253 0.947324 -0.003960
vn -0.320253 0.947324 -0.003960
vn -0.431062 0.793113 0.430299
vn -0.431062 0.793113 0.430299
vn -0.431062 0.793113 0.430299
vn -0.448588 0.790945 -0.416144
vn -0.448588 0.790945 -0.416144
vn -0.448588 0.790944 -0.416144
vn -0.440907 0.783939 -0.437082
vn -0.440907 0.783939 -0.437082
vn -0.440907 0.783939 -0.437082
vn 0.507975 0.823949 -0.251139
vn 0.507975 0.823949 -0.251139
vn 0.507975 0.823948 -0.251139
vn 0.526204 0.798811 -0.291563
vn 0.526204 0.798812 -0.291563
vn 0.526204 0.798811 -0.291563
vn -0.052697 0.918943 0.390853
vn -0.052697 0.918943 0.390853
vn -0.052697 0.918943 0.390853
vn 0.164796 0.985272 -0.045627
vn 0.164796 0.985272 -0.045627
vn 0.164796 0.985272 -0.045627
vn -0.020919 0.929470 0.368304
vn -0.020919 0.929470 0.368304
vn -0.020919 0.929470 0.368304
vn -0.314278 0.841116 -0.440175
vn -0.314278 0.841116 -0.440175
vn -0.314278 0.841116 -0.440175
vn 0.089284 0.948244 -0.304732
vn 0.089284 0.948244 -0.304732
vn 0.089284 0.948244 -0.304732
vn 0.149763 0.976192 0.156906
vn 0.149763 0.976192 0.156906
vn 0.149763 0.976192 0.156906
vn 0.055348 0.934567 -0.351456
vn 0.055348 0.934567 -0.351456
vn 0.055348 0.934567 -0.351456
vn 0.406197 0.786539 0.465146
vn 0.406197 0.786539 0.465146
vn 0.406197 0.786539 0.465146
vn 0.402574 0.804748 0.436251
vn 0.402574 0.804748 0.436251
vn 0.402574 0.804748 0.436251
vn 0.369908 0.902990 -0.218581
vn 0.369908 0.902990 -0.218581
vn 0.369908 0.902990 -0.218581
vn -0.648156 0.751901 -0.120579
vn -0.648156 0.751901 -0.120579
vn -0.648156 0.751901 -0.120579
vn -0.689507 0.716770 -0.104021
vn -0.689507 0.716770 -0.104021
vn -0.689507 0.716770 -0.104021
vn 0.389942 0.889799 -0.237073
vn 0.389942 0.889799 -0.237073
vn 0.389942 0.889799 -0.237073
vn -0.183908 0.979657 -0.080318
vn -0.183908 0.979657 -0.080318
vn -0.183908 0.979657 -0.080318
vn -0.558487 0.808360 -0.186136
vn -0.558487 0.808360 -0.186136
vn -0.558487 0.808360 -0.186136
vn -0.026632 0.903014 0.428786
vn -0.026632 0.903014 0.428786
vn -0.026632 0.903014 0.428786
vn 0.020847 0.888711 0.457993
vn 0.020847 0.888711 0.457993
vn 0.020847 0.888711 0.457993
vn -0.581630 0.793091 -0.180867
vn -0.581630 0.793091 -0.180867
vn -0.581630 0.793091 -0.180867
vn -0.227654 0.973542 0.019719
vn -0.227654 0.973543 0.019719
vn -0.227654 0.973542 0.019719
vn 0.272304 0.861004 -0.429561
vn 0.272304 0.861004 -0.429561
vn 0.272304 0.861004 -0.429561
vn 0.215045 0.962116 0.167598
vn 0.215045 0.962116 0.167598
vn 0.215045 0.962116 0.167598
vn -0.233549 0.972194 0.017113
vn -0.233549 0.972194 0.017113
vn -0.233549 0.972194 0.017113
vn 0.272585 0.949542 0.155135
vn 0.272585 0.949542 0.155135
vn 0.272585 0.949542 0.155135
vn -0.610013 0.778028 0.150191
vn -0.610013 0.778028 0.150191
vn -0.610013 0.778028 0.150191
vn -0.583038 0.796859 0.158377
vn -0.583038 0.796859 0.158377
vn -0.583038 0.796859 0.158377
vn -0.066026 0.891232 -0.448716
vn -0.066025 0.891232 -0.448716
vn -0.066026 0.891232 -0.448716
vn -0.061104 0.915038 -0.398712
vn -0.061104 0.915038 -0.398712
vn -0.061104 0.915038 -0.398712
vn -0.100902 0.888918 0.446814
vn -0.100902 0.888918 0.446814
vn -0.100902 0.888918 0.446814
vn -0.323745 0.905932 0.272905
vn -0.323745 0.905932 0.272905
vn -0.323745 0.905931 0.272905
vn 0.069695 0.864796 -0.497263
vn 0.069695 0.864796 -0.497263
vn 0.069695 0.864796 -0.497263
vn -0.575967 0.817464 -0.003815
vn -0.575967 0.817464 -0.003815
vn -0.575967 0.817464 -0.003815
vn -0.602295 0.797413 0.037071
vn -0.602295 0.797413 0.037071
vn -0.602295 0.797413 0.037071
vn 0.069770 0.849592 -0.522806
vn 0.069770 0.849592 -0.522806
vn 0.069770 0.849592 -0.522806
vn -0.199605 0.966987 -0.158411
vn -0.199605 0.966987 -0.158411
vn -0.199605 0.966987 -0.158411
vn 0.226027 0.896010 0.382202
vn 0.226027 0.896010 0.382202
vn 0.226027 0.896010 0.382202
vn 0.365277 0.874605 -0.318809
vn 0.365277 0.874605 -0.318809
vn 0.365277 0.874605 -0.318809
vn 0.345556 0.897777 -0.273107
vn 0.345556 0.897777 -0.273107
vn 0.345556 0.897777 -0.273107
vn -0.140143 0.900970 0.410625
vn -0.140143 0.900970 0.410625
vn -0.140143 0.900970 0.410625
vn -0.165854 0.885386 0.434263
vn -0.165854 0.885386 0.434263
vn -0.165854 0.885386 0.434263
vn -0.006037 0.999973 -0.004271
vn -0.006037 0.999973 -0.004271
vn -0.006037 0.999973 -0.004271
vn -0.464363 0.822440 -0.328572
vn -0.464363 0.822440 -0.328572
vn -0.464363 0.822440 -0.328572
vn -0.368291 0.874605 0.315322
vn -0.368291 0.874605 0.315322
vn -0.368291 0.874605 0.315322
vn -0.348141 0.897773 0.269818
vn -0.348141 0.897773 0.269818
vn -0.348141 0.897773 0.269818
vn 0.144041 0.900970 -0.409274
vn 0.144041 0.900970 -0.409274
vn 0.144041 0.900970 -0.409274
vn 0.169976 0.885385 -0.432668
vn 0.169976 0.885385 -0.432668
vn 0.169976 0.885385 -0.432668
vn 0.005996 0.999973 0.004328
vn 0.005996 0.999973 0.004328
vn 0.005996 0.999973 0.004328
vn 0.461220 0.822438 0.332975
vn 0.461220 0.822438 0.332975
vn 0.461220 0.822438 0.332975
vn 0.467239 0.874609 -0.129410
vn 0.467239 0.874609 -0.129410
vn 0.467239 0.874609 -0.129410
vn 0.429697 0.897776 -0.096745
vn 0.429697 0.897775 -0.096745
vn 0.429697 0.897775 -0.096745
vn -0.303990 0.900971 0.309584
vn -0.303990 0.900971 0.309584
vn -0.303990 0.900971 0.309584
vn -0.337391 0.885389 0.319772
vn -0.337391 0.885389 0.319772
vn -0.337391 0.885389 0.319772
vn -0.003595 0.999973 -0.006462
vn -0.003595 0.999973 -0.006462
vn -0.003595 0.999973 -0.006462
vn -0.276524 0.822442 -0.497115
vn -0.276524 0.822442 -0.497115
vn -0.276524 0.822442 -0.497115
vn -0.319030 0.874610 0.365072
vn -0.319030 0.874610 0.365072
vn -0.319030 0.874610 0.365072
vn -0.305647 0.897772 0.317151
vn -0.305647 0.897772 0.317151
vn -0.305647 0.897772 0.317151
vn 0.083584 0.900968 -0.425758
vn 0.083584 0.900968 -0.425758
vn 0.083584 0.900968 -0.425758
vn 0.105875 0.885385 -0.452641
vn 0.105875 0.885385 -0.452641
vn 0.105875 0.885385 -0.452641
vn 0.006557 0.999973 0.003420
vn 0.006557 0.999973 0.003420
vn 0.006557 0.999973 0.003420
vn 0.504368 0.822443 0.263058
vn 0.504368 0.822443 0.263058
vn 0.504368 0.822443 0.263058
s off
f 3/1/1 6/2/2 2/3/3
f 3/1/4 5/4/5 6/2/6
f 1/5/7 5/4/8 4/6/9
f 5/4/10 3/1/11 4/6/12
f 10/7/13 9/8/14 8/9/15
f 9/8/16 11/10/17 12/11/18
f 7/12/19 12/11/20 11/10/21
f 9/8/22 10/7/23 11/10/24
f 18/13/25 16/14/26 13/209/27
f 17/16/28 19/210/29 16/208/30
f 14/18/31 19/17/32 17/213/33
f 16/206/34 20/205/35 13/15/36
f 19/211/37 20/204/38 16/207/39
f 15/20/40 20/19/41 19/212/42
f 23/21/43 22/22/44 25/23/45
f 22/22/46 21/24/47 24/25/48
f 22/22/49 23/21/50 21/24/51
f 28/26/52 30/27/53 29/28/54
f 28/26/55 27/29/56 30/27/57
f 26/30/58 27/29/59 28/26/60
f 33/31/61 36/32/62 32/33/63
f 33/31/64 35/34/65 36/32/66
f 31/35/67 35/34/68 34/36/69
f 35/34/70 33/31/71 34/36/72
f 41/37/73 43/38/74 40/39/75
f 38/40/76 43/38/77 41/37/78
f 42/41/79 44/42/80 37/43/81
f 43/38/82 44/42/83 40/39/84
f 40/39/85 44/42/86 42/41/87
f 39/44/88 44/42/89 43/38/90
f 50/45/91 48/46/92 45/47/93
f 49/48/94 51/49/95 48/46/96
f 46/50/97 51/49/98 49/48/99
f 48/46/100 52/51/101 45/47/102
f 51/49/103 52/51/104 48/46/105
f 47/52/106 52/51/107 51/49/108
f 57/53/109 59/54/110 54/55/111
f 57/53/112 56/56/113 59/54/114
f 56/56/115 55/57/116 58/58/117
f 53/59/118 58/58/119 55/57/120
f 56/56/121 57/53/122 55/57/123
f 61/60/124 62/61/125 60/62/126
f 60/62/127 62/61/128 65/63/129
f 61/60/130 63/64/131 62/61/132
f 62/61/133 63/64/134 64/65/135
f 63/64/136 61/60/137 66/66/138
f 68/67/139 70/203/140 71/69/141
f 73/70/142 74/199/143 69/72/144
f 70/201/145 74/198/146 73/194/147
f 68/200/148 74/71/149 70/202/150
f 72/73/151 73/196/152 67/74/153
f 70/68/154 73/195/155 72/197/156
f 78/75/157 79/76/158 81/77/159
f 76/78/160 81/77/161 79/76/162
f 80/79/163 82/80/164 75/81/165
f 81/77/166 82/80/167 78/75/168
f 78/75/169 82/80/170 80/79/171
f 77/82/172 82/80/173 81/77/174
f 87/83/175 89/189/176 86/192/177
f 86/191/178 89/190/179 85/86/180
f 84/87/181 89/84/182 87/193/183
f 88/88/184 85/187/185 83/89/186
f 86/85/187 85/186/188 88/188/189
f 95/90/190 93/91/191 90/92/192
f 94/93/193 92/94/194 93/91/195
f 91/95/196 92/94/197 94/93/198
f 93/91/199 96/96/200 90/92/201
f 92/94/202 96/96/203 93/91/204
f 102/97/205 100/98/206 97/99/207
f 101/100/208 103/101/209 100/98/210
f 98/102/211 103/101/212 101/100/213
f 100/98/214 104/103/215 97/99/216
f 103/101/217 104/103/218 100/98/219
f 99/104/220 104/103/221 103/101/222
f 109/105/223 111/181/224 108/184/225
f 108/183/226 111/182/227 107/108/228
f 106/109/229 111/106/230 109/185/231
f 110/110/232 107/179/233 105/111/234
f 108/107/235 107/178/236 110/180/237
f 112/112/238 114/113/239 117/114/240
f 114/113/241 113/115/242 117/114/243
f 113/115/244 115/116/245 116/117/246
f 113/115/247 114/113/248 115/116/249
f 123/118/250 121/119/251 118/173/252
f 122/121/253 124/174/254 121/172/255
f 119/123/256 124/122/257 122/177/258
f 121/170/259 125/169/260 118/120/261
f 124/175/262 125/168/263 121/171/264
f 120/125/265 125/124/266 124/176/267
f 130/126/268 133/127/269 127/128/270
f 130/126/271 129/129/272 133/127/273
f 129/129/274 131/130/275 132/131/276
f 126/132/277 132/131/278 131/130/279
f 129/129/280 130/126/281 131/130/282
f 128/133/283 131/130/284 130/126/285
f 138/134/286 141/167/287 135/136/288
f 138/161/289 137/166/290 141/135/291
f 137/137/292 139/159/293 140/164/294
f 134/140/295 140/139/296 139/160/297
f 137/165/298 138/162/299 139/158/300
f 136/141/301 139/138/302 138/163/303
f 146/142/304 149/143/305 143/144/306
f 146/142/307 145/145/308 149/143/309
f 145/145/310 147/146/311 148/147/312
f 142/148/313 148/147/314 147/146/315
f 145/145/316 146/142/317 147/146/318
f 144/149/319 147/146/320 146/142/321
f 154/150/322 157/151/323 151/152/324
f 154/150/325 153/153/326 157/151/327
f 153/153/328 155/154/329 156/155/330
f 150/156/331 156/155/332 155/154/333
f 153/153/334 154/150/335 155/154/336
f 152/157/337 155/154/338 154/150/339
