# This file uses centimeters as units for non-parametric coordinates.

v -0.182447 -0.052305 0.079924
v -0.191883 0.083206 -0.075979
v -0.228700 0.083295 -0.365320
v -0.080801 0.083206 -0.294611
v -0.319117 0.083296 -0.123522
v -0.387750 0.020814 -0.314545
v -0.332219 0.104186 -0.283861
v -0.197089 -0.052305 -0.453067
v 0.030869 -0.052305 -0.340017
v -0.038132 0.067573 -0.121678
v -0.472329 -0.052305 -0.090431
v 0.042240 -0.052305 -0.063802
v -0.094541 0.119557 -0.167700
v -0.417733 -0.052305 -0.375254
v -0.054734 -0.052305 -0.277809
v 0.157904 0.047157 -0.502725
v 0.158831 0.028818 -0.370762
v -0.038791 0.054973 -0.462450
v 0.052918 -0.052305 -0.611045
v 0.213498 -0.052305 -0.579594
v 0.230789 -0.052305 -0.326238
v 0.093729 -0.052305 -0.268407
v -0.088978 -0.052305 -0.479704
v -0.005865 0.054892 -0.332627
v 0.061669 0.051065 -0.536452
v 0.073605 0.028818 -0.327844
v 0.179377 -0.052305 0.328984
v 0.421145 0.052577 0.024805
v 0.436497 0.082265 0.189757
v 0.179462 0.082368 0.096330
v 0.278187 -0.052305 -0.099386
v 0.482414 -0.052305 -0.077318
v 0.531285 -0.052305 0.237707
v 0.366078 -0.052305 0.324778
v 0.114835 -0.052305 0.080148
v 0.234605 0.060794 0.255166
v 0.297154 0.057483 -0.007030
v 0.334516 0.060794 0.252602
vt 0.470560 0.227824
vt 0.470560 0.227824
vt 0.470560 0.227824
vt 0.470560 0.227824
vt 0.470560 0.227824
vt 0.470560 0.227824
vt 0.470560 0.227824
vt 0.470560 0.227824
vt 0.470560 0.227824
vt 0.470560 0.227824
vt 0.470560 0.227824
vt 0.470560 0.227824
vt 0.470560 0.227824
vt 0.470560 0.227824
vt 0.470560 0.227824
vt 0.470560 0.227824
vt 0.470560 0.227824
vt 0.470560 0.227824
vt 0.470560 0.227824
vt 0.470560 0.227824
vt 0.470560 0.227824
vt 0.470560 0.227824
vt 0.470560 0.227824
vt 0.470560 0.227824
vt 0.470560 0.227824
vt 0.470560 0.227824
vt 0.470560 0.227824
vt 0.470560 0.227824
vt 0.470560 0.227824
vt 0.470560 0.227824
vt 0.470560 0.227824
vt 0.470560 0.227824
vt 0.470560 0.227824
vt 0.470560 0.227824
vt 0.470560 0.227824
vt 0.470560 0.227824
vt 0.470560 0.227824
vt 0.470560 0.227824
vt 0.470560 0.227824
vt 0.470560 0.227824
vt 0.470560 0.227824
vt 0.470560 0.227824
vt 0.470560 0.227824
vt 0.470560 0.227824
vt 0.470560 0.227824
vt 0.470560 0.227824
vt 0.470560 0.227824
vn -0.240508 0.725335 0.645016
vn -0.240508 0.725335 0.645016
vn -0.240508 0.725335 0.645016
vn -0.398949 0.616428 0.678864
vn -0.398949 0.616428 0.678864
vn -0.398949 0.616428 0.678864
vn -0.636768 0.756213 0.150559
vn -0.636768 0.756213 0.150559
vn -0.636768 0.756213 0.150559
vn -0.806632 0.579702 -0.115284
vn -0.806632 0.579702 -0.115284
vn -0.806632 0.579702 -0.115284
vn 0.075477 0.984769 -0.156631
vn 0.075477 0.984769 -0.156631
vn 0.075477 0.984769 -0.156631
vn -0.442746 0.554295 -0.704793
vn -0.442746 0.554295 -0.704793
vn -0.442746 0.554295 -0.704793
vn 0.360599 0.549654 -0.753557
vn 0.360599 0.549654 -0.753557
vn 0.360599 0.549654 -0.753557
vn 0.366832 0.564172 -0.739692
vn 0.366832 0.564172 -0.739692
vn 0.366832 0.564172 -0.739692
vn 0.837724 0.545003 -0.034488
vn 0.837724 0.545003 -0.034488
vn 0.837724 0.545003 -0.034488
vn 0.287257 0.565751 0.772923
vn 0.287257 0.565751 0.772923
vn 0.287257 0.565751 0.772923
vn 0.379758 0.709460 0.593675
vn 0.379758 0.709460 0.593675
vn 0.379758 0.709460 0.593675
vn 0.249946 0.779601 0.574237
vn 0.249946 0.779601 0.574237
vn 0.249946 0.779601 0.574237
vn 0.729515 0.670036 -0.137333
vn 0.729515 0.670036 -0.137333
vn 0.729515 0.670036 -0.137333
vn 0.749668 0.653278 -0.105952
vn 0.749668 0.653278 -0.105952
vn 0.749668 0.653278 -0.105952
vn 0.068741 0.961015 -0.267814
vn 0.068741 0.961015 -0.267814
vn 0.068741 0.961015 -0.267814
vn -0.100993 0.956961 0.272079
vn -0.100993 0.956961 0.272079
vn -0.100993 0.956961 0.272079
vn -0.131228 0.981613 0.138616
vn -0.131228 0.981613 0.138616
vn -0.131228 0.981613 0.138616
vn -0.857262 0.487953 -0.164325
vn -0.857262 0.487953 -0.164325
vn -0.857262 0.487953 -0.164325
vn -0.293533 0.470174 -0.832331
vn -0.293533 0.470174 -0.832331
vn -0.293533 0.470174 -0.832331
vn -0.451409 0.672269 -0.586757
vn -0.451409 0.672269 -0.586757
vn -0.451409 0.672269 -0.586757
vn -0.842858 0.493721 0.214078
vn -0.842858 0.493721 0.214078
vn -0.842858 0.493721 0.214078
vn -0.904301 0.398388 0.153383
vn -0.904301 0.398388 0.153383
vn -0.904301 0.398388 0.153383
vn -0.622716 0.399522 -0.672761
vn -0.622716 0.399522 -0.672761
vn -0.622716 0.399522 -0.672761
vn -0.008037 0.990442 0.137698
vn -0.008037 0.990442 0.137698
vn -0.008037 0.990442 0.137698
vn 0.297471 0.541987 -0.785978
vn 0.297471 0.541987 -0.785978
vn 0.297471 0.541987 -0.785978
vn 0.719830 0.688215 0.090581
vn 0.719830 0.688215 0.090581
vn 0.719830 0.688215 0.090581
vn 0.851617 0.520933 -0.058119
vn 0.851617 0.520933 -0.058119
vn 0.851617 0.520933 -0.058119
vn -0.055629 0.474581 0.878452
vn -0.055629 0.474581 0.878452
vn -0.055629 0.474581 0.878452
vn 0.152760 0.608458 0.778745
vn 0.152760 0.608458 0.778745
vn 0.152760 0.608458 0.778745
vn 0.315065 0.945750 -0.079311
vn 0.315065 0.945750 -0.079311
vn 0.315065 0.945751 -0.079311
vn 0.145305 0.654589 -0.741889
vn 0.145305 0.654589 -0.741889
vn 0.145305 0.654589 -0.741889
vn -0.486263 0.538022 -0.688536
vn -0.486262 0.538022 -0.688536
vn -0.486263 0.538022 -0.688536
vn 0.095508 0.992427 0.077245
vn 0.095508 0.992427 0.077245
vn 0.095508 0.992427 0.077245
vn 0.319546 0.633109 0.705028
vn 0.319546 0.633109 0.705028
vn 0.319546 0.633109 0.705028
vn 0.319546 0.633109 0.705028
vn 0.068090 0.988474 0.135212
vn 0.068090 0.988474 0.135212
vn 0.068090 0.988474 0.135212
vn -0.741001 0.581278 0.336205
vn -0.741001 0.581278 0.336205
vn -0.741001 0.581278 0.336205
vn -0.887838 0.398387 0.230285
vn -0.887838 0.398387 0.230285
vn -0.887838 0.398387 0.230285
vn -0.678058 0.399522 -0.616944
vn -0.678058 0.399522 -0.616944
vn -0.678058 0.399522 -0.616944
vn 0.086043 0.979110 -0.184231
vn 0.086043 0.979110 -0.184231
vn 0.086043 0.979110 -0.184231
vn 0.220331 0.605350 -0.764856
vn 0.220331 0.605350 -0.764856
vn 0.220331 0.605350 -0.764856
vn 0.833175 0.525539 -0.172129
vn 0.833175 0.525539 -0.172129
vn 0.833175 0.525539 -0.172129
vn 0.799457 0.587781 -0.124024
vn 0.799457 0.587781 -0.124024
vn 0.799457 0.587781 -0.124024
vn 0.018959 0.539964 0.841475
vn 0.018959 0.539964 0.841475
vn 0.018959 0.539964 0.841475
vn 0.021555 0.542098 0.840038
vn 0.021555 0.542098 0.840038
vn 0.021555 0.542098 0.840038
vn 0.003424 0.991054 0.133422
vn 0.003424 0.991053 0.133422
vn 0.003424 0.991054 0.133422
vn 0.074805 0.717755 -0.692266
vn 0.074805 0.717755 -0.692266
vn 0.074805 0.717755 -0.692266
vn -0.438509 0.621706 -0.648993
vn -0.438509 0.621706 -0.648993
vn -0.438509 0.621706 -0.648993
vn 0.061183 0.984015 -0.167246
vn 0.061183 0.984015 -0.167246
vn 0.061183 0.984015 -0.167246
vn 0.373782 0.552158 0.745257
vn 0.373782 0.552158 0.745257
vn 0.373782 0.552158 0.745257
vn 0.373782 0.552158 0.745257
vn -0.075896 0.974778 0.209876
vn -0.075896 0.974778 0.209876
vn -0.075896 0.974778 0.209876
s off
f 2/1/1 5/2/2 1/3/3
f 11/4/4 1/3/5 5/2/6
f 5/2/7 7/5/8 11/4/9
f 11/6/10 7/7/11 6/8/12
f 7/5/13 4/9/14 3/10/15
f 6/11/16 7/5/17 3/10/18
f 4/9/19 9/12/20 3/10/21
f 8/13/22 3/10/23 9/12/24
f 12/14/25 9/12/26 10/15/27
f 10/15/28 2/1/29 12/14/30
f 12/14/31 2/1/32 1/3/33
f 10/15/34 13/16/35 2/1/36
f 10/15/37 9/12/38 13/16/39
f 13/16/40 9/12/41 4/9/42
f 13/16/43 4/9/44 7/5/45
f 2/1/46 13/16/47 5/2/48
f 5/2/49 13/16/50 7/5/51
f 14/17/52 11/4/53 6/11/54
f 8/13/55 14/17/56 3/10/57
f 3/10/58 14/17/59 6/11/60
f 24/18/61 18/19/62 15/20/63
f 23/21/64 15/20/65 18/19/66
f 23/22/67 18/23/68 19/24/69
f 25/25/70 17/26/71 16/27/72
f 19/28/73 25/25/74 16/27/75
f 17/26/76 21/29/77 16/27/78
f 20/30/79 16/27/80 21/29/81
f 22/31/82 24/18/83 15/20/84
f 24/18/85 22/31/86 26/32/87
f 24/18/88 26/32/89 18/19/90
f 20/30/91 19/28/92 16/27/93
f 19/28/94 18/19/95 25/25/96
f 18/19/97 17/26/98 25/25/99
f 26/32/100 22/31/101 21/29/102 17/26/103
f 18/19/104 26/32/105 17/26/106
f 36/33/107 30/34/108 27/35/109
f 35/36/110 27/35/111 30/34/112
f 35/37/113 30/38/114 31/39/115
f 37/40/116 29/41/117 28/42/118
f 31/43/119 37/40/120 28/42/121
f 29/41/122 33/44/123 28/42/124
f 32/45/125 28/42/126 33/44/127
f 34/46/128 36/33/129 27/35/130
f 36/33/131 34/46/132 38/47/133
f 36/33/134 38/47/135 30/34/136
f 32/45/137 31/43/138 28/42/139
f 31/43/140 30/34/141 37/40/142
f 30/34/143 29/41/144 37/40/145
f 38/47/146 34/46/147 33/44/148 29/41/149
f 30/34/150 38/47/151 29/41/152
