# This file uses centimeters as units for non-parametric coordinates.

v -0.048831 0.000000 0.048823
v 0.048831 0.000000 0.048823
v -0.050587 0.067855 0.050578
v 0.050587 0.067855 0.050578
v -0.050587 0.067855 -0.050596
v 0.050587 0.067855 -0.050596
v -0.048831 0.000000 -0.048841
v 0.048831 0.000000 -0.048841
v 0.000000 0.067855 0.071363
v 0.000000 0.000000 0.068886
v 0.000000 0.000000 -0.068904
v 0.000000 0.067855 -0.071382
v 0.068896 0.000000 -0.000009
v 0.000000 0.000000 0.000000
v -0.068896 0.000000 -0.000009
v -0.071372 0.067855 -0.000009
v 0.071372 0.067855 -0.000009
v 0.000000 0.035105 -0.083128
v -0.058979 0.035105 -0.058895
v -0.083212 0.035105 0.000084
v -0.058979 0.035105 0.059062
v 0.000000 0.035105 0.083295
v 0.058979 0.035105 0.059062
v 0.083212 0.035105 0.000084
v 0.058979 0.035105 -0.058895
v 0.000000 0.092933 -0.042606
v 0.042606 0.092933 0.000000
v 0.030198 0.092933 -0.030198
v -0.042606 0.092933 0.000000
v -0.030198 0.092933 -0.030198
v -0.030198 0.092933 0.030198
v 0.000000 0.092933 0.042606
v 0.030198 0.092933 0.030198
v 0.000000 0.199565 -0.017638
v 0.017638 0.199565 0.000000
v 0.012502 0.199565 -0.012502
v -0.017638 0.199565 0.000000
v -0.012502 0.199565 -0.012502
v -0.012502 0.199565 0.012502
v 0.000000 0.199565 0.017638
v 0.012502 0.199565 0.012502
v 0.000000 0.215278 -0.018893
v 0.018893 0.215278 0.000000
v 0.013391 0.215278 -0.013391
v -0.018893 0.215278 0.000000
v -0.013391 0.215278 -0.013391
v -0.013391 0.215278 0.013391
v 0.000000 0.215278 0.018893
v 0.013391 0.215278 0.013391
v 0.000000 0.215278 -0.024821
v 0.024821 0.215278 0.000000
v 0.017592 0.215278 -0.017592
v -0.024821 0.215278 0.000000
v -0.017592 0.215278 -0.017592
v -0.017592 0.215278 0.017592
v 0.000000 0.215278 0.024821
v 0.017592 0.215278 0.017592
v 0.000000 0.237386 -0.024821
v 0.024821 0.237386 0.000000
v 0.017592 0.237386 -0.017592
v -0.024821 0.237386 0.000000
v -0.017592 0.237386 -0.017592
v -0.017592 0.237386 0.017592
v 0.000000 0.237386 0.024821
v 0.017592 0.237386 0.017592
v 0.000000 0.237386 -0.016496
v 0.016496 0.237386 0.000000
v 0.011692 0.237386 -0.011692
v -0.016496 0.237386 0.000000
v -0.011692 0.237386 -0.011692
v -0.011692 0.237386 0.011692
v 0.000000 0.237386 0.016496
v 0.011692 0.237386 0.011692
v -0.000302 0.260494 -0.019600
v -0.000000 0.256732 -0.000000
v 0.019831 0.254477 -0.000762
v 0.013842 0.257801 -0.014432
v -0.019831 0.258986 0.000762
v -0.014270 0.260996 -0.013352
v -0.013842 0.255660 0.014432
v 0.000302 0.252967 0.019600
v 0.014270 0.252467 0.013352
v -0.017918 0.119701 -0.017918
v -0.025280 0.119701 0.000000
v -0.017918 0.119701 0.017918
v 0.000000 0.119701 0.025280
v 0.017918 0.119701 0.017918
v 0.025280 0.119701 0.000000
v 0.017918 0.119701 -0.017918
v 0.000000 0.119701 -0.025280
vt 0.225683 0.312410
vt 0.225683 0.312410
vt 0.225683 0.312410
vt 0.225683 0.312410
vt 0.225683 0.312410
vt 0.225683 0.312410
vt 0.225683 0.312410
vt 0.225683 0.312410
vt 0.225683 0.312410
vt 0.225683 0.312410
vt 0.225683 0.312410
vt 0.225683 0.312410
vt 0.225683 0.312410
vt 0.225683 0.312410
vt 0.225683 0.312410
vt 0.225683 0.312410
vt 0.225683 0.312410
vt 0.225683 0.312410
vt 0.225683 0.312410
vt 0.225683 0.312410
vt 0.225683 0.312410
vt 0.225683 0.312410
vt 0.225683 0.312410
vt 0.225683 0.312410
vt 0.225683 0.312410
vt 0.225683 0.312410
vt 0.341180 0.214823
vt 0.225683 0.312410
vt 0.225683 0.312410
vt 0.225683 0.312410
vt 0.225683 0.312410
vt 0.225683 0.312410
vt 0.225683 0.312410
vt 0.225683 0.312410
vt 0.225683 0.312410
vt 0.225683 0.312410
vt 0.225683 0.312410
vt 0.225683 0.312410
vt 0.225683 0.312410
vt 0.225683 0.312410
vt 0.225683 0.312410
vt 0.225683 0.312410
vt 0.225683 0.312410
vt 0.225683 0.312410
vt 0.225683 0.312410
vt 0.225683 0.312410
vt 0.225683 0.312410
vt 0.225683 0.312410
vt 0.225683 0.312410
vt 0.225683 0.312410
vt 0.225683 0.312410
vt 0.225683 0.312410
vt 0.225683 0.312410
vt 0.225683 0.312410
vt 0.225683 0.312410
vt 0.225683 0.312410
vt 0.225683 0.312410
vt 0.225683 0.312410
vt 0.225683 0.312410
vt 0.225683 0.312410
vt 0.225683 0.312410
vt 0.225683 0.312410
vt 0.225683 0.312410
vt 0.225683 0.312410
vt 0.225683 0.312410
vt 0.225683 0.312410
vt 0.225683 0.312410
vt 0.225683 0.312410
vt 0.225683 0.312410
vt 0.225683 0.312410
vt 0.225683 0.312410
vt 0.225683 0.312410
vt 0.225683 0.312410
vt 0.225683 0.312410
vt 0.225683 0.312410
vt 0.225683 0.312410
vt 0.225683 0.312410
vt 0.225683 0.312410
vt 0.225683 0.312410
vt 0.225683 0.312410
vt 0.225683 0.312410
vt 0.225683 0.312410
vt 0.225683 0.312410
vt 0.225683 0.312410
vt 0.225683 0.312410
vt 0.225683 0.312410
vt 0.225683 0.312410
vt 0.341180 0.214823
vt 0.341180 0.214824
vt 0.341180 0.214823
vt 0.341180 0.214823
vt 0.341180 0.214823
vt 0.341180 0.214824
vt 0.341180 0.214824
vt 0.341180 0.214824
vt 0.341180 0.214824
vt 0.341180 0.214824
vt 0.341180 0.214824
vt 0.341180 0.214824
vt 0.341180 0.214824
vt 0.341180 0.214824
vt 0.341180 0.214824
vt 0.341180 0.214824
vt 0.225683 0.312410
vt 0.225683 0.312410
vt 0.225683 0.312410
vt 0.225683 0.312410
vt 0.225683 0.312410
vt 0.225683 0.312410
vt 0.225683 0.312410
vt 0.225683 0.312410
vn 0.360146 0.319357 0.876531
vn 0.360146 0.319357 0.876531
vn 0.360146 0.319357 0.876531
vn 0.360146 0.319357 0.876531
vn 0.118013 0.975538 0.185471
vn 0.118013 0.975538 0.185471
vn 0.118013 0.975538 0.185471
vn 0.118013 0.975538 0.185471
vn 0.360720 0.314885 -0.877911
vn 0.360720 0.314885 -0.877911
vn 0.360720 0.314885 -0.877911
vn 0.360720 0.314885 -0.877911
vn 0.000000 -1.000000 0.000000
vn 0.000000 -1.000000 0.000000
vn 0.000000 -1.000000 0.000000
vn 0.000000 -1.000000 0.000000
vn 0.877505 0.316209 -0.360551
vn 0.877505 0.316209 -0.360551
vn 0.877505 0.316209 -0.360551
vn 0.877505 0.316209 -0.360551
vn -0.877505 0.316209 -0.360551
vn -0.877505 0.316209 -0.360551
vn -0.877505 0.316209 -0.360551
vn -0.877505 0.316209 -0.360551
vn -0.360146 0.319357 0.876531
vn -0.360146 0.319357 0.876531
vn -0.360146 0.319357 0.876531
vn -0.360146 0.319357 0.876531
vn 0.000000 -1.000000 0.000000
vn 0.000000 -1.000000 0.000000
vn 0.000000 -1.000000 0.000000
vn 0.000000 -1.000000 0.000000
vn -0.360720 0.314885 -0.877911
vn -0.360720 0.314885 -0.877911
vn -0.360720 0.314885 -0.877911
vn -0.360720 0.314885 -0.877911
vn 0.118043 0.975540 0.185439
vn 0.118043 0.975540 0.185439
vn 0.118043 0.975540 0.185439
vn 0.118043 0.975540 0.185439
vn 0.000000 -1.000000 0.000000
vn 0.000000 -1.000000 0.000000
vn 0.000000 -1.000000 0.000000
vn 0.000000 -1.000000 0.000000
vn 0.000000 -1.000000 0.000000
vn 0.000000 -1.000000 0.000000
vn 0.000000 -1.000000 0.000000
vn 0.000000 -1.000000 0.000000
vn -0.876936 0.318049 0.360318
vn -0.876936 0.318049 0.360318
vn -0.876936 0.318049 0.360318
vn -0.876936 0.318049 0.360318
vn 0.117991 0.975519 0.185585
vn 0.117991 0.975519 0.185585
vn 0.117991 0.975519 0.185585
vn 0.117991 0.975519 0.185585
vn 0.118002 0.975535 0.185491
vn 0.118002 0.975535 0.185491
vn 0.118002 0.975535 0.185491
vn 0.118002 0.975535 0.185491
vn 0.876936 0.318049 0.360318
vn 0.876936 0.318049 0.360318
vn 0.876936 0.318049 0.360318
vn 0.876936 0.318049 0.360318
vn -0.355878 -0.350940 -0.866136
vn -0.355878 -0.350940 -0.866136
vn -0.355878 -0.350940 -0.866136
vn -0.355878 -0.350940 -0.866136
vn -0.865723 -0.352124 -0.355713
vn -0.865723 -0.352124 -0.355713
vn -0.865723 -0.352124 -0.355713
vn -0.865723 -0.352124 -0.355713
vn -0.865148 -0.353772 0.355477
vn -0.865148 -0.353772 0.355477
vn -0.865148 -0.353772 0.355477
vn -0.865148 -0.353772 0.355477
vn -0.355301 -0.354942 0.864741
vn -0.355301 -0.354942 0.864741
vn -0.355301 -0.354942 0.864741
vn -0.355301 -0.354942 0.864741
vn 0.355301 -0.354942 0.864741
vn 0.355301 -0.354942 0.864741
vn 0.355301 -0.354942 0.864741
vn 0.355301 -0.354942 0.864741
vn 0.865148 -0.353772 0.355477
vn 0.865148 -0.353772 0.355477
vn 0.865148 -0.353772 0.355477
vn 0.865148 -0.353772 0.355477
vn 0.865723 -0.352124 -0.355713
vn 0.865723 -0.352124 -0.355713
vn 0.865723 -0.352124 -0.355713
vn 0.865723 -0.352124 -0.355713
vn 0.355878 -0.350940 -0.866136
vn 0.355878 -0.350940 -0.866136
vn 0.355878 -0.350940 -0.866136
vn 0.355878 -0.350940 -0.866136
vn 0.634362 0.727769 -0.260648
vn 0.634362 0.727769 -0.260648
vn 0.634362 0.727769 -0.260648
vn 0.634362 0.727769 -0.260648
vn 0.260623 0.727834 -0.634297
vn 0.260623 0.727834 -0.634297
vn 0.260623 0.727834 -0.634298
vn 0.260623 0.727834 -0.634298
vn -0.260623 0.727834 -0.634297
vn -0.260623 0.727834 -0.634297
vn -0.260623 0.727834 -0.634297
vn -0.260623 0.727834 -0.634297
vn -0.634362 0.727769 -0.260648
vn -0.634362 0.727769 -0.260648
vn -0.634362 0.727769 -0.260648
vn -0.634362 0.727769 -0.260648
vn -0.260710 0.727612 0.634516
vn -0.260710 0.727612 0.634516
vn -0.260710 0.727612 0.634516
vn -0.260710 0.727612 0.634516
vn -0.634451 0.727679 0.260684
vn -0.634451 0.727679 0.260684
vn -0.634451 0.727679 0.260684
vn -0.634451 0.727679 0.260684
vn 0.260710 0.727612 0.634516
vn 0.260710 0.727612 0.634516
vn 0.260710 0.727612 0.634516
vn 0.260710 0.727612 0.634516
vn 0.634451 0.727679 0.260684
vn 0.634451 0.727679 0.260684
vn 0.634451 0.727679 0.260684
vn 0.634451 0.727679 0.260684
vn 0.890087 0.272021 -0.365718
vn 0.890025 0.272260 -0.365692
vn 0.921365 0.088165 -0.378567
vn 0.921366 0.088165 -0.378567
vn 0.365694 0.272259 -0.890024
vn 0.365719 0.272021 -0.890087
vn 0.378568 0.088165 -0.921365
vn 0.378568 0.088165 -0.921365
vn -0.365718 0.272020 -0.890087
vn -0.365692 0.272259 -0.890025
vn -0.378567 0.088165 -0.921365
vn -0.378567 0.088165 -0.921365
vn -0.890025 0.272259 -0.365692
vn -0.890088 0.272020 -0.365717
vn -0.921365 0.088165 -0.378566
vn -0.921365 0.088165 -0.378567
vn -0.365691 0.272258 0.890026
vn -0.365716 0.272019 0.890088
vn -0.378564 0.088163 0.921367
vn -0.378564 0.088163 0.921367
vn -0.890089 0.272019 0.365716
vn -0.890026 0.272258 0.365690
vn -0.921367 0.088164 0.378564
vn -0.921367 0.088164 0.378564
vn 0.365717 0.272020 0.890088
vn 0.365692 0.272258 0.890025
vn 0.378565 0.088163 0.921366
vn 0.378565 0.088163 0.921366
vn 0.890026 0.272258 0.365691
vn 0.890088 0.272020 0.365717
vn 0.921367 0.088164 0.378564
vn 0.921367 0.088164 0.378564
vn 0.922455 -0.073652 -0.379016
vn 0.922455 -0.073652 -0.379016
vn 0.922455 -0.073652 -0.379016
vn 0.922455 -0.073652 -0.379016
vn 0.379022 -0.073658 -0.922452
vn 0.379022 -0.073658 -0.922452
vn 0.379022 -0.073658 -0.922452
vn 0.379022 -0.073658 -0.922452
vn -0.379022 -0.073658 -0.922452
vn -0.379022 -0.073658 -0.922452
vn -0.379022 -0.073658 -0.922452
vn -0.379022 -0.073658 -0.922452
vn -0.922452 -0.073652 -0.379023
vn -0.922451 -0.073652 -0.379023
vn -0.922452 -0.073652 -0.379023
vn -0.922451 -0.073652 -0.379023
vn -0.379018 -0.073647 0.922454
vn -0.379018 -0.073647 0.922454
vn -0.379018 -0.073647 0.922454
vn -0.379018 -0.073647 0.922454
vn -0.922453 -0.073649 0.379020
vn -0.922453 -0.073649 0.379020
vn -0.922453 -0.073649 0.379020
vn -0.922453 -0.073649 0.379020
vn 0.379018 -0.073647 0.922454
vn 0.379018 -0.073647 0.922454
vn 0.379018 -0.073647 0.922454
vn 0.379018 -0.073647 0.922454
vn 0.922456 -0.073649 0.379013
vn 0.922456 -0.073649 0.379013
vn 0.922456 -0.073649 0.379013
vn 0.922456 -0.073649 0.379013
vn 0.000000 -1.000000 -0.000001
vn 0.000000 -1.000000 -0.000001
vn 0.000000 -1.000000 -0.000001
vn 0.000000 -1.000000 -0.000001
vn 0.000000 -1.000000 -0.000002
vn 0.000000 -1.000000 -0.000002
vn 0.000000 -1.000000 -0.000002
vn 0.000000 -1.000000 -0.000002
vn 0.000000 -1.000000 -0.000003
vn 0.000000 -1.000000 -0.000003
vn 0.000000 -1.000000 -0.000003
vn 0.000000 -1.000000 -0.000003
vn 0.000000 -1.000000 0.000001
vn 0.000000 -1.000000 0.000001
vn 0.000000 -1.000000 0.000001
vn 0.000000 -1.000000 0.000001
vn 0.000000 -1.000000 0.000002
vn 0.000000 -1.000000 0.000002
vn 0.000000 -1.000000 0.000002
vn 0.000000 -1.000000 0.000002
vn 0.000000 -1.000000 -0.000001
vn 0.000000 -1.000000 -0.000001
vn 0.000000 -1.000000 -0.000001
vn 0.000000 -1.000000 -0.000001
vn 0.000000 -1.000000 0.000003
vn 0.000000 -1.000000 0.000003
vn 0.000000 -1.000000 0.000003
vn 0.000000 -1.000000 0.000003
vn 0.000000 -1.000000 0.000002
vn 0.000000 -1.000000 0.000002
vn 0.000000 -1.000000 0.000002
vn 0.000000 -1.000000 0.000002
vn 0.924966 0.000000 -0.380050
vn 0.924966 0.000000 -0.380050
vn 0.924966 0.000000 -0.380050
vn 0.924966 0.000000 -0.380050
vn 0.380053 0.000000 -0.924965
vn 0.380053 0.000000 -0.924965
vn 0.380053 0.000000 -0.924965
vn 0.380053 0.000000 -0.924965
vn -0.380053 0.000000 -0.924965
vn -0.380053 0.000000 -0.924965
vn -0.380053 0.000000 -0.924965
vn -0.380053 0.000000 -0.924965
vn -0.924966 0.000000 -0.380050
vn -0.924966 0.000000 -0.380050
vn -0.924966 0.000000 -0.380050
vn -0.924966 0.000000 -0.380050
vn -0.380048 0.000000 0.924967
vn -0.380048 0.000000 0.924967
vn -0.380048 0.000000 0.924967
vn -0.380048 0.000000 0.924967
vn -0.924967 0.000000 0.380048
vn -0.924967 0.000000 0.380048
vn -0.924967 0.000000 0.380048
vn -0.924967 0.000000 0.380048
vn 0.380048 0.000000 0.924967
vn 0.380048 0.000000 0.924967
vn 0.380048 0.000000 0.924967
vn 0.380048 0.000000 0.924967
vn 0.924967 0.000000 0.380048
vn 0.924967 0.000000 0.380048
vn 0.924967 0.000000 0.380048
vn 0.924967 0.000000 0.380048
vn 0.000000 1.000000 0.000000
vn 0.000000 1.000000 0.000000
vn 0.000000 1.000000 0.000000
vn 0.000000 1.000000 0.000000
vn 0.000000 1.000000 -0.000001
vn 0.000000 1.000000 -0.000001
vn 0.000000 1.000000 -0.000001
vn 0.000000 1.000000 -0.000001
vn 0.000000 1.000000 -0.000002
vn 0.000000 1.000000 -0.000002
vn 0.000000 1.000000 -0.000002
vn 0.000000 1.000000 -0.000002
vn 0.000000 1.000000 -0.000001
vn 0.000000 1.000000 -0.000001
vn 0.000000 1.000000 -0.000001
vn 0.000000 1.000000 -0.000001
vn 0.000000 1.000000 0.000001
vn 0.000000 1.000000 0.000001
vn 0.000000 1.000000 0.000001
vn 0.000000 1.000000 0.000001
vn 0.000000 1.000000 0.000002
vn 0.000000 1.000000 0.000002
vn 0.000000 1.000000 0.000002
vn 0.000000 1.000000 0.000002
vn 0.000000 1.000000 0.000002
vn 0.000000 1.000000 0.000002
vn 0.000000 1.000000 0.000002
vn 0.000000 1.000000 0.000002
vn 0.000000 1.000000 -0.000001
vn 0.000000 1.000000 -0.000001
vn 0.000000 1.000000 -0.000001
vn 0.000000 1.000000 -0.000001
vn 0.898692 -0.169210 -0.404625
vn 0.898692 -0.169210 -0.404625
vn 0.898692 -0.169210 -0.404625
vn 0.898692 -0.169210 -0.404625
vn 0.343910 -0.139305 -0.928612
vn 0.343910 -0.139305 -0.928612
vn 0.343910 -0.139305 -0.928612
vn 0.343910 -0.139305 -0.928612
vn -0.394797 -0.117261 -0.911255
vn -0.394797 -0.117261 -0.911255
vn -0.394797 -0.117261 -0.911255
vn -0.394797 -0.117261 -0.911255
vn -0.916904 -0.127420 -0.378221
vn -0.916904 -0.127420 -0.378221
vn -0.916904 -0.127420 -0.378221
vn -0.916904 -0.127420 -0.378221
vn -0.370423 -0.177616 0.911723
vn -0.370423 -0.177616 0.911723
vn -0.370423 -0.177616 0.911723
vn -0.370423 -0.177616 0.911723
vn -0.915843 -0.158386 0.368980
vn -0.915843 -0.158386 0.368980
vn -0.915843 -0.158386 0.368980
vn -0.915843 -0.158386 0.368980
vn 0.386433 -0.176936 0.905187
vn 0.386433 -0.176936 0.905187
vn 0.386433 -0.176936 0.905187
vn 0.386433 -0.176936 0.905187
vn 0.917759 -0.178570 0.354728
vn 0.917759 -0.178570 0.354728
vn 0.917758 -0.178570 0.354728
vn 0.917758 -0.178570 0.354728
vn -0.793623 0.513644 -0.326086
vn -0.793623 0.513644 -0.326086
vn -0.890088 0.272020 -0.365717
vn -0.890025 0.272259 -0.365692
vn -0.793623 0.513644 0.326086
vn -0.793623 0.513644 0.326086
vn -0.890026 0.272258 0.365690
vn -0.890089 0.272019 0.365716
vn -0.326086 0.513645 0.793622
vn -0.326086 0.513645 0.793622
vn -0.365716 0.272019 0.890088
vn -0.365691 0.272258 0.890026
vn 0.326087 0.513646 0.793622
vn 0.326087 0.513646 0.793622
vn 0.365692 0.272258 0.890025
vn 0.365717 0.272020 0.890088
vn 0.793622 0.513646 0.326087
vn 0.793622 0.513646 0.326087
vn 0.890088 0.272020 0.365717
vn 0.890026 0.272258 0.365691
vn 0.793622 0.513646 -0.326087
vn 0.793622 0.513646 -0.326087
vn 0.890025 0.272260 -0.365692
vn 0.890087 0.272021 -0.365718
vn 0.326087 0.513646 -0.793622
vn 0.326087 0.513646 -0.793622
vn 0.365719 0.272021 -0.890087
vn 0.365694 0.272259 -0.890024
vn -0.326086 0.513645 -0.793622
vn -0.326086 0.513645 -0.793622
vn -0.365692 0.272259 -0.890025
vn -0.365718 0.272020 -0.890087
s off
f 9/15/1 22/35/2 23/36/3 4/4/4
f 74/27/5 75/88/6 76/89/7 77/90/8
f 25/38/9 18/30/10 12/19/11 6/6/12
f 13/20/13 14/22/14 11/18/15 8/8/16
f 17/29/17 24/37/18 25/39/19 6/12/20
f 19/31/21 20/33/22 16/25/23 5/14/24
f 21/34/25 22/35/26 9/15/27 3/3/28
f 7/7/29 11/18/30 14/22/31 15/24/32
f 5/5/33 12/19/34 18/30/35 19/32/36
f 78/91/37 75/88/38 74/27/39 79/92/40
f 10/17/41 14/22/42 13/20/43 2/10/44
f 15/24/45 14/22/46 10/17/47 1/9/48
f 16/25/49 20/33/50 21/34/51 3/3/52
f 80/93/53 81/94/54 75/88/55 78/91/56
f 76/89/57 75/88/58 81/94/59 82/95/60
f 23/36/61 24/37/62 17/29/63 4/4/64
f 19/32/65 18/30/66 11/18/67 7/7/68
f 7/13/69 15/23/70 20/33/71 19/31/72
f 21/34/73 20/33/74 15/23/75 1/1/76
f 1/1/77 10/16/78 22/35/79 21/34/80
f 23/36/81 22/35/82 10/16/83 2/2/84
f 2/2/85 13/21/86 24/37/87 23/36/88
f 25/39/89 24/37/90 13/21/91 8/11/92
f 11/18/93 18/30/94 25/38/95 8/8/96
f 17/28/97 6/6/98 28/41/99 27/40/100
f 6/6/101 12/19/102 26/42/103 28/41/104
f 12/19/105 5/5/106 30/43/107 26/42/108
f 5/5/109 16/26/110 29/44/111 30/43/112
f 3/3/113 9/15/114 32/46/115 31/45/116
f 16/26/117 3/3/118 31/45/119 29/44/120
f 9/15/121 4/4/122 33/47/123 32/46/124
f 4/4/125 17/28/126 27/40/127 33/47/128
f 88/109/129 89/110/130 36/49/131 35/48/132
f 89/110/133 90/111/134 34/50/135 36/49/136
f 90/111/137 83/104/138 38/51/139 34/50/140
f 83/104/141 84/105/142 37/52/143 38/51/144
f 85/106/145 86/107/146 40/54/147 39/53/148
f 84/105/149 85/106/150 39/53/151 37/52/152
f 86/107/153 87/108/154 41/55/155 40/54/156
f 87/108/157 88/109/158 35/48/159 41/55/160
f 35/48/161 36/49/162 44/57/163 43/56/164
f 36/49/165 34/50/166 42/58/167 44/57/168
f 34/50/169 38/51/170 46/59/171 42/58/172
f 38/51/173 37/52/174 45/60/175 46/59/176
f 39/53/177 40/54/178 48/62/179 47/61/180
f 37/52/181 39/53/182 47/61/183 45/60/184
f 40/54/185 41/55/186 49/63/187 48/62/188
f 41/55/189 35/48/190 43/56/191 49/63/192
f 43/56/193 44/57/194 52/65/195 51/64/196
f 44/57/197 42/58/198 50/66/199 52/65/200
f 42/58/201 46/59/202 54/67/203 50/66/204
f 46/59/205 45/60/206 53/68/207 54/67/208
f 47/61/209 48/62/210 56/70/211 55/69/212
f 45/60/213 47/61/214 55/69/215 53/68/216
f 48/62/217 49/63/218 57/71/219 56/70/220
f 49/63/221 43/56/222 51/64/223 57/71/224
f 51/64/225 52/65/226 60/73/227 59/72/228
f 52/65/229 50/66/230 58/74/231 60/73/232
f 50/66/233 54/67/234 62/75/235 58/74/236
f 54/67/237 53/68/238 61/76/239 62/75/240
f 55/69/241 56/70/242 64/78/243 63/77/244
f 53/68/245 55/69/246 63/77/247 61/76/248
f 56/70/249 57/71/250 65/79/251 64/78/252
f 57/71/253 51/64/254 59/72/255 65/79/256
f 59/72/257 60/73/258 68/81/259 67/80/260
f 60/73/261 58/74/262 66/82/263 68/81/264
f 58/74/265 62/75/266 70/83/267 66/82/268
f 62/75/269 61/76/270 69/84/271 70/83/272
f 63/77/273 64/78/274 72/86/275 71/85/276
f 61/76/277 63/77/278 71/85/279 69/84/280
f 64/78/281 65/79/282 73/87/283 72/86/284
f 65/79/285 59/72/286 67/80/287 73/87/288
f 67/96/289 68/97/290 77/90/291 76/89/292
f 68/97/293 66/98/294 74/27/295 77/90/296
f 66/98/297 70/99/298 79/92/299 74/27/300
f 70/99/301 69/100/302 78/91/303 79/92/304
f 71/101/305 72/102/306 81/94/307 80/93/308
f 69/100/309 71/101/310 80/93/311 78/91/312
f 72/102/313 73/103/314 82/95/315 81/94/316
f 73/103/317 67/96/318 76/89/319 82/95/320
f 30/43/321 29/44/322 84/105/323 83/104/324
f 29/44/325 31/45/326 85/106/327 84/105/328
f 31/45/329 32/46/330 86/107/331 85/106/332
f 32/46/333 33/47/334 87/108/335 86/107/336
f 33/47/337 27/40/338 88/109/339 87/108/340
f 27/40/341 28/41/342 89/110/343 88/109/344
f 28/41/345 26/42/346 90/111/347 89/110/348
f 26/42/349 30/43/350 83/104/351 90/111/352
