# This file uses centimeters as units for non-parametric coordinates.

v -0.250068 0.003621 0.041044
v -0.274012 0.003621 0.076092
v -0.255633 0.003621 0.114353
v -0.213308 0.003621 0.117564
v -0.189364 0.003621 0.082516
v -0.207744 0.003621 0.044257
v -0.250068 0.017223 0.041044
v -0.274012 0.017223 0.076092
v -0.255633 0.017223 0.114353
v -0.213308 0.017223 0.117564
v -0.189364 0.017223 0.082516
v -0.207744 0.017223 0.044257
v 0.112959 0.003621 0.117514
v 0.119061 0.003621 0.159519
v 0.158489 0.003621 0.175238
v 0.191816 0.003621 0.148951
v 0.185715 0.003621 0.106945
v 0.146286 0.003621 0.091227
v 0.112959 0.017223 0.117514
v 0.119061 0.017223 0.159519
v 0.158489 0.017223 0.175238
v 0.191816 0.017223 0.148951
v 0.185715 0.017223 0.106945
v 0.146286 0.017223 0.091227
v 0.204546 0.003621 -0.153451
v 0.190643 0.003621 -0.113346
v 0.218421 0.003621 -0.081253
v 0.260105 0.003621 -0.089264
v 0.274010 0.003621 -0.129368
v 0.246230 0.003621 -0.161462
v 0.204546 0.017223 -0.153451
v 0.190643 0.017223 -0.113346
v 0.218421 0.017223 -0.081253
v 0.260105 0.017223 -0.089264
v 0.274010 0.017223 -0.129368
v 0.246230 0.017223 -0.161462
v 0.104038 0.003621 -0.203804
v 0.069439 0.003621 -0.179220
v 0.073427 0.003621 -0.136963
v 0.112019 0.003621 -0.119288
v 0.146620 0.003621 -0.143871
v 0.142632 0.003621 -0.186131
v 0.104038 0.017223 -0.203804
v 0.069439 0.017223 -0.179220
v 0.073427 0.017223 -0.136963
v 0.112019 0.017223 -0.119288
v 0.146620 0.017223 -0.143871
v 0.142632 0.017223 -0.186131
v 0.189135 0.003621 0.302270
v 0.146708 0.003621 0.301043
v 0.124428 0.003621 0.337172
v 0.144580 0.003621 0.374529
v 0.187006 0.003621 0.375759
v 0.209288 0.003621 0.339632
v 0.189135 0.017223 0.302270
v 0.146708 0.017223 0.301043
v 0.124428 0.017223 0.337172
v 0.144580 0.017223 0.374529
v 0.187006 0.017223 0.375759
v 0.209288 0.017223 0.339632
v 0.063667 0.003621 -0.162166
v 0.025194 0.003621 -0.180100
v -0.009571 0.003621 -0.155749
v -0.005865 0.003621 -0.113465
v 0.032606 0.003621 -0.095531
v 0.067371 0.003621 -0.119883
v 0.063667 0.017223 -0.162166
v 0.025194 0.017223 -0.180100
v -0.009571 0.017223 -0.155749
v -0.005865 0.017223 -0.113465
v 0.032606 0.017223 -0.095531
v 0.067371 0.017223 -0.119883
v 0.138734 0.003621 -0.375758
v 0.097482 0.003621 -0.365757
v 0.085520 0.003621 -0.325029
v 0.114810 0.003621 -0.294308
v 0.156061 0.003621 -0.304313
v 0.168022 0.003621 -0.345036
v 0.138734 0.017223 -0.375758
v 0.097482 0.017223 -0.365757
v 0.085520 0.017223 -0.325029
v 0.114810 0.017223 -0.294308
v 0.156061 0.017223 -0.304313
v 0.168022 0.017223 -0.345036
v 0.002995 0.001352 -0.228855
v -0.013994 0.009145 -0.190746
v 0.011198 0.015585 -0.157195
v 0.053377 0.014233 -0.161755
v 0.070364 0.006440 -0.199865
v 0.045174 0.000000 -0.233417
v 0.003136 0.014691 -0.231522
v -0.013853 0.022483 -0.193411
v 0.011337 0.028923 -0.159860
v 0.053516 0.027571 -0.164422
v 0.070505 0.019778 -0.202530
v 0.045313 0.013338 -0.236079
vt 0.133253 0.352527
vt 0.133253 0.352527
vt 0.133253 0.352527
vt 0.133253 0.352527
vt 0.133253 0.352527
vt 0.133253 0.352527
vt 0.133253 0.352527
vt 0.133253 0.352527
vt 0.133253 0.352527
vt 0.133253 0.352527
vt 0.133253 0.352527
vt 0.133253 0.352527
vt 0.133253 0.352527
vt 0.133253 0.352527
vt 0.133253 0.352527
vt 0.133253 0.352527
vt 0.133253 0.352527
vt 0.133253 0.352527
vt 0.133253 0.352527
vt 0.133253 0.352527
vt 0.133253 0.352527
vt 0.133253 0.352527
vt 0.133253 0.352527
vt 0.133253 0.352527
vt 0.133253 0.352527
vt 0.133253 0.352527
vt 0.133253 0.352527
vt 0.133253 0.352527
vt 0.133253 0.352527
vt 0.133253 0.352527
vt 0.133253 0.352527
vt 0.133253 0.352527
vt 0.133253 0.352527
vt 0.133253 0.352527
vt 0.133253 0.352527
vt 0.133253 0.352527
vt 0.133253 0.352527
vt 0.133253 0.352527
vt 0.133253 0.352527
vt 0.133253 0.352527
vt 0.133253 0.352527
vt 0.133253 0.352527
vt 0.133253 0.352527
vt 0.133253 0.352527
vt 0.133253 0.352527
vt 0.133253 0.352527
vt 0.133253 0.352527
vt 0.133253 0.352527
vt 0.133253 0.352527
vt 0.133253 0.352527
vt 0.133253 0.352527
vt 0.133253 0.352527
vt 0.133253 0.352527
vt 0.133253 0.352527
vt 0.133253 0.352527
vt 0.133253 0.352527
vt 0.133253 0.352527
vt 0.133253 0.352527
vt 0.133253 0.352527
vt 0.133253 0.352527
vt 0.133253 0.352527
vt 0.133253 0.352527
vt 0.133253 0.352527
vt 0.133253 0.352527
vt 0.133253 0.352527
vt 0.133253 0.352527
vt 0.133253 0.352527
vt 0.133253 0.352527
vt 0.133253 0.352527
vt 0.133253 0.352527
vt 0.133253 0.352527
vt 0.133253 0.352527
vt 0.133253 0.352527
vt 0.133253 0.352527
vt 0.133253 0.352527
vt 0.133253 0.352527
vt 0.133253 0.352527
vt 0.133253 0.352527
vt 0.133253 0.352527
vt 0.133253 0.352527
vt 0.133253 0.352527
vt 0.133253 0.352527
vt 0.133253 0.352527
vt 0.133253 0.352527
vt 0.133253 0.352527
vt 0.133253 0.352527
vt 0.133253 0.352527
vt 0.133253 0.352527
vt 0.133253 0.352527
vt 0.133253 0.352527
vt 0.133253 0.352527
vt 0.133253 0.352527
vt 0.133253 0.352527
vt 0.133253 0.352527
vt 0.133253 0.352527
vt 0.133253 0.352527
vt 0.133253 0.352527
vt 0.133253 0.352527
vt 0.133253 0.352527
vt 0.133253 0.352527
vt 0.133253 0.352527
vt 0.133253 0.352527
vt 0.133253 0.352527
vt 0.133253 0.352527
vt 0.133253 0.352527
vt 0.133253 0.352527
vt 0.133253 0.352527
vt 0.133253 0.352527
vt 0.133253 0.352527
vt 0.133253 0.352527
vt 0.133253 0.352527
vt 0.133253 0.352527
vt 0.133253 0.352527
vt 0.133253 0.352527
vt 0.133253 0.352527
vt 0.133253 0.352527
vt 0.133253 0.352527
vt 0.133253 0.352527
vt 0.133253 0.352527
vt 0.133253 0.352527
vt 0.133253 0.352527
vt 0.133253 0.352527
vt 0.133253 0.352527
vt 0.133253 0.352527
vt 0.133253 0.352527
vt 0.133253 0.352527
vt 0.133253 0.352527
vt 0.133253 0.352527
vt 0.133253 0.352527
vt 0.133253 0.352527
vt 0.133253 0.352527
vt 0.133253 0.352527
vt 0.133253 0.352527
vt 0.133253 0.352527
vt 0.133253 0.352527
vt 0.133253 0.352527
vt 0.133253 0.352527
vt 0.133253 0.352527
vt 0.133253 0.352527
vt 0.133253 0.352527
vt 0.133253 0.352527
vt 0.133253 0.352527
vt 0.133253 0.352527
vt 0.133253 0.352527
vt 0.133253 0.352527
vt 0.133253 0.352527
vt 0.133253 0.352527
vt 0.133253 0.352527
vt 0.133253 0.352527
vt 0.133253 0.352527
vt 0.133253 0.352527
vt 0.133253 0.352527
vt 0.133253 0.352527
vt 0.133253 0.352527
vt 0.133253 0.352527
vt 0.133253 0.352527
vt 0.133253 0.352527
vt 0.133253 0.352527
vt 0.133253 0.352527
vt 0.133253 0.352527
vn -0.825706 0.000000 -0.564100
vn -0.825706 0.000000 -0.564100
vn -0.825706 0.000000 -0.564100
vn -0.825706 0.000000 -0.564100
vn -0.901392 0.000000 0.433003
vn -0.901392 0.000000 0.433003
vn -0.901392 0.000000 0.433003
vn -0.901392 0.000000 0.433003
vn -0.075666 0.000000 0.997133
vn -0.075666 0.000000 0.997133
vn -0.075666 0.000000 0.997133
vn -0.075666 0.000000 0.997133
vn 0.825707 0.000000 0.564099
vn 0.825707 0.000000 0.564099
vn 0.825707 0.000000 0.564099
vn 0.825707 0.000000 0.564099
vn 0.901383 0.000000 -0.433022
vn 0.901383 0.000000 -0.433022
vn 0.901383 0.000000 -0.433022
vn 0.901383 0.000000 -0.433022
vn 0.075703 0.000000 -0.997130
vn 0.075703 0.000000 -0.997130
vn 0.075703 0.000000 -0.997130
vn 0.075703 0.000000 -0.997130
vn 0.000000 1.000000 -0.000000
vn 0.000000 1.000000 -0.000000
vn 0.000000 1.000000 -0.000000
vn 0.000000 1.000000 -0.000000
vn 0.000000 1.000000 -0.000000
vn 0.000000 1.000000 -0.000000
vn -0.989614 0.000000 0.143749
vn -0.989614 0.000000 0.143749
vn -0.989614 0.000000 0.143749
vn -0.989614 0.000000 0.143749
vn -0.370313 0.000000 0.928907
vn -0.370313 0.000000 0.928907
vn -0.370313 0.000000 0.928907
vn -0.370313 0.000000 0.928907
vn 0.619299 0.000000 0.785155
vn 0.619299 0.000000 0.785155
vn 0.619299 0.000000 0.785155
vn 0.619299 0.000000 0.785155
vn 0.989614 0.000000 -0.143749
vn 0.989614 0.000000 -0.143749
vn 0.989614 0.000000 -0.143749
vn 0.989614 0.000000 -0.143749
vn 0.370313 0.000000 -0.928907
vn 0.370313 0.000000 -0.928907
vn 0.370313 0.000000 -0.928907
vn 0.370313 0.000000 -0.928907
vn -0.619299 0.000000 -0.785155
vn -0.619299 0.000000 -0.785155
vn -0.619299 0.000000 -0.785155
vn -0.619299 0.000000 -0.785155
vn 0.000000 1.000000 0.000000
vn 0.000000 1.000000 0.000000
vn 0.000000 1.000000 0.000000
vn 0.000000 1.000000 0.000000
vn 0.000000 1.000000 0.000000
vn 0.000000 1.000000 0.000000
vn -0.944834 0.000000 -0.327551
vn -0.944834 0.000000 -0.327551
vn -0.944834 0.000000 -0.327551
vn -0.944834 0.000000 -0.327551
vn -0.756109 0.000000 0.654445
vn -0.756109 0.000000 0.654445
vn -0.756109 0.000000 0.654445
vn -0.756109 0.000000 0.654445
vn 0.188727 0.000000 0.982030
vn 0.188727 0.000000 0.982030
vn 0.188727 0.000000 0.982030
vn 0.188727 0.000000 0.982030
vn 0.944823 0.000000 0.327583
vn 0.944823 0.000000 0.327583
vn 0.944823 0.000000 0.327583
vn 0.944823 0.000000 0.327583
vn 0.756100 0.000000 -0.654457
vn 0.756100 0.000000 -0.654457
vn 0.756100 0.000000 -0.654457
vn 0.756100 0.000000 -0.654457
vn -0.188729 0.000000 -0.982029
vn -0.188729 0.000000 -0.982029
vn -0.188729 0.000000 -0.982029
vn -0.188729 0.000000 -0.982029
vn 0.000000 1.000000 0.000000
vn 0.000000 1.000000 0.000000
vn 0.000000 1.000000 0.000000
vn 0.000000 1.000000 0.000000
vn 0.000000 1.000000 0.000000
vn 0.000000 1.000000 0.000000
vn -0.579209 0.000000 -0.815179
vn -0.579209 0.000000 -0.815179
vn -0.579209 0.000000 -0.815179
vn -0.579209 0.000000 -0.815179
vn -0.995576 0.000000 0.093963
vn -0.995576 0.000000 0.093963
vn -0.995576 0.000000 0.093963
vn -0.995576 0.000000 0.093963
vn -0.416396 0.000000 0.909183
vn -0.416396 0.000000 0.909183
vn -0.416396 0.000000 0.909183
vn -0.416396 0.000000 0.909183
vn 0.579173 0.000000 0.815205
vn 0.579173 0.000000 0.815205
vn 0.579173 0.000000 0.815205
vn 0.579173 0.000000 0.815205
vn 0.995576 0.000000 -0.093959
vn 0.995576 0.000000 -0.093959
vn 0.995576 0.000000 -0.093959
vn 0.995576 0.000000 -0.093959
vn 0.416361 0.000000 -0.909200
vn 0.416361 0.000000 -0.909200
vn 0.416361 0.000000 -0.909200
vn 0.416361 0.000000 -0.909200
vn 0.000000 1.000000 0.000000
vn 0.000000 1.000000 0.000000
vn 0.000000 1.000000 0.000000
vn 0.000000 1.000000 0.000000
vn 0.000000 1.000000 0.000000
vn 0.000000 1.000000 0.000000
vn 0.028918 0.000000 -0.999582
vn 0.028918 0.000000 -0.999582
vn 0.028918 0.000000 -0.999582
vn 0.028918 0.000000 -0.999582
vn -0.851159 0.000000 -0.524908
vn -0.851159 0.000000 -0.524908
vn -0.851159 0.000000 -0.524908
vn -0.851159 0.000000 -0.524908
vn -0.880111 0.000000 0.474768
vn -0.880111 0.000000 0.474768
vn -0.880111 0.000000 0.474768
vn -0.880111 0.000000 0.474768
vn -0.028985 0.000000 0.999580
vn -0.028985 0.000000 0.999580
vn -0.028985 0.000000 0.999580
vn -0.028985 0.000000 0.999580
vn 0.851136 0.000000 0.524945
vn 0.851136 0.000000 0.524945
vn 0.851136 0.000000 0.524945
vn 0.851136 0.000000 0.524945
vn 0.880127 0.000000 -0.474739
vn 0.880127 0.000000 -0.474739
vn 0.880127 0.000000 -0.474739
vn 0.880127 0.000000 -0.474739
vn 0.000000 1.000000 0.000000
vn 0.000000 1.000000 0.000000
vn 0.000000 1.000000 0.000000
vn 0.000000 1.000000 0.000000
vn 0.000000 1.000000 0.000000
vn 0.000000 1.000000 0.000000
vn 0.422511 0.000000 -0.906358
vn 0.422511 0.000000 -0.906358
vn 0.422511 0.000000 -0.906358
vn 0.422511 0.000000 -0.906358
vn -0.573707 0.000000 -0.819061
vn -0.573707 0.000000 -0.819061
vn -0.573707 0.000000 -0.819061
vn -0.573707 0.000000 -0.819061
vn -0.996181 0.000000 0.087310
vn -0.996181 0.000000 0.087310
vn -0.996181 0.000000 0.087310
vn -0.996181 0.000000 0.087310
vn -0.422510 0.000000 0.906358
vn -0.422510 0.000000 0.906358
vn -0.422510 0.000000 0.906358
vn -0.422510 0.000000 0.906358
vn 0.573707 0.000000 0.819061
vn 0.573707 0.000000 0.819061
vn 0.573707 0.000000 0.819061
vn 0.573707 0.000000 0.819061
vn 0.996185 0.000000 -0.087268
vn 0.996185 0.000000 -0.087268
vn 0.996185 0.000000 -0.087268
vn 0.996185 0.000000 -0.087268
vn 0.000000 1.000000 0.000000
vn 0.000000 1.000000 0.000000
vn 0.000000 1.000000 0.000000
vn 0.000000 1.000000 0.000000
vn 0.000000 1.000000 0.000000
vn 0.000000 1.000000 0.000000
vn -0.235604 0.000000 -0.971849
vn -0.235604 0.000000 -0.971849
vn -0.235604 0.000000 -0.971849
vn -0.235604 0.000000 -0.971849
vn -0.959472 0.000000 -0.281803
vn -0.959472 0.000000 -0.281803
vn -0.959472 0.000000 -0.281803
vn -0.959472 0.000000 -0.281803
vn -0.723768 0.000000 0.690044
vn -0.723768 0.000000 0.690044
vn -0.723768 0.000000 0.690044
vn -0.723768 0.000000 0.690044
vn 0.235691 0.000000 0.971828
vn 0.235691 0.000000 0.971828
vn 0.235691 0.000000 0.971828
vn 0.235691 0.000000 0.971828
vn 0.959470 0.000000 0.281812
vn 0.959470 0.000000 0.281812
vn 0.959470 0.000000 0.281812
vn 0.959470 0.000000 0.281812
vn 0.723795 0.000000 -0.690015
vn 0.723795 0.000000 -0.690015
vn 0.723795 0.000000 -0.690015
vn 0.723795 0.000000 -0.690015
vn 0.000000 1.000000 -0.000000
vn 0.000000 1.000000 -0.000000
vn 0.000000 1.000000 -0.000000
vn 0.000000 1.000000 -0.000000
vn 0.000000 1.000000 -0.000000
vn 0.000000 1.000000 -0.000000
vn -0.916351 -0.069127 -0.394363
vn -0.916351 -0.069127 -0.394363
vn -0.916351 -0.069127 -0.394363
vn -0.916351 -0.069127 -0.394363
vn -0.804785 0.124420 0.580380
vn -0.804785 0.124420 0.580380
vn -0.804785 0.124420 0.580380
vn -0.804785 0.124420 0.580380
vn 0.111595 0.193654 0.974702
vn 0.111595 0.193654 0.974702
vn 0.111595 0.193654 0.974702
vn 0.111595 0.193654 0.974702
vn 0.916361 0.069186 0.394330
vn 0.916361 0.069186 0.394330
vn 0.916361 0.069186 0.394330
vn 0.916361 0.069186 0.394330
vn 0.804779 -0.124377 -0.580398
vn 0.804779 -0.124377 -0.580398
vn 0.804779 -0.124377 -0.580398
vn 0.804779 -0.124377 -0.580398
vn -0.111583 -0.193571 -0.974720
vn -0.111583 -0.193571 -0.974720
vn -0.111583 -0.193571 -0.974720
vn -0.111583 -0.193571 -0.974720
vn 0.010258 0.980565 -0.195926
vn 0.010258 0.980565 -0.195926
vn 0.010258 0.980565 -0.195926
vn 0.010258 0.980565 -0.195926
vn 0.010258 0.980565 -0.195926
vn 0.010258 0.980565 -0.195926
s off
f 1/1/1 2/2/2 8/9/3 7/8/4
f 2/2/5 3/3/6 9/10/7 8/9/8
f 3/3/9 4/4/10 10/11/11 9/10/12
f 4/4/13 5/5/14 11/12/15 10/11/16
f 5/5/17 6/6/18 12/13/19 11/12/20
f 6/6/21 1/7/22 7/14/23 12/13/24
f 10/16/25 11/15/26 12/20/27 7/19/28 8/18/29 9/17/30
f 13/21/31 14/22/32 20/23/33 19/24/34
f 14/22/35 15/25/36 21/26/37 20/23/38
f 15/25/39 16/27/40 22/28/41 21/26/42
f 16/27/43 17/29/44 23/30/45 22/28/46
f 17/29/47 18/31/48 24/32/49 23/30/50
f 18/31/51 13/33/52 19/34/53 24/32/54
f 22/35/55 23/36/56 24/37/57 19/38/58 20/39/59 21/40/60
f 25/41/61 26/42/62 32/43/63 31/44/64
f 26/42/65 27/45/66 33/46/67 32/43/68
f 27/45/69 28/47/70 34/48/71 33/46/72
f 28/47/73 29/49/74 35/50/75 34/48/76
f 29/49/77 30/51/78 36/52/79 35/50/80
f 30/51/81 25/53/82 31/54/83 36/52/84
f 34/55/85 35/56/86 36/57/87 31/58/88 32/59/89 33/60/90
f 37/61/91 38/62/92 44/63/93 43/64/94
f 38/62/95 39/65/96 45/66/97 44/63/98
f 39/65/99 40/67/100 46/68/101 45/66/102
f 40/67/103 41/69/104 47/70/105 46/68/106
f 41/69/107 42/71/108 48/72/109 47/70/110
f 42/71/111 37/73/112 43/74/113 48/72/114
f 46/75/115 47/76/116 48/77/117 43/78/118 44/79/119 45/80/120
f 49/81/121 50/82/122 56/83/123 55/84/124
f 50/82/125 51/85/126 57/86/127 56/83/128
f 51/85/129 52/87/130 58/88/131 57/86/132
f 52/87/133 53/89/134 59/90/135 58/88/136
f 53/89/137 54/91/138 60/92/139 59/90/140
f 54/91/141 49/93/142 55/94/143 60/92/144
f 58/95/145 59/96/146 60/97/147 55/98/148 56/99/149 57/100/150
f 61/101/151 62/102/152 68/103/153 67/104/154
f 62/102/155 63/105/156 69/106/157 68/103/158
f 63/105/159 64/107/160 70/108/161 69/106/162
f 64/107/163 65/109/164 71/110/165 70/108/166
f 65/109/167 66/111/168 72/112/169 71/110/170
f 66/111/171 61/113/172 67/114/173 72/112/174
f 70/115/175 71/116/176 72/117/177 67/118/178 68/119/179 69/120/180
f 73/121/181 74/122/182 80/123/183 79/124/184
f 74/122/185 75/125/186 81/126/187 80/123/188
f 75/125/189 76/127/190 82/128/191 81/126/192
f 76/127/193 77/129/194 83/130/195 82/128/196
f 77/129/197 78/131/198 84/132/199 83/130/200
f 78/131/201 73/133/202 79/134/203 84/132/204
f 82/135/205 83/136/206 84/137/207 79/138/208 80/139/209 81/140/210
f 85/141/211 86/142/212 92/143/213 91/144/214
f 86/142/215 87/145/216 93/146/217 92/143/218
f 87/145/219 88/147/220 94/148/221 93/146/222
f 88/147/223 89/149/224 95/150/225 94/148/226
f 89/149/227 90/151/228 96/152/229 95/150/230
f 90/151/231 85/153/232 91/154/233 96/152/234
f 94/155/235 95/156/236 96/157/237 91/158/238 92/159/239 93/160/240
