# This file uses centimeters as units for non-parametric coordinates.

v -0.045221 0.011054 0.033679
v 0.045221 0.011054 0.033679
v -0.049882 0.097608 0.037156
v 0.049882 0.097608 0.037156
v -0.049882 0.097608 -0.037285
v 0.049882 0.097608 -0.037285
v -0.045221 0.011054 -0.033807
v 0.045221 0.011054 -0.033807
v 0.063802 0.011054 -0.000064
v 0.000000 -0.000000 -0.000058
v -0.063802 0.011054 -0.000064
v -0.069806 0.098532 -0.000064
v 0.069806 0.098532 -0.000064
v -0.059899 0.060270 -0.044696
v -0.084510 0.060270 0.000000
v -0.059899 0.060270 0.044695
v 0.059899 0.060270 0.044695
v 0.084510 0.060270 0.000000
v 0.059899 0.060270 -0.044696
v 0.054018 0.119285 -0.000058
v 0.038432 0.118948 -0.028735
v -0.054018 0.119285 -0.000058
v -0.038432 0.118948 -0.028735
v -0.038432 0.118948 0.028619
v 0.038432 0.118948 0.028619
v 0.036478 0.159682 -0.000058
v 0.025855 0.159682 -0.019350
v -0.036478 0.159682 -0.000058
v -0.025855 0.159682 -0.019350
v -0.025855 0.159682 0.019234
v 0.025855 0.159682 0.019234
v 0.031123 0.189595 -0.000058
v 0.022060 0.189595 -0.021669
v -0.031123 0.189595 -0.000058
v -0.022060 0.189595 -0.021669
v -0.022060 0.189595 0.021553
v 0.022060 0.189595 0.021553
v 0.035407 0.193161 -0.000058
v 0.019289 0.193161 -0.028636
v -0.035407 0.193161 -0.000058
v -0.019289 0.193161 -0.028636
v -0.019289 0.193161 0.028520
v 0.019289 0.193161 0.028520
v 0.035407 0.222355 -0.000058
v 0.019289 0.222355 -0.028636
v -0.035407 0.222355 -0.000058
v -0.019289 0.222355 -0.028636
v -0.019289 0.222355 0.028520
v 0.019289 0.222355 0.028520
v 0.014171 0.222355 -0.008003
v 0.007720 0.222355 -0.019440
v -0.014171 0.222355 -0.008003
v -0.007720 0.222355 -0.019440
v -0.007720 0.222355 0.003434
v 0.007720 0.222355 0.003434
v 0.010790 0.247900 -0.008475
v 0.005789 0.247900 -0.016945
v -0.010790 0.247900 -0.007531
v -0.005968 0.247900 -0.016276
v -0.005789 0.247900 0.000939
v 0.005968 0.247900 0.000270
v -0.033120 0.059175 0.045669
v 0.033120 0.059175 0.045669
v 0.027581 0.088702 0.041573
v -0.027581 0.088702 0.041573
v -0.025004 0.023080 0.038816
v 0.025004 0.023080 0.038816
v -0.027581 0.088703 -0.041676
v 0.027581 0.088703 -0.041676
v 0.033120 0.059174 -0.045696
v -0.033120 0.059174 -0.045696
v 0.025004 0.023080 -0.038918
v -0.025004 0.023080 -0.038918
v 0.022542 0.203857 0.022752
v 0.032154 0.203857 0.005711
v 0.032154 0.211659 0.005711
v 0.022542 0.211659 0.022752
v 0.035291 0.204496 0.028099
v 0.043326 0.204496 0.013855
v 0.043326 0.211019 0.013855
v 0.035291 0.211019 0.028099
v 0.034088 0.201475 0.032829
v 0.046751 0.201475 0.010379
v 0.046751 0.214040 0.010379
v 0.034088 0.214040 0.032829
v 0.056563 0.201475 0.045505
v 0.069225 0.201475 0.023054
v 0.069225 0.214040 0.023054
v 0.056563 0.214040 0.045505
v 0.041919 0.201475 0.030651
v 0.048937 0.201475 0.018206
v 0.061395 0.201475 0.025232
v 0.054376 0.201475 0.037677
v 0.041919 0.214040 0.030651
v 0.048937 0.214040 0.018206
v 0.054376 0.214040 0.037677
v 0.061395 0.214040 0.025232
vt 0.299186 0.160212
vt 0.299186 0.160212
vt 0.299186 0.160212
vt 0.299186 0.160212
vt 0.299186 0.160212
vt 0.299186 0.160212
vt 0.299186 0.160212
vt 0.299186 0.160212
vt 0.299186 0.160212
vt 0.299186 0.160212
vt 0.299186 0.160212
vt 0.299186 0.160212
vt 0.299186 0.160212
vt 0.299186 0.160212
vt 0.299186 0.160212
vt 0.299186 0.160212
vt 0.299186 0.160212
vt 0.299186 0.160212
vt 0.299186 0.160212
vt 0.299186 0.160212
vt 0.299186 0.160212
vt 0.299186 0.160212
vt 0.299186 0.160212
vt 0.299186 0.160212
vt 0.299186 0.160212
vt 0.299186 0.160212
vt 0.299186 0.160212
vt 0.299186 0.160212
vt 0.299186 0.160212
vt 0.299186 0.160212
vt 0.299186 0.160212
vt 0.299186 0.160212
vt 0.299186 0.160212
vt 0.299186 0.160212
vt 0.299186 0.160212
vt 0.299186 0.160212
vt 0.299186 0.160212
vt 0.299186 0.160212
vt 0.299186 0.160212
vt 0.299186 0.160212
vt 0.299186 0.160212
vt 0.299186 0.160212
vt 0.299186 0.160212
vt 0.299186 0.160212
vt 0.299186 0.160212
vt 0.299186 0.160212
vt 0.299186 0.160212
vt 0.299186 0.160212
vt 0.299186 0.160212
vt 0.133074 0.359019
vt 0.133074 0.359019
vt 0.133074 0.359019
vt 0.133074 0.359019
vt 0.133074 0.359019
vt 0.133074 0.359019
vt 0.133074 0.359019
vt 0.133074 0.359019
vt 0.133074 0.359019
vt 0.133074 0.359019
vt 0.133074 0.359019
vt 0.133074 0.359019
vt 0.133074 0.359019
vt 0.133074 0.359019
vt 0.133074 0.359019
vt 0.133074 0.359019
vt 0.133074 0.359019
vt 0.133074 0.359019
vt 0.133074 0.359019
vt 0.133074 0.359019
vt 0.133074 0.359019
vt 0.133074 0.359019
vt 0.133074 0.359019
vt 0.133074 0.359019
vt 0.133074 0.359019
vt 0.133074 0.359019
vt 0.133074 0.359019
vt 0.133074 0.359019
vt 0.133074 0.359019
vt 0.133074 0.359019
vt 0.299186 0.160212
vt 0.299186 0.160212
vt 0.299186 0.160212
vt 0.299186 0.160212
vt 0.299186 0.160212
vt 0.299186 0.160212
vt 0.299186 0.160212
vt 0.299186 0.160212
vt 0.299186 0.160212
vt 0.299186 0.160212
vt 0.299186 0.160212
vt 0.299186 0.160212
vt 0.299097 0.115120
vt 0.299097 0.115120
vt 0.299097 0.115120
vt 0.299097 0.115120
vt 0.299097 0.115120
vt 0.299097 0.115120
vt 0.299097 0.115120
vt 0.299097 0.115120
vt 0.299097 0.115120
vt 0.299097 0.115120
vt 0.299097 0.115120
vt 0.299097 0.115120
vt 0.133074 0.359019
vt 0.133074 0.359019
vt 0.133074 0.359019
vt 0.133074 0.359019
vt 0.133074 0.359019
vt 0.133074 0.359019
vt 0.133074 0.359019
vt 0.133074 0.359019
vt 0.133074 0.359019
vt 0.133074 0.359019
vt 0.133074 0.359019
vt 0.133074 0.359019
vt 0.133074 0.359019
vt 0.133074 0.359019
vt 0.133074 0.359019
vt 0.133074 0.359019
vt 0.133074 0.359019
vt 0.133074 0.359019
vt 0.133074 0.359019
vt 0.133074 0.359019
vt 0.133074 0.359019
vt 0.133074 0.359019
vt 0.133074 0.359019
vt 0.133074 0.359019
vt 0.299186 0.160212
vt 0.299186 0.160212
vt 0.299186 0.160212
vt 0.299186 0.160212
vt 0.299186 0.160212
vt 0.299186 0.160212
vt 0.299186 0.160212
vt 0.299186 0.160212
vt 0.299186 0.160212
vt 0.299186 0.160212
vt 0.299186 0.160212
vt 0.299186 0.160212
vt 0.299186 0.160212
vt 0.299186 0.160212
vt 0.299186 0.160212
vt 0.299186 0.160212
vn -0.028900 -0.041198 0.998733
vn 0.028900 -0.041198 0.998733
vn 0.016105 0.245394 0.969290
vn -0.016105 0.245394 0.969290
vn 0.000000 1.000000 0.000000
vn 0.000000 1.000000 0.000000
vn 0.000000 1.000000 0.000000
vn 0.000000 1.000000 0.000000
vn -0.016248 0.242887 -0.969918
vn 0.016248 0.242887 -0.969918
vn 0.029118 -0.041248 -0.998725
vn -0.029118 -0.041248 -0.998725
vn 0.169955 -0.980998 -0.093586
vn 0.000000 -0.969900 -0.243503
vn 0.102198 -0.977730 -0.183304
vn 0.831936 0.316339 -0.455865
vn 0.831936 0.316339 -0.455865
vn 0.831936 0.316339 -0.455865
vn 0.831936 0.316339 -0.455865
vn -0.831936 0.316339 -0.455865
vn -0.831936 0.316339 -0.455865
vn -0.831936 0.316339 -0.455865
vn -0.831936 0.316339 -0.455865
vn -0.102198 -0.977730 -0.183304
vn 0.000000 -0.969900 -0.243503
vn -0.169955 -0.980998 -0.093586
vn 0.000000 -0.969882 0.243576
vn 0.102234 -0.977723 0.183321
vn -0.102234 -0.977723 0.183321
vn -0.831518 0.317735 0.455656
vn -0.831518 0.317735 0.455656
vn -0.831518 0.317735 0.455656
vn -0.831518 0.317735 0.455656
vn 0.000000 1.000000 0.000001
vn 0.000000 1.000000 0.000001
vn 0.000000 1.000000 0.000001
vn 0.000000 1.000000 0.000001
vn 0.831518 0.317735 0.455656
vn 0.831518 0.317735 0.455656
vn 0.831518 0.317735 0.455656
vn 0.831518 0.317735 0.455656
vn -0.822093 -0.345316 -0.452681
vn -0.822093 -0.345316 -0.452681
vn -0.822093 -0.345316 -0.452681
vn -0.822093 -0.345316 -0.452681
vn -0.821757 -0.346355 0.452496
vn -0.821757 -0.346355 0.452496
vn -0.821757 -0.346355 0.452496
vn -0.821757 -0.346355 0.452496
vn -0.018948 -0.255910 0.966515
vn 0.018948 -0.255910 0.966515
vn 0.028900 -0.041198 0.998733
vn -0.028900 -0.041198 0.998733
vn 0.821757 -0.346355 0.452496
vn 0.821757 -0.346355 0.452496
vn 0.821757 -0.346355 0.452496
vn 0.821757 -0.346355 0.452496
vn 0.822093 -0.345316 -0.452681
vn 0.822093 -0.345316 -0.452681
vn 0.822093 -0.345316 -0.452681
vn 0.822093 -0.345316 -0.452681
vn -0.029118 -0.041248 -0.998725
vn 0.029118 -0.041248 -0.998725
vn 0.019082 -0.253966 -0.967025
vn -0.019082 -0.253966 -0.967025
vn 0.728701 0.553513 -0.403260
vn 0.728701 0.553513 -0.403260
vn 0.728701 0.553513 -0.403260
vn 0.728701 0.553513 -0.403260
vn 0.000000 0.371917 -0.928266
vn 0.023045 0.318193 -0.947746
vn -0.023045 0.318193 -0.947746
vn 0.000000 0.371917 -0.928266
vn -0.728701 0.553513 -0.403260
vn -0.728701 0.553513 -0.403260
vn -0.728701 0.553513 -0.403260
vn -0.728701 0.553513 -0.403260
vn 0.000000 0.371417 0.928466
vn -0.022836 0.318961 0.947493
vn 0.022836 0.318961 0.947493
vn 0.000000 0.371417 0.928466
vn -0.728805 0.553338 0.403313
vn -0.728804 0.553338 0.403313
vn -0.728805 0.553338 0.403313
vn -0.728805 0.553338 0.403313
vn 0.728805 0.553338 0.403313
vn 0.728805 0.553337 0.403313
vn 0.728804 0.553338 0.403313
vn 0.728805 0.553338 0.403313
vn 0.818986 0.356075 -0.449969
vn 0.818986 0.356075 -0.449969
vn 0.818986 0.356075 -0.449969
vn 0.818986 0.356075 -0.449969
vn 0.000000 0.224515 -0.974470
vn 0.000000 0.224515 -0.974471
vn 0.000000 0.224515 -0.974471
vn 0.000000 0.224515 -0.974470
vn -0.818986 0.356075 -0.449969
vn -0.818986 0.356075 -0.449969
vn -0.818986 0.356075 -0.449969
vn -0.818986 0.356075 -0.449969
vn 0.000000 0.224515 0.974470
vn 0.000000 0.224515 0.974471
vn 0.000000 0.224515 0.974471
vn 0.000000 0.224515 0.974470
vn -0.818987 0.356075 0.449968
vn -0.818986 0.356075 0.449968
vn -0.818986 0.356075 0.449968
vn -0.818987 0.356075 0.449968
vn 0.818986 0.356075 0.449968
vn 0.818986 0.356075 0.449968
vn 0.818986 0.356075 0.449969
vn 0.818986 0.356075 0.449968
vn 0.894542 0.120115 -0.430542
vn 0.894542 0.120115 -0.430542
vn 0.894542 0.120115 -0.430542
vn 0.894542 0.120115 -0.430542
vn 0.000000 -0.077300 -0.997008
vn 0.000000 -0.077300 -0.997008
vn 0.000000 -0.077300 -0.997008
vn 0.000000 -0.077300 -0.997008
vn -0.894542 0.120115 -0.430542
vn -0.894542 0.120115 -0.430542
vn -0.894542 0.120115 -0.430542
vn -0.894542 0.120115 -0.430542
vn 0.000000 -0.077300 0.997008
vn 0.000000 -0.077300 0.997008
vn 0.000000 -0.077300 0.997008
vn 0.000000 -0.077300 0.997008
vn -0.894543 0.120115 0.430541
vn -0.894543 0.120115 0.430541
vn -0.894543 0.120115 0.430541
vn -0.894543 0.120115 0.430541
vn 0.894543 0.120115 0.430541
vn 0.894543 0.120115 0.430541
vn 0.894543 0.120115 0.430541
vn 0.894543 0.120115 0.430541
vn 0.757021 -0.531647 -0.379829
vn 0.757021 -0.531647 -0.379829
vn 0.757022 -0.531647 -0.379829
vn 0.757021 -0.531647 -0.379829
vn 0.000000 -0.890171 -0.455627
vn 0.000000 -0.890171 -0.455627
vn 0.000000 -0.890171 -0.455626
vn 0.000000 -0.890171 -0.455626
vn -0.757018 -0.531655 -0.379825
vn -0.757018 -0.531655 -0.379825
vn -0.757018 -0.531655 -0.379825
vn -0.757018 -0.531655 -0.379825
vn 0.000000 -0.890172 0.455625
vn 0.000000 -0.890172 0.455625
vn 0.000000 -0.890172 0.455625
vn 0.000000 -0.890172 0.455625
vn -0.757018 -0.531655 0.379825
vn -0.757018 -0.531655 0.379825
vn -0.757018 -0.531655 0.379825
vn -0.757018 -0.531655 0.379825
vn 0.757022 -0.531647 0.379829
vn 0.757022 -0.531647 0.379829
vn 0.757022 -0.531647 0.379829
vn 0.757022 -0.531647 0.379829
vn 0.871012 0.000000 -0.491262
vn 0.871012 0.000000 -0.491262
vn 0.871012 0.000000 -0.491262
vn 0.871012 0.000000 -0.491262
vn 0.000000 0.000000 -1.000000
vn 0.000000 0.000000 -1.000000
vn 0.000000 0.000000 -1.000000
vn 0.000000 0.000000 -1.000000
vn -0.871013 0.000000 -0.491259
vn -0.871013 0.000000 -0.491259
vn -0.871013 0.000000 -0.491259
vn -0.871013 0.000000 -0.491259
vn 0.000000 0.000000 1.000000
vn 0.000000 0.000000 1.000000
vn 0.000000 0.000000 1.000000
vn 0.000000 0.000000 1.000000
vn -0.871014 0.000000 0.491259
vn -0.871014 0.000000 0.491259
vn -0.871014 0.000000 0.491259
vn -0.871014 0.000000 0.491259
vn 0.871019 0.000000 0.491250
vn 0.871019 0.000000 0.491250
vn 0.871019 0.000000 0.491250
vn 0.871019 0.000000 0.491250
vn 0.000000 1.000000 0.000000
vn 0.000000 1.000000 0.000000
vn 0.000000 1.000000 0.000000
vn 0.000000 1.000000 0.000000
vn 0.000000 1.000000 0.000000
vn 0.000000 1.000000 0.000000
vn 0.000000 1.000000 0.000000
vn 0.000000 1.000000 0.000000
vn 0.000000 1.000000 -0.000001
vn 0.000000 1.000000 -0.000001
vn 0.000000 1.000000 -0.000001
vn 0.000000 1.000000 -0.000001
vn 0.000000 1.000000 0.000000
vn 0.000000 1.000000 0.000000
vn 0.000000 1.000000 0.000000
vn 0.000000 1.000000 0.000000
vn 0.000000 1.000000 0.000000
vn 0.000000 1.000000 0.000000
vn 0.000000 1.000000 0.000000
vn 0.000000 1.000000 0.000000
vn 0.000000 1.000000 0.000000
vn 0.000000 1.000000 0.000000
vn 0.000000 1.000000 0.000000
vn 0.000000 1.000000 0.000000
vn 0.861619 0.109199 -0.495669
vn 0.861619 0.109199 -0.495669
vn 0.861619 0.109199 -0.495669
vn 0.861619 0.109199 -0.495669
vn -0.024450 0.109975 -0.993634
vn -0.024450 0.109975 -0.993634
vn -0.024450 0.109975 -0.993634
vn -0.024450 0.109975 -0.993634
vn -0.866568 0.121506 -0.484042
vn -0.866568 0.121506 -0.484042
vn -0.866568 0.121506 -0.484042
vn -0.866568 0.121506 -0.484042
vn 0.024455 0.109980 0.993633
vn 0.024455 0.109980 0.993633
vn 0.024455 0.109980 0.993633
vn 0.024455 0.109980 0.993633
vn -0.861621 0.109198 0.495666
vn -0.861621 0.109198 0.495666
vn -0.861621 0.109198 0.495666
vn -0.861621 0.109198 0.495666
vn 0.866567 0.121508 0.484043
vn 0.866567 0.121508 0.484043
vn 0.866567 0.121508 0.484043
vn 0.866567 0.121508 0.484043
vn -0.169973 -0.980994 0.093595
vn 0.000000 -0.969882 0.243576
vn -0.102234 -0.977723 0.183321
vn -0.102198 -0.977730 -0.183304
vn 0.102198 -0.977730 -0.183304
vn 0.000000 -0.969900 -0.243503
vn 0.102234 -0.977723 0.183321
vn 0.000000 -0.969882 0.243576
vn 0.169973 -0.980994 0.093595
vn 0.073721 -0.033632 0.996712
vn 0.022836 0.318961 0.947493
vn 0.016105 0.245394 0.969290
vn 0.028900 -0.041198 0.998733
vn 0.022836 0.318961 0.947493
vn -0.022836 0.318961 0.947493
vn -0.016105 0.245394 0.969290
vn 0.016105 0.245394 0.969290
vn -0.022836 0.318961 0.947493
vn -0.073721 -0.033633 0.996712
vn -0.028900 -0.041198 0.998733
vn -0.016105 0.245394 0.969290
vn -0.054366 -0.270490 0.961186
vn 0.054366 -0.270490 0.961186
vn 0.018948 -0.255910 0.966515
vn -0.018948 -0.255910 0.966515
vn 0.054366 -0.270490 0.961186
vn 0.073721 -0.033632 0.996712
vn 0.028900 -0.041198 0.998733
vn 0.018948 -0.255910 0.966515
vn -0.073721 -0.033633 0.996712
vn -0.054366 -0.270490 0.961186
vn -0.018948 -0.255910 0.966515
vn -0.028900 -0.041198 0.998733
vn -0.023045 0.318193 -0.947746
vn 0.023045 0.318193 -0.947746
vn 0.016248 0.242887 -0.969918
vn -0.016248 0.242887 -0.969918
vn 0.023045 0.318193 -0.947746
vn 0.074275 -0.033799 -0.996665
vn 0.029118 -0.041248 -0.998725
vn 0.016248 0.242887 -0.969918
vn -0.074275 -0.033799 -0.996665
vn -0.023045 0.318193 -0.947746
vn -0.016248 0.242887 -0.969918
vn -0.029118 -0.041248 -0.998725
vn 0.074275 -0.033799 -0.996665
vn 0.054781 -0.268455 -0.961733
vn 0.019082 -0.253966 -0.967025
vn 0.029118 -0.041248 -0.998725
vn 0.054781 -0.268455 -0.961733
vn -0.054781 -0.268455 -0.961733
vn -0.019082 -0.253966 -0.967025
vn 0.019082 -0.253966 -0.967025
vn -0.054781 -0.268455 -0.961733
vn -0.074275 -0.033799 -0.996665
vn -0.029118 -0.041248 -0.998725
vn -0.019082 -0.253966 -0.967025
vn 0.871013 0.000004 0.491261
vn 0.871011 0.000004 0.491264
vn 0.871010 0.000003 0.491266
vn 0.871013 0.000003 0.491261
vn 0.871011 0.000004 0.491264
vn 0.871011 -0.000004 0.491263
vn 0.871010 -0.000004 0.491265
vn 0.871010 0.000003 0.491266
vn 0.871011 -0.000004 0.491263
vn 0.871013 -0.000004 0.491260
vn 0.871013 -0.000004 0.491260
vn 0.871010 -0.000004 0.491265
vn 0.871013 -0.000004 0.491260
vn 0.871013 0.000004 0.491261
vn 0.871013 0.000003 0.491261
vn 0.871013 -0.000004 0.491260
vn 0.040486 -0.998919 0.022836
vn 0.040486 -0.998919 0.022836
vn 0.040486 -0.998919 0.022836
vn 0.040486 -0.998919 0.022836
vn 0.589091 0.000000 -0.808067
vn 0.589091 0.000000 -0.808067
vn 0.589091 0.000000 -0.808067
vn 0.589091 0.000000 -0.808067
vn 0.040606 0.998913 0.022903
vn 0.040606 0.998913 0.022903
vn 0.040606 0.998913 0.022903
vn 0.040606 0.998913 0.022903
vn -0.386781 0.000000 0.922172
vn -0.386781 0.000000 0.922171
vn -0.386781 0.000000 0.922171
vn -0.386781 0.000000 0.922171
vn -0.885582 -0.255066 -0.388183
vn -0.790337 -0.255070 -0.557051
vn -0.776415 -0.188165 -0.601476
vn -0.916403 -0.188155 -0.353276
vn -0.790337 -0.255070 -0.557051
vn -0.790336 0.255069 -0.557053
vn -0.776414 0.188165 -0.601477
vn -0.776415 -0.188165 -0.601476
vn -0.790336 0.255069 -0.557053
vn -0.885581 0.255066 -0.388185
vn -0.916402 0.188155 -0.353278
vn -0.776414 0.188165 -0.601477
vn -0.885581 0.255066 -0.388185
vn -0.885582 -0.255066 -0.388183
vn -0.916403 -0.188155 -0.353276
vn -0.916402 0.188155 -0.353278
vn 0.491258 0.000000 -0.871014
vn 0.491258 0.000000 -0.871014
vn 0.491258 0.000000 -0.871014
vn 0.491258 0.000000 -0.871014
vn -0.491251 0.000000 0.871018
vn -0.491251 0.000000 0.871018
vn -0.491251 0.000000 0.871018
vn -0.491251 0.000000 0.871018
vn 0.000000 -1.000000 0.000000
vn 0.000000 -1.000000 -0.000001
vn 0.000000 -1.000000 -0.000001
vn 0.000000 -1.000000 0.000000
vn 0.000000 -1.000000 -0.000001
vn 0.000000 -1.000000 -0.000001
vn 0.000000 -1.000000 -0.000001
vn 0.000000 -1.000000 -0.000001
vn 0.000000 -1.000000 -0.000001
vn 0.000000 -1.000000 0.000000
vn 0.000000 -1.000000 0.000000
vn 0.000000 -1.000000 -0.000001
vn 0.000000 -1.000000 0.000000
vn 0.000000 -1.000000 0.000000
vn 0.000000 -1.000000 0.000000
vn 0.000000 -1.000000 0.000000
vn 0.000000 1.000000 0.000001
vn 0.000000 1.000000 -0.000001
vn 0.000000 1.000000 -0.000001
vn 0.000000 1.000000 0.000001
vn 0.000000 1.000000 -0.000001
vn 0.000000 1.000000 0.000000
vn 0.000000 1.000000 0.000000
vn 0.000000 1.000000 -0.000001
vn 0.000000 1.000000 0.000000
vn 0.000000 1.000000 0.000002
vn 0.000000 1.000000 0.000002
vn 0.000000 1.000000 0.000000
vn 0.000000 1.000000 0.000002
vn 0.000000 1.000000 0.000001
vn 0.000000 1.000000 0.000001
vn 0.000000 1.000000 0.000002
vn -0.871021 0.000000 -0.491246
vn -0.871021 0.000000 -0.491246
vn -0.871021 0.000000 -0.491246
vn -0.871021 0.000000 -0.491246
vn 0.491261 0.000000 -0.871012
vn 0.491261 0.000000 -0.871012
vn 0.491261 0.000000 -0.871012
vn 0.491261 0.000000 -0.871012
vn 0.871038 0.000000 0.491215
vn 0.871038 0.000000 0.491215
vn 0.871038 0.000000 0.491215
vn 0.871038 0.000000 0.491215
vn -0.491248 0.000000 0.871020
vn -0.491248 0.000000 0.871020
vn -0.491248 0.000000 0.871020
vn -0.491248 0.000000 0.871020
s off
f 62/92/1 63/93/2 64/94/3 65/95/4
f 56/50/5 57/51/6 59/53/7 58/52/8
f 68/96/9 69/97/10 70/98/11 71/99/12
f 9/15/13 10/17/14 8/8/15
f 13/23/16 18/29/17 19/31/18 6/12/19
f 14/24/20 15/26/21 12/20/22 5/14/23
f 7/7/24 10/17/25 11/19/26
f 10/17/27 2/10/28 1/9/29
f 12/20/30 15/26/31 16/27/32 3/3/33
f 60/54/34 61/55/35 56/50/36 58/52/37
f 17/28/38 18/29/39 13/23/40 4/4/41
f 7/13/42 11/18/43 15/26/44 14/24/45
f 16/27/46 15/26/47 11/18/48 1/1/49
f 66/100/50 67/101/51 63/93/52 62/92/53
f 2/2/54 9/16/55 18/29/56 17/28/57
f 19/31/58 18/29/59 9/16/60 8/11/61
f 71/99/62 70/98/63 72/102/64 73/103/65
f 13/22/66 6/6/67 21/33/68 20/32/69
f 21/33/70 6/6/71 5/5/72 23/34/73
f 5/5/74 12/21/75 22/35/76 23/34/77
f 24/36/78 3/3/79 4/4/80 25/37/81
f 12/21/82 3/3/83 24/36/84 22/35/85
f 4/4/86 13/22/87 20/32/88 25/37/89
f 20/32/90 21/33/91 27/39/92 26/38/93
f 27/39/94 21/33/95 23/34/96 29/40/97
f 23/34/98 22/35/99 28/41/100 29/40/101
f 30/42/102 24/36/103 25/37/104 31/43/105
f 22/35/106 24/36/107 30/42/108 28/41/109
f 25/37/110 20/32/111 26/38/112 31/43/113
f 26/38/114 27/39/115 33/45/116 32/44/117
f 33/45/118 27/39/119 29/40/120 35/46/121
f 29/40/122 28/41/123 34/47/124 35/46/125
f 36/48/126 30/42/127 31/43/128 37/49/129
f 28/41/130 30/42/131 36/48/132 34/47/133
f 31/43/134 26/38/135 32/44/136 37/49/137
f 32/56/138 33/57/139 39/58/140 38/59/141
f 39/58/142 33/57/143 35/60/144 41/61/145
f 35/60/146 34/62/147 40/63/148 41/61/149
f 42/65/150 36/64/151 37/66/152 43/67/153
f 34/62/154 36/64/155 42/65/156 40/63/157
f 37/66/158 32/56/159 38/59/160 43/67/161
f 38/59/162 39/58/163 45/68/164 44/69/165
f 45/68/166 39/58/167 41/61/168 47/70/169
f 41/61/170 40/63/171 46/71/172 47/70/173
f 48/72/174 42/65/175 43/67/176 49/73/177
f 40/63/178 42/65/179 48/72/180 46/71/181
f 86/116/182 87/117/183 88/118/184 89/119/185
f 44/69/186 45/68/187 51/74/188 50/75/189
f 51/74/190 45/68/191 47/70/192 53/76/193
f 47/70/194 46/71/195 52/77/196 53/76/197
f 54/78/198 48/72/199 49/73/200 55/79/201
f 46/71/202 48/72/203 54/78/204 52/77/205
f 49/73/206 44/69/207 50/75/208 55/79/209
f 50/75/210 51/74/211 57/51/212 56/50/213
f 57/51/214 51/74/215 53/76/216 59/53/217
f 53/76/218 52/77/219 58/52/220 59/53/221
f 60/54/222 54/78/223 55/79/224 61/55/225
f 52/77/226 54/78/227 60/54/228 58/52/229
f 55/79/230 50/75/231 56/50/232 61/55/233
f 11/19/234 10/17/235 1/9/236
f 7/7/237 8/8/238 10/17/239
f 2/10/240 10/17/241 9/15/242
f 17/28/243 4/4/244 64/81/245 63/80/246
f 4/4/247 3/3/248 65/82/249 64/81/250
f 3/3/251 16/27/252 62/83/253 65/82/254
f 1/128/255 2/129/256 67/85/257 66/84/258
f 2/130/259 17/30/260 63/86/261 67/85/262
f 16/25/263 1/131/264 66/84/265 62/87/266
f 5/132/267 6/133/268 69/89/269 68/88/270
f 6/134/271 19/135/272 70/136/273 69/89/274
f 14/137/275 5/138/276 68/88/277 71/139/278
f 19/140/279 8/8/280 72/90/281 70/141/282
f 8/8/283 7/7/284 73/91/285 72/90/286
f 7/7/287 14/142/288 71/143/289 73/91/290
f 43/67/291 38/59/292 75/105/293 74/104/294
f 38/59/295 44/69/296 76/106/297 75/105/298
f 44/69/299 49/73/300 77/107/301 76/106/302
f 49/73/303 43/67/304 74/104/305 77/107/306
f 74/104/307 75/105/308 79/109/309 78/108/310
f 75/105/311 76/106/312 80/110/313 79/109/314
f 76/106/315 77/107/316 81/111/317 80/110/318
f 77/107/319 74/104/320 78/108/321 81/111/322
f 78/108/323 79/109/324 83/113/325 82/112/326
f 79/109/327 80/110/328 84/114/329 83/113/330
f 80/110/331 81/111/332 85/115/333 84/114/334
f 81/111/335 78/108/336 82/112/337 85/115/338
f 83/113/339 84/114/340 88/118/341 87/117/342
f 85/115/343 82/112/344 86/116/345 89/119/346
f 82/112/347 83/113/348 91/121/349 90/120/350
f 83/113/351 87/117/352 92/122/353 91/121/354
f 87/117/355 86/116/356 93/123/357 92/122/358
f 86/116/359 82/112/360 90/120/361 93/123/362
f 84/114/363 85/115/364 94/125/365 95/124/366
f 85/115/367 89/119/368 96/126/369 94/125/370
f 89/119/371 88/118/372 97/127/373 96/126/374
f 88/118/375 84/114/376 95/124/377 97/127/378
f 92/122/379 93/123/380 96/126/381 97/127/382
f 93/123/383 90/120/384 94/125/385 96/126/386
f 91/121/387 95/124/388 94/125/389 90/120/390
f 92/122/391 97/127/392 95/124/393 91/121/394
