# This file uses centimeters as units for non-parametric coordinates.

v 0.022186 0.022186 -0.271780
v 0.000000 0.031376 -0.271780
v -0.022186 0.022186 -0.271780
v -0.031376 0.000000 -0.271780
v -0.022186 -0.022186 -0.271780
v 0.000000 -0.031376 -0.271780
v 0.022186 -0.022186 -0.271780
v 0.031376 0.000000 -0.271780
v 0.035251 0.035252 0.210281
v -0.000000 0.049852 0.210281
v -0.035251 0.035252 0.210281
v -0.049852 0.000000 0.210281
v -0.035251 -0.035251 0.210281
v -0.000000 -0.049851 0.210281
v 0.035251 -0.035251 0.210281
v 0.049852 0.000000 0.210281
v -0.000000 0.000000 -0.271780
v 0.049852 0.000000 0.128716
v 0.035251 0.035252 0.128716
v -0.000000 0.049852 0.128716
v -0.035251 0.035252 0.128716
v -0.049852 0.000000 0.128716
v -0.035251 -0.035251 0.128716
v -0.000000 -0.049851 0.128716
v 0.035251 -0.035251 0.128716
v 0.031347 0.000000 0.123873
v 0.022165 0.022165 0.123873
v 0.000000 0.031347 0.123873
v -0.022165 0.022165 0.123873
v -0.031347 0.000000 0.123873
v -0.022165 -0.022165 0.123873
v 0.000000 -0.031346 0.123873
v 0.022165 -0.022165 0.123873
v 0.031347 0.000000 -0.003448
v 0.022165 0.022165 -0.003448
v 0.000000 0.031347 -0.003448
v -0.022165 0.022165 -0.003448
v -0.031347 0.000000 -0.003448
v -0.022165 -0.022165 -0.003448
v 0.000000 -0.031346 -0.003448
v 0.022165 -0.022165 -0.003448
v 0.026981 0.000000 -0.007236
v 0.019078 0.019079 -0.007236
v 0.000000 0.026981 -0.007236
v -0.019078 0.019079 -0.007236
v -0.026981 0.000000 -0.007236
v -0.019078 -0.019078 -0.007236
v 0.000000 -0.026981 -0.007236
v 0.019078 -0.019078 -0.007236
v 0.026981 0.000000 -0.125291
v 0.019078 0.019079 -0.125291
v 0.000000 0.026981 -0.125291
v -0.019078 0.019079 -0.125291
v -0.026981 0.000000 -0.125291
v -0.019078 -0.019078 -0.125291
v 0.000000 -0.026981 -0.125291
v 0.019078 -0.019078 -0.125291
v 0.021031 0.000000 -0.128545
v 0.014871 0.014872 -0.128545
v 0.000000 0.021030 -0.128545
v -0.014871 0.014872 -0.128545
v -0.021031 0.000000 -0.128545
v -0.014871 -0.014871 -0.128545
v 0.000000 -0.021030 -0.128545
v 0.014871 -0.014871 -0.128545
v 0.031376 0.000000 -0.239698
v 0.022186 0.022186 -0.239698
v 0.000000 0.031376 -0.239698
v -0.022186 0.022186 -0.239698
v -0.031376 0.000000 -0.239698
v -0.022186 -0.022186 -0.239698
v 0.000000 -0.031376 -0.239698
v 0.022186 -0.022186 -0.239698
v 0.000000 -0.021030 -0.236713
v -0.014871 -0.014871 -0.236713
v -0.021031 0.000000 -0.236713
v -0.014871 0.014872 -0.236713
v 0.000000 0.021030 -0.236713
v 0.014871 0.014872 -0.236713
v 0.021031 0.000000 -0.236713
v 0.014871 -0.014871 -0.236713
v 0.027099 0.027100 0.210281
v -0.000000 0.038324 0.210281
v -0.027100 0.027100 0.210281
v -0.038324 0.000000 0.210281
v -0.027100 -0.027100 0.210281
v -0.000000 -0.038324 0.210281
v 0.027099 -0.027100 0.210281
v 0.038324 0.000000 0.210281
v 0.027099 0.027100 0.199240
v -0.000000 0.038324 0.199240
v 0.000000 0.000000 0.199240
v -0.027100 0.027100 0.199240
v -0.038324 0.000000 0.199240
v -0.027100 -0.027100 0.199240
v -0.000000 -0.038324 0.199240
v 0.027099 -0.027100 0.199240
v 0.038324 0.000000 0.199240
vt 0.396621 0.282133
vt 0.396621 0.282133
vt 0.396621 0.282133
vt 0.396621 0.282133
vt 0.396621 0.282133
vt 0.396621 0.282133
vt 0.396621 0.282133
vt 0.396621 0.282133
vt 0.396621 0.282133
vt 0.396621 0.282133
vt 0.396621 0.282133
vt 0.396621 0.282133
vt 0.396621 0.282133
vt 0.396621 0.282133
vt 0.396621 0.282133
vt 0.396621 0.282133
vt 0.396621 0.282133
vt 0.396621 0.282133
vt 0.396621 0.282133
vt 0.396621 0.282133
vt 0.396621 0.282133
vt 0.396621 0.282133
vt 0.396621 0.282133
vt 0.396621 0.282133
vt 0.396621 0.282133
vt 0.396621 0.282133
vt 0.396621 0.282133
vt 0.396621 0.282133
vt 0.396621 0.282133
vt 0.396621 0.282133
vt 0.396621 0.282133
vt 0.396621 0.282133
vt 0.396621 0.282133
vt 0.396621 0.282133
vt 0.396621 0.282133
vt 0.167573 0.009352
vt 0.396621 0.282133
vt 0.396621 0.282133
vt 0.396621 0.282133
vt 0.396621 0.282133
vt 0.396621 0.282133
vt 0.396621 0.282133
vt 0.396621 0.282133
vt 0.396621 0.282133
vt 0.396621 0.282133
vt 0.396621 0.282133
vt 0.396621 0.282133
vt 0.396621 0.282133
vt 0.396621 0.282133
vt 0.396621 0.282133
vt 0.396621 0.282133
vt 0.396621 0.282133
vt 0.396621 0.282133
vt 0.396621 0.282133
vt 0.396621 0.282133
vt 0.396621 0.282133
vt 0.396621 0.282133
vt 0.396621 0.282133
vt 0.396621 0.282133
vt 0.396621 0.282133
vt 0.396621 0.282133
vt 0.396621 0.282133
vt 0.396621 0.282133
vt 0.396621 0.282133
vt 0.396621 0.282133
vt 0.396621 0.282133
vt 0.396621 0.282133
vt 0.396621 0.282133
vt 0.396621 0.282133
vt 0.396621 0.282133
vt 0.396621 0.282133
vt 0.396621 0.282133
vt 0.396621 0.282133
vt 0.396621 0.282133
vt 0.396621 0.282133
vt 0.396621 0.282133
vt 0.396621 0.282133
vt 0.396621 0.282133
vt 0.396621 0.282133
vt 0.396621 0.282133
vt 0.396621 0.282133
vt 0.396621 0.282133
vt 0.396621 0.282133
vt 0.396621 0.282133
vt 0.396621 0.282133
vt 0.396621 0.282133
vt 0.396621 0.282133
vt 0.396621 0.282133
vt 0.396621 0.282133
vt 0.396621 0.282133
vt 0.396621 0.282133
vt 0.396621 0.282133
vt 0.396621 0.282133
vt 0.396621 0.282133
vt 0.396621 0.282133
vt 0.396621 0.282133
vt 0.396621 0.282133
vt 0.396621 0.282133
vt 0.396621 0.282133
vt 0.396621 0.282133
vt 0.396621 0.282133
vt 0.396621 0.282133
vt 0.396621 0.282133
vt 0.396621 0.282133
vt 0.396621 0.282133
vt 0.396621 0.282133
vt 0.396621 0.282133
vt 0.396621 0.282133
vt 0.396621 0.282133
vt 0.396621 0.282133
vt 0.396621 0.282133
vt 0.396621 0.282133
vt 0.396621 0.282133
vt 0.396621 0.282133
vt 0.396621 0.282133
vt 0.396621 0.282133
vt 0.396621 0.282133
vt 0.396621 0.282133
vt 0.396621 0.282133
vt 0.396621 0.282133
vt 0.396621 0.282133
vt 0.396621 0.282133
vt 0.396621 0.282133
vt 0.396621 0.282133
vt 0.167573 0.009352
vt 0.167573 0.009352
vt 0.167573 0.009352
vt 0.167573 0.009352
vt 0.167573 0.009353
vt 0.167573 0.009353
vt 0.167573 0.009353
vt 0.167573 0.009352
vn 0.382671 0.923885 0.000000
vn 0.382671 0.923885 0.000000
vn 0.382671 0.923885 0.000000
vn 0.382671 0.923885 0.000000
vn -0.382671 0.923885 0.000000
vn -0.382671 0.923885 0.000000
vn -0.382671 0.923885 0.000000
vn -0.382671 0.923885 0.000000
vn -0.923880 0.382684 0.000000
vn -0.923880 0.382684 0.000000
vn -0.923880 0.382684 0.000000
vn -0.923880 0.382684 0.000000
vn -0.923876 -0.382693 0.000000
vn -0.923876 -0.382693 0.000000
vn -0.923876 -0.382693 0.000000
vn -0.923876 -0.382693 0.000000
vn -0.382671 -0.923885 0.000000
vn -0.382671 -0.923885 0.000000
vn -0.382671 -0.923885 0.000000
vn -0.382671 -0.923885 0.000000
vn 0.382671 -0.923885 0.000000
vn 0.382671 -0.923885 0.000000
vn 0.382671 -0.923885 0.000000
vn 0.382671 -0.923885 0.000000
vn 0.923880 -0.382682 0.000000
vn 0.923880 -0.382682 0.000000
vn 0.923880 -0.382682 0.000000
vn 0.923880 -0.382682 0.000000
vn 0.923884 0.382673 0.000000
vn 0.923884 0.382673 0.000000
vn 0.923884 0.382673 0.000000
vn 0.923884 0.382673 0.000000
vn 0.000000 0.000000 -1.000000
vn 0.000000 0.000000 -1.000000
vn 0.000000 0.000000 -1.000000
vn 0.000000 0.000000 -1.000000
vn 0.000000 0.000000 -1.000000
vn 0.000000 0.000000 -1.000000
vn 0.000000 0.000000 -1.000000
vn 0.000000 0.000000 -1.000000
vn 0.000000 0.000000 -1.000000
vn 0.000000 0.000000 -1.000000
vn 0.000000 0.000000 -1.000000
vn 0.000000 0.000000 -1.000000
vn 0.000000 0.000000 -1.000000
vn 0.000000 0.000000 -1.000000
vn 0.000000 0.000000 -1.000000
vn 0.000000 0.000000 -1.000000
vn 0.000000 0.000000 -1.000000
vn 0.000000 0.000000 -1.000000
vn 0.000000 0.000000 -1.000000
vn 0.000000 0.000000 -1.000000
vn 0.000000 0.000000 -1.000000
vn 0.000000 0.000000 -1.000000
vn 0.000000 0.000000 -1.000000
vn 0.000000 0.000000 -1.000000
vn 0.000001 0.000000 1.000000
vn 0.000001 0.000000 1.000000
vn 0.000001 0.000000 1.000000
vn -0.000001 0.000000 1.000000
vn -0.000001 0.000000 1.000000
vn -0.000001 0.000000 1.000000
vn 0.000000 0.000000 1.000000
vn 0.000000 0.000000 1.000000
vn 0.000000 0.000000 1.000000
vn 0.000000 0.000000 1.000000
vn 0.000000 0.000000 1.000000
vn 0.000000 0.000000 1.000000
vn -0.000001 0.000000 1.000000
vn -0.000001 0.000000 1.000000
vn -0.000001 0.000000 1.000000
vn 0.000001 0.000000 1.000000
vn 0.000001 0.000000 1.000000
vn 0.000001 0.000000 1.000000
vn 0.000000 0.000000 1.000000
vn 0.000000 0.000000 1.000000
vn 0.000000 0.000000 1.000000
vn 0.000000 0.000000 1.000000
vn 0.000000 0.000000 1.000000
vn 0.000000 0.000000 1.000000
vn 0.251832 0.104311 -0.962133
vn 0.251832 0.104311 -0.962133
vn 0.251832 0.104311 -0.962133
vn 0.251832 0.104311 -0.962133
vn 0.104312 0.251829 -0.962134
vn 0.104312 0.251829 -0.962134
vn 0.104312 0.251829 -0.962134
vn 0.104312 0.251829 -0.962134
vn -0.104313 0.251829 -0.962134
vn -0.104313 0.251829 -0.962134
vn -0.104313 0.251829 -0.962134
vn -0.104313 0.251829 -0.962134
vn -0.251828 0.104311 -0.962134
vn -0.251828 0.104311 -0.962134
vn -0.251828 0.104311 -0.962134
vn -0.251828 0.104311 -0.962134
vn -0.251831 -0.104314 -0.962133
vn -0.251831 -0.104314 -0.962133
vn -0.251831 -0.104314 -0.962133
vn -0.251831 -0.104314 -0.962133
vn -0.104311 -0.251836 -0.962132
vn -0.104311 -0.251836 -0.962132
vn -0.104311 -0.251836 -0.962132
vn -0.104311 -0.251836 -0.962132
vn 0.104311 -0.251837 -0.962132
vn 0.104311 -0.251836 -0.962132
vn 0.104311 -0.251837 -0.962132
vn 0.104311 -0.251836 -0.962132
vn 0.251834 -0.104313 -0.962132
vn 0.251834 -0.104313 -0.962132
vn 0.251834 -0.104313 -0.962132
vn 0.251834 -0.104313 -0.962132
vn 0.923878 0.382687 0.000000
vn 0.923878 0.382687 0.000000
vn 0.923878 0.382687 0.000000
vn 0.923878 0.382687 0.000000
vn 0.382712 0.923868 0.000000
vn 0.382712 0.923868 0.000000
vn 0.382712 0.923868 0.000000
vn 0.382712 0.923868 0.000000
vn -0.382712 0.923868 0.000000
vn -0.382712 0.923868 0.000000
vn -0.382712 0.923868 0.000000
vn -0.382712 0.923868 0.000000
vn -0.923878 0.382687 0.000000
vn -0.923878 0.382687 0.000000
vn -0.923878 0.382687 0.000000
vn -0.923878 0.382687 0.000000
vn -0.923878 -0.382687 0.000000
vn -0.923878 -0.382687 0.000000
vn -0.923878 -0.382687 0.000000
vn -0.923878 -0.382687 0.000000
vn -0.382678 -0.923882 0.000000
vn -0.382678 -0.923882 0.000000
vn -0.382678 -0.923882 0.000000
vn -0.382678 -0.923882 0.000000
vn 0.382678 -0.923882 0.000000
vn 0.382678 -0.923882 0.000000
vn 0.382678 -0.923882 0.000000
vn 0.382678 -0.923882 0.000000
vn 0.923878 -0.382687 0.000000
vn 0.923878 -0.382687 0.000000
vn 0.923878 -0.382687 0.000000
vn 0.923878 -0.382687 0.000000
vn 0.632490 0.261983 -0.728918
vn 0.632490 0.261983 -0.728918
vn 0.632490 0.261983 -0.728918
vn 0.632490 0.261983 -0.728918
vn 0.261997 0.632498 -0.728906
vn 0.261997 0.632498 -0.728906
vn 0.261997 0.632498 -0.728906
vn 0.261997 0.632498 -0.728906
vn -0.261997 0.632503 -0.728902
vn -0.261997 0.632503 -0.728902
vn -0.261997 0.632503 -0.728902
vn -0.261997 0.632503 -0.728902
vn -0.632500 0.261984 -0.728909
vn -0.632500 0.261984 -0.728909
vn -0.632500 0.261984 -0.728909
vn -0.632500 0.261984 -0.728909
vn -0.632483 -0.261983 -0.728924
vn -0.632483 -0.261983 -0.728924
vn -0.632483 -0.261983 -0.728924
vn -0.632483 -0.261983 -0.728924
vn -0.261997 -0.632503 -0.728902
vn -0.261997 -0.632503 -0.728902
vn -0.261997 -0.632503 -0.728902
vn -0.261997 -0.632503 -0.728902
vn 0.261997 -0.632499 -0.728906
vn 0.261997 -0.632499 -0.728906
vn 0.261997 -0.632499 -0.728906
vn 0.261997 -0.632499 -0.728906
vn 0.632472 -0.261982 -0.728934
vn 0.632472 -0.261982 -0.728934
vn 0.632472 -0.261982 -0.728934
vn 0.632472 -0.261982 -0.728934
vn 0.923884 0.382673 0.000000
vn 0.923884 0.382673 0.000000
vn 0.923884 0.382673 0.000000
vn 0.923884 0.382673 0.000000
vn 0.382670 0.923885 0.000000
vn 0.382670 0.923885 0.000000
vn 0.382670 0.923885 0.000000
vn 0.382670 0.923885 0.000000
vn -0.382666 0.923887 0.000000
vn -0.382666 0.923887 0.000000
vn -0.382666 0.923887 0.000000
vn -0.382666 0.923887 0.000000
vn -0.923888 0.382664 0.000000
vn -0.923888 0.382664 0.000000
vn -0.923888 0.382664 0.000000
vn -0.923888 0.382664 0.000000
vn -0.923881 -0.382680 0.000000
vn -0.923881 -0.382680 0.000000
vn -0.923881 -0.382680 0.000000
vn -0.923881 -0.382680 0.000000
vn -0.382705 -0.923871 0.000000
vn -0.382705 -0.923871 0.000000
vn -0.382705 -0.923871 0.000000
vn -0.382705 -0.923871 0.000000
vn 0.382709 -0.923869 0.000000
vn 0.382709 -0.923869 0.000000
vn 0.382709 -0.923869 0.000000
vn 0.382709 -0.923869 0.000000
vn 0.923877 -0.382690 0.000000
vn 0.923877 -0.382690 0.000000
vn 0.923877 -0.382690 0.000000
vn 0.923877 -0.382690 0.000000
vn 0.470597 0.194923 -0.860548
vn 0.470597 0.194923 -0.860548
vn 0.470597 0.194923 -0.860548
vn 0.470597 0.194923 -0.860548
vn 0.194903 0.470578 -0.860563
vn 0.194903 0.470578 -0.860563
vn 0.194903 0.470578 -0.860563
vn 0.194903 0.470578 -0.860563
vn -0.194901 0.470577 -0.860564
vn -0.194901 0.470577 -0.860564
vn -0.194901 0.470577 -0.860564
vn -0.194901 0.470577 -0.860564
vn -0.470595 0.194917 -0.860551
vn -0.470595 0.194917 -0.860551
vn -0.470595 0.194917 -0.860551
vn -0.470595 0.194917 -0.860551
vn -0.470591 -0.194926 -0.860551
vn -0.470591 -0.194926 -0.860551
vn -0.470591 -0.194926 -0.860551
vn -0.470591 -0.194926 -0.860551
vn -0.194925 -0.470568 -0.860564
vn -0.194925 -0.470568 -0.860564
vn -0.194925 -0.470568 -0.860564
vn -0.194925 -0.470568 -0.860564
vn 0.194926 -0.470568 -0.860563
vn 0.194926 -0.470568 -0.860563
vn 0.194926 -0.470568 -0.860563
vn 0.194926 -0.470568 -0.860563
vn 0.470593 -0.194932 -0.860549
vn 0.470593 -0.194932 -0.860549
vn 0.470593 -0.194932 -0.860549
vn 0.470593 -0.194932 -0.860549
vn 0.275421 0.114082 0.954530
vn 0.275421 0.114082 0.954530
vn 0.275421 0.114082 0.954531
vn 0.275421 0.114082 0.954531
vn 0.114078 0.275425 0.954530
vn 0.114078 0.275425 0.954530
vn 0.114078 0.275425 0.954530
vn 0.114078 0.275425 0.954530
vn -0.114078 0.275425 0.954530
vn -0.114078 0.275425 0.954530
vn -0.114078 0.275425 0.954530
vn -0.114078 0.275425 0.954530
vn -0.275423 0.114082 0.954530
vn -0.275423 0.114082 0.954530
vn -0.275423 0.114082 0.954530
vn -0.275423 0.114082 0.954530
vn -0.275416 -0.114083 0.954532
vn -0.275416 -0.114083 0.954532
vn -0.275416 -0.114083 0.954532
vn -0.275416 -0.114083 0.954532
vn -0.114079 -0.275411 0.954534
vn -0.114079 -0.275411 0.954534
vn -0.114079 -0.275411 0.954534
vn -0.114079 -0.275411 0.954534
vn 0.114080 -0.275411 0.954534
vn 0.114081 -0.275411 0.954534
vn 0.114081 -0.275411 0.954534
vn 0.114080 -0.275411 0.954534
vn 0.275414 -0.114083 0.954532
vn 0.275414 -0.114083 0.954532
vn 0.275414 -0.114083 0.954532
vn 0.275414 -0.114083 0.954532
vn 0.923880 0.382683 0.000000
vn 0.923880 0.382683 0.000000
vn 0.923880 0.382683 0.000000
vn 0.923880 0.382683 0.000000
vn 0.382678 0.923882 0.000000
vn 0.382678 0.923882 0.000000
vn 0.382678 0.923882 0.000000
vn 0.382678 0.923882 0.000000
vn -0.382678 0.923882 0.000000
vn -0.382678 0.923882 0.000000
vn -0.382678 0.923882 0.000000
vn -0.382678 0.923882 0.000000
vn -0.923880 0.382683 0.000000
vn -0.923880 0.382683 0.000000
vn -0.923880 0.382683 0.000000
vn -0.923880 0.382683 0.000000
vn -0.923880 -0.382683 0.000000
vn -0.923880 -0.382683 0.000000
vn -0.923880 -0.382683 0.000000
vn -0.923880 -0.382683 0.000000
vn -0.382678 -0.923882 0.000000
vn -0.382678 -0.923882 0.000000
vn -0.382678 -0.923882 0.000000
vn -0.382678 -0.923882 0.000000
vn 0.382678 -0.923882 0.000000
vn 0.382678 -0.923882 0.000000
vn 0.382678 -0.923882 0.000000
vn 0.382678 -0.923882 0.000000
vn 0.923880 -0.382683 0.000000
vn 0.923880 -0.382683 0.000000
vn 0.923880 -0.382683 0.000000
vn 0.923880 -0.382683 0.000000
vn -0.382687 -0.923878 0.000000
vn -0.382687 -0.923878 0.000000
vn -0.382687 -0.923878 0.000000
vn -0.382687 -0.923878 0.000000
vn -0.923876 -0.382692 0.000000
vn -0.923876 -0.382692 0.000000
vn -0.923876 -0.382692 0.000000
vn -0.923876 -0.382692 0.000000
vn -0.923885 0.382671 0.000000
vn -0.923885 0.382671 0.000000
vn -0.923885 0.382671 0.000000
vn -0.923885 0.382671 0.000000
vn -0.382636 0.923899 0.000000
vn -0.382636 0.923899 0.000000
vn -0.382636 0.923899 0.000000
vn -0.382636 0.923899 0.000000
vn 0.382639 0.923898 0.000000
vn 0.382639 0.923898 0.000000
vn 0.382639 0.923898 0.000000
vn 0.382639 0.923898 0.000000
vn 0.923882 0.382677 0.000000
vn 0.923882 0.382677 0.000000
vn 0.923882 0.382677 0.000000
vn 0.923882 0.382677 0.000000
vn 0.923873 -0.382698 0.000000
vn 0.923873 -0.382698 0.000000
vn 0.923873 -0.382698 0.000000
vn 0.923873 -0.382698 0.000000
vn 0.382689 -0.923877 0.000000
vn 0.382689 -0.923877 0.000000
vn 0.382689 -0.923877 0.000000
vn 0.382689 -0.923877 0.000000
vn 0.000001 0.000000 1.000000
vn 0.000001 0.000000 1.000000
vn 0.000001 0.000000 1.000000
vn 0.000001 0.000000 1.000000
vn -0.000001 0.000000 1.000000
vn -0.000001 0.000000 1.000000
vn -0.000001 0.000000 1.000000
vn -0.000001 0.000000 1.000000
vn 0.000001 0.000000 1.000000
vn 0.000001 0.000000 1.000000
vn 0.000001 0.000000 1.000000
vn 0.000001 0.000000 1.000000
vn 0.000000 0.000000 1.000000
vn 0.000000 0.000000 1.000000
vn 0.000000 0.000000 1.000000
vn 0.000000 0.000000 1.000000
vn 0.000000 0.000000 1.000000
vn 0.000000 0.000000 1.000000
vn 0.000000 0.000000 1.000000
vn 0.000000 0.000000 1.000000
vn 0.000000 0.000000 1.000000
vn 0.000000 0.000000 1.000000
vn 0.000000 0.000000 1.000000
vn 0.000000 0.000000 1.000000
vn 0.000000 0.000000 1.000000
vn 0.000000 0.000000 1.000000
vn 0.000000 0.000000 1.000000
vn 0.000000 0.000000 1.000000
vn 0.000000 0.000000 1.000000
vn 0.000000 0.000000 1.000000
vn 0.000000 0.000000 1.000000
vn 0.000000 0.000000 1.000000
vn -0.382678 -0.923882 0.000000
vn -0.382678 -0.923882 0.000000
vn -0.382678 -0.923882 0.000000
vn -0.382678 -0.923882 0.000000
vn 0.382676 -0.923883 0.000000
vn 0.382676 -0.923883 0.000000
vn 0.382676 -0.923883 0.000000
vn 0.382676 -0.923883 0.000000
vn 0.923883 -0.382675 0.000000
vn 0.923883 -0.382675 0.000000
vn 0.923883 -0.382675 0.000000
vn 0.923883 -0.382675 0.000000
vn 0.923883 0.382675 0.000000
vn 0.923883 0.382675 0.000000
vn 0.923883 0.382675 0.000000
vn 0.923883 0.382675 0.000000
vn 0.382676 0.923883 0.000000
vn 0.382676 0.923883 0.000000
vn 0.382676 0.923883 0.000000
vn 0.382676 0.923883 0.000000
vn -0.382678 0.923882 0.000000
vn -0.382678 0.923882 0.000000
vn -0.382678 0.923882 0.000000
vn -0.382678 0.923882 0.000000
vn -0.923880 0.382682 0.000000
vn -0.923880 0.382682 0.000000
vn -0.923880 0.382682 0.000000
vn -0.923880 0.382682 0.000000
vn -0.923880 -0.382682 0.000000
vn -0.923880 -0.382682 0.000000
vn -0.923880 -0.382682 0.000000
vn -0.923880 -0.382682 0.000000
s off
f 19/39/1 20/40/2 10/19/3 9/18/4
f 20/40/5 21/41/6 11/20/7 10/19/8
f 21/41/9 22/42/10 12/21/11 11/20/12
f 22/42/13 23/43/14 13/22/15 12/21/16
f 23/43/17 24/44/18 14/23/19 13/22/20
f 24/44/21 25/45/22 15/24/23 14/23/24
f 25/45/25 18/37/26 16/25/27 15/24/28
f 18/37/29 19/38/30 9/26/31 16/25/32
f 2/2/33 1/1/34 17/35/35
f 3/3/36 2/2/37 17/35/38
f 4/4/39 3/3/40 17/35/41
f 5/5/42 4/4/43 17/35/44
f 6/6/45 5/5/46 17/35/47
f 7/7/48 6/6/49 17/35/50
f 8/8/51 7/7/52 17/35/53
f 1/1/54 8/8/55 17/35/56
f 90/36/57 91/125/58 92/126/59
f 91/125/60 93/127/61 92/126/62
f 93/127/63 94/128/64 92/126/65
f 94/128/66 95/129/67 92/126/68
f 95/129/69 96/130/70 92/126/71
f 96/130/72 97/131/73 92/126/74
f 97/131/75 98/132/76 92/126/77
f 98/132/78 90/36/79 92/126/80
f 26/46/81 27/47/82 19/38/83 18/37/84
f 27/48/85 28/49/86 20/40/87 19/39/88
f 28/49/89 29/50/90 21/41/91 20/40/92
f 29/50/93 30/51/94 22/42/95 21/41/96
f 30/51/97 31/52/98 23/43/99 22/42/100
f 31/52/101 32/53/102 24/44/103 23/43/104
f 32/53/105 33/54/106 25/45/107 24/44/108
f 33/54/109 26/46/110 18/37/111 25/45/112
f 34/55/113 35/56/114 27/47/115 26/46/116
f 35/57/117 36/58/118 28/49/119 27/48/120
f 36/58/121 37/59/122 29/50/123 28/49/124
f 37/59/125 38/60/126 30/51/127 29/50/128
f 38/60/129 39/61/130 31/52/131 30/51/132
f 39/61/133 40/62/134 32/53/135 31/52/136
f 40/62/137 41/63/138 33/54/139 32/53/140
f 41/63/141 34/55/142 26/46/143 33/54/144
f 42/64/145 43/65/146 35/56/147 34/55/148
f 43/66/149 44/67/150 36/58/151 35/57/152
f 44/67/153 45/68/154 37/59/155 36/58/156
f 45/68/157 46/69/158 38/60/159 37/59/160
f 46/69/161 47/70/162 39/61/163 38/60/164
f 47/70/165 48/71/166 40/62/167 39/61/168
f 48/71/169 49/72/170 41/63/171 40/62/172
f 49/72/173 42/64/174 34/55/175 41/63/176
f 50/73/177 51/74/178 43/65/179 42/64/180
f 51/75/181 52/76/182 44/67/183 43/66/184
f 52/76/185 53/77/186 45/68/187 44/67/188
f 53/77/189 54/78/190 46/69/191 45/68/192
f 54/78/193 55/79/194 47/70/195 46/69/196
f 55/79/197 56/80/198 48/71/199 47/70/200
f 56/80/201 57/81/202 49/72/203 48/71/204
f 57/81/205 50/73/206 42/64/207 49/72/208
f 58/82/209 59/83/210 51/74/211 50/73/212
f 59/84/213 60/85/214 52/76/215 51/75/216
f 60/85/217 61/86/218 53/77/219 52/76/220
f 61/86/221 62/87/222 54/78/223 53/77/224
f 62/87/225 63/88/226 55/79/227 54/78/228
f 63/88/229 64/89/230 56/80/231 55/79/232
f 64/89/233 65/90/234 57/81/235 56/80/236
f 65/90/237 58/82/238 50/73/239 57/81/240
f 66/91/241 67/92/242 79/105/243 80/107/244
f 67/93/245 68/94/246 78/104/247 79/106/248
f 68/94/249 69/95/250 77/103/251 78/104/252
f 69/95/253 70/96/254 76/102/255 77/103/256
f 70/96/257 71/97/258 75/101/259 76/102/260
f 71/97/261 72/98/262 74/100/263 75/101/264
f 72/98/265 73/99/266 81/108/267 74/100/268
f 73/99/269 66/91/270 80/107/271 81/108/272
f 8/16/273 1/17/274 67/92/275 66/91/276
f 1/9/277 2/10/278 68/94/279 67/93/280
f 2/10/281 3/11/282 69/95/283 68/94/284
f 3/11/285 4/12/286 70/96/287 69/95/288
f 4/12/289 5/13/290 71/97/291 70/96/292
f 5/13/293 6/14/294 72/98/295 71/97/296
f 6/14/297 7/15/298 73/99/299 72/98/300
f 7/15/301 8/16/302 66/91/303 73/99/304
f 75/101/305 74/100/306 64/89/307 63/88/308
f 76/102/309 75/101/310 63/88/311 62/87/312
f 77/103/313 76/102/314 62/87/315 61/86/316
f 78/104/317 77/103/318 61/86/319 60/85/320
f 79/106/321 78/104/322 60/85/323 59/84/324
f 80/107/325 79/105/326 59/83/327 58/82/328
f 81/108/329 80/107/330 58/82/331 65/90/332
f 74/100/333 81/108/334 65/90/335 64/89/336
f 9/33/337 10/32/338 83/110/339 82/109/340
f 10/32/341 11/31/342 84/111/343 83/110/344
f 11/31/345 12/30/346 85/112/347 84/111/348
f 12/30/349 13/29/350 86/113/351 85/112/352
f 13/29/353 14/28/354 87/114/355 86/113/356
f 14/28/357 15/27/358 88/115/359 87/114/360
f 15/27/361 16/34/362 89/116/363 88/115/364
f 16/34/365 9/33/366 82/109/367 89/116/368
f 82/109/369 83/110/370 91/118/371 90/117/372
f 83/110/373 84/111/374 93/119/375 91/118/376
f 84/111/377 85/112/378 94/120/379 93/119/380
f 85/112/381 86/113/382 95/121/383 94/120/384
f 86/113/385 87/114/386 96/122/387 95/121/388
f 87/114/389 88/115/390 97/123/391 96/122/392
f 88/115/393 89/116/394 98/124/395 97/123/396
f 89/116/397 82/109/398 90/117/399 98/124/400
