# This file uses centimeters as units for non-parametric coordinates.

v -0.112039 0.003621 -0.150750
v -0.154485 0.003621 -0.150750
v -0.175709 0.003621 -0.113990
v -0.154485 0.003621 -0.077231
v -0.112039 0.003621 -0.077231
v -0.090816 0.003621 -0.113991
v -0.112039 0.017223 -0.150750
v -0.154485 0.017223 -0.150750
v -0.175709 0.017223 -0.113990
v -0.154485 0.017223 -0.077231
v -0.112039 0.017223 -0.077231
v -0.090816 0.017223 -0.113991
v 0.070853 0.003621 0.067905
v 0.039612 0.003621 0.096638
v 0.048875 0.003621 0.138062
v 0.089380 0.003621 0.150751
v 0.120621 0.003621 0.122017
v 0.111359 0.003621 0.080595
v 0.070853 0.017223 0.067905
v 0.039612 0.017223 0.096638
v 0.048875 0.017223 0.138062
v 0.089380 0.017223 0.150751
v 0.120621 0.017223 0.122017
v 0.111359 0.017223 0.080595
v -0.064127 0.003621 -0.032353
v -0.105086 0.003621 -0.021211
v -0.115913 0.003621 0.019831
v -0.085785 0.003621 0.049730
v -0.044827 0.003621 0.038588
v -0.033998 0.003621 -0.002455
v -0.064127 0.017223 -0.032353
v -0.105086 0.017223 -0.021211
v -0.115913 0.017223 0.019831
v -0.085785 0.017223 0.049730
v -0.044827 0.017223 0.038588
v -0.033998 0.017223 -0.002455
v 0.168531 0.003621 -0.017769
v 0.128714 0.003621 -0.032472
v 0.096071 0.003621 -0.005340
v 0.103249 0.003621 0.036496
v 0.143064 0.003621 0.051199
v 0.175709 0.003621 0.024066
v 0.168531 0.017223 -0.017769
v 0.128714 0.017223 -0.032472
v 0.096071 0.017223 -0.005340
v 0.103249 0.017223 0.036496
v 0.143064 0.017223 0.051199
v 0.175709 0.017223 0.024066
v 0.049936 0.003621 0.020633
v 0.027016 0.003621 -0.015093
v -0.015384 0.003621 -0.013107
v -0.034863 0.003621 0.024605
v -0.011944 0.003621 0.060331
v 0.030457 0.003621 0.058346
v 0.049936 0.017223 0.020633
v 0.027016 0.017223 -0.015093
v -0.015384 0.017223 -0.013107
v -0.034863 0.017223 0.024605
v -0.011944 0.017223 0.060331
v 0.030457 0.017223 0.058346
v 0.111378 0.003621 -0.027616
v 0.104481 0.003621 -0.069499
v 0.064762 0.003621 -0.084469
v 0.031939 0.003621 -0.057557
v 0.038834 0.003621 -0.015674
v 0.078552 0.003621 -0.000704
v 0.111378 0.017223 -0.027616
v 0.104481 0.017223 -0.069499
v 0.064762 0.017223 -0.084469
v 0.031939 0.017223 -0.057557
v 0.038834 0.017223 -0.015674
v 0.078552 0.017223 -0.000704
v 0.023345 0.003621 -0.076520
v -0.008184 0.003621 -0.104938
v -0.048560 0.003621 -0.091841
v -0.057405 0.003621 -0.050326
v -0.025875 0.003621 -0.021909
v 0.014500 0.003621 -0.035006
v 0.023345 0.017223 -0.076520
v -0.008184 0.017223 -0.104938
v -0.048560 0.017223 -0.091841
v -0.057405 0.017223 -0.050326
v -0.025875 0.017223 -0.021909
v 0.014500 0.017223 -0.035006
v 0.003176 0.017223 -0.040658
v -0.036936 0.017223 -0.054542
v -0.069016 0.017223 -0.026748
v -0.060985 0.017223 0.014933
v -0.020874 0.017223 0.028817
v 0.011207 0.017223 0.001022
v 0.003176 0.030826 -0.040658
v -0.036936 0.030826 -0.054542
v -0.069016 0.030826 -0.026748
v -0.060985 0.030826 0.014933
v -0.020874 0.030826 0.028817
v 0.011207 0.030826 0.001022
v 0.091499 0.017223 -0.044990
v 0.074125 0.017223 -0.083716
v 0.031898 0.017223 -0.088033
v 0.007048 0.017223 -0.053621
v 0.024423 0.017223 -0.014894
v 0.066648 0.017223 -0.010578
v 0.091499 0.030826 -0.044990
v 0.074125 0.030826 -0.083716
v 0.031898 0.030826 -0.088033
v 0.007048 0.030826 -0.053621
v 0.024423 0.030826 -0.014894
v 0.066648 0.030826 -0.010578
v 0.033590 0.030826 -0.053390
v -0.002569 0.030826 -0.075619
v -0.039900 0.030826 -0.055418
v -0.041071 0.030826 -0.012987
v -0.004910 0.030826 0.009241
v 0.032421 0.030826 -0.010960
v 0.033590 0.044429 -0.053390
v -0.002569 0.044429 -0.075619
v -0.039900 0.044429 -0.055418
v -0.041071 0.044429 -0.012987
v -0.004910 0.044429 0.009241
v 0.032421 0.044429 -0.010960
v 0.132215 0.001352 -0.115333
v 0.091166 0.009145 -0.107861
v 0.077673 0.015585 -0.068136
v 0.105230 0.014233 -0.035881
v 0.146282 0.006440 -0.043352
v 0.159775 0.000000 -0.083078
v 0.134495 0.014691 -0.116721
v 0.093445 0.022483 -0.109250
v 0.079952 0.028923 -0.069524
v 0.107512 0.027571 -0.037269
v 0.148561 0.019778 -0.044740
v 0.162054 0.013338 -0.084466
vt 0.133253 0.352527
vt 0.133253 0.352527
vt 0.133253 0.352527
vt 0.133253 0.352527
vt 0.133253 0.352527
vt 0.133253 0.352527
vt 0.133253 0.352527
vt 0.133253 0.352527
vt 0.133253 0.352527
vt 0.133253 0.352527
vt 0.133253 0.352527
vt 0.133253 0.352527
vt 0.133253 0.352527
vt 0.133253 0.352527
vt 0.133253 0.352527
vt 0.133253 0.352527
vt 0.133253 0.352527
vt 0.133253 0.352527
vt 0.133253 0.352527
vt 0.133253 0.352527
vt 0.133253 0.352527
vt 0.133253 0.352527
vt 0.133253 0.352527
vt 0.133253 0.352527
vt 0.133253 0.352527
vt 0.133253 0.352527
vt 0.133253 0.352527
vt 0.133253 0.352527
vt 0.133253 0.352527
vt 0.133253 0.352527
vt 0.133253 0.352527
vt 0.133253 0.352527
vt 0.133253 0.352527
vt 0.133253 0.352527
vt 0.133253 0.352527
vt 0.133253 0.352527
vt 0.133253 0.352527
vt 0.133253 0.352527
vt 0.133253 0.352527
vt 0.133253 0.352527
vt 0.133253 0.352527
vt 0.133253 0.352527
vt 0.133253 0.352527
vt 0.133253 0.352527
vt 0.133253 0.352527
vt 0.133253 0.352527
vt 0.133253 0.352527
vt 0.133253 0.352527
vt 0.133253 0.352527
vt 0.133253 0.352527
vt 0.133253 0.352527
vt 0.133253 0.352527
vt 0.133253 0.352527
vt 0.133253 0.352527
vt 0.133253 0.352527
vt 0.133253 0.352527
vt 0.133253 0.352527
vt 0.133253 0.352527
vt 0.133253 0.352527
vt 0.133253 0.352527
vt 0.133253 0.352527
vt 0.133253 0.352527
vt 0.133253 0.352527
vt 0.133253 0.352527
vt 0.133253 0.352527
vt 0.133253 0.352527
vt 0.133253 0.352527
vt 0.133253 0.352527
vt 0.133253 0.352527
vt 0.133253 0.352527
vt 0.133253 0.352527
vt 0.133253 0.352527
vt 0.133253 0.352527
vt 0.133253 0.352527
vt 0.133253 0.352527
vt 0.133253 0.352527
vt 0.133253 0.352527
vt 0.133253 0.352527
vt 0.133253 0.352527
vt 0.133253 0.352527
vt 0.133253 0.352527
vt 0.133253 0.352527
vt 0.133253 0.352527
vt 0.133253 0.352527
vt 0.133253 0.352527
vt 0.133253 0.352527
vt 0.133253 0.352527
vt 0.133253 0.352527
vt 0.133253 0.352527
vt 0.133253 0.352527
vt 0.133253 0.352527
vt 0.133253 0.352527
vt 0.133253 0.352527
vt 0.133253 0.352527
vt 0.133253 0.352527
vt 0.133253 0.352527
vt 0.133253 0.352527
vt 0.133253 0.352527
vt 0.133253 0.352527
vt 0.133253 0.352527
vt 0.133253 0.352527
vt 0.133253 0.352527
vt 0.133253 0.352527
vt 0.133253 0.352527
vt 0.133253 0.352527
vt 0.133253 0.352527
vt 0.133253 0.352527
vt 0.133253 0.352527
vt 0.133253 0.352527
vt 0.133253 0.352527
vt 0.133253 0.352527
vt 0.133253 0.352527
vt 0.133253 0.352527
vt 0.133253 0.352527
vt 0.133253 0.352527
vt 0.133253 0.352527
vt 0.133253 0.352527
vt 0.133253 0.352527
vt 0.133253 0.352527
vt 0.133253 0.352527
vt 0.133253 0.352527
vt 0.133253 0.352527
vt 0.133253 0.352527
vt 0.133253 0.352527
vt 0.133253 0.352527
vt 0.133253 0.352527
vt 0.133253 0.352527
vt 0.133253 0.352527
vt 0.133253 0.352527
vt 0.133253 0.352527
vt 0.133253 0.352527
vt 0.133253 0.352527
vt 0.133253 0.352527
vt 0.133253 0.352527
vt 0.133253 0.352527
vt 0.133253 0.352527
vt 0.133253 0.352527
vt 0.133253 0.352527
vt 0.133253 0.352527
vt 0.133253 0.352527
vt 0.133253 0.352527
vt 0.133253 0.352527
vt 0.133253 0.352527
vt 0.133253 0.352527
vt 0.133253 0.352527
vt 0.133253 0.352527
vt 0.133253 0.352527
vt 0.133253 0.352527
vt 0.133253 0.352527
vt 0.133253 0.352527
vt 0.133253 0.352527
vt 0.133253 0.352527
vt 0.133253 0.352527
vt 0.133253 0.352527
vt 0.133253 0.352527
vt 0.133253 0.352527
vt 0.133253 0.352527
vt 0.133253 0.352527
vt 0.133253 0.352527
vt 0.133253 0.352527
vt 0.133253 0.352527
vt 0.133253 0.352527
vt 0.133253 0.352527
vt 0.133253 0.352527
vt 0.133253 0.352527
vt 0.133253 0.352527
vt 0.133253 0.352527
vt 0.133253 0.352527
vt 0.133253 0.352527
vt 0.133253 0.352527
vt 0.133253 0.352527
vt 0.133253 0.352527
vt 0.133253 0.352527
vt 0.133253 0.352527
vt 0.133253 0.352527
vt 0.133253 0.352527
vt 0.133253 0.352527
vt 0.133253 0.352527
vt 0.133253 0.352527
vt 0.133253 0.352527
vt 0.133253 0.352527
vt 0.133253 0.352527
vt 0.133253 0.352527
vt 0.133253 0.352527
vt 0.133253 0.352527
vt 0.133253 0.352527
vt 0.133253 0.352527
vt 0.133253 0.352527
vt 0.133253 0.352527
vt 0.133253 0.352527
vt 0.133253 0.352527
vt 0.133253 0.352527
vt 0.133253 0.352527
vt 0.133253 0.352527
vt 0.133253 0.352527
vt 0.133253 0.352527
vt 0.133253 0.352527
vt 0.133253 0.352527
vt 0.133253 0.352527
vt 0.133253 0.352527
vt 0.133253 0.352527
vt 0.133253 0.352527
vt 0.133253 0.352527
vt 0.133253 0.352527
vt 0.133253 0.352527
vt 0.133253 0.352527
vt 0.133253 0.352527
vt 0.133253 0.352527
vt 0.133253 0.352527
vt 0.133253 0.352527
vt 0.133253 0.352527
vt 0.133253 0.352527
vt 0.133253 0.352527
vt 0.133253 0.352527
vt 0.133253 0.352527
vt 0.133253 0.352527
vt 0.133253 0.352527
vt 0.133253 0.352527
vt 0.133253 0.352527
vt 0.133253 0.352527
vn -0.000006 0.000000 -1.000000
vn -0.000006 0.000000 -1.000000
vn -0.000006 0.000000 -1.000000
vn -0.000006 0.000000 -1.000000
vn -0.866020 0.000000 -0.500009
vn -0.866020 0.000000 -0.500009
vn -0.866020 0.000000 -0.500009
vn -0.866020 0.000000 -0.500009
vn -0.866019 0.000000 0.500010
vn -0.866019 0.000000 0.500010
vn -0.866019 0.000000 0.500010
vn -0.866019 0.000000 0.500010
vn 0.000011 0.000000 1.000000
vn 0.000011 0.000000 1.000000
vn 0.000011 0.000000 1.000000
vn 0.000011 0.000000 1.000000
vn 0.866022 0.000000 0.500006
vn 0.866022 0.000000 0.500006
vn 0.866022 0.000000 0.500006
vn 0.866022 0.000000 0.500006
vn 0.866026 0.000000 -0.499999
vn 0.866026 0.000000 -0.499999
vn 0.866026 0.000000 -0.499999
vn 0.866026 0.000000 -0.499999
vn 0.000000 1.000000 -0.000000
vn 0.000000 1.000000 -0.000000
vn 0.000000 1.000000 -0.000000
vn 0.000000 1.000000 -0.000000
vn 0.000000 1.000000 -0.000000
vn 0.000000 1.000000 -0.000000
vn -0.676932 0.000000 -0.736046
vn -0.676932 0.000000 -0.736046
vn -0.676932 0.000000 -0.736046
vn -0.676932 0.000000 -0.736046
vn -0.975898 0.000000 0.218227
vn -0.975898 0.000000 0.218227
vn -0.975898 0.000000 0.218227
vn -0.975898 0.000000 0.218227
vn -0.298954 0.000000 0.954268
vn -0.298954 0.000000 0.954268
vn -0.298954 0.000000 0.954268
vn -0.298954 0.000000 0.954268
vn 0.676967 0.000000 0.736013
vn 0.676967 0.000000 0.736013
vn 0.676967 0.000000 0.736013
vn 0.676967 0.000000 0.736013
vn 0.975901 0.000000 -0.218215
vn 0.975901 0.000000 -0.218215
vn 0.975901 0.000000 -0.218215
vn 0.975901 0.000000 -0.218215
vn 0.298954 0.000000 -0.954268
vn 0.298954 0.000000 -0.954268
vn 0.298954 0.000000 -0.954268
vn 0.298954 0.000000 -0.954268
vn 0.000000 1.000000 0.000000
vn 0.000000 1.000000 0.000000
vn 0.000000 1.000000 0.000000
vn 0.000000 1.000000 0.000000
vn 0.000000 1.000000 0.000000
vn 0.000000 1.000000 0.000000
vn -0.262510 0.000000 -0.964929
vn -0.262510 0.000000 -0.964929
vn -0.262510 0.000000 -0.964929
vn -0.262510 0.000000 -0.964929
vn -0.966915 0.000000 -0.255097
vn -0.966915 0.000000 -0.255097
vn -0.966915 0.000000 -0.255097
vn -0.966915 0.000000 -0.255097
vn -0.704406 0.000000 0.709798
vn -0.704406 0.000000 0.709798
vn -0.704406 0.000000 0.709798
vn -0.704406 0.000000 0.709798
vn 0.262515 0.000000 0.964928
vn 0.262515 0.000000 0.964928
vn 0.262515 0.000000 0.964928
vn 0.262515 0.000000 0.964928
vn 0.966910 0.000000 0.255118
vn 0.966910 0.000000 0.255118
vn 0.966910 0.000000 0.255118
vn 0.966910 0.000000 0.255118
vn 0.704389 0.000000 -0.709815
vn 0.704389 0.000000 -0.709815
vn 0.704389 0.000000 -0.709815
vn 0.704389 0.000000 -0.709815
vn 0.000000 1.000000 0.000000
vn 0.000000 1.000000 0.000000
vn 0.000000 1.000000 0.000000
vn 0.000000 1.000000 0.000000
vn 0.000000 1.000000 0.000000
vn 0.000000 1.000000 0.000000
vn 0.346391 0.000000 -0.938090
vn 0.346391 0.000000 -0.938090
vn 0.346391 0.000000 -0.938090
vn 0.346391 0.000000 -0.938090
vn -0.639212 0.000000 -0.769031
vn -0.639212 0.000000 -0.769031
vn -0.639212 0.000000 -0.769031
vn -0.639212 0.000000 -0.769031
vn -0.985601 0.000000 0.169090
vn -0.985601 0.000000 0.169090
vn -0.985601 0.000000 0.169090
vn -0.985601 0.000000 0.169090
vn -0.346406 0.000000 0.938085
vn -0.346406 0.000000 0.938085
vn -0.346406 0.000000 0.938085
vn -0.346406 0.000000 0.938085
vn 0.639203 0.000000 0.769038
vn 0.639203 0.000000 0.769038
vn 0.639203 0.000000 0.769038
vn 0.639203 0.000000 0.769038
vn 0.985600 0.000000 -0.169094
vn 0.985600 0.000000 -0.169094
vn 0.985600 0.000000 -0.169094
vn 0.985600 0.000000 -0.169094
vn 0.000000 1.000000 -0.000000
vn 0.000000 1.000000 -0.000000
vn 0.000000 1.000000 -0.000000
vn 0.000000 1.000000 -0.000000
vn 0.000000 1.000000 -0.000000
vn 0.000000 1.000000 -0.000000
vn 0.841669 0.000000 -0.539993
vn 0.841669 0.000000 -0.539993
vn 0.841669 0.000000 -0.539993
vn 0.841669 0.000000 -0.539993
vn -0.046778 0.000000 -0.998905
vn -0.046778 0.000000 -0.998905
vn -0.046778 0.000000 -0.998905
vn -0.046778 0.000000 -0.998905
vn -0.888472 0.000000 -0.458930
vn -0.888472 0.000000 -0.458930
vn -0.888472 0.000000 -0.458930
vn -0.888472 0.000000 -0.458930
vn -0.841686 0.000000 0.539967
vn -0.841686 0.000000 0.539967
vn -0.841686 0.000000 0.539967
vn -0.841686 0.000000 0.539967
vn 0.046777 0.000000 0.998905
vn 0.046777 0.000000 0.998905
vn 0.046777 0.000000 0.998905
vn 0.046777 0.000000 0.998905
vn 0.888477 0.000000 0.458921
vn 0.888477 0.000000 0.458921
vn 0.888477 0.000000 0.458921
vn 0.888477 0.000000 0.458921
vn 0.000000 1.000000 0.000000
vn 0.000000 1.000000 0.000000
vn 0.000000 1.000000 0.000000
vn 0.000000 1.000000 0.000000
vn 0.000000 1.000000 0.000000
vn 0.000000 1.000000 0.000000
vn 0.986711 0.000000 -0.162484
vn 0.986711 0.000000 -0.162484
vn 0.986711 0.000000 -0.162484
vn 0.986711 0.000000 -0.162484
vn 0.352689 0.000000 -0.935741
vn 0.352689 0.000000 -0.935741
vn 0.352689 0.000000 -0.935741
vn 0.352689 0.000000 -0.935741
vn -0.634036 0.000000 -0.773304
vn -0.634036 0.000000 -0.773304
vn -0.634036 0.000000 -0.773304
vn -0.634036 0.000000 -0.773304
vn -0.986718 0.000000 0.162440
vn -0.986718 0.000000 0.162440
vn -0.986718 0.000000 0.162440
vn -0.986718 0.000000 0.162440
vn -0.352679 0.000000 0.935744
vn -0.352679 0.000000 0.935744
vn -0.352679 0.000000 0.935744
vn -0.352679 0.000000 0.935744
vn 0.634007 0.000000 0.773327
vn 0.634007 0.000000 0.773327
vn 0.634007 0.000000 0.773327
vn 0.634007 0.000000 0.773327
vn 0.000000 1.000000 0.000000
vn 0.000000 1.000000 0.000000
vn 0.000000 1.000000 0.000000
vn 0.000000 1.000000 0.000000
vn 0.000000 1.000000 0.000000
vn 0.000000 1.000000 0.000000
vn 0.669500 0.000000 -0.742812
vn 0.669500 0.000000 -0.742812
vn 0.669500 0.000000 -0.742812
vn 0.669500 0.000000 -0.742812
vn -0.308547 0.000000 -0.951209
vn -0.308547 0.000000 -0.951209
vn -0.308547 0.000000 -0.951209
vn -0.308547 0.000000 -0.951209
vn -0.978048 0.000000 -0.208378
vn -0.978048 0.000000 -0.208378
vn -0.978048 0.000000 -0.208378
vn -0.978048 0.000000 -0.208378
vn -0.669494 0.000000 0.742818
vn -0.669494 0.000000 0.742818
vn -0.669494 0.000000 0.742818
vn -0.669494 0.000000 0.742818
vn 0.308554 0.000000 0.951207
vn 0.308554 0.000000 0.951207
vn 0.308554 0.000000 0.951207
vn 0.308554 0.000000 0.951207
vn 0.978046 0.000000 0.208389
vn 0.978046 0.000000 0.208389
vn 0.978046 0.000000 0.208389
vn 0.978046 0.000000 0.208389
vn 0.000000 1.000000 -0.000000
vn 0.000000 1.000000 -0.000000
vn 0.000000 1.000000 -0.000000
vn 0.000000 1.000000 -0.000000
vn 0.000000 1.000000 -0.000000
vn 0.000000 1.000000 -0.000000
vn 0.327106 0.000000 -0.944988
vn 0.327106 0.000000 -0.944988
vn 0.327106 0.000000 -0.944988
vn 0.327106 0.000000 -0.944988
vn -0.654817 0.000000 -0.755788
vn -0.654817 0.000000 -0.755788
vn -0.654817 0.000000 -0.755788
vn -0.654817 0.000000 -0.755788
vn -0.981939 0.000000 0.189198
vn -0.981939 0.000000 0.189198
vn -0.981939 0.000000 0.189198
vn -0.981939 0.000000 0.189198
vn -0.327109 0.000000 0.944986
vn -0.327109 0.000000 0.944986
vn -0.327109 0.000000 0.944986
vn -0.327109 0.000000 0.944986
vn 0.654818 0.000000 0.755787
vn 0.654818 0.000000 0.755787
vn 0.654818 0.000000 0.755787
vn 0.654818 0.000000 0.755787
vn 0.981939 0.000000 -0.189200
vn 0.981939 0.000000 -0.189200
vn 0.981939 0.000000 -0.189200
vn 0.981939 0.000000 -0.189200
vn 0.000000 1.000000 0.000000
vn 0.000000 1.000000 0.000000
vn 0.000000 1.000000 0.000000
vn 0.000000 1.000000 0.000000
vn 0.000000 1.000000 0.000000
vn 0.000000 1.000000 0.000000
vn 0.912386 0.000000 -0.409330
vn 0.912386 0.000000 -0.409330
vn 0.912386 0.000000 -0.409330
vn 0.912386 0.000000 -0.409330
vn 0.101710 0.000000 -0.994814
vn 0.101710 0.000000 -0.994814
vn 0.101710 0.000000 -0.994814
vn 0.101710 0.000000 -0.994814
vn -0.810704 0.000000 -0.585457
vn -0.810704 0.000000 -0.585457
vn -0.810704 0.000000 -0.585457
vn -0.810704 0.000000 -0.585457
vn -0.912380 0.000000 0.409344
vn -0.912380 0.000000 0.409344
vn -0.912380 0.000000 0.409344
vn -0.912380 0.000000 0.409344
vn -0.101690 0.000000 0.994816
vn -0.101690 0.000000 0.994816
vn -0.101690 0.000000 0.994816
vn -0.101690 0.000000 0.994816
vn 0.810700 0.000000 0.585462
vn 0.810700 0.000000 0.585462
vn 0.810700 0.000000 0.585462
vn 0.810700 0.000000 0.585462
vn 0.000000 1.000000 -0.000000
vn 0.000000 1.000000 -0.000000
vn 0.000000 1.000000 -0.000000
vn 0.000000 1.000000 -0.000000
vn 0.000000 1.000000 -0.000000
vn 0.000000 1.000000 -0.000000
vn 0.523699 0.000000 -0.851903
vn 0.523699 0.000000 -0.851903
vn 0.523699 0.000000 -0.851903
vn 0.523699 0.000000 -0.851903
vn -0.475927 0.000000 -0.879485
vn -0.475927 0.000000 -0.879485
vn -0.475927 0.000000 -0.879485
vn -0.475927 0.000000 -0.879485
vn -0.999619 0.000000 -0.027590
vn -0.999619 0.000000 -0.027590
vn -0.999619 0.000000 -0.027590
vn -0.999619 0.000000 -0.027590
vn -0.523681 0.000000 0.851914
vn -0.523681 0.000000 0.851914
vn -0.523681 0.000000 0.851914
vn -0.523681 0.000000 0.851914
vn 0.475909 0.000000 0.879495
vn 0.475909 0.000000 0.879495
vn 0.475909 0.000000 0.879495
vn 0.475909 0.000000 0.879495
vn 0.999621 0.000000 0.027545
vn 0.999621 0.000000 0.027545
vn 0.999621 0.000000 0.027545
vn 0.999621 0.000000 0.027545
vn 0.000000 1.000000 0.000000
vn 0.000000 1.000000 0.000000
vn 0.000000 1.000000 0.000000
vn 0.000000 1.000000 0.000000
vn 0.000000 1.000000 0.000000
vn 0.000000 1.000000 0.000000
vn -0.191339 -0.069228 -0.979080
vn -0.191339 -0.069228 -0.979080
vn -0.191339 -0.069228 -0.979080
vn -0.191339 -0.069228 -0.979080
vn -0.933210 0.124374 -0.337119
vn -0.933211 0.124374 -0.337119
vn -0.933210 0.124374 -0.337119
vn -0.933210 0.124374 -0.337119
vn -0.741874 0.193635 0.641973
vn -0.741874 0.193635 0.641973
vn -0.741874 0.193635 0.641973
vn -0.741874 0.193635 0.641973
vn 0.191322 0.069183 0.979086
vn 0.191322 0.069183 0.979086
vn 0.191322 0.069183 0.979086
vn 0.191322 0.069183 0.979086
vn 0.933208 -0.124388 0.337120
vn 0.933208 -0.124388 0.337120
vn 0.933208 -0.124388 0.337120
vn 0.933208 -0.124388 0.337120
vn 0.741874 -0.193577 -0.641990
vn 0.741874 -0.193577 -0.641990
vn 0.741874 -0.193577 -0.641990
vn 0.741874 -0.193577 -0.641990
vn 0.167561 0.980565 -0.102054
vn 0.167561 0.980565 -0.102054
vn 0.167561 0.980565 -0.102054
vn 0.167561 0.980565 -0.102054
vn 0.167561 0.980565 -0.102054
vn 0.167561 0.980565 -0.102054
s off
f 1/1/1 2/2/2 8/9/3 7/8/4
f 2/2/5 3/3/6 9/10/7 8/9/8
f 3/3/9 4/4/10 10/11/11 9/10/12
f 4/4/13 5/5/14 11/12/15 10/11/16
f 5/5/17 6/6/18 12/13/19 11/12/20
f 6/6/21 1/7/22 7/14/23 12/13/24
f 10/16/25 11/15/26 12/20/27 7/19/28 8/18/29 9/17/30
f 13/21/31 14/22/32 20/23/33 19/24/34
f 14/22/35 15/25/36 21/26/37 20/23/38
f 15/25/39 16/27/40 22/28/41 21/26/42
f 16/27/43 17/29/44 23/30/45 22/28/46
f 17/29/47 18/31/48 24/32/49 23/30/50
f 18/31/51 13/33/52 19/34/53 24/32/54
f 22/35/55 23/36/56 24/37/57 19/38/58 20/39/59 21/40/60
f 25/41/61 26/42/62 32/43/63 31/44/64
f 26/42/65 27/45/66 33/46/67 32/43/68
f 27/45/69 28/47/70 34/48/71 33/46/72
f 28/47/73 29/49/74 35/50/75 34/48/76
f 29/49/77 30/51/78 36/52/79 35/50/80
f 30/51/81 25/53/82 31/54/83 36/52/84
f 34/55/85 35/56/86 36/57/87 31/58/88 32/59/89 33/60/90
f 37/61/91 38/62/92 44/63/93 43/64/94
f 38/62/95 39/65/96 45/66/97 44/63/98
f 39/65/99 40/67/100 46/68/101 45/66/102
f 40/67/103 41/69/104 47/70/105 46/68/106
f 41/69/107 42/71/108 48/72/109 47/70/110
f 42/71/111 37/73/112 43/74/113 48/72/114
f 46/75/115 47/76/116 48/77/117 43/78/118 44/79/119 45/80/120
f 49/81/121 50/82/122 56/83/123 55/84/124
f 50/82/125 51/85/126 57/86/127 56/83/128
f 51/85/129 52/87/130 58/88/131 57/86/132
f 52/87/133 53/89/134 59/90/135 58/88/136
f 53/89/137 54/91/138 60/92/139 59/90/140
f 54/91/141 49/93/142 55/94/143 60/92/144
f 58/95/145 59/96/146 60/97/147 55/98/148 56/99/149 57/100/150
f 61/101/151 62/102/152 68/103/153 67/104/154
f 62/102/155 63/105/156 69/106/157 68/103/158
f 63/105/159 64/107/160 70/108/161 69/106/162
f 64/107/163 65/109/164 71/110/165 70/108/166
f 65/109/167 66/111/168 72/112/169 71/110/170
f 66/111/171 61/113/172 67/114/173 72/112/174
f 70/115/175 71/116/176 72/117/177 67/118/178 68/119/179 69/120/180
f 73/121/181 74/122/182 80/123/183 79/124/184
f 74/122/185 75/125/186 81/126/187 80/123/188
f 75/125/189 76/127/190 82/128/191 81/126/192
f 76/127/193 77/129/194 83/130/195 82/128/196
f 77/129/197 78/131/198 84/132/199 83/130/200
f 78/131/201 73/133/202 79/134/203 84/132/204
f 82/135/205 83/136/206 84/137/207 79/138/208 80/139/209 81/140/210
f 85/141/211 86/142/212 92/143/213 91/144/214
f 86/142/215 87/145/216 93/146/217 92/143/218
f 87/145/219 88/147/220 94/148/221 93/146/222
f 88/147/223 89/149/224 95/150/225 94/148/226
f 89/149/227 90/151/228 96/152/229 95/150/230
f 90/151/231 85/153/232 91/154/233 96/152/234
f 94/155/235 95/156/236 96/157/237 91/158/238 92/159/239 93/160/240
f 97/161/241 98/162/242 104/163/243 103/164/244
f 98/162/245 99/165/246 105/166/247 104/163/248
f 99/165/249 100/167/250 106/168/251 105/166/252
f 100/167/253 101/169/254 107/170/255 106/168/256
f 101/169/257 102/171/258 108/172/259 107/170/260
f 102/171/261 97/173/262 103/174/263 108/172/264
f 106/175/265 107/176/266 108/177/267 103/178/268 104/179/269 105/180/270
f 109/181/271 110/182/272 116/183/273 115/184/274
f 110/182/275 111/185/276 117/186/277 116/183/278
f 111/185/279 112/187/280 118/188/281 117/186/282
f 112/187/283 113/189/284 119/190/285 118/188/286
f 113/189/287 114/191/288 120/192/289 119/190/290
f 114/191/291 109/193/292 115/194/293 120/192/294
f 118/195/295 119/196/296 120/197/297 115/198/298 116/199/299 117/200/300
f 121/201/301 122/202/302 128/203/303 127/204/304
f 122/202/305 123/205/306 129/206/307 128/203/308
f 123/205/309 124/207/310 130/208/311 129/206/312
f 124/207/313 125/209/314 131/210/315 130/208/316
f 125/209/317 126/211/318 132/212/319 131/210/320
f 126/211/321 121/213/322 127/214/323 132/212/324
f 130/215/325 131/216/326 132/217/327 127/218/328 128/219/329 129/220/330
