# This file uses centimeters as units for non-parametric coordinates.

v -0.032173 0.006323 0.200943
v -0.061874 0.000000 0.200943
v -0.087345 0.016530 0.200943
v -0.093666 0.046230 0.200943
v -0.077137 0.071702 0.200943
v -0.045887 0.073401 0.200943
v -0.023457 0.051919 0.200943
v -0.029388 0.020696 0.200943
v -0.032173 0.006323 -0.200943
v -0.061874 0.000000 -0.200943
v -0.087345 0.016530 -0.200943
v -0.093666 0.046230 -0.200943
v -0.077137 0.071702 -0.200943
v -0.045887 0.073401 -0.200943
v -0.023457 0.051919 -0.200943
v -0.029388 0.020081 -0.200943
v -0.013863 0.027712 0.200943
v -0.004684 0.017486 0.200943
v -0.004684 0.017486 -0.200943
v -0.013863 0.027712 -0.200943
v 0.017471 0.069696 0.200943
v 0.022202 0.054020 0.200943
v 0.022202 0.053823 -0.200943
v 0.017471 0.069696 -0.200943
v 0.043690 0.082753 0.200943
v 0.043690 0.082752 -0.200943
v 0.073662 0.081656 0.200943
v 0.073662 0.081656 -0.200943
v 0.093666 0.054128 0.200943
v 0.093666 0.054128 -0.200943
v 0.093613 0.023762 0.200943
v 0.072102 0.002330 0.200943
v 0.041737 0.002386 0.200943
v 0.020302 0.023897 0.200943
v 0.093613 0.023762 -0.200943
v 0.072102 0.002330 -0.200943
v 0.041737 0.002386 -0.200943
v 0.020302 0.023897 -0.200943
v 0.017307 0.043427 0.000000
v -0.003593 0.023890 0.000000
v -0.024673 0.016856 0.000000
v -0.047455 0.012873 0.000000
v -0.066990 0.023287 0.000000
v -0.071838 0.042000 0.000000
v -0.059158 0.058047 0.000000
v -0.034962 0.057789 0.000000
v -0.018211 0.042831 0.000000
v -0.023808 0.030012 0.000000
v -0.010632 0.030332 0.000000
v 0.016254 0.057724 0.000000
v 0.034969 0.060693 0.000000
v 0.055893 0.062418 0.000000
v 0.071838 0.046975 0.000000
v 0.071796 0.027844 0.000000
v 0.055298 0.014341 0.000000
v 0.032009 0.014376 0.000000
v 0.015572 0.027928 0.000000
v -0.059868 0.010846 0.200943
v -0.054653 0.039012 0.200943
v -0.078259 0.022780 0.200943
v -0.082821 0.044224 0.200943
v -0.070847 0.062246 0.200943
v -0.048725 0.063775 0.200943
v -0.032948 0.049028 0.200943
v -0.059868 0.010846 -0.200943
v -0.054653 0.039012 -0.200943
v -0.078259 0.022780 -0.200943
v -0.082821 0.044224 -0.200943
v -0.070847 0.062246 -0.200943
v -0.048725 0.063775 -0.200943
v -0.032948 0.049028 -0.200943
v 0.083427 0.028002 0.200943
v 0.067898 0.012528 0.200943
v 0.056984 0.039012 0.200943
v 0.045975 0.012568 0.200943
v 0.030781 0.027658 0.200943
v 0.047409 0.069996 0.200943
v 0.068954 0.069604 0.200943
v 0.083565 0.050655 0.200943
v 0.083431 0.028002 -0.200943
v 0.067898 0.012528 -0.200943
v 0.056984 0.039012 -0.200943
v 0.045975 0.012568 -0.200943
v 0.030781 0.027658 -0.200943
v 0.047409 0.069996 -0.200943
v 0.068954 0.069604 -0.200943
v 0.083565 0.050655 -0.200943
vt 0.297901 0.264988
vt 0.297901 0.264988
vt 0.297901 0.264988
vt 0.297901 0.264988
vt 0.297901 0.264988
vt 0.297901 0.264988
vt 0.297901 0.264988
vt 0.297901 0.264988
vt 0.297901 0.264988
vt 0.297901 0.264988
vt 0.297901 0.264988
vt 0.297901 0.264988
vt 0.297901 0.264988
vt 0.297901 0.264988
vt 0.297901 0.264988
vt 0.297901 0.264988
vt 0.297901 0.264988
vt 0.297901 0.264988
vt 0.297901 0.264988
vt 0.297901 0.264988
vt 0.297901 0.264988
vt 0.297901 0.264988
vt 0.297901 0.264988
vt 0.297901 0.264988
vt 0.297901 0.264988
vt 0.297901 0.264988
vt 0.297901 0.264988
vt 0.297901 0.264988
vt 0.297901 0.264988
vt 0.297901 0.264988
vt 0.297901 0.264988
vt 0.297901 0.264988
vt 0.297901 0.264988
vt 0.297901 0.264988
vt 0.299219 0.211425
vt 0.299219 0.211425
vt 0.297901 0.264988
vt 0.297901 0.264988
vt 0.297901 0.264988
vt 0.297901 0.264988
vt 0.297901 0.264988
vt 0.297901 0.264988
vt 0.297901 0.264988
vt 0.297901 0.264988
vt 0.297901 0.264988
vt 0.297901 0.264988
vt 0.297901 0.264988
vt 0.297901 0.264988
vt 0.297901 0.264988
vt 0.297901 0.264988
vt 0.297901 0.264988
vt 0.297901 0.264988
vt 0.297901 0.264988
vt 0.297901 0.264988
vt 0.297901 0.264988
vt 0.297901 0.264988
vt 0.297901 0.264988
vt 0.297901 0.264988
vt 0.297901 0.264988
vt 0.297901 0.264988
vt 0.297901 0.264988
vt 0.297901 0.264988
vt 0.297901 0.264988
vt 0.297901 0.264988
vt 0.297901 0.264988
vt 0.297901 0.264988
vt 0.299219 0.211425
vt 0.297901 0.264988
vt 0.297901 0.264988
vt 0.297901 0.264988
vt 0.297901 0.264988
vt 0.297901 0.264988
vt 0.297901 0.264988
vt 0.297901 0.264988
vt 0.297901 0.264988
vt 0.299219 0.211425
vt 0.297901 0.264988
vt 0.297901 0.264988
vt 0.297901 0.264988
vt 0.297901 0.264988
vt 0.297901 0.264988
vt 0.297901 0.264988
vt 0.297901 0.264988
vt 0.297901 0.264988
vt 0.297901 0.264988
vt 0.297901 0.264988
vt 0.297901 0.264988
vt 0.297901 0.264988
vt 0.297901 0.264988
vt 0.297901 0.264988
vt 0.297901 0.264988
vt 0.297901 0.264988
vt 0.297901 0.264988
vt 0.297901 0.264988
vt 0.297901 0.264988
vt 0.297901 0.264988
vt 0.297901 0.264988
vt 0.297901 0.264988
vt 0.297901 0.264988
vt 0.297901 0.264988
vt 0.297901 0.264988
vt 0.297901 0.264988
vt 0.297901 0.264988
vt 0.297901 0.264988
vt 0.297901 0.264988
vt 0.297901 0.264988
vt 0.297901 0.264988
vt 0.297901 0.264988
vt 0.297901 0.264988
vt 0.297901 0.264988
vt 0.297901 0.264988
vt 0.297901 0.264988
vt 0.297901 0.264988
vt 0.297901 0.264988
vt 0.297901 0.264988
vt 0.297901 0.264988
vt 0.297901 0.264988
vt 0.297901 0.264988
vt 0.297901 0.264988
vt 0.297901 0.264988
vt 0.297901 0.264988
vt 0.297901 0.264988
vt 0.297901 0.264988
vt 0.297901 0.264988
vt 0.297901 0.264988
vt 0.297901 0.264988
vt 0.297901 0.264988
vt 0.297901 0.264988
vt 0.297901 0.264988
vt 0.297901 0.264988
vt 0.297901 0.264988
vt 0.299219 0.211425
vt 0.299219 0.211425
vt 0.299219 0.211425
vt 0.299219 0.211425
vt 0.299219 0.211425
vt 0.299219 0.211425
vt 0.299219 0.211425
vt 0.299219 0.211425
vt 0.299219 0.211425
vt 0.299219 0.211425
vt 0.299219 0.211425
vt 0.299219 0.211425
vt 0.299219 0.211425
vt 0.299219 0.211425
vt 0.299219 0.211425
vt 0.299219 0.211425
vt 0.299219 0.211425
vt 0.299219 0.211425
vt 0.299219 0.211425
vt 0.299219 0.211425
vt 0.299219 0.211425
vt 0.299219 0.211425
vt 0.299219 0.211425
vt 0.299219 0.211425
vt 0.299219 0.211425
vt 0.299219 0.211425
vt 0.299219 0.211425
vt 0.299219 0.211425
vt 0.299219 0.211425
vt 0.299219 0.211425
vn 0.192688 -0.981260 0.000000
vn 0.192688 -0.981260 0.000000
vn 0.192478 -0.980195 0.046590
vn 0.192478 -0.980195 0.046590
vn -0.513672 -0.857986 0.000000
vn -0.513672 -0.857986 0.000000
vn -0.511768 -0.854805 0.086035
vn -0.511768 -0.854805 0.086035
vn -0.974403 -0.224809 -0.000000
vn -0.974403 -0.224809 -0.000000
vn -0.969207 -0.223610 0.103136
vn -0.969207 -0.223610 0.103136
vn -0.817883 0.575385 0.000000
vn -0.817883 0.575385 0.000000
vn -0.813273 0.572142 0.106016
vn -0.813273 0.572142 0.106016
vn -0.025972 0.999663 0.000000
vn -0.025972 0.999663 0.000000
vn -0.025900 0.996888 0.074460
vn -0.025900 0.996888 0.074460
vn 0.681031 0.732255 0.000000
vn 0.681031 0.732255 0.000000
vn 0.680925 0.732142 0.017598
vn 0.680925 0.732141 0.017598
vn 0.967837 -0.251577 0.000012
vn 0.967838 -0.251576 -0.000010
vn 0.967942 -0.249872 -0.025550
vn 0.967942 -0.249872 -0.025550
vn 0.000000 0.000000 1.000000
vn -0.000000 0.000000 1.000000
vn -0.000000 0.000000 1.000000
vn 0.000000 0.000000 1.000000
vn 0.000000 0.000000 1.000000
vn -0.000000 0.000000 1.000000
vn 0.000000 0.000000 1.000000
vn 0.000000 0.000000 1.000000
vn -0.000000 0.000000 1.000000
vn -0.000000 0.000000 1.000000
vn 0.000000 0.000000 1.000000
vn -0.000000 0.000000 1.000000
vn -0.000000 0.000000 1.000000
vn -0.000000 0.000000 1.000000
vn -0.000000 0.000000 1.000000
vn -0.000000 0.000000 1.000000
vn -0.000000 0.000000 1.000000
vn -0.000000 0.000000 1.000000
vn -0.000000 0.000000 1.000000
vn -0.000000 0.000000 1.000000
vn -0.000000 0.000000 1.000000
vn -0.000000 0.000000 -1.000000
vn 0.000000 0.000000 -1.000000
vn -0.000000 0.000000 -1.000000
vn 0.000000 0.000000 -1.000000
vn 0.000000 0.000000 -1.000000
vn -0.000000 0.000000 -1.000000
vn 0.000000 0.000000 -1.000000
vn -0.000000 0.000000 -1.000000
vn -0.000000 0.000000 -1.000000
vn -0.000000 0.000000 -1.000000
vn 0.000000 0.000000 -1.000000
vn -0.000000 0.000000 -1.000000
vn 0.000000 0.000000 -1.000000
vn 0.000000 0.000000 -1.000000
vn -0.000000 0.000000 -1.000000
vn 0.000000 0.000000 -1.000000
vn -0.000000 0.000000 -1.000000
vn -0.000000 0.000000 -1.000000
vn -0.000000 0.000000 -1.000000
vn -0.000000 0.000000 -1.000000
vn -0.000000 0.000000 -1.000000
vn -0.000000 0.000000 1.000000
vn 0.000000 0.000000 1.000000
vn -0.000001 0.000000 1.000000
vn -0.000001 0.000000 1.000000
vn 0.350855 -0.936430 -0.000000
vn 0.350855 -0.936430 -0.000000
vn 0.350676 -0.935952 0.031949
vn 0.350676 -0.935952 0.031949
vn 0.000000 0.000000 -1.000000
vn -0.000000 0.000000 -1.000000
vn -0.000001 0.000000 -1.000000
vn -0.000001 0.000000 -1.000000
vn -0.266885 0.963423 -0.024236
vn -0.257336 0.966322 -0.000513
vn -0.257336 0.966322 -0.000512
vn -0.266885 0.963423 -0.024236
vn 0.000000 0.000000 1.000000
vn 0.000000 0.000000 1.000000
vn 0.000000 0.000000 1.000000
vn 0.000000 0.000000 1.000000
vn 0.760529 -0.649303 0.000147
vn 0.760529 -0.649304 0.000147
vn 0.759963 -0.649966 0.000736
vn 0.759963 -0.649966 0.000736
vn 0.000001 0.000000 -1.000000
vn 0.000001 0.000000 -1.000000
vn 0.000001 0.000000 -1.000000
vn 0.000001 0.000000 -1.000000
vn -0.765870 0.642720 0.018795
vn -0.766006 0.642834 0.000000
vn -0.766006 0.642834 0.000000
vn -0.765870 0.642720 0.018795
vn 0.000000 0.000000 1.000000
vn -0.000000 0.000000 1.000000
vn 0.000000 0.000000 1.000000
vn -0.000000 0.000000 -1.000000
vn 0.000000 0.000000 -1.000000
vn -0.000000 0.000000 -1.000000
vn -0.335072 0.939493 0.071271
vn -0.335935 0.941885 -0.000001
vn -0.335935 0.941885 -0.000001
vn -0.335072 0.939493 0.071271
vn -0.012284 0.994769 0.101411
vn -0.012338 0.999924 -0.000002
vn -0.012338 0.999924 -0.000002
vn -0.012284 0.994769 0.101411
vn 0.761729 0.637263 0.116898
vn 0.766987 0.641662 0.000000
vn 0.766987 0.641662 0.000000
vn 0.761729 0.637263 0.116898
vn 0.676702 -0.736257 0.000000
vn 0.676702 -0.736257 0.000000
vn 0.673700 -0.732991 0.094090
vn 0.673700 -0.732990 0.094090
vn -0.001689 -0.999999 0.000000
vn -0.001689 -0.999999 0.000000
vn -0.001686 -0.998227 0.059503
vn -0.001686 -0.998227 0.059503
vn -0.679370 -0.733796 0.000000
vn -0.679370 -0.733796 0.000000
vn -0.679362 -0.733787 0.004814
vn -0.679363 -0.733787 0.004814
vn -0.996827 0.079604 0.000032
vn -0.996827 0.079604 0.000039
vn -0.996558 0.079756 -0.022603
vn -0.996558 0.079756 -0.022603
vn 0.999998 -0.001927 0.000000
vn 0.999998 -0.001927 0.000000
vn 0.994155 -0.001915 0.107948
vn 0.994155 -0.001915 0.107948
vn 0.000000 0.000000 1.000000
vn 0.000001 0.000000 1.000000
vn -0.000000 0.000000 1.000000
vn -0.000000 0.000000 1.000000
vn 0.000000 0.000000 1.000000
vn -0.000000 0.000000 1.000000
vn -0.000000 0.000000 1.000000
vn -0.000000 0.000000 1.000000
vn -0.000000 0.000000 1.000000
vn -0.000000 0.000000 1.000000
vn -0.000000 0.000000 1.000000
vn -0.000000 0.000000 1.000000
vn 0.000000 0.000000 1.000000
vn -0.000000 0.000000 1.000000
vn -0.000000 0.000000 1.000000
vn -0.000000 0.000000 1.000000
vn 0.000000 0.000000 1.000000
vn -0.000000 0.000000 1.000000
vn -0.000000 0.000000 1.000000
vn -0.000000 0.000000 1.000000
vn -0.000000 0.000000 1.000000
vn 0.000001 0.000000 1.000000
vn -0.000000 0.000000 1.000000
vn -0.000000 0.000000 1.000000
vn 0.000000 0.000000 -1.000000
vn 0.000000 0.000000 -1.000000
vn -0.000000 0.000000 -1.000000
vn 0.000000 0.000000 -1.000000
vn -0.000001 0.000000 -1.000000
vn -0.000000 0.000000 -1.000000
vn -0.000001 0.000000 -1.000000
vn -0.000001 0.000000 -1.000000
vn -0.000000 0.000000 -1.000000
vn -0.000001 0.000000 -1.000000
vn -0.000000 0.000000 -1.000000
vn -0.000000 0.000000 -1.000000
vn -0.000000 0.000000 -1.000000
vn -0.000000 0.000000 -1.000000
vn -0.000000 0.000000 -1.000000
vn -0.000000 0.000000 -1.000000
vn -0.000000 0.000000 -1.000000
vn -0.000000 0.000000 -1.000000
vn -0.000000 0.000000 -1.000000
vn -0.000000 0.000000 -1.000000
vn -0.000000 0.000000 -1.000000
vn -0.000000 0.000000 -1.000000
vn 0.000000 0.000000 -1.000000
vn -0.000000 0.000000 -1.000000
vn 0.761094 -0.648642 -0.000442
vn 0.760529 -0.649304 0.000147
vn 0.760529 -0.649303 0.000147
vn 0.761094 -0.648642 -0.000442
vn 0.350676 -0.935952 -0.031949
vn 0.350855 -0.936430 -0.000000
vn 0.350855 -0.936430 -0.000000
vn 0.350676 -0.935952 -0.031949
vn 0.192478 -0.980195 -0.046590
vn 0.192478 -0.980195 -0.046590
vn 0.192688 -0.981260 0.000000
vn 0.192688 -0.981260 0.000000
vn -0.511768 -0.854805 -0.086035
vn -0.511768 -0.854805 -0.086035
vn -0.513672 -0.857986 0.000000
vn -0.513672 -0.857986 0.000000
vn -0.969207 -0.223610 -0.103136
vn -0.969207 -0.223610 -0.103136
vn -0.974403 -0.224809 -0.000000
vn -0.974403 -0.224809 -0.000000
vn -0.813273 0.572142 -0.106016
vn -0.813273 0.572142 -0.106016
vn -0.817883 0.575385 0.000000
vn -0.817883 0.575385 0.000000
vn -0.025900 0.996888 -0.074460
vn -0.025900 0.996888 -0.074460
vn -0.025972 0.999663 0.000000
vn -0.025972 0.999663 0.000000
vn 0.680925 0.732141 -0.017598
vn 0.680925 0.732142 -0.017598
vn 0.681031 0.732255 0.000000
vn 0.681031 0.732255 0.000000
vn 0.967084 -0.253137 0.025907
vn 0.967084 -0.253137 0.025907
vn 0.967838 -0.251576 -0.000010
vn 0.967837 -0.251577 0.000012
vn -0.257336 0.966322 -0.000512
vn -0.257336 0.966322 -0.000513
vn -0.247563 0.968591 0.023339
vn -0.247563 0.968591 0.023339
vn -0.766006 0.642834 0.000000
vn -0.766006 0.642834 0.000000
vn -0.765870 0.642720 -0.018795
vn -0.765870 0.642720 -0.018795
vn -0.335935 0.941885 -0.000001
vn -0.335935 0.941885 -0.000001
vn -0.335090 0.939487 -0.071273
vn -0.335090 0.939487 -0.071273
vn -0.012338 0.999924 -0.000002
vn -0.012338 0.999924 -0.000002
vn -0.012265 0.994769 -0.101414
vn -0.012265 0.994769 -0.101414
vn 0.766987 0.641662 0.000000
vn 0.766987 0.641662 0.000000
vn 0.761729 0.637263 -0.116898
vn 0.761729 0.637263 -0.116898
vn 0.994155 -0.001915 -0.107948
vn 0.994155 -0.001915 -0.107948
vn 0.999998 -0.001927 0.000000
vn 0.999998 -0.001927 0.000000
vn 0.673700 -0.732990 -0.094090
vn 0.673700 -0.732991 -0.094090
vn 0.676702 -0.736257 0.000000
vn 0.676702 -0.736257 0.000000
vn -0.001686 -0.998227 -0.059503
vn -0.001686 -0.998227 -0.059503
vn -0.001689 -0.999999 0.000000
vn -0.001689 -0.999999 0.000000
vn -0.679363 -0.733787 -0.004814
vn -0.679362 -0.733787 -0.004814
vn -0.679370 -0.733796 0.000000
vn -0.679370 -0.733796 0.000000
vn -0.996586 0.079413 0.022570
vn -0.996586 0.079413 0.022570
vn -0.996827 0.079604 0.000039
vn -0.996827 0.079604 0.000032
vn 0.000000 0.000000 1.000000
vn 0.000000 0.000000 1.000000
vn -0.000000 0.000000 1.000000
vn 0.000000 0.000000 1.000000
vn 0.000000 0.000000 1.000000
vn 0.000000 0.000000 1.000000
vn 0.000000 0.000000 1.000000
vn 0.000000 0.000000 1.000000
vn 0.000000 0.000000 1.000000
vn 0.000000 0.000000 1.000000
vn 0.000000 0.000000 1.000000
vn 0.000000 0.000000 1.000000
vn 0.000000 0.000000 1.000000
vn 0.000000 0.000000 1.000000
vn 0.000000 0.000000 1.000000
vn -0.000000 0.000000 1.000000
vn -0.000000 0.000000 1.000000
vn 0.000000 0.000000 1.000000
vn -0.000000 0.000000 1.000000
vn -0.000000 0.000000 1.000000
vn -0.000002 0.000000 1.000000
vn -0.000000 0.000000 1.000000
vn -0.000000 0.000000 1.000000
vn -0.000000 0.000000 1.000000
vn -0.000000 0.000000 1.000000
vn -0.000002 0.000000 1.000000
vn -0.000000 0.000000 1.000000
vn 0.000000 0.000000 -1.000000
vn 0.000000 0.000000 -1.000000
vn 0.000000 0.000000 -1.000000
vn -0.000000 0.000000 -1.000000
vn 0.000000 0.000000 -1.000000
vn 0.000000 0.000000 -1.000000
vn 0.000000 0.000000 -1.000000
vn 0.000000 0.000000 -1.000000
vn 0.000000 0.000000 -1.000000
vn 0.000000 0.000000 -1.000000
vn -0.000000 0.000000 -1.000000
vn 0.000000 0.000000 -1.000000
vn 0.000000 0.000000 -1.000000
vn 0.000000 0.000000 -1.000000
vn 0.000000 0.000000 -1.000000
vn -0.000000 0.000000 -1.000000
vn 0.000000 0.000000 -1.000000
vn 0.000000 0.000000 -1.000000
vn 0.000000 0.000000 -1.000000
vn 0.000000 0.000000 -1.000000
vn 0.000000 0.000000 -1.000000
vn 0.000000 0.000000 -1.000000
vn -0.000000 0.000000 -1.000000
vn 0.000000 0.000000 -1.000000
vn 0.000000 0.000000 -1.000000
vn -0.000000 0.000000 -1.000000
vn -0.000000 0.000000 -1.000000
vn 0.000000 0.000000 1.000000
vn 0.000001 0.000000 1.000000
vn 0.000001 0.000000 1.000000
vn 0.000000 0.000000 1.000000
vn -0.000001 0.000000 1.000000
vn 0.000000 0.000000 1.000000
vn 0.000000 0.000000 1.000000
vn -0.000000 0.000000 1.000000
vn -0.000001 0.000000 1.000000
vn -0.000001 0.000000 1.000000
vn -0.000000 0.000000 1.000000
vn -0.000000 0.000000 1.000000
vn -0.000000 0.000000 1.000000
vn -0.000001 0.000000 1.000000
vn -0.000000 0.000000 1.000000
vn 0.000000 0.000000 1.000000
vn -0.000000 0.000000 1.000000
vn 0.000000 0.000000 1.000000
vn -0.000000 0.000000 1.000000
vn 0.000000 0.000000 1.000000
vn 0.000000 0.000000 1.000000
vn -0.000000 0.000000 1.000000
vn -0.000000 0.000000 1.000000
vn -0.000000 0.000000 1.000000
vn -0.000000 0.000000 1.000000
vn -0.000000 0.000000 1.000000
vn 0.000001 0.000000 1.000000
vn -0.000000 0.000000 1.000000
vn -0.000000 0.000000 1.000000
vn 0.000001 0.000000 1.000000
vn 0.000001 0.000000 -1.000000
vn 0.000000 0.000000 -1.000000
vn 0.000000 0.000000 -1.000000
vn 0.000000 0.000000 -1.000000
vn 0.000000 0.000000 -1.000000
vn -0.000001 0.000000 -1.000000
vn -0.000001 0.000000 -1.000000
vn 0.000000 0.000000 -1.000000
vn -0.000001 0.000000 -1.000000
vn -0.000001 0.000000 -1.000000
vn -0.000001 0.000000 -1.000000
vn -0.000001 0.000000 -1.000000
vn -0.000001 0.000000 -1.000000
vn -0.000000 0.000000 -1.000000
vn -0.000001 0.000000 -1.000000
vn -0.000000 0.000000 -1.000000
vn -0.000000 0.000000 -1.000000
vn -0.000000 0.000000 -1.000000
vn -0.000000 0.000000 -1.000000
vn -0.000000 0.000000 -1.000000
vn -0.000000 0.000000 -1.000000
vn -0.000000 0.000000 -1.000000
vn -0.000000 0.000000 -1.000000
vn -0.000000 0.000000 -1.000000
vn -0.000000 0.000000 -1.000000
vn -0.000000 0.000000 -1.000000
vn -0.000000 0.000000 -1.000000
vn 0.000001 0.000000 -1.000000
vn 0.000000 0.000000 -1.000000
vn -0.000000 0.000000 -1.000000
s off
f 41/87/1 42/88/2 10/19/3 9/18/4
f 42/88/5 43/89/6 11/20/7 10/19/8
f 43/89/9 44/90/10 12/21/11 11/20/12
f 44/90/13 45/91/14 13/22/15 12/21/16
f 45/91/17 46/92/18 14/23/19 13/22/20
f 46/92/21 47/93/22 15/24/23 14/23/24
f 47/93/25 48/94/26 16/25/27 15/24/28
f 58/35/29 8/36/30 59/67/31
f 60/76/32 58/35/33 59/67/34
f 61/132/35 60/76/36 59/67/37
f 62/133/38 61/132/39 59/67/40
f 63/134/41 62/133/42 59/67/43
f 64/135/44 63/134/45 59/67/46
f 8/36/47 64/135/48 59/67/49
f 16/136/50 65/137/51 66/138/52
f 65/137/53 67/139/54 66/138/55
f 67/139/56 68/140/57 66/138/58
f 68/140/59 69/141/60 66/138/61
f 69/141/62 70/142/63 66/138/64
f 70/142/65 71/143/66 66/138/67
f 71/143/68 16/136/69 66/138/70
f 8/16/71 1/17/72 18/38/73 17/37/74
f 40/85/75 41/86/76 9/26/77 19/39/78
f 9/26/79 16/25/80 20/40/81 19/39/82
f 16/25/83 48/94/84 49/95/85 20/40/86
f 17/37/87 18/38/88 22/42/89 21/41/90
f 39/84/91 40/85/92 19/39/93 23/43/94
f 19/39/95 20/40/96 24/44/97 23/43/98
f 20/40/99 49/95/100 50/96/101 24/44/102
f 21/41/103 22/42/104 25/45/105
f 23/43/106 24/44/107 26/46/108
f 24/44/109 50/96/110 51/97/111 26/46/112
f 26/46/113 51/97/114 52/98/115 28/48/116
f 28/48/117 52/98/118 53/99/119 30/50/120
f 54/102/121 55/103/122 36/53/123 35/54/124
f 55/103/125 56/104/126 37/56/127 36/53/128
f 56/104/129 57/105/130 38/58/131 37/56/132
f 57/105/133 39/83/134 23/60/135 38/58/136
f 53/100/137 54/101/138 35/63/139 30/64/140
f 73/144/141 72/145/142 74/146/143
f 75/147/144 73/144/145 74/146/146
f 76/148/147 75/147/148 74/146/149
f 22/149/150 76/148/151 74/146/152
f 77/150/153 22/149/154 74/146/155
f 78/151/156 77/150/157 74/146/158
f 79/152/159 78/151/160 74/146/161
f 72/145/162 79/152/163 74/146/164
f 80/153/165 81/154/166 82/155/167
f 81/154/168 83/156/169 82/155/170
f 83/156/171 84/157/172 82/155/173
f 84/157/174 23/158/175 82/155/176
f 23/158/177 85/159/178 82/155/179
f 85/159/180 86/160/181 82/155/182
f 86/160/183 87/161/184 82/155/185
f 87/161/186 80/153/187 82/155/188
f 18/38/189 40/85/190 39/84/191 22/42/192
f 1/17/193 41/86/194 40/85/195 18/38/196
f 1/9/197 2/10/198 42/88/199 41/87/200
f 2/10/201 3/11/202 43/89/203 42/88/204
f 3/11/205 4/12/206 44/90/207 43/89/208
f 4/12/209 5/13/210 45/91/211 44/90/212
f 5/13/213 6/14/214 46/92/215 45/91/216
f 6/14/217 7/15/218 47/93/219 46/92/220
f 7/15/221 8/16/222 48/94/223 47/93/224
f 49/95/225 48/94/226 8/16/227 17/37/228
f 50/96/229 49/95/230 17/37/231 21/41/232
f 51/97/233 50/96/234 21/41/235 25/45/236
f 52/98/237 51/97/238 25/45/239 27/47/240
f 53/99/241 52/98/242 27/47/243 29/49/244
f 29/61/245 31/62/246 54/101/247 53/100/248
f 31/51/249 32/52/250 55/103/251 54/102/252
f 32/52/253 33/55/254 56/104/255 55/103/256
f 33/55/257 34/57/258 57/105/259 56/104/260
f 34/57/261 22/59/262 39/83/263 57/105/264
f 2/2/265 1/1/266 8/8/267 58/106/268
f 3/3/269 2/2/270 58/106/271 60/107/272
f 4/4/273 3/3/274 60/107/275 61/108/276
f 5/5/277 4/4/278 61/108/279 62/109/280
f 6/6/281 5/5/282 62/109/283 63/110/284
f 7/7/285 6/6/286 63/110/287 64/111/288
f 8/8/289 7/7/290 64/111/291
f 9/33/292 10/32/293 65/112/294 16/34/295
f 10/32/296 11/31/297 67/113/298 65/112/299
f 11/31/300 12/30/301 68/114/302 67/113/303
f 12/30/304 13/29/305 69/115/306 68/114/307
f 13/29/308 14/28/309 70/116/310 69/115/311
f 14/28/312 15/27/313 71/117/314 70/116/315
f 15/27/316 16/34/317 71/117/318
f 32/65/319 31/66/320 72/119/321 73/118/322
f 33/68/323 32/65/324 73/118/325 75/120/326
f 34/69/327 33/68/328 75/120/329 76/121/330
f 22/70/331 34/69/332 76/121/333
f 25/71/334 22/70/335 77/122/336
f 27/72/337 25/71/338 77/122/339 78/123/340
f 29/73/341 27/72/342 78/123/343 79/124/344
f 31/66/345 29/73/346 79/124/347 72/119/348
f 35/74/349 36/75/350 81/126/351 80/125/352
f 36/75/353 37/77/354 83/127/355 81/126/356
f 37/77/357 38/78/358 84/128/359 83/127/360
f 38/78/361 23/79/362 84/128/363
f 23/79/364 26/80/365 85/129/366
f 26/80/367 28/81/368 86/130/369 85/129/370
f 28/81/371 30/82/372 87/131/373 86/130/374
f 30/82/375 35/74/376 80/125/377 87/131/378
