# This file uses centimeters as units for non-parametric coordinates.

v -0.039732 0.003709 -0.009135
v 0.015023 0.001118 0.035735
v -0.036661 0.066327 -0.009269
v 0.018094 0.063735 0.035601
v -0.015023 0.065208 -0.035735
v 0.039730 0.062618 0.009135
v -0.018096 0.002591 -0.035601
v 0.036658 0.000000 0.009269
v 0.023940 0.063314 -0.027474
v -0.020872 0.065630 0.027340
v -0.023943 0.003012 0.027474
v 0.020869 0.000697 -0.027340
v -0.067129 0.036422 -0.016172
v -0.039377 0.035198 0.048169
v 0.029099 0.031869 0.062687
v 0.067129 0.029904 0.016173
v 0.039377 0.031128 -0.048169
v -0.029104 0.034457 -0.062687
vt 0.047583 0.490070
vt 0.047583 0.490070
vt 0.047583 0.490070
vt 0.047583 0.490070
vt 0.047583 0.490070
vt 0.047583 0.490070
vt 0.047583 0.490070
vt 0.047583 0.490070
vt 0.047583 0.490070
vt 0.047583 0.490070
vt 0.047583 0.490070
vt 0.047583 0.490070
vt 0.047583 0.490070
vt 0.047583 0.490070
vt 0.047583 0.490070
vt 0.047583 0.490070
vt 0.047583 0.490070
vt 0.047583 0.490070
vt 0.047583 0.490070
vt 0.047583 0.490070
vt 0.047583 0.490070
vt 0.047583 0.490070
vt 0.047583 0.490070
vt 0.047583 0.490070
vt 0.047583 0.490070
vt 0.047583 0.490070
vt 0.047583 0.490070
vn -0.134978 0.614232 0.777496
vn -0.134978 0.614232 0.777496
vn -0.134978 0.614232 0.777496
vn -0.134978 0.614232 0.777496
vn 0.049007 0.998796 -0.002125
vn 0.049007 0.998796 -0.002125
vn 0.049007 0.998796 -0.002125
vn 0.049007 0.998796 -0.002125
vn 0.759591 0.568027 -0.316809
vn 0.759590 0.568027 -0.316809
vn 0.759591 0.568027 -0.316809
vn 0.759590 0.568027 -0.316809
vn -0.049005 -0.998796 0.002130
vn -0.049005 -0.998796 0.002130
vn -0.049005 -0.998796 0.002130
vn -0.049005 -0.998796 0.002130
vn 0.619060 0.621695 0.479855
vn 0.619059 0.621695 0.479855
vn 0.619060 0.621695 0.479855
vn 0.619059 0.621695 0.479855
vn -0.555334 0.677266 -0.482613
vn -0.555334 0.677266 -0.482613
vn -0.555334 0.677266 -0.482613
vn -0.555334 0.677266 -0.482613
vn 0.049003 0.998796 -0.002138
vn 0.049003 0.998796 -0.002138
vn 0.049003 0.998796 -0.002138
vn 0.049003 0.998796 -0.002138
vn -0.700308 0.640951 0.314247
vn -0.700308 0.640951 0.314247
vn -0.700308 0.640951 0.314247
vn -0.700308 0.640951 0.314247
vn -0.049005 -0.998796 0.002131
vn -0.049005 -0.998796 0.002131
vn -0.049005 -0.998796 0.002131
vn -0.049005 -0.998796 0.002131
vn 0.194295 0.594755 -0.780075
vn 0.194295 0.594755 -0.780075
vn 0.194295 0.594755 -0.780075
vn 0.194295 0.594755 -0.780075
vn -0.759611 -0.567995 0.316818
vn -0.759611 -0.567995 0.316818
vn -0.759611 -0.567995 0.316818
vn -0.759611 -0.567995 0.316818
vn -0.194296 -0.594764 0.780068
vn -0.194296 -0.594764 0.780068
vn -0.194296 -0.594764 0.780067
vn -0.194296 -0.594764 0.780067
vn 0.555333 -0.677256 0.482628
vn 0.555333 -0.677256 0.482628
vn 0.555333 -0.677256 0.482628
vn 0.555333 -0.677256 0.482628
vn 0.700279 -0.640990 -0.314230
vn 0.700279 -0.640990 -0.314230
vn 0.700279 -0.640990 -0.314230
vn 0.700279 -0.640990 -0.314230
vn 0.134975 -0.614231 -0.777497
vn 0.134975 -0.614231 -0.777497
vn 0.134975 -0.614231 -0.777497
vn 0.134975 -0.614231 -0.777497
vn -0.619082 -0.621691 -0.479831
vn -0.619082 -0.621691 -0.479831
vn -0.619082 -0.621691 -0.479831
vn -0.619082 -0.621691 -0.479831
s off
f 10/16/1 14/21/2 15/22/3 4/4/4
f 9/15/5 10/16/6 4/4/7 6/6/8
f 16/23/9 17/25/10 9/15/11 6/6/12
f 11/18/13 12/19/14 8/8/15 2/10/16
f 15/22/17 16/24/18 6/12/19 4/4/20
f 18/26/21 13/20/22 3/3/23 5/14/24
f 3/3/25 10/16/26 9/15/27 5/5/28
f 13/20/29 14/21/30 10/16/31 3/3/32
f 7/7/33 12/19/34 11/18/35 1/9/36
f 5/5/37 9/15/38 17/25/39 18/27/40
f 1/1/41 11/17/42 14/21/43 13/20/44
f 15/22/45 14/21/46 11/17/47 2/2/48
f 2/2/49 8/11/50 16/24/51 15/22/52
f 12/19/53 17/25/54 16/23/55 8/8/56
f 18/27/57 17/25/58 12/19/59 7/7/60
f 7/13/61 1/1/62 13/20/63 18/26/64
