# This file uses centimeters as units for non-parametric coordinates.

v 0.018812 0.000000 -0.018812
v -0.000000 0.000000 -0.026604
v -0.018812 0.000000 -0.018812
v -0.026604 0.000000 -0.000000
v -0.018812 0.000000 0.018812
v -0.000000 0.000000 0.026604
v 0.018812 0.000000 0.018812
v 0.026604 0.000000 -0.000000
v 0.034760 0.012116 -0.034760
v -0.000000 0.012116 -0.049156
v -0.034760 0.012116 -0.034760
v -0.049156 0.012116 -0.000000
v -0.034760 0.012116 0.034760
v -0.000000 0.012116 0.049158
v 0.034760 0.012116 0.034760
v 0.049158 0.012116 -0.000000
v 0.045415 0.034671 -0.045416
v -0.000000 0.034671 -0.064228
v -0.045415 0.034671 -0.045416
v -0.064226 0.034671 -0.000000
v -0.045415 0.034671 0.045416
v -0.000000 0.034671 0.064228
v 0.045415 0.034671 0.045415
v 0.064226 0.034671 -0.000000
v 0.049158 0.061274 -0.049156
v -0.000000 0.061274 -0.069519
v -0.049156 0.061274 -0.049156
v -0.069519 0.061274 -0.000000
v -0.049156 0.061274 0.049158
v -0.000000 0.061274 0.069519
v 0.049158 0.061274 0.049158
v 0.069519 0.061274 -0.000000
v 0.045415 0.087877 -0.045416
v -0.000000 0.087877 -0.064228
v -0.045415 0.087877 -0.045416
v -0.064226 0.087877 -0.000000
v -0.045415 0.087877 0.045416
v -0.000000 0.087877 0.064228
v 0.045415 0.087877 0.045415
v 0.064226 0.087877 -0.000000
v 0.032077 0.110432 -0.032077
v -0.000000 0.110432 -0.045364
v -0.032077 0.110432 -0.032077
v -0.045364 0.110432 -0.000000
v -0.032077 0.110432 0.032077
v -0.000000 0.110432 0.045364
v 0.032077 0.110432 0.032077
v 0.045364 0.110432 -0.000000
v 0.017022 0.119820 -0.016948
v 0.000075 0.119820 -0.023968
v -0.016873 0.119820 -0.016948
v -0.023893 0.119820 -0.000000
v -0.016873 0.119820 0.016948
v 0.000075 0.119820 0.023968
v 0.017022 0.119820 0.016948
v 0.024042 0.119820 -0.000000
v -0.000000 0.000000 -0.000000
v 0.019331 0.147156 -0.019256
v 0.000075 0.147156 -0.027232
v -0.019182 0.147156 -0.019256
v -0.027158 0.147156 -0.000000
v -0.019182 0.147156 0.019256
v 0.000075 0.147156 0.027232
v 0.019331 0.147156 0.019256
v 0.027307 0.147156 -0.000000
v 0.008681 0.147156 -0.008607
v -0.008532 0.147156 -0.008607
v -0.008532 0.147156 0.008606
v 0.008681 0.147156 0.008606
v 0.005729 0.160851 -0.006855
v -0.006393 0.160851 -0.010752
v -0.010290 0.160851 0.001370
v 0.001832 0.160851 0.005267
v 0.017488 0.178982 -0.008355
v 0.010286 0.180229 -0.017001
v 0.001792 0.181694 -0.009670
v 0.008993 0.180450 -0.001024
v 0.025397 0.195045 0.004774
v 0.025203 0.196060 -0.004375
v 0.016085 0.197250 -0.004021
v 0.016280 0.196243 0.005128
v 0.018195 0.207817 0.011595
v 0.019560 0.210068 0.004701
v 0.012550 0.208618 0.002741
v 0.011184 0.206367 0.009635
vt 0.471173 0.177159
vt 0.471173 0.177159
vt 0.471173 0.177159
vt 0.471173 0.177159
vt 0.471173 0.177159
vt 0.471173 0.177159
vt 0.471173 0.177159
vt 0.471173 0.177159
vt 0.471173 0.177159
vt 0.471173 0.177159
vt 0.471173 0.177159
vt 0.471173 0.177159
vt 0.471173 0.177159
vt 0.471173 0.177159
vt 0.471173 0.177159
vt 0.471173 0.177159
vt 0.471173 0.177159
vt 0.471173 0.177159
vt 0.471173 0.177159
vt 0.471173 0.177159
vt 0.471173 0.177159
vt 0.471173 0.177159
vt 0.471173 0.177159
vt 0.471173 0.177159
vt 0.471173 0.177159
vt 0.471173 0.177159
vt 0.471173 0.177159
vt 0.471173 0.177159
vt 0.471173 0.177159
vt 0.471173 0.177159
vt 0.471173 0.177159
vt 0.471173 0.177159
vt 0.471173 0.177159
vt 0.471173 0.177159
vt 0.471173 0.177159
vt 0.471173 0.177159
vt 0.471173 0.177159
vt 0.471173 0.177159
vt 0.471173 0.177159
vt 0.471173 0.177159
vt 0.471173 0.177159
vt 0.471173 0.177159
vt 0.471173 0.177159
vt 0.471173 0.177159
vt 0.471173 0.177159
vt 0.471173 0.177159
vt 0.471173 0.177159
vt 0.471173 0.177159
vt 0.471173 0.177159
vt 0.471173 0.177159
vt 0.471173 0.177159
vt 0.471173 0.177159
vt 0.471173 0.177159
vt 0.471173 0.177159
vt 0.471173 0.177159
vt 0.471173 0.177159
vt 0.471173 0.177159
vt 0.471173 0.177159
vt 0.471173 0.177159
vt 0.471173 0.177159
vt 0.471173 0.177159
vt 0.471173 0.177159
vt 0.471173 0.177159
vt 0.471173 0.177159
vt 0.471173 0.177159
vt 0.471173 0.177159
vt 0.471173 0.177159
vt 0.471173 0.177159
vt 0.471173 0.177159
vt 0.471173 0.177159
vt 0.471173 0.177159
vt 0.471173 0.177159
vt 0.471173 0.177159
vt 0.471173 0.177159
vt 0.471173 0.177159
vt 0.471173 0.177159
vt 0.471173 0.177159
vt 0.471173 0.177159
vt 0.471173 0.177159
vt 0.471173 0.177159
vt 0.471173 0.177159
vt 0.471173 0.177159
vt 0.471173 0.177159
vt 0.471173 0.177159
vt 0.471173 0.177159
vt 0.340746 0.212478
vt 0.340746 0.212478
vt 0.340746 0.212478
vt 0.340746 0.212478
vt 0.340746 0.212474
vt 0.340746 0.212474
vt 0.340746 0.212474
vt 0.340746 0.212474
vt 0.340746 0.212474
vt 0.340746 0.212474
vt 0.340746 0.212474
vt 0.340746 0.212474
vt 0.340746 0.212478
vt 0.340746 0.212478
vt 0.340746 0.212478
vt 0.340746 0.212478
vt 0.340746 0.212478
vt 0.340746 0.212478
vt 0.340746 0.212478
vt 0.340746 0.212478
vn 0.192362 -0.864466 -0.464431
vn 0.192362 -0.864466 -0.464431
vn 0.192362 -0.864466 -0.464431
vn 0.192362 -0.864466 -0.464431
vn -0.192363 -0.864466 -0.464430
vn -0.192363 -0.864466 -0.464431
vn -0.192363 -0.864466 -0.464430
vn -0.192363 -0.864466 -0.464430
vn -0.464430 -0.864466 -0.192363
vn -0.464431 -0.864466 -0.192363
vn -0.464431 -0.864466 -0.192363
vn -0.464430 -0.864466 -0.192363
vn -0.464431 -0.864466 0.192362
vn -0.464431 -0.864466 0.192362
vn -0.464431 -0.864466 0.192362
vn -0.464431 -0.864466 0.192362
vn -0.192371 -0.864475 0.464410
vn -0.192371 -0.864475 0.464410
vn -0.192371 -0.864475 0.464410
vn -0.192371 -0.864475 0.464410
vn 0.192370 -0.864475 0.464410
vn 0.192370 -0.864475 0.464410
vn 0.192370 -0.864475 0.464410
vn 0.192370 -0.864475 0.464410
vn 0.464410 -0.864475 0.192370
vn 0.464410 -0.864475 0.192370
vn 0.464410 -0.864475 0.192370
vn 0.464410 -0.864475 0.192370
vn 0.464410 -0.864475 -0.192371
vn 0.464410 -0.864475 -0.192371
vn 0.464410 -0.864475 -0.192371
vn 0.464410 -0.864475 -0.192371
vn 0.325627 -0.525303 -0.786145
vn 0.325627 -0.525303 -0.786145
vn 0.325627 -0.525303 -0.786145
vn 0.325627 -0.525303 -0.786145
vn -0.325627 -0.525303 -0.786145
vn -0.325627 -0.525303 -0.786145
vn -0.325627 -0.525303 -0.786145
vn -0.325627 -0.525303 -0.786145
vn -0.786167 -0.525272 -0.325623
vn -0.786167 -0.525272 -0.325623
vn -0.786167 -0.525272 -0.325623
vn -0.786167 -0.525272 -0.325623
vn -0.786167 -0.525272 0.325623
vn -0.786167 -0.525272 0.325623
vn -0.786167 -0.525272 0.325623
vn -0.786167 -0.525272 0.325623
vn -0.325649 -0.525279 0.786152
vn -0.325649 -0.525279 0.786152
vn -0.325649 -0.525279 0.786152
vn -0.325649 -0.525279 0.786152
vn 0.325659 -0.525267 0.786156
vn 0.325659 -0.525267 0.786155
vn 0.325659 -0.525267 0.786156
vn 0.325659 -0.525267 0.786156
vn 0.786176 -0.525243 0.325649
vn 0.786176 -0.525243 0.325649
vn 0.786176 -0.525243 0.325649
vn 0.786176 -0.525243 0.325649
vn 0.786174 -0.525248 -0.325645
vn 0.786174 -0.525248 -0.325645
vn 0.786174 -0.525248 -0.325645
vn 0.786174 -0.525248 -0.325645
vn 0.376395 -0.180720 -0.908662
vn 0.376395 -0.180720 -0.908662
vn 0.376395 -0.180720 -0.908662
vn 0.376395 -0.180720 -0.908662
vn -0.376403 -0.180707 -0.908661
vn -0.376403 -0.180707 -0.908661
vn -0.376403 -0.180707 -0.908661
vn -0.376403 -0.180707 -0.908661
vn -0.908659 -0.180748 -0.376389
vn -0.908659 -0.180748 -0.376389
vn -0.908659 -0.180748 -0.376389
vn -0.908659 -0.180748 -0.376389
vn -0.908660 -0.180761 0.376382
vn -0.908660 -0.180761 0.376382
vn -0.908660 -0.180761 0.376382
vn -0.908660 -0.180761 0.376382
vn -0.376385 -0.180739 0.908663
vn -0.376385 -0.180739 0.908663
vn -0.376385 -0.180739 0.908663
vn -0.376385 -0.180739 0.908663
vn 0.376384 -0.180767 0.908657
vn 0.376384 -0.180767 0.908657
vn 0.376384 -0.180767 0.908657
vn 0.376384 -0.180767 0.908657
vn 0.908658 -0.180799 0.376366
vn 0.908658 -0.180799 0.376366
vn 0.908658 -0.180799 0.376367
vn 0.908658 -0.180799 0.376366
vn 0.908660 -0.180779 -0.376371
vn 0.908660 -0.180779 -0.376371
vn 0.908660 -0.180779 -0.376371
vn 0.908660 -0.180779 -0.376371
vn 0.376396 0.180714 -0.908663
vn 0.376396 0.180714 -0.908663
vn 0.376396 0.180714 -0.908663
vn 0.376396 0.180714 -0.908663
vn -0.376404 0.180701 -0.908663
vn -0.376403 0.180701 -0.908662
vn -0.376404 0.180701 -0.908662
vn -0.376403 0.180701 -0.908662
vn -0.908660 0.180742 -0.376390
vn -0.908660 0.180742 -0.376390
vn -0.908660 0.180742 -0.376390
vn -0.908660 0.180742 -0.376390
vn -0.908661 0.180755 0.376382
vn -0.908661 0.180755 0.376382
vn -0.908661 0.180755 0.376382
vn -0.908661 0.180755 0.376382
vn -0.376386 0.180732 0.908664
vn -0.376386 0.180732 0.908664
vn -0.376386 0.180732 0.908664
vn -0.376386 0.180732 0.908664
vn 0.376385 0.180761 0.908658
vn 0.376385 0.180761 0.908658
vn 0.376385 0.180761 0.908658
vn 0.376385 0.180761 0.908658
vn 0.908659 0.180793 0.376367
vn 0.908659 0.180793 0.376367
vn 0.908659 0.180793 0.376367
vn 0.908659 0.180793 0.376367
vn 0.908661 0.180773 -0.376372
vn 0.908661 0.180773 -0.376372
vn 0.908661 0.180773 -0.376372
vn 0.908661 0.180773 -0.376372
vn 0.302828 0.611435 -0.731055
vn 0.302828 0.611435 -0.731055
vn 0.302828 0.611435 -0.731055
vn 0.302828 0.611436 -0.731055
vn -0.302828 0.611436 -0.731055
vn -0.302828 0.611436 -0.731055
vn -0.302828 0.611436 -0.731055
vn -0.302828 0.611436 -0.731055
vn -0.731078 0.611411 -0.302825
vn -0.731078 0.611411 -0.302825
vn -0.731078 0.611410 -0.302825
vn -0.731078 0.611411 -0.302825
vn -0.731078 0.611411 0.302824
vn -0.731078 0.611411 0.302824
vn -0.731078 0.611411 0.302824
vn -0.731078 0.611411 0.302824
vn -0.302828 0.611435 0.731055
vn -0.302828 0.611435 0.731055
vn -0.302828 0.611435 0.731055
vn -0.302828 0.611435 0.731055
vn 0.302838 0.611426 0.731059
vn 0.302838 0.611426 0.731059
vn 0.302838 0.611426 0.731059
vn 0.302838 0.611426 0.731059
vn 0.731079 0.611406 0.302829
vn 0.731079 0.611406 0.302829
vn 0.731079 0.611406 0.302829
vn 0.731079 0.611406 0.302829
vn 0.731078 0.611410 -0.302824
vn 0.731078 0.611410 -0.302825
vn 0.731078 0.611410 -0.302825
vn 0.731078 0.611410 -0.302824
vn 0.164370 0.903066 -0.396806
vn 0.164370 0.903066 -0.396806
vn 0.164370 0.903066 -0.396806
vn 0.164370 0.903066 -0.396806
vn -0.163983 0.903545 -0.395874
vn -0.163983 0.903545 -0.395874
vn -0.163983 0.903545 -0.395874
vn -0.163983 0.903545 -0.395874
vn -0.395218 0.903881 -0.163712
vn -0.395218 0.903881 -0.163712
vn -0.395218 0.903881 -0.163712
vn -0.395218 0.903881 -0.163712
vn -0.395218 0.903881 0.163712
vn -0.395218 0.903881 0.163712
vn -0.395218 0.903881 0.163712
vn -0.395218 0.903881 0.163712
vn -0.163983 0.903545 0.395874
vn -0.163983 0.903545 0.395874
vn -0.163983 0.903545 0.395874
vn -0.163983 0.903545 0.395874
vn 0.164370 0.903066 0.396805
vn 0.164370 0.903066 0.396806
vn 0.164370 0.903066 0.396806
vn 0.164370 0.903066 0.396805
vn 0.397466 0.902725 0.164643
vn 0.397466 0.902725 0.164643
vn 0.397466 0.902725 0.164643
vn 0.397466 0.902725 0.164643
vn 0.397466 0.902725 -0.164643
vn 0.397466 0.902725 -0.164643
vn 0.397466 0.902725 -0.164643
vn 0.397466 0.902725 -0.164643
vn 0.000000 -1.000000 0.000000
vn 0.000000 -1.000000 0.000000
vn 0.000000 -1.000000 0.000000
vn 0.000000 -1.000000 0.000000
vn 0.000000 -1.000000 0.000000
vn 0.000000 -1.000000 0.000000
vn 0.000000 -1.000000 0.000000
vn 0.000000 -1.000000 0.000000
vn 0.000000 -1.000000 0.000000
vn 0.000000 -1.000000 0.000000
vn 0.000000 -1.000000 0.000000
vn 0.000000 -1.000000 0.000000
vn 0.000000 -1.000000 0.000000
vn 0.000000 -1.000000 0.000000
vn 0.000000 -1.000000 0.000000
vn 0.000000 -1.000000 0.000000
vn 0.000000 -1.000000 0.000000
vn 0.000000 -1.000000 0.000000
vn 0.000000 -1.000000 0.000000
vn 0.000000 -1.000000 0.000000
vn 0.000000 -1.000000 0.000000
vn 0.000000 -1.000000 0.000000
vn 0.000000 -1.000000 0.000000
vn 0.000000 -1.000000 0.000000
vn -0.263018 0.931312 0.251950
vn -0.263018 0.931312 0.251950
vn -0.263018 0.931312 0.251950
vn -0.263018 0.931312 0.251950
vn 0.380376 -0.109664 -0.918307
vn 0.380376 -0.109664 -0.918307
vn 0.380376 -0.109664 -0.918307
vn 0.380376 -0.109664 -0.918307
vn -0.380371 -0.109664 -0.918309
vn -0.380371 -0.109664 -0.918309
vn -0.380371 -0.109664 -0.918309
vn -0.380371 -0.109664 -0.918309
vn -0.918308 -0.109664 -0.380374
vn -0.918308 -0.109664 -0.380374
vn -0.918308 -0.109664 -0.380374
vn -0.918308 -0.109664 -0.380374
vn -0.918308 -0.109664 0.380374
vn -0.918308 -0.109664 0.380374
vn -0.918308 -0.109664 0.380374
vn -0.918308 -0.109664 0.380374
vn -0.380371 -0.109664 0.918309
vn -0.380371 -0.109664 0.918309
vn -0.380371 -0.109664 0.918309
vn -0.380371 -0.109664 0.918309
vn 0.380376 -0.109664 0.918307
vn 0.380376 -0.109664 0.918307
vn 0.380376 -0.109664 0.918307
vn 0.380376 -0.109664 0.918307
vn 0.918308 -0.109664 0.380374
vn 0.918308 -0.109664 0.380374
vn 0.918308 -0.109664 0.380374
vn 0.918308 -0.109664 0.380374
vn 0.918308 -0.109664 -0.380374
vn 0.918308 -0.109664 -0.380374
vn 0.918308 -0.109664 -0.380374
vn 0.918308 -0.109664 -0.380374
vn 0.000000 1.000000 -0.000001
vn 0.000000 1.000000 -0.000001
vn 0.000000 1.000000 -0.000001
vn 0.000000 1.000000 0.000000
vn 0.000000 1.000000 0.000000
vn 0.000000 1.000000 0.000000
vn 0.000000 1.000000 0.000000
vn 0.000000 1.000000 -0.000001
vn 0.000000 1.000000 -0.000001
vn 0.000000 1.000000 -0.000001
vn 0.000000 1.000000 0.000000
vn 0.000000 1.000000 0.000000
vn 0.000000 1.000000 0.000000
vn 0.000000 1.000000 0.000000
vn 0.000000 1.000000 -0.000001
vn 0.000000 1.000000 -0.000001
vn 0.000000 1.000000 -0.000001
vn 0.000000 1.000000 0.000000
vn 0.000000 1.000000 0.000000
vn 0.000000 1.000000 0.000000
vn 0.000000 1.000000 0.000000
vn 0.000000 1.000000 0.000001
vn 0.000000 1.000000 0.000001
vn 0.000000 1.000000 0.000001
vn 0.000000 1.000000 -0.000001
vn 0.000000 1.000000 -0.000001
vn 0.000000 1.000000 -0.000001
vn 0.000000 1.000000 -0.000001
vn 0.131672 -0.010325 -0.991239
vn 0.131672 -0.010325 -0.991240
vn 0.131672 -0.010325 -0.991239
vn 0.131672 -0.010325 -0.991240
vn -0.990806 -0.031332 -0.131614
vn -0.990806 -0.031332 -0.131614
vn -0.990806 -0.031332 -0.131614
vn -0.990806 -0.031332 -0.131614
vn -0.124624 0.323071 0.938133
vn -0.124624 0.323071 0.938133
vn -0.124624 0.323071 0.938133
vn -0.124624 0.323071 0.938133
vn 0.931992 0.340680 0.123805
vn 0.931992 0.340680 0.123805
vn 0.931992 0.340680 0.123805
vn 0.931992 0.340680 0.123805
vn 0.450375 -0.494955 -0.743090
vn 0.450375 -0.494955 -0.743090
vn 0.450375 -0.494955 -0.743090
vn 0.450375 -0.494955 -0.743090
vn -0.783146 0.334733 -0.524057
vn -0.783146 0.334733 -0.524057
vn -0.783146 0.334733 -0.524057
vn -0.783146 0.334733 -0.524057
vn -0.440342 0.522431 0.730182
vn -0.440342 0.522431 0.730182
vn -0.440342 0.522430 0.730182
vn -0.440342 0.522431 0.730182
vn 0.797018 -0.290311 0.529606
vn 0.797018 -0.290311 0.529606
vn 0.797018 -0.290311 0.529606
vn 0.797018 -0.290311 0.529606
vn 0.867139 -0.298892 -0.398414
vn 0.867139 -0.298892 -0.398414
vn 0.867139 -0.298892 -0.398414
vn 0.867139 -0.298892 -0.398414
vn -0.225057 0.638142 -0.736291
vn -0.225057 0.638142 -0.736291
vn -0.225057 0.638142 -0.736291
vn -0.225057 0.638142 -0.736291
vn -0.819770 0.416222 0.393366
vn -0.819770 0.416222 0.393366
vn -0.819770 0.416222 0.393366
vn -0.819770 0.416222 0.393366
vn 0.248115 -0.585463 0.771798
vn 0.248115 -0.585463 0.771798
vn 0.248115 -0.585463 0.771798
vn 0.248115 -0.585463 0.771798
vn 0.922641 0.359172 0.140461
vn 0.922641 0.359172 0.140461
vn 0.922641 0.359172 0.140461
vn 0.922641 0.359172 0.140461
vn 0.074222 0.547217 -0.833693
vn 0.074222 0.547217 -0.833693
vn 0.074222 0.547217 -0.833693
vn 0.074222 0.547217 -0.833693
vn -0.941840 -0.309242 -0.131554
vn -0.941840 -0.309242 -0.131554
vn -0.941840 -0.309242 -0.131554
vn -0.941840 -0.309242 -0.131554
vn -0.079789 -0.476166 0.875728
vn -0.079789 -0.476166 0.875728
vn -0.079789 -0.476166 0.875728
vn -0.079789 -0.476166 0.875728
s off
f 1/1/1 2/2/2 10/11/3 9/10/4
f 2/2/5 3/3/6 11/12/7 10/11/8
f 3/3/9 4/4/10 12/13/11 11/12/12
f 4/4/13 5/5/14 13/14/15 12/13/16
f 5/5/17 6/6/18 14/15/19 13/14/20
f 6/6/21 7/7/22 15/16/23 14/15/24
f 7/7/25 8/8/26 16/17/27 15/16/28
f 8/8/29 1/9/30 9/18/31 16/17/32
f 9/10/33 10/11/34 18/20/35 17/19/36
f 10/11/37 11/12/38 19/21/39 18/20/40
f 11/12/41 12/13/42 20/22/43 19/21/44
f 12/13/45 13/14/46 21/23/47 20/22/48
f 13/14/49 14/15/50 22/24/51 21/23/52
f 14/15/53 15/16/54 23/25/55 22/24/56
f 15/16/57 16/17/58 24/26/59 23/25/60
f 16/17/61 9/18/62 17/27/63 24/26/64
f 17/19/65 18/20/66 26/29/67 25/28/68
f 18/20/69 19/21/70 27/30/71 26/29/72
f 19/21/73 20/22/74 28/31/75 27/30/76
f 20/22/77 21/23/78 29/32/79 28/31/80
f 21/23/81 22/24/82 30/33/83 29/32/84
f 22/24/85 23/25/86 31/34/87 30/33/88
f 23/25/89 24/26/90 32/35/91 31/34/92
f 24/26/93 17/27/94 25/36/95 32/35/96
f 25/28/97 26/29/98 34/38/99 33/37/100
f 26/29/101 27/30/102 35/39/103 34/38/104
f 27/30/105 28/31/106 36/40/107 35/39/108
f 28/31/109 29/32/110 37/41/111 36/40/112
f 29/32/113 30/33/114 38/42/115 37/41/116
f 30/33/117 31/34/118 39/43/119 38/42/120
f 31/34/121 32/35/122 40/44/123 39/43/124
f 32/35/125 25/36/126 33/45/127 40/44/128
f 33/37/129 34/38/130 42/47/131 41/46/132
f 34/38/133 35/39/134 43/48/135 42/47/136
f 35/39/137 36/40/138 44/49/139 43/48/140
f 36/40/141 37/41/142 45/50/143 44/49/144
f 37/41/145 38/42/146 46/51/147 45/50/148
f 38/42/149 39/43/150 47/52/151 46/51/152
f 39/43/153 40/44/154 48/53/155 47/52/156
f 40/44/157 33/45/158 41/54/159 48/53/160
f 41/46/161 42/47/162 50/56/163 49/55/164
f 42/47/165 43/48/166 51/57/167 50/56/168
f 43/48/169 44/49/170 52/58/171 51/57/172
f 44/49/173 45/50/174 53/59/175 52/58/176
f 45/50/177 46/51/178 54/60/179 53/59/180
f 46/51/181 47/52/182 55/61/183 54/60/184
f 47/52/185 48/53/186 56/62/187 55/61/188
f 48/53/189 41/54/190 49/63/191 56/62/192
f 2/2/193 1/1/194 57/64/195
f 3/3/196 2/2/197 57/65/198
f 4/4/199 3/3/200 57/66/201
f 5/5/202 4/4/203 57/67/204
f 6/6/205 5/5/206 57/68/207
f 7/7/208 6/6/209 57/69/210
f 8/8/211 7/7/212 57/70/213
f 1/9/214 8/8/215 57/71/216
f 82/86/217 83/87/218 84/88/219 85/89/220
f 49/55/221 50/56/222 59/73/223 58/72/224
f 50/56/225 51/57/226 60/74/227 59/73/228
f 51/57/229 52/58/230 61/75/231 60/74/232
f 52/58/233 53/59/234 62/76/235 61/75/236
f 53/59/237 54/60/238 63/77/239 62/76/240
f 54/60/241 55/61/242 64/78/243 63/77/244
f 55/61/245 56/62/246 65/79/247 64/78/248
f 56/62/249 49/63/250 58/80/251 65/79/252
f 58/72/253 59/73/254 66/81/255
f 59/73/256 60/74/257 67/82/258 66/81/259
f 60/74/260 61/75/261 67/82/262
f 61/75/263 62/76/264 68/83/265 67/82/266
f 62/76/267 63/77/268 68/83/269
f 63/77/270 64/78/271 69/84/272 68/83/273
f 64/78/274 65/79/275 69/84/276
f 65/79/277 58/80/278 66/85/279 69/84/280
f 66/90/281 67/91/282 71/92/283 70/93/284
f 67/91/285 68/94/286 72/95/287 71/92/288
f 68/94/289 69/96/290 73/97/291 72/95/292
f 69/96/293 66/90/294 70/93/295 73/97/296
f 70/93/297 71/92/298 75/98/299 74/99/300
f 71/92/301 72/95/302 76/100/303 75/98/304
f 72/95/305 73/97/306 77/101/307 76/100/308
f 73/97/309 70/93/310 74/99/311 77/101/312
f 74/99/313 75/98/314 79/102/315 78/103/316
f 75/98/317 76/100/318 80/104/319 79/102/320
f 76/100/321 77/101/322 81/105/323 80/104/324
f 77/101/325 74/99/326 78/103/327 81/105/328
f 78/103/329 79/102/330 83/87/331 82/86/332
f 79/102/333 80/104/334 84/88/335 83/87/336
f 80/104/337 81/105/338 85/89/339 84/88/340
f 81/105/341 78/103/342 82/86/343 85/89/344
