# This file uses centimeters as units for non-parametric coordinates.

v 0.000000 0.000000 0.200504
v 0.583309 0.000000 0.200504
v 0.000000 1.119579 0.200504
v 0.583309 1.119579 0.200504
v 0.000000 1.119579 0.000000
v 0.583309 1.119579 0.000000
v 0.000000 0.000000 0.000000
v 0.583309 0.000000 0.000000
v 0.074676 0.114920 0.200504
v 0.508633 0.114920 0.200504
v 0.508633 1.004658 0.200504
v 0.074676 1.004658 0.200504
v 0.074676 0.132804 0.148340
v 0.508633 0.132804 0.148340
v 0.508633 1.004658 0.148340
v 0.074676 1.004658 0.148340
v 0.074676 0.803530 0.148340
v 0.508633 0.803530 0.148340
v 0.074676 0.420258 0.148340
v 0.508633 0.420258 0.148340
v 0.074676 0.228622 0.148340
v 0.508633 0.228622 0.148340
v 0.074676 0.611894 0.148340
v 0.508633 0.611894 0.148340
v 0.074676 0.899349 0.148340
v 0.508633 0.899349 0.148340
v 0.074676 0.707712 0.148340
v 0.508633 0.707712 0.148340
v 0.074676 0.516076 0.148340
v 0.508633 0.516076 0.148340
v 0.074676 0.324440 0.148340
v 0.508633 0.324440 0.148340
v 0.074676 0.887417 0.192291
v 0.508633 0.887417 0.192291
v 0.074676 0.695781 0.192291
v 0.508633 0.695781 0.192291
v 0.074676 0.504144 0.192291
v 0.508633 0.504144 0.192291
v 0.074676 0.312508 0.192291
v 0.508633 0.312508 0.192291
v 0.508633 0.983235 0.192291
v 0.074676 0.983235 0.192291
v 0.074676 0.791598 0.192291
v 0.508633 0.791598 0.192291
v 0.074676 0.408327 0.192291
v 0.508633 0.408327 0.192291
v 0.074676 0.216691 0.192291
v 0.508633 0.216691 0.192291
v 0.074676 0.599963 0.192291
v 0.508633 0.599963 0.192291
v 0.291654 1.119579 0.000000
v 0.291654 1.119579 0.200504
v 0.294264 1.002402 0.200504
v 0.293096 1.003412 0.148340
v 0.299054 0.976837 0.192291
v 0.313117 0.880790 0.151291
v 0.319143 0.863648 0.199258
v 0.299348 0.796878 0.161324
v 0.299054 0.785200 0.208909
v 0.283683 0.703213 0.153058
v 0.283368 0.691103 0.196831
v 0.262045 0.595180 0.153916
v 0.268536 0.586913 0.205558
v 0.289488 0.508921 0.186565
v 0.301476 0.496554 0.242201
v 0.326847 0.404156 0.157503
v 0.336728 0.387704 0.198047
v 0.291222 0.313375 0.155218
v 0.290621 0.301615 0.199232
v 0.250471 0.211915 0.170048
v 0.259499 0.203646 0.209241
v 0.280568 0.128307 0.154184
v 0.289473 0.114035 0.201654
v 0.291654 0.000000 0.200504
v 0.291654 0.000000 0.000000
vt 0.331141 0.134986
vt 0.331141 0.134986
vt 0.331141 0.134986
vt 0.331141 0.134986
vt 0.331141 0.134986
vt 0.331141 0.134986
vt 0.331141 0.134986
vt 0.331141 0.134986
vt 0.331141 0.134986
vt 0.331141 0.134986
vt 0.331141 0.134986
vt 0.331141 0.134986
vt 0.331141 0.134986
vt 0.331141 0.134986
vt 0.331141 0.134986
vt 0.331141 0.134986
vt 0.306951 0.109401
vt 0.331141 0.134986
vt 0.362768 0.185272
vt 0.331141 0.134986
vt 0.306951 0.109401
vt 0.331141 0.134986
vt 0.331141 0.134986
vt 0.306951 0.109401
vt 0.331141 0.134986
vt 0.306951 0.109401
vt 0.331141 0.134986
vt 0.306951 0.109401
vt 0.331141 0.134986
vt 0.306951 0.109401
vt 0.331141 0.134986
vt 0.331141 0.134986
vt 0.331141 0.134986
vt 0.331141 0.134986
vt 0.331141 0.134986
vt 0.331141 0.134986
vt 0.331141 0.134986
vt 0.331141 0.134986
vt 0.306951 0.109401
vt 0.362768 0.185272
vt 0.306951 0.109401
vt 0.362768 0.185272
vt 0.306951 0.109401
vt 0.362768 0.185272
vt 0.306951 0.109401
vt 0.362768 0.185272
vt 0.306951 0.109401
vt 0.306951 0.109401
vt 0.362768 0.185272
vt 0.306951 0.109401
vt 0.306951 0.109401
vt 0.362768 0.185272
vt 0.306951 0.109401
vt 0.362768 0.185272
vt 0.306951 0.109401
vt 0.362768 0.185272
vt 0.306951 0.109401
vt 0.362768 0.185272
vt 0.362768 0.185272
vt 0.362768 0.185272
vt 0.306951 0.109401
vt 0.306951 0.109401
vt 0.331141 0.134986
vt 0.362768 0.185272
vt 0.306951 0.109401
vt 0.362768 0.185272
vt 0.362768 0.185272
vt 0.306951 0.109401
vt 0.362768 0.185272
vt 0.362768 0.185272
vt 0.306951 0.109401
vt 0.306951 0.109401
vt 0.331141 0.134986
vt 0.362768 0.185272
vt 0.306951 0.109401
vt 0.362768 0.185272
vt 0.306951 0.109401
vt 0.331141 0.134986
vt 0.362768 0.185272
vt 0.362768 0.185272
vt 0.306951 0.109401
vt 0.306951 0.109401
vt 0.331141 0.134986
vt 0.362768 0.185272
vt 0.306951 0.109401
vt 0.362768 0.185272
vt 0.362768 0.185272
vt 0.306951 0.109401
vt 0.362768 0.185272
vt 0.362768 0.185272
vt 0.306951 0.109401
vt 0.306951 0.109401
vt 0.331141 0.134986
vt 0.362768 0.185272
vt 0.306951 0.109401
vt 0.362768 0.185272
vt 0.362768 0.185272
vt 0.306951 0.109401
vt 0.362768 0.185272
vt 0.306951 0.109401
vt 0.306951 0.109401
vt 0.306951 0.109401
vt 0.362768 0.185272
vt 0.306951 0.109401
vt 0.306951 0.109401
vt 0.331141 0.134986
vt 0.306951 0.109401
vt 0.362768 0.185272
vt 0.362768 0.185272
vt 0.306951 0.109401
vt 0.362768 0.185272
vt 0.306951 0.109401
vt 0.362768 0.185272
vt 0.306951 0.109401
vt 0.362768 0.185272
vt 0.306951 0.109401
vt 0.306951 0.109401
vt 0.331141 0.134986
vt 0.331141 0.134986
vt 0.331141 0.134986
vt 0.331141 0.134986
vt 0.306951 0.109401
vt 0.306951 0.109401
vt 0.306951 0.109401
vt 0.306951 0.109401
vt 0.362768 0.185272
vt 0.362768 0.185272
vt 0.306951 0.109401
vt 0.306951 0.109401
vt 0.362768 0.185272
vt 0.362768 0.185272
vt 0.306951 0.109401
vt 0.306951 0.109401
vt 0.362768 0.185272
vt 0.362768 0.185272
vt 0.306951 0.109401
vt 0.306951 0.109401
vt 0.362768 0.185272
vt 0.362768 0.185272
vt 0.306951 0.109401
vt 0.306951 0.109401
vt 0.362768 0.185272
vt 0.362768 0.185272
vt 0.306951 0.109401
vt 0.306951 0.109401
vt 0.362768 0.185272
vt 0.362768 0.185272
vt 0.306951 0.109401
vt 0.306951 0.109401
vt 0.362768 0.185272
vt 0.362768 0.185272
vt 0.306951 0.109401
vt 0.306951 0.109401
vt 0.362768 0.185272
vt 0.362768 0.185272
vt 0.306951 0.109401
vt 0.306951 0.109401
vt 0.362768 0.185272
vt 0.362768 0.185272
vt 0.306951 0.109401
vt 0.306951 0.109401
vt 0.331141 0.134986
vt 0.331141 0.134986
vt 0.331141 0.134986
vt 0.331141 0.134986
vn -0.015773 0.877123 0.480007
vn -0.015773 0.877123 0.480007
vn 0.001133 0.877714 0.479183
vn -0.001144 0.877649 0.479302
vn 0.000000 1.000000 0.000000
vn 0.000000 1.000000 0.000000
vn 0.000000 1.000000 0.000000
vn 0.000000 1.000000 0.000000
vn 0.000000 -1.000000 0.000000
vn 0.000000 -1.000000 0.000000
vn 0.000000 -1.000000 0.000000
vn 0.000000 -1.000000 0.000000
vn 1.000000 0.000000 0.000000
vn 1.000000 0.000000 0.000000
vn 1.000000 0.000000 0.000000
vn 1.000000 0.000000 0.000000
vn -1.000000 0.000000 0.000000
vn -1.000000 0.000000 0.000000
vn -1.000000 0.000000 0.000000
vn -1.000000 0.000000 0.000000
vn -0.000028 -0.004282 0.999991
vn 0.000028 -0.004281 0.999991
vn 0.000908 -0.001715 0.999998
vn 0.000555 -0.001048 0.999999
vn 0.000908 -0.001715 0.999998
vn -0.000000 0.000000 1.000000
vn -0.000000 0.000000 1.000000
vn 0.000555 -0.001048 0.999999
vn -0.000000 0.000000 1.000000
vn 0.000000 0.000000 1.000000
vn 0.000000 0.000000 1.000000
vn -0.000000 0.000000 1.000000
vn 0.000000 0.000000 1.000000
vn -0.000911 -0.001721 0.999998
vn -0.000556 -0.001050 0.999999
vn 0.000000 0.000000 1.000000
vn -1.000000 0.000000 0.000000
vn -1.000000 0.000000 0.000000
vn -1.000000 0.000000 0.000000
vn -1.000000 0.000000 0.000000
vn -1.000000 0.000000 0.000000
vn -1.000000 0.000000 0.000000
vn -1.000000 0.000000 0.000000
vn -1.000000 0.000000 0.000000
vn -1.000000 0.000000 0.000000
vn -1.000000 0.000000 0.000000
vn -1.000000 0.000000 0.000000
vn -1.000000 0.000000 0.000000
vn 0.008146 -0.999919 -0.009768
vn 0.000115 -0.999953 -0.009679
vn -0.000115 -0.999953 -0.009676
vn 0.008146 -0.999919 -0.009768
vn 1.000000 0.000000 0.000000
vn 1.000000 0.000000 0.000000
vn 1.000000 0.000000 0.000000
vn 1.000000 0.000000 0.000000
vn 1.000000 0.000000 0.000000
vn 1.000000 0.000000 0.000000
vn 1.000000 0.000000 0.000000
vn 1.000000 0.000000 0.000000
vn 1.000000 0.000000 0.000000
vn 1.000000 0.000000 0.000000
vn 1.000000 0.000000 0.000000
vn 1.000000 0.000000 0.000000
vn -0.000061 0.968309 0.249757
vn 0.000071 0.968309 0.249757
vn -0.012522 0.968242 0.249700
vn -0.012522 0.968242 0.249700
vn 0.008703 0.948218 0.317501
vn -0.009817 0.947554 0.319444
vn -0.084013 0.941589 0.326117
vn -0.084013 0.941589 0.326116
vn 0.006746 0.971879 0.235385
vn -0.007030 0.971534 0.236796
vn -0.038613 0.970039 0.239863
vn -0.038613 0.970039 0.239862
vn 0.004683 0.978449 0.206437
vn -0.005012 0.978314 0.207067
vn -0.051589 0.976378 0.209820
vn -0.051589 0.976378 0.209820
vn 0.006003 0.953536 0.301219
vn -0.006280 0.953303 0.301950
vn -0.096254 0.947182 0.305912
vn -0.096254 0.947181 0.305912
vn -0.000055 0.964441 0.264298
vn 0.000057 0.964441 0.264299
vn -0.014224 0.964356 0.264224
vn -0.014224 0.964356 0.264224
vn -0.001811 0.971448 0.237247
vn 0.002222 0.971559 0.236789
vn 0.015034 0.971805 0.235306
vn 0.015034 0.971805 0.235306
vn -0.000329 0.965591 0.260064
vn 0.000345 0.965590 0.260068
vn -0.040419 0.964871 0.259596
vn -0.040419 0.964871 0.259596
vn 0.000770 0.951684 0.307078
vn -0.000776 0.951644 0.307203
vn -0.006640 0.951470 0.307671
vn -0.006640 0.951470 0.307671
vn 0.011858 -0.478711 0.877892
vn -0.011650 -0.476328 0.879191
vn 0.080524 -0.484138 0.871278
vn 0.080524 -0.484138 0.871278
vn 0.005300 -0.435507 0.900170
vn -0.005443 -0.434473 0.900668
vn 0.039126 -0.438428 0.897914
vn 0.039126 -0.438428 0.897914
vn -0.019530 -0.591216 0.806277
vn 0.018170 -0.587691 0.808882
vn 0.157330 -0.567279 0.808357
vn 0.157330 -0.567279 0.808357
vn 0.020888 -0.392275 0.919611
vn -0.022426 -0.383753 0.923163
vn 0.078200 -0.402378 0.912128
vn 0.078200 -0.402378 0.912127
vn -0.002541 -0.427096 0.904203
vn 0.002607 -0.426767 0.904358
vn 0.032751 -0.424612 0.904783
vn 0.032751 -0.424612 0.904783
vn 0.005414 -0.515911 0.856625
vn -0.005398 -0.515176 0.857068
vn 0.054901 -0.518503 0.853311
vn 0.054901 -0.518503 0.853311
vn 0.019174 -0.485053 0.874274
vn -0.018466 -0.476737 0.878852
vn 0.068388 -0.494831 0.866294
vn 0.068388 -0.494831 0.866294
vn -0.009410 -0.528922 0.848619
vn 0.009194 -0.527147 0.849724
vn 0.059825 -0.521381 0.851224
vn 0.059825 -0.521381 0.851224
vn -0.020653 -0.364646 0.930917
vn 0.020066 -0.360072 0.932709
vn 0.119563 -0.346322 0.930465
vn 0.119563 -0.346322 0.930465
vn 0.000000 1.000000 0.000000
vn 0.000000 1.000000 0.000000
vn 0.000000 1.000000 0.000000
vn 0.000000 1.000000 0.000000
vn 0.000000 0.000000 1.000000
vn 0.000000 0.000000 1.000000
vn 0.000000 0.000000 1.000000
vn 0.000000 0.000000 1.000000
vn -0.000115 -0.999953 -0.009676
vn 0.000115 -0.999953 -0.009679
vn -0.007995 -0.999922 -0.009588
vn -0.007995 -0.999922 -0.009588
vn -0.001144 0.877649 0.479302
vn 0.001133 0.877714 0.479183
vn 0.015159 0.878013 0.478396
vn 0.015159 0.878014 0.478396
vn -0.028870 -0.428601 0.903032
vn 0.002607 -0.426767 0.904358
vn -0.002541 -0.427096 0.904203
vn -0.028870 -0.428601 0.903033
vn 0.077367 0.952030 0.296064
vn -0.006280 0.953303 0.301950
vn 0.006003 0.953536 0.301219
vn 0.077367 0.952030 0.296064
vn -0.067884 -0.469541 0.880297
vn -0.011650 -0.476328 0.879191
vn 0.011858 -0.478711 0.877892
vn -0.067884 -0.469541 0.880297
vn 0.011675 0.968234 0.249775
vn 0.000071 0.968309 0.249757
vn -0.000061 0.968309 0.249757
vn 0.011675 0.968234 0.249775
vn -0.055078 -0.511016 0.857805
vn -0.005398 -0.515176 0.857068
vn 0.005414 -0.515911 0.856625
vn -0.055078 -0.511016 0.857805
vn 0.015329 0.964313 0.264319
vn 0.000057 0.964441 0.264299
vn -0.000055 0.964441 0.264298
vn 0.015329 0.964313 0.264319
vn -0.046257 -0.430085 0.901603
vn -0.005443 -0.434473 0.900668
vn 0.005300 -0.435507 0.900170
vn -0.046257 -0.430085 0.901603
vn 0.066307 0.977143 0.201978
vn -0.005012 0.978314 0.207067
vn 0.004683 0.978449 0.206437
vn 0.066307 0.977143 0.201978
vn -0.134115 -0.374160 0.917615
vn 0.020066 -0.360072 0.932709
vn -0.020653 -0.364646 0.930917
vn -0.134115 -0.374160 0.917615
vn -0.015227 0.970963 0.238745
vn 0.002222 0.971559 0.236789
vn -0.001811 0.971448 0.237247
vn -0.015227 0.970963 0.238745
vn -0.127239 -0.596588 0.792397
vn 0.018170 -0.587691 0.808882
vn -0.019530 -0.591216 0.806277
vn -0.127239 -0.596588 0.792397
vn 0.058687 0.948365 0.311705
vn -0.009817 0.947554 0.319444
vn 0.008703 0.948218 0.317501
vn 0.058687 0.948365 0.311705
vn -0.054277 -0.468152 0.881979
vn -0.018466 -0.476737 0.878852
vn 0.019174 -0.485053 0.874274
vn -0.054277 -0.468152 0.881979
vn 0.040669 0.964722 0.260110
vn 0.000345 0.965590 0.260068
vn -0.000329 0.965591 0.260064
vn 0.040669 0.964722 0.260110
vn -0.093586 -0.368096 0.925066
vn -0.022426 -0.383753 0.923163
vn 0.020888 -0.392275 0.919611
vn -0.093586 -0.368096 0.925066
vn 0.055502 0.971601 0.230023
vn -0.007030 0.971534 0.236796
vn 0.006746 0.971879 0.235385
vn 0.055502 0.971601 0.230023
vn -0.073111 -0.533593 0.842576
vn 0.009194 -0.527147 0.849724
vn -0.009410 -0.528922 0.848619
vn -0.073111 -0.533593 0.842576
vn 0.007082 0.951825 0.306560
vn -0.000776 0.951644 0.307203
vn 0.000770 0.951684 0.307078
vn 0.007082 0.951825 0.306560
vn -0.000911 -0.001721 0.999998
vn 0.000028 -0.004281 0.999991
vn -0.000028 -0.004282 0.999991
vn -0.000556 -0.001050 0.999999
vn 0.000000 -1.000000 0.000000
vn 0.000000 -1.000000 0.000000
vn 0.000000 -1.000000 0.000000
vn 0.000000 -1.000000 0.000000
s off
f 41/100/1 15/21/2 54/124/3 55/125/4
f 51/119/5 52/120/6 4/4/7 6/6/8
f 74/164/9 75/165/10 8/8/11 2/10/12
f 2/2/13 8/11/14 6/12/15 4/4/16
f 7/13/17 1/1/18 3/3/19 5/14/20
f 73/162/21 74/163/22 2/2/23 10/16/24
f 2/2/25 4/4/26 11/118/27 10/16/28
f 4/4/29 52/120/30 53/121/31 11/118/32
f 3/3/33 1/1/34 9/15/35 12/18/36
f 10/16/37 11/118/38 15/106/39 26/32/40 18/93/41 28/34/42 24/63/43 30/36/44 20/83/45 32/38/46 22/73/47 14/20/48
f 11/17/49 53/122/50 54/123/51 15/105/52
f 12/18/53 9/15/54 13/78/55 21/27/56 31/37/57 19/25/58 29/35/59 23/29/60 27/33/61 17/23/62 25/31/63 16/22/64
f 58/132/65 59/133/66 44/92/67 18/24/68
f 66/148/69 67/149/70 46/82/71 20/26/72
f 70/156/73 71/157/74 48/72/75 22/28/76
f 62/140/77 63/141/78 50/62/79 24/30/80
f 56/128/81 57/129/82 34/116/83 26/107/84
f 60/136/85 61/137/86 36/114/87 28/95/88
f 64/144/89 65/145/90 38/112/91 30/65/92
f 68/152/93 69/153/94 40/110/95 32/85/96
f 72/160/97 73/161/98 10/48/99 14/75/100
f 57/130/101 58/131/102 18/94/103 34/40/104
f 61/138/105 62/139/106 24/64/107 36/42/108
f 65/146/109 66/147/110 20/84/111 38/44/112
f 69/154/113 70/155/114 22/74/115 40/46/116
f 55/126/117 56/127/118 26/108/119 41/49/120
f 59/134/121 60/135/122 28/96/123 44/52/124
f 67/150/125 68/151/126 32/86/127 46/54/128
f 71/158/129 72/159/130 14/76/131 48/56/132
f 63/142/133 64/143/134 30/66/135 50/58/136
f 3/3/137 52/120/138 51/119/139 5/5/140
f 53/121/141 52/120/142 3/3/143 12/18/144
f 54/123/145 53/122/146 12/117/147 16/101/148
f 55/125/149 54/124/150 16/102/151 42/50/152
f 25/103/153 56/127/154 55/126/155 42/99/156
f 33/39/157 57/129/158 56/128/159 25/104/160
f 17/90/161 58/131/162 57/130/163 33/115/164
f 43/51/165 59/133/166 58/132/167 17/91/168
f 27/97/169 60/135/170 59/134/171 43/89/172
f 35/41/173 61/137/174 60/136/175 27/98/176
f 23/60/177 62/139/178 61/138/179 35/113/180
f 49/57/181 63/141/182 62/140/183 23/61/184
f 29/67/185 64/143/186 63/142/187 49/59/188
f 37/43/189 65/145/190 64/144/191 29/68/192
f 19/80/193 66/147/194 65/146/195 37/111/196
f 45/53/197 67/149/198 66/148/199 19/81/200
f 31/87/201 68/151/202 67/150/203 45/79/204
f 39/45/205 69/153/206 68/152/207 31/88/208
f 21/70/209 70/155/210 69/154/211 39/109/212
f 47/55/213 71/157/214 70/156/215 21/71/216
f 13/19/217 72/159/218 71/158/219 47/69/220
f 9/47/221 73/161/222 72/160/223 13/77/224
f 1/1/225 74/163/226 73/162/227 9/15/228
f 7/7/229 75/165/230 74/164/231 1/9/232
