# This file uses centimeters as units for non-parametric coordinates.

v 0.241680 1.207785 -0.133408
v 0.139534 1.309931 -0.133408
v 0.000000 1.347317 -0.133408
v -0.139534 1.309931 -0.133408
v -0.241680 1.207785 -0.133408
v -0.279026 1.068251 -0.133415
v 0.279030 1.068251 -0.133415
v 0.241680 1.207785 0.133415
v 0.139534 1.309931 0.133415
v 0.000000 1.347317 0.133415
v -0.139534 1.309931 0.133415
v -0.241680 1.207785 0.133415
v -0.279026 1.068251 0.133415
v 0.279030 1.068251 0.133415
v -0.279026 0.000000 0.133400
v 0.279030 0.000000 0.133400
v -0.279026 0.000000 -0.133415
v 0.279030 0.000000 -0.133415
v 0.000000 0.000000 0.133400
v 0.000000 0.000000 -0.133415
v 0.119621 1.136480 -0.133408
v 0.069061 1.187037 -0.133408
v 0.000000 1.205544 -0.133408
v -0.069061 1.187037 -0.133408
v -0.119621 1.136480 -0.133408
v -0.138103 1.067417 -0.133415
v 0.138107 1.067417 -0.133415
v 0.000000 0.925655 -0.133415
v 0.138107 0.925655 -0.133415
v -0.138103 0.925655 -0.133415
v 0.119621 1.136480 0.133415
v 0.069061 1.187037 0.133415
v 0.000000 1.205544 0.133415
v -0.069061 1.187037 0.133415
v -0.119621 1.136480 0.133415
v -0.138103 1.067417 0.133415
v 0.138107 1.067417 0.133415
v 0.000000 0.925655 0.133400
v 0.138107 0.925655 0.133400
v -0.138103 0.925655 0.133400
vt 0.734107 0.486155
vt 0.734107 0.486155
vt 0.734107 0.486155
vt 0.734107 0.486155
vt 0.734107 0.486155
vt 0.734107 0.486155
vt 0.734107 0.486155
vt 0.734107 0.486155
vt 0.734107 0.486155
vt 0.734107 0.486155
vt 0.734107 0.486155
vt 0.734107 0.486155
vt 0.734107 0.486155
vt 0.734107 0.486155
vt 0.734107 0.486155
vt 0.734107 0.486155
vt 0.734107 0.486155
vt 0.734107 0.486155
vt 0.734107 0.486155
vt 0.734107 0.486155
vt 0.734107 0.486155
vt 0.734107 0.486155
vt 0.734107 0.486155
vt 0.734107 0.486155
vt 0.734107 0.486155
vt 0.734107 0.486155
vt 0.734107 0.486155
vt 0.734107 0.486155
vt 0.734107 0.486155
vt 0.734107 0.486155
vt 0.734107 0.488934
vt 0.734107 0.488934
vt 0.734107 0.488934
vt 0.734107 0.488934
vt 0.734107 0.488934
vt 0.734107 0.488934
vt 0.734107 0.488934
vt 0.734107 0.488934
vt 0.734107 0.488934
vt 0.734107 0.488934
vt 0.734107 0.488934
vt 0.734107 0.488934
vt 0.734107 0.488934
vt 0.734107 0.488934
vt 0.734107 0.486155
vt 0.734107 0.486155
vt 0.734107 0.486155
vt 0.734107 0.486155
vt 0.734107 0.486155
vt 0.734107 0.486155
vt 0.734107 0.486155
vt 0.734107 0.486155
vt 0.734107 0.486155
vt 0.734107 0.486155
vt 0.734107 0.486155
vt 0.734107 0.486155
vt 0.734107 0.486155
vt 0.734107 0.486155
vt 0.734107 0.488934
vt 0.734107 0.488934
vt 0.734107 0.488934
vt 0.734107 0.488934
vt 0.734107 0.488934
vt 0.734107 0.488934
vt 0.734107 0.488934
vt 0.734107 0.488934
vt 0.734107 0.488934
vt 0.734107 0.488934
vt 0.734107 0.486155
vt 0.734107 0.486155
vt 0.734107 0.486155
vt 0.734107 0.486155
vt 0.734107 0.488934
vt 0.734107 0.488934
vt 0.734107 0.488934
vt 0.734107 0.488934
vt 0.734107 0.488934
vt 0.734107 0.488934
vt 0.734107 0.488934
vt 0.734107 0.488934
vt 0.734107 0.488934
vt 0.734107 0.488934
vt 0.734107 0.488934
vt 0.734107 0.488934
vt 0.734107 0.488934
vt 0.734107 0.488934
vt 0.734107 0.488934
vt 0.734107 0.486155
vt 0.734107 0.486155
vt 0.734107 0.488934
vt 0.734107 0.488934
vt 0.734107 0.488934
vt 0.734107 0.488934
vt 0.734107 0.488934
vn 0.707107 0.707107 0.000000
vn 0.707107 0.707107 0.000000
vn 0.707107 0.707107 0.000000
vn 0.707107 0.707107 0.000000
vn 0.258806 0.965929 0.000000
vn 0.258806 0.965929 0.000000
vn 0.258806 0.965929 0.000000
vn 0.258806 0.965929 0.000000
vn -0.258806 0.965929 0.000000
vn -0.258806 0.965929 0.000000
vn -0.258806 0.965929 0.000000
vn -0.258806 0.965929 0.000000
vn -0.707107 0.707107 0.000000
vn -0.707107 0.707107 0.000000
vn -0.707107 0.707107 0.000000
vn -0.707107 0.707107 0.000000
vn -0.965999 0.258547 0.000000
vn -0.965999 0.258547 0.000000
vn -0.965999 0.258547 0.000000
vn -0.965999 0.258547 0.000000
vn 0.965992 0.258572 0.000000
vn 0.965992 0.258572 0.000000
vn 0.965992 0.258572 0.000000
vn 0.965992 0.258572 0.000000
vn 1.000000 -0.000000 0.000000
vn 1.000000 -0.000000 0.000000
vn 1.000000 -0.000000 0.000000
vn 1.000000 -0.000000 0.000000
vn -1.000000 0.000000 0.000000
vn -1.000000 0.000000 0.000000
vn -1.000000 0.000000 0.000000
vn -1.000000 0.000000 0.000000
vn -0.000000 0.000000 -1.000000
vn -0.000000 0.000000 -1.000000
vn -0.000000 0.000000 -1.000000
vn -0.000000 0.000000 -1.000000
vn 0.000000 0.000000 -1.000000
vn 0.000000 0.000000 -1.000000
vn 0.000000 0.000000 -1.000000
vn 0.000000 0.000000 -1.000000
vn -0.000000 0.000000 -1.000000
vn -0.000000 0.000000 -1.000000
vn -0.000000 0.000000 -1.000000
vn -0.000000 0.000000 -1.000000
vn 0.000000 0.000000 -1.000000
vn 0.000000 0.000000 -1.000000
vn 0.000000 0.000000 -1.000000
vn 0.000000 0.000000 -1.000000
vn 0.000019 0.000068 -1.000000
vn 0.000019 0.000068 -1.000000
vn 0.000019 0.000068 -1.000000
vn 0.000019 0.000068 -1.000000
vn -0.000019 0.000068 -1.000000
vn -0.000019 0.000068 -1.000000
vn -0.000019 0.000068 -1.000000
vn -0.000019 0.000068 -1.000000
vn -0.000000 0.000000 -1.000000
vn -0.000000 0.000000 -1.000000
vn -0.000000 0.000000 -1.000000
vn -0.000000 0.000000 -1.000000
vn 0.000000 0.000000 -1.000000
vn 0.000000 0.000000 -1.000000
vn 0.000000 0.000000 -1.000000
vn 0.000000 0.000000 -1.000000
vn 0.000000 0.000000 -1.000000
vn 0.000000 0.000000 -1.000000
vn 0.000000 0.000000 -1.000000
vn 0.000000 0.000000 -1.000000
vn 0.000000 0.000000 -1.000000
vn 0.000000 0.000000 -1.000000
vn 0.000000 0.000000 -1.000000
vn 0.000000 0.000000 -1.000000
vn 0.000000 0.000000 1.000000
vn 0.000000 0.000000 1.000000
vn 0.000000 0.000000 1.000000
vn 0.000000 0.000000 1.000000
vn 0.000000 0.000000 1.000000
vn 0.000000 0.000000 1.000000
vn 0.000000 0.000000 1.000000
vn 0.000000 0.000000 1.000000
vn -0.000000 0.000000 1.000000
vn -0.000000 0.000000 1.000000
vn -0.000000 0.000000 1.000000
vn -0.000000 0.000000 1.000000
vn 0.000000 0.000000 1.000000
vn 0.000000 0.000000 1.000000
vn 0.000000 0.000000 1.000000
vn 0.000000 0.000000 1.000000
vn 0.000000 0.000000 1.000000
vn 0.000000 0.000000 1.000000
vn 0.000000 0.000000 1.000000
vn 0.000000 0.000000 1.000000
vn -0.000000 0.000000 1.000000
vn -0.000000 0.000000 1.000000
vn -0.000000 0.000000 1.000000
vn -0.000000 0.000000 1.000000
vn 0.000000 0.000000 1.000000
vn 0.000000 0.000000 1.000000
vn 0.000000 0.000000 1.000000
vn 0.000000 0.000000 1.000000
vn -0.000083 -0.000025 1.000000
vn -0.000083 -0.000025 1.000000
vn -0.000083 -0.000025 1.000000
vn -0.000083 -0.000025 1.000000
vn 0.000000 0.000000 1.000000
vn 0.000000 0.000000 1.000000
vn 0.000000 0.000000 1.000000
vn 0.000000 0.000000 1.000000
vn 0.000083 -0.000025 1.000000
vn 0.000083 -0.000025 1.000000
vn 0.000083 -0.000025 1.000000
vn 0.000083 -0.000025 1.000000
vn -0.707080 -0.707134 0.000000
vn -0.707080 -0.707134 0.000000
vn -0.707080 -0.707134 0.000000
vn -0.707080 -0.707134 0.000000
vn -0.258846 -0.965919 0.000000
vn -0.258846 -0.965919 0.000000
vn -0.258846 -0.965919 0.000000
vn -0.258846 -0.965919 0.000000
vn 0.258846 -0.965919 0.000000
vn 0.258846 -0.965919 0.000000
vn 0.258846 -0.965919 0.000000
vn 0.258846 -0.965919 0.000000
vn 0.707080 -0.707134 0.000000
vn 0.707080 -0.707134 0.000000
vn 0.707080 -0.707134 0.000000
vn 0.707080 -0.707134 0.000000
vn 0.966007 -0.258516 0.000000
vn 0.966007 -0.258516 0.000000
vn 0.966007 -0.258516 0.000000
vn 0.966007 -0.258516 0.000000
vn -0.965994 -0.258566 0.000000
vn -0.965994 -0.258566 0.000000
vn -0.965994 -0.258566 0.000000
vn -0.965994 -0.258566 0.000000
vn 0.000000 1.000000 0.000000
vn 0.000000 1.000000 0.000000
vn 0.000000 1.000000 0.000000
vn 0.000000 1.000000 0.000000
vn 0.000000 1.000000 0.000000
vn 0.000000 1.000000 0.000000
vn 0.000000 1.000000 0.000000
vn 0.000000 1.000000 0.000000
vn 1.000000 0.000000 0.000000
vn 1.000000 0.000000 0.000000
vn 1.000000 0.000000 0.000000
vn 1.000000 0.000000 0.000000
vn -1.000000 -0.000000 0.000000
vn -1.000000 -0.000000 0.000000
vn -1.000000 -0.000000 0.000000
vn -1.000000 -0.000000 0.000000
s off
f 1/8/1 2/9/2 9/17/3 8/16/4
f 2/9/5 3/10/6 10/18/7 9/17/8
f 3/10/9 4/11/10 11/19/11 10/18/12
f 4/11/13 5/12/14 12/20/15 11/19/16
f 5/12/17 6/13/18 13/21/19 12/20/20
f 7/14/21 1/15/22 8/23/23 14/22/24
f 16/32/25 18/37/26 7/38/27 14/33/28
f 17/39/29 15/40/30 13/41/31 6/42/32
f 2/2/33 1/1/34 21/46/35 22/45/36
f 3/3/37 2/2/38 22/45/39 23/47/40
f 4/4/41 3/3/42 23/47/43 24/48/44
f 5/5/45 4/4/46 24/48/47 25/49/48
f 6/6/49 5/5/50 25/49/51 26/50/52
f 1/1/53 7/7/54 27/51/55 21/46/56
f 7/29/57 18/28/58 29/53/59 27/52/60
f 18/28/61 20/27/62 28/54/63 29/53/64
f 20/27/65 17/26/66 30/55/67 28/54/68
f 17/26/69 6/25/70 26/56/71 30/55/72
f 8/69/73 9/24/74 32/57/75 31/70/76
f 9/30/77 10/71/78 33/72/79 32/58/80
f 10/31/81 11/73/82 34/60/83 33/59/84
f 11/74/85 12/75/86 35/61/87 34/60/88
f 12/35/89 13/36/90 36/63/91 35/62/92
f 14/76/93 8/34/94 31/64/95 37/77/96
f 19/78/97 16/79/98 39/80/99 38/65/100
f 16/81/101 14/82/102 37/83/103 39/66/104
f 15/84/105 19/44/106 38/67/107 40/85/108
f 13/86/109 15/43/110 40/68/111 36/87/112
f 22/45/113 21/46/114 31/88/115 32/57/116
f 23/47/117 22/45/118 32/58/119 33/89/120
f 24/48/121 23/47/122 33/59/123 34/60/124
f 25/49/125 24/48/126 34/60/127 35/61/128
f 26/50/129 25/49/130 35/62/131 36/63/132
f 21/46/133 27/51/134 37/90/135 31/64/136
f 29/53/137 28/54/138 38/65/139 39/91/140
f 28/54/141 30/55/142 40/92/143 38/67/144
f 30/55/145 26/56/146 36/93/147 40/68/148
f 29/53/149 39/66/150 37/94/151 27/52/152
