# This file uses centimeters as units for non-parametric coordinates.

v 0.050572 0.787899 0.050572
v 0.071519 0.787899 0.000000
v 0.050572 0.800842 -0.050572
v 0.000000 0.800891 -0.071519
v -0.050572 0.787899 -0.050572
v -0.071519 0.787899 0.000000
v -0.050572 0.800988 0.050572
v 0.000000 0.800988 0.071519
v 0.061474 1.143880 0.061474
v 0.086938 1.143728 0.000000
v 0.061474 1.145283 -0.061474
v 0.000000 1.128544 -0.086938
v -0.061474 1.145283 -0.061474
v -0.086938 1.139621 0.000000
v -0.061474 1.139880 0.061474
v 0.000000 1.151721 0.086938
v 0.038403 0.763826 0.038403
v 0.054309 0.763826 0.000000
v 0.000000 0.763826 -0.000000
v 0.038403 0.776776 -0.038403
v 0.000000 0.776776 -0.054309
v -0.038403 0.763826 -0.038403
v -0.054309 0.763826 0.000000
v -0.038403 0.776923 0.038403
v 0.000000 0.776923 0.054309
v 0.046682 1.167946 0.046682
v 0.066018 1.167881 0.000000
v 0.000000 1.185786 -0.000000
v 0.046682 1.173038 -0.046682
v 0.000000 1.160527 -0.066018
v -0.046682 1.173038 -0.046682
v -0.066018 1.163764 0.000000
v -0.046682 1.163946 0.046682
v 0.000000 1.175786 0.066018
v -0.053002 1.041291 0.053961
v -0.074956 1.053280 0.000922
v -0.053002 1.034015 -0.052116
v 0.000000 1.047431 -0.074086
v 0.053002 1.052729 -0.052116
v 0.074956 1.046999 0.000922
v 0.053002 1.057414 0.053961
v 0.000000 1.035105 0.075930
v -0.058826 1.033599 0.058017
v -0.083193 1.048569 -0.000849
v -0.058826 1.031821 -0.059716
v 0.000000 1.044284 -0.084099
v 0.058826 1.050178 -0.059716
v 0.083193 1.042394 -0.000849
v 0.058826 1.049416 0.058017
v 0.000000 1.026733 0.082400
v -0.057011 0.895705 0.056774
v -0.080625 0.902441 0.000546
v -0.057011 0.903235 -0.055682
v 0.000000 0.914703 -0.078972
v 0.057010 0.903235 -0.055682
v 0.080625 0.907666 0.000546
v 0.057011 0.917084 0.056774
v 0.000000 0.915753 0.080064
v -0.050426 0.901149 0.049187
v -0.071313 0.907423 -0.000546
v -0.050426 0.912144 -0.050280
v 0.000000 0.922602 -0.070880
v 0.050426 0.912144 -0.050280
v 0.071313 0.914111 -0.000546
v 0.050426 0.922443 0.049187
v 0.000000 0.919195 0.069788
v 0.027067 -1.167313 0.020069
v 0.027269 -1.167203 -0.019683
v -0.006982 -1.164891 -0.039727
v -0.041436 -1.162696 -0.020020
v -0.041638 -1.162806 0.019733
v -0.007387 -1.165117 0.039777
v 0.034427 0.786705 0.020243
v 0.034427 0.786705 -0.019509
v 0.000000 0.786705 -0.039386
v -0.034427 0.786705 -0.019509
v -0.034427 0.786705 0.020243
v 0.000000 0.786705 0.040120
v -0.008548 -1.185783 -0.000040
v 0.000000 0.786705 0.000367
v -0.031275 0.384380 0.034426
v -0.031275 0.384380 -0.002035
v 0.000301 0.384380 -0.020265
v 0.031877 0.384380 -0.002035
v 0.031877 0.384380 0.034426
v 0.000301 0.384380 0.052657
v -0.025906 -0.923017 0.027624
v -0.025704 -0.922907 -0.012128
v 0.008750 -0.925110 -0.031836
v 0.043001 -0.927415 -0.011792
v 0.042800 -0.927531 0.027961
v 0.008346 -0.925328 0.047669
v -0.046849 -1.112303 0.024744
v -0.046598 -1.112164 -0.024802
v -0.003655 -1.114907 -0.049366
v 0.039036 -1.117790 -0.024382
v 0.038784 -1.117930 0.025164
v -0.004159 -1.115187 0.049728
v 0.043788 -0.265293 -0.021770
v 0.043788 -0.265293 0.016336
v 0.010788 -0.265293 0.035389
v -0.022213 -0.265293 0.016336
v -0.022213 -0.265293 -0.021769
v 0.010788 -0.265293 -0.040822
vt 0.362691 0.217642
vt 0.362691 0.217642
vt 0.362691 0.217642
vt 0.362691 0.217642
vt 0.362691 0.217642
vt 0.362691 0.217642
vt 0.362691 0.217642
vt 0.362691 0.217642
vt 0.362691 0.217642
vt 0.362691 0.217642
vt 0.362691 0.217642
vt 0.362691 0.217642
vt 0.362691 0.217642
vt 0.362691 0.217642
vt 0.362691 0.217642
vt 0.362691 0.217642
vt 0.362691 0.217642
vt 0.362691 0.217642
vt 0.362691 0.217642
vt 0.362691 0.217642
vt 0.362691 0.217642
vt 0.362691 0.217642
vt 0.362691 0.217642
vt 0.362691 0.217642
vt 0.362691 0.217642
vt 0.362691 0.217642
vt 0.362691 0.217642
vt 0.362691 0.217642
vt 0.362691 0.217642
vt 0.362691 0.217642
vt 0.362691 0.217642
vt 0.362691 0.217642
vt 0.362691 0.217642
vt 0.362691 0.217642
vt 0.362691 0.217642
vt 0.362691 0.217642
vt 0.362691 0.217642
vt 0.362691 0.217642
vt 0.362691 0.217642
vt 0.362691 0.217642
vt 0.362691 0.217642
vt 0.362691 0.217642
vt 0.362691 0.217642
vt 0.362691 0.217642
vt 0.362691 0.217642
vt 0.362691 0.217642
vt 0.362691 0.217642
vt 0.362691 0.217642
vt 0.362691 0.217642
vt 0.362691 0.217642
vt 0.362691 0.217642
vt 0.362691 0.217642
vt 0.362691 0.217642
vt 0.362691 0.217642
vt 0.362691 0.217642
vt 0.362691 0.217642
vt 0.362691 0.217642
vt 0.362691 0.217642
vt 0.362691 0.217642
vt 0.362691 0.217642
vt 0.362691 0.217642
vt 0.362691 0.217642
vt 0.362691 0.217642
vt 0.362691 0.217642
vt 0.362691 0.217642
vt 0.362691 0.217642
vt 0.362691 0.217642
vt 0.362691 0.217642
vt 0.362691 0.217642
vt 0.362691 0.217642
vt 0.362691 0.217642
vt 0.362691 0.217642
vt 0.362691 0.217642
vt 0.362691 0.217642
vt 0.362691 0.217642
vt 0.362691 0.217642
vt 0.362691 0.217642
vt 0.362691 0.217642
vt 0.362691 0.217642
vt 0.362691 0.217642
vt 0.362691 0.217642
vt 0.362691 0.217642
vt 0.362691 0.217642
vt 0.362691 0.217642
vt 0.362691 0.217642
vt 0.362691 0.217642
vt 0.362691 0.217642
vt 0.362691 0.217642
vt 0.308332 0.186865
vt 0.308332 0.186865
vt 0.308332 0.186865
vt 0.308332 0.186865
vt 0.308332 0.186865
vt 0.308332 0.186865
vt 0.308332 0.186865
vt 0.308332 0.186865
vt 0.308332 0.186865
vt 0.308332 0.186865
vt 0.308332 0.186865
vt 0.308332 0.186865
vt 0.308332 0.186865
vt 0.308332 0.186865
vt 0.308332 0.186865
vt 0.308332 0.186865
vt 0.308332 0.186865
vt 0.308332 0.186865
vt 0.308332 0.186865
vt 0.308332 0.186865
vt 0.308332 0.186865
vt 0.308332 0.186865
vt 0.308332 0.186865
vt 0.308332 0.186865
vt 0.308332 0.186865
vt 0.308332 0.186865
vt 0.308332 0.186865
vt 0.308332 0.186865
vt 0.308332 0.186865
vt 0.308332 0.186865
vt 0.308332 0.186865
vt 0.308332 0.186865
vt 0.308332 0.186865
vt 0.308332 0.186865
vt 0.308332 0.186865
vt 0.308332 0.186865
vt 0.308332 0.186865
vt 0.308332 0.186865
vt 0.308332 0.186865
vt 0.308332 0.186865
vt 0.308332 0.186865
vt 0.308332 0.186865
vt 0.308332 0.186865
vt 0.308332 0.186865
vt 0.308332 0.186865
vt 0.308332 0.186865
vt 0.308332 0.186865
vt 0.308332 0.186865
vt 0.308332 0.186865
vt 0.308332 0.186865
vt 0.308332 0.186865
vt 0.308332 0.186865
vt 0.308332 0.186865
vt 0.308332 0.186865
vt 0.308332 0.186865
vt 0.308332 0.186865
vn 0.918614 -0.067911 0.389278
vn 0.918614 -0.067911 0.389278
vn 0.918614 -0.067911 0.389278
vn 0.918614 -0.067911 0.389278
vn 0.918414 -0.072251 -0.388967
vn 0.918414 -0.072251 -0.388967
vn 0.918414 -0.072251 -0.388967
vn 0.918414 -0.072251 -0.388967
vn 0.373549 -0.064889 -0.925338
vn 0.373549 -0.064889 -0.925338
vn 0.373549 -0.064889 -0.925338
vn 0.373549 -0.064889 -0.925338
vn -0.367654 -0.061202 -0.927947
vn -0.367654 -0.061202 -0.927947
vn -0.367654 -0.061202 -0.927947
vn -0.367654 -0.061202 -0.927947
vn -0.920448 -0.069875 -0.384569
vn -0.920448 -0.069875 -0.384569
vn -0.920448 -0.069875 -0.384569
vn -0.920448 -0.069875 -0.384569
vn -0.918161 -0.080713 0.387900
vn -0.918161 -0.080713 0.387900
vn -0.918160 -0.080713 0.387900
vn -0.918161 -0.080713 0.387900
vn -0.366949 -0.076544 0.927087
vn -0.366949 -0.076544 0.927086
vn -0.366949 -0.076544 0.927087
vn -0.366949 -0.076544 0.927086
vn 0.373318 -0.065793 0.925367
vn 0.373318 -0.065793 0.925367
vn 0.373318 -0.065793 0.925368
vn 0.373318 -0.065793 0.925368
vn 0.000000 -1.000000 0.000000
vn 0.000000 -1.000000 0.000000
vn 0.000000 -1.000000 0.000000
vn 0.000000 -0.947571 -0.319547
vn 0.000000 -0.947571 -0.319547
vn 0.000000 -0.947571 -0.319547
vn 0.095638 -0.968268 -0.230890
vn 0.095638 -0.968268 -0.230890
vn 0.095638 -0.968268 -0.230890
vn 0.225955 -0.947570 -0.225953
vn 0.225955 -0.947570 -0.225953
vn 0.225955 -0.947570 -0.225953
vn 0.000000 -1.000000 0.000000
vn 0.000000 -1.000000 0.000000
vn 0.000000 -1.000000 0.000000
vn 0.000000 -0.946471 0.322789
vn 0.000000 -0.946471 0.322789
vn 0.000000 -0.946471 0.322789
vn -0.096651 -0.967580 0.233339
vn -0.096651 -0.967580 0.233339
vn -0.096651 -0.967580 0.233339
vn -0.228248 -0.946471 0.228247
vn -0.228248 -0.946470 0.228247
vn -0.228248 -0.946470 0.228247
vn 0.260276 0.959647 0.106459
vn 0.260276 0.959647 0.106459
vn 0.260276 0.959647 0.106459
vn 0.261763 0.965130 -0.001792
vn 0.261763 0.965130 -0.001792
vn 0.261763 0.965130 -0.001792
vn -0.101760 0.929126 -0.355484
vn -0.101760 0.929126 -0.355484
vn -0.101760 0.929126 -0.355484
vn 0.101757 0.929127 -0.355483
vn 0.101757 0.929127 -0.355483
vn 0.101757 0.929127 -0.355483
vn -0.315918 0.947055 0.057299
vn -0.315918 0.947055 0.057299
vn -0.315918 0.947055 0.057299
vn -0.313901 0.941010 0.126360
vn -0.313901 0.941010 0.126360
vn -0.313901 0.941010 0.126360
vn -0.298550 0.943630 0.142933
vn -0.298550 0.943630 0.142933
vn -0.298550 0.943630 0.142933
vn 0.222373 0.963966 0.146016
vn 0.222373 0.963966 0.146016
vn 0.222373 0.963966 0.146016
vn 0.770907 -0.551124 0.319317
vn 0.770907 -0.551124 0.319317
vn 0.770907 -0.551124 0.319317
vn 0.770907 -0.551124 0.319317
vn 0.706444 -0.545229 -0.451289
vn 0.706444 -0.545229 -0.451289
vn 0.706444 -0.545229 -0.451289
vn 0.706444 -0.545229 -0.451289
vn 0.319126 -0.550851 -0.771182
vn 0.319126 -0.550851 -0.771182
vn 0.319126 -0.550851 -0.771182
vn 0.319126 -0.550851 -0.771182
vn -0.180352 -0.544823 -0.818927
vn -0.180352 -0.544823 -0.818927
vn -0.180352 -0.544823 -0.818927
vn -0.180352 -0.544823 -0.818927
vn -0.770907 -0.551125 -0.319318
vn -0.770907 -0.551125 -0.319318
vn -0.770907 -0.551125 -0.319318
vn -0.770907 -0.551125 -0.319318
vn -0.705636 -0.545097 0.452712
vn -0.705636 -0.545096 0.452712
vn -0.705636 -0.545097 0.452712
vn -0.705636 -0.545097 0.452712
vn -0.319287 -0.551246 0.770833
vn -0.319287 -0.551246 0.770833
vn -0.319287 -0.551246 0.770833
vn -0.319287 -0.551246 0.770833
vn 0.178842 -0.545095 0.819077
vn 0.178842 -0.545095 0.819077
vn 0.178842 -0.545095 0.819077
vn 0.178842 -0.545095 0.819077
vn 0.721291 0.625484 0.297506
vn 0.721291 0.625484 0.297506
vn 0.721291 0.625484 0.297506
vn 0.721291 0.625484 0.297506
vn 0.753655 0.596918 -0.275124
vn 0.753655 0.596918 -0.275124
vn 0.753655 0.596918 -0.275124
vn 0.753655 0.596918 -0.275124
vn 0.194104 0.538317 -0.820084
vn 0.194103 0.538317 -0.820084
vn 0.194103 0.538317 -0.820084
vn 0.194103 0.538318 -0.820084
vn -0.194106 0.538318 -0.820083
vn -0.194106 0.538318 -0.820083
vn -0.194106 0.538318 -0.820083
vn -0.194106 0.538318 -0.820083
vn -0.767879 0.595614 -0.235809
vn -0.767879 0.595614 -0.235809
vn -0.767879 0.595614 -0.235809
vn -0.767879 0.595614 -0.235809
vn -0.721685 0.625562 0.296384
vn -0.721685 0.625562 0.296384
vn -0.721685 0.625562 0.296384
vn -0.721685 0.625562 0.296384
vn -0.412103 0.621211 0.666534
vn -0.412103 0.621211 0.666534
vn -0.412103 0.621211 0.666534
vn -0.412103 0.621211 0.666534
vn 0.374543 0.623983 0.685830
vn 0.374543 0.623983 0.685830
vn 0.374543 0.623983 0.685830
vn 0.374543 0.623983 0.685830
vn -0.921891 -0.115150 0.369943
vn -0.921891 -0.115150 0.369943
vn -0.921891 -0.115150 0.369943
vn -0.921891 -0.115150 0.369943
vn -0.922569 -0.114661 -0.368401
vn -0.922569 -0.114661 -0.368401
vn -0.922569 -0.114661 -0.368401
vn -0.922569 -0.114661 -0.368401
vn -0.382940 -0.122571 -0.915605
vn -0.382940 -0.122571 -0.915605
vn -0.382940 -0.122571 -0.915605
vn -0.382940 -0.122571 -0.915605
vn 0.401400 -0.135428 -0.905835
vn 0.401400 -0.135428 -0.905835
vn 0.401400 -0.135428 -0.905835
vn 0.401400 -0.135428 -0.905835
vn 0.914551 -0.119809 -0.386318
vn 0.914551 -0.119809 -0.386318
vn 0.914551 -0.119809 -0.386318
vn 0.914551 -0.119809 -0.386318
vn 0.913851 -0.116037 0.389116
vn 0.913851 -0.116037 0.389116
vn 0.913851 -0.116037 0.389116
vn 0.913851 -0.116037 0.389116
vn 0.391616 -0.099760 0.914705
vn 0.391616 -0.099760 0.914705
vn 0.391616 -0.099760 0.914705
vn 0.391616 -0.099760 0.914705
vn -0.377115 -0.094143 0.921369
vn -0.377115 -0.094143 0.921369
vn -0.377115 -0.094143 0.921369
vn -0.377115 -0.094143 0.921369
vn -0.566122 0.716823 0.407026
vn -0.566122 0.716823 0.407026
vn -0.566122 0.716823 0.407026
vn -0.566122 0.716823 0.407026
vn -0.196555 0.906710 -0.373154
vn -0.196555 0.906710 -0.373154
vn -0.196555 0.906710 -0.373154
vn -0.196555 0.906710 -0.373154
vn -0.294342 0.937258 -0.186845
vn -0.294342 0.937258 -0.186845
vn -0.294342 0.937257 -0.186845
vn -0.294342 0.937258 -0.186845
vn 0.028530 0.953790 -0.299117
vn 0.028530 0.953790 -0.299117
vn 0.028530 0.953790 -0.299117
vn 0.028530 0.953790 -0.299117
vn 0.418551 0.905946 -0.063846
vn 0.418551 0.905946 -0.063846
vn 0.418551 0.905946 -0.063846
vn 0.418551 0.905946 -0.063846
vn 0.646124 0.748172 0.150871
vn 0.646124 0.748172 0.150871
vn 0.646124 0.748172 0.150871
vn 0.646124 0.748172 0.150871
vn 0.111396 0.565229 0.817378
vn 0.111396 0.565229 0.817378
vn 0.111396 0.565229 0.817378
vn 0.111396 0.565229 0.817378
vn -0.248525 0.592352 0.766391
vn -0.248525 0.592352 0.766391
vn -0.248525 0.592352 0.766391
vn -0.248525 0.592352 0.766391
vn -0.414656 0.865688 0.280437
vn -0.414656 0.865688 0.280437
vn -0.414656 0.865688 0.280437
vn -0.414656 0.865688 0.280437
vn -0.608637 0.763519 -0.215870
vn -0.608637 0.763519 -0.215870
vn -0.608637 0.763519 -0.215870
vn -0.608637 0.763519 -0.215870
vn -0.394855 0.664266 -0.634697
vn -0.394855 0.664266 -0.634697
vn -0.394854 0.664266 -0.634697
vn -0.394855 0.664266 -0.634697
vn 0.394855 0.664255 -0.634708
vn 0.394855 0.664255 -0.634708
vn 0.394855 0.664255 -0.634708
vn 0.394855 0.664255 -0.634708
vn 0.618148 0.725153 -0.303391
vn 0.618148 0.725153 -0.303391
vn 0.618148 0.725153 -0.303391
vn 0.618148 0.725153 -0.303391
vn 0.558775 0.823662 0.096703
vn 0.558775 0.823662 0.096703
vn 0.558775 0.823662 0.096703
vn 0.558775 0.823662 0.096703
vn 0.125130 0.907507 0.400966
vn 0.125130 0.907507 0.400966
vn 0.125130 0.907507 0.400966
vn 0.125130 0.907507 0.400966
vn -0.419325 0.864960 0.275701
vn -0.419325 0.864960 0.275701
vn -0.419325 0.864960 0.275701
vn -0.419325 0.864960 0.275701
vn -0.925567 -0.080137 0.370006
vn -0.925567 -0.080137 0.370006
vn -0.925567 -0.080137 0.370006
vn -0.925567 -0.080137 0.370006
vn -0.922999 -0.085772 -0.375121
vn -0.922999 -0.085772 -0.375120
vn -0.922999 -0.085772 -0.375120
vn -0.922999 -0.085772 -0.375120
vn -0.360901 -0.099598 -0.927271
vn -0.360901 -0.099598 -0.927271
vn -0.360901 -0.099598 -0.927270
vn -0.360901 -0.099598 -0.927271
vn 0.375782 -0.092586 -0.922071
vn 0.375782 -0.092586 -0.922071
vn 0.375782 -0.092586 -0.922071
vn 0.375782 -0.092586 -0.922071
vn 0.918191 -0.084078 -0.387112
vn 0.918191 -0.084078 -0.387112
vn 0.918191 -0.084078 -0.387112
vn 0.918191 -0.084078 -0.387112
vn 0.915287 -0.085866 0.393544
vn 0.915287 -0.085866 0.393544
vn 0.915287 -0.085866 0.393544
vn 0.915287 -0.085866 0.393544
vn 0.398644 -0.097659 0.911891
vn 0.398644 -0.097659 0.911892
vn 0.398644 -0.097659 0.911891
vn 0.398644 -0.097659 0.911892
vn -0.370613 -0.095519 0.923863
vn -0.370613 -0.095519 0.923863
vn -0.370613 -0.095519 0.923863
vn -0.370613 -0.095519 0.923863
vn 0.972881 -0.231266 0.004293
vn 0.972881 -0.231266 0.004293
vn 0.997883 -0.064851 0.004883
vn 0.997989 -0.063194 0.004888
vn 0.485306 -0.196589 -0.851957
vn 0.485306 -0.196589 -0.851957
vn 0.504910 -0.003329 -0.863166
vn 0.504959 -0.002375 -0.863140
vn -0.498506 -0.132015 -0.856775
vn -0.498506 -0.132015 -0.856775
vn -0.492475 0.063228 -0.868027
vn -0.492551 0.062276 -0.868053
vn -0.994759 -0.102113 -0.005341
vn -0.994759 -0.102113 -0.005341
vn -0.997669 0.068063 -0.004882
vn -0.997781 0.066402 -0.004887
vn -0.507198 -0.136781 0.850906
vn -0.507198 -0.136781 0.850906
vn -0.504749 0.006437 0.863242
vn -0.504787 0.005733 0.863225
vn 0.476630 -0.201362 0.855732
vn 0.476630 -0.201362 0.855732
vn 0.492744 -0.059875 0.868112
vn 0.492798 -0.059172 0.868129
vn 0.344175 -0.909582 -0.232816
vn 0.341856 -0.910870 0.231195
vn -0.065446 -0.997851 -0.003140
vn -0.055609 -0.882606 -0.466813
vn 0.344175 -0.909582 -0.232816
vn -0.065446 -0.997851 -0.003140
vn -0.457765 -0.856972 -0.236748
vn -0.055609 -0.882606 -0.466813
vn -0.065446 -0.997851 -0.003140
vn -0.460161 -0.858254 0.227271
vn -0.457765 -0.856972 -0.236748
vn -0.065446 -0.997851 -0.003140
vn -0.060329 -0.885234 0.461217
vn -0.460161 -0.858254 0.227271
vn -0.065446 -0.997851 -0.003140
vn 0.341856 -0.910870 0.231195
vn -0.060329 -0.885234 0.461217
vn -0.065446 -0.997851 -0.003140
vn 0.000000 1.000000 0.000000
vn 0.000000 1.000000 0.000000
vn 0.000000 1.000000 0.000000
vn 0.000000 1.000000 0.000000
vn 0.000000 1.000000 0.000000
vn 0.000000 1.000000 0.000000
vn 0.000000 1.000000 0.000000
vn 0.000000 1.000000 0.000000
vn 0.000000 1.000000 0.000000
vn 0.000000 1.000000 0.000000
vn 0.000000 1.000000 0.000000
vn 0.000000 1.000000 0.000000
vn 0.000000 1.000000 0.000000
vn 0.000000 1.000000 0.000000
vn 0.000000 1.000000 0.000000
vn 0.000000 1.000000 0.000000
vn 0.000000 1.000000 0.000000
vn 0.000000 1.000000 0.000000
vn -0.999933 -0.011567 0.000001
vn -0.999933 -0.011585 0.000001
vn -0.999969 -0.007834 0.000002
vn -0.999969 -0.007834 0.000002
vn -0.499996 -0.004199 -0.866018
vn -0.499995 -0.004375 -0.866017
vn -0.499570 -0.041496 -0.865279
vn -0.499570 -0.041496 -0.865279
vn 0.499991 0.006110 -0.866009
vn 0.499992 0.005657 -0.866011
vn 0.499586 -0.040751 -0.865305
vn 0.499586 -0.040751 -0.865305
vn 0.999961 0.008798 -0.000002
vn 0.999962 0.008723 -0.000002
vn 0.999980 -0.006339 0.000001
vn 0.999980 -0.006339 0.000001
vn 0.500003 0.001531 0.866022
vn 0.500003 0.001409 0.866022
vn 0.499819 0.027349 0.865698
vn 0.499819 0.027349 0.865698
vn -0.499984 -0.008528 0.865993
vn -0.499982 -0.008871 0.865990
vn -0.499826 0.026603 0.865717
vn -0.499826 0.026603 0.865717
vn -0.999480 0.032099 -0.003141
vn -0.999494 0.031641 -0.003132
vn -0.999991 -0.004028 -0.001326
vn -0.999991 -0.003947 -0.001337
vn -0.496448 0.021638 -0.867797
vn -0.496579 0.019781 -0.867766
vn -0.499215 0.004238 -0.866468
vn -0.499207 0.004070 -0.866473
vn 0.503579 0.001945 -0.863947
vn 0.503524 0.001301 -0.863980
vn 0.501131 0.010288 -0.865310
vn 0.501134 0.010215 -0.865309
vn 0.999976 -0.006246 0.003190
vn 0.999975 -0.006329 0.003200
vn 0.999966 0.008164 0.001337
vn 0.999965 0.008244 0.001327
vn 0.497795 0.005206 0.867279
vn 0.497748 0.004642 0.867309
vn 0.499263 0.000250 0.866450
vn 0.499271 0.000089 0.866446
vn -0.502193 0.023893 0.864425
vn -0.502198 0.024158 0.864415
vn -0.501093 -0.005902 0.865373
vn -0.501090 -0.005969 0.865375
vn -0.997781 0.066402 -0.004887
vn -0.997669 0.068063 -0.004882
vn -0.999494 0.031641 -0.003132
vn -0.999480 0.032099 -0.003141
vn -0.492551 0.062276 -0.868053
vn -0.492475 0.063228 -0.868027
vn -0.496579 0.019781 -0.867766
vn -0.496448 0.021638 -0.867797
vn 0.504959 -0.002375 -0.863140
vn 0.504910 -0.003329 -0.863166
vn 0.503524 0.001301 -0.863980
vn 0.503579 0.001945 -0.863947
vn 0.997989 -0.063194 0.004888
vn 0.997883 -0.064851 0.004883
vn 0.999975 -0.006329 0.003200
vn 0.999976 -0.006246 0.003190
vn 0.492798 -0.059172 0.868129
vn 0.492744 -0.059875 0.868112
vn 0.497748 0.004642 0.867309
vn 0.497795 0.005206 0.867279
vn -0.504787 0.005733 0.863225
vn -0.504749 0.006437 0.863242
vn -0.502198 0.024158 0.864415
vn -0.502193 0.023893 0.864425
vn 0.999965 0.008244 0.001327
vn 0.999966 0.008164 0.001337
vn 0.999962 0.008723 -0.000002
vn 0.999961 0.008798 -0.000002
vn 0.499271 0.000089 0.866446
vn 0.499263 0.000250 0.866450
vn 0.500003 0.001409 0.866022
vn 0.500003 0.001531 0.866022
vn -0.501090 -0.005969 0.865375
vn -0.501093 -0.005902 0.865373
vn -0.499982 -0.008871 0.865990
vn -0.499984 -0.008528 0.865993
vn -0.999991 -0.003947 -0.001337
vn -0.999991 -0.004028 -0.001326
vn -0.999933 -0.011585 0.000001
vn -0.999933 -0.011567 0.000001
vn -0.499207 0.004070 -0.866473
vn -0.499215 0.004238 -0.866468
vn -0.499995 -0.004375 -0.866017
vn -0.499996 -0.004199 -0.866018
vn 0.501134 0.010215 -0.865309
vn 0.501131 0.010288 -0.865310
vn 0.499992 0.005657 -0.866011
vn 0.499991 0.006110 -0.866009
s off
f 1/9/1 2/10/2 56/76/3 57/78/4
f 2/10/5 3/11/6 55/75/7 56/76/8
f 3/11/9 4/12/10 54/74/11 55/75/12
f 4/12/13 5/13/14 53/73/15 54/74/16
f 5/13/17 6/14/18 52/72/19 53/73/20
f 6/14/21 7/15/22 51/71/23 52/72/24
f 7/15/25 8/16/26 58/79/27 51/71/28
f 8/16/29 1/17/30 57/77/31 58/79/32
f 18/37/33 17/38/34 19/35/35
f 20/39/36 18/37/37 19/35/38
f 21/40/39 20/39/40 19/35/41
f 22/41/42 21/40/43 19/35/44
f 23/42/45 22/41/46 19/35/47
f 24/43/48 23/42/49 19/35/50
f 25/44/51 24/43/52 19/35/53
f 17/38/54 25/44/55 19/35/56
f 26/45/57 27/46/58 28/36/59
f 27/46/60 29/47/61 28/36/62
f 29/47/63 30/48/64 28/36/65
f 30/48/66 31/49/67 28/36/68
f 31/49/69 32/50/70 28/36/71
f 32/50/72 33/51/73 28/36/74
f 33/51/75 34/52/76 28/36/77
f 34/52/78 26/45/79 28/36/80
f 2/2/81 1/1/82 17/38/83 18/37/84
f 3/3/85 2/2/86 18/37/87 20/39/88
f 4/4/89 3/3/90 20/39/91 21/40/92
f 5/5/93 4/4/94 21/40/95 22/41/96
f 6/6/97 5/5/98 22/41/99 23/42/100
f 7/7/101 6/6/102 23/42/103 24/43/104
f 8/8/105 7/7/106 24/43/107 25/44/108
f 1/1/109 8/8/110 25/44/111 17/38/112
f 9/33/113 10/32/114 27/46/115 26/45/116
f 10/32/117 11/31/118 29/47/119 27/46/120
f 11/31/121 12/30/122 30/48/123 29/47/124
f 12/30/125 13/29/126 31/49/127 30/48/128
f 13/29/129 14/28/130 32/50/131 31/49/132
f 14/28/133 15/27/134 33/51/135 32/50/136
f 15/27/137 16/34/138 34/52/139 33/51/140
f 16/34/141 9/33/142 26/45/143 34/52/144
f 36/54/145 35/53/146 15/24/147 14/23/148
f 37/55/149 36/54/150 14/23/151 13/22/152
f 38/56/153 37/55/154 13/22/155 12/21/156
f 39/57/157 38/56/158 12/21/159 11/20/160
f 40/58/161 39/57/162 11/20/163 10/19/164
f 41/60/165 40/58/166 10/19/167 9/18/168
f 42/61/169 41/59/170 9/26/171 16/25/172
f 35/53/173 42/61/174 16/25/175 15/24/176
f 44/63/177 43/62/178 35/53/179 36/54/180
f 45/64/181 44/63/182 36/54/183 37/55/184
f 46/65/185 45/64/186 37/55/187 38/56/188
f 47/66/189 46/65/190 38/56/191 39/57/192
f 48/67/193 47/66/194 39/57/195 40/58/196
f 49/69/197 48/67/198 40/58/199 41/60/200
f 50/70/201 49/68/202 41/59/203 42/61/204
f 43/62/205 50/70/206 42/61/207 35/53/208
f 52/72/209 51/71/210 59/80/211 60/81/212
f 53/73/213 52/72/214 60/81/215 61/82/216
f 54/74/217 53/73/218 61/82/219 62/83/220
f 55/75/221 54/74/222 62/83/223 63/84/224
f 56/76/225 55/75/226 63/84/227 64/85/228
f 57/78/229 56/76/230 64/85/231 65/87/232
f 58/79/233 57/77/234 65/86/235 66/88/236
f 51/71/237 58/79/238 66/88/239 59/80/240
f 60/81/241 59/80/242 43/62/243 44/63/244
f 61/82/245 60/81/246 44/63/247 45/64/248
f 62/83/249 61/82/250 45/64/251 46/65/252
f 63/84/253 62/83/254 46/65/255 47/66/256
f 64/85/257 63/84/258 47/66/259 48/67/260
f 65/87/261 64/85/262 48/67/263 49/69/264
f 66/88/265 65/86/266 49/68/267 50/70/268
f 59/80/269 66/88/270 50/70/271 43/62/272
f 67/89/273 68/90/274 96/91/275 97/92/276
f 68/90/277 69/93/278 95/94/279 96/91/280
f 69/93/281 70/95/282 94/96/283 95/94/284
f 70/95/285 71/97/286 93/98/287 94/96/288
f 71/97/289 72/99/290 98/100/291 93/98/292
f 72/99/293 67/101/294 97/102/295 98/100/296
f 68/103/297 67/104/298 79/105/299
f 69/106/300 68/103/301 79/105/302
f 70/107/303 69/106/304 79/105/305
f 71/108/306 70/107/307 79/105/308
f 72/109/309 71/108/310 79/105/311
f 67/104/312 72/109/313 79/105/314
f 73/110/315 74/111/316 80/112/317
f 74/111/318 75/113/319 80/112/320
f 75/113/321 76/114/322 80/112/323
f 76/114/324 77/115/325 80/112/326
f 77/115/327 78/116/328 80/112/329
f 78/116/330 73/110/331 80/112/332
f 82/117/333 81/118/334 77/119/335 76/120/336
f 83/121/337 82/117/338 76/120/339 75/122/340
f 84/123/341 83/121/342 75/122/343 74/124/344
f 85/125/345 84/123/346 74/124/347 73/126/348
f 86/127/349 85/128/350 73/129/351 78/130/352
f 81/118/353 86/127/354 78/130/355 77/119/356
f 88/131/357 87/132/358 102/133/359 103/134/360
f 89/135/361 88/131/362 103/134/363 104/136/364
f 90/137/365 89/135/366 104/136/367 99/138/368
f 91/139/369 90/137/370 99/138/371 100/140/372
f 92/141/373 91/142/374 100/143/375 101/144/376
f 87/132/377 92/141/378 101/144/379 102/133/380
f 94/96/381 93/98/382 87/132/383 88/131/384
f 95/94/385 94/96/386 88/131/387 89/135/388
f 96/91/389 95/94/390 89/135/391 90/137/392
f 97/92/393 96/91/394 90/137/395 91/139/396
f 98/100/397 97/102/398 91/142/399 92/141/400
f 93/98/401 98/100/402 92/141/403 87/132/404
f 100/140/405 99/138/406 84/123/407 85/125/408
f 101/144/409 100/143/410 85/128/411 86/127/412
f 102/133/413 101/144/414 86/127/415 81/118/416
f 103/134/417 102/133/418 81/118/419 82/117/420
f 104/136/421 103/134/422 82/117/423 83/121/424
f 99/138/425 104/136/426 83/121/427 84/123/428
