# This file uses centimeters as units for non-parametric coordinates.

v -1.157459 -0.029681 0.249748
v 1.166195 0.000000 0.249748
v -1.186823 0.767668 0.249748
v 1.161066 0.745068 0.249748
v -1.186823 0.767668 0.000000
v 1.161066 0.745068 0.000000
v -1.157459 -0.029681 0.000000
v 1.166195 0.000000 0.000000
v -1.089838 0.091862 0.249748
v 1.097681 0.058677 0.249748
v 1.097681 0.651277 0.249748
v -1.089838 0.693523 0.249748
v -1.047625 0.098201 0.126678
v 1.047626 0.098201 0.126678
v 1.047626 0.644938 0.126678
v -1.047625 0.644938 0.126678
v -0.015743 0.637803 0.126678
v -0.069094 0.104655 0.126678
v -0.556303 0.098201 0.126678
v -0.556303 0.644938 0.126678
v 0.491323 0.098201 0.126678
v 0.491323 0.644938 0.126678
v -0.480061 0.098201 0.126678
v -0.480061 0.644938 0.126678
v 0.022112 0.104011 0.126678
v 0.070139 0.638515 0.126678
v 0.575449 0.098201 0.126678
v 0.575449 0.644938 0.126678
v -1.063499 0.073012 0.190453
v 1.111847 0.269828 0.190453
v -1.078938 0.243650 0.190453
v 1.096408 0.440466 0.190453
v -1.078938 0.243650 0.105751
v 1.096408 0.440466 0.105751
v -1.063499 0.073012 0.105751
v 1.111847 0.269828 0.105751
v -1.091263 0.477963 0.190453
v 1.092904 0.494755 0.190453
v -1.092579 0.649293 0.190453
v 1.091586 0.666085 0.190453
v -1.091263 0.477963 0.105751
v 1.092904 0.494755 0.105751
v 0.036640 0.677913 0.249748
v 0.050133 0.721780 0.249748
v 0.000387 0.742975 0.000000
v -0.080086 0.072797 0.249748
v -0.109577 0.019320 0.249748
v -0.000845 0.000149 0.000000
vt 0.330375 0.161035
vt 0.330375 0.161035
vt 0.330375 0.161035
vt 0.330375 0.161035
vt 0.330375 0.161035
vt 0.330375 0.161035
vt 0.330375 0.161035
vt 0.330375 0.161035
vt 0.330375 0.161035
vt 0.330375 0.161035
vt 0.330375 0.161035
vt 0.330375 0.161035
vt 0.330375 0.161035
vt 0.330375 0.161035
vt 0.330375 0.161035
vt 0.330375 0.161035
vt 0.330375 0.161035
vt 0.330375 0.161035
vt 0.330375 0.116113
vt 0.330375 0.116113
vt 0.330375 0.161035
vt 0.330375 0.161035
vt 0.330375 0.161035
vt 0.330375 0.116113
vt 0.308996 0.113503
vt 0.330375 0.116113
vt 0.330375 0.116113
vt 0.330375 0.161035
vt 0.330375 0.116113
vt 0.308996 0.113503
vt 0.330375 0.116113
vt 0.308996 0.113503
vt 0.330375 0.116113
vt 0.308996 0.113503
vt 0.308996 0.113503
vt 0.330375 0.161035
vt 0.308996 0.113503
vt 0.330375 0.161035
vt 0.308996 0.113503
vt 0.330375 0.161035
vt 0.308996 0.113503
vt 0.308996 0.113503
vt 0.330375 0.161035
vt 0.308996 0.113503
vt 0.308996 0.113503
vt 0.308996 0.113503
vt 0.330375 0.161035
vt 0.330375 0.116113
vt 0.330375 0.116113
vt 0.330375 0.161035
vt 0.330375 0.161035
vt 0.330375 0.116113
vt 0.330375 0.116113
vt 0.330375 0.161035
vt 0.330375 0.161035
vt 0.330375 0.116113
vt 0.330375 0.116113
vt 0.330375 0.161035
vt 0.330375 0.116113
vt 0.330375 0.161035
vt 0.330375 0.161035
vt 0.330375 0.116113
vt 0.331403 0.188220
vt 0.331403 0.188220
vt 0.331403 0.188220
vt 0.331403 0.188220
vt 0.331403 0.188220
vt 0.331403 0.188220
vt 0.331403 0.188220
vt 0.331403 0.188220
vt 0.331403 0.188220
vt 0.331403 0.188220
vt 0.331403 0.188220
vt 0.331403 0.188220
vt 0.331403 0.188220
vt 0.331403 0.188220
vt 0.331403 0.188220
vt 0.331403 0.188220
vt 0.331403 0.188220
vt 0.331403 0.188220
vt 0.331403 0.188220
vt 0.331403 0.188220
vt 0.330375 0.161035
vt 0.330375 0.161035
vt 0.330375 0.161035
vt 0.330375 0.161035
vt 0.330375 0.161035
vt 0.330375 0.161035
vt 0.330375 0.161035
vn 0.000000 0.000000 1.000000
vn -0.000000 0.000000 1.000000
vn 0.000000 0.000000 1.000000
vn 0.000000 0.000000 1.000000
vn 0.029080 0.998797 0.039484
vn 0.007088 0.999106 0.041688
vn 0.012123 0.999078 0.041185
vn 0.029080 0.998797 0.039484
vn 0.018505 -0.998931 0.042369
vn 0.007175 -0.999177 0.039912
vn -0.007964 -0.999298 0.036621
vn -0.007964 -0.999298 0.036621
vn 0.999976 0.006884 0.000000
vn 0.999976 0.006884 0.000000
vn 0.999976 0.006884 0.000000
vn 0.999976 0.006884 0.000000
vn -0.999323 -0.036802 0.000000
vn -0.999323 -0.036802 0.000000
vn -0.999323 -0.036802 0.000000
vn -0.999323 -0.036802 0.000000
vn -0.000000 0.000000 1.000000
vn -0.000000 0.000000 1.000000
vn -0.000000 0.000000 1.000000
vn -0.000000 0.000000 1.000000
vn -0.000000 0.000000 1.000000
vn -0.000000 0.000000 1.000000
vn -0.000000 0.000000 1.000000
vn -0.000000 0.000000 1.000000
vn 0.000000 0.000000 1.000000
vn 0.000000 0.000000 1.000000
vn 0.000000 0.000000 1.000000
vn 0.000000 0.000000 1.000000
vn 0.000000 0.000000 1.000000
vn 0.000000 0.000000 1.000000
vn 0.000000 0.000000 1.000000
vn 0.000000 0.000000 1.000000
vn 0.006310 0.989300 0.145763
vn 0.007221 0.981810 0.189728
vn 0.008686 0.963650 0.267026
vn -0.926313 0.000000 0.376754
vn -0.926313 0.000000 0.376754
vn -0.926313 0.000000 0.376754
vn -0.926313 0.000000 0.376754
vn -0.009542 -0.945283 0.326111
vn -0.009711 -0.968268 0.249726
vn -0.009960 -0.945120 0.326570
vn -0.009960 -0.945120 0.326570
vn -0.009960 -0.945121 0.326570
vn -0.009960 -0.945120 0.326570
vn 0.945903 0.000000 0.324449
vn 0.945903 0.000000 0.324449
vn 0.945903 0.000000 0.324449
vn 0.945903 0.000000 0.324449
vn 0.000000 0.000000 1.000000
vn 0.000000 0.000000 1.000000
vn 0.000000 0.000000 1.000000
vn 0.000000 0.000000 1.000000
vn 0.000000 0.000000 1.000000
vn 0.000000 0.000000 1.000000
vn -0.000000 0.000000 1.000000
vn -0.000000 0.000000 1.000000
vn -0.000000 0.000000 1.000000
vn -0.000000 0.000000 1.000000
vn 0.000000 0.000000 1.000000
vn 0.000000 0.000000 1.000000
vn -0.000000 0.000000 1.000000
vn -0.000000 0.000000 1.000000
vn -0.000000 0.000000 1.000000
vn 0.000000 0.000000 1.000000
vn 0.000000 0.000000 1.000000
vn 0.000000 0.000000 1.000000
vn -0.000000 0.000000 1.000000
vn -0.000000 0.000000 1.000000
vn 0.000000 0.000000 1.000000
vn 0.000000 0.000000 1.000000
vn 0.000000 0.000000 1.000000
vn 0.000000 0.000000 1.000000
vn -0.000000 0.000000 1.000000
vn -0.000000 0.000000 1.000000
vn -0.000000 0.000000 1.000000
vn -0.000000 0.000000 1.000000
vn -0.090108 0.995932 0.000000
vn -0.090108 0.995932 0.000000
vn -0.090108 0.995932 0.000000
vn -0.090108 0.995932 0.000000
vn 0.090108 -0.995932 0.000000
vn 0.090108 -0.995932 0.000000
vn 0.090108 -0.995932 0.000000
vn 0.090108 -0.995932 0.000000
vn 0.000000 0.000000 1.000000
vn 0.000000 0.000000 1.000000
vn 0.000000 0.000000 1.000000
vn 0.000000 0.000000 1.000000
vn 0.007688 -0.999970 0.000000
vn 0.007688 -0.999970 0.000000
vn 0.007688 -0.999970 0.000000
vn 0.007688 -0.999970 0.000000
vn -0.009771 -0.985442 0.169734
vn -0.009711 -0.968268 0.249726
vn -0.009232 -0.984704 0.173990
vn -0.009771 -0.985442 0.169734
vn -0.009771 -0.985442 0.169734
vn -0.009771 -0.985441 0.169734
vn -0.009232 -0.984704 0.173990
vn -0.009711 -0.968268 0.249726
vn -0.009542 -0.945283 0.326111
vn 0.000000 0.000000 1.000000
vn 0.000000 0.000000 1.000000
vn 0.000000 0.000000 1.000000
vn 0.000000 0.000000 1.000000
vn 0.012123 0.999078 0.041185
vn 0.007088 0.999106 0.041688
vn -0.011161 0.998991 0.043501
vn -0.011161 0.998991 0.043501
vn 0.006280 0.990105 0.140187
vn 0.007221 0.981810 0.189728
vn 0.006310 0.989300 0.145763
vn 0.006280 0.990105 0.140187
vn 0.006280 0.990105 0.140187
vn 0.006280 0.990105 0.140187
vn 0.008686 0.963650 0.267026
vn 0.007221 0.981810 0.189728
vn 0.008716 0.963578 0.267286
vn 0.008716 0.963578 0.267286
vn 0.008716 0.963578 0.267286
vn 0.008716 0.963578 0.267286
vn 0.000000 0.000000 1.000000
vn -0.000000 0.000000 1.000000
vn -0.000000 0.000000 1.000000
vn 0.000000 0.000000 1.000000
vn 0.035699 -0.998299 0.046087
vn 0.007175 -0.999177 0.039912
vn 0.018505 -0.998931 0.042369
vn 0.035699 -0.998299 0.046087
s off
f 17/45/1 18/46/2 25/37/3 26/32/4
f 3/3/5 44/84/6 45/85/7 5/5/8
f 47/88/9 48/89/10 8/8/11 2/10/12
f 2/2/13 8/11/14 6/12/15 4/4/16
f 7/13/17 1/1/18 3/3/19 5/14/20
f 46/86/21 47/87/22 2/2/23 10/16/24
f 2/2/25 4/4/26 11/17/27 10/16/28
f 43/83/29 44/84/30 3/3/31 12/18/32
f 3/3/33 1/1/34 9/15/35 12/18/36
f 18/58/37 46/86/38 25/51/39
f 10/16/40 11/17/41 15/21/42 14/50/43
f 17/23/44 43/83/45 12/18/46 16/22/47 20/60/48 24/40/49
f 12/18/50 9/15/51 13/61/52 16/22/53
f 13/19/54 19/59/55 20/26/56 16/62/57
f 20/44/58 19/25/59 23/39/60 24/30/61
f 22/42/62 21/41/63 27/35/64 28/34/65
f 24/56/66 23/29/67 18/24/68 17/57/69
f 26/52/70 25/31/71 21/27/72 22/53/73
f 28/48/74 27/33/75 14/20/76 15/49/77
f 29/63/78 30/64/79 32/65/80 31/66/81
f 31/67/82 32/68/83 34/69/84 33/70/85
f 35/71/86 36/72/87 30/73/88 29/74/89
f 37/75/90 38/76/91 40/77/92 39/78/93
f 41/79/94 42/80/95 38/81/96 37/82/97
f 11/17/98 43/83/99 26/38/100 22/28/101 28/36/102 15/21/103
f 26/38/104 43/83/105 17/23/106
f 4/4/107 44/84/108 43/83/109 11/17/110
f 45/85/111 44/84/112 4/4/113 6/6/114
f 9/15/115 46/86/116 18/58/117 23/55/118 19/43/119 13/61/120
f 25/51/121 46/86/122 10/16/123 14/50/124 27/47/125 21/54/126
f 1/1/127 47/87/128 46/86/129 9/15/130
f 7/7/131 48/89/132 47/88/133 1/9/134
