# This file uses centimeters as units for non-parametric coordinates.

v -0.043556 0.000000 0.006111
v 0.010529 0.000000 0.006111
v -0.045853 1.070080 0.008408
v 0.012825 1.070080 0.008408
v -0.045853 1.070080 -0.050270
v 0.012825 1.070080 -0.050270
v -0.043556 0.000000 -0.047974
v 0.010529 0.000000 -0.047974
v -0.058784 1.018335 -0.063202
v -0.058784 1.018335 0.021339
v 0.025757 1.018335 0.021339
v 0.025757 1.018335 -0.063202
v -0.051361 0.189307 -0.055779
v -0.051361 0.189307 0.013916
v 0.018333 0.189307 0.013916
v 0.018333 0.189307 -0.055779
v 0.023010 0.871195 0.014404
v -0.046295 0.884978 0.014404
v -0.046295 0.884978 -0.056259
v 0.023010 0.871195 -0.056259
v -0.056038 0.835992 -0.056259
v -0.056038 0.835991 0.014404
v 0.013268 0.822208 0.014404
v 0.013268 0.822208 -0.056259
v 0.037636 0.863288 0.030281
v -0.062828 0.883268 0.030281
v -0.062828 0.883268 -0.072144
v 0.037636 0.863288 -0.072144
v -0.070663 0.843882 -0.072144
v -0.070663 0.843882 0.030281
v 0.029800 0.823902 0.030281
v 0.029800 0.823902 -0.072144
v -0.047638 0.393053 -0.035988
v -0.032410 0.333139 0.011810
v 0.014610 0.274776 -0.005875
v -0.000618 0.334690 -0.053673
v -0.367607 0.892777 0.059906
v -0.373291 0.845512 0.059906
v 0.373283 0.803503 0.059906
v 0.367599 0.756239 0.059906
v 0.373283 0.803503 0.012299
v 0.367599 0.756239 0.012299
v -0.367607 0.892777 0.012299
v -0.373291 0.845512 0.012299
v -0.076431 0.868921 0.001152
v -0.076431 0.868921 0.071060
v -0.021568 0.791901 0.071060
v -0.021568 0.791901 0.001152
v 0.034775 0.785113 0.071060
v -0.016525 0.861704 0.071060
v -0.016525 0.861704 0.001152
v 0.034775 0.785113 0.001152
v 0.049278 0.794595 0.059906
v 0.006401 0.847713 0.059906
v 0.006401 0.847713 0.012299
v 0.049278 0.794595 0.012299
v -0.084381 0.858651 0.012299
v -0.084381 0.858651 0.059906
v -0.041504 0.805533 0.059906
v -0.041496 0.805533 0.012299
v -0.332916 0.902334 0.011787
v -0.334076 0.891911 0.072151
v -0.333260 0.830960 0.061653
v -0.332100 0.841382 0.001282
v 0.322525 0.747894 0.060379
v 0.324524 0.808490 0.070877
v 0.325676 0.818912 0.010513
v 0.323685 0.758316 0.000015
vt 0.330624 0.162384
vt 0.330624 0.162384
vt 0.330624 0.162384
vt 0.330624 0.162384
vt 0.330624 0.162384
vt 0.330624 0.162384
vt 0.330624 0.162384
vt 0.330624 0.162384
vt 0.330624 0.162384
vt 0.330624 0.162384
vt 0.330624 0.162384
vt 0.330624 0.162384
vt 0.330624 0.162384
vt 0.330624 0.162384
vt 0.330624 0.162384
vt 0.330624 0.162384
vt 0.330624 0.162384
vt 0.330624 0.162384
vt 0.330624 0.162384
vt 0.330624 0.162384
vt 0.330624 0.162384
vt 0.330624 0.162384
vt 0.330624 0.162384
vt 0.330624 0.162384
vt 0.330624 0.162384
vt 0.330624 0.162384
vt 0.330624 0.162384
vt 0.330624 0.162384
vt 0.330624 0.162384
vt 0.330624 0.162384
vt 0.330624 0.162384
vt 0.330624 0.162384
vt 0.330624 0.162384
vt 0.330624 0.162384
vt 0.330624 0.162384
vt 0.330624 0.162384
vt 0.330624 0.162384
vt 0.330624 0.162384
vt 0.361397 0.160435
vt 0.361397 0.160435
vt 0.361397 0.160435
vt 0.361397 0.160435
vt 0.361397 0.160435
vt 0.361397 0.160435
vt 0.361397 0.160435
vt 0.361397 0.160435
vt 0.361397 0.160435
vt 0.361397 0.160435
vt 0.361397 0.160435
vt 0.361397 0.160435
vt 0.330624 0.162384
vt 0.330624 0.162384
vt 0.330624 0.162384
vt 0.330624 0.162384
vt 0.330624 0.162384
vt 0.330624 0.162384
vt 0.361397 0.160435
vt 0.361397 0.160435
vt 0.361397 0.160435
vt 0.361397 0.160435
vt 0.362923 0.160163
vt 0.362923 0.160163
vt 0.362923 0.160163
vt 0.362923 0.160163
vt 0.327689 0.160841
vt 0.327689 0.160841
vt 0.327689 0.160841
vt 0.327689 0.160841
vt 0.362923 0.160163
vt 0.362923 0.160163
vt 0.362923 0.160163
vt 0.362923 0.160163
vt 0.327689 0.160841
vt 0.327689 0.160841
vt 0.327689 0.160841
vt 0.327689 0.160841
vt 0.362923 0.160163
vt 0.362923 0.160163
vt 0.362923 0.160163
vt 0.362923 0.160163
vt 0.362923 0.160163
vt 0.362923 0.160163
vt 0.362923 0.160163
vt 0.362923 0.160163
vt 0.327689 0.160841
vt 0.327689 0.160841
vt 0.327689 0.160841
vt 0.327689 0.160841
vt 0.327689 0.160841
vt 0.327689 0.160841
vt 0.327689 0.160841
vt 0.327689 0.160841
vt 0.327689 0.160841
vt 0.327689 0.160841
vt 0.327689 0.160841
vt 0.327689 0.160841
vt 0.327689 0.160841
vt 0.327689 0.160841
vt 0.327689 0.160841
vt 0.327689 0.160841
vt 0.327689 0.160841
vt 0.327689 0.160841
vt 0.327689 0.160841
vt 0.327689 0.160841
vt 0.327689 0.160841
vt 0.327689 0.160841
vt 0.327689 0.160841
vt 0.327689 0.160841
vt 0.327689 0.160841
vt 0.327689 0.160841
vt 0.327689 0.160841
vt 0.327689 0.160841
vt 0.327689 0.160841
vt 0.327689 0.160841
vn 0.000000 0.242457 0.970162
vn 0.000000 0.242457 0.970162
vn 0.000000 0.242457 0.970162
vn 0.000000 0.242457 0.970162
vn 0.000000 1.000000 0.000000
vn 0.000000 1.000000 0.000000
vn 0.000000 1.000000 0.000000
vn 0.000000 1.000000 0.000000
vn 0.000000 0.242457 -0.970162
vn 0.000000 0.242457 -0.970162
vn 0.000000 0.242457 -0.970162
vn 0.000000 0.242457 -0.970162
vn 0.000000 -1.000000 0.000000
vn 0.000000 -1.000000 0.000000
vn 0.000000 -1.000000 0.000000
vn 0.000000 -1.000000 0.000000
vn 0.970162 0.242457 0.000001
vn 0.970162 0.242457 0.000001
vn 0.970162 0.242457 0.000001
vn 0.970162 0.242457 0.000001
vn -0.970162 0.242457 0.000001
vn -0.970162 0.242457 0.000001
vn -0.970162 0.242457 0.000001
vn -0.970162 0.242457 0.000001
vn -0.980781 0.195113 0.000000
vn -0.980781 0.195113 0.000000
vn -0.980781 0.195113 0.000000
vn -0.980781 0.195113 0.000000
vn 0.000000 0.000000 1.000000
vn 0.000000 0.000000 1.000000
vn 0.000000 0.000000 1.000000
vn 0.000000 0.000000 1.000000
vn 0.980781 -0.195113 -0.000000
vn 0.980781 -0.195113 -0.000000
vn 0.980781 -0.195113 -0.000000
vn 0.980781 -0.195113 -0.000000
vn 0.000000 0.000000 -1.000000
vn 0.000000 0.000000 -1.000000
vn 0.000000 0.000000 -1.000000
vn 0.000000 0.000000 -1.000000
vn -0.999151 -0.041194 0.000000
vn -0.999151 -0.041194 0.000000
vn -0.999151 -0.041194 0.000000
vn -0.999151 -0.041194 0.000000
vn 0.000000 -0.041194 0.999151
vn 0.000000 -0.041194 0.999151
vn 0.000000 -0.041194 0.999151
vn 0.000000 -0.041194 0.999151
vn 0.999151 -0.041194 0.000000
vn 0.999151 -0.041194 0.000000
vn 0.999151 -0.041194 0.000000
vn 0.999151 -0.041194 0.000000
vn 0.000000 -0.041194 -0.999151
vn 0.000000 -0.041194 -0.999151
vn 0.000000 -0.041194 -0.999151
vn 0.000000 -0.041194 -0.999151
vn -0.004439 -0.049542 0.998762
vn -0.004439 -0.049542 0.998762
vn -0.004439 -0.049542 0.998762
vn -0.004439 -0.049542 0.998762
vn -0.995643 -0.093246 -0.000000
vn -0.995643 -0.093246 -0.000000
vn -0.995643 -0.093246 -0.000000
vn -0.995643 -0.093246 -0.000000
vn -0.004443 -0.049596 -0.998760
vn -0.004443 -0.049596 -0.998760
vn -0.004443 -0.049596 -0.998760
vn -0.004443 -0.049596 -0.998759
vn 0.999826 -0.018663 -0.000000
vn 0.999826 -0.018663 -0.000000
vn 0.999826 -0.018663 -0.000000
vn 0.999826 -0.018663 -0.000000
vn -0.993238 -0.031547 0.111726
vn -0.993238 -0.031547 0.111726
vn -0.993238 -0.031547 0.111726
vn -0.993238 -0.031547 0.111726
vn 0.139204 -0.018252 0.990096
vn 0.139204 -0.018252 0.990096
vn 0.139204 -0.018252 0.990096
vn 0.139204 -0.018252 0.990096
vn 0.991156 -0.009750 -0.132344
vn 0.991156 -0.009750 -0.132344
vn 0.991156 -0.009750 -0.132344
vn 0.991156 -0.009750 -0.132344
vn -0.164345 -0.023256 -0.986129
vn -0.164345 -0.023256 -0.986129
vn -0.164345 -0.023256 -0.986129
vn -0.164345 -0.023256 -0.986129
vn 0.186377 0.937141 0.295010
vn 0.186377 0.937141 0.295010
vn 0.186377 0.937141 0.295010
vn 0.186377 0.937141 0.295010
vn -0.102881 0.994694 0.000001
vn -0.102881 0.994694 0.000001
vn -0.102881 0.994694 0.000001
vn -0.102881 0.994694 0.000001
vn 0.186384 0.937180 -0.294879
vn 0.186384 0.937181 -0.294879
vn 0.186384 0.937181 -0.294879
vn 0.186384 0.937181 -0.294879
vn 0.475558 0.879684 0.000002
vn 0.475558 0.879684 0.000002
vn 0.475558 0.879684 0.000002
vn 0.475558 0.879684 0.000002
vn -0.474799 -0.880094 -0.000001
vn -0.474799 -0.880094 -0.000001
vn -0.474799 -0.880094 -0.000001
vn -0.474799 -0.880094 -0.000001
vn -0.186427 -0.937405 0.294138
vn -0.186427 -0.937405 0.294138
vn -0.186427 -0.937405 0.294138
vn -0.186427 -0.937405 0.294138
vn 0.101919 -0.994793 -0.000001
vn 0.101919 -0.994793 -0.000001
vn 0.101919 -0.994793 -0.000001
vn 0.101919 -0.994793 -0.000001
vn -0.186435 -0.937445 -0.294005
vn -0.186435 -0.937445 -0.294005
vn -0.186435 -0.937445 -0.294005
vn -0.186435 -0.937445 -0.294005
vn -0.986061 0.056362 0.156545
vn -0.986061 0.056362 0.156545
vn -0.986061 0.056362 0.156545
vn -0.986061 0.056362 0.156545
vn 0.188758 0.080921 0.978684
vn 0.188758 0.080921 0.978684
vn 0.188758 0.080921 0.978684
vn 0.188758 0.080921 0.978684
vn 0.992441 0.091187 -0.082131
vn 0.992441 0.091187 -0.082131
vn 0.992441 0.091187 -0.082131
vn 0.992441 0.091187 -0.082131
vn -0.121727 0.056839 -0.990935
vn -0.121727 0.056839 -0.990935
vn -0.121727 0.056839 -0.990935
vn -0.121727 0.056839 -0.990935
vn 0.000000 0.000000 1.000000
vn 0.000000 0.000000 1.000000
vn 0.000000 0.000000 1.000000
vn 0.000000 0.000000 1.000000
vn 0.992847 -0.119398 0.000000
vn 0.992847 -0.119398 0.000000
vn 0.992847 -0.119398 0.000000
vn 0.992847 -0.119398 0.000000
vn -0.000000 0.000000 -1.000000
vn -0.000000 0.000000 -1.000000
vn -0.000000 0.000000 -1.000000
vn -0.000000 0.000000 -1.000000
vn -0.992847 0.119396 0.000000
vn -0.992847 0.119396 0.000000
vn -0.992847 0.119396 0.000000
vn -0.992847 0.119396 0.000000
vn -0.119623 -0.992819 0.000000
vn -0.119623 -0.992819 0.000000
vn -0.119623 -0.992819 0.000000
vn -0.119623 -0.992819 0.000000
vn 0.119616 0.992820 0.000000
vn 0.119616 0.992820 0.000000
vn 0.119616 0.992820 0.000000
vn 0.119616 0.992820 0.000000
vn -0.790794 0.612083 0.000000
vn -0.790794 0.612083 0.000000
vn -0.790794 0.612083 0.000000
vn -0.790794 0.612083 0.000000
vn -0.591674 -0.444380 0.672643
vn -0.591674 -0.444380 0.672643
vn -0.591674 -0.444380 0.672643
vn -0.591674 -0.444380 0.672643
vn -0.564527 -0.825415 -0.000037
vn -0.564527 -0.825415 -0.000037
vn -0.564527 -0.825415 -0.000037
vn -0.564527 -0.825415 -0.000037
vn -0.591565 -0.444333 -0.672770
vn -0.591565 -0.444333 -0.672770
vn -0.591565 -0.444333 -0.672770
vn -0.591565 -0.444333 -0.672770
vn 0.508238 0.369014 0.778153
vn 0.508238 0.369014 0.778154
vn 0.508238 0.369014 0.778153
vn 0.508238 0.369014 0.778153
vn 0.520927 0.853601 0.000000
vn 0.520927 0.853601 0.000000
vn 0.520927 0.853601 0.000000
vn 0.520927 0.853601 0.000000
vn 0.508027 0.368861 -0.778363
vn 0.508027 0.368861 -0.778363
vn 0.508027 0.368861 -0.778363
vn 0.508027 0.368861 -0.778363
vn 0.547213 -0.836993 0.000000
vn 0.547213 -0.836993 0.000000
vn 0.547213 -0.836994 0.000000
vn 0.547213 -0.836993 0.000000
vn -0.034363 -0.104116 0.993971
vn -0.034363 -0.104116 0.993971
vn -0.034363 -0.104116 0.993971
vn -0.034363 -0.104116 0.993971
vn 0.104244 0.989843 0.096662
vn 0.104244 0.989843 0.096662
vn 0.104244 0.989843 0.096662
vn 0.104244 0.989843 0.096662
vn -0.014079 0.086899 -0.996118
vn -0.014079 0.086899 -0.996118
vn -0.014079 0.086899 -0.996118
vn -0.014079 0.086899 -0.996118
vn -0.151145 -0.983782 -0.096588
vn -0.151145 -0.983782 -0.096588
vn -0.151145 -0.983782 -0.096588
vn -0.151145 -0.983782 -0.096588
vn 0.154134 0.983319 0.096576
vn 0.154134 0.983319 0.096576
vn 0.154134 0.983319 0.096576
vn 0.154134 0.983319 0.096576
vn 0.016492 -0.085367 0.996213
vn 0.016492 -0.085367 0.996213
vn 0.016492 -0.085367 0.996213
vn 0.016492 -0.085367 0.996213
vn -0.102629 -0.990011 -0.096669
vn -0.102629 -0.990011 -0.096669
vn -0.102629 -0.990011 -0.096669
vn -0.102629 -0.990011 -0.096669
vn 0.036830 0.105631 -0.993723
vn 0.036830 0.105631 -0.993723
vn 0.036830 0.105631 -0.993723
vn 0.036830 0.105631 -0.993723
vn -0.141648 0.985481 0.093608
vn -0.141648 0.985481 0.093608
vn -0.141648 0.985481 0.093608
vn -0.141648 0.985481 0.093608
vn -0.203434 -0.085468 0.975351
vn -0.203434 -0.085468 0.975351
vn -0.203434 -0.085468 0.975351
vn -0.203434 -0.085468 0.975351
vn -0.233512 -0.967613 -0.095905
vn -0.233512 -0.967613 -0.095905
vn -0.233512 -0.967613 -0.095905
vn -0.233512 -0.967613 -0.095905
vn -0.156562 0.102408 -0.982345
vn -0.156562 0.102408 -0.982345
vn -0.156562 0.102408 -0.982345
vn -0.156562 0.102408 -0.982345
vn 0.124095 -0.104876 0.986713
vn 0.124095 -0.104876 0.986712
vn 0.124095 -0.104876 0.986713
vn 0.124095 -0.104876 0.986713
vn 0.214853 0.971906 0.096110
vn 0.214853 0.971906 0.096110
vn 0.214853 0.971906 0.096110
vn 0.214853 0.971906 0.096110
vn 0.167009 0.083732 -0.982394
vn 0.167009 0.083732 -0.982393
vn 0.167009 0.083732 -0.982393
vn 0.167009 0.083732 -0.982394
vn 0.082476 -0.992066 -0.094880
vn 0.082476 -0.992066 -0.094880
vn 0.082476 -0.992066 -0.094880
vn 0.082476 -0.992066 -0.094880
s off
f 10/17/1 11/18/2 4/4/3 3/3/4
f 3/3/5 4/4/6 6/6/7 5/5/8
f 5/5/9 6/6/10 12/19/11 9/16/12
f 7/7/13 8/8/14 2/10/15 1/9/16
f 11/18/17 12/20/18 6/12/19 4/4/20
f 9/15/21 10/17/22 3/3/23 5/14/24
f 29/39/25 30/40/26 26/41/27 27/42/28
f 30/40/29 31/43/30 25/44/31 26/41/32
f 31/43/33 32/45/34 28/46/35 25/44/36
f 27/42/37 28/46/38 32/45/39 29/39/40
f 7/13/41 1/1/42 14/23/43 13/21/44
f 1/1/45 2/2/46 15/24/47 14/23/48
f 2/2/49 8/11/50 16/26/51 15/24/52
f 13/22/53 16/25/54 8/8/55 7/7/56
f 18/28/57 17/27/58 11/18/59 10/17/60
f 19/29/61 18/28/62 10/17/63 9/15/64
f 9/16/65 12/19/66 20/31/67 19/30/68
f 17/27/69 20/32/70 12/20/71 11/18/72
f 33/51/73 34/53/74 22/35/75 21/33/76
f 34/53/77 35/54/78 23/36/79 22/35/80
f 35/54/81 36/56/82 24/38/83 23/36/84
f 21/34/85 24/37/86 36/55/87 33/52/88
f 26/41/89 25/44/90 17/47/91 18/48/92
f 27/42/93 26/41/94 18/48/95 19/49/96
f 19/49/97 20/50/98 28/46/99 27/42/100
f 25/44/101 28/46/102 20/50/103 17/47/104
f 21/57/105 22/58/106 30/40/107 29/39/108
f 22/58/109 23/59/110 31/43/111 30/40/112
f 23/59/113 24/60/114 32/45/115 31/43/116
f 29/39/117 32/45/118 24/60/119 21/57/120
f 13/21/121 14/23/122 34/53/123 33/51/124
f 14/23/125 15/24/126 35/54/127 34/53/128
f 15/24/129 16/26/130 36/56/131 35/54/132
f 33/52/133 36/55/134 16/25/135 13/22/136
f 46/61/137 47/62/138 49/63/139 50/64/140
f 39/65/141 40/66/142 42/67/143 41/68/144
f 51/69/145 52/70/146 48/71/147 45/72/148
f 43/73/149 44/74/150 38/75/151 37/76/152
f 47/62/153 48/71/154 52/70/155 49/63/156
f 45/72/157 46/61/158 50/64/159 51/69/160
f 57/77/161 58/78/162 46/61/163 45/72/164
f 58/78/165 59/79/166 47/62/167 46/61/168
f 59/79/169 60/80/170 48/71/171 47/62/172
f 45/72/173 48/71/174 60/80/175 57/77/176
f 50/64/177 49/63/178 53/81/179 54/82/180
f 51/69/181 50/64/182 54/82/183 55/83/184
f 55/83/185 56/84/186 52/70/187 51/69/188
f 49/63/189 52/70/190 56/84/191 53/81/192
f 54/85/193 53/86/194 65/87/195 66/88/196
f 55/89/197 54/85/198 66/88/199 67/90/200
f 67/91/201 68/92/202 56/93/203 55/94/204
f 53/86/205 56/95/206 68/96/207 65/87/208
f 61/97/209 62/98/210 58/99/211 57/100/212
f 62/98/213 63/101/214 59/102/215 58/99/216
f 63/101/217 64/103/218 60/104/219 59/102/220
f 57/105/221 60/106/222 64/107/223 61/108/224
f 43/109/225 37/110/226 62/98/227 61/97/228
f 37/110/229 38/111/230 63/101/231 62/98/232
f 38/111/233 44/112/234 64/103/235 63/101/236
f 61/108/237 64/107/238 44/74/239 43/73/240
f 66/88/241 65/87/242 40/66/243 39/65/244
f 67/90/245 66/88/246 39/65/247 41/113/248
f 41/68/249 42/67/250 68/92/251 67/91/252
f 65/87/253 68/96/254 42/114/255 40/66/256
