# This file uses centimeters as units for non-parametric coordinates.

v 0.000000 0.284491 0.000580
v 0.439729 0.284491 -1.354290
v 0.380551 0.284491 -1.574001
v 0.219711 0.284491 -1.734840
v 0.000000 0.284491 -1.793712
v -0.219711 0.284491 -1.734840
v -0.380551 0.284491 -1.574001
v -0.439729 0.284491 -1.354290
v 1.354289 0.284491 0.439729
v 1.574001 0.284491 0.380551
v 1.734841 0.284491 0.219711
v 1.793712 0.284491 -0.000000
v 1.734841 0.284491 -0.219711
v 1.574001 0.284491 -0.380551
v 1.354290 0.284491 -0.439729
v -0.439729 0.284491 1.354289
v -0.380551 0.284491 1.574580
v -0.219711 0.284491 1.735420
v -0.000000 0.284491 1.793712
v 0.219711 0.284491 1.734840
v 0.380551 0.284491 1.574001
v 0.439729 0.284491 1.354289
v -1.354289 0.284491 -0.439729
v -1.574001 0.284491 -0.380551
v -1.734841 0.284491 -0.219711
v -1.793712 0.284491 0.000000
v -1.734841 0.284491 0.219711
v -1.574001 0.284491 0.380551
v -1.354289 0.284491 0.439729
v 1.152028 0.284491 -0.836997
v 0.836997 0.284491 -1.152028
v -0.836997 0.284491 -1.152028
v -1.152028 0.284491 -0.836997
v -1.152027 0.284491 0.836997
v -0.836997 0.284491 1.152027
v 0.836997 0.284491 1.152027
v 1.152027 0.284491 0.836997
v 0.675757 0.774765 -0.390149
v 0.390149 0.774765 -0.675757
v 0.000000 0.774765 -0.780297
v -0.390149 0.774765 -0.675757
v -0.675757 0.774765 -0.390149
v -0.780297 0.774765 0.000000
v -0.675757 0.774765 0.390149
v -0.390149 0.774765 0.675757
v 0.000000 0.774765 0.780297
v 0.390149 0.774765 0.675757
v 0.675757 0.774765 0.390149
v 0.780297 0.774765 0.000000
v 0.000000 0.774765 0.000000
v 0.335564 1.375342 -0.193738
v 0.193738 1.375342 -0.335564
v 0.000000 1.375342 -0.387475
v -0.193738 1.375342 -0.335564
v -0.335564 1.375342 -0.193738
v -0.387475 1.375342 0.000000
v -0.335564 1.375342 0.193738
v -0.193738 1.375342 0.335564
v 0.000000 1.375342 0.387475
v 0.193738 1.375342 0.335564
v 0.335564 1.375342 0.193738
v 0.387475 1.375342 0.000000
v 0.000000 1.375342 0.000000
v 0.257030 1.977805 -0.148396
v 0.148396 1.977805 -0.257030
v 0.000000 1.977805 -0.296792
v -0.148396 1.977805 -0.257030
v -0.257030 1.977805 -0.148396
v -0.296792 1.977805 0.000000
v -0.257030 1.977805 0.148396
v -0.148396 1.977805 0.257030
v 0.000000 1.977805 0.296792
v 0.148396 1.977805 0.257030
v 0.257030 1.977805 0.148396
v 0.296792 1.977805 0.000000
v 0.000000 1.977805 0.000000
v 0.148325 2.459504 -0.085635
v 0.085635 2.459504 -0.148325
v 0.000000 2.459504 -0.171271
v -0.085635 2.459504 -0.148325
v -0.148325 2.459504 -0.085635
v -0.171271 2.459504 0.000000
v -0.148325 2.459504 0.085635
v -0.085635 2.459504 0.148325
v 0.000000 2.459504 0.171271
v 0.085635 2.459504 0.148325
v 0.148325 2.459504 0.085635
v 0.171271 2.459504 0.000000
v 0.000000 2.459504 0.000000
vt 0.632645 0.571096
vt 0.632645 0.571096
vt 0.632645 0.571096
vt 0.632645 0.571096
vt 0.632645 0.571096
vt 0.632645 0.571096
vt 0.632645 0.571096
vt 0.632645 0.571096
vt 0.632645 0.571096
vt 0.632645 0.571096
vt 0.632645 0.571096
vt 0.632645 0.571096
vt 0.632645 0.571096
vt 0.632645 0.571096
vt 0.632645 0.571096
vt 0.632645 0.571096
vt 0.632645 0.571096
vt 0.632645 0.571096
vt 0.632645 0.571096
vt 0.632645 0.571096
vt 0.632645 0.571096
vt 0.632645 0.571096
vt 0.632645 0.571096
vt 0.632645 0.571096
vt 0.632645 0.571096
vt 0.632645 0.571096
vt 0.632645 0.571096
vt 0.632645 0.571096
vt 0.632645 0.571096
vt 0.632645 0.571096
vt 0.632645 0.571096
vt 0.632645 0.571096
vt 0.632645 0.571096
vt 0.632645 0.571096
vt 0.632645 0.571096
vt 0.632645 0.571096
vt 0.632645 0.571096
vt 0.632645 0.571096
vt 0.632645 0.571096
vt 0.632645 0.571096
vt 0.632645 0.571096
vt 0.632645 0.571096
vt 0.632645 0.571096
vt 0.632645 0.571096
vt 0.632645 0.571096
vt 0.632645 0.571096
vt 0.632645 0.571096
vt 0.632645 0.571096
vt 0.632645 0.571096
vt 0.632645 0.571096
vt 0.632645 0.571096
vt 0.632645 0.571096
vt 0.632645 0.571096
vt 0.632645 0.571096
vt 0.632645 0.571096
vt 0.632645 0.571096
vt 0.632645 0.571096
vt 0.632645 0.571096
vt 0.632645 0.571096
vt 0.632645 0.571096
vt 0.632645 0.571096
vt 0.632645 0.571096
vt 0.632645 0.571096
vt 0.632645 0.571096
vt 0.632645 0.571096
vt 0.632645 0.571096
vt 0.632645 0.571096
vt 0.632645 0.571096
vt 0.632645 0.571096
vt 0.632645 0.571096
vt 0.632645 0.571096
vt 0.632645 0.571096
vt 0.632645 0.571096
vt 0.632645 0.571096
vt 0.632645 0.571096
vt 0.632645 0.571096
vt 0.632645 0.571096
vt 0.632645 0.571096
vt 0.632645 0.571096
vt 0.632645 0.571096
vt 0.632645 0.571096
vt 0.632645 0.571096
vt 0.632645 0.571096
vt 0.632645 0.571096
vt 0.632645 0.571096
vt 0.632645 0.571096
vt 0.632645 0.571096
vt 0.632645 0.571096
vt 0.632645 0.571096
vt 0.632645 0.571096
vt 0.632645 0.571096
vt 0.632645 0.571096
vt 0.632645 0.571096
vt 0.632645 0.571096
vt 0.632645 0.571096
vt 0.632645 0.571096
vt 0.632645 0.571096
vt 0.632645 0.571096
vt 0.632645 0.571096
vt 0.632645 0.571096
vt 0.632645 0.571096
vt 0.632645 0.571096
vt 0.632645 0.571096
vt 0.632645 0.571096
vt 0.632645 0.571096
vt 0.632645 0.571096
vt 0.632645 0.571096
vt 0.632645 0.571096
vt 0.636676 0.571855
vt 0.636676 0.571855
vt 0.636676 0.571855
vt 0.636676 0.571855
vt 0.636676 0.571855
vt 0.636676 0.571855
vt 0.636676 0.571855
vt 0.636676 0.571855
vt 0.636676 0.571855
vt 0.636676 0.571855
vt 0.636676 0.571855
vt 0.636676 0.571855
vt 0.636676 0.571855
vt 0.636676 0.571855
vt 0.636676 0.571855
vt 0.636676 0.571855
vt 0.636676 0.571855
vt 0.636676 0.571855
vt 0.636676 0.571855
vt 0.636676 0.571855
vt 0.636676 0.571855
vt 0.636676 0.571855
vt 0.636676 0.571855
vt 0.636676 0.571855
vt 0.636676 0.571855
vt 0.636676 0.571855
vt 0.636676 0.571855
vt 0.636676 0.571855
vt 0.636676 0.571855
vt 0.636676 0.571855
vt 0.636676 0.571855
vt 0.636676 0.571855
vt 0.636676 0.571855
vt 0.636676 0.571855
vt 0.636676 0.571855
vt 0.636676 0.571855
vt 0.636676 0.571855
vt 0.636676 0.571855
vt 0.636676 0.571855
vt 0.636676 0.571855
vt 0.636676 0.571855
vt 0.636676 0.571855
vt 0.636676 0.571855
vt 0.636676 0.571855
vt 0.636676 0.571855
vt 0.636676 0.571855
vt 0.636676 0.571855
vt 0.636676 0.571855
vt 0.636676 0.571855
vt 0.636676 0.571855
vt 0.636676 0.571855
vt 0.636676 0.571855
vn 0.000000 1.000000 0.000000
vn 0.000000 1.000000 0.000000
vn 0.000000 1.000000 0.000000
vn 0.000000 1.000000 0.000000
vn 0.000000 1.000000 0.000000
vn 0.000000 1.000000 0.000000
vn 0.000000 1.000000 0.000000
vn 0.000000 1.000000 0.000000
vn 0.000000 1.000000 0.000000
vn 0.000000 1.000000 0.000000
vn 0.000000 1.000000 0.000000
vn 0.000000 1.000000 0.000000
vn 0.000000 1.000000 -0.000000
vn 0.000000 1.000000 -0.000000
vn 0.000000 1.000000 -0.000000
vn 0.000000 1.000000 0.000000
vn 0.000000 1.000000 0.000000
vn 0.000000 1.000000 0.000000
vn 0.000000 1.000000 0.000000
vn 0.000000 1.000000 0.000000
vn 0.000000 1.000000 0.000000
vn 0.000000 1.000000 0.000000
vn 0.000000 1.000000 0.000000
vn 0.000000 1.000000 0.000000
vn 0.000000 1.000000 -0.000000
vn 0.000000 1.000000 -0.000000
vn 0.000000 1.000000 -0.000000
vn 0.000000 1.000000 0.000000
vn 0.000000 1.000000 0.000000
vn 0.000000 1.000000 0.000000
vn 0.000000 1.000000 0.000000
vn 0.000000 1.000000 0.000000
vn 0.000000 1.000000 0.000000
vn 0.000000 1.000000 0.000000
vn 0.000000 1.000000 0.000000
vn 0.000000 1.000000 0.000000
vn 0.000000 1.000000 0.000000
vn 0.000000 1.000000 0.000000
vn 0.000000 1.000000 0.000000
vn 0.000000 1.000000 -0.000000
vn 0.000000 1.000000 -0.000000
vn 0.000000 1.000000 -0.000000
vn 0.000000 1.000000 0.000000
vn 0.000000 1.000000 0.000000
vn 0.000000 1.000000 0.000000
vn 0.000000 1.000000 -0.000000
vn 0.000000 1.000000 -0.000000
vn 0.000000 1.000000 -0.000000
vn 0.000000 1.000000 0.000000
vn 0.000000 1.000000 0.000000
vn 0.000000 1.000000 0.000000
vn 0.000000 1.000000 0.000000
vn 0.000000 1.000000 0.000000
vn 0.000000 1.000000 0.000000
vn 0.000000 1.000000 -0.000000
vn 0.000000 1.000000 -0.000000
vn 0.000000 1.000000 -0.000000
vn 0.000000 1.000000 0.000000
vn 0.000000 1.000000 0.000000
vn 0.000000 1.000000 0.000000
vn 0.000000 1.000000 0.000000
vn 0.000000 1.000000 0.000000
vn 0.000000 1.000000 0.000000
vn 0.000000 1.000000 -0.000000
vn 0.000000 1.000000 -0.000000
vn 0.000000 1.000000 -0.000000
vn 0.000000 1.000000 0.000000
vn 0.000000 1.000000 0.000000
vn 0.000000 1.000000 0.000000
vn 0.000000 1.000000 0.000000
vn 0.000000 1.000000 0.000000
vn 0.000000 1.000000 0.000000
vn -0.000000 1.000000 -0.000000
vn -0.000000 1.000000 -0.000000
vn -0.000000 1.000000 -0.000000
vn 0.000000 1.000000 0.000000
vn 0.000000 1.000000 0.000000
vn 0.000000 1.000000 0.000000
vn 0.000000 1.000000 0.000000
vn 0.000000 1.000000 0.000000
vn 0.000000 1.000000 0.000000
vn -0.000000 1.000000 0.000000
vn -0.000000 1.000000 0.000000
vn -0.000000 1.000000 0.000000
vn -0.000000 1.000000 0.000000
vn -0.000000 1.000000 0.000000
vn -0.000000 1.000000 0.000000
vn 0.000000 1.000000 -0.000000
vn 0.000000 1.000000 -0.000000
vn 0.000000 1.000000 -0.000000
vn 0.000000 1.000000 0.000000
vn 0.000000 1.000000 0.000000
vn 0.000000 1.000000 0.000000
vn -0.000000 1.000000 0.000000
vn -0.000000 1.000000 0.000000
vn -0.000000 1.000000 0.000000
vn -0.000000 1.000000 0.000000
vn -0.000000 1.000000 0.000000
vn -0.000000 1.000000 0.000000
vn 0.000000 1.000000 -0.000000
vn 0.000000 1.000000 -0.000000
vn 0.000000 1.000000 -0.000000
vn 0.000000 1.000000 0.000000
vn 0.000000 1.000000 0.000000
vn 0.000000 1.000000 0.000000
vn -0.000000 1.000000 0.000000
vn -0.000000 1.000000 0.000000
vn -0.000000 1.000000 0.000000
vn 0.000000 1.000000 0.000000
vn 0.000000 1.000000 0.000000
vn 0.000000 1.000000 0.000000
vn 0.000000 1.000000 0.000000
vn 0.000000 1.000000 0.000000
vn 0.000000 1.000000 0.000000
vn 0.000000 1.000000 0.000000
vn 0.000000 1.000000 0.000000
vn 0.000000 1.000000 0.000000
vn 0.000000 1.000000 0.000000
vn 0.000000 1.000000 0.000000
vn 0.000000 1.000000 0.000000
vn 0.000000 1.000000 0.000000
vn 0.000000 1.000000 0.000000
vn 0.000000 1.000000 0.000000
vn 0.000000 1.000000 0.000000
vn 0.000000 1.000000 0.000000
vn 0.000000 1.000000 0.000000
vn 0.000000 1.000000 0.000000
vn 0.000000 1.000000 0.000000
vn 0.000000 1.000000 0.000000
vn 0.000000 1.000000 0.000000
vn 0.000000 1.000000 0.000000
vn 0.000000 1.000000 0.000000
vn 0.000000 1.000000 0.000000
vn 0.000000 1.000000 0.000000
vn 0.000000 1.000000 0.000000
vn 0.000000 1.000000 0.000000
vn 0.000000 1.000000 0.000000
vn 0.000000 1.000000 0.000000
vn 0.000000 1.000000 0.000000
vn 0.000000 1.000000 0.000000
vn 0.000000 1.000000 0.000000
vn 0.000000 1.000000 0.000000
vn 0.000000 1.000000 0.000000
vn 0.000000 1.000000 0.000000
vn 0.000000 1.000000 0.000000
vn 0.000000 1.000000 0.000000
vn 0.000000 1.000000 0.000000
vn 0.000000 1.000000 0.000000
vn 0.000000 1.000000 0.000000
vn 0.000000 1.000000 0.000000
vn 0.000000 1.000000 0.000000
vn 0.000000 1.000000 0.000000
vn 0.000000 1.000000 0.000000
vn 0.000000 1.000000 0.000000
vn 0.000000 1.000000 0.000000
vn 0.000000 1.000000 0.000000
vn 0.000000 1.000000 0.000000
vn 0.000000 1.000000 0.000000
vn 0.000000 1.000000 0.000000
vn 0.000000 1.000000 0.000000
vn 0.000000 1.000000 -0.000000
vn 0.000000 1.000000 0.000000
vn 0.000000 1.000000 -0.000000
vn 0.000000 1.000000 -0.000000
vn 0.000000 1.000000 0.000000
vn 0.000000 1.000000 -0.000000
vn 0.000000 1.000000 0.000000
vn 0.000000 1.000000 0.000000
vn 0.000000 1.000000 0.000000
vn 0.000000 1.000000 0.000000
vn 0.000000 1.000000 0.000000
vn 0.000000 1.000000 0.000000
vn 0.000000 1.000000 0.000000
vn 0.000000 1.000000 0.000000
vn 0.000000 1.000000 0.000000
vn 0.000000 1.000000 0.000000
vn 0.000000 1.000000 0.000000
vn 0.000000 1.000000 0.000000
vn 0.000000 1.000000 0.000000
vn 0.000000 1.000000 0.000000
vn 0.000000 1.000000 0.000000
vn 0.000000 1.000000 0.000001
vn 0.000000 1.000000 0.000000
vn 0.000000 1.000000 0.000001
vn 0.000000 1.000000 0.000000
vn 0.000000 1.000000 0.000000
vn 0.000000 1.000000 0.000000
vn 0.000000 1.000000 0.000001
vn 0.000000 1.000000 0.000000
vn 0.000000 1.000000 0.000001
vn 0.000000 1.000000 -0.000001
vn 0.000000 1.000000 0.000000
vn 0.000000 1.000000 -0.000001
vn 0.000000 1.000000 0.000000
vn 0.000000 1.000000 0.000000
vn 0.000000 1.000000 0.000000
vn 0.000000 1.000000 0.000000
vn 0.000000 1.000000 0.000000
vn 0.000000 1.000000 0.000000
vn 0.000000 1.000000 -0.000001
vn 0.000000 1.000000 0.000000
vn 0.000000 1.000000 -0.000001
vn 0.000000 1.000000 0.000000
vn 0.000000 1.000000 0.000000
vn 0.000000 1.000000 0.000000
vn 0.000000 1.000000 -0.000001
vn 0.000000 1.000000 0.000000
vn 0.000000 1.000000 -0.000001
vn 0.000000 1.000000 0.000001
vn 0.000000 1.000000 0.000000
vn 0.000000 1.000000 0.000001
vn 0.000000 1.000000 0.000000
vn 0.000000 1.000000 0.000000
vn 0.000000 1.000000 0.000000
vn 0.000000 1.000000 0.000000
vn 0.000000 1.000000 0.000000
vn 0.000000 1.000000 0.000002
vn 0.000000 1.000000 0.000000
vn 0.000000 1.000000 0.000000
vn 0.000000 1.000000 0.000000
vn 0.000000 1.000000 0.000000
vn 0.000000 1.000000 0.000000
vn 0.000000 1.000000 0.000000
vn 0.000000 1.000000 -0.000001
vn 0.000000 1.000000 0.000000
vn 0.000000 1.000000 -0.000001
vn 0.000000 1.000000 0.000001
vn 0.000000 1.000000 0.000000
vn 0.000000 1.000000 0.000001
vn 0.000000 1.000000 0.000000
vn 0.000000 1.000000 0.000000
vn 0.000000 1.000000 0.000000
vn 0.000000 1.000000 -0.000002
vn 0.000000 1.000000 0.000000
vn 0.000000 1.000000 -0.000002
vn 0.000000 1.000000 0.000000
vn 0.000000 1.000000 0.000000
vn 0.000000 1.000000 0.000000
vn 0.000000 1.000000 0.000000
vn 0.000000 1.000000 0.000000
vn 0.000000 1.000000 0.000000
vn 0.000000 1.000000 0.000001
vn 0.000000 1.000000 0.000000
vn 0.000000 1.000000 0.000001
vn 0.000000 1.000000 -0.000001
vn 0.000000 1.000000 0.000000
vn 0.000000 1.000000 -0.000001
vn 0.000000 1.000000 0.000000
vn 0.000000 1.000000 0.000000
vn 0.000000 1.000000 0.000000
vn 0.000000 1.000000 0.000002
vn 0.000000 1.000000 0.000000
s off
f 2/1/1 3/2/2 1/3/3
f 3/4/4 4/5/5 1/6/6
f 4/7/7 5/8/8 1/9/9
f 5/10/10 6/11/11 1/12/12
f 6/13/13 7/14/14 1/15/15
f 7/16/16 8/17/17 1/18/18
f 9/19/19 10/20/20 1/21/21
f 10/22/22 11/23/23 1/24/24
f 11/25/25 12/26/26 1/27/27
f 12/28/28 13/29/29 1/30/30
f 13/31/31 14/32/32 1/33/33
f 14/34/34 15/35/35 1/36/36
f 16/37/37 17/38/38 1/39/39
f 17/40/40 18/41/41 1/42/42
f 18/43/43 19/44/44 1/45/45
f 19/46/46 20/47/47 1/48/48
f 20/49/49 21/50/50 1/51/51
f 21/52/52 22/53/53 1/54/54
f 23/55/55 24/56/56 1/57/57
f 24/58/58 25/59/59 1/60/60
f 25/61/61 26/62/62 1/63/63
f 26/64/64 27/65/65 1/66/66
f 27/67/67 28/68/68 1/69/69
f 28/70/70 29/71/71 1/72/72
f 15/73/73 30/74/74 1/75/75
f 30/76/76 31/77/77 1/78/78
f 31/79/79 2/80/80 1/81/81
f 8/82/82 32/83/83 1/84/84
f 32/85/85 33/86/86 1/87/87
f 33/88/88 23/89/89 1/90/90
f 29/91/91 34/92/92 1/93/93
f 34/94/94 35/95/95 1/96/96
f 35/97/97 16/98/98 1/99/99
f 22/100/100 36/101/101 1/102/102
f 36/103/103 37/104/104 1/105/105
f 37/106/106 9/107/107 1/108/108
f 38/109/109 39/110/110 50/111/111
f 39/110/112 40/112/113 50/111/114
f 40/112/115 41/113/116 50/111/117
f 41/113/118 42/114/119 50/111/120
f 42/114/121 43/115/122 50/111/123
f 43/115/124 44/116/125 50/111/126
f 44/116/127 45/117/128 50/111/129
f 45/117/130 46/118/131 50/111/132
f 46/118/133 47/119/134 50/111/135
f 47/119/136 48/120/137 50/111/138
f 48/120/139 49/121/140 50/111/141
f 49/121/142 38/109/143 50/111/144
f 51/122/145 52/123/146 63/124/147
f 52/123/148 53/125/149 63/124/150
f 53/125/151 54/126/152 63/124/153
f 54/126/154 55/127/155 63/124/156
f 55/127/157 56/128/158 63/124/159
f 56/128/160 57/129/161 63/124/162
f 57/129/163 58/130/164 63/124/165
f 58/130/166 59/131/167 63/124/168
f 59/131/169 60/132/170 63/124/171
f 60/132/172 61/133/173 63/124/174
f 61/133/175 62/134/176 63/124/177
f 62/134/178 51/122/179 63/124/180
f 64/135/181 65/136/182 76/137/183
f 65/136/184 66/138/185 76/137/186
f 66/138/187 67/139/188 76/137/189
f 67/139/190 68/140/191 76/137/192
f 68/140/193 69/141/194 76/137/195
f 69/141/196 70/142/197 76/137/198
f 70/142/199 71/143/200 76/137/201
f 71/143/202 72/144/203 76/137/204
f 72/144/205 73/145/206 76/137/207
f 73/145/208 74/146/209 76/137/210
f 74/146/211 75/147/212 76/137/213
f 75/147/214 64/135/215 76/137/216
f 77/148/217 78/149/218 89/150/219
f 78/149/220 79/151/221 89/150/222
f 79/151/223 80/152/224 89/150/225
f 80/152/226 81/153/227 89/150/228
f 81/153/229 82/154/230 89/150/231
f 82/154/232 83/155/233 89/150/234
f 83/155/235 84/156/236 89/150/237
f 84/156/238 85/157/239 89/150/240
f 85/157/241 86/158/242 89/150/243
f 86/158/244 87/159/245 89/150/246
f 87/159/247 88/160/248 89/150/249
f 88/160/250 77/148/251 89/150/252
