# This file uses centimeters as units for non-parametric coordinates.

v -0.149835 0.000000 0.149836
v 0.149834 0.000000 0.149836
v -0.089280 11.154160 -0.025272
v -0.009818 11.154160 -0.025272
v -0.089280 11.154160 -0.104736
v -0.009818 11.154160 -0.104736
v -0.149835 0.000000 -0.149836
v 0.149834 0.000000 -0.149836
v -0.052214 3.624555 0.062555
v 0.145437 3.624555 0.062555
v 0.145437 3.624555 -0.135099
v -0.052214 3.624555 -0.135099
v -0.041865 6.877872 -0.073294
v -0.041864 6.877872 0.073294
v -0.188450 6.877872 0.073294
v -0.188451 6.877872 -0.073294
v 0.051846 9.968369 0.010365
v 0.047831 9.921261 0.102184
v -0.051846 9.946828 0.110943
v -0.047831 9.993937 0.019123
v -0.047848 9.342361 -0.107843
v -0.057446 9.387498 -0.010881
v 0.047848 9.408572 -0.010269
v 0.057446 9.363435 -0.107231
v -0.097255 6.173047 0.004982
v 0.067521 6.145726 0.006720
v 0.080118 6.211985 -0.146093
v -0.084656 6.239305 -0.147831
vt 0.341082 0.163304
vt 0.341082 0.163304
vt 0.341082 0.163304
vt 0.341082 0.163304
vt 0.341082 0.163304
vt 0.341082 0.163304
vt 0.341082 0.163304
vt 0.341082 0.163304
vt 0.341082 0.163304
vt 0.341082 0.163304
vt 0.341082 0.163304
vt 0.341082 0.163304
vt 0.341082 0.163304
vt 0.341082 0.163304
vt 0.341082 0.163304
vt 0.341082 0.163304
vt 0.341082 0.163304
vt 0.341082 0.163304
vt 0.341082 0.163304
vt 0.341082 0.163304
vt 0.341082 0.163304
vt 0.341082 0.163304
vt 0.341082 0.163304
vt 0.341082 0.163304
vt 0.341082 0.163304
vt 0.341082 0.163304
vt 0.341082 0.163304
vt 0.341082 0.163304
vt 0.341082 0.163304
vt 0.341082 0.163304
vt 0.341082 0.163304
vt 0.341082 0.163304
vt 0.341082 0.163304
vt 0.341082 0.163304
vt 0.341082 0.163304
vt 0.341082 0.163304
vt 0.341082 0.163304
vt 0.341082 0.163304
vt 0.341082 0.163304
vt 0.341082 0.163304
vt 0.341082 0.163304
vt 0.341082 0.163304
vt 0.341082 0.163304
vt 0.341082 0.163304
vt 0.341082 0.163304
vt 0.341082 0.163304
vt 0.341082 0.163304
vt 0.341082 0.163304
vt 0.341082 0.163304
vt 0.341082 0.163304
vt 0.341082 0.163304
vt 0.341082 0.163304
vt 0.341082 0.163304
vt 0.341082 0.163304
vt 0.341082 0.163304
vt 0.341082 0.163304
vt 0.341082 0.163304
vt 0.341082 0.163304
vn -0.013923 -0.095375 0.995344
vn -0.013923 -0.095375 0.995344
vn -0.013923 -0.095375 0.995344
vn -0.013923 -0.095375 0.995344
vn 0.000000 1.000000 0.000000
vn 0.000000 1.000000 0.000000
vn 0.000000 1.000000 0.000000
vn 0.000000 1.000000 0.000000
vn 0.015624 0.114892 -0.993255
vn 0.015624 0.114892 -0.993255
vn 0.015624 0.114892 -0.993255
vn 0.015624 0.114892 -0.993255
vn 0.000000 -1.000000 0.000000
vn 0.000000 -1.000000 0.000000
vn 0.000000 -1.000000 0.000000
vn 0.000000 -1.000000 0.000000
vn 0.984930 0.155442 0.075838
vn 0.984930 0.155442 0.075838
vn 0.984930 0.155442 0.075838
vn 0.984930 0.155442 0.075838
vn -0.988142 -0.135809 -0.071634
vn -0.988142 -0.135809 -0.071634
vn -0.988142 -0.135809 -0.071634
vn -0.988142 -0.135809 -0.071634
vn 0.000000 0.024073 0.999710
vn 0.000000 0.024073 0.999710
vn 0.000000 0.024073 0.999710
vn 0.000000 0.024073 0.999710
vn 0.999999 0.001213 0.000000
vn 0.999999 0.001213 0.000000
vn 0.999999 0.001213 0.000000
vn 0.999999 0.001213 0.000000
vn 0.000000 0.004066 -0.999992
vn 0.000000 0.004066 -0.999992
vn 0.000000 0.004066 -0.999992
vn 0.000000 0.004066 -0.999992
vn -0.999637 0.026923 0.000000
vn -0.999637 0.026923 0.000000
vn -0.999637 0.026923 0.000000
vn -0.999637 0.026923 0.000000
vn 0.997370 -0.009770 0.071817
vn 0.997370 -0.009770 0.071817
vn 0.997370 -0.009770 0.071817
vn 0.997370 -0.009770 0.071817
vn 0.034123 -0.213546 0.976337
vn 0.034123 -0.213546 0.976337
vn 0.034123 -0.213546 0.976337
vn 0.034123 -0.213546 0.976337
vn -0.997238 0.019359 -0.071707
vn -0.997238 0.019359 -0.071707
vn -0.997238 0.019359 -0.071707
vn -0.997238 0.019359 -0.071707
vn -0.034806 0.190786 -0.981014
vn -0.034806 0.190786 -0.981014
vn -0.034806 0.190786 -0.981014
vn -0.034806 0.190786 -0.981014
vn 0.997870 0.053033 0.037975
vn 0.997870 0.053033 0.037975
vn 0.997870 0.053033 0.037975
vn 0.997871 0.053033 0.037975
vn 0.064150 0.109676 0.991895
vn 0.064150 0.109676 0.991895
vn 0.064150 0.109676 0.991895
vn 0.064150 0.109676 0.991895
vn -0.998752 -0.036966 -0.033579
vn -0.998752 -0.036966 -0.033579
vn -0.998752 -0.036966 -0.033579
vn -0.998752 -0.036966 -0.033579
vn -0.063357 -0.103886 -0.992569
vn -0.063357 -0.103886 -0.992569
vn -0.063357 -0.103886 -0.992569
vn -0.063357 -0.103886 -0.992569
vn -0.997368 0.053287 -0.049175
vn -0.997368 0.053287 -0.049175
vn -0.997368 0.053287 -0.049175
vn -0.997368 0.053287 -0.049175
vn -0.005231 0.033489 0.999425
vn -0.005231 0.033489 0.999425
vn -0.005231 0.033489 0.999425
vn -0.005231 0.033489 0.999425
vn 0.998268 -0.036537 0.046107
vn 0.998268 -0.036537 0.046107
vn 0.998268 -0.036537 0.046107
vn 0.998268 -0.036537 0.046107
vn 0.003603 -0.014009 -0.999895
vn 0.003603 -0.014009 -0.999895
vn 0.003603 -0.014009 -0.999895
vn 0.003603 -0.014009 -0.999895
vn -0.003113 0.022289 0.999747
vn -0.003113 0.022289 0.999747
vn -0.003113 0.022289 0.999747
vn -0.003113 0.022289 0.999747
vn 0.998739 0.028543 0.041295
vn 0.998739 0.028543 0.041295
vn 0.998739 0.028543 0.041295
vn 0.998739 0.028543 0.041295
vn 0.004457 -0.004477 -0.999980
vn 0.004457 -0.004477 -0.999980
vn 0.004457 -0.004477 -0.999980
vn 0.004457 -0.004477 -0.999980
vn -0.999124 -0.015523 -0.038852
vn -0.999124 -0.015523 -0.038852
vn -0.999124 -0.015523 -0.038852
vn -0.999124 -0.015523 -0.038852
s off
f 25/52/1 26/53/2 14/29/3 15/32/4
f 3/3/5 4/4/6 6/6/7 5/5/8
f 16/34/9 13/27/10 27/55/11 28/58/12
f 7/7/13 8/8/14 2/10/15 1/9/16
f 26/54/17 27/56/18 13/28/19 14/30/20
f 28/57/21 25/51/22 15/31/23 16/33/24
f 1/15/25 2/16/26 10/21/27 9/20/28
f 2/2/29 8/11/30 11/24/31 10/22/32
f 12/26/33 11/23/34 8/8/35 7/7/36
f 7/13/37 1/1/38 9/19/39 12/25/40
f 23/48/41 24/50/42 17/36/43 18/38/44
f 22/46/45 23/47/46 18/37/47 19/40/48
f 21/43/49 22/45/50 19/39/51 20/41/52
f 20/42/53 17/35/54 24/49/55 21/44/56
f 18/38/57 17/36/58 6/12/59 4/4/60
f 19/40/61 18/37/62 4/17/63 3/18/64
f 20/41/65 19/39/66 3/3/67 5/14/68
f 5/5/69 6/6/70 17/35/71 20/42/72
f 16/33/73 15/31/74 22/45/75 21/43/76
f 15/32/77 14/29/78 23/47/79 22/46/80
f 14/30/81 13/28/82 24/50/83 23/48/84
f 21/44/85 24/49/86 13/27/87 16/34/88
f 9/20/89 10/21/90 26/53/91 25/52/92
f 10/22/93 11/24/94 27/56/95 26/54/96
f 28/58/97 27/55/98 11/23/99 12/26/100
f 12/25/101 9/19/102 25/51/103 28/57/104
