# This file uses centimeters as units for non-parametric coordinates.

v -0.931418 0.000000 0.255565
v -0.889149 0.000000 0.289599
v -0.856414 0.453152 0.180608
v -0.822644 0.452925 0.207798
v -0.829479 0.449424 0.147156
v -0.795710 0.449197 0.174345
v -0.897640 0.000000 0.213612
v -0.855370 0.000000 0.247645
v 0.903840 0.000000 0.274045
v 0.944508 0.000000 0.238119
v 0.827689 0.452871 0.196840
v 0.860178 0.453307 0.168139
v 0.799270 0.449042 0.164669
v 0.831759 0.449477 0.135968
v 0.868195 0.000000 0.233695
v 0.908864 0.000000 0.197769
v 0.909672 0.000000 -0.213309
v 0.949992 0.000000 -0.248927
v 0.831897 0.449102 -0.146912
v 0.864037 0.453103 -0.175305
v 0.803193 0.449244 -0.179405
v 0.835333 0.453246 -0.207798
v 0.873743 0.000000 -0.253981
v 0.914063 0.000000 -0.289599
v -0.932979 0.000000 -0.210398
v -0.892309 0.000000 -0.246325
v -0.854249 0.449385 -0.144865
v -0.821759 0.448997 -0.173566
v -0.882647 0.453351 -0.177011
v -0.850157 0.452963 -0.205713
v -0.968602 0.000000 -0.250723
v -0.927933 0.000000 -0.286650
v -0.923648 0.425880 0.267114
v 0.920125 0.425880 0.267114
v -0.923648 0.486537 0.267114
v 0.920125 0.486537 0.267114
v -0.936416 0.486537 -0.267596
v 0.940113 0.486537 -0.267596
v -0.936416 0.425880 -0.267596
v 0.940113 0.425880 -0.267596
v -0.876797 0.438034 0.106463
v -0.876797 0.474383 0.106463
v 0.911144 0.474383 0.106463
v 0.911144 0.438034 0.106463
v -0.876797 0.474383 -0.087228
v -0.876797 0.438034 -0.087229
v 0.911144 0.438034 -0.087229
v 0.911144 0.474383 -0.087228
v 0.940113 0.486537 -0.107941
v -0.936416 0.486537 -0.107941
v -0.936416 0.425880 -0.107941
v 0.940113 0.425880 -0.107941
v -0.905766 0.425880 -0.064890
v -0.905766 0.486537 -0.064890
v 0.959121 0.486537 -0.064890
v 0.959121 0.425880 -0.064890
v -0.905766 0.425880 0.089311
v -0.905766 0.486537 0.089311
v 0.959121 0.486537 0.089311
v 0.959121 0.425880 0.089311
v -0.923648 0.425880 0.120162
v -0.923648 0.486537 0.120162
v 0.920125 0.486537 0.120162
v 0.920125 0.425880 0.120162
v -0.984319 0.126425 0.040169
v 0.984319 0.126425 0.040169
v -0.984319 0.217825 0.040169
v 0.984319 0.217825 0.040169
v -0.984319 0.217825 -0.005904
v 0.984319 0.217825 -0.005904
v -0.984319 0.126425 -0.005904
v 0.984319 0.126425 -0.005904
v -0.926289 0.154299 -0.272250
v -0.926289 0.154299 0.262461
v -0.926289 0.182816 -0.272250
v -0.926289 0.182816 0.262461
v -0.895825 0.182816 -0.272250
v -0.895825 0.182816 0.262461
v -0.895825 0.154299 -0.272250
v -0.895825 0.154299 0.262461
v 0.895825 0.154299 -0.272250
v 0.895825 0.154299 0.262461
v 0.895825 0.182816 -0.272250
v 0.895825 0.182816 0.262461
v 0.926290 0.182816 -0.272250
v 0.926290 0.182816 0.262461
v 0.926290 0.154299 -0.272250
v 0.926290 0.154299 0.262461
v 0.015705 0.425880 -0.267596
v 0.015705 0.486537 -0.267596
v 0.136619 0.486537 -0.070746
v 0.151289 0.474383 -0.050034
v 0.161362 0.462362 -0.027695
v -0.441683 0.462362 0.059370
v -0.451755 0.474383 0.076522
v -0.470277 0.486537 0.090221
v 0.011853 0.486537 0.267114
v 0.011853 0.425880 0.267114
v -0.470277 0.425880 0.090221
v -0.451755 0.438034 0.076522
v -0.441683 0.401705 0.059370
v 0.161362 0.401705 -0.027695
v 0.151289 0.438034 -0.050034
v 0.136619 0.425880 -0.070746
vt 0.330495 0.161244
vt 0.330495 0.161244
vt 0.330495 0.161244
vt 0.330495 0.161244
vt 0.330495 0.161244
vt 0.330495 0.161244
vt 0.330495 0.161244
vt 0.330495 0.161244
vt 0.330495 0.161244
vt 0.330495 0.161244
vt 0.330495 0.161244
vt 0.330495 0.161244
vt 0.330495 0.161244
vt 0.330495 0.161244
vt 0.330495 0.161244
vt 0.330495 0.161244
vt 0.330495 0.161244
vt 0.330495 0.161244
vt 0.330495 0.161244
vt 0.330495 0.161244
vt 0.330495 0.161244
vt 0.330495 0.161244
vt 0.330495 0.161244
vt 0.330495 0.161244
vt 0.330495 0.161244
vt 0.330495 0.161244
vt 0.330495 0.161244
vt 0.330495 0.161244
vt 0.330495 0.161244
vt 0.330495 0.161244
vt 0.330495 0.161244
vt 0.330495 0.161244
vt 0.330495 0.161244
vt 0.330495 0.161244
vt 0.330495 0.161244
vt 0.330495 0.161244
vt 0.330495 0.161244
vt 0.330495 0.161244
vt 0.330495 0.161244
vt 0.330495 0.161244
vt 0.330495 0.161244
vt 0.330495 0.161244
vt 0.330495 0.161244
vt 0.330495 0.161244
vt 0.330495 0.161244
vt 0.330495 0.161244
vt 0.330495 0.161244
vt 0.330495 0.161244
vt 0.330495 0.161244
vt 0.330495 0.161244
vt 0.330495 0.161244
vt 0.330495 0.161244
vt 0.330495 0.161244
vt 0.330495 0.161244
vt 0.330495 0.161244
vt 0.330495 0.161244
vt 0.330495 0.186725
vt 0.330495 0.186725
vt 0.330495 0.186725
vt 0.330495 0.186725
vt 0.330495 0.186725
vt 0.330495 0.186725
vt 0.330495 0.186725
vt 0.330495 0.186725
vt 0.330495 0.186725
vt 0.330495 0.186725
vt 0.330495 0.186725
vt 0.330495 0.186725
vt 0.330495 0.186725
vt 0.330495 0.186725
vt 0.330495 0.186725
vt 0.330495 0.186725
vt 0.330495 0.186725
vt 0.330495 0.186725
vt 0.330495 0.186725
vt 0.330495 0.186725
vt 0.330495 0.186725
vt 0.330495 0.186725
vt 0.330495 0.186725
vt 0.330495 0.186725
vt 0.330495 0.186725
vt 0.330495 0.186725
vt 0.330495 0.186725
vt 0.330495 0.186725
vt 0.330495 0.186725
vt 0.330495 0.186725
vt 0.330495 0.186725
vt 0.330495 0.186725
vt 0.330495 0.186725
vt 0.330495 0.186725
vt 0.330495 0.186725
vt 0.330495 0.186725
vt 0.330495 0.186725
vt 0.330495 0.186725
vt 0.330495 0.186725
vt 0.330495 0.186725
vt 0.330495 0.186725
vt 0.330495 0.186725
vt 0.330495 0.186725
vt 0.330495 0.186725
vt 0.330495 0.186725
vt 0.330495 0.186725
vt 0.330495 0.186725
vt 0.330495 0.186725
vt 0.330495 0.186725
vt 0.330495 0.186725
vt 0.330495 0.186725
vt 0.330495 0.186725
vt 0.330495 0.186725
vt 0.330495 0.186725
vt 0.330495 0.186725
vt 0.330495 0.186725
vt 0.330495 0.186725
vt 0.330495 0.186725
vt 0.330495 0.186725
vt 0.330495 0.186725
vt 0.330495 0.186725
vt 0.330495 0.186725
vt 0.329796 0.189812
vt 0.329796 0.189812
vt 0.329796 0.189812
vt 0.329796 0.189812
vt 0.329796 0.189812
vt 0.329796 0.189812
vt 0.329796 0.189812
vt 0.329796 0.189812
vt 0.329796 0.189812
vt 0.329796 0.189812
vt 0.329796 0.189812
vt 0.329796 0.189812
vt 0.329796 0.189812
vt 0.329796 0.189812
vt 0.329796 0.189812
vt 0.329796 0.189812
vt 0.329796 0.189812
vt 0.329796 0.189812
vt 0.329796 0.189812
vt 0.329796 0.189812
vt 0.329796 0.189812
vt 0.329796 0.189812
vt 0.329796 0.189812
vt 0.329796 0.189812
vt 0.329796 0.189812
vt 0.329796 0.189812
vt 0.329796 0.189812
vt 0.329796 0.189812
vt 0.329796 0.189812
vt 0.329796 0.189812
vt 0.329796 0.189812
vt 0.329796 0.189812
vt 0.329796 0.189812
vt 0.329796 0.189812
vt 0.329796 0.189812
vt 0.329796 0.189812
vt 0.329796 0.189812
vt 0.329796 0.189812
vt 0.329796 0.189812
vt 0.329796 0.189812
vt 0.329796 0.189812
vt 0.329796 0.189812
vt 0.330495 0.186725
vt 0.330495 0.186725
vt 0.330495 0.186725
vt 0.330495 0.186725
vt 0.330495 0.186725
vt 0.330495 0.186725
vt 0.330495 0.186725
vt 0.330495 0.186725
vt 0.330495 0.186725
vt 0.330495 0.186725
vt 0.330495 0.186725
vt 0.330495 0.186725
vt 0.330495 0.186725
vt 0.330495 0.186725
vt 0.330495 0.186725
vt 0.330495 0.186725
vt 0.330495 0.186725
vn -0.610408 0.226639 0.758971
vn -0.610408 0.226639 0.758971
vn -0.610408 0.226639 0.758971
vn -0.610408 0.226639 0.758971
vn 0.058307 0.996240 -0.064081
vn 0.058307 0.996240 -0.064081
vn 0.058307 0.996240 -0.064081
vn 0.058307 0.996240 -0.064081
vn 0.613335 -0.205832 -0.762531
vn 0.613335 -0.205832 -0.762531
vn 0.613335 -0.205832 -0.762531
vn 0.613335 -0.205832 -0.762531
vn -0.000000 -1.000000 0.000000
vn -0.000000 -1.000000 0.000000
vn -0.000000 -1.000000 0.000000
vn -0.000000 -1.000000 0.000000
vn 0.778881 -0.001100 0.627171
vn 0.778881 -0.001100 0.627171
vn 0.778881 -0.001100 0.627171
vn 0.778881 -0.001100 0.627171
vn -0.778058 0.025070 -0.627692
vn -0.778058 0.025070 -0.627692
vn -0.778058 0.025070 -0.627692
vn -0.778058 0.025070 -0.627692
vn 0.643154 0.232407 0.729616
vn 0.643154 0.232407 0.729617
vn 0.643154 0.232407 0.729617
vn 0.643154 0.232407 0.729616
vn -0.066331 0.995994 -0.059961
vn -0.066331 0.995994 -0.059961
vn -0.066331 0.995994 -0.059961
vn -0.066331 0.995994 -0.059961
vn -0.646334 -0.211782 -0.733076
vn -0.646334 -0.211782 -0.733076
vn -0.646334 -0.211782 -0.733076
vn -0.646334 -0.211782 -0.733076
vn 0.000000 -1.000000 0.000000
vn 0.000000 -1.000000 0.000000
vn 0.000000 -1.000000 0.000000
vn 0.000000 -1.000000 0.000000
vn 0.747966 0.037014 -0.662704
vn 0.747966 0.037014 -0.662704
vn 0.747966 0.037014 -0.662704
vn 0.747966 0.037014 -0.662704
vn -0.749044 -0.013090 0.662391
vn -0.749044 -0.013090 0.662391
vn -0.749044 -0.013090 0.662391
vn -0.749044 -0.013090 0.662391
vn 0.661938 0.003801 0.749549
vn 0.661938 0.003801 0.749549
vn 0.661938 0.003801 0.749549
vn 0.661938 0.003801 0.749549
vn -0.067467 0.995669 0.063960
vn -0.067467 0.995669 0.063960
vn -0.067467 0.995669 0.063960
vn -0.067467 0.995669 0.063960
vn -0.662550 0.020145 -0.748747
vn -0.662550 0.020145 -0.748747
vn -0.662550 0.020145 -0.748747
vn -0.662550 0.020145 -0.748747
vn 0.000000 -1.000000 0.000000
vn 0.000000 -1.000000 0.000000
vn 0.000000 -1.000000 0.000000
vn 0.000000 -1.000000 0.000000
vn 0.727358 0.242265 -0.642073
vn 0.727358 0.242265 -0.642073
vn 0.727358 0.242265 -0.642073
vn 0.727359 0.242265 -0.642072
vn -0.730971 -0.221955 0.645304
vn -0.730971 -0.221955 0.645304
vn -0.730971 -0.221955 0.645304
vn -0.730971 -0.221955 0.645304
vn 0.645207 -0.219844 0.731694
vn 0.645207 -0.219844 0.731694
vn 0.645207 -0.219844 0.731694
vn 0.645207 -0.219844 0.731694
vn 0.067634 0.995713 0.063101
vn 0.067634 0.995713 0.063101
vn 0.067634 0.995713 0.063101
vn 0.067634 0.995713 0.063101
vn -0.641958 0.240220 -0.728138
vn -0.641958 0.240220 -0.728138
vn -0.641958 0.240220 -0.728138
vn -0.641958 0.240220 -0.728138
vn 0.000000 -1.000000 0.000000
vn 0.000000 -1.000000 0.000000
vn 0.000000 -1.000000 0.000000
vn 0.000000 -1.000000 0.000000
vn 0.749131 -0.010329 -0.662342
vn 0.749131 -0.010329 -0.662342
vn 0.749131 -0.010329 -0.662342
vn 0.749131 -0.010329 -0.662342
vn -0.748081 0.034247 0.662723
vn -0.748081 0.034247 0.662723
vn -0.748081 0.034247 0.662723
vn -0.748081 0.034247 0.662723
vn 0.000000 0.000000 1.000000
vn 0.000000 0.000000 1.000000
vn 0.000000 0.000000 1.000000
vn 0.000000 0.000000 1.000000
vn -0.014744 0.999760 0.016176
vn -0.014744 0.999761 0.016176
vn -0.014744 0.999760 0.016176
vn -0.014744 0.999761 0.016176
vn 0.000000 0.000000 -1.000000
vn 0.000000 0.000000 -1.000000
vn 0.000000 0.000000 -1.000000
vn 0.000000 0.000000 -1.000000
vn -0.023679 -0.692643 -0.720891
vn -0.023679 -0.692643 -0.720891
vn -0.023679 -0.692643 -0.720891
vn -0.023679 -0.692643 -0.720891
vn 0.422092 0.000001 -0.906553
vn 0.422092 0.000001 -0.906553
vn 0.422092 0.000001 -0.906553
vn 0.422092 0.000001 -0.906553
vn -0.610640 0.000001 -0.791909
vn -0.610640 0.000001 -0.791909
vn -0.610640 0.000001 -0.791909
vn -0.610640 0.000001 -0.791909
vn -0.280639 0.000001 -0.959813
vn -0.280639 0.000001 -0.959813
vn -0.280639 0.000001 -0.959813
vn -0.280639 0.000001 -0.959813
vn 0.014372 0.750421 -0.660804
vn 0.014372 0.750421 -0.660804
vn 0.014372 0.750421 -0.660804
vn 0.014372 0.750421 -0.660804
vn 0.836267 0.000000 -0.548323
vn 0.836267 0.000000 -0.548322
vn 0.836267 0.000000 -0.548323
vn 0.836267 0.000000 -0.548322
vn 0.014372 -0.750421 -0.660804
vn 0.014372 -0.750421 -0.660804
vn 0.014372 -0.750421 -0.660804
vn 0.014372 -0.750421 -0.660804
vn -0.328172 0.000000 0.944618
vn -0.328172 0.000000 0.944618
vn -0.328172 0.000000 0.944618
vn -0.328172 0.000000 0.944618
vn 0.024372 -0.858522 0.512198
vn 0.024372 -0.858522 0.512198
vn 0.024372 -0.858522 0.512198
vn 0.024372 -0.858522 0.512198
vn 0.581610 -0.000001 0.813468
vn 0.581610 -0.000001 0.813468
vn 0.581610 -0.000001 0.813468
vn 0.581610 -0.000001 0.813468
vn 0.024372 0.858522 0.512198
vn 0.024372 0.858522 0.512198
vn 0.024372 0.858522 0.512198
vn 0.024372 0.858522 0.512198
vn 0.000000 1.000000 0.000000
vn 0.000000 1.000000 0.000000
vn 0.000000 1.000000 0.000000
vn 0.000000 1.000000 0.000000
vn -1.000000 0.000000 0.000000
vn -1.000000 0.000000 0.000000
vn -1.000000 0.000000 0.000000
vn -1.000000 0.000000 0.000000
vn 0.000000 -1.000000 -0.000000
vn 0.000000 -1.000000 -0.000000
vn 0.000000 -1.000000 -0.000000
vn 0.000000 -1.000000 -0.000000
vn 1.000000 0.000000 0.000000
vn 1.000000 0.000000 0.000000
vn 1.000000 0.000000 0.000000
vn 1.000000 0.000000 0.000000
vn -1.000000 0.000002 0.000000
vn -1.000000 0.000002 0.000000
vn -1.000000 0.000002 0.000000
vn -1.000000 0.000002 0.000000
vn -0.022135 0.998223 -0.055327
vn -0.022135 0.998223 -0.055327
vn -0.022135 0.998223 -0.055327
vn -0.022135 0.998223 -0.055327
vn 1.000000 0.000002 0.000000
vn 1.000000 0.000002 0.000000
vn 1.000000 0.000002 0.000000
vn 1.000000 0.000002 0.000000
vn 0.022135 -0.998223 0.055327
vn 0.022135 -0.998223 0.055327
vn 0.022135 -0.998223 0.055327
vn 0.022135 -0.998223 0.055327
vn -0.509467 -0.000001 0.860490
vn -0.509467 -0.000001 0.860490
vn -0.509467 -0.000001 0.860490
vn -0.509467 -0.000001 0.860490
vn -0.008518 0.999908 -0.010530
vn -0.008518 0.999908 -0.010530
vn -0.008518 0.999908 -0.010530
vn -0.008518 0.999908 -0.010530
vn 0.336633 0.000000 0.941636
vn 0.336633 0.000000 0.941636
vn 0.336633 0.000000 0.941636
vn 0.336633 0.000000 0.941636
vn -0.012395 -0.587388 0.809211
vn -0.012395 -0.587388 0.809211
vn -0.012395 -0.587388 0.809211
vn -0.012395 -0.587388 0.809211
vn -1.000000 -0.000002 0.000000
vn -1.000000 -0.000002 0.000000
vn -1.000000 -0.000002 0.000000
vn -1.000000 -0.000002 0.000000
vn 0.000000 1.000000 0.000000
vn 0.000000 1.000000 0.000000
vn 0.000000 1.000000 0.000000
vn 0.000000 1.000000 0.000000
vn 1.000000 0.000000 0.000000
vn 1.000000 0.000000 0.000000
vn 1.000000 0.000000 0.000000
vn 1.000000 0.000000 0.000000
vn 0.000000 -1.000000 0.000000
vn 0.000000 -1.000000 0.000000
vn 0.000000 -1.000000 0.000000
vn 0.000000 -1.000000 0.000000
vn 0.000000 0.000000 1.000000
vn 0.000000 0.000000 1.000000
vn 0.000000 0.000000 1.000000
vn 0.000000 0.000000 1.000000
vn 0.000000 1.000000 0.000000
vn 0.000000 1.000000 0.000000
vn 0.000000 1.000000 0.000000
vn 0.000000 1.000000 0.000000
vn 0.000000 0.000000 -1.000000
vn 0.000000 0.000000 -1.000000
vn 0.000000 0.000000 -1.000000
vn 0.000000 0.000000 -1.000000
vn 0.000000 -1.000000 0.000000
vn 0.000000 -1.000000 0.000000
vn 0.000000 -1.000000 0.000000
vn 0.000000 -1.000000 0.000000
vn 1.000000 0.000000 0.000000
vn 1.000000 0.000000 0.000000
vn 1.000000 0.000000 0.000000
vn 1.000000 0.000000 0.000000
vn -1.000000 0.000000 0.000000
vn -1.000000 0.000000 0.000000
vn -1.000000 0.000000 0.000000
vn -1.000000 0.000000 0.000000
vn -1.000000 0.000000 0.000000
vn -1.000000 0.000000 0.000000
vn -1.000000 0.000000 0.000000
vn -1.000000 0.000000 0.000000
vn 0.000000 1.000000 0.000000
vn 0.000000 1.000000 0.000000
vn 0.000000 1.000000 0.000000
vn 0.000000 1.000000 0.000000
vn 1.000000 0.000000 0.000000
vn 1.000000 0.000000 0.000000
vn 1.000000 0.000000 0.000000
vn 1.000000 0.000000 0.000000
vn 0.000000 -1.000000 0.000000
vn 0.000000 -1.000000 0.000000
vn 0.000000 -1.000000 0.000000
vn 0.000000 -1.000000 0.000000
vn 0.000000 0.000000 1.000000
vn 0.000000 0.000000 1.000000
vn 0.000000 0.000000 1.000000
vn 0.000000 0.000000 1.000000
vn 0.000000 0.000000 -1.000000
vn 0.000000 0.000000 -1.000000
vn 0.000000 0.000000 -1.000000
vn 0.000000 0.000000 -1.000000
vn -1.000000 0.000000 0.000000
vn -1.000000 0.000000 0.000000
vn -1.000000 0.000000 0.000000
vn -1.000000 0.000000 0.000000
vn 0.000000 1.000000 0.000000
vn 0.000000 1.000000 0.000000
vn 0.000000 1.000000 0.000000
vn 0.000000 1.000000 0.000000
vn 1.000000 0.000000 0.000000
vn 1.000000 0.000000 0.000000
vn 1.000000 0.000000 0.000000
vn 1.000000 0.000000 0.000000
vn 0.000000 -1.000000 0.000000
vn 0.000000 -1.000000 0.000000
vn 0.000000 -1.000000 0.000000
vn 0.000000 -1.000000 0.000000
vn 0.000000 0.000000 1.000000
vn 0.000000 0.000000 1.000000
vn 0.000000 0.000000 1.000000
vn 0.000000 0.000000 1.000000
vn 0.000000 0.000000 -1.000000
vn 0.000000 0.000000 -1.000000
vn 0.000000 0.000000 -1.000000
vn 0.000000 0.000000 -1.000000
vn 0.000000 0.000000 -1.000000
vn 0.000000 0.000000 -1.000000
vn 0.000000 0.000000 -1.000000
vn 0.000000 0.000000 -1.000000
vn 0.000000 1.000000 0.000000
vn 0.000000 1.000000 0.000000
vn 0.000000 1.000000 0.000000
vn 0.000000 1.000000 0.000000
vn -0.018795 0.847243 0.530874
vn -0.018795 0.847243 0.530874
vn -0.018795 0.847243 0.530874
vn -0.018795 0.847243 0.530874
vn 0.011471 0.999933 0.001870
vn 0.011471 0.999932 0.001870
vn 0.011471 0.999932 0.001870
vn 0.011471 0.999933 0.001870
vn 0.031097 0.996490 0.077727
vn 0.031097 0.996490 0.077727
vn 0.031097 0.996490 0.077727
vn 0.031097 0.996490 0.077727
vn 0.026458 0.999593 -0.010692
vn 0.026458 0.999593 -0.010692
vn 0.026458 0.999593 -0.010692
vn 0.026458 0.999593 -0.010692
vn -0.049517 0.685514 -0.726374
vn -0.049517 0.685514 -0.726374
vn -0.049517 0.685514 -0.726374
vn -0.049517 0.685514 -0.726374
vn 0.000000 1.000000 0.000000
vn 0.000000 1.000000 0.000000
vn 0.000000 1.000000 0.000000
vn 0.000000 1.000000 0.000000
vn 0.000000 0.000000 1.000000
vn 0.000000 0.000000 1.000000
vn 0.000000 0.000000 1.000000
vn 0.000000 0.000000 1.000000
vn 0.000000 -1.000000 0.000000
vn 0.000000 -1.000000 0.000000
vn 0.000000 -1.000000 0.000000
vn 0.000000 -1.000000 0.000000
vn -0.049517 -0.685515 -0.726373
vn -0.049517 -0.685515 -0.726373
vn -0.049517 -0.685515 -0.726373
vn -0.049517 -0.685515 -0.726373
vn 0.038495 -0.587112 0.808590
vn 0.038495 -0.587112 0.808590
vn 0.038495 -0.587112 0.808590
vn 0.038495 -0.587112 0.808590
vn -0.031097 -0.996490 -0.077727
vn -0.031097 -0.996490 -0.077727
vn -0.031097 -0.996490 -0.077727
vn -0.031097 -0.996490 -0.077727
vn 0.018119 -0.681347 -0.731736
vn 0.018119 -0.681347 -0.731736
vn 0.018119 -0.681347 -0.731736
vn 0.018119 -0.681347 -0.731736
vn -0.018795 -0.847243 0.530873
vn -0.018795 -0.847243 0.530873
vn -0.018795 -0.847243 0.530873
vn -0.018795 -0.847243 0.530873
vn 0.000000 -1.000000 0.000000
vn 0.000000 -1.000000 0.000000
vn 0.000000 -1.000000 0.000000
vn 0.000000 -1.000000 0.000000
s off
f 1/1/1 2/2/2 4/4/3 3/3/4
f 3/3/5 4/4/6 6/6/7 5/5/8
f 5/5/9 6/6/10 8/8/11 7/7/12
f 7/7/13 8/8/14 2/10/15 1/9/16
f 2/2/17 8/11/18 6/12/19 4/4/20
f 7/13/21 1/1/22 3/3/23 5/14/24
f 9/15/25 10/16/26 12/17/27 11/18/28
f 11/18/29 12/17/30 14/19/31 13/20/32
f 13/20/33 14/19/34 16/21/35 15/22/36
f 15/22/37 16/21/38 10/23/39 9/24/40
f 10/16/41 16/25/42 14/26/43 12/17/44
f 15/27/45 9/15/46 11/18/47 13/28/48
f 17/29/49 18/30/50 20/31/51 19/32/52
f 19/32/53 20/31/54 22/33/55 21/34/56
f 21/34/57 22/33/58 24/35/59 23/36/60
f 23/36/61 24/35/62 18/37/63 17/38/64
f 18/30/65 24/39/66 22/40/67 20/31/68
f 23/41/69 17/29/70 19/32/71 21/42/72
f 25/43/73 26/44/74 28/45/75 27/46/76
f 27/46/77 28/45/78 30/47/79 29/48/80
f 29/48/81 30/47/82 32/49/83 31/50/84
f 31/50/85 32/49/86 26/51/87 25/52/88
f 26/44/89 32/53/90 30/54/91 28/45/92
f 31/55/93 25/43/94 27/46/95 29/56/96
f 97/169/97 98/170/98 34/58/99 36/59/100
f 92/164/101 93/165/102 55/62/103 48/63/104
f 89/161/105 90/162/106 38/66/107 40/67/108
f 102/175/109 103/176/110 47/70/111 56/71/112
f 55/73/113 56/74/114 47/75/115 48/76/116
f 45/77/117 46/78/118 53/79/119 54/80/120
f 42/81/121 41/82/122 61/83/123 62/84/124
f 95/167/125 96/168/126 63/86/127 43/87/128
f 63/89/129 64/90/130 44/91/131 43/92/132
f 99/172/133 100/173/134 44/94/135 64/95/136
f 50/97/137 51/98/138 46/78/139 45/77/140
f 103/176/141 104/177/142 52/100/143 47/70/144
f 48/76/145 47/75/146 52/101/147 49/102/148
f 91/163/149 92/164/150 48/63/151 49/103/152
f 90/162/153 91/163/154 49/103/155 38/66/156
f 39/105/157 51/98/158 50/97/159 37/106/160
f 104/177/161 89/161/162 40/67/163 52/100/164
f 49/102/165 52/101/166 40/107/167 38/108/168
f 54/80/169 53/79/170 57/109/171 58/110/172
f 93/165/173 94/166/174 59/112/175 55/62/176
f 59/113/177 60/114/178 56/74/179 55/73/180
f 101/174/181 102/175/182 56/71/183 60/115/184
f 58/110/185 57/109/186 41/82/187 42/81/188
f 94/166/189 95/167/190 43/87/191 59/112/192
f 43/92/193 44/91/194 60/114/195 59/113/196
f 100/173/197 101/174/198 60/115/199 44/94/200
f 62/84/201 61/83/202 33/57/203 35/60/204
f 96/168/205 97/169/206 36/59/207 63/86/208
f 34/58/209 64/90/210 63/89/211 36/59/212
f 98/171/213 99/172/214 64/95/215 34/117/216
f 65/119/217 66/120/218 68/121/219 67/122/220
f 67/122/221 68/121/222 70/123/223 69/124/224
f 69/124/225 70/123/226 72/125/227 71/126/228
f 71/126/229 72/125/230 66/127/231 65/128/232
f 66/120/233 72/129/234 70/130/235 68/121/236
f 71/131/237 65/119/238 67/122/239 69/132/240
f 73/133/241 74/134/242 76/135/243 75/136/244
f 75/136/245 76/135/246 78/137/247 77/138/248
f 77/138/249 78/137/250 80/139/251 79/140/252
f 79/140/253 80/139/254 74/141/255 73/142/256
f 74/134/257 80/143/258 78/144/259 76/135/260
f 79/145/261 73/133/262 75/136/263 77/146/264
f 81/147/265 82/148/266 84/149/267 83/150/268
f 83/150/269 84/149/270 86/151/271 85/152/272
f 85/152/273 86/151/274 88/153/275 87/154/276
f 87/154/277 88/153/278 82/155/279 81/156/280
f 82/148/281 88/157/282 86/158/283 84/149/284
f 87/159/285 81/147/286 83/150/287 85/160/288
f 37/65/289 90/162/290 89/161/291 39/68/292
f 50/104/293 91/163/294 90/162/295 37/65/296
f 45/64/297 92/164/298 91/163/299 50/104/300
f 54/61/301 93/165/302 92/164/303 45/64/304
f 58/111/305 94/166/306 93/165/307 54/61/308
f 42/88/309 95/167/310 94/166/311 58/111/312
f 62/85/313 96/168/314 95/167/315 42/88/316
f 35/60/317 97/169/318 96/168/319 62/85/320
f 33/57/321 98/170/322 97/169/323 35/60/324
f 61/96/325 99/172/326 98/171/327 33/118/328
f 41/93/329 100/173/330 99/172/331 61/96/332
f 57/116/333 101/174/334 100/173/335 41/93/336
f 53/72/337 102/175/338 101/174/339 57/116/340
f 46/69/341 103/176/342 102/175/343 53/72/344
f 51/99/345 104/177/346 103/176/347 46/69/348
f 39/68/349 89/161/350 104/177/351 51/99/352
