# This file uses centimeters as units for non-parametric coordinates.

v -1.082382 0.760559 0.011070
v 0.727597 0.826408 0.011070
v -1.090469 0.982842 0.011070
v 0.719510 1.048691 0.011070
v -1.090469 0.982842 -0.098587
v 0.719510 1.048691 -0.098587
v -1.082382 0.760559 -0.098587
v 0.727597 0.826408 -0.098587
v 0.577373 1.055620 -0.098587
v 0.577373 1.055620 0.011070
v 0.586339 0.809168 0.011070
v 0.586339 0.809168 -0.098587
v -1.010529 0.997851 -0.098587
v -1.010529 0.997851 0.011070
v -1.001562 0.751399 0.011070
v -1.001562 0.751399 -0.098587
v -0.793169 0.830146 0.098587
v 1.019125 0.000000 -0.003441
v -0.683235 0.977484 0.098587
v 1.090474 0.188807 -0.003441
v -0.689260 0.979093 0.026939
v 1.086564 0.190870 -0.081131
v -0.799194 0.831756 0.026939
v 1.015214 0.002063 -0.081131
v -0.561996 0.964966 -0.011925
v -0.556484 0.962505 0.097572
v -0.657041 0.737323 0.097572
v -0.662553 0.739784 -0.011925
v 0.193777 0.385788 0.060440
v 0.273168 0.565319 0.034966
v 0.259727 0.558954 -0.051796
v 0.180335 0.379423 -0.026321
v 0.838449 0.064172 0.019279
v 0.939005 0.289355 0.019279
v 0.933495 0.291816 -0.090218
v 0.832937 0.066633 -0.090218
vt 0.106438 0.765508
vt 0.106438 0.765508
vt 0.106438 0.765508
vt 0.106438 0.765508
vt 0.106438 0.765508
vt 0.106438 0.765508
vt 0.106438 0.765508
vt 0.106438 0.765508
vt 0.106438 0.765508
vt 0.106438 0.765508
vt 0.106438 0.765508
vt 0.106438 0.765508
vt 0.106438 0.765508
vt 0.106438 0.765508
vt 0.106438 0.765508
vt 0.106438 0.765508
vt 0.106438 0.765508
vt 0.106438 0.765508
vt 0.106438 0.765508
vt 0.106438 0.765508
vt 0.106438 0.765508
vt 0.106438 0.765508
vt 0.106438 0.765508
vt 0.106438 0.765508
vt 0.008476 0.773287
vt 0.008476 0.773287
vt 0.008476 0.773287
vt 0.008476 0.773287
vt 0.008476 0.773287
vt 0.008476 0.773287
vt 0.008476 0.773287
vt 0.008476 0.773287
vt 0.008476 0.773287
vt 0.008476 0.773287
vt 0.008476 0.773287
vt 0.008476 0.773287
vt 0.008476 0.773287
vt 0.008476 0.773287
vt 0.008476 0.773287
vt 0.008476 0.773287
vt 0.008476 0.773287
vt 0.008476 0.773287
vt 0.008476 0.773287
vt 0.008476 0.773287
vt 0.008476 0.773287
vt 0.008476 0.773287
vt 0.008476 0.773287
vt 0.008476 0.773287
vt 0.008476 0.773287
vt 0.008476 0.773287
vt 0.008476 0.773287
vt 0.008476 0.773287
vt 0.008476 0.773287
vn -0.000000 0.000000 1.000000
vn -0.000000 0.000000 1.000000
vn -0.000000 0.000000 1.000000
vn -0.000000 0.000000 1.000000
vn -0.029374 0.999569 0.000000
vn -0.029374 0.999569 0.000000
vn 0.048694 0.998814 0.000000
vn 0.048694 0.998814 0.000000
vn -0.000000 0.000000 -1.000000
vn -0.000000 0.000000 -1.000000
vn -0.000000 0.000000 -1.000000
vn -0.000000 0.000000 -1.000000
vn 0.043338 -0.999060 0.000000
vn 0.043338 -0.999060 0.000000
vn 0.121144 -0.992635 0.000000
vn 0.121144 -0.992635 0.000000
vn 0.999339 0.036358 0.000000
vn 0.999339 0.036358 0.000000
vn 0.999339 0.036358 0.000000
vn 0.999339 0.036358 0.000000
vn -0.999339 -0.036358 0.000000
vn -0.999339 -0.036358 0.000000
vn -0.999339 -0.036358 0.000000
vn -0.999339 -0.036358 0.000000
vn -0.043594 0.999049 0.000000
vn -0.043594 0.999049 0.000000
vn -0.029374 0.999569 0.000000
vn -0.029374 0.999569 0.000000
vn 0.000000 0.000000 1.000000
vn 0.000000 0.000000 1.000000
vn -0.000000 0.000000 1.000000
vn -0.000000 0.000000 1.000000
vn 0.029117 -0.999576 0.000000
vn 0.029117 -0.999576 0.000000
vn 0.043338 -0.999060 0.000000
vn 0.043338 -0.999060 0.000000
vn -0.000000 0.000000 -1.000000
vn -0.000000 0.000000 -1.000000
vn -0.000000 0.000000 -1.000000
vn -0.000000 0.000000 -1.000000
vn -0.184521 0.982829 0.000000
vn -0.043594 0.999049 0.000000
vn -0.043594 0.999049 0.000000
vn -0.184521 0.982829 0.000000
vn 0.000000 0.000000 1.000000
vn 0.000000 0.000000 1.000000
vn 0.000000 0.000000 1.000000
vn 0.000000 0.000000 1.000000
vn -0.112618 -0.993638 0.000000
vn 0.029117 -0.999576 0.000000
vn 0.029117 -0.999576 0.000000
vn -0.112618 -0.993638 0.000000
vn -0.000000 0.000000 -1.000000
vn -0.000000 0.000000 -1.000000
vn -0.000000 0.000000 -1.000000
vn -0.000000 0.000000 -1.000000
vn 0.065553 0.026752 0.997490
vn 0.064927 0.026432 0.997540
vn 0.067024 0.032968 0.997207
vn 0.067032 0.032964 0.997206
vn 0.404239 0.913138 -0.052632
vn 0.400279 0.914935 -0.051675
vn 0.406047 0.912051 -0.057353
vn 0.408450 0.910964 -0.057564
vn -0.073245 -0.019365 -0.997126
vn -0.071714 -0.020798 -0.997208
vn -0.067091 -0.032938 -0.997203
vn -0.067068 -0.032948 -0.997204
vn -0.410331 -0.910545 0.050359
vn -0.409196 -0.911042 0.050598
vn -0.406403 -0.911890 0.057389
vn -0.408228 -0.911064 0.057548
vn 0.933947 -0.352936 -0.056384
vn 0.933947 -0.352936 -0.056384
vn 0.933947 -0.352936 -0.056384
vn 0.933947 -0.352936 -0.056384
vn -0.798877 0.596073 0.080578
vn -0.798877 0.596073 0.080578
vn -0.798877 0.596073 0.080578
vn -0.798877 0.596073 0.080578
vn 0.116138 0.993121 0.014919
vn 0.400279 0.914935 -0.051675
vn 0.404239 0.913138 -0.052632
vn 0.116138 0.993121 0.014919
vn 0.006268 -0.003541 0.999974
vn 0.064927 0.026432 0.997540
vn 0.065553 0.026752 0.997490
vn 0.006268 -0.003541 0.999974
vn -0.559099 -0.828927 0.016981
vn -0.409196 -0.911042 0.050598
vn -0.410331 -0.910545 0.050359
vn -0.559099 -0.828927 0.016981
vn -0.231376 0.130739 -0.964040
vn -0.071714 -0.020798 -0.997208
vn -0.073245 -0.019365 -0.997126
vn -0.231376 0.130739 -0.964040
vn 0.067032 0.032964 0.997206
vn 0.067024 0.032968 0.997207
vn 0.070577 0.019357 0.997319
vn 0.069988 0.020277 0.997342
vn 0.408450 0.910964 -0.057564
vn 0.406047 0.912051 -0.057353
vn 0.408481 0.911621 -0.045709
vn 0.407209 0.912175 -0.046029
vn -0.067068 -0.032948 -0.997204
vn -0.067091 -0.032938 -0.997203
vn -0.061797 -0.022904 -0.997826
vn -0.060807 -0.022866 -0.997888
vn -0.408228 -0.911064 0.057548
vn -0.406403 -0.911890 0.057389
vn -0.415655 -0.908302 0.047105
vn -0.415601 -0.908328 0.047068
vn 0.069988 0.020277 0.997342
vn 0.070577 0.019357 0.997319
vn 0.112601 -0.046757 0.992540
vn 0.112601 -0.046757 0.992540
vn 0.407209 0.912175 -0.046029
vn 0.408481 0.911621 -0.045709
vn 0.551539 0.834114 -0.007596
vn 0.551539 0.834114 -0.007596
vn -0.060807 -0.022866 -0.997888
vn -0.061797 -0.022904 -0.997826
vn 0.044922 -0.018653 -0.998816
vn 0.044922 -0.018653 -0.998816
vn -0.415601 -0.908328 0.047068
vn -0.415655 -0.908302 0.047105
vn -0.334491 -0.942380 -0.005940
vn -0.334491 -0.942380 -0.005940
s off
f 10/16/1 11/17/2 2/2/3 4/4/4
f 9/15/5 10/16/6 4/4/7 6/6/8
f 12/19/9 9/15/10 6/6/11 8/8/12
f 11/18/13 12/19/14 8/8/15 2/10/16
f 2/2/17 8/11/18 6/12/19 4/4/20
f 7/13/21 1/1/22 3/3/23 5/14/24
f 13/20/25 14/21/26 10/16/27 9/15/28
f 14/21/29 15/22/30 11/17/31 10/16/32
f 15/23/33 16/24/34 12/19/35 11/18/36
f 16/24/37 13/20/38 9/15/39 12/19/40
f 3/3/41 14/21/42 13/20/43 5/5/44
f 1/1/45 15/22/46 14/21/47 3/3/48
f 7/7/49 16/24/50 15/23/51 1/9/52
f 5/5/53 13/20/54 16/24/55 7/7/56
f 26/25/57 27/26/58 29/27/59 30/28/60
f 25/29/61 26/25/62 30/28/63 31/30/64
f 28/31/65 25/29/66 31/30/67 32/32/68
f 27/33/69 28/31/70 32/32/71 29/34/72
f 18/35/73 24/36/74 22/37/75 20/38/76
f 23/39/77 17/40/78 19/41/79 21/42/80
f 19/41/81 26/25/82 25/29/83 21/43/84
f 17/40/85 27/26/86 26/25/87 19/41/88
f 23/44/89 28/31/90 27/33/91 17/45/92
f 21/43/93 25/29/94 28/31/95 23/44/96
f 30/28/97 29/27/98 33/46/99 34/47/100
f 31/30/101 30/28/102 34/47/103 35/48/104
f 32/32/105 31/30/106 35/48/107 36/49/108
f 29/34/109 32/32/110 36/49/111 33/50/112
f 34/47/113 33/46/114 18/35/115 20/38/116
f 35/48/117 34/47/118 20/38/119 22/51/120
f 36/49/121 35/48/122 22/51/123 24/52/124
f 33/50/125 36/49/126 24/52/127 18/53/128
