# This file uses centimeters as units for non-parametric coordinates.

v -0.218315 0.000000 0.220646
v -0.146394 0.000000 0.220646
v -0.218315 0.322704 0.220646
v -0.146394 0.322704 0.220646
v -0.218315 0.322704 -0.220646
v -0.146394 0.322704 -0.220646
v -0.218315 0.000000 -0.220646
v -0.146394 0.000000 -0.220646
v 0.146394 0.000000 0.220646
v 0.218315 0.000000 0.220646
v 0.146394 0.322704 0.220646
v 0.218315 0.322704 0.220646
v 0.146394 0.322704 -0.220646
v 0.218315 0.322704 -0.220646
v 0.146394 0.000000 -0.220646
v 0.218315 0.000000 -0.220646
v -0.325014 0.014929 0.192927
v 0.325014 0.014929 0.192927
v -0.325014 0.269059 0.192927
v 0.325014 0.269059 0.192927
v -0.325014 0.269059 -0.192927
v 0.325014 0.269059 -0.192927
v -0.325014 0.014929 -0.192927
v 0.325014 0.014929 -0.192927
v -0.302418 0.152946 -0.179514
v -0.302418 0.152946 0.179514
v 0.302418 0.152946 0.179514
v 0.302418 0.152946 -0.179514
v 0.325014 0.169972 0.192927
v -0.325014 0.169972 0.192927
v -0.325014 0.169972 -0.192927
v 0.325014 0.169972 -0.192927
v -0.325014 0.137713 -0.192927
v -0.325014 0.137713 0.192927
v 0.325014 0.137713 0.192927
v 0.325014 0.137713 -0.192927
v -0.146394 0.032524 -0.174057
v -0.146394 0.032524 0.174057
v -0.146394 0.275544 -0.174057
v -0.146394 0.275544 0.174057
v -0.218315 0.032524 -0.174057
v -0.218315 0.032524 0.174057
v -0.218315 0.275544 0.174057
v -0.218315 0.275544 -0.174057
v 0.218315 0.032524 -0.174057
v 0.218315 0.032524 0.174057
v 0.218315 0.275544 -0.174057
v 0.218315 0.275544 0.174057
v 0.146394 0.032524 -0.174057
v 0.146394 0.032524 0.174057
v 0.146394 0.275544 0.174057
v 0.146394 0.275544 -0.174057
v -0.295563 0.278077 0.166681
v 0.295563 0.278077 0.166681
v 0.295563 0.278077 -0.166681
v -0.295563 0.278077 -0.166681
v -0.295563 0.005911 -0.166681
v 0.295563 0.005911 -0.166681
v 0.295563 0.005911 0.166681
v -0.295563 0.005911 0.166681
v -0.295563 0.300710 0.166681
v 0.295563 0.300710 0.166681
v 0.295563 0.300710 -0.166681
v -0.295563 0.300710 -0.166681
vt 0.308583 0.237958
vt 0.308583 0.237958
vt 0.308583 0.237958
vt 0.308583 0.237958
vt 0.308583 0.237958
vt 0.308583 0.237958
vt 0.308583 0.237958
vt 0.308583 0.237958
vt 0.308583 0.237958
vt 0.308583 0.237958
vt 0.308583 0.237958
vt 0.308583 0.237958
vt 0.308583 0.237958
vt 0.308583 0.237958
vt 0.308583 0.237958
vt 0.308583 0.237958
vt 0.308583 0.237958
vt 0.308583 0.237958
vt 0.308583 0.237958
vt 0.308583 0.237958
vt 0.308583 0.237958
vt 0.308583 0.237958
vt 0.308583 0.237958
vt 0.308583 0.237958
vt 0.308583 0.237958
vt 0.308583 0.237958
vt 0.308583 0.237958
vt 0.308583 0.237958
vt 0.308583 0.184971
vt 0.308583 0.184971
vt 0.308583 0.184971
vt 0.308583 0.184971
vt 0.308583 0.184971
vt 0.308583 0.184971
vt 0.308583 0.184971
vt 0.308583 0.184971
vt 0.308583 0.184971
vt 0.308583 0.184971
vt 0.308583 0.184971
vt 0.308583 0.184971
vt 0.308583 0.184971
vt 0.308583 0.184971
vt 0.308583 0.184971
vt 0.308583 0.184971
vt 0.308583 0.184971
vt 0.308583 0.184971
vt 0.308583 0.184971
vt 0.308583 0.184971
vt 0.308583 0.184971
vt 0.308583 0.184971
vt 0.308583 0.184971
vt 0.308583 0.184971
vt 0.308583 0.184971
vt 0.308583 0.184971
vt 0.308583 0.184971
vt 0.308583 0.184971
vt 0.308583 0.184971
vt 0.308583 0.184971
vt 0.308583 0.184971
vt 0.308583 0.184971
vt 0.308583 0.237958
vt 0.308583 0.237958
vt 0.308583 0.237958
vt 0.308583 0.237958
vt 0.308583 0.237958
vt 0.308583 0.237958
vt 0.308583 0.237958
vt 0.308583 0.237958
vt 0.308583 0.237958
vt 0.308583 0.237958
vt 0.308583 0.237958
vt 0.308583 0.237958
vt 0.308583 0.237958
vt 0.308583 0.237958
vt 0.308583 0.237958
vt 0.308583 0.237958
vt 0.308583 0.184971
vt 0.308583 0.184971
vt 0.308583 0.184971
vt 0.308583 0.184971
vt 0.308583 0.184971
vt 0.308583 0.184971
vt 0.308583 0.184971
vt 0.308583 0.184971
vt 0.308583 0.184971
vt 0.308583 0.184971
vt 0.308583 0.184971
vt 0.308583 0.184971
vt 0.308583 0.184971
vt 0.308583 0.184971
vt 0.308583 0.184971
vt 0.308583 0.184971
vt 0.308583 0.184971
vt 0.308583 0.184971
vt 0.308583 0.184971
vt 0.308583 0.184971
vt 0.308583 0.184971
vt 0.308583 0.184971
vt 0.308583 0.184971
vt 0.308583 0.184971
vt 0.308583 0.184971
vt 0.308583 0.184971
vt 0.308583 0.184971
vt 0.308583 0.184971
vt 0.308583 0.184971
vt 0.308583 0.184971
vt 0.308583 0.184971
vt 0.308583 0.184971
vt 0.308583 0.184971
vt 0.308583 0.184971
vt 0.308583 0.184971
vt 0.308583 0.184971
vt 0.308583 0.184971
vt 0.308583 0.184971
vt 0.308583 0.184971
vt 0.308583 0.184971
vt 0.308583 0.184971
vt 0.308583 0.184971
vt 0.308583 0.184971
vt 0.308583 0.184971
vt 0.308583 0.184971
vt 0.308583 0.184971
vt 0.308583 0.184971
vt 0.308583 0.184971
vt 0.308583 0.184971
vt 0.308583 0.184971
vt 0.308583 0.184971
vt 0.308583 0.184971
vn 0.000000 0.000000 1.000000
vn 0.000000 0.000000 1.000000
vn 0.000000 0.000000 1.000000
vn 0.000000 0.000000 1.000000
vn 0.000000 1.000000 0.000000
vn 0.000000 1.000000 0.000000
vn 0.000000 1.000000 0.000000
vn 0.000000 1.000000 0.000000
vn 0.000000 0.000000 -1.000000
vn 0.000000 0.000000 -1.000000
vn 0.000000 0.000000 -1.000000
vn 0.000000 0.000000 -1.000000
vn 0.000000 -1.000000 0.000000
vn 0.000000 -1.000000 0.000000
vn 0.000000 -1.000000 0.000000
vn 0.000000 -1.000000 0.000000
vn 0.000000 0.000000 1.000000
vn 0.000000 0.000000 1.000000
vn 0.000000 0.000000 1.000000
vn 0.000000 0.000000 1.000000
vn 0.000000 1.000000 0.000000
vn 0.000000 1.000000 0.000000
vn 0.000000 1.000000 0.000000
vn 0.000000 1.000000 0.000000
vn 0.000000 0.000000 -1.000000
vn 0.000000 0.000000 -1.000000
vn 0.000000 0.000000 -1.000000
vn 0.000000 0.000000 -1.000000
vn 0.000000 -1.000000 0.000000
vn 0.000000 -1.000000 0.000000
vn 0.000000 -1.000000 0.000000
vn 0.000000 -1.000000 0.000000
vn 0.000000 -0.618830 0.785525
vn 0.000000 -0.618830 0.785525
vn 0.000000 -0.618830 0.785525
vn 0.000000 -0.618830 0.785525
vn 0.000000 1.000000 0.000000
vn 0.000000 1.000000 0.000000
vn 0.000000 1.000000 0.000000
vn 0.000000 1.000000 0.000000
vn 0.000000 -0.618829 -0.785526
vn 0.000000 -0.618829 -0.785526
vn 0.000000 -0.618829 -0.785526
vn 0.000000 -0.618829 -0.785526
vn 0.000000 -1.000000 0.000000
vn 0.000000 -1.000000 0.000000
vn 0.000000 -1.000000 0.000000
vn 0.000000 -1.000000 0.000000
vn 0.601784 -0.798659 0.000000
vn 0.601784 -0.798659 0.000000
vn 0.601784 -0.798659 0.000000
vn 0.601784 -0.798659 0.000000
vn -0.601784 -0.798659 0.000000
vn -0.601784 -0.798659 0.000000
vn -0.601784 -0.798659 0.000000
vn -0.601784 -0.798659 0.000000
vn -0.558959 0.829195 0.000000
vn -0.558959 0.829195 0.000000
vn -0.558959 0.829195 0.000000
vn -0.558959 0.829195 0.000000
vn 0.000000 0.660871 0.750499
vn 0.000000 0.660871 0.750499
vn 0.000000 0.660871 0.750499
vn 0.000000 0.660871 0.750499
vn 0.558959 0.829195 0.000000
vn 0.558959 0.829195 0.000000
vn 0.558959 0.829195 0.000000
vn 0.558959 0.829195 0.000000
vn 0.000000 0.660872 -0.750499
vn 0.000000 0.660872 -0.750499
vn 0.000000 0.660872 -0.750499
vn 0.000000 0.660872 -0.750499
vn 0.000000 0.000000 1.000000
vn 0.000000 0.000000 1.000000
vn 0.000000 0.000000 1.000000
vn 0.000000 0.000000 1.000000
vn -1.000000 0.000000 0.000000
vn -1.000000 0.000000 0.000000
vn -1.000000 0.000000 0.000000
vn -1.000000 0.000000 0.000000
vn 0.000000 0.000000 -1.000000
vn 0.000000 0.000000 -1.000000
vn 0.000000 0.000000 -1.000000
vn 0.000000 0.000000 -1.000000
vn 1.000000 0.000000 0.000000
vn 1.000000 0.000000 0.000000
vn 1.000000 0.000000 0.000000
vn 1.000000 0.000000 0.000000
vn -1.000000 0.000000 0.000000
vn -1.000000 0.000000 0.000000
vn -1.000000 0.000000 0.000000
vn -1.000000 0.000000 0.000000
vn 0.000000 0.000000 1.000000
vn 0.000000 0.000000 1.000000
vn 0.000000 0.000000 1.000000
vn 0.000000 0.000000 1.000000
vn 1.000000 0.000000 0.000000
vn 1.000000 0.000000 0.000000
vn 1.000000 0.000000 0.000000
vn 1.000000 0.000000 0.000000
vn 0.000000 0.000000 -1.000000
vn 0.000000 0.000000 -1.000000
vn 0.000000 0.000000 -1.000000
vn 0.000000 0.000000 -1.000000
vn 1.000000 -0.000000 0.000000
vn 1.000000 -0.000000 0.000000
vn 1.000000 -0.000000 0.000000
vn 1.000000 -0.000000 0.000000
vn 1.000000 0.000000 0.000000
vn 1.000000 0.000000 0.000000
vn 1.000000 0.000000 0.000000
vn 1.000000 0.000000 0.000000
vn 1.000000 0.000000 0.000000
vn 1.000000 0.000000 0.000000
vn 1.000000 0.000000 0.000000
vn 1.000000 0.000000 0.000000
vn 1.000000 0.000000 0.000000
vn 1.000000 0.000000 0.000000
vn 1.000000 0.000000 0.000000
vn 1.000000 0.000000 0.000000
vn -1.000000 -0.000001 0.000000
vn -1.000000 -0.000001 0.000000
vn -1.000000 -0.000001 0.000000
vn -1.000000 -0.000001 0.000000
vn -1.000000 0.000000 0.000000
vn -1.000000 0.000000 0.000000
vn -1.000000 0.000000 0.000000
vn -1.000000 0.000000 0.000000
vn -1.000000 0.000000 0.000000
vn -1.000000 0.000000 0.000000
vn -1.000000 0.000000 0.000000
vn -1.000000 0.000000 0.000000
vn -1.000000 0.000000 0.000000
vn -1.000000 0.000000 0.000000
vn -1.000000 0.000000 0.000000
vn -1.000000 0.000000 0.000000
vn 1.000000 -0.000001 0.000000
vn 1.000000 -0.000001 0.000000
vn 1.000000 -0.000001 0.000000
vn 1.000000 -0.000001 0.000000
vn 1.000000 0.000000 0.000000
vn 1.000000 0.000000 0.000000
vn 1.000000 0.000000 0.000000
vn 1.000000 0.000000 0.000000
vn 1.000000 0.000000 0.000000
vn 1.000000 0.000000 0.000000
vn 1.000000 0.000000 0.000000
vn 1.000000 0.000000 0.000000
vn 1.000000 0.000000 0.000000
vn 1.000000 0.000000 0.000000
vn 1.000000 0.000000 0.000000
vn 1.000000 0.000000 0.000000
vn -1.000000 -0.000000 0.000000
vn -1.000000 -0.000000 0.000000
vn -1.000000 -0.000000 0.000000
vn -1.000000 -0.000000 0.000000
vn -1.000000 0.000000 0.000000
vn -1.000000 0.000000 0.000000
vn -1.000000 0.000000 0.000000
vn -1.000000 0.000000 0.000000
vn -1.000000 0.000000 0.000000
vn -1.000000 0.000000 0.000000
vn -1.000000 0.000000 0.000000
vn -1.000000 0.000000 0.000000
vn -1.000000 0.000000 0.000000
vn -1.000000 0.000000 0.000000
vn -1.000000 0.000000 0.000000
vn -1.000000 0.000000 0.000000
vn 0.000000 0.945731 0.324952
vn 0.000000 0.945731 0.324952
vn 0.000000 0.945730 0.324952
vn 0.000000 0.945730 0.324952
vn 0.292783 0.956179 0.000000
vn 0.292783 0.956179 0.000000
vn 0.292783 0.956179 0.000000
vn 0.292783 0.956179 0.000000
vn 0.000000 0.945731 -0.324952
vn 0.000000 0.945731 -0.324952
vn 0.000000 0.945730 -0.324952
vn 0.000000 0.945730 -0.324952
vn -0.292783 0.956179 0.000000
vn -0.292783 0.956179 0.000000
vn -0.292783 0.956179 0.000000
vn -0.292783 0.956179 0.000000
vn 0.000000 -0.945731 -0.324951
vn 0.000000 -0.945731 -0.324951
vn 0.000000 -0.945731 -0.324951
vn 0.000000 -0.945731 -0.324951
vn 0.292782 -0.956179 0.000000
vn 0.292782 -0.956179 0.000000
vn 0.292782 -0.956179 0.000000
vn 0.292782 -0.956179 0.000000
vn 0.000000 -0.945731 0.324951
vn 0.000000 -0.945731 0.324951
vn 0.000000 -0.945731 0.324951
vn 0.000000 -0.945731 0.324951
vn -0.292782 -0.956179 0.000000
vn -0.292782 -0.956179 0.000000
vn -0.292782 -0.956179 0.000000
vn -0.292782 -0.956179 0.000000
vn 0.000000 0.000000 1.000000
vn 0.000000 0.000000 1.000000
vn 0.000000 0.000000 1.000000
vn 0.000000 0.000000 1.000000
vn 1.000000 0.000000 0.000000
vn 1.000000 0.000000 0.000000
vn 1.000000 0.000000 0.000000
vn 1.000000 0.000000 0.000000
vn 0.000000 0.000000 -1.000000
vn 0.000000 0.000000 -1.000000
vn 0.000000 0.000000 -1.000000
vn 0.000000 0.000000 -1.000000
vn -1.000000 0.000000 0.000000
vn -1.000000 0.000000 0.000000
vn -1.000000 0.000000 0.000000
vn -1.000000 0.000000 0.000000
s off
f 1/1/1 2/2/2 4/4/3 3/3/4
f 3/3/5 4/4/6 6/6/7 5/5/8
f 5/5/9 6/6/10 8/8/11 7/7/12
f 7/7/13 8/8/14 2/10/15 1/9/16
f 9/15/17 10/16/18 12/17/19 11/18/20
f 11/18/21 12/17/22 14/19/23 13/20/24
f 13/20/25 14/19/26 16/21/27 15/22/28
f 15/22/29 16/21/30 10/23/31 9/24/32
f 26/92/33 27/88/34 29/97/35 30/103/36
f 61/125/37 62/126/38 63/127/39 64/128/40
f 31/101/41 32/95/42 28/39/43 25/108/44
f 57/121/45 58/122/46 59/123/47 60/124/48
f 27/89/49 28/106/50 32/96/51 29/31/52
f 25/47/53 26/91/54 30/104/55 31/100/56
f 33/49/57 34/85/58 26/29/59 25/107/60
f 34/86/61 35/82/62 27/30/63 26/93/64
f 35/83/65 36/77/66 28/45/67 27/90/68
f 25/40/69 28/105/70 36/78/71 33/54/72
f 30/102/73 29/98/74 20/34/75 19/110/76
f 31/48/77 30/32/78 19/33/79 21/55/80
f 21/36/81 22/115/82 32/38/83 31/37/84
f 29/99/85 32/46/86 22/56/87 20/112/88
f 23/57/89 17/58/90 34/84/91 33/79/92
f 17/114/93 18/59/94 35/81/95 34/50/96
f 18/113/97 24/60/98 36/52/99 35/51/100
f 33/80/101 36/53/102 24/42/103 23/94/104
f 2/2/105 8/11/106 37/62/107 38/61/108
f 8/11/109 6/12/110 39/63/111 37/62/112
f 6/12/113 4/4/114 40/64/115 39/63/116
f 4/4/117 2/2/118 38/61/119 40/64/120
f 7/13/121 1/1/122 42/66/123 41/65/124
f 1/1/125 3/3/126 43/67/127 42/66/128
f 3/3/129 5/14/130 44/68/131 43/67/132
f 5/14/133 7/13/134 41/65/135 44/68/136
f 10/16/137 16/25/138 45/70/139 46/69/140
f 16/25/141 14/26/142 47/71/143 45/70/144
f 14/26/145 12/17/146 48/72/147 47/71/148
f 12/17/149 10/16/150 46/69/151 48/72/152
f 15/27/153 9/15/154 50/74/155 49/73/156
f 9/15/157 11/18/158 51/75/159 50/74/160
f 11/18/161 13/28/162 52/76/163 51/75/164
f 13/28/165 15/27/166 49/73/167 52/76/168
f 19/109/169 20/111/170 54/118/171 53/117/172
f 20/111/173 22/35/174 55/119/175 54/118/176
f 22/35/177 21/116/178 56/120/179 55/119/180
f 21/116/181 19/109/182 53/117/183 56/120/184
f 23/41/185 24/87/186 58/122/187 57/121/188
f 24/87/189 18/43/190 59/123/191 58/122/192
f 18/43/193 17/44/194 60/124/195 59/123/196
f 17/44/197 23/41/198 57/121/199 60/124/200
f 53/117/201 54/118/202 62/126/203 61/125/204
f 54/118/205 55/119/206 63/127/207 62/126/208
f 55/119/209 56/120/210 64/128/211 63/127/212
f 56/120/213 53/117/214 61/125/215 64/128/216
