# This file uses centimeters as units for non-parametric coordinates.

v -0.034058 0.282635 0.232544
v 0.045898 0.282635 0.222534
v 0.158813 0.282635 0.222778
v 0.320923 0.282635 0.219849
v 0.317871 0.282635 0.089844
v 0.321289 0.282635 -0.012756
v 0.315796 0.282635 -0.205811
v 0.215942 0.282635 -0.209534
v 0.134766 0.282635 -0.194214
v 0.005371 0.282635 -0.209656
v -0.060913 0.282635 -0.212402
v -0.145142 0.282635 -0.211426
v -0.186523 0.282635 -0.204163
v -0.349854 0.282635 -0.208740
v -0.347656 0.282635 -0.056519
v -0.339600 0.282635 0.048828
v -0.348145 0.282635 0.166565
v -0.340942 0.282635 0.219727
v -0.282104 0.282635 0.218994
v -0.178833 0.282635 0.217834
v 0.098145 0.319309 0.171143
v 0.259521 0.318390 0.062378
v -0.037964 0.299297 -0.185669
v -0.169800 0.299374 -0.159973
v -0.209473 0.347515 0.134827
v 0.280518 0.321041 -0.010132
v -0.182251 0.344143 -0.123779
v -0.226929 0.348598 -0.082886
v -0.345825 0.282635 0.014954
v 0.197632 0.391144 0.031921
v -0.007935 0.362320 -0.156250
v -0.191528 0.338242 0.002197
v 0.208252 0.372246 -0.047424
v -0.018311 0.379414 -0.083618
v -0.083862 0.390350 0.064758
v 0.070801 0.405018 -0.002014
v -0.128052 0.341400 -0.069336
v -0.094116 0.432831 -0.028992
v -0.095337 0.412899 0.001099
v -0.077759 0.383789 0.013184
v -0.051636 0.362549 0.000244
v -0.032227 0.361622 -0.030212
v -0.030884 0.381554 -0.060303
v -0.048462 0.410664 -0.072388
v -0.074707 0.431904 -0.059448
v -0.063110 0.397228 -0.029602
v -0.124390 0.402451 0.000183
v -0.100830 0.363636 0.016357
v -0.065918 0.335320 -0.000916
v -0.040039 0.334084 -0.041565
v -0.038330 0.360657 -0.081665
v -0.061890 0.399471 -0.097839
v -0.096802 0.427788 -0.080566
v -0.122681 0.429020 -0.039978
v 0.150391 0.336548 0.067505
v 0.189697 0.344135 0.009155
v 0.162598 0.395927 0.083496
v 0.202026 0.403515 0.025085
v 0.134888 0.406269 0.066162
v 0.174316 0.413857 0.007813
v 0.122681 0.346889 0.050171
v 0.162109 0.354477 -0.008179
v 0.139893 0.415604 0.027710
v 0.197021 0.394180 0.063538
v 0.184814 0.334801 0.047607
v 0.127563 0.356224 0.011719
v 0.151978 0.359444 0.104187
v 0.212646 0.356377 0.069153
v 0.221313 0.372780 0.001587
v 0.172729 0.390961 -0.028870
v 0.112061 0.394028 0.006165
v 0.103394 0.377621 0.073730
v 0.059326 0.380608 0.062317
v 0.018433 0.376415 0.072754
v 0.007568 0.356365 0.108521
v 0.037720 0.340508 0.133911
v 0.078613 0.344704 0.123474
v 0.089478 0.364750 0.087646
v 0.059814 0.392403 0.069031
v 0.018921 0.388206 0.079468
v 0.008057 0.368156 0.115295
v 0.038208 0.352303 0.140686
v 0.079102 0.356495 0.130249
v 0.089966 0.376545 0.094421
v 0.028931 0.390671 0.008606
v -0.012329 0.390041 0.018555
v -0.024292 0.385475 0.059021
v 0.004883 0.381535 0.089539
v 0.046143 0.382164 0.079590
v 0.058228 0.386730 0.039185
v 0.029175 0.404179 0.010193
v -0.012085 0.403553 0.020142
v -0.024170 0.398983 0.060547
v 0.005005 0.395046 0.091125
v 0.046387 0.395672 0.081177
v 0.058350 0.400242 0.040710
v 0.145020 0.317387 -0.147461
v 0.107910 0.329391 -0.130615
v 0.107056 0.347897 -0.092407
v 0.143066 0.354397 -0.071045
v 0.180176 0.342388 -0.087891
v 0.181152 0.323883 -0.126099
v 0.146362 0.329586 -0.153320
v 0.109253 0.341591 -0.136475
v 0.108276 0.360096 -0.098267
v 0.144409 0.366596 -0.076965
v 0.181519 0.354588 -0.093811
v 0.182373 0.336082 -0.131958
v -0.135010 0.350693 -0.021545
v -0.173706 0.335701 -0.030640
v -0.202515 0.331200 0.000183
v -0.192627 0.341694 0.040100
v -0.154053 0.356686 0.049194
v -0.125244 0.361187 0.018372
v -0.139404 0.363369 -0.023804
v -0.178101 0.348377 -0.032898
v -0.206909 0.343880 -0.002075
v -0.197021 0.354370 0.037842
v -0.158447 0.369366 0.046997
v -0.129639 0.373863 0.016113
vt 0.133831 0.356294
vt 0.133831 0.356294
vt 0.133831 0.356294
vt 0.133831 0.356294
vt 0.133831 0.356294
vt 0.133831 0.356294
vt 0.133831 0.356294
vt 0.133831 0.356294
vt 0.133831 0.356294
vt 0.133831 0.356294
vt 0.133831 0.356294
vt 0.133831 0.356294
vt 0.133831 0.356294
vt 0.133831 0.356294
vt 0.133831 0.356294
vt 0.133831 0.356294
vt 0.133831 0.356294
vt 0.133831 0.356294
vt 0.133831 0.356294
vt 0.133831 0.356294
vt 0.133831 0.356294
vt 0.133831 0.356294
vt 0.133831 0.356294
vt 0.133831 0.356294
vt 0.133831 0.356294
vt 0.133831 0.356294
vt 0.133831 0.356294
vt 0.133831 0.356294
vt 0.133831 0.356294
vt 0.133831 0.356294
vt 0.133831 0.356294
vt 0.133831 0.356294
vt 0.133831 0.356294
vt 0.133831 0.356294
vt 0.133831 0.356294
vt 0.133831 0.356294
vt 0.133831 0.356294
vt 0.133831 0.356294
vt 0.133831 0.356294
vt 0.133831 0.356294
vt 0.309582 0.304070
vt 0.309582 0.304070
vt 0.309582 0.304070
vt 0.309582 0.304070
vt 0.309582 0.304070
vt 0.309582 0.304070
vt 0.309582 0.304070
vt 0.309582 0.304070
vt 0.309582 0.304070
vt 0.309582 0.304070
vt 0.309582 0.304070
vt 0.309582 0.304070
vt 0.309582 0.304070
vt 0.309582 0.304070
vt 0.309582 0.304070
vt 0.309582 0.304070
vt 0.309582 0.304070
vt 0.309582 0.304070
vt 0.309582 0.304070
vt 0.309582 0.304070
vt 0.309582 0.304070
vt 0.309582 0.304070
vt 0.309582 0.304070
vt 0.309582 0.304070
vt 0.309582 0.304070
vt 0.309582 0.304070
vt 0.309582 0.304070
vt 0.309582 0.304070
vt 0.047583 0.490070
vt 0.047583 0.490070
vt 0.047583 0.490070
vt 0.047583 0.490070
vt 0.047583 0.490070
vt 0.047583 0.490070
vt 0.047583 0.490070
vt 0.047583 0.490070
vt 0.047583 0.490070
vt 0.047583 0.490070
vt 0.047583 0.490070
vt 0.047583 0.490070
vt 0.047583 0.490070
vt 0.047583 0.490070
vt 0.047583 0.490070
vt 0.047583 0.490070
vt 0.047583 0.490070
vt 0.047583 0.490070
vt 0.047583 0.490070
vt 0.047583 0.490070
vt 0.047583 0.490070
vt 0.047583 0.490070
vt 0.047583 0.490070
vt 0.047583 0.490070
vt 0.047583 0.490070
vt 0.047583 0.490070
vt 0.047583 0.490070
vt 0.129382 0.357366
vt 0.129382 0.357366
vt 0.129382 0.357366
vt 0.129382 0.357366
vt 0.129382 0.357366
vt 0.129382 0.357366
vt 0.129382 0.357366
vt 0.129382 0.357366
vt 0.129382 0.357366
vt 0.129382 0.357366
vt 0.129382 0.357366
vt 0.129382 0.357366
vt 0.129382 0.357366
vt 0.129382 0.357366
vt 0.129382 0.357366
vt 0.129382 0.357366
vt 0.129382 0.357366
vt 0.129382 0.357366
vt 0.129382 0.357366
vt 0.129382 0.357366
vt 0.129382 0.357366
vt 0.129382 0.357366
vt 0.129382 0.357366
vt 0.129382 0.357366
vt 0.129382 0.357366
vt 0.129382 0.357366
vt 0.129382 0.357366
vt 0.129382 0.357366
vt 0.129382 0.357366
vt 0.129382 0.357366
vt 0.129382 0.357366
vt 0.129382 0.357366
vt 0.129382 0.357366
vt 0.129382 0.357366
vt 0.129382 0.357366
vt 0.129382 0.357366
vt 0.129382 0.357366
vt 0.129382 0.357366
vt 0.129382 0.357366
vt 0.129382 0.357366
vt 0.129382 0.357366
vt 0.129382 0.357366
vt 0.129382 0.357366
vt 0.129382 0.357366
vt 0.129382 0.357366
vt 0.129382 0.357366
vt 0.129382 0.357366
vt 0.129382 0.357366
vt 0.129382 0.357366
vt 0.129382 0.357366
vt 0.129382 0.357366
vt 0.129382 0.357366
vt 0.129382 0.357366
vt 0.129382 0.357366
vt 0.129382 0.357366
vt 0.129382 0.357366
vt 0.129382 0.357366
vt 0.129382 0.357366
vt 0.129382 0.357366
vt 0.129382 0.357366
vt 0.129382 0.357366
vt 0.129382 0.357366
vt 0.129382 0.357366
vt 0.129382 0.357366
vt 0.129382 0.357366
vt 0.129382 0.357366
vt 0.129382 0.357366
vt 0.129382 0.357366
vt 0.129382 0.357366
vt 0.129382 0.357366
vt 0.129382 0.357366
vt 0.129382 0.357366
vt 0.129382 0.357366
vt 0.129382 0.357366
vt 0.129382 0.357366
vt 0.129382 0.357366
vt 0.129382 0.357366
vt 0.129382 0.357366
vt 0.129382 0.357366
vt 0.129382 0.357366
vn -0.063918 0.774689 0.629104
vn -0.063918 0.774689 0.629104
vn -0.063918 0.774689 0.629104
vn 0.079000 0.771721 0.631035
vn 0.079000 0.771721 0.631035
vn 0.079000 0.771721 0.631035
vn -0.001254 0.814588 0.580038
vn -0.001254 0.814588 0.580038
vn -0.001254 0.814588 0.580038
vn 0.003975 0.975504 0.219947
vn 0.003975 0.975504 0.219947
vn 0.003975 0.975504 0.219947
vn 0.526667 0.849982 -0.012363
vn 0.526667 0.849982 -0.012363
vn 0.526667 0.849982 -0.012363
vn 0.516504 0.856112 0.017207
vn 0.516504 0.856112 0.017207
vn 0.516504 0.856112 0.017207
vn 0.059107 0.866717 -0.495286
vn 0.059107 0.866717 -0.495286
vn 0.059107 0.866717 -0.495286
vn 0.022486 0.839657 -0.542651
vn 0.022486 0.839657 -0.542651
vn 0.022486 0.839657 -0.542651
vn -0.048226 0.918148 -0.393292
vn -0.048226 0.918148 -0.393292
vn -0.048226 0.918148 -0.393292
vn -0.048226 0.918148 -0.393292
vn -0.058647 0.940697 -0.334140
vn -0.058647 0.940697 -0.334140
vn -0.058647 0.940697 -0.334140
vn 0.010021 0.933847 -0.357532
vn 0.010021 0.933847 -0.357532
vn 0.010021 0.933847 -0.357532
vn -0.249305 0.916098 0.314025
vn -0.249305 0.916098 0.314025
vn -0.249305 0.916098 0.314025
vn -0.249305 0.916098 0.314025
vn 0.006897 0.789099 0.614228
vn 0.006897 0.789099 0.614228
vn 0.006897 0.789099 0.614228
vn 0.014262 0.844613 0.535187
vn 0.014262 0.844613 0.535187
vn 0.014262 0.844613 0.535187
vn 0.244019 0.902683 0.354427
vn 0.244019 0.902683 0.354427
vn 0.244019 0.902683 0.354427
vn 0.676166 0.702670 0.221484
vn 0.676166 0.702670 0.221484
vn 0.676166 0.702670 0.221484
vn 0.684884 0.728392 -0.019488
vn 0.684884 0.728392 -0.019488
vn 0.684884 0.728392 -0.019488
vn 0.007135 0.981495 -0.191354
vn 0.007135 0.981495 -0.191354
vn 0.007135 0.981495 -0.191354
vn -0.153413 0.595099 -0.788873
vn -0.153413 0.595099 -0.788873
vn -0.153413 0.595099 -0.788873
vn 0.143035 0.645983 -0.749831
vn 0.143035 0.645983 -0.749831
vn 0.143035 0.645983 -0.749831
vn -0.478308 0.878165 0.006904
vn -0.478308 0.878165 0.006904
vn -0.478308 0.878165 0.006904
vn -0.429417 0.902568 -0.031165
vn -0.429417 0.902568 -0.031165
vn -0.429417 0.902568 -0.031165
vn 0.433729 0.636109 0.638158
vn 0.433729 0.636109 0.638158
vn 0.433729 0.636109 0.638158
vn -0.187263 0.933339 -0.306284
vn -0.187263 0.933340 -0.306284
vn -0.187263 0.933339 -0.306284
vn -0.477387 0.878608 0.012230
vn -0.477387 0.878608 0.012230
vn -0.477387 0.878608 0.012230
vn 0.693340 0.684324 0.225787
vn 0.693340 0.684324 0.225787
vn 0.693340 0.684324 0.225787
vn -0.208736 0.493571 -0.844285
vn -0.208736 0.493571 -0.844285
vn -0.208736 0.493571 -0.844285
vn -0.333910 0.940605 0.061367
vn -0.333910 0.940605 0.061367
vn -0.333910 0.940605 0.061367
vn 0.013567 0.842111 0.539133
vn 0.013567 0.842111 0.539133
vn 0.013567 0.842111 0.539133
vn 0.054511 0.870949 0.488341
vn 0.054511 0.870949 0.488341
vn 0.054511 0.870949 0.488341
vn 0.610518 0.784979 -0.105245
vn 0.610518 0.784979 -0.105245
vn 0.610518 0.784979 -0.105245
vn 0.654344 0.674529 -0.341825
vn 0.654344 0.674529 -0.341825
vn 0.654344 0.674529 -0.341825
vn -0.379141 0.917700 -0.118657
vn -0.379141 0.917700 -0.118657
vn -0.379141 0.917700 -0.118657
vn -0.003843 0.424485 -0.905427
vn -0.003843 0.424484 -0.905427
vn -0.003843 0.424485 -0.905427
vn -0.142020 0.955312 -0.259248
vn -0.142020 0.955312 -0.259248
vn -0.142020 0.955312 -0.259248
vn -0.129619 0.888007 0.441183
vn -0.129619 0.888007 0.441183
vn -0.129619 0.888007 0.441183
vn -0.346188 0.899270 -0.267332
vn -0.346188 0.899270 -0.267332
vn -0.346188 0.899270 -0.267332
vn -0.379876 0.918336 -0.111149
vn -0.379876 0.918336 -0.111149
vn -0.379876 0.918336 -0.111149
vn -0.145797 0.958158 -0.246327
vn -0.145797 0.958158 -0.246327
vn -0.145797 0.958158 -0.246327
vn 0.453460 0.879845 -0.142288
vn 0.453460 0.879845 -0.142288
vn 0.453460 0.879845 -0.142288
vn 0.029982 0.959471 0.280209
vn 0.029982 0.959471 0.280209
vn 0.029982 0.959471 0.280209
vn -0.091545 0.869666 -0.485078
vn -0.091545 0.869666 -0.485078
vn -0.091545 0.869666 -0.485078
vn -0.323765 0.922305 -0.211020
vn -0.323765 0.922305 -0.211020
vn -0.323765 0.922305 -0.211020
vn 0.161233 0.964708 -0.208188
vn 0.161233 0.964708 -0.208188
vn 0.161233 0.964708 -0.208188
vn 0.115277 0.821125 -0.558985
vn 0.115277 0.821125 -0.558985
vn 0.115277 0.821125 -0.558985
vn -0.153110 0.978278 -0.139751
vn -0.153110 0.978278 -0.139751
vn -0.153110 0.978278 -0.139751
vn 0.090872 0.917540 -0.387121
vn 0.090872 0.917540 -0.387121
vn 0.090872 0.917540 -0.387121
vn -0.304750 0.800006 0.516834
vn -0.304750 0.800006 0.516835
vn -0.304750 0.800006 0.516834
vn -0.304750 0.800006 0.516834
vn -0.139535 0.307143 0.941378
vn -0.139535 0.307143 0.941378
vn -0.139535 0.307143 0.941378
vn -0.139535 0.307143 0.941378
vn 0.301173 -0.197774 0.932835
vn 0.301173 -0.197774 0.932835
vn 0.301173 -0.197774 0.932835
vn 0.301173 -0.197774 0.932835
vn 0.759646 -0.419914 0.496599
vn 0.759645 -0.419914 0.496599
vn 0.759646 -0.419914 0.496599
vn 0.759645 -0.419914 0.496599
vn 0.966898 -0.230051 -0.110382
vn 0.966898 -0.230051 -0.110382
vn 0.966898 -0.230051 -0.110382
vn 0.966898 -0.230051 -0.110382
vn 0.801739 0.262091 -0.537143
vn 0.801739 0.262091 -0.537143
vn 0.801739 0.262091 -0.537143
vn 0.801739 0.262091 -0.537143
vn 0.361530 0.768240 -0.528302
vn 0.361530 0.768240 -0.528302
vn 0.361530 0.768240 -0.528302
vn 0.361530 0.768240 -0.528303
vn -0.096859 0.991050 -0.091862
vn -0.096859 0.991050 -0.091862
vn -0.096859 0.991050 -0.091862
vn -0.096859 0.991050 -0.091862
vn 0.687932 0.591911 0.419989
vn 0.687932 0.591911 0.419989
vn 0.687932 0.591911 0.419989
vn 0.688390 0.590536 0.421173
vn 0.688390 0.590536 0.421173
vn 0.688390 0.590536 0.421173
vn 0.688587 0.590309 0.421169
vn 0.688587 0.590309 0.421169
vn 0.688587 0.590309 0.421169
vn 0.688785 0.590213 0.420981
vn 0.688785 0.590213 0.420981
vn 0.688785 0.590213 0.420981
vn 0.688585 0.590030 0.421563
vn 0.688585 0.590030 0.421563
vn 0.688585 0.590030 0.421563
vn 0.688418 0.590534 0.421129
vn 0.688418 0.590534 0.421129
vn 0.688418 0.590534 0.421129
vn 0.686938 0.592236 0.421157
vn 0.686938 0.592236 0.421157
vn 0.686938 0.592236 0.421157
vn 0.687819 0.591808 0.420319
vn 0.687819 0.591808 0.420319
vn 0.687819 0.591808 0.420319
vn -0.855200 -0.366277 0.366708
vn -0.855200 -0.366277 0.366708
vn -0.855200 -0.366277 0.366708
vn -0.474218 -0.803793 0.359212
vn -0.474218 -0.803793 0.359212
vn -0.474218 -0.803793 0.359212
vn -0.076972 -0.996858 -0.018693
vn -0.076972 -0.996858 -0.018693
vn -0.076972 -0.996858 -0.018693
vn 0.103305 -0.831146 -0.546374
vn 0.103305 -0.831146 -0.546374
vn 0.103305 -0.831146 -0.546374
vn -0.038789 -0.404328 -0.913791
vn -0.038789 -0.404328 -0.913791
vn -0.038789 -0.404328 -0.913791
vn -0.420683 0.034325 -0.906558
vn -0.420683 0.034325 -0.906558
vn -0.420683 0.034325 -0.906558
vn -0.817998 0.227205 -0.528448
vn -0.817998 0.227205 -0.528448
vn -0.817998 0.227205 -0.528448
vn -0.998092 0.061730 -0.001633
vn -0.998092 0.061730 -0.001633
vn -0.998092 0.061730 -0.001633
vn 0.892076 0.399107 0.211930
vn 0.892076 0.399107 0.211930
vn 0.892076 0.399107 0.211930
vn 0.892076 0.399107 0.211930
vn 0.195034 0.947083 0.254943
vn 0.195034 0.947083 0.254943
vn 0.195034 0.947083 0.254943
vn 0.195034 0.947083 0.254943
vn -0.249806 0.826267 -0.504856
vn -0.249806 0.826267 -0.504856
vn -0.249806 0.826267 -0.504856
vn -0.249806 0.826267 -0.504856
vn -0.194794 -0.947173 -0.254793
vn -0.194794 -0.947173 -0.254793
vn -0.194794 -0.947172 -0.254793
vn -0.194794 -0.947172 -0.254793
vn 0.548851 0.697730 -0.460365
vn 0.548851 0.697730 -0.460365
vn 0.548851 0.697730 -0.460365
vn 0.548851 0.697730 -0.460365
vn -0.295910 0.534750 0.791505
vn -0.295910 0.534750 0.791505
vn -0.295910 0.534750 0.791505
vn -0.295910 0.534750 0.791505
vn 0.195036 0.947151 0.254688
vn 0.195036 0.947151 0.254688
vn 0.195036 0.947151 0.254688
vn 0.195036 0.947151 0.254688
vn 0.486305 0.320603 0.812847
vn 0.486305 0.320603 0.812847
vn 0.486305 0.320603 0.812847
vn 0.486305 0.320603 0.812847
vn -0.194798 -0.947276 -0.254403
vn -0.194798 -0.947277 -0.254403
vn -0.194798 -0.947276 -0.254403
vn -0.194798 -0.947277 -0.254403
vn -0.656301 0.748233 0.097039
vn -0.656301 0.748233 0.097039
vn -0.656301 0.748233 0.097039
vn -0.656301 0.748233 0.097039
vn 0.249806 -0.826267 0.504855
vn 0.249806 -0.826267 0.504855
vn 0.249806 -0.826267 0.504855
vn 0.249806 -0.826267 0.504855
vn 0.655567 -0.748753 -0.097987
vn 0.655567 -0.748753 -0.097987
vn 0.655567 -0.748753 -0.097987
vn 0.655567 -0.748753 -0.097987
vn 0.295965 -0.535223 -0.791164
vn 0.295965 -0.535223 -0.791164
vn 0.295965 -0.535223 -0.791164
vn 0.295965 -0.535223 -0.791164
vn -0.485612 -0.319404 -0.813734
vn -0.485612 -0.319404 -0.813734
vn -0.485612 -0.319404 -0.813734
vn -0.485612 -0.319404 -0.813734
vn -0.892901 -0.397897 -0.210729
vn -0.892901 -0.397897 -0.210729
vn -0.892901 -0.397897 -0.210729
vn -0.892901 -0.397897 -0.210729
vn -0.548988 -0.697891 0.459957
vn -0.548988 -0.697891 0.459957
vn -0.548988 -0.697891 0.459957
vn -0.548988 -0.697891 0.459957
vn -0.262614 0.485570 -0.833820
vn -0.262614 0.485570 -0.833820
vn -0.262614 0.485570 -0.833820
vn -0.262614 0.485570 -0.833820
vn -0.966022 0.157304 -0.205077
vn -0.966022 0.157304 -0.205077
vn -0.966022 0.157304 -0.205077
vn -0.966022 0.157304 -0.205077
vn -0.703624 -0.331831 0.628333
vn -0.703624 -0.331831 0.628333
vn -0.703624 -0.331831 0.628333
vn -0.703624 -0.331831 0.628333
vn 0.262473 -0.488814 0.831967
vn 0.262473 -0.488814 0.831967
vn 0.262473 -0.488814 0.831967
vn 0.262473 -0.488814 0.831967
vn 0.966042 -0.157617 0.204741
vn 0.966042 -0.157617 0.204741
vn 0.966042 -0.157617 0.204741
vn 0.966042 -0.157617 0.204741
vn 0.703260 0.330731 -0.629319
vn 0.703260 0.330731 -0.629319
vn 0.703260 0.330731 -0.629319
vn 0.703260 0.330731 -0.629319
vn 0.037790 0.867114 0.496675
vn 0.037790 0.867114 0.496675
vn 0.037790 0.867114 0.496675
vn 0.037790 0.867114 0.496675
vn 0.037790 0.867113 0.496675
vn 0.037790 0.867113 0.496675
vn -0.234470 0.117589 -0.964985
vn -0.234470 0.117589 -0.964985
vn -0.234470 0.117589 -0.964985
vn -0.234470 0.117589 -0.964985
vn -0.958923 0.045258 -0.280032
vn -0.958923 0.045258 -0.280032
vn -0.958923 0.045258 -0.280032
vn -0.958923 0.045258 -0.280032
vn -0.725922 -0.072238 0.683973
vn -0.725922 -0.072238 0.683973
vn -0.725922 -0.072238 0.683973
vn -0.725922 -0.072238 0.683973
vn 0.234156 -0.116549 0.965188
vn 0.234156 -0.116549 0.965188
vn 0.234156 -0.116549 0.965188
vn 0.234156 -0.116549 0.965188
vn 0.958924 -0.045258 0.280031
vn 0.958924 -0.045258 0.280031
vn 0.958924 -0.045258 0.280031
vn 0.958924 -0.045258 0.280031
vn 0.725162 0.069099 -0.685102
vn 0.725162 0.069099 -0.685102
vn 0.725162 0.069099 -0.685102
vn 0.725162 0.069099 -0.685102
vn 0.012771 0.993174 0.115937
vn 0.012771 0.993174 0.115937
vn 0.012771 0.993174 0.115937
vn 0.012771 0.993174 0.115937
vn 0.012771 0.993174 0.115937
vn 0.012771 0.993174 0.115937
vn -0.477414 -0.337173 -0.811412
vn -0.477414 -0.337173 -0.811412
vn -0.477414 -0.337173 -0.811412
vn -0.477414 -0.337173 -0.811412
vn -0.995309 0.075545 -0.060437
vn -0.995309 0.075545 -0.060437
vn -0.995309 0.075545 -0.060437
vn -0.995309 0.075545 -0.060437
vn -0.517309 0.415552 0.748136
vn -0.517309 0.415552 0.748136
vn -0.517309 0.415552 0.748136
vn -0.517309 0.415552 0.748136
vn 0.477785 0.340426 0.809834
vn 0.477785 0.340426 0.809834
vn 0.477785 0.340426 0.809834
vn 0.477785 0.340426 0.809834
vn 0.995321 -0.075404 0.060418
vn 0.995321 -0.075404 0.060418
vn 0.995321 -0.075404 0.060418
vn 0.995321 -0.075404 0.060418
vn 0.517893 -0.413970 -0.748609
vn 0.517893 -0.413970 -0.748609
vn 0.517893 -0.413970 -0.748609
vn 0.517893 -0.413970 -0.748609
vn 0.094006 0.896800 -0.432335
vn 0.094006 0.896800 -0.432335
vn 0.094006 0.896799 -0.432335
vn 0.094006 0.896800 -0.432335
vn 0.094006 0.896800 -0.432335
vn 0.094006 0.896800 -0.432335
vn 0.258025 -0.082047 -0.962648
vn 0.258025 -0.082047 -0.962648
vn 0.258025 -0.082047 -0.962648
vn 0.258025 -0.082047 -0.962648
vn -0.659270 -0.347308 -0.666888
vn -0.659270 -0.347308 -0.666888
vn -0.659270 -0.347308 -0.666888
vn -0.659270 -0.347308 -0.666888
vn -0.917369 -0.265092 0.296919
vn -0.917369 -0.265092 0.296919
vn -0.917369 -0.265092 0.296919
vn -0.917369 -0.265092 0.296919
vn -0.258634 0.079515 0.962697
vn -0.258634 0.079515 0.962697
vn -0.258634 0.079515 0.962697
vn -0.258634 0.079515 0.962697
vn 0.660078 0.345965 0.666787
vn 0.660078 0.345965 0.666787
vn 0.660078 0.345965 0.666787
vn 0.660078 0.345965 0.666787
vn 0.917965 0.265778 -0.294452
vn 0.917965 0.265778 -0.294452
vn 0.917965 0.265778 -0.294452
vn 0.917965 0.265778 -0.294452
vn -0.322644 0.931942 -0.165482
vn -0.322644 0.931942 -0.165482
vn -0.322644 0.931942 -0.165482
vn -0.322644 0.931942 -0.165482
vn -0.322644 0.931942 -0.165482
vn -0.322644 0.931942 -0.165482
s off
f 20/1/1 1/2/2 25/3/3
f 1/2/4 2/4/5 21/5/6
f 2/4/7 3/6/8 21/5/9
f 3/6/10 4/7/11 22/8/12
f 4/7/13 5/9/14 22/8/15
f 5/9/16 6/10/17 22/8/18
f 9/11/19 10/12/20 23/13/21
f 10/12/22 11/14/23 23/13/24
f 11/14/25 12/15/26 24/16/27 23/13/28
f 12/15/29 13/17/30 24/16/31
f 13/17/32 14/18/33 24/16/34
f 18/19/35 19/20/36 25/21/37 17/22/38
f 19/20/39 20/23/40 25/21/41
f 1/2/42 21/5/43 25/3/44
f 3/6/45 22/8/46 21/5/47
f 22/8/48 6/10/49 26/24/50
f 6/10/51 7/25/52 26/24/53
f 7/25/54 8/26/55 26/24/56
f 23/13/57 24/16/58 27/27/59
f 24/16/60 14/18/61 27/27/62
f 14/18/63 15/28/64 28/29/65
f 17/22/66 25/21/67 16/30/68
f 21/5/69 22/8/70 30/31/71
f 14/18/72 28/29/73 27/27/74
f 28/29/75 15/28/76 29/32/77
f 22/8/78 26/24/79 30/31/80
f 23/13/81 27/27/82 31/33/83
f 29/32/84 16/30/85 32/34/86
f 25/3/87 21/5/88 35/35/89
f 21/5/90 30/31/91 35/35/92
f 30/31/93 26/24/94 33/36/95
f 26/24/96 8/26/97 33/36/98
f 16/30/99 25/21/100 35/37/101
f 23/13/102 31/33/103 9/11/104
f 27/27/105 28/29/106 34/38/107
f 28/29/108 29/32/109 34/38/110
f 29/32/111 32/34/112 34/38/113
f 32/34/114 16/30/115 35/37/116
f 31/33/117 27/27/118 34/38/119
f 9/11/120 31/33/121 34/38/122
f 35/35/123 30/31/124 36/39/125
f 8/26/126 9/11/127 33/36/128
f 32/34/129 35/37/130 34/38/131
f 36/39/132 30/31/133 33/36/134
f 33/36/135 9/11/136 34/38/137
f 34/38/138 35/37/139 36/40/140
f 33/36/141 34/38/142 36/39/143
f 54/41/144 47/42/145 39/43/146 38/44/147
f 47/42/148 48/45/149 40/46/150 39/43/151
f 48/45/152 49/47/153 41/48/154 40/46/155
f 49/47/156 50/49/157 42/50/158 41/48/159
f 50/49/160 51/51/161 43/52/162 42/50/163
f 51/51/164 52/53/165 44/54/166 43/52/167
f 52/53/168 53/55/169 45/56/170 44/54/171
f 53/55/172 54/57/173 38/58/174 45/56/175
f 38/59/176 39/60/177 46/61/178
f 39/60/179 40/62/180 46/61/181
f 40/62/182 41/63/183 46/61/184
f 41/63/185 42/64/186 46/61/187
f 42/64/188 43/65/189 46/61/190
f 43/65/191 44/66/192 46/61/193
f 44/66/194 45/67/195 46/61/196
f 45/67/197 38/59/198 46/61/199
f 37/68/200 48/45/201 47/42/202
f 37/68/203 49/47/204 48/45/205
f 37/68/206 50/49/207 49/47/208
f 37/68/209 51/51/210 50/49/211
f 37/68/212 52/53/213 51/51/214
f 37/68/215 53/55/216 52/53/217
f 37/68/218 54/57/219 53/55/220
f 37/68/221 47/42/222 54/41/223
f 64/69/224 68/70/225 69/71/226 58/72/227
f 63/73/228 64/69/229 58/72/230 60/74/231
f 70/75/232 71/76/233 63/73/234 60/74/235
f 65/77/236 66/78/237 62/79/238 56/80/239
f 69/71/240 70/81/241 60/82/242 58/72/243
f 72/83/244 67/84/245 57/85/246 59/86/247
f 57/85/248 64/69/249 63/73/250 59/87/251
f 67/84/252 68/70/253 64/69/254 57/85/255
f 61/88/256 66/78/257 65/77/258 55/89/259
f 59/87/260 63/73/261 71/76/262 72/90/263
f 55/91/264 65/92/265 68/70/266 67/84/267
f 69/71/268 68/70/269 65/92/270 56/93/271
f 56/93/272 62/94/273 70/81/274 69/71/275
f 66/78/276 71/76/277 70/75/278 62/79/279
f 72/90/280 71/76/281 66/78/282 61/88/283
f 61/95/284 55/91/285 67/84/286 72/83/287
f 73/96/288 74/97/289 80/98/290 79/99/291
f 74/97/292 75/100/293 81/101/294 80/98/295
f 75/100/296 76/102/297 82/103/298 81/101/299
f 76/102/300 77/104/301 83/105/302 82/103/303
f 77/104/304 78/106/305 84/107/306 83/105/307
f 78/106/308 73/108/309 79/109/310 84/107/311
f 82/110/312 83/111/313 84/112/314 79/113/315 80/114/316 81/115/317
f 85/116/318 86/117/319 92/118/320 91/119/321
f 86/117/322 87/120/323 93/121/324 92/118/325
f 87/120/326 88/122/327 94/123/328 93/121/329
f 88/122/330 89/124/331 95/125/332 94/123/333
f 89/124/334 90/126/335 96/127/336 95/125/337
f 90/126/338 85/128/339 91/129/340 96/127/341
f 94/130/342 95/131/343 96/132/344 91/133/345 92/134/346 93/135/347
f 97/136/348 98/137/349 104/138/350 103/139/351
f 98/137/352 99/140/353 105/141/354 104/138/355
f 99/140/356 100/142/357 106/143/358 105/141/359
f 100/142/360 101/144/361 107/145/362 106/143/363
f 101/144/364 102/146/365 108/147/366 107/145/367
f 102/146/368 97/148/369 103/149/370 108/147/371
f 106/150/372 107/151/373 108/152/374 103/153/375 104/154/376 105/155/377
f 109/156/378 110/157/379 116/158/380 115/159/381
f 110/157/382 111/160/383 117/161/384 116/158/385
f 111/160/386 112/162/387 118/163/388 117/161/389
f 112/162/390 113/164/391 119/165/392 118/163/393
f 113/164/394 114/166/395 120/167/396 119/165/397
f 114/166/398 109/168/399 115/169/400 120/167/401
f 118/170/402 119/171/403 120/172/404 115/173/405 116/174/406 117/175/407
