# This file uses centimeters as units for non-parametric coordinates.

v 0.143954 -0.126552 -0.248320
v 0.143954 0.039098 -0.262160
v 0.000000 0.121923 -0.269080
v -0.143954 0.039098 -0.262160
v -0.143954 -0.126552 -0.248320
v 0.000000 -0.209372 -0.241400
v 0.183504 -0.105578 0.230325
v 0.183504 0.104837 0.203805
v 0.000000 0.211156 0.203866
v -0.183504 0.105580 0.212686
v -0.183504 -0.105578 0.230325
v 0.000000 -0.211158 0.239145
v 0.138690 -0.076938 0.262414
v 0.138690 0.082654 0.249078
v 0.000000 0.162450 0.242414
v -0.138690 0.082654 0.249078
v -0.138690 -0.076938 0.262414
v 0.000000 -0.156730 0.269079
v 0.087809 -0.047660 0.259965
v 0.087809 0.053380 0.251523
v 0.000000 0.103902 0.247308
v -0.087809 0.053380 0.251523
v -0.087809 -0.047660 0.259965
v 0.000000 -0.098178 0.264188
v 0.000000 0.156663 0.049012
v 0.147641 0.071717 0.056108
v 0.147641 -0.098170 0.070302
v 0.000000 -0.183116 0.077398
v -0.147641 -0.098170 0.070302
v -0.147641 0.071717 0.056108
v 0.000000 -0.008296 0.068811
vt 0.281345 0.165201
vt 0.281345 0.165201
vt 0.281345 0.165201
vt 0.281345 0.165201
vt 0.281345 0.165201
vt 0.281345 0.165201
vt 0.281345 0.165201
vt 0.281345 0.165201
vt 0.281345 0.165201
vt 0.281345 0.165201
vt 0.281345 0.165201
vt 0.281345 0.165201
vt 0.281345 0.165201
vt 0.281345 0.165201
vt 0.281345 0.165201
vt 0.281345 0.165201
vt 0.281345 0.165201
vt 0.281345 0.165201
vt 0.281345 0.165201
vt 0.281345 0.165201
vt 0.281345 0.165201
vt 0.281345 0.165201
vt 0.281345 0.165201
vt 0.281345 0.165201
vt 0.281345 0.165201
vt 0.281345 0.165201
vt 0.281345 0.165201
vt 0.281345 0.165201
vt 0.281345 0.165201
vt 0.281345 0.165201
vt 0.046456 0.008430
vt 0.046456 0.008430
vt 0.046456 0.008430
vt 0.046456 0.008430
vt 0.046456 0.008430
vt 0.046456 0.008430
vt 0.046456 0.008430
vn 0.499997 -0.863104 0.071091
vn 0.499997 -0.863104 0.071091
vn 0.499997 -0.863104 0.071091
vn 0.499997 -0.863104 0.071091
vn 0.999934 -0.000960 -0.011485
vn 0.999934 -0.000960 -0.011485
vn 0.999934 -0.000960 -0.011485
vn 0.999934 -0.000960 -0.011485
vn 0.499885 0.860972 -0.094032
vn 0.499885 0.860972 -0.094032
vn 0.499885 0.860972 -0.094032
vn 0.499885 0.860972 -0.094032
vn -0.499883 0.860973 -0.094032
vn -0.499883 0.860973 -0.094032
vn -0.499883 0.860973 -0.094032
vn -0.499883 0.860973 -0.094032
vn -0.999934 -0.000960 -0.011485
vn -0.999934 -0.000960 -0.011485
vn -0.999934 -0.000960 -0.011485
vn -0.999934 -0.000960 -0.011485
vn -0.499996 -0.863105 0.071091
vn -0.499996 -0.863105 0.071091
vn -0.499996 -0.863105 0.071091
vn -0.499996 -0.863105 0.071091
vn 0.487730 -0.860163 -0.149127
vn 0.487730 -0.860163 -0.149127
vn 0.487730 -0.860163 -0.149127
vn 0.487730 -0.860163 -0.149127
vn 0.974054 -0.024091 -0.225031
vn 0.974054 -0.024091 -0.225031
vn 0.974054 -0.024091 -0.225031
vn 0.974054 -0.024091 -0.225031
vn 0.482459 0.824417 -0.295922
vn 0.482459 0.824417 -0.295922
vn 0.482459 0.824417 -0.295922
vn 0.482459 0.824417 -0.295922
vn -0.487718 0.823498 -0.289798
vn -0.487718 0.823498 -0.289798
vn -0.487718 0.823498 -0.289798
vn -0.487718 0.823498 -0.289798
vn -0.975450 -0.018334 -0.219459
vn -0.975450 -0.018334 -0.219459
vn -0.975450 -0.018334 -0.219459
vn -0.975450 -0.018334 -0.219459
vn -0.487729 -0.860164 -0.149127
vn -0.487729 -0.860164 -0.149127
vn -0.487729 -0.860164 -0.149127
vn -0.487729 -0.860164 -0.149127
vn 0.304239 -0.459077 0.834678
vn 0.304239 -0.459077 0.834678
vn 0.304239 -0.459077 0.834678
vn 0.304239 -0.459077 0.834678
vn 0.654593 0.080964 0.751633
vn 0.654593 0.080964 0.751633
vn 0.654593 0.080964 0.751633
vn 0.654593 0.080964 0.751633
vn 0.342973 0.618811 0.706712
vn 0.342973 0.618811 0.706712
vn 0.342973 0.618811 0.706712
vn 0.342973 0.618811 0.706712
vn -0.304216 0.591153 0.746988
vn -0.304216 0.591153 0.746988
vn -0.304216 0.591153 0.746988
vn -0.304216 0.591153 0.746987
vn -0.608452 0.066072 0.790835
vn -0.608452 0.066072 0.790835
vn -0.608452 0.066072 0.790835
vn -0.608452 0.066072 0.790835
vn -0.304238 -0.459078 0.834678
vn -0.304238 -0.459078 0.834678
vn -0.304238 -0.459078 0.834678
vn -0.304238 -0.459078 0.834678
vn -0.000007 0.083271 0.996527
vn -0.000007 0.083271 0.996527
vn -0.000007 0.083271 0.996527
vn -0.000007 0.083271 0.996527
vn -0.000034 0.083269 0.996527
vn -0.000034 0.083269 0.996527
vn -0.000034 0.083269 0.996527
vn -0.000034 0.083269 0.996527
vn 0.000038 0.083260 0.996528
vn 0.000038 0.083260 0.996528
vn 0.000038 0.083260 0.996528
vn 0.000038 0.083260 0.996528
vn -0.000038 0.083260 0.996528
vn -0.000038 0.083260 0.996528
vn -0.000038 0.083260 0.996528
vn -0.000038 0.083260 0.996528
vn 0.000034 0.083269 0.996527
vn 0.000034 0.083269 0.996527
vn 0.000034 0.083269 0.996527
vn 0.000034 0.083269 0.996527
vn 0.000007 0.083271 0.996527
vn 0.000007 0.083271 0.996527
vn 0.000007 0.083271 0.996527
vn 0.000007 0.083271 0.996527
vn -0.905362 0.035356 0.423167
vn -0.905362 0.035356 0.423167
vn -0.905362 0.035356 0.423167
vn -0.456211 -0.753399 0.473563
vn -0.456211 -0.753399 0.473563
vn -0.456211 -0.753399 0.473563
vn 0.456209 -0.753399 0.473563
vn 0.456209 -0.753399 0.473563
vn 0.456209 -0.753399 0.473563
vn 0.905361 0.035356 0.423169
vn 0.905361 0.035356 0.423169
vn 0.905361 0.035356 0.423169
vn 0.449044 0.811732 0.373431
vn 0.449044 0.811732 0.373431
vn 0.449044 0.811732 0.373431
vn -0.449046 0.811731 0.373431
vn -0.449046 0.811731 0.373431
vn -0.449046 0.811731 0.373431
s off
f 6/1/1 1/2/2 27/3/3 28/4/4
f 27/3/5 1/2/6 2/5/7 26/6/8
f 26/6/9 2/5/10 3/7/11 25/8/12
f 25/8/13 3/7/14 4/9/15 30/10/16
f 30/10/17 4/9/18 5/11/19 29/12/20
f 29/12/21 5/11/22 6/1/23 28/4/24
f 28/4/25 27/3/26 7/13/27 12/14/28
f 27/3/29 26/6/30 8/15/31 7/13/32
f 26/6/33 25/8/34 9/16/35 8/15/36
f 10/17/37 9/16/38 25/8/39 30/10/40
f 30/10/41 29/12/42 11/18/43 10/17/44
f 29/12/45 28/4/46 12/14/47 11/18/48
f 7/13/49 13/19/50 18/20/51 12/14/52
f 13/19/53 7/13/54 8/15/55 14/21/56
f 14/21/57 8/15/58 9/16/59 15/22/60
f 15/22/61 9/16/62 10/17/63 16/23/64
f 16/23/65 10/17/66 11/18/67 17/24/68
f 17/24/69 11/18/70 12/14/71 18/20/72
f 18/20/73 13/19/74 19/25/75 24/26/76
f 19/25/77 13/19/78 14/21/79 20/27/80
f 20/27/81 14/21/82 15/22/83 21/28/84
f 21/28/85 15/22/86 16/23/87 22/29/88
f 22/29/89 16/23/90 17/24/91 23/30/92
f 23/30/93 17/24/94 18/20/95 24/26/96
f 31/31/97 19/32/98 20/33/99
f 31/31/100 20/33/101 21/34/102
f 31/31/103 21/34/104 22/35/105
f 31/31/106 22/35/107 23/36/108
f 31/31/109 23/36/110 24/37/111
f 31/31/112 24/37/113 19/32/114
