# This file uses centimeters as units for non-parametric coordinates.

v -0.039978 15.936438 4.136262
v -0.039978 18.355322 -2.917529
v -0.039978 15.885519 4.038198
v -0.039978 18.279669 -2.943469
v 0.039978 15.885519 4.038195
v 0.039978 18.279669 -2.943469
v 0.039978 15.936438 4.136259
v 0.039978 18.355322 -2.917529
v -0.028503 15.404928 4.078015
v -0.028503 13.921637 5.232285
v -0.028503 15.498755 4.091096
v -0.028503 14.188787 5.099370
v 0.028503 15.498755 4.091093
v 0.028503 14.188787 5.099371
v 0.028503 15.404928 4.078016
v 0.028503 13.921637 5.232286
v -0.039978 15.868994 4.092313
v -0.039978 0.753162 18.863392
v -0.039978 15.981833 4.093862
v -0.039978 0.809053 18.920582
v 0.039978 15.981833 4.093859
v 0.039978 0.809053 18.920574
v 0.039978 15.868994 4.092310
v 0.039978 0.753162 18.863384
v -0.039978 12.427053 4.107015
v -0.039978 -0.149899 14.866460
v -0.039978 12.526434 4.127248
v -0.039978 -0.097915 14.927236
v 0.039978 12.526434 4.127245
v 0.039978 -0.097915 14.927228
v 0.039978 12.427053 4.107012
v 0.039978 -0.149899 14.866452
v -0.035828 12.311789 4.053140
v -0.035828 11.286177 4.732625
v -0.035828 12.313299 4.144727
v -0.035828 11.413809 4.720136
v 0.035828 12.313299 4.144728
v 0.035767 11.413809 4.720137
v 0.035828 12.311789 4.053137
v 0.035767 11.286177 4.732622
v -0.035797 1.038223 13.187829
v -0.035797 -0.207965 14.539559
v -0.035797 1.039728 13.279412
v -0.035797 -0.162398 14.594781
v 0.035797 1.039728 13.279413
v 0.035797 -0.162398 14.594781
v 0.035797 1.038223 13.187830
v 0.035797 -0.207965 14.539559
v -0.035797 1.694139 17.472816
v -0.035797 0.725422 18.750664
v -0.035797 1.547310 17.749916
v -0.035797 0.779360 18.797752
v 0.035797 1.547310 17.749916
v 0.035797 0.779360 18.797752
v 0.035797 1.694139 17.472816
v 0.035797 0.725422 18.750664
v 0.512299 5.206705 8.466259
v -0.035767 1.258129 4.252771
v 0.516907 5.186884 8.549811
v -0.035522 1.205873 4.301713
v 0.588196 5.182512 8.544842
v 0.035767 1.201496 4.296739
v 0.583588 5.202341 8.461282
v 0.035522 1.253759 4.247797
v -0.035828 1.930384 5.537034
v -0.035828 -1.462568 4.238778
v -0.035828 1.786533 5.558652
v -0.035828 -1.488154 4.305646
v 0.035828 1.786533 5.558653
v 0.035767 -1.488154 4.305647
v 0.035828 1.930384 5.537035
v 0.035767 -1.462568 4.238775
vt 0.361913 0.106503
vt 0.361913 0.106503
vt 0.361913 0.106503
vt 0.361913 0.106503
vt 0.361913 0.106503
vt 0.361913 0.106503
vt 0.361913 0.106503
vt 0.361913 0.106503
vt 0.361913 0.106503
vt 0.361913 0.106503
vt 0.361913 0.106503
vt 0.361913 0.106503
vt 0.361913 0.106503
vt 0.361913 0.106503
vt 0.361913 0.106503
vt 0.361913 0.106503
vt 0.361913 0.106503
vt 0.361913 0.106503
vt 0.361913 0.106503
vt 0.361913 0.106503
vt 0.361913 0.106503
vt 0.361913 0.106503
vt 0.361913 0.106503
vt 0.361913 0.106503
vt 0.361913 0.106503
vt 0.361913 0.106503
vt 0.361913 0.106503
vt 0.361913 0.106503
vt 0.361913 0.106503
vt 0.361913 0.106503
vt 0.361913 0.106503
vt 0.361913 0.106503
vt 0.361913 0.106503
vt 0.361913 0.106503
vt 0.361913 0.106503
vt 0.361913 0.106503
vt 0.361913 0.106503
vt 0.361913 0.106503
vt 0.361913 0.106503
vt 0.361913 0.106503
vt 0.361913 0.106503
vt 0.361913 0.106503
vt 0.361913 0.106503
vt 0.361913 0.106503
vt 0.361913 0.106503
vt 0.361913 0.106503
vt 0.361913 0.106503
vt 0.361913 0.106503
vt 0.361913 0.106503
vt 0.361913 0.106503
vt 0.361913 0.106503
vt 0.361913 0.106503
vt 0.361913 0.106503
vt 0.361913 0.106503
vt 0.361913 0.106503
vt 0.361913 0.106503
vt 0.361913 0.106503
vt 0.361913 0.106503
vt 0.361913 0.106503
vt 0.361913 0.106503
vt 0.361913 0.106503
vt 0.361913 0.106503
vt 0.361913 0.106503
vt 0.361913 0.106503
vt 0.361913 0.106503
vt 0.361913 0.106503
vt 0.361913 0.106503
vt 0.361913 0.106503
vt 0.361913 0.106503
vt 0.361913 0.106503
vt 0.361913 0.106503
vt 0.361913 0.106503
vt 0.361913 0.106503
vt 0.361913 0.106503
vt 0.361913 0.106503
vt 0.361913 0.106503
vt 0.361913 0.106503
vt 0.361913 0.106503
vt 0.361913 0.106503
vt 0.361913 0.106503
vt 0.361913 0.106503
vt 0.361913 0.106503
vt 0.361913 0.106503
vt 0.361913 0.106503
vt 0.361913 0.106503
vt 0.361913 0.106503
vt 0.361913 0.106503
vt 0.361913 0.106503
vt 0.361913 0.106503
vt 0.361913 0.106503
vn -1.000000 0.000000 0.000000
vn -1.000000 0.000000 0.000000
vn -1.000000 0.000000 0.000000
vn -1.000000 0.000000 0.000000
vn -0.000006 -0.945928 -0.324377
vn -0.000006 -0.945928 -0.324377
vn -0.000006 -0.945928 -0.324377
vn -0.000006 -0.945928 -0.324377
vn 1.000000 -0.000000 0.000000
vn 1.000000 -0.000000 0.000000
vn 1.000000 -0.000000 0.000000
vn 1.000000 -0.000000 0.000000
vn 0.000006 0.945928 0.324377
vn 0.000006 0.945928 0.324377
vn 0.000006 0.945928 0.324377
vn 0.000006 0.945928 0.324377
vn -1.000000 0.000000 0.000000
vn -1.000000 0.000000 0.000000
vn -1.000000 0.000000 0.000000
vn -1.000000 0.000000 0.000000
vn 0.000010 0.609943 0.792446
vn 0.000010 0.609943 0.792446
vn 0.000010 0.609943 0.792446
vn 0.000010 0.609943 0.792446
vn 1.000000 0.000000 0.000000
vn 1.000000 0.000000 0.000000
vn 1.000000 0.000000 0.000000
vn 1.000000 0.000000 0.000000
vn 0.000009 -0.614139 -0.789198
vn 0.000009 -0.614139 -0.789198
vn 0.000009 -0.614139 -0.789198
vn 0.000009 -0.614139 -0.789198
vn -1.000000 0.000000 0.000000
vn -1.000000 0.000000 0.000000
vn -1.000000 0.000000 0.000000
vn -1.000000 0.000000 0.000000
vn 0.000045 0.698903 0.715216
vn 0.000045 0.698903 0.715216
vn 0.000045 0.698903 0.715216
vn 0.000045 0.698903 0.715216
vn 1.000000 0.000000 0.000000
vn 1.000000 0.000000 0.000000
vn 1.000000 0.000000 0.000000
vn 1.000000 0.000000 0.000000
vn -0.000054 -0.698904 -0.715216
vn -0.000054 -0.698904 -0.715216
vn -0.000054 -0.698904 -0.715216
vn -0.000054 -0.698904 -0.715216
vn -1.000000 -0.000000 0.000000
vn -1.000000 -0.000000 0.000000
vn -1.000000 -0.000000 0.000000
vn -1.000000 -0.000000 0.000000
vn 0.000057 0.650066 0.759878
vn 0.000057 0.650066 0.759878
vn 0.000057 0.650066 0.759877
vn 0.000057 0.650066 0.759877
vn 1.000000 0.000000 0.000000
vn 1.000000 0.000000 0.000000
vn 1.000000 0.000000 0.000000
vn 1.000000 0.000000 0.000000
vn -0.000058 -0.650067 -0.759877
vn -0.000058 -0.650067 -0.759877
vn -0.000058 -0.650067 -0.759877
vn -0.000058 -0.650067 -0.759877
vn -1.000000 -0.000000 0.000000
vn -1.000000 -0.000000 0.000000
vn -1.000000 -0.000000 0.000000
vn -1.000000 -0.000000 0.000000
vn -0.000012 0.538877 0.842384
vn -0.000012 0.538877 0.842384
vn -0.000012 0.538877 0.842384
vn -0.000012 0.538877 0.842384
vn 1.000000 -0.000031 0.000050
vn 1.000000 -0.000031 0.000050
vn 1.000000 -0.000031 0.000050
vn 1.000000 -0.000031 0.000050
vn -0.000032 -0.552303 -0.833644
vn -0.000032 -0.552303 -0.833644
vn -0.000032 -0.552303 -0.833644
vn -0.000032 -0.552303 -0.833644
vn -1.000000 -0.000000 0.000000
vn -1.000000 -0.000000 0.000000
vn -1.000000 -0.000000 0.000000
vn -1.000000 -0.000000 0.000000
vn 0.000000 0.738167 0.674618
vn 0.000000 0.738167 0.674618
vn 0.000000 0.738167 0.674618
vn 0.000000 0.738167 0.674618
vn 1.000000 0.000000 0.000000
vn 1.000000 0.000000 0.000000
vn 1.000000 0.000000 0.000000
vn 1.000000 0.000000 0.000000
vn 0.000000 -0.735227 -0.677821
vn 0.000000 -0.735227 -0.677821
vn 0.000000 -0.735227 -0.677821
vn 0.000000 -0.735227 -0.677821
vn -1.000000 0.000000 0.000000
vn -1.000000 0.000000 0.000000
vn -1.000000 0.000000 0.000000
vn -1.000000 0.000000 0.000000
vn 0.000000 0.806575 0.591132
vn 0.000000 0.806575 0.591132
vn 0.000000 0.806575 0.591132
vn 0.000000 0.806575 0.591132
vn 1.000000 0.000000 0.000000
vn 1.000000 0.000000 0.000000
vn 1.000000 0.000000 0.000000
vn 1.000000 0.000000 0.000000
vn 0.000000 -0.796897 -0.604116
vn 0.000000 -0.796897 -0.604116
vn 0.000000 -0.796897 -0.604116
vn 0.000000 -0.796897 -0.604116
vn -0.995524 0.062802 0.070623
vn -0.995524 0.062802 0.070623
vn -0.995524 0.062802 0.070623
vn -0.995524 0.062802 0.070623
vn 0.002881 -0.729857 0.683594
vn 0.002881 -0.729857 0.683594
vn 0.002881 -0.729857 0.683594
vn 0.002881 -0.729857 0.683594
vn 0.995524 -0.062799 -0.070625
vn 0.995524 -0.062799 -0.070625
vn 0.995524 -0.062799 -0.070625
vn 0.995524 -0.062799 -0.070625
vn -0.003003 0.729864 -0.683586
vn -0.003003 0.729864 -0.683586
vn -0.003003 0.729864 -0.683586
vn -0.003003 0.729864 -0.683586
vn -1.000000 -0.000000 0.000000
vn -1.000000 -0.000000 0.000000
vn -1.000000 -0.000000 0.000000
vn -1.000000 -0.000000 0.000000
vn -0.000015 -0.357366 0.933964
vn -0.000015 -0.357366 0.933964
vn -0.000015 -0.357366 0.933964
vn -0.000015 -0.357366 0.933964
vn 1.000000 -0.000011 -0.000020
vn 1.000000 -0.000011 -0.000020
vn 1.000000 -0.000011 -0.000020
vn 1.000000 -0.000011 -0.000020
vn -0.000015 0.357366 -0.933964
vn -0.000015 0.357366 -0.933964
vn -0.000015 0.357366 -0.933964
vn -0.000015 0.357366 -0.933964
s off
f 1/1/1 2/2/2 4/3/3 3/4/4
f 3/4/5 4/3/6 6/5/7 5/6/8
f 5/6/9 6/5/10 8/7/11 7/8/12
f 7/8/13 8/7/14 2/9/15 1/10/16
f 9/11/17 10/12/18 12/13/19 11/14/20
f 11/14/21 12/13/22 14/15/23 13/16/24
f 13/16/25 14/15/26 16/17/27 15/18/28
f 15/18/29 16/17/30 10/19/31 9/20/32
f 17/21/33 18/22/34 20/23/35 19/24/36
f 19/24/37 20/23/38 22/25/39 21/26/40
f 21/26/41 22/25/42 24/27/43 23/28/44
f 23/28/45 24/27/46 18/29/47 17/30/48
f 25/31/49 26/32/50 28/33/51 27/34/52
f 27/34/53 28/33/54 30/35/55 29/36/56
f 29/36/57 30/35/58 32/37/59 31/38/60
f 31/38/61 32/37/62 26/39/63 25/40/64
f 33/41/65 34/42/66 36/43/67 35/44/68
f 35/44/69 36/43/70 38/45/71 37/46/72
f 37/46/73 38/45/74 40/47/75 39/48/76
f 39/48/77 40/47/78 34/49/79 33/50/80
f 41/51/81 42/52/82 44/53/83 43/54/84
f 43/54/85 44/53/86 46/55/87 45/56/88
f 45/56/89 46/55/90 48/57/91 47/58/92
f 47/58/93 48/57/94 42/59/95 41/60/96
f 49/61/97 50/62/98 52/63/99 51/64/100
f 51/64/101 52/63/102 54/65/103 53/66/104
f 53/66/105 54/65/106 56/67/107 55/68/108
f 55/68/109 56/67/110 50/69/111 49/70/112
f 57/71/113 58/72/114 60/73/115 59/74/116
f 59/74/117 60/73/118 62/75/119 61/76/120
f 61/76/121 62/75/122 64/77/123 63/78/124
f 63/78/125 64/77/126 58/79/127 57/80/128
f 65/81/129 66/82/130 68/83/131 67/84/132
f 67/84/133 68/83/134 70/85/135 69/86/136
f 69/86/137 70/85/138 72/87/139 71/88/140
f 71/88/141 72/87/142 66/89/143 65/90/144
