# This file uses centimeters as units for non-parametric coordinates.

v -0.001014 0.365748 -0.019924
v 0.043780 0.345937 -0.013034
v 0.043780 0.345937 0.013034
v -0.001014 0.365749 0.019925
v -0.045811 0.345937 0.013034
v -0.045811 0.345937 -0.013034
v -0.001014 0.127877 -0.019924
v -0.045811 0.126110 -0.013034
v -0.045811 0.126109 0.013034
v -0.001014 0.127878 0.019925
v 0.043780 0.126109 0.013034
v 0.043780 0.126110 -0.013034
v -0.001014 0.427417 -0.014867
v -0.001014 0.427417 0.014867
v 0.051668 0.401028 0.006237
v 0.051668 0.401028 -0.006237
v -0.053697 0.401028 0.006237
v -0.053697 0.401028 -0.006237
v -0.001014 0.376490 -0.023189
v 0.050063 0.352416 -0.011739
v 0.050063 0.352416 0.011740
v -0.001014 0.376486 0.023189
v -0.052094 0.352416 0.011740
v -0.052094 0.352416 -0.011739
v -0.001014 0.086895 0.024946
v -0.001014 0.086895 -0.024945
v 0.050347 0.087670 -0.016504
v 0.050347 0.087670 0.016505
v -0.052377 0.087670 -0.016504
v -0.052377 0.087670 0.016505
v -0.001014 0.127877 -0.026756
v -0.052094 0.126110 -0.016333
v -0.052094 0.126109 0.016334
v -0.001014 0.127878 0.026757
v 0.050063 0.126109 0.016334
v 0.050063 0.126110 -0.016333
v -0.001014 0.086895 0.013950
v -0.001014 0.086895 -0.013950
v 0.041010 0.087670 -0.009229
v 0.041010 0.087670 0.009230
v -0.043041 0.087670 -0.009229
v -0.043041 0.087670 0.009230
vt 0.073961 0.141130
vt 0.073961 0.141130
vt 0.073961 0.141130
vt 0.073961 0.141130
vt 0.073961 0.141130
vt 0.073961 0.141130
vt 0.073961 0.141130
vt 0.073961 0.141130
vt 0.073961 0.141130
vt 0.073961 0.141130
vt 0.073961 0.141130
vt 0.073961 0.141130
vt 0.073961 0.141130
vt 0.073961 0.141130
vt 0.073961 0.141130
vt 0.073961 0.141130
vt 0.073961 0.141130
vt 0.073961 0.141130
vt 0.073961 0.141130
vt 0.104816 0.139556
vt 0.104816 0.139556
vt 0.104816 0.139556
vt 0.104816 0.139556
vt 0.104816 0.139556
vt 0.104816 0.139556
vt 0.104816 0.139556
vt 0.104816 0.139556
vt 0.104816 0.139556
vt 0.104816 0.139556
vt 0.104816 0.139556
vt 0.104816 0.139556
vt 0.073961 0.141130
vt 0.073961 0.141130
vt 0.073961 0.141130
vt 0.073961 0.141130
vt 0.073961 0.141130
vt 0.073961 0.141130
vt 0.073961 0.141130
vt 0.073961 0.141130
vt 0.073961 0.141130
vt 0.073961 0.141130
vt 0.073961 0.141130
vt 0.073961 0.141130
vt 0.073961 0.141130
vt 0.073961 0.141130
vt 0.073961 0.141130
vt 0.073961 0.141130
vt 0.073961 0.141130
vt 0.073961 0.141130
vt 0.073961 0.141130
vt 0.073961 0.141130
vt 0.073961 0.141130
vt 0.073961 0.141130
vt 0.073961 0.141130
vt 0.075071 0.137664
vt 0.075071 0.137664
vt 0.075071 0.137664
vt 0.075071 0.137664
vt 0.075071 0.137664
vt 0.075071 0.137664
vn 0.152044 0.000000 0.988374
vn 0.152044 0.000000 0.988374
vn 0.152044 0.000000 0.988374
vn 0.152044 0.000000 0.988374
vn 0.447874 0.894097 0.000000
vn 0.447874 0.894097 0.000000
vn 0.447874 0.894097 0.000000
vn 0.447874 0.894097 0.000000
vn 0.152029 0.000000 -0.988376
vn 0.152029 0.000000 -0.988376
vn 0.152029 0.000000 -0.988376
vn 0.152029 0.000000 -0.988376
vn 0.018452 -0.999830 0.000000
vn 0.018452 -0.999830 0.000000
vn 0.018452 -0.999830 0.000000
vn 0.018452 -0.999830 0.000000
vn 1.000000 0.000000 0.000000
vn 1.000000 0.000000 0.000000
vn 1.000000 0.000000 0.000000
vn 1.000000 0.000000 0.000000
vn -1.000000 0.000000 0.000000
vn -1.000000 0.000000 0.000000
vn -1.000000 0.000000 0.000000
vn -1.000000 0.000000 0.000000
vn -0.447868 0.894099 0.000000
vn -0.447868 0.894099 0.000000
vn -0.447868 0.894099 0.000000
vn -0.447868 0.894099 0.000000
vn -0.152039 0.000000 0.988375
vn -0.152039 0.000000 0.988375
vn -0.152039 0.000000 0.988375
vn -0.152039 0.000000 0.988375
vn -0.018451 -0.999830 0.000000
vn -0.018451 -0.999830 0.000000
vn -0.018451 -0.999830 0.000000
vn -0.018451 -0.999830 0.000000
vn -0.152024 0.000000 -0.988377
vn -0.152024 0.000000 -0.988377
vn -0.152024 0.000000 -0.988377
vn -0.152024 0.000000 -0.988377
vn 0.248658 0.129297 -0.959923
vn 0.248658 0.129297 -0.959923
vn 0.248658 0.129297 -0.959923
vn 0.248658 0.129297 -0.959923
vn 0.999455 -0.032999 0.000000
vn 0.999455 -0.032999 0.000000
vn 0.999455 -0.032999 0.000000
vn 0.999455 -0.032999 0.000000
vn 0.248647 0.129304 0.959925
vn 0.248647 0.129304 0.959925
vn 0.248647 0.129304 0.959925
vn 0.248647 0.129304 0.959925
vn -0.248641 0.129309 0.959925
vn -0.248641 0.129309 0.959926
vn -0.248641 0.129309 0.959926
vn -0.248641 0.129309 0.959925
vn -0.999457 -0.032965 0.000000
vn -0.999457 -0.032965 0.000000
vn -0.999457 -0.032965 0.000000
vn -0.999457 -0.032965 0.000000
vn -0.248653 0.129301 -0.959924
vn -0.248653 0.129301 -0.959924
vn -0.248653 0.129301 -0.959924
vn -0.248653 0.129301 -0.959924
vn -0.180883 -0.019652 -0.983308
vn -0.180883 -0.019652 -0.983308
vn -0.180883 -0.019652 -0.983308
vn -0.180883 -0.019652 -0.983308
vn -0.999973 0.007374 0.000000
vn -0.999973 0.007374 0.000000
vn -0.999973 0.007374 0.000000
vn -0.999973 0.007374 0.000000
vn -0.180879 -0.019660 0.983309
vn -0.180879 -0.019660 0.983309
vn -0.180879 -0.019660 0.983309
vn -0.180879 -0.019660 0.983309
vn 0.180886 -0.019657 0.983308
vn 0.180886 -0.019657 0.983308
vn 0.180886 -0.019657 0.983308
vn 0.180886 -0.019657 0.983308
vn 0.999973 0.007406 0.000000
vn 0.999973 0.007406 0.000000
vn 0.999973 0.007406 0.000000
vn 0.999973 0.007406 0.000000
vn 0.180890 -0.019650 -0.983307
vn 0.180890 -0.019650 -0.983307
vn 0.180890 -0.019650 -0.983307
vn 0.180890 -0.019650 -0.983307
vn 0.116815 -0.154782 -0.981018
vn 0.116815 -0.154782 -0.981018
vn 0.116815 -0.154782 -0.981018
vn 0.116815 -0.154782 -0.981018
vn 0.717914 -0.696132 0.000000
vn 0.717914 -0.696132 0.000000
vn 0.717914 -0.696132 0.000000
vn 0.717914 -0.696132 0.000000
vn 0.116791 -0.154835 0.981013
vn 0.116791 -0.154835 0.981013
vn 0.116791 -0.154835 0.981013
vn 0.116791 -0.154835 0.981013
vn -0.116784 -0.154838 0.981013
vn -0.116784 -0.154838 0.981013
vn -0.116784 -0.154838 0.981013
vn -0.116784 -0.154838 0.981013
vn -0.717861 -0.696186 0.000000
vn -0.717861 -0.696186 0.000000
vn -0.717861 -0.696186 0.000000
vn -0.717861 -0.696186 0.000000
vn -0.116808 -0.154786 -0.981018
vn -0.116808 -0.154786 -0.981018
vn -0.116808 -0.154786 -0.981018
vn -0.116808 -0.154786 -0.981018
vn -0.033122 0.999240 0.020549
vn -0.033122 0.999240 0.020549
vn -0.033122 0.999240 0.020549
vn -0.033122 0.999240 0.020549
vn 0.000000 1.000000 0.000039
vn 0.000000 1.000000 0.000039
vn 0.000000 1.000000 0.000039
vn 0.000000 1.000000 0.000039
vn -0.033151 0.999239 -0.020559
vn -0.033151 0.999239 -0.020559
vn -0.033151 0.999239 -0.020559
vn -0.033151 0.999239 -0.020559
vn 0.033153 0.999239 -0.020556
vn 0.033153 0.999239 -0.020556
vn 0.033153 0.999239 -0.020556
vn 0.033153 0.999239 -0.020556
vn -0.000000 1.000000 0.000039
vn -0.000000 1.000000 0.000039
vn -0.000000 1.000000 0.000039
vn -0.000000 1.000000 0.000039
vn 0.033124 0.999240 0.020548
vn 0.033124 0.999240 0.020548
vn 0.033124 0.999240 0.020548
vn 0.033124 0.999240 0.020548
vn 0.015492 -0.999849 0.007917
vn 0.015492 -0.999849 0.007917
vn 0.015492 -0.999849 0.007917
vn 0.015492 -0.999849 0.007917
vn 0.000000 -1.000000 0.000000
vn 0.000000 -1.000000 0.000000
vn 0.000000 -1.000000 0.000000
vn 0.000000 -1.000000 0.000000
vn 0.015492 -0.999849 -0.007917
vn 0.015492 -0.999849 -0.007917
vn 0.015492 -0.999849 -0.007917
vn 0.015492 -0.999849 -0.007917
vn -0.015491 -0.999849 0.007916
vn -0.015491 -0.999849 0.007916
vn -0.015491 -0.999849 0.007916
vn -0.015491 -0.999849 0.007916
vn -0.015491 -0.999849 -0.007916
vn -0.015491 -0.999849 -0.007916
vn -0.015491 -0.999849 -0.007916
vn -0.015491 -0.999849 -0.007916
vn 0.000000 -1.000000 0.000000
vn 0.000000 -1.000000 0.000000
vn 0.000000 -1.000000 0.000000
vn 0.000000 -1.000000 0.000000
s off
f 3/20/1 4/21/2 10/22/3 11/23/4
f 13/1/5 14/2/6 15/3/7 16/4/8
f 12/24/9 7/25/10 1/26/11 2/27/12
f 37/55/13 38/56/14 39/57/15 40/58/16
f 11/23/17 12/24/18 2/27/19 3/20/20
f 8/28/21 9/29/22 5/30/23 6/31/24
f 17/9/25 14/2/26 13/1/27 18/10/28
f 9/29/29 10/22/30 4/21/31 5/30/32
f 41/59/33 38/56/34 37/55/35 42/60/36
f 6/31/37 1/26/38 7/25/39 8/28/40
f 20/13/41 19/14/42 13/1/43 16/4/44
f 21/15/45 20/13/46 16/4/47 15/3/48
f 14/2/49 22/16/50 21/15/51 15/3/52
f 23/17/53 22/16/54 14/2/55 17/9/56
f 24/18/57 23/17/58 17/9/59 18/10/60
f 18/10/61 13/1/62 19/14/63 24/18/64
f 32/19/65 31/36/66 26/6/67 29/11/68
f 29/11/69 30/12/70 33/37/71 32/19/72
f 30/12/73 25/5/74 34/38/75 33/37/76
f 35/39/77 34/38/78 25/5/79 28/8/80
f 28/8/81 27/7/82 36/40/83 35/39/84
f 26/6/85 31/36/86 36/40/87 27/7/88
f 2/41/89 1/42/90 19/14/91 20/13/92
f 3/43/93 2/41/94 20/13/95 21/15/96
f 4/44/97 3/43/98 21/15/99 22/16/100
f 5/45/101 4/44/102 22/16/103 23/17/104
f 6/46/105 5/45/106 23/17/107 24/18/108
f 1/42/109 6/46/110 24/18/111 19/14/112
f 8/47/113 7/48/114 31/36/115 32/19/116
f 9/35/117 8/47/118 32/19/119 33/37/120
f 10/34/121 9/35/122 33/37/123 34/38/124
f 11/33/125 10/34/126 34/38/127 35/39/128
f 12/32/129 11/33/130 35/39/131 36/40/132
f 7/48/133 12/32/134 36/40/135 31/36/136
f 26/6/137 27/7/138 39/50/139 38/49/140
f 27/7/141 28/8/142 40/51/143 39/50/144
f 28/8/145 25/5/146 37/52/147 40/51/148
f 29/11/149 26/6/150 38/49/151 41/53/152
f 25/5/153 30/12/154 42/54/155 37/52/156
f 30/12/157 29/11/158 41/53/159 42/54/160
