# This file uses centimeters as units for non-parametric coordinates.

v 4.548138 3.410556 2.537695
v 3.551107 3.410556 2.614691
v 4.551879 3.806614 2.586138
v 3.554848 3.806614 2.663134
v 4.220204 4.335065 -1.708762
v 3.223173 4.335065 -1.631766
v 4.216463 3.939007 -1.757205
v 3.219432 3.939007 -1.680209
vt 0.377110 0.008439
vt 0.377110 0.254219
vt 0.622890 0.254219
vt 0.622890 0.008439
vt 0.377110 0.500000
vt 0.622890 0.500000
vt 0.377110 0.745781
vt 0.622890 0.745781
vt 0.377110 0.991561
vt 0.622890 0.991561
vt 0.868671 0.254219
vt 0.868671 0.008439
vt 0.131329 0.008439
vt 0.131329 0.254219
vn 0.076423 -0.121763 0.989613
vn 0.076423 -0.121763 0.989613
vn 0.076423 -0.121763 0.989613
vn 0.076423 -0.121763 0.989613
vn 0.076423 -0.121763 0.989613
vn 0.076423 -0.121763 0.989613
vn 0.009375 0.992559 0.121402
vn 0.009375 0.992559 0.121402
vn 0.009375 0.992559 0.121402
vn 0.009375 0.992559 0.121402
vn 0.009375 0.992559 0.121402
vn 0.009375 0.992559 0.121402
vn -0.076422 0.121763 -0.989613
vn -0.076423 0.121763 -0.989613
vn -0.076423 0.121764 -0.989613
vn -0.076423 0.121764 -0.989613
vn -0.076423 0.121763 -0.989613
vn -0.076424 0.121764 -0.989613
vn -0.009375 -0.992559 -0.121402
vn -0.009375 -0.992559 -0.121402
vn -0.009375 -0.992559 -0.121402
vn -0.009375 -0.992559 -0.121402
vn -0.009375 -0.992559 -0.121402
vn -0.009375 -0.992559 -0.121402
vn -0.997031 0.000001 0.076996
vn -0.997031 0.000001 0.076996
vn -0.997031 -0.000001 0.076996
vn -0.997031 -0.000001 0.076996
vn -0.997031 0.000001 0.076996
vn -0.997031 -0.000001 0.076996
vn 0.997031 -0.000002 -0.076996
vn 0.997031 -0.000002 -0.076996
vn 0.997031 -0.000000 -0.076996
vn 0.997031 -0.000000 -0.076996
vn 0.997031 -0.000002 -0.076996
vn 0.997031 -0.000000 -0.076996
s off
f 1/1/1 3/2/2 2/4/3
f 2/4/4 3/2/5 4/3/6
f 3/2/7 5/5/8 4/3/9
f 4/3/10 5/5/11 6/6/12
f 5/5/13 7/7/14 6/6/15
f 6/6/16 7/7/17 8/8/18
f 7/7/19 1/9/20 8/8/21
f 8/8/22 1/9/23 2/10/24
f 2/4/25 4/3/26 8/12/27
f 8/12/28 4/3/29 6/11/30
f 7/13/31 5/14/32 1/1/33
f 1/1/34 5/14/35 3/2/36
