# This file uses centimeters as units for non-parametric coordinates.

v -5.950961 1.749776 1.483827
v -6.057174 1.811363 1.481339
v -6.994033 -0.073113 0.889344
v -7.100246 -0.011526 0.886857
v -6.975182 -0.045374 0.771210
v -7.081395 0.016214 0.768723
v -5.932110 1.777515 1.365693
v -6.038323 1.839103 1.363206
vt 0.375000 0.000000
vt 0.625000 0.000000
vt 0.375000 0.250000
vt 0.625000 0.250000
vt 0.375000 0.500000
vt 0.625000 0.500000
vt 0.375000 0.750000
vt 0.625000 0.750000
vt 0.375000 1.000000
vt 0.625000 1.000000
vt 0.875000 0.000000
vt 0.875000 0.250000
vt 0.125000 0.000000
vt 0.125000 0.250000
vn -0.153509 -0.225888 0.961982
vn -0.153510 -0.225888 0.961982
vn -0.153516 -0.225886 0.961981
vn -0.153516 -0.225886 0.961981
vn -0.153510 -0.225888 0.961982
vn -0.153516 -0.225886 0.961982
vn -0.477871 -0.835141 -0.272357
vn -0.477871 -0.835141 -0.272359
vn -0.477871 -0.835141 -0.272359
vn -0.477871 -0.835141 -0.272359
vn -0.477871 -0.835141 -0.272359
vn -0.477872 -0.835140 -0.272360
vn 0.153509 0.225888 -0.961982
vn 0.153509 0.225887 -0.961982
vn 0.153507 0.225882 -0.961984
vn 0.153507 0.225882 -0.961984
vn 0.153509 0.225887 -0.961982
vn 0.153507 0.225882 -0.961984
vn 0.477878 0.835135 0.272363
vn 0.477877 0.835137 0.272361
vn 0.477877 0.835137 0.272361
vn 0.477877 0.835137 0.272361
vn 0.477877 0.835137 0.272361
vn 0.477876 0.835138 0.272358
vn -0.864910 0.501517 -0.020259
vn -0.864910 0.501517 -0.020258
vn -0.864911 0.501516 -0.020253
vn -0.864911 0.501516 -0.020253
vn -0.864910 0.501517 -0.020258
vn -0.864911 0.501516 -0.020253
vn 0.864910 -0.501518 0.020252
vn 0.864910 -0.501518 0.020252
vn 0.864915 -0.501510 0.020256
vn 0.864915 -0.501510 0.020256
vn 0.864910 -0.501518 0.020252
vn 0.864915 -0.501510 0.020256
s off
f 1/1/1 2/2/2 3/3/3
f 3/3/4 2/2/5 4/4/6
f 3/3/7 4/4/8 5/5/9
f 5/5/10 4/4/11 6/6/12
f 5/5/13 6/6/14 7/7/15
f 7/7/16 6/6/17 8/8/18
f 7/7/19 8/8/20 1/9/21
f 1/9/22 8/8/23 2/10/24
f 2/2/25 8/11/26 4/4/27
f 4/4/28 8/11/29 6/12/30
f 7/13/31 1/1/32 5/14/33
f 5/14/34 1/1/35 3/3/36
