# This file uses centimeters as units for non-parametric coordinates.

v -1.862565 4.719359 -2.764181
v -0.441719 4.719359 -2.764181
v -1.862565 4.961532 -2.458248
v -0.441719 4.961532 -2.458248
v -1.862565 6.973479 -4.050278
v -0.441719 6.973479 -4.050278
v -1.862565 6.911651 -4.426039
v -0.441719 6.911651 -4.426039
vt 0.377110 0.008439
vt 0.622890 0.008439
vt 0.622890 0.254219
vt 0.377110 0.254219
vt 0.622890 0.500000
vt 0.377110 0.500000
vt 0.622890 0.745781
vt 0.377110 0.745781
vt 0.622890 0.991561
vt 0.377110 0.991561
vt 0.868671 0.008439
vt 0.868671 0.254219
vt 0.131329 0.008439
vt 0.131329 0.254219
vn 0.000000 -0.784077 0.620664
vn 0.000000 -0.784074 0.620668
vn 0.000000 -0.784076 0.620665
vn 0.000000 -0.784076 0.620665
vn 0.000000 -0.784074 0.620668
vn 0.000000 -0.784073 0.620668
vn 0.000000 0.620521 0.784190
vn 0.000000 0.620521 0.784190
vn 0.000000 0.620521 0.784190
vn 0.000000 0.620521 0.784190
vn 0.000000 0.620521 0.784190
vn 0.000000 0.620521 0.784190
vn 0.000000 0.986732 -0.162359
vn 0.000000 0.986732 -0.162356
vn 0.000000 0.986732 -0.162358
vn 0.000000 0.986732 -0.162358
vn 0.000000 0.986732 -0.162356
vn 0.000000 0.986732 -0.162355
vn 0.000000 -0.604096 -0.796912
vn 0.000000 -0.604096 -0.796912
vn 0.000000 -0.604096 -0.796912
vn 0.000000 -0.604096 -0.796912
vn 0.000000 -0.604096 -0.796912
vn 0.000000 -0.604096 -0.796912
vn 1.000000 0.000000 0.000000
vn 1.000000 0.000000 0.000000
vn 1.000000 0.000000 0.000000
vn 1.000000 0.000000 0.000000
vn 1.000000 0.000000 0.000000
vn 1.000000 0.000000 0.000000
vn -1.000000 -0.000000 0.000000
vn -1.000000 -0.000000 0.000000
vn -1.000000 -0.000000 0.000000
vn -1.000000 -0.000000 0.000000
vn -1.000000 -0.000000 0.000000
vn -1.000000 0.000000 0.000000
s off
f 1/1/1 2/2/2 3/4/3
f 3/4/4 2/2/5 4/3/6
f 3/4/7 4/3/8 5/6/9
f 5/6/10 4/3/11 6/5/12
f 5/6/13 6/5/14 7/8/15
f 7/8/16 6/5/17 8/7/18
f 7/8/19 8/7/20 1/10/21
f 1/10/22 8/7/23 2/9/24
f 8/11/25 6/12/26 2/2/27
f 2/2/28 6/12/29 4/3/30
f 7/13/31 1/1/32 5/14/33
f 5/14/34 1/1/35 3/4/36
