# This file uses centimeters as units for non-parametric coordinates.

v 3.524055 5.948385 5.374162
v 2.981275 5.948385 5.356946
v 3.524055 6.948385 5.374162
v 2.981275 6.948385 5.356946
v 3.755586 6.948385 -3.722677
v 3.212806 6.948385 -3.739893
v 3.755586 5.948385 -3.722677
v 3.212806 5.948385 -3.739893
vt 0.377110 0.008439
vt 0.377110 0.254219
vt 0.622890 0.254219
vt 0.622890 0.008439
vt 0.377110 0.500000
vt 0.622890 0.500000
vt 0.377110 0.745781
vt 0.622890 0.745781
vt 0.377110 0.991561
vt 0.622890 0.991561
vt 0.868671 0.254219
vt 0.868671 0.008439
vt 0.131329 0.008439
vt 0.131329 0.254219
vn -0.031702 0.000000 0.999497
vn -0.031702 0.000000 0.999497
vn -0.031702 0.000000 0.999497
vn -0.031702 0.000000 0.999497
vn -0.031702 0.000000 0.999497
vn -0.031702 0.000000 0.999497
vn 0.000000 1.000000 0.000000
vn 0.000000 1.000000 0.000000
vn 0.000000 1.000000 0.000000
vn 0.000000 1.000000 0.000000
vn 0.000000 1.000000 0.000000
vn 0.000000 1.000000 0.000000
vn 0.031702 0.000000 -0.999497
vn 0.031701 0.000000 -0.999497
vn 0.031701 0.000000 -0.999497
vn 0.031701 0.000000 -0.999497
vn 0.031701 0.000000 -0.999497
vn 0.031701 0.000000 -0.999497
vn 0.000000 -1.000000 0.000000
vn 0.000000 -1.000000 0.000000
vn 0.000000 -1.000000 0.000000
vn 0.000000 -1.000000 0.000000
vn 0.000000 -1.000000 0.000000
vn 0.000000 -1.000000 0.000000
vn -0.999676 0.000000 -0.025444
vn -0.999676 0.000000 -0.025444
vn -0.999676 0.000000 -0.025444
vn -0.999676 0.000000 -0.025444
vn -0.999676 0.000000 -0.025444
vn -0.999676 0.000000 -0.025444
vn 0.999676 0.000000 0.025444
vn 0.999676 0.000000 0.025444
vn 0.999676 0.000000 0.025444
vn 0.999676 0.000000 0.025444
vn 0.999676 0.000000 0.025444
vn 0.999676 0.000000 0.025444
s off
f 1/1/1 3/2/2 2/4/3
f 2/4/4 3/2/5 4/3/6
f 3/2/7 5/5/8 4/3/9
f 4/3/10 5/5/11 6/6/12
f 5/5/13 7/7/14 6/6/15
f 6/6/16 7/7/17 8/8/18
f 1/9/19 2/10/20 7/7/21
f 7/7/22 2/10/23 8/8/24
f 2/4/25 4/3/26 8/12/27
f 8/12/28 4/3/29 6/11/30
f 7/13/31 5/14/32 1/1/33
f 1/1/34 5/14/35 3/2/36
