# This file uses centimeters as units for non-parametric coordinates.

v -3.067878 6.450221 -12.833297
v 3.067878 6.450221 -12.833297
v -2.560493 8.636209 -13.135062
v 2.560493 8.636209 -13.135062
v -2.560493 8.550847 -13.753419
v 2.560493 8.550847 -13.753419
v -3.067878 6.364860 -13.451653
v 3.067878 6.364860 -13.451653
vt 0.377110 0.008439
vt 0.622890 0.008439
vt 0.622890 0.254219
vt 0.377110 0.254219
vt 0.622890 0.500000
vt 0.377110 0.500000
vt 0.622890 0.745781
vt 0.377110 0.745781
vt 0.622890 0.991561
vt 0.377110 0.991561
vt 0.868671 0.008439
vt 0.868671 0.254219
vt 0.131329 0.008439
vt 0.131329 0.254219
vn 0.000000 0.136749 0.990606
vn 0.000000 0.136749 0.990606
vn 0.000000 0.136749 0.990606
vn 0.000000 0.136749 0.990606
vn 0.000000 0.136749 0.990606
vn 0.000000 0.136748 0.990606
vn 0.000000 0.990606 -0.136749
vn 0.000000 0.990606 -0.136749
vn 0.000000 0.990606 -0.136749
vn 0.000000 0.990606 -0.136749
vn 0.000000 0.990606 -0.136749
vn 0.000000 0.990606 -0.136749
vn 0.000000 -0.136748 -0.990606
vn 0.000000 -0.136749 -0.990606
vn 0.000000 -0.136748 -0.990606
vn 0.000000 -0.136748 -0.990606
vn 0.000000 -0.136749 -0.990606
vn 0.000000 -0.136749 -0.990606
vn 0.000000 -0.990606 0.136749
vn 0.000000 -0.990606 0.136749
vn 0.000000 -0.990606 0.136749
vn 0.000000 -0.990606 0.136749
vn 0.000000 -0.990606 0.136749
vn 0.000000 -0.990606 0.136749
vn 0.974571 0.221975 -0.030643
vn 0.974571 0.221975 -0.030643
vn 0.974571 0.221976 -0.030643
vn 0.974571 0.221976 -0.030643
vn 0.974571 0.221975 -0.030643
vn 0.974571 0.221976 -0.030643
vn -0.974571 0.221976 -0.030643
vn -0.974571 0.221976 -0.030643
vn -0.974571 0.221975 -0.030643
vn -0.974571 0.221975 -0.030643
vn -0.974571 0.221976 -0.030643
vn -0.974571 0.221975 -0.030643
s off
f 1/1/1 2/2/2 3/4/3
f 3/4/4 2/2/5 4/3/6
f 3/4/7 4/3/8 5/6/9
f 5/6/10 4/3/11 6/5/12
f 5/6/13 6/5/14 7/8/15
f 7/8/16 6/5/17 8/7/18
f 7/8/19 8/7/20 1/10/21
f 1/10/22 8/7/23 2/9/24
f 2/2/25 8/11/26 4/3/27
f 4/3/28 8/11/29 6/12/30
f 7/13/31 1/1/32 5/14/33
f 5/14/34 1/1/35 3/4/36
