# This file uses centimeters as units for non-parametric coordinates.

v -1.127364 7.192647 -4.055464
v -1.072564 7.319661 -4.012913
v -1.046921 7.198202 -4.175650
v -0.992120 7.325217 -4.133097
v 4.745755 3.451603 -0.515624
v 4.814636 3.611252 -0.462140
v 4.644642 3.444620 -0.364560
v 4.713523 3.604269 -0.311076
vt 0.377110 0.008439
vt 0.622890 0.008439
vt 0.622890 0.254219
vt 0.377110 0.254219
vt 0.622890 0.500000
vt 0.377110 0.500000
vt 0.622890 0.745781
vt 0.377110 0.745781
vt 0.622890 0.991561
vt 0.377110 0.991561
vt 0.868671 0.008439
vt 0.868671 0.254219
vt 0.131329 0.008439
vt 0.131329 0.254219
vn -0.740061 0.477847 -0.473257
vn -0.740059 0.477848 -0.473258
vn -0.740059 0.477848 -0.473258
vn -0.740059 0.477848 -0.473258
vn -0.740059 0.477848 -0.473258
vn -0.740058 0.477849 -0.473260
vn 0.552357 0.040632 -0.832617
vn 0.552357 0.040631 -0.832617
vn 0.552353 0.040621 -0.832620
vn 0.552353 0.040621 -0.832620
vn 0.552357 0.040631 -0.832617
vn 0.552353 0.040621 -0.832620
vn 0.740057 -0.477850 0.473261
vn 0.740057 -0.477849 0.473261
vn 0.740057 -0.477849 0.473261
vn 0.740057 -0.477849 0.473261
vn 0.740057 -0.477849 0.473261
vn 0.740057 -0.477848 0.473261
vn -0.555884 -0.038347 0.830375
vn -0.555884 -0.038347 0.830375
vn -0.555882 -0.038348 0.830377
vn -0.555882 -0.038348 0.830377
vn -0.555884 -0.038347 0.830375
vn -0.555882 -0.038348 0.830377
vn 0.376879 0.878740 0.292879
vn 0.376878 0.878738 0.292887
vn 0.376879 0.878740 0.292879
vn 0.376879 0.878740 0.292879
vn 0.376878 0.878738 0.292887
vn 0.376878 0.878738 0.292887
vn -0.380404 -0.876463 -0.295137
vn -0.380406 -0.876464 -0.295131
vn -0.380404 -0.876463 -0.295137
vn -0.380404 -0.876463 -0.295137
vn -0.380406 -0.876464 -0.295131
vn -0.380406 -0.876464 -0.295131
s off
f 1/1/1 2/2/2 3/4/3
f 3/4/4 2/2/5 4/3/6
f 3/4/7 4/3/8 5/6/9
f 5/6/10 4/3/11 6/5/12
f 5/6/13 6/5/14 7/8/15
f 7/8/16 6/5/17 8/7/18
f 7/8/19 8/7/20 1/10/21
f 1/10/22 8/7/23 2/9/24
f 2/2/25 8/11/26 4/3/27
f 4/3/28 8/11/29 6/12/30
f 7/13/31 1/1/32 5/14/33
f 5/14/34 1/1/35 3/4/36
