# This file uses centimeters as units for non-parametric coordinates.

v 0.808206 5.607776 14.168716
v 0.160596 5.422060 13.846101
v 0.631437 6.571507 13.968781
v -0.016174 6.385791 13.646165
v 1.783487 6.331687 11.794240
v 1.135877 6.145971 11.471624
v 1.960257 5.367956 11.994176
v 1.312647 5.182240 11.671560
vt 0.377110 0.008439
vt 0.377110 0.254219
vt 0.622890 0.254219
vt 0.622890 0.008439
vt 0.377110 0.500000
vt 0.622890 0.500000
vt 0.377110 0.745781
vt 0.622890 0.745781
vt 0.377110 0.991561
vt 0.622890 0.991561
vt 0.868671 0.254219
vt 0.868671 0.008439
vt 0.131329 0.008439
vt 0.131329 0.254219
vn -0.465942 0.096994 0.879483
vn -0.465940 0.096994 0.879484
vn -0.465941 0.096994 0.879484
vn -0.465941 0.096994 0.879484
vn -0.465940 0.096994 0.879484
vn -0.465938 0.096994 0.879485
vn -0.176770 0.963731 -0.199937
vn -0.176770 0.963731 -0.199936
vn -0.176770 0.963731 -0.199937
vn -0.176770 0.963731 -0.199937
vn -0.176770 0.963731 -0.199936
vn -0.176770 0.963731 -0.199936
vn 0.465940 -0.096994 -0.879484
vn 0.465940 -0.096994 -0.879484
vn 0.465940 -0.096994 -0.879484
vn 0.465940 -0.096994 -0.879484
vn 0.465940 -0.096994 -0.879484
vn 0.465940 -0.096994 -0.879484
vn 0.176770 -0.963731 0.199936
vn 0.176770 -0.963731 0.199936
vn 0.176770 -0.963731 0.199936
vn 0.176770 -0.963731 0.199936
vn 0.176770 -0.963731 0.199936
vn 0.176770 -0.963731 0.199936
vn -0.866978 -0.248625 -0.431897
vn -0.866978 -0.248624 -0.431897
vn -0.866978 -0.248624 -0.431897
vn -0.866978 -0.248624 -0.431897
vn -0.866978 -0.248624 -0.431897
vn -0.866978 -0.248624 -0.431896
vn 0.866978 0.248625 0.431897
vn 0.866978 0.248625 0.431897
vn 0.866978 0.248625 0.431897
vn 0.866978 0.248625 0.431897
vn 0.866978 0.248625 0.431897
vn 0.866978 0.248625 0.431898
s off
f 1/1/1 3/2/2 2/4/3
f 2/4/4 3/2/5 4/3/6
f 3/2/7 5/5/8 4/3/9
f 4/3/10 5/5/11 6/6/12
f 5/5/13 7/7/14 6/6/15
f 6/6/16 7/7/17 8/8/18
f 7/7/19 1/9/20 8/8/21
f 8/8/22 1/9/23 2/10/24
f 2/4/25 4/3/26 8/12/27
f 8/12/28 4/3/29 6/11/30
f 7/13/31 5/14/32 1/1/33
f 1/1/34 5/14/35 3/2/36
