# This file uses centimeters as units for non-parametric coordinates.

v -0.722151 11.552475 3.524978
v -0.423488 11.409183 3.425099
v -0.126915 11.231011 3.427674
v 0.138538 11.035399 3.532452
v 0.346887 10.841495 3.729174
v 0.477736 10.668280 3.998586
v 0.518279 10.532710 4.314315
v 0.464545 10.448054 4.645455
v 0.321795 10.422600 4.959593
v 0.104002 10.458840 5.225977
v -0.167515 10.553225 5.418533
v -0.466178 10.696516 5.518411
v -0.762751 10.874689 5.515836
v -1.028205 11.070301 5.411059
v -1.236553 11.264205 5.214336
v -1.367403 11.437420 4.944925
v -1.407945 11.572990 4.629196
v -1.354211 11.657646 4.298055
v -1.211460 11.683099 3.983918
v -0.993668 11.646861 3.717534
v -1.396339 10.548508 3.014972
v -1.046654 10.380737 2.898030
v -0.699416 10.172126 2.901045
v -0.388613 9.943097 3.023722
v -0.144671 9.716067 3.254052
v 0.008532 9.513260 3.569489
v 0.056001 9.354530 3.939156
v -0.006913 9.255412 4.326867
v -0.174050 9.225610 4.694670
v -0.429050 9.268040 5.006563
v -0.746952 9.378550 5.232014
v -1.096637 9.546321 5.348956
v -1.443875 9.754932 5.345940
v -1.754677 9.983961 5.223264
v -1.998620 10.210991 4.992933
v -2.151823 10.413798 4.677497
v -2.199291 10.572528 4.307830
v -2.136378 10.671646 3.920119
v -1.969241 10.701448 3.552316
v -1.714241 10.659018 3.240424
v -0.444833 11.052850 4.471755
v -1.071646 9.963529 4.123493
vt 0.648603 0.107966
vt 0.626409 0.064408
vt 0.591842 0.029841
vt 0.548284 0.007647
vt 0.500000 -0.000000
vt 0.451716 0.007647
vt 0.408159 0.029841
vt 0.373591 0.064409
vt 0.351397 0.107966
vt 0.343750 0.156250
vt 0.351397 0.204534
vt 0.373591 0.248091
vt 0.408159 0.282659
vt 0.451716 0.304853
vt 0.500000 0.312500
vt 0.548284 0.304853
vt 0.591841 0.282659
vt 0.626409 0.248091
vt 0.648603 0.204534
vt 0.656250 0.156250
vt 0.375000 0.312500
vt 0.387500 0.312500
vt 0.400000 0.312500
vt 0.412500 0.312500
vt 0.425000 0.312500
vt 0.437500 0.312500
vt 0.450000 0.312500
vt 0.462500 0.312500
vt 0.475000 0.312500
vt 0.487500 0.312500
vt 0.500000 0.312500
vt 0.512500 0.312500
vt 0.525000 0.312500
vt 0.537500 0.312500
vt 0.550000 0.312500
vt 0.562500 0.312500
vt 0.575000 0.312500
vt 0.587500 0.312500
vt 0.600000 0.312500
vt 0.612500 0.312500
vt 0.625000 0.312500
vt 0.375000 0.688440
vt 0.387500 0.688440
vt 0.400000 0.688440
vt 0.412500 0.688440
vt 0.425000 0.688440
vt 0.437500 0.688440
vt 0.450000 0.688440
vt 0.462500 0.688440
vt 0.475000 0.688440
vt 0.487500 0.688440
vt 0.500000 0.688440
vt 0.512500 0.688440
vt 0.525000 0.688440
vt 0.537500 0.688440
vt 0.550000 0.688440
vt 0.562500 0.688440
vt 0.575000 0.688440
vt 0.587500 0.688440
vt 0.600000 0.688440
vt 0.612500 0.688440
vt 0.625000 0.688440
vt 0.648603 0.795466
vt 0.626409 0.751908
vt 0.591842 0.717341
vt 0.548284 0.695147
vt 0.500000 0.687500
vt 0.451716 0.695147
vt 0.408159 0.717341
vt 0.373591 0.751909
vt 0.351397 0.795466
vt 0.343750 0.843750
vt 0.351397 0.892034
vt 0.373591 0.935591
vt 0.408159 0.970159
vt 0.451716 0.992353
vt 0.500000 1.000000
vt 0.548284 0.992353
vt 0.591841 0.970159
vt 0.626409 0.935591
vt 0.648603 0.892034
vt 0.656250 0.843750
vt 0.500000 0.150000
vt 0.500000 0.837500
vn -0.194567 0.544962 -0.815574
vn 0.074072 0.418922 -0.904996
vn -0.193459 0.544505 -0.816142
vn -0.193459 0.544505 -0.816142
vn 0.074072 0.418922 -0.904996
vn 0.076701 0.417542 -0.905415
vn 0.074072 0.418922 -0.904996
vn 0.342211 0.263536 -0.901909
vn 0.076701 0.417542 -0.905415
vn 0.076701 0.417542 -0.905415
vn 0.342211 0.263536 -0.901909
vn 0.345898 0.261185 -0.901186
vn 0.342211 0.263536 -0.901909
vn 0.583546 0.094050 -0.806616
vn 0.345898 0.261185 -0.901186
vn 0.345898 0.261185 -0.901186
vn 0.583546 0.094050 -0.806616
vn 0.587410 0.091039 -0.804153
vn 0.583546 0.094050 -0.806616
vn 0.774392 -0.072903 -0.628492
vn 0.587410 0.091039 -0.804153
vn 0.587410 0.091039 -0.804153
vn 0.774392 -0.072903 -0.628492
vn 0.777465 -0.076009 -0.624316
vn 0.774392 -0.072903 -0.628492
vn 0.896045 -0.220940 -0.385082
vn 0.777465 -0.076009 -0.624316
vn 0.777465 -0.076009 -0.624316
vn 0.896045 -0.220940 -0.385082
vn 0.897640 -0.223539 -0.379832
vn 0.896045 -0.220940 -0.385082
vn 0.936659 -0.335567 -0.100326
vn 0.897640 -0.223539 -0.379832
vn 0.897640 -0.223539 -0.379832
vn 0.936659 -0.335567 -0.100326
vn 0.936612 -0.337238 -0.095024
vn 0.936659 -0.335567 -0.100326
vn 0.892379 -0.405610 0.197837
vn 0.936612 -0.337238 -0.095024
vn 0.936612 -0.337238 -0.095024
vn 0.892379 -0.405610 0.197837
vn 0.891109 -0.406266 0.202171
vn 0.892379 -0.405610 0.197837
vn 0.767674 -0.424296 0.480259
vn 0.891109 -0.406266 0.202171
vn 0.891109 -0.406266 0.202171
vn 0.767674 -0.424296 0.480259
vn 0.766015 -0.424210 0.482977
vn 0.767674 -0.424296 0.480259
vn 0.574815 -0.389873 0.719435
vn 0.766015 -0.424210 0.482977
vn 0.766015 -0.424210 0.482977
vn 0.574815 -0.389873 0.719435
vn 0.573704 -0.389569 0.720486
vn 0.574815 -0.389873 0.719435
vn 0.330580 -0.304888 0.893174
vn 0.573704 -0.389569 0.720486
vn 0.573704 -0.389569 0.720486
vn 0.330580 -0.304888 0.893174
vn 0.331184 -0.305137 0.892866
vn 0.060379 -0.177803 0.982212
vn 0.062962 -0.179158 0.981803
vn 0.330580 -0.304888 0.893174
vn 0.330580 -0.304888 0.893174
vn 0.062962 -0.179158 0.981803
vn 0.331184 -0.305137 0.892866
vn -0.207022 -0.022472 0.978078
vn -0.203384 -0.024792 0.978785
vn 0.060379 -0.177803 0.982212
vn 0.060379 -0.177803 0.982212
vn -0.203384 -0.024792 0.978785
vn 0.062962 -0.179158 0.981803
vn -0.447593 0.146833 0.882100
vn -0.443755 0.143846 0.884528
vn -0.207022 -0.022472 0.978078
vn -0.207022 -0.022472 0.978078
vn -0.443755 0.143846 0.884528
vn -0.203384 -0.024792 0.978785
vn -0.637761 0.313571 0.703515
vn -0.634682 0.310470 0.707663
vn -0.447593 0.146833 0.882100
vn -0.447593 0.146833 0.882100
vn -0.634682 0.310470 0.707663
vn -0.443755 0.143846 0.884528
vn -0.758812 0.461394 0.459696
vn -0.757194 0.458780 0.464949
vn -0.637761 0.313571 0.703515
vn -0.637761 0.313571 0.703515
vn -0.757194 0.458780 0.464949
vn -0.634682 0.310470 0.707663
vn -0.798777 0.575765 0.174498
vn -0.798809 0.574075 0.179842
vn -0.758812 0.461394 0.459696
vn -0.758812 0.461394 0.459696
vn -0.798809 0.574075 0.179842
vn -0.757194 0.458780 0.464949
vn -0.753670 0.645432 -0.124095
vn -0.754951 0.644764 -0.119703
vn -0.798777 0.575765 0.174498
vn -0.798777 0.575765 0.174498
vn -0.754951 0.644764 -0.119703
vn -0.798809 0.574075 0.179842
vn -0.627892 0.663542 -0.406772
vn -0.629583 0.663631 -0.404004
vn -0.753670 0.645432 -0.124095
vn -0.753670 0.645432 -0.124095
vn -0.629583 0.663631 -0.404004
vn -0.754951 0.644764 -0.119703
vn -0.435568 0.628814 -0.644107
vn -0.436294 0.629012 -0.643422
vn -0.627892 0.663542 -0.406772
vn -0.627892 0.663542 -0.406772
vn -0.436294 0.629012 -0.643422
vn -0.629583 0.663631 -0.404004
vn -0.435568 0.628814 -0.644107
vn -0.194567 0.544962 -0.815574
vn -0.436294 0.629012 -0.643422
vn -0.436294 0.629012 -0.643422
vn -0.194567 0.544962 -0.815574
vn -0.193459 0.544505 -0.816142
vn 0.491046 0.821548 0.289711
vn 0.491047 0.821548 0.289709
vn 0.491046 0.821549 0.289709
vn 0.491046 0.821549 0.289710
vn 0.491046 0.821548 0.289711
vn 0.491046 0.821549 0.289709
vn 0.491046 0.821548 0.289709
vn 0.491046 0.821549 0.289710
vn 0.491046 0.821549 0.289709
vn 0.491047 0.821549 0.289707
vn 0.491046 0.821548 0.289709
vn 0.491046 0.821549 0.289709
vn 0.491047 0.821549 0.289707
vn 0.491047 0.821549 0.289707
vn 0.491046 0.821549 0.289709
vn 0.491047 0.821548 0.289709
vn 0.491047 0.821549 0.289707
vn 0.491046 0.821549 0.289709
vn 0.491046 0.821548 0.289711
vn 0.491047 0.821548 0.289709
vn 0.491046 0.821549 0.289709
vn 0.491047 0.821548 0.289709
vn 0.491046 0.821548 0.289711
vn 0.491046 0.821549 0.289709
vn 0.491047 0.821549 0.289707
vn 0.491047 0.821548 0.289709
vn 0.491046 0.821549 0.289709
vn 0.491046 0.821549 0.289710
vn 0.491047 0.821549 0.289707
vn 0.491046 0.821549 0.289709
vn 0.491046 0.821548 0.289710
vn 0.491046 0.821549 0.289710
vn 0.491046 0.821549 0.289709
vn 0.491047 0.821549 0.289707
vn 0.491046 0.821548 0.289710
vn 0.491046 0.821549 0.289709
vn 0.491046 0.821549 0.289709
vn 0.491047 0.821549 0.289707
vn 0.491046 0.821549 0.289709
vn 0.491047 0.821548 0.289709
vn 0.491046 0.821549 0.289709
vn 0.491046 0.821549 0.289709
vn 0.491046 0.821549 0.289707
vn 0.491047 0.821548 0.289709
vn 0.491046 0.821549 0.289709
vn 0.491046 0.821549 0.289709
vn 0.491046 0.821549 0.289707
vn 0.491046 0.821549 0.289709
vn 0.491046 0.821549 0.289709
vn 0.491046 0.821549 0.289709
vn 0.491046 0.821549 0.289709
vn 0.491045 0.821548 0.289712
vn 0.491046 0.821549 0.289709
vn 0.491046 0.821549 0.289709
vn 0.491046 0.821548 0.289711
vn 0.491045 0.821548 0.289712
vn 0.491046 0.821549 0.289709
vn 0.491047 0.821548 0.289709
vn 0.491046 0.821548 0.289711
vn 0.491046 0.821549 0.289709
vn -0.491047 -0.821548 -0.289709
vn -0.491046 -0.821549 -0.289710
vn -0.491046 -0.821548 -0.289710
vn -0.491046 -0.821549 -0.289710
vn -0.491046 -0.821549 -0.289710
vn -0.491046 -0.821548 -0.289710
vn -0.491046 -0.821549 -0.289710
vn -0.491046 -0.821549 -0.289709
vn -0.491046 -0.821548 -0.289710
vn -0.491046 -0.821549 -0.289709
vn -0.491046 -0.821548 -0.289712
vn -0.491046 -0.821548 -0.289710
vn -0.491046 -0.821548 -0.289712
vn -0.491047 -0.821548 -0.289710
vn -0.491046 -0.821548 -0.289710
vn -0.491047 -0.821548 -0.289710
vn -0.491047 -0.821549 -0.289707
vn -0.491046 -0.821548 -0.289710
vn -0.491047 -0.821549 -0.289707
vn -0.491046 -0.821549 -0.289709
vn -0.491046 -0.821548 -0.289710
vn -0.491046 -0.821549 -0.289709
vn -0.491045 -0.821548 -0.289712
vn -0.491046 -0.821548 -0.289710
vn -0.491045 -0.821548 -0.289712
vn -0.491046 -0.821548 -0.289710
vn -0.491046 -0.821548 -0.289710
vn -0.491046 -0.821548 -0.289710
vn -0.491047 -0.821549 -0.289708
vn -0.491046 -0.821548 -0.289710
vn -0.491047 -0.821549 -0.289708
vn -0.491046 -0.821549 -0.289710
vn -0.491046 -0.821548 -0.289710
vn -0.491046 -0.821549 -0.289710
vn -0.491046 -0.821548 -0.289711
vn -0.491046 -0.821548 -0.289710
vn -0.491046 -0.821548 -0.289711
vn -0.491047 -0.821549 -0.289709
vn -0.491046 -0.821548 -0.289710
vn -0.491047 -0.821549 -0.289709
vn -0.491047 -0.821548 -0.289710
vn -0.491046 -0.821548 -0.289710
vn -0.491047 -0.821548 -0.289710
vn -0.491046 -0.821548 -0.289712
vn -0.491046 -0.821548 -0.289710
vn -0.491046 -0.821548 -0.289712
vn -0.491047 -0.821549 -0.289709
vn -0.491046 -0.821548 -0.289710
vn -0.491047 -0.821549 -0.289709
vn -0.491047 -0.821548 -0.289709
vn -0.491046 -0.821548 -0.289710
vn -0.491047 -0.821548 -0.289709
vn -0.491046 -0.821549 -0.289710
vn -0.491046 -0.821548 -0.289710
vn -0.491046 -0.821549 -0.289710
vn -0.491046 -0.821548 -0.289710
vn -0.491046 -0.821548 -0.289710
vn -0.491046 -0.821548 -0.289710
vn -0.491047 -0.821548 -0.289709
vn -0.491046 -0.821548 -0.289710
s off
f 1/21/1 2/22/2 21/42/3
f 21/42/4 2/22/5 22/43/6
f 2/22/7 3/23/8 22/43/9
f 22/43/10 3/23/11 23/44/12
f 3/23/13 4/24/14 23/44/15
f 23/44/16 4/24/17 24/45/18
f 4/24/19 5/25/20 24/45/21
f 24/45/22 5/25/23 25/46/24
f 5/25/25 6/26/26 25/46/27
f 25/46/28 6/26/29 26/47/30
f 6/26/31 7/27/32 26/47/33
f 26/47/34 7/27/35 27/48/36
f 7/27/37 8/28/38 27/48/39
f 27/48/40 8/28/41 28/49/42
f 8/28/43 9/29/44 28/49/45
f 28/49/46 9/29/47 29/50/48
f 9/29/49 10/30/50 29/50/51
f 29/50/52 10/30/53 30/51/54
f 10/30/55 11/31/56 30/51/57
f 30/51/58 11/31/59 31/52/60
f 12/32/61 32/53/62 11/31/63
f 11/31/64 32/53/65 31/52/66
f 13/33/67 33/54/68 12/32/69
f 12/32/70 33/54/71 32/53/72
f 14/34/73 34/55/74 13/33/75
f 13/33/76 34/55/77 33/54/78
f 15/35/79 35/56/80 14/34/81
f 14/34/82 35/56/83 34/55/84
f 16/36/85 36/57/86 15/35/87
f 15/35/88 36/57/89 35/56/90
f 17/37/91 37/58/92 16/36/93
f 16/36/94 37/58/95 36/57/96
f 18/38/97 38/59/98 17/37/99
f 17/37/100 38/59/101 37/58/102
f 19/39/103 39/60/104 18/38/105
f 18/38/106 39/60/107 38/59/108
f 20/40/109 40/61/110 19/39/111
f 19/39/112 40/61/113 39/60/114
f 20/40/115 1/41/116 40/61/117
f 40/61/118 1/41/119 21/62/120
f 2/2/121 1/1/122 41/83/123
f 3/3/124 2/2/125 41/83/126
f 4/4/127 3/3/128 41/83/129
f 5/5/130 4/4/131 41/83/132
f 6/6/133 5/5/134 41/83/135
f 7/7/136 6/6/137 41/83/138
f 8/8/139 7/7/140 41/83/141
f 9/9/142 8/8/143 41/83/144
f 10/10/145 9/9/146 41/83/147
f 11/11/148 10/10/149 41/83/150
f 12/12/151 11/11/152 41/83/153
f 13/13/154 12/12/155 41/83/156
f 14/14/157 13/13/158 41/83/159
f 15/15/160 14/14/161 41/83/162
f 16/16/163 15/15/164 41/83/165
f 17/17/166 16/16/167 41/83/168
f 18/18/169 17/17/170 41/83/171
f 19/19/172 18/18/173 41/83/174
f 20/20/175 19/19/176 41/83/177
f 1/1/178 20/20/179 41/83/180
f 21/81/181 22/80/182 42/84/183
f 22/80/184 23/79/185 42/84/186
f 23/79/187 24/78/188 42/84/189
f 24/78/190 25/77/191 42/84/192
f 25/77/193 26/76/194 42/84/195
f 26/76/196 27/75/197 42/84/198
f 27/75/199 28/74/200 42/84/201
f 28/74/202 29/73/203 42/84/204
f 29/73/205 30/72/206 42/84/207
f 30/72/208 31/71/209 42/84/210
f 31/71/211 32/70/212 42/84/213
f 32/70/214 33/69/215 42/84/216
f 33/69/217 34/68/218 42/84/219
f 34/68/220 35/67/221 42/84/222
f 35/67/223 36/66/224 42/84/225
f 36/66/226 37/65/227 42/84/228
f 37/65/229 38/64/230 42/84/231
f 38/64/232 39/63/233 42/84/234
f 39/63/235 40/82/236 42/84/237
f 40/82/238 21/81/239 42/84/240
