# This file uses centimeters as units for non-parametric coordinates.

v -1.009278 15.722340 0.898538
v -0.956825 15.555733 0.877566
v 5.631574 17.344208 4.623744
v 5.684028 17.177603 4.602772
v 5.706926 17.387196 4.470698
v 5.759380 17.220591 4.449727
v -0.933926 15.765327 0.745493
v -0.881473 15.598722 0.724521
vt 0.375000 0.000000
vt 0.625000 0.000000
vt 0.375000 0.250000
vt 0.625000 0.250000
vt 0.375000 0.500000
vt 0.625000 0.500000
vt 0.375000 0.750000
vt 0.625000 0.750000
vt 0.375000 1.000000
vt 0.625000 1.000000
vt 0.875000 0.000000
vt 0.875000 0.250000
vt 0.125000 0.000000
vt 0.125000 0.250000
vn -0.428331 -0.244361 0.869954
vn -0.428331 -0.244361 0.869954
vn -0.428327 -0.244362 0.869956
vn -0.428327 -0.244362 0.869956
vn -0.428331 -0.244361 0.869954
vn -0.428327 -0.244362 0.869956
vn 0.853015 0.208328 0.478502
vn 0.853015 0.208329 0.478501
vn 0.853015 0.208329 0.478501
vn 0.853015 0.208329 0.478501
vn 0.853015 0.208329 0.478501
vn 0.853016 0.208330 0.478500
vn 0.428322 0.244361 -0.869958
vn 0.428322 0.244361 -0.869958
vn 0.428327 0.244362 -0.869956
vn 0.428327 0.244362 -0.869956
vn 0.428322 0.244361 -0.869958
vn 0.428327 0.244362 -0.869956
vn -0.853019 -0.208329 -0.478495
vn -0.853016 -0.208328 -0.478502
vn -0.853016 -0.208328 -0.478502
vn -0.853016 -0.208328 -0.478502
vn -0.853016 -0.208328 -0.478502
vn -0.853012 -0.208326 -0.478508
vn 0.298167 -0.947040 -0.119211
vn 0.298167 -0.947040 -0.119211
vn 0.298162 -0.947043 -0.119200
vn 0.298162 -0.947043 -0.119200
vn 0.298167 -0.947040 -0.119211
vn 0.298162 -0.947043 -0.119200
vn -0.298162 0.947042 0.119211
vn -0.298162 0.947042 0.119211
vn -0.298162 0.947042 0.119207
vn -0.298162 0.947042 0.119207
vn -0.298162 0.947042 0.119211
vn -0.298162 0.947042 0.119207
s off
f 1/1/1 2/2/2 3/3/3
f 3/3/4 2/2/5 4/4/6
f 3/3/7 4/4/8 5/5/9
f 5/5/10 4/4/11 6/6/12
f 5/5/13 6/6/14 7/7/15
f 7/7/16 6/6/17 8/8/18
f 7/7/19 8/8/20 1/9/21
f 1/9/22 8/8/23 2/10/24
f 2/2/25 8/11/26 4/4/27
f 4/4/28 8/11/29 6/12/30
f 7/13/31 1/1/32 5/14/33
f 5/14/34 1/1/35 3/3/36
