# This file uses centimeters as units for non-parametric coordinates.

v -3.405703 10.191375 -9.155393
v -2.413271 10.191375 -9.032598
v -3.412265 10.627011 -9.102355
v -2.419833 10.627011 -8.979561
v -3.023729 11.015174 -12.242533
v -2.031296 11.015174 -12.119739
v -3.017166 10.579537 -12.295570
v -2.024734 10.579537 -12.172776
vt 0.377110 0.008439
vt 0.622890 0.008439
vt 0.622890 0.254219
vt 0.377110 0.254219
vt 0.622890 0.500000
vt 0.377110 0.500000
vt 0.622890 0.745781
vt 0.377110 0.745781
vt 0.622890 0.991561
vt 0.377110 0.991561
vt 0.868671 0.008439
vt 0.868671 0.254219
vt 0.131329 0.008439
vt 0.131329 0.254219
vn -0.121881 -0.121763 0.985048
vn -0.121880 -0.121763 0.985048
vn -0.121881 -0.121763 0.985048
vn -0.121881 -0.121763 0.985048
vn -0.121880 -0.121763 0.985048
vn -0.121879 -0.121763 0.985048
vn -0.014952 0.992559 0.120842
vn -0.014952 0.992559 0.120842
vn -0.014952 0.992559 0.120842
vn -0.014952 0.992559 0.120842
vn -0.014952 0.992559 0.120842
vn -0.014952 0.992559 0.120842
vn 0.121878 0.121763 -0.985048
vn 0.121881 0.121763 -0.985048
vn 0.121879 0.121763 -0.985048
vn 0.121879 0.121763 -0.985048
vn 0.121881 0.121763 -0.985048
vn 0.121883 0.121764 -0.985047
vn 0.014952 -0.992559 -0.120842
vn 0.014952 -0.992559 -0.120842
vn 0.014952 -0.992559 -0.120842
vn 0.014952 -0.992559 -0.120842
vn 0.014952 -0.992559 -0.120842
vn 0.014952 -0.992559 -0.120842
vn 0.992432 0.000001 0.122794
vn 0.992432 0.000001 0.122795
vn 0.992432 0.000001 0.122794
vn 0.992432 0.000001 0.122794
vn 0.992432 0.000001 0.122795
vn 0.992432 0.000001 0.122795
vn -0.992432 -0.000000 -0.122794
vn -0.992432 -0.000001 -0.122794
vn -0.992432 -0.000000 -0.122794
vn -0.992432 -0.000000 -0.122794
vn -0.992432 -0.000001 -0.122794
vn -0.992432 -0.000001 -0.122794
s off
f 1/1/1 2/2/2 3/4/3
f 3/4/4 2/2/5 4/3/6
f 3/4/7 4/3/8 5/6/9
f 5/6/10 4/3/11 6/5/12
f 5/6/13 6/5/14 7/8/15
f 7/8/16 6/5/17 8/7/18
f 7/8/19 8/7/20 1/10/21
f 1/10/22 8/7/23 2/9/24
f 2/2/25 8/11/26 4/3/27
f 4/3/28 8/11/29 6/12/30
f 7/13/31 1/1/32 5/14/33
f 5/14/34 1/1/35 3/4/36
