# This file uses centimeters as units for non-parametric coordinates.

v -2.626088 7.513519 -1.536636
v -2.304306 7.464363 -1.463633
v -4.863315 5.943473 7.267472
v -4.541533 5.894317 7.340474
v -4.828803 6.268504 7.334205
v -4.507020 6.219347 7.407208
v -2.591575 7.838550 -1.469903
v -2.269793 7.789394 -1.396900
vt 0.375000 0.000000
vt 0.625000 0.000000
vt 0.375000 0.250000
vt 0.625000 0.250000
vt 0.375000 0.500000
vt 0.625000 0.500000
vt 0.375000 0.750000
vt 0.625000 0.750000
vt 0.375000 1.000000
vt 0.625000 1.000000
vt 0.875000 0.000000
vt 0.875000 0.250000
vt 0.125000 0.000000
vt 0.125000 0.250000
vn -0.103455 -0.974311 -0.200038
vn -0.103455 -0.974311 -0.200038
vn -0.103455 -0.974311 -0.200039
vn -0.103455 -0.974311 -0.200039
vn -0.103455 -0.974311 -0.200038
vn -0.103455 -0.974311 -0.200039
vn -0.242688 -0.170314 0.955037
vn -0.242687 -0.170313 0.955037
vn -0.242687 -0.170313 0.955038
vn -0.242687 -0.170313 0.955038
vn -0.242687 -0.170313 0.955037
vn -0.242686 -0.170313 0.955038
vn 0.103455 0.974311 0.200038
vn 0.103455 0.974311 0.200038
vn 0.103455 0.974311 0.200038
vn 0.103455 0.974311 0.200038
vn 0.103455 0.974311 0.200038
vn 0.103455 0.974311 0.200038
vn 0.242687 0.170313 -0.955038
vn 0.242685 0.170313 -0.955038
vn 0.242685 0.170313 -0.955038
vn 0.242685 0.170313 -0.955038
vn 0.242685 0.170313 -0.955038
vn 0.242683 0.170312 -0.955039
vn 0.964572 -0.147352 0.218832
vn 0.964573 -0.147352 0.218832
vn 0.964572 -0.147352 0.218832
vn 0.964572 -0.147352 0.218832
vn 0.964573 -0.147352 0.218832
vn 0.964572 -0.147352 0.218832
vn -0.964573 0.147349 -0.218832
vn -0.964573 0.147349 -0.218832
vn -0.964573 0.147350 -0.218832
vn -0.964573 0.147350 -0.218832
vn -0.964573 0.147349 -0.218832
vn -0.964573 0.147350 -0.218832
s off
f 1/1/1 2/2/2 3/3/3
f 3/3/4 2/2/5 4/4/6
f 3/3/7 4/4/8 5/5/9
f 5/5/10 4/4/11 6/6/12
f 5/5/13 6/6/14 7/7/15
f 7/7/16 6/6/17 8/8/18
f 7/7/19 8/8/20 1/9/21
f 1/9/22 8/8/23 2/10/24
f 2/2/25 8/11/26 4/4/27
f 4/4/28 8/11/29 6/12/30
f 7/13/31 1/1/32 5/14/33
f 5/14/34 1/1/35 3/3/36
