# This file uses centimeters as units for non-parametric coordinates.

v -1.967897 5.449445 12.014782
v -1.349948 5.330379 11.612373
v -1.676775 6.391191 12.183188
v -1.058826 6.272125 11.780780
v -2.747107 7.050888 10.344364
v -2.129158 6.931822 9.941956
v -3.038229 6.109141 10.175958
v -2.420280 5.990075 9.773549
vt 0.377110 0.008439
vt 0.622890 0.008439
vt 0.622890 0.254219
vt 0.377110 0.254219
vt 0.622890 0.500000
vt 0.377110 0.500000
vt 0.622890 0.745781
vt 0.377110 0.745781
vt 0.622890 0.991561
vt 0.377110 0.991561
vt 0.868671 0.008439
vt 0.868671 0.254219
vt 0.131329 0.008439
vt 0.131329 0.254219
vn 0.480492 -0.296150 0.825483
vn 0.480493 -0.296150 0.825483
vn 0.480493 -0.296150 0.825483
vn 0.480493 -0.296150 0.825483
vn 0.480493 -0.296150 0.825483
vn 0.480493 -0.296150 0.825482
vn 0.291122 0.941747 0.168407
vn 0.291122 0.941747 0.168407
vn 0.291122 0.941747 0.168406
vn 0.291122 0.941747 0.168406
vn 0.291122 0.941747 0.168407
vn 0.291122 0.941747 0.168406
vn -0.480492 0.296150 -0.825483
vn -0.480492 0.296150 -0.825483
vn -0.480492 0.296150 -0.825483
vn -0.480492 0.296150 -0.825483
vn -0.480492 0.296150 -0.825483
vn -0.480492 0.296150 -0.825483
vn -0.291122 -0.941747 -0.168407
vn -0.291122 -0.941747 -0.168407
vn -0.291122 -0.941747 -0.168407
vn -0.291122 -0.941747 -0.168407
vn -0.291122 -0.941747 -0.168407
vn -0.291122 -0.941747 -0.168407
vn 0.827270 -0.159398 -0.538718
vn 0.827270 -0.159398 -0.538718
vn 0.827270 -0.159398 -0.538718
vn 0.827270 -0.159398 -0.538718
vn 0.827270 -0.159398 -0.538718
vn 0.827270 -0.159398 -0.538718
vn -0.827270 0.159398 0.538718
vn -0.827270 0.159398 0.538718
vn -0.827270 0.159398 0.538718
vn -0.827270 0.159398 0.538718
vn -0.827270 0.159398 0.538718
vn -0.827270 0.159398 0.538718
s off
f 1/1/1 2/2/2 3/4/3
f 3/4/4 2/2/5 4/3/6
f 3/4/7 4/3/8 5/6/9
f 5/6/10 4/3/11 6/5/12
f 5/6/13 6/5/14 7/8/15
f 7/8/16 6/5/17 8/7/18
f 7/8/19 8/7/20 1/10/21
f 1/10/22 8/7/23 2/9/24
f 2/2/25 8/11/26 4/3/27
f 4/3/28 8/11/29 6/12/30
f 7/13/31 1/1/32 5/14/33
f 5/14/34 1/1/35 3/4/36
