# This file uses centimeters as units for non-parametric coordinates.

v -2.382566 5.408915 -3.172607
v -1.843085 5.394914 -3.112496
v -2.382566 7.284178 -3.118131
v -1.843085 7.270176 -3.058020
v -1.543276 8.948333 -10.262852
v -1.003796 8.934332 -10.202740
v -1.543276 7.073071 -10.317328
v -1.003796 7.059069 -10.257216
vt 0.377110 0.008439
vt 0.622890 0.008439
vt 0.622890 0.254219
vt 0.377110 0.254219
vt 0.622890 0.500000
vt 0.377110 0.500000
vt 0.622890 0.745781
vt 0.377110 0.745781
vt 0.622890 0.991561
vt 0.377110 0.991561
vt 0.868671 0.008439
vt 0.868671 0.254219
vt 0.131329 0.008439
vt 0.131329 0.254219
vn -0.111431 -0.028857 0.993353
vn -0.111435 -0.028857 0.993353
vn -0.111432 -0.028857 0.993353
vn -0.111432 -0.028857 0.993353
vn -0.111435 -0.028857 0.993353
vn -0.111436 -0.028857 0.993353
vn 0.000002 0.973930 0.226848
vn 0.000002 0.973930 0.226848
vn -0.000000 0.973930 0.226849
vn -0.000000 0.973930 0.226849
vn 0.000002 0.973930 0.226848
vn -0.000001 0.973930 0.226849
vn 0.111437 0.028857 -0.993353
vn 0.111435 0.028857 -0.993353
vn 0.111432 0.028857 -0.993353
vn 0.111432 0.028857 -0.993353
vn 0.111435 0.028857 -0.993353
vn 0.111430 0.028857 -0.993353
vn -0.000001 -0.973930 -0.226849
vn -0.000001 -0.973930 -0.226849
vn 0.000000 -0.973930 -0.226848
vn 0.000000 -0.973930 -0.226848
vn -0.000001 -0.973930 -0.226849
vn 0.000000 -0.973930 -0.226848
vn 0.993256 -0.003367 0.115893
vn 0.993256 -0.003367 0.115894
vn 0.993256 -0.003367 0.115893
vn 0.993256 -0.003367 0.115893
vn 0.993256 -0.003367 0.115894
vn 0.993256 -0.003367 0.115894
vn -0.993256 0.003367 -0.115894
vn -0.993256 0.003367 -0.115893
vn -0.993256 0.003367 -0.115893
vn -0.993256 0.003367 -0.115893
vn -0.993256 0.003367 -0.115893
vn -0.993256 0.003367 -0.115893
s off
f 2/2/1 4/3/2 1/1/3
f 1/1/4 4/3/5 3/4/6
f 3/4/7 4/3/8 5/6/9
f 5/6/10 4/3/11 6/5/12
f 5/6/13 6/5/14 7/8/15
f 7/8/16 6/5/17 8/7/18
f 7/8/19 8/7/20 1/10/21
f 1/10/22 8/7/23 2/9/24
f 2/2/25 8/11/26 4/3/27
f 4/3/28 8/11/29 6/12/30
f 1/1/31 3/4/32 7/13/33
f 7/13/34 3/4/35 5/14/36
