# This file uses centimeters as units for non-parametric coordinates.

v 2.321471 16.989851 -3.457861
v 2.358104 16.865868 -3.473904
v 7.286458 18.106291 -0.748815
v 7.323091 17.982306 -0.764858
v 7.341612 18.137321 -0.862686
v 7.378245 18.013336 -0.878730
v 2.376625 17.020884 -3.571732
v 2.413259 16.896898 -3.587776
vt 0.375000 0.000000
vt 0.625000 0.000000
vt 0.375000 0.250000
vt 0.625000 0.250000
vt 0.375000 0.500000
vt 0.625000 0.500000
vt 0.375000 0.750000
vt 0.625000 0.750000
vt 0.375000 1.000000
vt 0.625000 1.000000
vt 0.875000 0.000000
vt 0.875000 0.250000
vt 0.125000 0.000000
vt 0.125000 0.250000
vn -0.423370 -0.238202 0.874081
vn -0.423370 -0.238202 0.874081
vn -0.423378 -0.238199 0.874078
vn -0.423378 -0.238199 0.874078
vn -0.423370 -0.238202 0.874081
vn -0.423378 -0.238198 0.874078
vn 0.861213 0.193652 0.469906
vn 0.861212 0.193652 0.469906
vn 0.861212 0.193652 0.469906
vn 0.861212 0.193652 0.469906
vn 0.861212 0.193652 0.469906
vn 0.861212 0.193653 0.469906
vn 0.423369 0.238195 -0.874083
vn 0.423369 0.238195 -0.874083
vn 0.423359 0.238191 -0.874090
vn 0.423359 0.238191 -0.874090
vn 0.423369 0.238195 -0.874083
vn 0.423359 0.238191 -0.874090
vn -0.861210 -0.193654 -0.469910
vn -0.861212 -0.193655 -0.469905
vn -0.861212 -0.193655 -0.469905
vn -0.861212 -0.193655 -0.469905
vn -0.861212 -0.193655 -0.469905
vn -0.861215 -0.193657 -0.469900
vn 0.281200 -0.951718 -0.123120
vn 0.281200 -0.951718 -0.123120
vn 0.281199 -0.951718 -0.123126
vn 0.281199 -0.951718 -0.123126
vn 0.281200 -0.951718 -0.123120
vn 0.281199 -0.951718 -0.123126
vn -0.281205 0.951715 0.123139
vn -0.281205 0.951715 0.123139
vn -0.281198 0.951714 0.123163
vn -0.281198 0.951714 0.123163
vn -0.281205 0.951715 0.123139
vn -0.281198 0.951713 0.123163
s off
f 1/1/1 2/2/2 3/3/3
f 3/3/4 2/2/5 4/4/6
f 3/3/7 4/4/8 5/5/9
f 5/5/10 4/4/11 6/6/12
f 5/5/13 6/6/14 7/7/15
f 7/7/16 6/6/17 8/8/18
f 7/7/19 8/8/20 1/9/21
f 1/9/22 8/8/23 2/10/24
f 2/2/25 8/11/26 4/4/27
f 4/4/28 8/11/29 6/12/30
f 7/13/31 1/1/32 5/14/33
f 5/14/34 1/1/35 3/3/36
