# This file uses centimeters as units for non-parametric coordinates.

v 3.794567 6.294408 -2.836593
v 3.253524 6.286769 -2.791180
v 3.434954 8.493324 -3.183604
v 2.893911 8.485684 -3.138192
v 2.927626 9.472909 -9.134405
v 2.386582 9.465269 -9.088992
v 3.038412 7.467258 -9.300304
v 2.497369 7.459619 -9.254892
vt 0.377110 0.008439
vt 0.377110 0.254219
vt 0.622890 0.254219
vt 0.622890 0.008439
vt 0.377110 0.500000
vt 0.622890 0.500000
vt 0.377110 0.745781
vt 0.622890 0.745781
vt 0.377110 0.991561
vt 0.622890 0.991561
vt 0.868671 0.254219
vt 0.868671 0.008439
vt 0.131329 0.008439
vt 0.131329 0.254219
vn 0.080092 0.168147 0.982503
vn 0.080092 0.168147 0.982503
vn 0.080092 0.168147 0.982503
vn 0.080092 0.168147 0.982503
vn 0.080092 0.168147 0.982503
vn 0.080092 0.168147 0.982503
vn -0.000298 0.986716 0.162452
vn -0.000298 0.986716 0.162452
vn -0.000298 0.986716 0.162452
vn -0.000298 0.986716 0.162452
vn -0.000298 0.986716 0.162452
vn -0.000298 0.986716 0.162453
vn -0.084474 0.077504 -0.993407
vn -0.084474 0.077505 -0.993407
vn -0.084477 0.077505 -0.993407
vn -0.084477 0.077505 -0.993407
vn -0.084474 0.077505 -0.993407
vn -0.084477 0.077505 -0.993407
vn -0.001082 -0.983955 -0.178414
vn -0.001082 -0.983955 -0.178414
vn -0.001082 -0.983955 -0.178413
vn -0.001082 -0.983955 -0.178413
vn -0.001082 -0.983955 -0.178414
vn -0.001082 -0.983955 -0.178413
vn -0.985145 -0.147138 0.088548
vn -0.987202 -0.133991 0.086476
vn -0.993640 -0.081185 0.078036
vn -0.993640 -0.081185 0.078036
vn -0.987202 -0.133991 0.086476
vn -0.995322 -0.061165 0.074786
vn 0.995322 0.061165 -0.074786
vn 0.987202 0.133991 -0.086476
vn 0.993640 0.081185 -0.078036
vn 0.993640 0.081185 -0.078036
vn 0.987202 0.133991 -0.086476
vn 0.985145 0.147138 -0.088548
s off
f 1/1/1 3/2/2 2/4/3
f 2/4/4 3/2/5 4/3/6
f 3/2/7 5/5/8 4/3/9
f 4/3/10 5/5/11 6/6/12
f 7/7/13 8/8/14 5/5/15
f 5/5/16 8/8/17 6/6/18
f 1/9/19 2/10/20 7/7/21
f 7/7/22 2/10/23 8/8/24
f 2/4/25 4/3/26 8/12/27
f 8/12/28 4/3/29 6/11/30
f 5/14/31 3/2/32 7/13/33
f 7/13/34 3/2/35 1/1/36
