# This file uses centimeters as units for non-parametric coordinates.

v -2.847400 4.184385 -5.738059
v 3.502234 4.184385 -5.738059
v -2.847400 6.581998 -5.567862
v 3.502234 6.581998 -5.567862
v -2.847400 7.372104 -10.000510
v 3.502234 7.372104 -10.000510
v -2.847400 4.981257 -9.752780
v 3.502234 4.981257 -9.752780
vt 0.377110 0.008439
vt 0.622890 0.008439
vt 0.622890 0.254219
vt 0.377110 0.254219
vt 0.622890 0.500000
vt 0.377110 0.500000
vt 0.622890 0.745781
vt 0.377110 0.745781
vt 0.622890 0.991561
vt 0.377110 0.991561
vt 0.868671 0.008439
vt 0.868671 0.254219
vt 0.131329 0.008439
vt 0.131329 0.254219
vn 0.000000 -0.070808 0.997490
vn 0.000000 -0.070808 0.997490
vn 0.000000 -0.070808 0.997490
vn 0.000000 -0.070808 0.997490
vn 0.000000 -0.070808 0.997490
vn 0.000000 -0.070808 0.997490
vn 0.000000 0.984483 0.175481
vn 0.000000 0.984483 0.175481
vn 0.000000 0.984483 0.175481
vn 0.000000 0.984483 0.175481
vn 0.000000 0.984483 0.175481
vn 0.000000 0.984483 0.175481
vn 0.000000 -0.103064 -0.994675
vn 0.000000 -0.103064 -0.994675
vn 0.000000 -0.103064 -0.994675
vn 0.000000 -0.103064 -0.994675
vn 0.000000 -0.103064 -0.994675
vn 0.000000 -0.103064 -0.994675
vn 0.000000 -0.980865 -0.194689
vn 0.000000 -0.980865 -0.194690
vn 0.000000 -0.980865 -0.194690
vn 0.000000 -0.980865 -0.194690
vn 0.000000 -0.980865 -0.194690
vn 0.000000 -0.980865 -0.194690
vn 1.000000 -0.000000 0.000000
vn 1.000000 -0.000000 0.000000
vn 1.000000 -0.000000 0.000000
vn 1.000000 -0.000000 0.000000
vn 1.000000 -0.000000 0.000000
vn 1.000000 0.000000 0.000000
vn -1.000000 -0.000000 0.000000
vn -1.000000 -0.000000 0.000000
vn -1.000000 -0.000000 0.000000
vn -1.000000 -0.000000 0.000000
vn -1.000000 -0.000000 0.000000
vn -1.000000 0.000000 0.000000
s off
f 1/1/1 2/2/2 3/4/3
f 3/4/4 2/2/5 4/3/6
f 3/4/7 4/3/8 5/6/9
f 5/6/10 4/3/11 6/5/12
f 5/6/13 6/5/14 7/8/15
f 7/8/16 6/5/17 8/7/18
f 7/8/19 8/7/20 1/10/21
f 1/10/22 8/7/23 2/9/24
f 2/2/25 8/11/26 4/3/27
f 4/3/28 8/11/29 6/12/30
f 1/1/31 3/4/32 7/13/33
f 7/13/34 3/4/35 5/14/36
