# This file uses centimeters as units for non-parametric coordinates.

v -6.561527 8.692247 6.263335
v -6.451911 8.405304 6.210228
v 7.119476 13.967801 5.997387
v 7.229092 13.680857 5.944279
v 7.095168 14.015356 5.690271
v 7.204784 13.728413 5.637164
v -6.585835 8.739802 5.956219
v -6.476219 8.452859 5.903112
vt 0.375000 0.000000
vt 0.625000 0.000000
vt 0.375000 0.250000
vt 0.625000 0.250000
vt 0.375000 0.500000
vt 0.625000 0.500000
vt 0.375000 0.750000
vt 0.625000 0.750000
vt 0.375000 1.000000
vt 0.625000 1.000000
vt 0.875000 0.000000
vt 0.875000 0.250000
vt 0.125000 0.000000
vt 0.125000 0.250000
vn 0.077979 -0.152555 0.985214
vn 0.077979 -0.152555 0.985214
vn 0.077979 -0.152555 0.985214
vn 0.077979 -0.152555 0.985214
vn 0.077979 -0.152555 0.985214
vn 0.077979 -0.152555 0.985214
vn 0.932882 0.359726 -0.018132
vn 0.932880 0.359730 -0.018131
vn 0.932880 0.359730 -0.018131
vn 0.932880 0.359730 -0.018131
vn 0.932880 0.359730 -0.018131
vn 0.932879 0.359734 -0.018129
vn -0.077977 0.152552 -0.985214
vn -0.077977 0.152552 -0.985214
vn -0.077979 0.152556 -0.985214
vn -0.077979 0.152556 -0.985214
vn -0.077977 0.152552 -0.985214
vn -0.077979 0.152556 -0.985214
vn -0.932880 -0.359732 0.018135
vn -0.932880 -0.359731 0.018133
vn -0.932880 -0.359731 0.018133
vn -0.932880 -0.359731 0.018133
vn -0.932880 -0.359731 0.018133
vn -0.932880 -0.359730 0.018132
vn 0.351644 -0.920501 -0.170366
vn 0.351644 -0.920501 -0.170367
vn 0.351644 -0.920500 -0.170369
vn 0.351644 -0.920500 -0.170369
vn 0.351644 -0.920501 -0.170367
vn 0.351644 -0.920500 -0.170369
vn -0.351644 0.920500 0.170373
vn -0.351644 0.920500 0.170373
vn -0.351644 0.920500 0.170374
vn -0.351644 0.920500 0.170374
vn -0.351644 0.920500 0.170373
vn -0.351644 0.920500 0.170374
s off
f 1/1/1 2/2/2 3/3/3
f 3/3/4 2/2/5 4/4/6
f 3/3/7 4/4/8 5/5/9
f 5/5/10 4/4/11 6/6/12
f 5/5/13 6/6/14 7/7/15
f 7/7/16 6/6/17 8/8/18
f 7/7/19 8/8/20 1/9/21
f 1/9/22 8/8/23 2/10/24
f 2/2/25 8/11/26 4/4/27
f 4/4/28 8/11/29 6/12/30
f 7/13/31 1/1/32 5/14/33
f 5/14/34 1/1/35 3/3/36
