# This file uses centimeters as units for non-parametric coordinates.

v -0.603837 15.843149 -1.066383
v -0.822579 15.969986 -1.071506
v -6.624087 5.322067 -4.497533
v -6.842830 5.448903 -4.502655
v -6.585265 5.379195 -4.740825
v -6.804007 5.506031 -4.745947
v -0.565014 15.900278 -1.309675
v -0.783756 16.027115 -1.314798
vt 0.375000 0.000000
vt 0.625000 0.000000
vt 0.375000 0.250000
vt 0.625000 0.250000
vt 0.375000 0.500000
vt 0.625000 0.500000
vt 0.375000 0.750000
vt 0.625000 0.750000
vt 0.375000 1.000000
vt 0.625000 1.000000
vt 0.875000 0.000000
vt 0.875000 0.250000
vt 0.125000 0.000000
vt 0.125000 0.250000
vn -0.153505 -0.225886 0.961983
vn -0.153505 -0.225886 0.961983
vn -0.153506 -0.225886 0.961983
vn -0.153506 -0.225886 0.961983
vn -0.153505 -0.225886 0.961983
vn -0.153506 -0.225886 0.961983
vn -0.477872 -0.835139 -0.272361
vn -0.477873 -0.835141 -0.272356
vn -0.477873 -0.835141 -0.272356
vn -0.477873 -0.835141 -0.272356
vn -0.477873 -0.835141 -0.272356
vn -0.477873 -0.835142 -0.272351
vn 0.153506 0.225887 -0.961983
vn 0.153506 0.225887 -0.961983
vn 0.153505 0.225886 -0.961983
vn 0.153505 0.225886 -0.961983
vn 0.153506 0.225887 -0.961983
vn 0.153505 0.225886 -0.961983
vn 0.477874 0.835138 0.272363
vn 0.477874 0.835139 0.272359
vn 0.477874 0.835139 0.272359
vn 0.477874 0.835139 0.272359
vn 0.477874 0.835139 0.272359
vn 0.477875 0.835140 0.272355
vn -0.864912 0.501515 -0.020249
vn -0.864912 0.501515 -0.020249
vn -0.864912 0.501514 -0.020256
vn -0.864912 0.501514 -0.020256
vn -0.864912 0.501515 -0.020249
vn -0.864912 0.501514 -0.020256
vn 0.864912 -0.501515 0.020249
vn 0.864912 -0.501515 0.020249
vn 0.864912 -0.501514 0.020255
vn 0.864912 -0.501514 0.020255
vn 0.864912 -0.501515 0.020249
vn 0.864912 -0.501514 0.020256
s off
f 1/1/1 2/2/2 3/3/3
f 3/3/4 2/2/5 4/4/6
f 3/3/7 4/4/8 5/5/9
f 5/5/10 4/4/11 6/6/12
f 5/5/13 6/6/14 7/7/15
f 7/7/16 6/6/17 8/8/18
f 7/7/19 8/8/20 1/9/21
f 1/9/22 8/8/23 2/10/24
f 2/2/25 8/11/26 4/4/27
f 4/4/28 8/11/29 6/12/30
f 7/13/31 1/1/32 5/14/33
f 5/14/34 1/1/35 3/3/36
