# This file uses centimeters as units for non-parametric coordinates.

v -3.519792 -0.252254 0.625929
v -3.095149 -1.182724 1.184286
v 2.967425 -1.182724 1.184286
v 3.382896 -0.252254 0.625929
v -2.442991 -2.146651 1.623632
v 2.368029 -2.146651 1.623632
v -1.781180 -2.693942 1.873094
v 1.745897 -2.693942 1.873094
v -0.445457 -3.119900 2.067235
v 0.443489 -3.119900 2.067235
v 3.314502 1.548274 0.557886
v -3.451398 1.548274 0.557886
v -2.535585 1.467321 3.127423
v -2.325893 1.274640 3.686422
v 2.312423 1.274640 3.686422
v 2.505392 1.467321 3.127423
v -1.972505 0.884293 4.448707
v 1.969881 0.884293 4.448707
v -1.319599 0.547488 4.847910
v 1.313617 0.547488 4.847910
v -0.315203 0.215507 5.139148
v 0.308484 0.215507 5.139148
v -2.272185 -1.004477 3.374223
v -2.791595 -0.322074 2.776372
v -3.184057 0.427005 2.115893
v -3.091687 1.539252 1.918249
v 2.991318 1.539252 1.918249
v 3.093928 0.427005 2.115893
v 2.715647 -0.322074 2.776372
v 2.225181 -1.004477 3.374223
v 1.509139 -1.391925 3.713680
v 0.356904 -1.693479 3.977865
v -0.364226 -1.693479 3.977865
v -1.533294 -1.391925 3.713680
v -3.690626 -0.227248 -0.672951
v -3.406895 -1.310563 -0.672144
v 3.278634 -1.310563 -0.672144
v 3.553730 -0.227248 -0.672951
v -2.934285 -2.602447 -0.670897
v 2.874851 -2.602447 -0.670897
v -2.160072 -3.335954 -0.670178
v 2.143610 -3.335954 -0.670178
v -0.521345 -3.906834 -0.669634
v 0.521345 -3.906834 -0.669634
v 3.439309 1.541485 -0.662169
v -3.576205 1.541485 -0.662169
v -0.002496 -1.706884 -1.056083
vt 0.377110 0.500000
vt 0.377110 0.745781
vt 0.622890 0.745781
vt 0.622890 0.500000
vt 0.008439 0.008439
vt 0.008439 0.497633
vt 0.991561 0.497633
vt 0.991561 0.008439
vt 0.008439 0.775388
vt 0.991561 0.775388
vt 0.008439 0.991561
vt 0.991561 0.991561
vt 0.377110 0.500000
vt 0.377110 0.745781
vt 0.377110 0.745781
vt 0.377110 0.500000
vt 0.622890 0.745781
vt 0.622890 0.500000
vt 0.622890 0.500000
vt 0.622890 0.745781
vt 0.008439 0.008439
vt 0.008439 0.497633
vt 0.008439 0.497633
vt 0.008439 0.008439
vt 0.991561 0.497633
vt 0.991561 0.008439
vt 0.991561 0.008439
vt 0.991561 0.497633
vt 0.008439 0.775388
vt 0.008439 0.775388
vt 0.991561 0.775388
vt 0.991561 0.775388
vt 0.008439 0.991561
vt 0.008439 0.991561
vt 0.991561 0.991561
vt 0.991561 0.991561
vt 0.008439 0.008439
vt 0.008439 0.991561
vt 0.008439 0.991561
vt 0.008439 0.008439
vt 0.991561 0.991561
vt 0.991561 0.991561
vt 0.991561 0.008439
vt 0.991561 0.008439
vt 0.377110 0.745781
vt 0.377110 0.500000
vt 0.622890 0.500000
vt 0.622890 0.745781
vt 0.008439 0.497633
vt 0.008439 0.008439
vt 0.991561 0.008439
vt 0.991561 0.497633
vt 0.008439 0.775388
vt 0.991561 0.775388
vt 0.008439 0.991561
vt 0.991561 0.991561
vt 0.008439 0.991561
vt 0.008439 0.008439
vt 0.991561 0.991561
vt 0.991561 0.008439
vt 0.991561 0.008439
vt 0.008439 0.008439
vt 0.008439 0.008439
vt 0.991561 0.008439
vt 0.500000 0.991561
vt 0.008439 0.008439
vt 0.991561 0.008439
vt 0.500000 0.991561
vt 0.008439 0.008439
vt 0.991561 0.008439
vt 0.500000 0.991561
vt 0.008439 0.008439
vt 0.991561 0.008439
vt 0.500000 0.991561
vt 0.008439 0.008439
vt 0.991561 0.008439
vt 0.500000 0.991561
vt 0.008439 0.008439
vt 0.991561 0.008439
vt 0.500000 0.991561
vt 0.008439 0.008439
vt 0.991561 0.008439
vt 0.500000 0.991561
vt 0.008439 0.008439
vt 0.991561 0.008439
vt 0.500000 0.991561
vt 0.008439 0.008439
vt 0.991561 0.008439
vt 0.500000 0.991561
vt 0.008439 0.008439
vt 0.991561 0.008439
vt 0.500000 0.991561
vt 0.008439 0.008439
vt 0.991561 0.008439
vt 0.500000 0.991561
vt 0.008439 0.008439
vt 0.991561 0.008439
vt 0.500000 0.991561
vn 0.000000 0.945413 0.325875
vn 0.000000 0.945413 0.325875
vn 0.000000 0.945413 0.325874
vn 0.000000 0.945413 0.325874
vn 0.000000 0.945413 0.325875
vn 0.000000 0.945413 0.325874
vn 0.000000 0.890087 0.455791
vn 0.000000 0.890087 0.455791
vn 0.000000 0.890087 0.455791
vn 0.000000 0.890087 0.455791
vn 0.000000 0.890087 0.455791
vn 0.000000 0.890087 0.455791
vn 0.000000 0.764314 0.644845
vn 0.000000 0.764313 0.644845
vn 0.000000 0.764314 0.644845
vn 0.000000 0.764314 0.644845
vn 0.000000 0.764313 0.644845
vn 0.000000 0.764313 0.644845
vn 0.000000 0.659471 0.751730
vn 0.000000 0.659471 0.751730
vn 0.000000 0.659471 0.751730
vn 0.000000 0.659471 0.751730
vn 0.000000 0.659471 0.751730
vn 0.000000 0.659471 0.751730
vn -0.960232 -0.251404 0.121453
vn -0.946956 -0.284448 0.149548
vn -0.940165 -0.299515 0.162423
vn -0.940165 -0.299515 0.162423
vn -0.946956 -0.284448 0.149548
vn -0.931182 -0.317993 0.178269
vn 0.962039 -0.244209 0.121829
vn 0.942571 -0.291925 0.162296
vn 0.949203 -0.276882 0.149499
vn 0.949203 -0.276882 0.149499
vn 0.942571 -0.291925 0.162296
vn 0.933867 -0.310225 0.177915
vn -0.924111 -0.337895 0.178452
vn -0.898623 -0.382530 0.214821
vn -0.874706 -0.418504 0.244424
vn -0.874706 -0.418504 0.244424
vn -0.898623 -0.382530 0.214821
vn -0.850029 -0.451284 0.271649
vn 0.939328 -0.293419 0.177673
vn 0.891554 -0.380053 0.246356
vn 0.915534 -0.340182 0.214647
vn 0.915534 -0.340182 0.214647
vn 0.891554 -0.380053 0.246356
vn 0.867727 -0.414673 0.274038
vn -0.660427 -0.696803 0.279824
vn -0.662894 -0.694963 0.278565
vn -0.669298 -0.690122 0.275266
vn -0.669298 -0.690122 0.275266
vn -0.662894 -0.694963 0.278565
vn -0.672120 -0.687961 0.273797
vn 0.679090 -0.676712 0.284425
vn 0.691166 -0.667000 0.278208
vn 0.682306 -0.674159 0.282786
vn 0.682306 -0.674159 0.282786
vn 0.691166 -0.667000 0.278208
vn 0.694864 -0.663958 0.276268
vn -0.316260 -0.907570 0.276219
vn -0.319618 -0.906983 0.274275
vn -0.323633 -0.906261 0.271941
vn -0.323633 -0.906261 0.271941
vn -0.319618 -0.906983 0.274275
vn -0.327913 -0.905469 0.269442
vn 0.000000 -0.961062 0.276335
vn 0.000000 -0.961062 0.276335
vn 0.000000 -0.961061 0.276335
vn 0.000000 -0.961061 0.276335
vn 0.000000 -0.961062 0.276335
vn 0.000000 -0.961061 0.276335
vn 0.318893 -0.905932 0.278558
vn 0.329335 -0.904004 0.272609
vn 0.323508 -0.905097 0.275937
vn 0.323508 -0.905097 0.275937
vn 0.329335 -0.904004 0.272609
vn 0.335388 -0.902820 0.269129
vn 0.992830 0.063610 0.101209
vn 0.991986 0.054704 0.113892
vn 0.991467 0.050183 0.120313
vn 0.991467 0.050183 0.120313
vn 0.991986 0.054704 0.113892
vn 0.990456 0.042577 0.131088
vn 0.000000 0.999985 -0.005564
vn 0.000000 0.999985 -0.005564
vn 0.000000 0.999985 -0.005564
vn 0.000000 0.999985 -0.005564
vn 0.000000 0.999985 -0.005564
vn 0.000000 0.999985 -0.005564
vn -0.992830 0.063610 0.101209
vn -0.991467 0.050183 0.120313
vn -0.991986 0.054704 0.113892
vn -0.991986 0.054704 0.113892
vn -0.991467 0.050183 0.120313
vn -0.990456 0.042577 0.131088
vn -0.920812 -0.232203 0.313347
vn -0.923383 -0.229213 0.307936
vn -0.925568 -0.226626 0.303257
vn -0.925568 -0.226626 0.303257
vn -0.923383 -0.229213 0.307936
vn -0.928055 -0.223626 0.297834
vn 0.926636 -0.240204 0.289221
vn 0.931413 -0.234359 0.278472
vn 0.929231 -0.237058 0.283432
vn 0.929231 -0.237058 0.283432
vn 0.931413 -0.234359 0.278472
vn 0.933914 -0.231200 0.272674
vn -0.838267 -0.396580 0.374211
vn -0.848021 -0.389245 0.359651
vn -0.858145 -0.381220 0.343887
vn -0.858145 -0.381220 0.343887
vn -0.848021 -0.389245 0.359651
vn -0.867838 -0.373101 0.328105
vn 0.860084 -0.379359 0.341090
vn 0.873348 -0.368004 0.319118
vn 0.866510 -0.373968 0.330619
vn 0.866510 -0.373968 0.330619
vn 0.873348 -0.368004 0.319118
vn 0.879660 -0.362275 0.308146
vn -0.663293 -0.595491 0.453246
vn -0.639214 -0.606214 0.473191
vn -0.592391 -0.624460 0.509041
vn -0.592391 -0.624460 0.509041
vn -0.639214 -0.606214 0.473191
vn -0.571750 -0.631513 0.523730
vn 0.686652 -0.581943 0.435719
vn 0.606260 -0.617388 0.501279
vn 0.659926 -0.594928 0.458866
vn 0.659926 -0.594928 0.458866
vn 0.606260 -0.617388 0.501279
vn 0.583828 -0.625506 0.517578
vn -0.323241 -0.751491 0.575132
vn -0.323393 -0.751497 0.575039
vn -0.323568 -0.751504 0.574931
vn -0.323568 -0.751504 0.574931
vn -0.323393 -0.751497 0.575039
vn -0.323746 -0.751511 0.574821
vn 0.000000 -0.801317 0.598240
vn 0.000000 -0.801317 0.598240
vn 0.000000 -0.801317 0.598240
vn 0.000000 -0.801317 0.598240
vn 0.000000 -0.801317 0.598240
vn 0.000000 -0.801317 0.598240
vn 0.330667 -0.749887 0.572999
vn 0.328911 -0.749834 0.574080
vn 0.329864 -0.749863 0.573494
vn 0.329864 -0.749863 0.573494
vn 0.328911 -0.749834 0.574080
vn 0.327988 -0.749804 0.574646
vn 0.984311 0.043848 0.170910
vn 0.979956 0.067604 0.187390
vn 0.979492 0.069894 0.188972
vn 0.979492 0.069894 0.188972
vn 0.979956 0.067604 0.187390
vn 0.964490 0.129849 0.229997
vn 0.000000 0.999978 0.006632
vn 0.000000 0.999978 0.006632
vn 0.000000 0.999978 0.006631
vn 0.000000 0.999978 0.006631
vn 0.000000 0.999978 0.006632
vn 0.000000 0.999978 0.006631
vn -0.978744 0.044742 0.200144
vn -0.973753 0.069145 0.216851
vn -0.974285 0.066737 0.215209
vn -0.974285 0.066737 0.215209
vn -0.973753 0.069145 0.216851
vn -0.959003 0.124851 0.254410
vn -0.831429 -0.169163 0.529253
vn -0.881365 -0.052446 0.469515
vn -0.849445 -0.131623 0.510997
vn -0.849445 -0.131623 0.510997
vn -0.881365 -0.052446 0.469515
vn -0.903298 0.019185 0.428585
vn -0.850219 0.018428 0.526106
vn -0.866244 0.026050 0.498941
vn -0.901592 0.044576 0.430285
vn -0.901592 0.044576 0.430285
vn -0.866244 0.026050 0.498941
vn -0.927565 0.060363 0.368755
vn -0.894981 0.149043 0.420470
vn -0.894981 0.149043 0.420470
vn -0.894981 0.149043 0.420470
vn 0.000000 0.998235 0.059383
vn 0.000000 0.998235 0.059383
vn 0.000000 0.998235 0.059383
vn 0.000000 0.998235 0.059383
vn 0.000000 0.998235 0.059383
vn 0.000000 0.998235 0.059383
vn 0.914066 0.151200 0.376326
vn 0.914066 0.151200 0.376326
vn 0.914066 0.151200 0.376326
vn 0.865962 0.003640 0.500097
vn 0.915084 0.028608 0.402247
vn 0.881625 0.011027 0.471822
vn 0.881625 0.011027 0.471822
vn 0.915084 0.028608 0.402247
vn 0.939601 0.043808 0.339455
vn 0.848305 -0.170517 0.501301
vn 0.864214 -0.136895 0.484142
vn 0.892932 -0.065448 0.445409
vn 0.892932 -0.065448 0.445409
vn 0.864214 -0.136895 0.484142
vn 0.912620 -0.002530 0.408801
vn 0.555467 -0.377353 0.740987
vn 0.566729 -0.367388 0.737458
vn 0.595141 -0.341290 0.727549
vn 0.595141 -0.341290 0.727549
vn 0.566729 -0.367388 0.737458
vn 0.608218 -0.328790 0.722474
vn 0.314354 -0.487537 0.814548
vn 0.332519 -0.474434 0.815073
vn 0.359068 -0.454626 0.815098
vn 0.359068 -0.454626 0.815098
vn 0.332519 -0.474434 0.815073
vn 0.380633 -0.437942 0.814448
vn 0.000000 -0.519716 0.854339
vn 0.000000 -0.519716 0.854339
vn 0.000000 -0.519716 0.854339
vn 0.000000 -0.519716 0.854339
vn 0.000000 -0.519716 0.854339
vn 0.000000 -0.519716 0.854339
vn -0.310268 -0.488239 0.815694
vn -0.357211 -0.453444 0.816571
vn -0.329375 -0.474372 0.816384
vn -0.329375 -0.474372 0.816384
vn -0.357211 -0.453444 0.816571
vn -0.380467 -0.435274 0.815954
vn -0.542901 -0.378583 0.749622
vn -0.591685 -0.333683 0.733870
vn -0.556746 -0.366251 0.745583
vn -0.556746 -0.366251 0.745583
vn -0.591685 -0.333683 0.733870
vn -0.608434 -0.317279 0.727421
vn -0.115577 -0.031010 -0.992814
vn -0.115577 -0.031010 -0.992814
vn -0.115577 -0.031010 -0.992814
vn 0.119879 -0.031181 -0.992299
vn 0.119879 -0.031181 -0.992299
vn 0.119879 -0.031181 -0.992299
vn -0.116988 -0.043756 -0.992169
vn -0.116988 -0.043756 -0.992169
vn -0.116988 -0.043756 -0.992169
vn 0.120744 -0.038697 -0.991929
vn 0.120744 -0.038697 -0.991929
vn 0.120744 -0.038697 -0.991929
vn -0.098100 -0.104514 -0.989673
vn -0.098100 -0.104514 -0.989673
vn -0.098100 -0.104514 -0.989673
vn 0.100885 -0.101543 -0.989703
vn 0.100885 -0.101543 -0.989703
vn 0.100885 -0.101543 -0.989703
vn -0.055430 -0.160051 -0.985551
vn -0.055430 -0.160051 -0.985551
vn -0.055430 -0.160051 -0.985551
vn 0.000000 -0.173013 -0.984920
vn 0.000000 -0.173013 -0.984920
vn 0.000000 -0.173013 -0.984920
vn 0.055909 -0.159814 -0.985563
vn 0.055909 -0.159814 -0.985563
vn 0.055909 -0.159814 -0.985563
vn 0.101900 0.012656 -0.994714
vn 0.101900 0.012656 -0.994714
vn 0.101900 0.012656 -0.994714
vn 0.000000 0.120383 -0.992728
vn 0.000000 0.120383 -0.992728
vn 0.000000 0.120383 -0.992728
vn -0.098383 0.012430 -0.995071
vn -0.098383 0.012430 -0.995071
vn -0.098383 0.012430 -0.995071
s off
f 13/1/1 14/2/2 16/4/3
f 16/4/4 14/2/5 15/3/6
f 14/5/7 17/6/8 15/8/9
f 15/8/10 17/6/11 18/7/12
f 19/9/13 20/10/14 17/6/15
f 17/6/16 20/10/17 18/7/18
f 19/9/19 21/11/20 20/10/21
f 20/10/22 21/11/23 22/12/24
f 35/13/25 36/14/26 1/16/27
f 1/16/28 36/14/29 2/15/30
f 38/18/31 4/19/32 37/17/33
f 37/17/34 4/19/35 3/20/36
f 36/21/37 39/22/38 2/24/39
f 2/24/40 39/22/41 5/23/42
f 37/26/43 3/27/44 40/25/45
f 40/25/46 3/27/47 6/28/48
f 39/22/49 41/29/50 5/23/51
f 5/23/52 41/29/53 7/30/54
f 40/25/55 6/28/56 42/31/57
f 42/31/58 6/28/59 8/32/60
f 41/29/61 43/33/62 7/30/63
f 7/30/64 43/33/65 9/34/66
f 43/33/67 44/35/68 9/34/69
f 9/34/70 44/35/71 10/36/72
f 42/31/73 8/32/74 44/35/75
f 44/35/76 8/32/77 10/36/78
f 45/38/79 11/39/80 38/37/81
f 38/37/82 11/39/83 4/40/84
f 45/38/85 46/41/86 11/39/87
f 11/39/88 46/41/89 12/42/90
f 46/41/91 35/43/92 12/42/93
f 12/42/94 35/43/95 1/44/96
f 1/16/97 2/15/98 25/46/99
f 25/46/100 2/15/101 24/45/102
f 4/19/103 28/47/104 3/20/105
f 3/20/106 28/47/107 29/48/108
f 2/24/109 5/23/110 24/50/111
f 24/50/112 5/23/113 23/49/114
f 3/27/115 29/51/116 6/28/117
f 6/28/118 29/51/119 30/52/120
f 5/23/121 7/30/122 23/49/123
f 23/49/124 7/30/125 34/53/126
f 6/28/127 30/52/128 8/32/129
f 8/32/130 30/52/131 31/54/132
f 7/30/133 9/34/134 34/53/135
f 34/53/136 9/34/137 33/55/138
f 10/36/139 32/56/140 9/34/141
f 9/34/142 32/56/143 33/55/144
f 8/32/145 31/54/146 10/36/147
f 10/36/148 31/54/149 32/56/150
f 4/40/151 11/39/152 28/58/153
f 28/58/154 11/39/155 27/57/156
f 12/42/157 26/59/158 11/39/159
f 11/39/160 26/59/161 27/57/162
f 1/44/163 25/60/164 12/42/165
f 12/42/166 25/60/167 26/59/168
f 23/49/169 17/6/170 24/50/171
f 24/50/172 17/6/173 14/5/174
f 25/46/175 24/45/176 13/1/177
f 13/1/178 24/45/179 14/2/180
f 26/59/181 25/60/182 13/61/183
f 16/62/184 27/57/185 13/61/186
f 13/61/187 27/57/188 26/59/189
f 28/58/190 27/57/191 16/62/192
f 28/47/193 16/4/194 29/48/195
f 29/48/196 16/4/197 15/3/198
f 30/52/199 29/51/200 18/7/201
f 18/7/202 29/51/203 15/8/204
f 31/54/205 30/52/206 20/10/207
f 20/10/208 30/52/209 18/7/210
f 32/56/211 31/54/212 22/12/213
f 22/12/214 31/54/215 20/10/216
f 33/55/217 32/56/218 21/11/219
f 21/11/220 32/56/221 22/12/222
f 33/55/223 21/11/224 34/53/225
f 34/53/226 21/11/227 19/9/228
f 34/53/229 19/9/230 23/49/231
f 23/49/232 19/9/233 17/6/234
f 36/63/235 35/64/236 47/65/237
f 38/66/238 37/67/239 47/68/240
f 39/69/241 36/70/242 47/71/243
f 37/72/244 40/73/245 47/74/246
f 41/75/247 39/76/248 47/77/249
f 40/78/250 42/79/251 47/80/252
f 43/81/253 41/82/254 47/83/255
f 44/84/256 43/85/257 47/86/258
f 42/87/259 44/88/260 47/89/261
f 45/90/262 38/91/263 47/92/264
f 46/93/265 45/94/266 47/95/267
f 35/96/268 46/97/269 47/98/270
