# This file uses centimeters as units for non-parametric coordinates.

v -0.808206 0.793007 7.022647
v -0.160596 0.607291 6.700032
v -0.631437 1.756738 6.822711
v 0.016174 1.571022 6.500096
v -1.783487 1.516919 4.648171
v -1.135877 1.331203 4.325555
v -1.960257 0.553187 4.848107
v -1.312647 0.367471 4.525491
vt 0.377110 0.008439
vt 0.622890 0.008439
vt 0.622890 0.254219
vt 0.377110 0.254219
vt 0.622890 0.500000
vt 0.377110 0.500000
vt 0.622890 0.745781
vt 0.377110 0.745781
vt 0.622890 0.991561
vt 0.377110 0.991561
vt 0.868671 0.008439
vt 0.868671 0.254219
vt 0.131329 0.008439
vt 0.131329 0.254219
vn 0.465941 0.096994 0.879484
vn 0.465941 0.096994 0.879484
vn 0.465941 0.096994 0.879484
vn 0.465941 0.096994 0.879484
vn 0.465941 0.096994 0.879484
vn 0.465941 0.096994 0.879483
vn 0.176770 0.963731 -0.199936
vn 0.176770 0.963731 -0.199936
vn 0.176770 0.963731 -0.199936
vn 0.176770 0.963731 -0.199936
vn 0.176770 0.963731 -0.199936
vn 0.176770 0.963731 -0.199936
vn -0.465942 -0.096994 -0.879483
vn -0.465942 -0.096994 -0.879483
vn -0.465942 -0.096994 -0.879483
vn -0.465942 -0.096994 -0.879483
vn -0.465942 -0.096994 -0.879483
vn -0.465942 -0.096994 -0.879483
vn -0.176770 -0.963731 0.199936
vn -0.176770 -0.963731 0.199936
vn -0.176770 -0.963731 0.199936
vn -0.176770 -0.963731 0.199936
vn -0.176770 -0.963731 0.199936
vn -0.176770 -0.963731 0.199936
vn 0.866978 -0.248624 -0.431897
vn 0.866978 -0.248624 -0.431897
vn 0.866978 -0.248624 -0.431897
vn 0.866978 -0.248624 -0.431897
vn 0.866978 -0.248624 -0.431897
vn 0.866978 -0.248624 -0.431897
vn -0.866978 0.248625 0.431897
vn -0.866978 0.248624 0.431897
vn -0.866978 0.248624 0.431897
vn -0.866978 0.248624 0.431897
vn -0.866978 0.248624 0.431897
vn -0.866978 0.248624 0.431897
s off
f 1/1/1 2/2/2 3/4/3
f 3/4/4 2/2/5 4/3/6
f 3/4/7 4/3/8 5/6/9
f 5/6/10 4/3/11 6/5/12
f 5/6/13 6/5/14 7/8/15
f 7/8/16 6/5/17 8/7/18
f 7/8/19 8/7/20 1/10/21
f 1/10/22 8/7/23 2/9/24
f 2/2/25 8/11/26 4/3/27
f 4/3/28 8/11/29 6/12/30
f 7/13/31 1/1/32 5/14/33
f 5/14/34 1/1/35 3/4/36
